<?xml version="1.0" encoding="UTF-8"?>
<svg id="Layer_1" xmlns="http://www.w3.org/2000/svg" version="1.1" viewBox="0 0 482.16 482.16">
  <!-- Generator: Adobe Illustrator 29.7.1, SVG Export Plug-In . SVG Version: 2.1.1 Build 8)  -->
  <defs>
    <style>
      .st0 {
        fill: #a7d9ed;
      }

      .st1 {
        fill: #1b3d7b;
      }

      .st2 {
        fill: #fbcea2;
      }

      .st3 {
        fill: #96c5d9;
      }

      .st4 {
        fill: #75c8da;
      }

      .st5 {
        fill: #f5a251;
      }

      .st6 {
        fill: #585757;
      }

      .st7 {
        fill: #1f407b;
      }
    </style>
  </defs>
  <path class="st5" d="M333.63,204.22c.36,5.8-7.87,10-12.82,12.18-7.31,3.21-16.58,4.71-24.44,3.45-1.92,1.01-4.26,1.04-7.01.11-27.58,0-57.11.24-84.76.89-2.91.97-5.39.97-7.44-.01-6.56,1.93-14.39.38-20.58-2.38-4.46-1.99-10.96-5.57-10.46-10.97-7.64-13.68-4.74-40.37.48-54.8,22.73-62.89,106.77-78.19,150.78-27.36,15.62,18.04,29.36,57.09,16.26,78.91Z"/>
  <path class="st3" d="M166.12,207.49c5.98,10.72,19.85,12.66,31.04,13.34l-.92,2.07c-16.7,7.21-14.24,29.73-8.22,43.49,18.97,43.34,79.6,48.96,109.16,12.83,11.22-13.72,20.2-47.6.05-57.35l-.84-2.02c4.55-1.17,9.28-1.14,13.95-2,8.61-1.58,18.65-5.88,23.3-13.63,27.72,77.92-57.23,147.25-129.92,104.06-1.19.95-2.81.58-4.89-1.09l.59,59.58-1.62.99c-1.36-.82-.84-3.04-.87-4.4-.41-20.03-.1-40.07-.71-60.1-29.19-22.28-41.24-60.91-30.1-95.79Z"/>
  <path class="st6" d="M197.8,367.76l-.62-63.42c.5-.58,5.54,3.35,6.54,3.95l.56,58.99c-.48,3.52-6.3,4.36-6.48.49Z"/>
  <path class="st2" d="M248.98,115.12c-29.97,12.15-53.84,36.07-73.4,60.96-6.81-24.95,14.16-52.6,36.97-61.62,10.76-4.25,26.83-7.13,36.43.66Z"/>
  <path class="st0" d="M197.16,220.83c8.62-2.96,19.24-1.72,28.01-1.85,15.48-.23,30.95-.33,46.43-.45,8.71-.07,15.87-1.57,24.78,1.32,20.9,6.79,15.13,38.84,6.57,53.67-23.83,41.28-88.72,41.37-113,.39-9.14-15.43-14.72-45.54,7.22-53.08Z"/>
  <path class="st4" d="M239.03,178.66c11.79-6.69,24.36,6.18,17.25,17.49-13.99,17.94-36.17-3.12-17.25-17.49Z"/>
  <path class="st4" d="M238.61,136.11c11.84-6.61,24.34,6.12,17.25,17.49-13.99,17.94-36.17-3.12-17.25-17.49Z"/>
  <path class="st7" d="M255.86,153.6c3.91-11.68-5.55-20.91-17.25-17.49,11.16-8.48,23.86,1.32,19.85,14.04-.61,1.94-1.7,2.31-2.59,3.46Z"/>
  <path class="st7" d="M256.29,196.16c3.98-11.53-5.67-21.08-17.25-17.49,11.16-8.48,23.86,1.32,19.85,14.04-.61,1.94-1.7,2.31-2.59,3.46Z"/>
  <path class="st1" d="M185.49,250.01c-2.55-31.54,24.63-27.96,47.9-27.97,11.39,0,22.7-.08,34.09-.34,24.99-.57,42.27-2.44,39.75,28.93-5.28,65.86-116.18,68.25-121.75-.63Z"/>
</svg>