<?xml version="1.0" encoding="UTF-8"?>
<svg id="Layer_1" xmlns="http://www.w3.org/2000/svg" version="1.1" viewBox="0 0 800 800">
  <!-- Generator: Adobe Illustrator 29.6.1, SVG Export Plug-In . SVG Version: 2.1.1 Build 9)  -->
  <defs>
    <style>
      .st0 {
        fill: #d2d6d8;
      }

      .st1 {
        fill: #276217;
      }

      .st2 {
        fill: #fff;
      }

      .st3 {
        fill: #276216;
      }

      .st4 {
        fill: #265f16;
      }

      .st5 {
        fill: #276116;
      }

      .st6 {
        fill: #b5babc;
      }

      .st7 {
        fill: #276117;
      }

      .st8 {
        fill: #3a2d26;
      }

      .st9 {
        fill: #266116;
      }

      .st10 {
        fill: #266117;
      }

      .st11 {
        fill: #fffde7;
      }

      .st12 {
        fill: #265f17;
      }

      .st13 {
        fill: #123b17;
      }

      .st14 {
        fill: #fffef0;
      }
    </style>
  </defs>
  <path class="st6" d="M681.99,685.21c0,64.93-127.9,102.1-281.99,102.1s-281.99-37.17-281.99-102.1,127.9-133.07,281.99-133.07,281.99,68.14,281.99,133.07Z"/>
  <path class="st0" d="M387.91,477.38c195.36,0,312.73,55.29,312.73,145.71s-7.54,169.42-304.59,174.39c-239.26,4.01-290.98-76.65-290.98-167.08s87.48-153.03,282.84-153.03h0Z"/>
  <path class="st6" d="M681.99,648.04c0,64.93-127.9,102.1-281.99,102.1s-281.99-37.17-281.99-102.1,127.9-133.07,281.99-133.07,281.99,68.14,281.99,133.07Z"/>
  <path class="st0" d="M662.18,654.66c0,61.09-117.33,110.43-262.18,110.43s-262.18-49.55-262.18-110.43,117.33-110.43,262.18-110.43,262.18,49.34,262.18,110.43Z"/>
  <path class="st2" d="M2.44,607.48c0-87.3,180.29-137.15,397.56-137.15s397.56,50.06,397.56,137.15-180.29,178.87-397.56,178.87S2.44,694.78,2.44,607.48Z"/>
  <ellipse class="st0" cx="400" cy="607.46" rx="398.66" ry="167.89"/>
  <path class="st6" d="M681.99,610.45c0,64.93-127.9,102.1-281.99,102.1s-281.99-37.17-281.99-102.1,127.9-133.07,281.99-133.07,281.99,68.14,281.99,133.07Z"/>
  <path class="st0" d="M662.18,616.86c0,61.09-117.33,110.43-262.18,110.43s-262.18-49.55-262.18-110.43,117.33-110.43,262.18-110.43,262.18,49.55,262.18,110.43Z"/>
  <g>
    <path class="st14" d="M114.81,524.19l5.72-12.01,2.53-2.01c20.61-37.36,42.07-65.57,77.6-88.77,68.71-44.84,151.56-47.2,221.73-5.04.16,1.04-.6.99-.54.98,1.46-.25,12.97,14.95,14.61,17.73,27.52,46.79,10.2,95.84-27.87,129.38-34.64,30.51-82.36,52.69-125.23,67.88-42.07,14.91-86.55,25.67-131.07,22.14l-2.09.87c-9.98-2.01-25.25-7.86-34.3-12.73-29.99-16.14-27.99-35.16-19.48-65.31.59-4.11,2.05-7.49,4.35-10.13-.12-.91-.2-1.82-.19-2.73.09-5.56,8.69-30.54,11.83-35.58,2.25-2.34,2.17-2.35-.21-.05"/>
    <path class="st13" d="M505.24,479.86c7.5-4.92,13.57-3.78,19.99-7.06,2.43-1.24,2.63-3.97,4.73-5.92,6.45-5.99,18.13-1.78,14.96,7.92,1.87-.11,3.27-1.42,5.24-1.47,2.21-.06,4.44,1.38,6.84.66,1.87-.56-1.28-5.79,3.73-6.96,6.74-1.58,7.17,4.6,9.58,4.6,2.81,0,1.15-5.73,7.62-4.72,6.18.96,6.38,11.36,7.69,11.48,5.77-2.43,9.43-8.37,16.41-6.13,4.94,1.58,1.5,7.08,2.06,7.61,8.47-.7,14.22-5.45,21.91,1.46,4.17,3.75,4.51,10.69,5.2,11.23.87.69,6.71-1.25,8.73-1.21,7.29.15,13.83,5.7,12.19,13.77,4.54-2.3,8.54-2.18,12.54,1.07,3,2.44,2.27,3.97,6.25,5.43l.31,1.55c-3.25,5.86-6.24,8.12-12.14,10.72-3.66,3.41-5.49,5.12-5.49,5.12,3.4,3.79,6.05,8.02,7.96,12.68,3.8,6.69,16.9,3.37,9.66-5.06l.39-1.92.79-1.55c3.76,0,3.5-3.18-.15-3.56-5.8-4.74,4.15-8.37,4.94-2.83,2.63-.26,4.45,2.43,5.69,4.66l3.77,6.98c11.92-4.02,22.85,7.25,15.02,19.03l3.56,7.05c12.09-2.59,17.23,9.66,12.57,19.75,9.68-1.95,13.8,6.05,9.56,14.52l6.49,6.07c4.91,5.04,4.24,12.63-3.05,13.58.42,1.25-.17,2.27-1.77,3.08,10.06,16.7-9.46,22.82-22.39,21.82-.05,8.54-5.81,12.75-13.87,10.52-2.07,9.12-10.34,14.18-17.91,7.88-6.37,16.76-28.16,16.75-42.79,13.11-3.21,4.51-8.69,9.87-14.42,9.01l-9.44-2.76c-3.85-1.36-5.12.64-6.92,3.89-11.46,11.08-28.54,13.84-41.31,4.16l-2.25,1.07c-7.82,8.51-16.04,9.2-23.79.13-6.42,8.62-18.54,11.61-28.46,8.9-3.49-.95-10.62-3.79-9.97-7.92-2.24-.14-1.69-2.03.54-2.09,3.01,3.3,14.24-6.99,14.76-8.98,1.57-5.95-21.9-12.85-26.68-12.33-6.72-4.52-9.91-4.82-17.29-2.52-6.59,2.06-8.47,2.8-4.49,9.94l10.72-3.98c6.64-.29,12.74,4.8,12.03,12.12.78,2.89,3.87,4.98,6.4,6.19l.53,1.65c.77,2.9-3.85,4.92-6.26,5.51-5.53,1.37-10.55-1.33-15.29-3.9-8.28,10.42-24.37,4.37-33.21-2.24-5.48,5.84-12.63,7.96-21.45,6.35-2.42,1.43-6.44,1.77-8.79.95-1.87-1.56-3.58-3.3-5.12-5.22l-2.87-.09c-9.08,3.42-20.04,1.19-19.77-10.38-7.37,2.97-25.13,6.03-31.53.55-1.4-1.2-3.36-3.33-1.2-4.52-.79-4.19.01-7.44,2.41-9.76l5.23-3.62c-5.16-11.18,7.5-18.84,17.08-15.35,2.26-3.72,5.48-6.83,9.64-9.33l1.03-1.77c-.77-9.5,2.05-13.19,10.94-15.65-.03-9.88.73-20.44,13.04-15.33,1.64-.14,2.74.37,3.29,1.54,1.13-2.55,5.21-.65,6.37,1.4,1.84.89,6.76,2.83,8.5,2.51.99-.18,12.7-8.68,14.35-10.02,6.31-5.12,5.8-5.97-2.39-7.87-4.97-5-9.96-6.11-16.84-6.14l-.94-1.53c.2-3.42,4.21-2.8,6.64-2.19-.71-12.11,8.94-13.78,18.12-14.84-1.35-9.62,6.19-19.56,14.43-23.36-3.17-7.86,2.31-14.35,10.26-14.37-.75-6.65,7.17-10.97,11.11-5.84l1.51.39c1.7,7.78,4.73,8.84,12.19,8.36l4.97,1.26c2.34,1.27,2.88-.77,1.6-6.13,3.53-5.98,3.72-9.15.56-9.52-4.11.67-7.13.03-9.07-1.93,3.27-12.82-10.11-8.55-7.6,2.06-2.27,1.95-2.63.69-2.76-1.71-3.2-2.34-.1-7.91,2.18-10.5,2.16-2.46,10.83-8.44,13.81-9.13l1.42.87c-.83-2.12,3.22-3.31,4.18-1.44l2.25.25c6.58,6.44,19.45,13.09,27.26,5.77-12.57-5.63-9.65-12.67,2.87-13.54,3.01-.4,6.7-6.47,5.66-9.03-2.63-6.52-18.45,3.5-21.07,6.85-3.58,2.58-8.6,4.86-12.79,3.91-1.23,1.07-4.49-1.81-5.3-2.92-4.3-5.84-2.54-10.58,4.61-10.79Z"/>
    <path class="st11" d="M422.4,416.37c25.05,15.05,44.47,32.37,60.56,57.72.65.35,1.28.73,1.85,1.19,2.76,2.23,12.17,19.6,12.68,23.26.1.74.11,1.49.09,2.25-5.55,2.99-15.56,7.46-17.09,14.4-.36,1.64-.15,2.92-.31,4.36,1.02,2.37,1.48,6.37-1.39,7.22-2.5-.36-4.28-1.3-6.79-.18-3.95,1.77-2.67,7.09-2.96,7.39-.38.4-6.82-.64-9.75,3.96-.96,1.5-1.46,3.26-1.45,5.06.02,2.04,1.4,4.11,1.38,4.33-.04.52-6.31,3.75-7.61,5.01-2.37,2.3-6.98,9.91-7.47,13.19-.31,2.07.78,5.78-.13,6.35-5.91.81-13.8.55-16.89,7.03-1.03,2.17-.52,6.92-1.22,7.41-1.23.86-2.94-.35-4.4-.25-1.12.08-2.23,1-3.29,1.29.84,2.43-2.04,2.68-3.96,2.38-.26,6.49-1.9,12.39-3.69,18.45l-1.4.82c-.94-.12-2.01.1-3.06-.04-2.9-.39-3.86-2.56-7.9-.85-6.35,2.69-2,11.88-4.3,15.57-.99,1.59-7.51,1.5-9.72,5.98-1.47,2.98-.39,5.54-.82,8.53-.85,5.75-10.59,6.51-11.13,13.38-5.45-2.61-12.71-1.69-16.36,3.59-3.85,5.57.2,8.39-.37,10.38-.44,1.54-7.57,3.21-8.84,8.95-.23,1.03-.35,2.79-.16,3.79.56,2.51-1.19,1.76-2.02-.39l.44-4.39-21.73,1.55c-2.03-.05-4.01-.42-5.93-1.1-1.11,2.12-3.72,2.05-4.87,0-2.23,1.5-4.51,1.83-6.96.72-1.17.41-2.34.78-3.54,1.05s-2.37.53-3.55.55c-48.11.81-96.94-5.17-142.92-19.85l-3.14-1.96c12.1-1.31,24.4-.52,36.54-1.45,67.61-5.19,183.7-49.75,230.79-101.35,28.61-31.35,38.93-74.15,17.25-113.16-4.43-7.97-9.98-12.94-14.76-20.06-.58-.87-2.14-2.48.27-2.09Z"/>
    <path class="st8" d="M505.24,479.86c-3.7,2.43-7.62,3.17-4.49,8.63,1.23,2.14,3.81,3.11,5.19,5.08,1.09,1.84-2.16,6.87-4.18,5.77-.16.16-3.2.92-4.18,1.44-4.56-8.97-9.24-18.23-14.62-26.7l22.28,5.77Z"/>
    <path class="st3" d="M520.52,564.31c1.78,1.79-2.78,9.8-2.69,10.33.19,1.09,4.51,3.91,4.01,7.16-.11.69-3.07,5.66-3.69,6.33-.53.57-6.1,4.55-6.63,4.73-2.53.85-2.86-1.42-4.66-2.49-9.69-5.77-4.83,1.95-7.38,4.75-4.37,4.81-17.59-2.11-23.14-2.69s-15.47-.18-21.61-.03c-2.19.05-4.32,1.15-6.58.75-.96-12.83,11.98-15.48,21.61-13.38,1.55.34,5.65,3.36,6.01.05.19-1.73-2.95-3.74.42-5.59,4.99-2.74,8.23.06,13.01.88,1.08-6.04-.57-13.12,3.88-17.99,3.08-3.37,4.73-1.73,7.57-2.19,1.9-.31,2.91-2.77,5.47-2.06,2.12.59,2.38,3.86,4,5.29,1.34,1.18,3.61,1.32,4.8,2.24,1.09.84,1.46,2.82,2.87,3.54.86.44,2.59.27,2.72.4Z"/>
    <path class="st3" d="M555.76,520.67c.24-.17.25-.98.79-1.1,5.98-1.35,11.65,2.45,17.27,2.87,4.52.34,7.59-2.31,11.82.72,6.72,4.83-4.8,9.35-8.83,10.33-5.51,1.34-13.78-1.31-17.75,3.6-2.84,3.53,1.24,2.44,2.24,4.09,1.52,2.53-5.42,11.12-6.57,13.98-.22.52-.64.5-1.11.55-1.82.18-8.26-1.19-9.04-2.98-2.21-5.08,2.63-4.74,3.13-7.61.46-2.64-3.05-1.68-2.03-4.9.2-.64,8.58-5.37,10.05-8.4.92-1.89-2.99-4.6-4.96-2.95-1.32,1.1-2.31,7.55-4.18,7.98-.84.19-4.78-3.44-8.13-2.74-2.86.6-3.61,3.67-5.35,5.32-3.55,3.36-10.43,9.6-13.61,2.49-2.07-4.62,0-7.23-4.6-11.83-1.55-1.55-6.06-3.33-5.92-5.13.33-4.33,8.31-5.04,11.44-4.2,3.84,1.03,4.17,3.2,9.22,2.07,5.6-1.25,8.6-7.08,11.82-8.66.49-.24,6.14-1.8,6.65-1.83,5.23-.28.26,8.72,1.59,10.48,2.06,2.72,4.18-.83,6.04-2.16Z"/>
    <path class="st9" d="M648.64,590.25c4.6.94,7.01-3.12,10.67-5.17,2.5-1.4,10.08-4.56,12.72-4.87,3.97-.47,14.87,2.35,12.45,7.87-1.63,3.72-8.71,2.49-11.76,2.96-7.62,1.16-8.48,6.28-12.92,11.14-2.61,2.86-12.76,13.41-16.73,10.84-2.48-1.61-1.81-7.68-2.55-10.37-1.41-5.1-7.75-12.74-13.23-12.94-1.16-.04-1.88.97-2.77,1.1-1.86.27-7.29-5.48-7.18-8.05.02-.37,1.27-6.84,1.45-7.15,2.03-3.41,10.1-1.28,13.1-.08,1.62.65,2.93,3.28,4.93,2.16.38-.21,3.97-6.7,4.46-7.69,1.08-2.22.45-5.8,3.57-6.42,5.12-1.03,4.56,2.3,6.9,5.08.89,1.05,2.44,1.5,3.19,2.46,3.33,4.28-3.52,15.25-6.28,19.14Z"/>
    <path class="st3" d="M569.28,585.21c-.43-.44-9.41,1.55-12.07.6-1.61-.57-3.58-4.74-3.25-6.7.61-3.61,15.48-14.33,15.01-17.79-.18-1.27-1.77-2.81-1.47-3.53,1.11-2.61,6.61-3.68,9.11-3.63,2.27.05,15.06,5.77,16.37,7.56,1.76,2.41,1.5,7.04.17,9.61-.63,1.21-2.07.61-1.58,1.95,1.33,3.65,11.49,4.04,11.9,10.84.13,2.21-2.6,5.94-4.61,6.14-3.66.37-12.15-2.43-14.61-5.76-.4,0-2.93,7.27-3.02,7.74-.5,2.81,1.81,5.84-3.43,7.24-2.4.64-8.52-1.69-8.52-3.81v-10.46Z"/>
    <path class="st9" d="M538.69,651.66c-1.52,2.28,13.31,14,14.3,17.23.82,2.66-5.02,8.03-7.66,7.93-5.78-.22-13.08-9.55-16.79-13.67l-4.99,8.55c-1,.36-9.3-.74-9.67-1.29-2.76-4.07,5.33-14.32,5.25-17.75-.03-1.35-4.3-5.37-3.85-7.62.56-2.77,4.32-3.16,4.96-4.26.6-1.04-1.29-2.92.58-4.4,3.12-2.46,8.7,1.19,10.35.08s.36-12.84,7.16-8.71c1.32.8,7.25,8.73,7.3,10.46.12,4.21-3.06,6.51-3.4,8.12-.22,1.01.79,2.19.28,3.1-.55.98-3.67,1.99-3.83,2.23Z"/>
    <path class="st5" d="M553.42,475.69c.34-.2,7.06-.81,7.89-.78,1.99.06,4.14,2.45,6.88,2.07,3.45-.48,9.91-9.35,14.24-2.44,2.66,4.25-4,5.65-4.08,8.55-.06,2.23,3.75,4.9,3.89,6.51.09,1.05-1.52,4.74-1.74,6.57-.68,5.83.4,16.05-8.17,16.84-2.31.21-9.18-4.02-10.31-5.79-.19-.29-2.92-5.92-3.01-6.26-.78-3.03.57-6.85-.79-10.01-.73-1.69-2.08-1.79-2.76-2.91-1.53-2.52-5.32-10.42-2.04-12.37Z"/>
    <path class="st9" d="M618.97,600.1c1.34,1.52,3.48,2.88,3.22,5.63-.03.3-1.85,5.48-2.02,5.73-.42.62-1.9.58-2.87,1.51-3.19,3.06-2.77,5.52.36,8.35,1.25,1.13,4.91,2.45,5.58,3.6,1.71,2.96-.5,13.03-4.87,13.06-1.71.01-2.55-4.41-3.5-5.82-2.4-3.58-5.16-2.32-8.18-3.79-2.48-1.21-5.91-5.42-8.62-6.94-2.89-1.63-6.7-1.13-7.7-4.99-1.55-5.96-1.09-12.58,4.31-16.07,7.29-4.71,5.44-.31,7.47,3.84,2.72,5.55,10.56-10.06,15.15-6.34.79.64,1.06,1.55,1.68,2.25Z"/>
    <path class="st9" d="M492.01,691.28c-2.62-.46-7.5-4.26-8.19-7.03-.54-2.16.24-3.78-.95-6.23-1.32-2.71-6.13-5.64-9.11-5.36s-10.32,4.63-11.92,4.11c-1.11-.36-3.09-6.5-3.11-7.65-.09-3.96,13.03-6.85,16.23-6.77,4.83.13,6.07,3.26,9.9,4.22,1.47.37,3.11-.05,4.55.33,4.8,1.28,24.44,6.17,22.68,13.75-.38,1.65-13.68,15.18-16.58,9.18-.14.4.08,1.34-.02,1.43-.14.11-2.94.09-3.48,0Z"/>
    <path class="st9" d="M683.9,628.76c-3.12-2.59-7.83-1.88-11.59-3.14.05,2.66,3.04,3.58,1.74,6.47-.87,1.93-10.39,10.08-12.55,10.19s-7.71-3.07-10.23-3.89c-3.16-1.02-10.91-1.79-12.42-4.44-2.18-3.83.16-6.33,2.82-8.72,1.26-1.13,8.29-5.59,9.55-5.98,4.54-1.39,6.52,2.19,9.63,2.7,1.99.33,4.21-.28,6.19.08,1.6.29,5.14,3.7,5.11.51-.01-1.59-1.46-3.32.08-5.31,2.41-3.12,15.53-1.32,17.11,2.62.87,2.17.49,10.23-.67,12.26-1.09,1.92-4.33-2.99-4.78-3.36Z"/>
    <path class="st9" d="M600.47,492.33c3.51-.37,12.24.55,11.18,5.77-.32,1.56-4.26,5.68-.61,7.43,1.17.56,11.84-4.28,14.48-4.57,9.65-1.06,18.92,10.5,9.17,14.6-3.88,1.63-6.28-4.19-12.8-3.17-4.26.66-10.08,6.1-14.66,6.51-2.05.18-9.45-1.1-11.28-2.09-5.47-2.97-1.41-7.07-1.55-12.05-.07-2.55-1.73-4.85-1.34-7.05.61-3.46,4.43-5.07,7.41-5.38Z"/>
    <path class="st10" d="M631.25,660.27c-.74,1.98,1.69,1.32,2.05,2.58.81,2.81-8.03,10.5-10.59,10.26-5.04-.47-7.35-8.19-10-9.89s-5.64.34-8.57-2.66c-.84-.85-3.97-5.89-3.9-6.87.48-6.19,3.6-4.42,7.47-5.92,1.6-.62,8.68-4.87,9.28-4.87,1.6,0,2.12,2.75,3.43,3.67,3.93,2.77,13.24-.07,18.66.86,2.47.42,5.87,1.75,4.36,4.89-.56,1.16-10.39,6.3-12.19,7.94Z"/>
    <path class="st7" d="M404.4,639.23c.57.67,6.02,1.31,5.36,4.61-.17.87-1.97,2.96-2.66,3.8-3.04,3.72-18.04,15.59-22.24,16.63-6.7,1.65-11.3-.97-8.06-8.35,1.31-2.99,3-2.88,4.54-4.67,5.11-5.97.83-13.96,6.99-19.45,4.17-3.71,13.15-3.88,15.61,1.77.78,1.79-.02,5.08.47,5.66Z"/>
    <path class="st5" d="M505.94,493.57c1.7-1.52,4.99-1.43,7.16-2.32,8.88-3.68,14.55-14.55,25.6-11.06,4.67,1.47,2.15,7.33-.01,10.16-3.23,4.22-7.26,2.75-10.6,4.11-8.79,3.57.06,7.34,4.12,9.78.42.26,1.37.03.88,1.23-.44,1.08-5.5,4.28-6.77,4.54-2.41.5-3.46-.27-5.49-.48-2.69-.28-3.68-.14-6.52-1.32-4.78-1.98-8.93-5.07-12.55-8.86.69-.66,3.25-4.94,4.18-5.77Z"/>
    <path class="st5" d="M418.22,587.38c3.72.34,8.96.46,12.49,1.84,2,.78,4.36,3.99,6.49,4.81,2.58,1,5.43-.2,6.48,3.42.73,2.53-.04,3.19-1.84,4.66-1.8,1.47-16.46,11.93-17.48,12.2-1.36.36-7.37-1.51-8.75-2.18-2.84-1.38.19-2.28-6.44-3.11-.14-3.51,1.94-6.65,2.62-9.91.35-1.71.75-10.42,1.6-11,.44-.3,1.91.54,2.84.31.7-.17,1.35-.88,1.99-1.05Z"/>
    <path class="st9" d="M579.8,661.77c-.47.67,1.7,6.76-1.21,7.76-.42.15-8.22.88-8.89.8-2.15-.26-7.45-3.78-8.39-5.8s-.68-5.04-1.42-7.19c-1.1-3.18-4.91-5.42-3.32-9.19,1.6-3.76,6.3-3.21,9.6-3.1,5.51.18,15.67.48,20.04,3.75,3.47,2.6.12,7.78-2.29,10.38-1.33,1.44-3.99,2.37-4.14,2.57Z"/>
    <path class="st9" d="M697.19,595.51c.62.76-.07,2.59,1.85,2.66,5.2.2,8.48-5.59,14.69-1.42.44.29,2.97,2.85,3.17,3.21,1.9,3.48,1.49,14.46,3.37,18.86,0,.74-.37,1.38-.92,1.82-.58.46-6.24.72-6.85.55-1.29-.35-6.7-5.71-7.83-7.1-1.05-1.29-3.35-5.86-3.81-6.15-2.8-1.79-10.06,1.64-14.3-3.22-7.23-8.3,8.06-12.36,10.63-9.2Z"/>
    <path class="st3" d="M534.36,591.83c2.25,1.43.2,7.23,1.95,7.76,2.44.73,14.74-5.18,13.99,3.2-.68,7.63-10.81,7.48-16,8.57-4.8,2.48-15.64,12.97-20.52,7.58-5.56-6.13,8.39-16.04,11.66-20.37,1.26-1.67.97-3.7,3.12-5.43,1.32-1.07,4.37-2.23,5.81-1.31Z"/>
    <path class="st3" d="M461.88,603.39c5.33-1.67,11.23,2.84,5.09,7.43,2.16,3.99,9.59.48,9.66,5.76.08,6.28-8.73,8.17-13.53,8.32-3.11.1-9.5-1.84-11.62-1.32-4.15,1.01-4.41,7.69-9.94,7.15-6.55-.64-2-7.94.36-11.24,4.94-6.89,9.58-7.38,15.27-11.59,1.45-1.07,3.38-4.08,4.71-4.5Z"/>
    <path class="st1" d="M464.87,647.26c3.94-.94,8.25-1.32,11.78,1.14,2.11,1.47,1.02,4.9-.63,5.73-1.27.65-7.9,1.14-10.61,1.99-3.63,1.14-8.83,3.5-12.52,5.06-3.76,1.59-15.72,10.44-14.47.21.52-4.32,4.48-5.82,6.89-8.06,4.72-4.39,4.9-4.98,8.11-10.35,2.1-3.51,6.39-8.17,10.73-6.16,4.85,2.24-.13,9.52.72,10.44Z"/>
    <path class="st3" d="M627.32,543.1c-3.64-4.92-5.01-9.8-5.02-16.01,0-3.49,3.56-3.58,6.16-2.87,1.4.38,11.95,5.62,13.16,6.56,1.06.83,6.09,6.04,7.02,7.15,5.33,6.43-6.81,16.33-13.92,12.99-.62-.29-6.67-6.83-7.41-7.83Z"/>
    <path class="st3" d="M689.62,553.56c-.11,4.36,3.22,10.8,1.33,14.54-1.63,3.22-4.2,2.24-6.84,3-1.36.39-2.92,1.55-3.97,1.72-2.71.45-6.08-4.17-8.95-5.56-3.57-1.74-9.44-1.36-10.58-6.41-1-4.43,1.84-4.14,3.16-5.43.88-.86,1.09-2.75,2.78-3.26.87-.26,6.94-.86,8.24-.89,1.17-.03,6.61.24,7.65.38,2.41.34,4.64,1.96,7.19,1.9Z"/>
    <path class="st9" d="M562.15,614.99c4.53-.66,5.02.75,8.21,1.21,2.04.3,5.8-.53,7.28.39,1.26.78,1.08,3.44,1.78,4.65s4.06,6.19,4.88,7.21c1.23,1.52,5.43,1.8,3.43,5.11-.6,1-5.37,4.55-6.91,3.58-6.78-3.76-17.05-5.75-23.34-9.77-9.57-6.11-3.84-11.15,4.66-12.39Z"/>
    <path class="st3" d="M611.08,557.1c-1.03,1.03.45,10.28-6.58,9.33-6.57-.89-4.7-5.12-5.45-9.55-.28-1.65-1.6-4.64-2.49-6.08-2.07-3.39-5.57-4.66-7.14-7.05-1.92-2.94,4.62-5.77,7.29-5.42,4.25.56,6.59,5,9.96,6.33,3.27,1.29,17.2.59,16.59,6.73-.71,7.16-11.61,5.15-12.18,5.72Z"/>
    <path class="st4" d="M480.18,519.55l1.39,2.16c-.27-5.84-.36-11.52,6.66-11.57,7.06-.05,2.8,8.12,3.83,9.36,3.39.86,9.82-1.58,11.42,2.91.59,1.65-2.77,5.84-3.07,8.39-.25,2.18.8,5.57.59,6.33-.77,2.76-6.84.05-8.72-.19-3.76-.48-7.74.97-10.62-2.7-.66-.84-2.91-6.75-2.88-7.48.02-.38,1.16-5.12,1.39-7.22Z"/>
    <path class="st7" d="M497.33,607.09c2.03-.13,5.61,1.31,5.84,3.77.2,2.11-3.45,7.73-4.04,10.23-.81,3.38-.21,11.36-1.5,13.6-1.84,3.19-9.04,3.74-12.24,3.53-1.42-.09-8.4-2.8-8.62-3.63-1.17-4.47,5.86-6.28,8.27-8.62.62-.6,3.24-4.1,3.63-4.89,2.24-4.52,1.89-13.57,8.65-13.99Z"/>
    <path class="st7" d="M432.68,655.03c-4.33,4.62-12.88-6.7-14.06-10.71-1.09-3.7-1.47-14.34,2.4-16.22,2.2-1.07,8.06,1.97,9.68,3.7,1.79,1.92,5.26,10.91,4.9,13.6-.13.93-2.58,9.26-2.92,9.63Z"/>
    <path class="st10" d="M418.04,662.59c4.55-1.24,5.7,1.44,6.91,5.47,2.24,7.44.02,6.54-4.89,9.61-1.24.77-2.12,2.68-3.55,2.75-1.06.05-4.79-1.59-6.47-1.95-5.89-1.25-9.64.78-9.27-8.49.42-10.25,6.04-4.38,10.81-4.65,3.12-.18,4.53-2.22,6.46-2.74Z"/>
    <path class="st12" d="M659.09,523.88c.15.04.81,1.06,1.85,1.3,1.7.4,2.97-.25,4.81.82,1.93,1.13,4.71,6.57,5.88,8.7.71,1.3,1.88,2.11,2.45,3.59,2.84,7.44-3.8,9.23-9.61,7.8-4.51-1.12-5.28-7.85-7.55-10.93-1.39-1.87-4.25-2.85-4.68-6.05-.34-2.54,4.79-5.76,6.86-5.23Z"/>
    <path class="st9" d="M547.69,577.27c-.26.26-6.46.85-7.25.71-4.9-.86-8.51-8.04-11.58-11.12-1.62-1.63-5.59-2.27-5.59-5.82,0-2.49,3.73-4,5.97-4.04,4.14-.08,10.13,3.81,12.92,6.91,1.77,1.97,7.72,11.18,5.54,13.36Z"/>
    <path class="st5" d="M472.32,549.29c4.08-1,7.37-.42,7.2,4.51-.07,1.98-3.4,14.38-4.52,15.58-1.32,1.42-7,4.85-8.97,4.19-5.87-1.97.08-22.75,6.29-24.28Z"/>
    <path class="st12" d="M500.44,645.18c1.08-.91,7.74-.35,9.36.61,8.47,5.07-5.79,16.92-9.96,8.16-.9-1.9-.47-7.86.6-8.77Z"/>
  </g>
</svg>