<?xml version="1.0" encoding="UTF-8"?>
<svg id="Layer_1" xmlns="http://www.w3.org/2000/svg" version="1.1" viewBox="0 0 384 384">
  <!-- Generator: Adobe Illustrator 29.6.1, SVG Export Plug-In . SVG Version: 2.1.1 Build 9)  -->
  <defs>
    <style>
      .st0 {
        fill: #d7e9fa;
      }

      .st1 {
        fill: #358fba;
      }

      .st2 {
        fill: #fbdc2e;
      }

      .st3 {
        fill: #f8c201;
      }

      .st4 {
        fill: #88c527;
      }

      .st5 {
        fill: #3690b9;
      }

      .st6 {
        fill: #94d428;
      }

      .st7 {
        fill: #3590ba;
      }

      .st8 {
        fill: #3c5959;
      }

      .st9 {
        fill: #394949;
      }

      .st10 {
        fill: #fefefe;
      }

      .st11 {
        fill: #e7f2fe;
      }
    </style>
  </defs>
  <path class="st6" d="M196.51,128.59l1.14,1.03c.87,11.4.82,19.75-8.82,26.34-4.4,5.18-5.01,20.15-.01,25.29,10.14,5.87,9.92,17.29,8.83,28.4l-1.13.87c-1.21-.07-2.28-1.02-3.23-2.84-1.89-.68-3.27-1.57-4.15-2.67-6.21-.8-13.22-.45-19.63-.03-.51.03-.99.54-1.46,1.19-9.31-.27-18.6-.3-27.86-.08-3.21.13-5.28,3.26-5.92,6.37l-.23,104.51c.19,9.23,7.39,9.2,14.42,8.98l17.91-.5,1.2,1.21,3.6-1.17,12.18.36c4.67.71,8.42-.43,11.26-3.42l1.34-.05c.37-.37,1.07-.68,1.24-.37.87,1.62.79,13.47.63,16.02-.46,7.2-2.27,16.31-9.82,17.97h-65.85c-8.61-2.48-12.38-8.71-13.05-18.04.53-49.17-1.11-98.62.84-147.64,2.01-6.76,8.55-7.27,10.78-14.07,1.46-4.44,1.38-14.77-.42-19.08-2.54-6.09-9.71-6.56-10.64-14.52-.38-4.85-.51-9.81-.4-14.85,29.08-.66,58.2-1.03,87.25.79Z"/>
  <path class="st4" d="M196.51,128.59l2.07-1.23c2.99-.2,21.19-.71,21.85.23l.49,2.22c.51.11.49.32,0,.61.5,3.35,1.48,14.7-.84,16.91l-1.43.2c-2.21,3.58-7.07,5.02-9.02,9.54-2.06,4.77-1.88,17.09.71,21.72,2.93,5.25,9.2,5.52,10.02,13.66v149.17c-.94,7.38-5.73,11.88-11.92,14.36h-20.44c10.54-7.1,8.64-18.5,8.52-30.27-.01-1.03.36-2.72-.58-3.35-.78-.87-.96-1.99-.54-3.37-.09-31.91-.06-63.83.07-95.73,0-2.13.17-4.25.34-6.38s.43-4.26.7-6.39c-.06-5.47.83-15.46-.86-20.17-2.14-5.94-9.42-6.72-10.81-14.03-.73-3.84-.65-14.04.78-17.57,2.34-5.79,9.35-7.48,10.64-14.22.83-4.34.22-11.24.25-15.93Z"/>
  <path class="st8" d="M184.59,43c3.78,3.16,3.88,7.61-1.14,9.17l-5.44.32-.42.91h-25.76l-.42-.91-5.44-.31c-4.76-1.81-4.4-6.48-.57-9.17h39.17Z"/>
  <path class="st8" d="M218.65,147.54c2.65-4.29,1.56-10.64,1.68-15.64.02-.81.59-1.4.59-1.48l2.47,2.98c4.93,11.34,10.78,22.29,16.88,32.75,2.85,4.9,6.02,10.06,9.73,14.23,13.5,15.17,21.69,2.63,10.88-13.17-10.35-15.11-25.59-29-39.44-40.09l-.52-1.59c-1.74-2.21-1.8-8.83,0-11,7.26,4.1,13.73,9.8,19.88,15.58,9.46,8.89,28.85,28.14,32.93,40.34,6.98,20.9-7.09,34.87-24.94,22.58-4.42-3.04-7.64-7.2-10.73-11.67-7.26-10.51-12.84-22.8-19.41-33.82Z"/>
  <path class="st9" d="M170.4,70.51c.96-1.96,6.68-1.46,7.38.61,8.43,1.17,28.54,5.8,36.15,9.06,4.97,2.13,5.63,4.68,6.42,9.9.54,6.63.54,13.15,0,19.56-7.8.53-16.12.5-23.84,0-.44-.05-1.11-.21-1.14-.55-.14-2.08-.18-16.43.38-17.08.18-.21.46-.32.76-.41l-1.17-.28c-1.81-6.08-5.54-10.43-11.42-12.28l-12.21-4.33c-3.86-1.08-7.98-5.28-1.31-4.2Z"/>
  <path class="st0" d="M183.46,52.17c-2.03.63-3.45.84-5.68.61v18.34c-2.18-.3-5.19-.59-7.38-.61-1.64-.67-2.63-.51-2.94.48l-14.13,1.12-1.66-.99v-18.34c-2.23.12-3.62.18-5.68-.61h37.47Z"/>
  <path class="st0" d="M220.92,114.53c-.03,3.41.07,7.66,0,11,1.53,1.37,1.55,2.92,0,4.28-.54-1.16-.79-1.18-1.93-1.26-7.06-.53-15.27.05-22.48.04-1.61-5.97-1.67-12.38,0-18.34,8.14-.16,16.08-.36,23.84-.61v-19.56c1.17,7.76.63,16.47.57,24.45Z"/>
  <path class="st8" d="M170.4,70.51c-.94,0-1.9,0-2.84,0-.19.14.33.75.56.92,6.06,4.34,18.59,5.28,24.07,11.37,1.31,1.45,4.32,6.96,4.32,8.8v18.03h23.84l-.82.63c-7.67-.01-15.35-.04-23.02-.02-6.42.61-12.85,1.22-19.3,1.25-22.65.12-45.29-.05-67.94-.43-1.09-.02.26-21.57.38-23.44,1-4.01,3.22-6.28,6.82-7.64,8.33-3.14,26.32-7.48,35.19-8.87,3.95-.62,8.73-.99,12.75-1.25,1.72-.11,4.51-.38,5.98.64Z"/>
  <path class="st11" d="M109.66,87.63v22.62c28.94-.08,57.91.09,86.85,0-.03,6.1.05,12.24,0,18.34-28.94-.05-57.91.04-86.85,0,.37,4.45-.5,9.74,0,14.06-.94-.64-.57-2.32-.58-3.35-.17-15.01-1.31-35.14-.03-49.6.11-1.22.46-1.47.61-2.07Z"/>
  <path class="st2" d="M189.13,205l-2.21,1.11-15.67.18c3.63,5.17,3.05,14.69,2.47,20.99l-1.05.95-.65,1.19c-6.4-.51-12.77-.47-19.12.13-.71.16-1.33.55-1.82,1.15-6.72,8.29,17.93,6.47,20.64,6.15l.95,1.17,1.19.5-.19,11.03c2.41-.28,3.4.36,2.97,1.93l-.78,1.14c-8.07-.77-16.05-.62-23.97.46-4.96,5.96,3.16,7.2,7.45,6.71l12.63-.34.68,1.2c.44.06,1.09.2,1.14.54.14,1.13.19,11.36,0,12.04l-1.14.87-.66,1.19-12.37-.34c-4.36-.32-12.28.28-8.1,6.74,8.12,1.05,16.3,1.22,24.56.49l1.11,1.09c.11,1.23-1,1.88-3.32,1.95l-.22,9.97c2.6-.08,3.78.64,3.54,2.14l-.33.77c-7.67-.12-15.39,0-23.18.37-8.51,3.24.14,8.75,5.65,7.17l12.63-.34.68,1.2,1.08.85c.71,5.82,1.42,19.15-6.19,19.33-7.81.05-20.92,1.15-28.06-.04-4.33-.72-6.78-5.62-6.59-10.02l.17-103.79c.22-3.13,2.88-7.26,5.84-7.77,6.9-1.18,18.55.12,26.1,0,6.95-.12,13.94-.74,20.99-.65.96.01,2.52-.39,3.11.62Z"/>
  <path class="st3" d="M189.13,205c4.17.3,5.38,1.63,7.38,5.5.39,36.16-.31,72.37.02,108.54-.08,1.05-.2,2.39-.59,3.33-.73,1.76-3.62,3.94-5.43,4.24-6.05,1.01-16.36,0-22.95.04,7.68-3.82,4.49-12.82,5.11-20.17l.23-.82c5.02-.48,8.89-1.17,4.9-6.91-.3-.43-.47-.92-.58-1.44-.69-1.33-4.2-.24-4.54-.61-.41-.44.32-10.75,0-12.49l4.55-.96c-.07-.51,0-1.02.39-1.36,4.69-4.14.17-7.33-4.3-6.57l-.63-1.24v-13.45l.23-.82c4.84.53,10.07-3.67,4.09-7.05l-.34-1.3c-.59-1.28-3.67-.28-3.98-.61-.42-.45.32-11.04,0-12.84l.21-.83c8.12.24,9.68-8.17.72-7.7l-.93-1.25c-.89-8.02,2.91-18.16-4.54-23.22,6.88.35,14.18-.5,21,0Z"/>
  <path class="st10" d="M220.92,130.42c0-.2,0-.41,0-.61.02-1.42-.03-2.86,0-4.28,1.69.74,3.61,2.22,5.06,3.41,9.8,8.07,35.36,32.72,39.49,44.28,4.33,12.11-.57,19.45-11.8,12.1-7.08-4.64-15.19-19.89-19.59-27.81-4.85-8.73-9.44-17.73-13.17-27.09Z"/>
  <path class="st5" d="M172.67,228.23c3.35.17,7.79-.43,7.99,4.6.21,5.19-4.5,4.99-7.99,5.18-5.01.27-14.14.63-18.87-.16-6.3-1.05-5.67-8.4-1.17-9.49,3.73-.9,15.61-.35,20.03-.13Z"/>
  <path class="st7" d="M172.67,274.08c1.75.09,3.23-.19,5.02.41,4.36,1.46,3.69,8.05-.48,8.76s-20.6.61-24.72.03c-4.58-.65-4.17-8.03.15-9.07,3.74-.9,15.61-.35,20.03-.13Z"/>
  <path class="st7" d="M177.21,297.31c2.88.5,4.13,3.7,2.98,6.57-1.33,3.31-4.88,2.5-7.52,2.6-4.62.17-16.13.81-20.03-.13-4.25-1.03-5.09-8.36.44-9.06,4.41-.55,19.98-.7,24.14.01Z"/>
  <path class="st1" d="M176.64,251.46c3.22.4,4.9,3.2,3.54,6.57s-4.88,2.5-7.52,2.6c-4.62.17-16.13.81-20.03-.13-4.39-1.06-4.79-8.39.44-9.05s18.56-.62,23.57.01Z"/>
</svg>