<?xml version="1.0" encoding="UTF-8"?>
<svg id="Layer_1" xmlns="http://www.w3.org/2000/svg" version="1.1" viewBox="0 0 629.28 1536.24">
  <!-- Generator: Adobe Illustrator 29.7.1, SVG Export Plug-In . SVG Version: 2.1.1 Build 8)  -->
  <defs>
    <style>
      .st0 {
        fill: #fafaf7;
        stroke-width: 3px;
      }

      .st0, .st1, .st2, .st3 {
        stroke: #000;
        stroke-miterlimit: 10;
      }

      .st4 {
        fill: #583411;
      }

      .st1, .st5, .st3 {
        fill: #562f09;
      }

      .st1, .st2 {
        stroke-width: 2px;
      }

      .st6 {
        fill: #9c9c9c;
      }

      .st7 {
        fill: #423c68;
      }

      .st2 {
        fill: #504677;
      }

      .st8 {
        fill: #020202;
      }

      .st9 {
        fill: #010202;
      }

      .st10 {
        fill: #171310;
      }

      .st11 {
        fill: #050302;
      }

      .st12 {
        fill: #14110e;
      }

      .st13 {
        fill: #768484;
      }

      .st14 {
        fill: #060402;
      }

      .st15 {
        fill: #0b0a0a;
      }

      .st16 {
        fill: #fafafa;
      }

      .st17 {
        fill: #989292;
      }
    </style>
  </defs>
  <path d="M625.46,1016.44c.43-8.61.09-17.27-1.03-25.96l-12.84-57.29c-7-69.11-22.29-136.27-40.91-203.23l-6.25-33.68,13.8-6.64c3.95-2.64,1.65-7.33-.23-12.64-23.17-63.89-50.33-189.87-157.33-218.87-24.33-6.43-40.64-1.77-35.34-43.73,5.35-42.37-146.65-2.65-146.65-2.65,0,0,12.13,33.45-11.48,41.96-37.99,13.69-60.52,16.79-79.95,26.06-42.81,20.43-54.27,76.7-71.56,120.15-8.8,22.28-20.06,55.48-29.55,77.45l.17,3.25c4.68,5.56,14.14,10.46,20.4,14.7l-8.78,36.04c-18.39,67.32-31.66,135.58-39.5,204.83l-15.05,70.74c-.53,9.99-2.28,19.58-3.26,28.75l-1.01,7.66c.98,17.07,2.2,31.15,10.03,46.42,6.09,11.88,16.79,28.06,32,21.67,6.33,7.83,21.06,14.53,23.46-.07,13.24,1.28,18.12-10.57,13.08-21.74-5.74-11.86-10.05-23.16-7.93-36.75,5.93,21.32,36.11,25.97,30.26-2.91-4.5-17.54-11.89-35.63-12.17-54.27-4.67-16.89-6.44-32.65-5.31-49.27,11.4-39.28,29.66-87.1,44.76-125.45-9.19,33.34,4.33,12.88-5.21,46.64-2.22,7.33-4.14,15.82-3.09,22.53,5.03,4.63,6.43,15.19,13.69,16.79-2.05,73.17,13.77,276.29,13.77,276.29l17.56,72.88,33.8,125.09-.94,15.28s-14.38,20.78-17.94,23.97c-23.07,20.27-62.58,58.57-30.16,88.32,24.05,22.07,82.74,19.02,109.27,2.39,17.89-11.21,45.47-34.14,45.65-56.61.19-23.37-7.35-54.04-22.63-71.46l-.32-1.47c-2.13-1.48-3.74-3.64-4.54-6.63-1.48-5.51,0,0,0,0l-11.46-197.29,5.26-128.69,43.7-10.02h9.03s24.27,119.02,24.27,119.02l8.29,160.15,1.77,113.96-5.74,3s-13.64,41.95-11.16,56.02c1.75,9.96,12.74,28.73,20.97,34.6,5.13,3.66,17.68,6.08,24.85,4.22,1.49.68,3.09,1,4.8.96.72.64,1.48.84,1.92,0,4.49.94,9.9.95,14.39.02,42.23,1.94,98.34-33.23,74.74-80.71-9.26-18.62-31.73-19.09-50.99-22.09l1.77-25.18,10.6-92.32s7.1-71.02,14.8-140.64c7.94-71.73,36.34-195.41,40.85-266.18,8.02-1.9-4-80.91.88-86.13-.78-19.43-.88-13.25-.44-24.74.64-16.52,16.79,51.68,16.79,51.68,0,0,15.57,44.03,22.53,62.72,12.16,32.93,9.36,60.76.46,95.32l-9.57,41.16c-8.85,36.93,21.35,32.03,30.67,8.31-.41,2.94-.12,5.73,1.99,6.79l-1.98,1.26c-3.03,10.51-6.92,20.8-11.67,30.88-4.07,12.86-2.42,23.17,13.48,20.45.64,14.81,17.67,7.58,23.31.09,11.9,7.64,22.81-4.98,28.87-14.44,9.49-14.81,14.09-30.66,14.19-48.18l-1.96-27.75c-.31-1.71-.63-3.3-.95-4.79Z"/>
  <path class="st6" d="M262.84,16.18v.96c-5.36-.27-11.91-.29-17.27,0v-.96h17.27Z"/>
  <path class="st13" d="M408.65,1535.28v.96h-14.39v-.96c4.34.27,10.06.29,14.39,0Z"/>
  <path class="st17" d="M627.28,1023.9c-1.54-.81-.92-3.26-.96-4.8h.96v4.8Z"/>
  <path class="st5" d="M91.64,1064.19c-9.72,1.2-14.11-10.84-16.27-18.23-.9-3.06-3.65-20.37-4.49-21.06-4.38-3.57-8.63,10.04-9.33,12.45-3.4,11.74-3.39,26.61-1.2,38.57,1.49,8.11,8.38,20.01,8.64,26.22.28,6.53-5.44,5.52-8.49.49-8.73-14.39-9.76-34.25-15.12-49.59-.44-1.26-.28-2.93-2.1-3.23-2.09,10.07-.95,19.7,1.69,29.53,1.56,5.83,12.31,30.3,10.69,33.76-1.77,3.77-4.95.68-6.98-.91-10.46-8.2-18.08-28.17-20.2-40.81-.91-5.41.77-12.85-3.47-17.73-6.56,10.78-2.46,25.54,2,36.44,1.22,2.98,8.46,15.27,8.35,16.82-.1,1.3-1.81,1.22-2.98,1.02-10.21-1.75-19.51-20.33-22.37-29.13-13.48-41.35,3.86-89.24,11.25-130.51,4.69-26.21,6.9-52.79,11.48-79.03,9.9-56.73,27.51-111.92,37.21-168.69,17.4,5.8,35.02,10.64,53.12,14.09,5.21.99,12.74,1.16,17.31,2.37,2.6.69-.81,10.04-1.2,12.94-3.35,24.9-4.31,44.9-11.27,69.64-12.9,45.81-55.72,126.55-52.03,170.08,1.04,12.29,6.34,25.59,7.75,38.52.85,7.78.25,16.94,1.24,24.7,1.35,10.55,5.37,20.75,6.78,31.3Z"/>
  <path class="st5" d="M603.38,1054.12c-.1-.64-1.59-3.69-2.86-2.4-.96.97-4.1,22.56-5.29,26.86-2.36,8.54-9.14,25.53-15.79,31.22-1.32,1.13-8.71,6.25-8.7,2.83.03-7.06,7.22-15.96,10.07-22.57,5.81-13.48,7.31-28.98,3.38-43.14-1.86.39-1.68,1.92-1.91,3.35-1.81,11.23-.91,21.22-5.02,32.4-1.55,4.2-9.27,19.92-12.18,22.36-3.67,3.07-9.14,3.05-8.67-2.82.6-7.41,8.65-20.13,11-28.43,3.13-11.06,4.4-23.28,1.97-34.58-.65-3.03-6.24-20.68-10.59-15.29-1.65,2.04-3.19,16.76-4.55,21.35-1.52,5.14-6.83,18.25-12.91,18.77-1.49.13-2.49-1.24-3.02-2.43,2-13.25,6.22-26.05,8.34-39.28,4.49-27.95,10.54-58.11,4.46-85.74-10.54-47.89-31.28-93.27-49.14-154.9-7.1-24.48-5.55-40.04-10.08-65.27,21.3-3.27,47.21-8.25,67.36-15.84,6.69,50.9,24.78,99.3,34.08,149.65,4.84,26.18,7,52.75,11.17,79.02,7.46,46.96,28.68,107.33,9.6,152.88-2.77,6.61-12.64,25.03-20.05,26.05-6.93.95,1.79-12.03,3.06-15.22,1.15-2.87,6.27-15.85,6.27-17.72,0-6.16.83-15.45,0-21.11Z"/>
  <path class="st10" d="M289.69,1428.78c-24.35-15.01-56.88-5.71-78.15,10.57-14.41,11.03-29.96,33.7-46.82,39.52-3.3,1.14-13.28,1.06-12.09,5.85,1.76,7.13,17.1-.61,20.92-2.77,25.32-14.32,39.36-42.93,68.94-50.98,17.39-4.73,48.54-5.39,51.04,17.95-6.58-2.82-12.31-6.03-19.68-6.7-50.35-4.52-65.53,30.66-103.09,49.42-7.96,3.98-20.6,10.93-22.08-2.9-2.43-22.73,19.75-36.14,33.1-50.36,14.84-15.8,32.35-49.64,55.71-52.7,29.01-3.8,50.81,14.03,52.19,43.09Z"/>
  <path class="st10" d="M441.27,1443.17c4.3,1.8,5.29,15.4,9.09,15.39,1.35,0,2.35-.83,2.27-2.24-.14-2.67-7.31-18.23-6.57-18.9,16.75,1.07,41.26,27.96,27.79,43.63-21.41,24.9-86.22,38.41-113.09,18.17-1.25-.94-6.82-6.17-7.26-7.13-1.05-2.32-.77-18.02-.48-21.55.18-2.23,3.61-19.71,5.26-19.67,15.59,15.74,44.07,17.75,64.29,11.51,9.17-2.83,19.47-7.9,18.7-19.2Z"/>
  <path class="st16" d="M398.1,506.76l-17.88,30.78c-38.16-10-78.64-10.58-116.75,0l-20.77-30.77h155.4Z"/>
  <path class="st12" d="M352.06,1501.7c1.07-1.21,8.42,5.99,9.88,6.9,13.51,8.43,35.54,9.3,50.91,7.37,23.81-3,48.01-13.39,63.9-31.54-4.29,26.71-40.08,40.16-63.9,42.09-18.75,1.52-59.56.8-60.79-24.82Z"/>
  <path class="st13" d="M392.34,1535.28c-1.54-.06-3.98.6-4.8-.96,1.63.21,4.36.92,4.8.96Z"/>
  <path class="st9" d="M260.92,1184.12c-16.36-2.25-33.83-4.11-50.4-2.91-6.93.5-13.66,2.85-20.79,3.21-.73.04-3.67,1.2-3.61-.77.09-3.08,21.16-8.45,24.71-8.85,15.47-1.74,37.67-.66,50.1,9.32Z"/>
  <path class="st11" d="M57.54,998c.55.51,1.07,5.04,1.06,6.23-.13,15.07-13.56,38.11-29.82,39.81-1.97-1.79,11.51-13.56,12.96-15.33,7.88-9.62,9.76-18.29,13.8-29.38.37-1.01.48-2.77,2-1.33Z"/>
  <path class="st14" d="M604.33,1039.25c-19.37-4.99-29.6-27.15-27.8-46.05l11.69,24.28,16.12,21.77Z"/>
  <path class="st4" d="M361.17,1437.56l-15.1-419.9c13.28,1.71,107.44,32.7,120.93,32.64,4.28-.02-42.09,378.14-40.5,379.23.71.49.72,1.16.85,1.88,2.05,11.54-14.33,22.35-24.13,27.23-9.86-13.17-24.06-21.6-42.04-21.08h-.01s0,0,0,0Z"/>
  <path class="st4" d="M249.6,988.26l23.86,390.41c-12.14.64-39.86-1.33-59.07,15.9-2.09,2.12-10.52,2.43-12.59,2.65-2.94.32,5.14-6.96,2.87-9.28-4.49-4.6-96.93-371.19-96.96-377.67,21.68,1.84,133.36-20.35,154.58-24.55l-4.4.5-8.28,2.03h-.01Z"/>
  <path class="st11" d="M175.86,1199.19c-.07-.75,2.53-4.5,3.32-5.38,10.04-11.24,35.34-19.67,48.68-10.22.29,2.65-17.59,2.59-19.86,2.96-12.27,2.02-19.4,7.3-29.76,12.96-.95.52-2.19,1.77-2.38-.32Z"/>
  <path class="st8" d="M349.07,1c4.44,2.66,6.99,6.99,13.87,6.94,5.02-.04,11.11-3.75,12.59,1.84.27.99-.11,2.7,1.28,3.43,2.57,1.36,6.25-1.75,8.12-.44,1.15.79.06,3.05.31,4.32.68,3.34,7.61-.38,10.1,1.43,1.8,1.31-.2,4.34-.42,5.96-.9,6.53,6.47,4.42,12.59,4.85,6.51.46.31,4.06-.53,5.89-1.67,3.66,7.54,2.15,8.43,4.21,1.01,2.38-4.15-11.47-2.9-9.66,1.01,1.46,8.51.33,10.61,1.29,2.32,1.06-.41,2.42-.73,3.4-1.05,3.28,6.22,2.24,6.77,3.44.7,1.51-5.64-8.68-5.6-6.73.03,1.46,5.05,1.9,5.05,3.45s-5.15,2.35-4.7,3.43c1.77,1.25,6.53-15.43,6.84-13.14s-6.71,5.6-6.57,8.62c.15,3.43,8.35,3.71,8.75,5.85s-4.61,2.62-5.88,4.33c-2.25,3.05,3.81,5.23,2.63,7.66-.28.57-1.2.54-1.13.94.04.28,1.73,3.93,1.97,4.29,1.05,1.6,3.54,1.59,5.51,2.45,2.93,1.28,7,3.76,9.69,5.38,53.1,32.22,54.9,86.7,40.83,131.34l.21.47c-6.82,2.42-11.97,6.13-16.58,10.35-2.22.38-1-1.45-.32-2.33l3.8-4.46c.9-1.38,1.2-2.62-.7-3.68-3.36-1.66-4.73-3.18-1.39-5.36,3.95-1.68,4.98-2.77,3.11-3.26-5.23-.53-9.16-1.73-9.03-5.92.1-3.13,2.87-5.6,7.41-3.69l5.39,2.56c-.39-2.72-6.23-8.89-10.76-6.82-3.67,2.83-6.53,2.08-5.81-1.8.66-3.57,3.64-5.09,7.57-6.91.08-1.2-7.76-1.53-9.17-1.36-5.57,1.1-8.73.38-7.54-3.98,1.1-3.99,4.49-5.69,9.02-7.81,2.86-1.61-24.8,68.68-26.74,66.46-3.83-4.36,17.25-75.26,15.52-69.15-4.7,16.61-10.51,57.18-11.29,51.63-.45-3.17,1.22-5.53,6.05-5.81l4.29-.17c1.46-.3-7.57-4.37-8.16-4.21-7.22-1.62-12.31-4.22-15.36-9.09-4.56-.51-4.09,1.17-2.84,3.36l3.45,4.94c.86,2.31-2.91,1.12-4.57.42-4.8-2-8.89-6.2-8.27-10.19l.86-4.36c.38-2.55-2.08-3.79-4.77-5.04-2.76-1.42-2.41-3.74-1.15-5.69,3.57-3,2.41-7.28-3.9-6.39-1.15,1.97-1.73,4.15-1.74,6.53-.49,2.28-1.98,3.88-5.58,2.89l-5.08-2.03c-3.24-1.02-4.74-.28-7.03,1.4-4.82,2.24-12.18-2.49-7.09-6.02l5.08-2.5c-6.43-1.22-9.78,1.9-10.66,6.01-2.28,5.76-16.64,1.78-13.43-3.37,1.88-1.79,3.57-3.39-1.41-2.21-2.94.69-4.15,2.11-5.16,4.04-.91,1.53-2.91,1.94-4.87,1.09l-3.87-2.09c-2.24-1.05-5.01-1.62-7.33-.44-4.78,3.07-9.87,5.77-16.86,4.39-3.76-.89-7.5-1.18-11.24-.87-6.6,1.5-13.15,2.54-19.24-.57-5.53-3.43-9.86-5.02-15.65-.81-1.65.85-4.06,1.42-5.39-.04-1.67-2.59-3.78-5.11-8.48-4.98-.42.01-.6.22-.46.5,2.22,2.28,3.88,4,.55,6.32-3.56,2.46-10.11,3.3-11.96-.71-1.1-3.86-4.18-7.58-10.68-6.18,4.19,1.89,10.34,4.89,4.16,8.17-2.8,1.49-5.5,1.33-7.71-.71-1.7-1.02-3.85-.88-5.75-.23-6.5,3.2-10.07,2.76-10.73-1.3l-.55-4.43c-.75-4.56-9.21-.62-6.48,2.51,3.56,4.1,3.78,6.98-2.77,9.54-1.14.9-1.74,2.14-1.67,3.34,2.38,5.34.96,9.28-4.98,13.24-2.77,1.84-9.51,4.28-6.15-.56l2.81-3.66c1.38-2.24,1.42-3.92-3.02-3.23-3.12,5.21-8.93,7.68-16.48,9.56-2.59.86-5.16,1.92-6.98,3.46,6.77.42,10.89,1.03,10.41,6.44-.25,2.87,4.08,2.06,0,0-34.05-75.3,4.89,182.41-11.96,4.92-2.39,2.51-9.33-55.4-5.55-53.46l5.39,2.94c3.29,1.94,5.46,9.3-1.24,8.68-3.61-.58-7.99-.87-11.46.21-1.46.46-1.22.8-.11,1.35,3.57,1.76,6.37,3.32,6.64,6.71.31,3.94-2.86,3.63-6.12,1.32-4.6-1.98-10.04,4.16-10.61,6.86,4.51-2.81,12.7-5.7,12.83,1.24.07,4.35-3.92,5.15-9.11,5.91-1.32.34-1.25.61-.3,1.27,4.08,2.06,8.61,4.54,2.17,7.22-2.1,1.16-1.67,2.56-.59,4.08,1.58,1.74,3.04,3.5,4.39,5.32.49.91,1.62,3.29-.63,2.86-4.92-4.92-10.59-9.93-18.9-12.32l-.38-.54c-12.5-29.26-9.38-61.91,5.22-90.54,7.24-14.21,24.53-37.66,44.14-45.05,2.21-.83,7.05-1.76,8.31-2.88,1.08-.95,1.05-2.21,1.55-3.33-1.69-.8-7.05-.88-7.19-2.5-.17-1.91,6.05-3.63,6.55-5.85.93-3.98-9.92-3.95-7.07-8.37,1.52-2.38,10.14-4.81,10.77-6.81,1.08-3.39-8.72-1.97-7.72-6.21.25-1.09,2.66,13.35,4.12,13.02,3.33-.75,7.71,1.55,5.39-2.11-.91-1.44-5.94,5.14-3.84,3.73,1.77-1.19,9.27,1.05,10.16-1.07,1-2.4-1.96-6.94-1.81-9.69.1-2.06,1.18,9.93,3.95,8.8,4.57-1.85,10.89,2.51,13.22,1.38,1.87-.89-3.43-8.14-3.69-9.8-.7-4.54,7.38-1.22,10.68-1.33,8.44-.31,1.11-10.64,8.12-10.6,3.08.01,7.92,3.27,8.54-1.65.08-.69-.98-3.32-.13-3.32h4.67c2.81,0,4.29-1.51,6.06-1.84,4.56-.84,7.4,2.78,10.07,2.23,2.45-.51,1.22-4.77,4.44-5.13,2.77-.3,3.74.96,5.98,1.23,6.48.77,5.74-5.75,9.31-6,4.02-.27,5.36,5.5,11.27,4.15,1.43-.33,2.21-1.44,3.4-1.96,4.39-1.89,6.48,1.83,9.23,1.65,3.21-.21,2.84-4.54,8.17-1.68,2.12,1.14,3.8,3.62,7.03,2.93,2.45-.53,2.64-4.74,6.03-4.44,3.64.33,5.13,5.41,9.35,4.96,2.94-.31,3.8-5.82,7.03-6.48h1.87l.08-.02h0Z"/>
  <g>
    <path class="st2" d="M457.09,834.04c1.15,3.89,11.27,16.07,14.24,21.11,55.36,93.53,89.43,194.27,123.76,292.67.21,2.68,0,4.68-4.15,5.36-22.1,4.17-49.49,4.24-71.04,8.57-2.72.55-2.76.87-4.34,2.28-2.43-.67-3.31-2.62-2.64-5.83l-77.71-268.05c-3.54-2.75-9.63-.65-8.47,3.1l78.13,270.96c2.42,1.26,4.42,2.59,6.02,4,2.09,2.55,3.88,7.89-1.12,8.76l-93.58,10.4-2.45-.6-47.96-289.11c-3.43-3.84-10.09-2.08-9.26,2.45l46.94,283.15c.43,4.92,1.75,7.3,6.88,9.92,3.05,9.98.55,9.96-12.29,10.83-43.42,2.92-87.36,1.11-131,1.72l-51.17-2.7c-5.91-1.98-1.82-6.49-1.99-9.83,5.15-2.63,6.45-5,6.88-9.93l47.06-283.88c.12-4.34-7.82-5.38-9.54-1.15l-47.76,288.29-2.49.83-94.43-10.57c-3.87-1.25-2.24-6.42-.28-8.61,2.91-1.64,5.08-3.54,6.48-5.68l77.65-269.27c1.18-3.76-4.99-5.88-8.5-3.05l-77.68,268.04c.66,3.03-.22,4.97-2.64,5.81-1.18-.98-1.97-2.32-4.14-2.47l-71.25-8.39c-4.15-.67-4.36-2.68-4.15-5.36,35.22-100.25,69.5-203.55,127.27-298.5,2.25-3.71,9.96-12.3,10.73-15.26l1.12-1.67h287.41l1.45,1.67h0Z"/>
    <path class="st7" d="M457.09,834.04H167.11c2.55-9.83.93-22.75,3.58-32.87.66-2.53,2.82-5.56,6.61-6.12l266.39-.21c5.09-.35,8.64,2.3,9.62,5.64,2.96,10.12.91,23.9,3.78,33.57h0Z"/>
    <path class="st7" d="M416.17,1187.37c.39,2.48-2.31,5.53-5.85,5.83-8.21.71-8.17-5.56-9.2-9.69l-46.96-283.25c-1.24-6.49,9.73-8.86,13.78-3.09l48.23,290.21h0Z"/>
    <path class="st7" d="M213.88,1191.76c-4-.35-5.73-3.26-5.85-5.8l48-288.13c2.33-6.46,15.66-4.4,14,2.41l-46.96,281.89c-1.03,4.12-.99,10.34-9.2,9.65h0Z"/>
    <path class="st7" d="M113.33,1168.21c-2.7-.36-4.08-3.66-4.67-4.16l.33-6.02,77.98-268.58c4.26-4.56,14.65-1.53,12.83,4.09l-77.43,268.19c-.25,3.14-4.23,7.14-9,6.49h-.03Z"/>
    <path class="st7" d="M515.54,1164.03c-.67.59-1.99,3.8-4.67,4.16s-8.7-1.93-8.38-4.45l-78.07-270.25c-1.82-5.62,8.57-8.63,12.83-4.09l77.98,268.58.33,6.02v.02Z"/>
  </g>
  <path class="st15" d="M496.17,148c2.27,5.49,2.65,12.19,1.09,18.04-.4,1.5-2.35,4.35-2.35,4.73,0,.44,1.47,2.16,1.8,3.66,1.28,5.73,1.39,13.56-1.12,18.86-1.11,2.33-3.73,3.12-3.87,4.99-.11,1.5,2.91,6.57,3.39,9.81.84,5.71.43,14.55-2.71,19.25-1.06,1.59-4.19,3.07-4.32,3.74-.45,2.26,1.33,6.31,1.53,9.24.48,7.02-1.14,11.17-3.83,17.05-.78,1.7-3.08,4.36-3.36,5.51-1.42,5.88,0,11.36-3.17,18.62-1.27,2.91-4.92,5.9-5.03,6.32-1.83,7.01.43,17.82-6.62,22.96-1.64,1.2-4.75,1.28-5.48,3.02-.68,1.63-.32,5.12-.85,7.59-1.07,5.02-5.09,11.76-8.77,14.62-1.62,1.26-7.19,3.32-7.63,4.14-.84,1.57-.54,4.74-1.23,6.94-1.54,4.84-8.53,16.75-12.33,19.03-2.1,1.26-5.46.67-6.68,2.04-.74.83-1.77,4.92-2.79,6.6-4.68,7.73-11.76,10.7-19.34,6.93-1.62,12.6-13.35,21.53-23.35,14.67-5.87,12.78-17.45,14.65-26.69,5.15-4.73,5.73-9.69,8.33-16.61,6.45-1.96-.53-5.24-4.01-6.07-3.84-.87.18-2.34,3.19-4.09,3.83-2.59.94-7.27.64-9.75-.68-1.12-.6-2.87-3.12-3.84-3.02-1.29.12-4.95,5.69-11.2,4.43-2.29-.46-5.37-3.8-6.23-3.64-.81.15-2.96,2.7-4.49,3.34-6.89,2.9-13.14-1.99-17.6-7.76-7.14,8.94-15.45,8.23-23.07.44-1.1-1.13-2.72-4.48-3.38-4.7-1.29-.45-2.33,1.41-3.59,1.64-7.61,1.41-13.21-2.38-17.49-9.47-.87-1.45-2.42-6.54-2.68-6.76-.55-.48-4.34,1.11-5.67,1.17-5.94.27-11.04-4.72-13.9-10.38-.61-1.2-1.46-5.17-1.68-5.33-.64-.46-2.59.09-3.75-.31-5.74-1.98-11.47-12.18-13.54-18.49-.67-2.05-1.54-8.31-1.75-8.68-.26-.47-5.9-1.77-7.47-2.84-4.2-2.87-8.65-10.94-10.34-16.22-.64-2-.93-6.88-1.45-7.74s-3.31-1.11-4.76-2.15c-6.37-4.54-4.93-15.79-6.79-22.1-.67-2.28-5.27-7.13-6.77-11.82-1.88-5.9-.73-9.84-1.48-13.85-.27-1.44-3.03-4.55-3.89-6.48-1.72-3.86-3.78-11.91-3.78-16.17,0-1.66,1.62-8.52,1.39-8.9-.17-.29-3.3-1.75-4.34-3.12-4.4-5.76-4.3-17.65-1.83-24.51.62-1.73,2.6-3.38,2.6-4.71,0-1.79-3.36-4.25-4.31-6.14-1.89-3.78-2.02-10.96-1.51-15.26.29-2.43,2.66-7.01,2.61-7.8-.04-.72-1.29-1.92-1.59-3-1.83-6.56-3.29-12.74.38-18.91h367.41Z"/>
  <path class="st0" d="M572.22,667.03s-10.35-29.17-15.25-42.69c-11.68-32.24-26.87-78.37-43.96-106.52-20.83-34.33-75.42-52.6-110.01-62.77-11.79,16.43-24.02,20.3-41.96,25.62-26.15,7.76-64.89,7.39-91.44,1.77-22.7-4.81-26.65-4.08-42.4-23.41-30.54,9.25-75.36,16.56-99.32,40.29-18.46,18.28-29.74,50.24-39.45,75.37-12.36,31.98-23.02,64.82-34.08,97.4-1.02,3.76.72,5.1,2.83,7.37,4.22,4.52,11.32,9.23,16.55,12.2.32.66.67,1.3,1.1,1.87,3.18,4.17,19.67,8.88,25.35,10.33,6.3,1.6,29.74,7.03,34.47,4.99.61-.26,3.19-1.63,3.75-2.03,2.37-37.95,5.14-76.18,8.77-114.04.31-3.28-.49-19.03.98-20.23.86-.69-1.58-.46-1.07.42.84,1.47.48,30.58.38,34.99-.86,38.1-7.47,114.1-7.47,114.1l-1.35,13.09-22.13,180,14.37,11.35c110.26,24.05,255.02,47.16,364.05.84,2.67-1.31,14.32-6.61,14.73-9.64-8.16-69.57-18.76-138.84-24.5-208.78-2.55-31.06-4-62.3-5.24-93.46-.47-11.88-2.31-27.08-1.57-38.72.32-4.98-1.64-6.92-.38-1.45,1.84,7.97,3.42,23.46,4.18,32.11,2.99,34.04,3.93,66.17,6.02,100.26.56.39,4.14.75,4.75,1.01,4.6,1.92,33.43-4.18,33.43-4.18l21.52-5.15,16.79-8.39s9.2-1.91,10.6-4.42c2.41-4.3-3.05-19.47-3.05-19.47Z"/>
  <path class="st1" d="M384.19,416.55c.19-2.05-.25-3.55-1.83-4.75-2.49,0-2.02,15.36-1.82,17.82.97,11.8,6.62,20.98,14.61,28.57-17.33,18.35-44.65,26.16-68.38,27.41-33.23,1.75-70.75-1.67-97.01-25.83,10.43-7.98,16.51-18.53,17.55-32.54.14-1.92.81-18.72-3.64-15.46-.39.87-.12,3.51-1.71,3.05-2.79-.81-12.03-7.81-14.93-10.02-24.54-18.73-43.29-46.28-52.9-77.13,4.63.28,3.02,1.61,4.22,4.53,2.95,7.15,9.51,17.97,16.3,21.23,1.25.6,2.86.14,3.5.56.55.36,4.56,8.42,7.82,10.96,5.47,4.26,11.49,2.13,13.39,3.34.2.12,1.62,3.26,2.36,4.18,4.43,5.51,11.51,11.5,18.65,11.37,1.44-.03-8.03,6.31-7.44,6.68.16.1,13.36-6.35,13.97-5.71,5.75,6,12.52,7.49,20.18,5.15,1.6-.49,4.77-2.7,5.35-2.65,2.84.26,8.38,5.33,14.07,5.43,3.12.05,6.24-2.34,8.01-2.34,2.72,0,5.36,3.05,10.92,2.25,2.53-.37,5.34-2.79,6.77-2.93,1.3-.12,6.05,3.04,9.33,2.93,2.75-.1,6.67-2.85,8.24-2.94,1.14-.07,6.02,3.15,10.13,3.07,5.97-.12,10.18-5.27,12.56-5.5,1.17-.12,1.91,1.65,2.97,2.1,6.76,2.85,15.67,2.53,21.68-2.32,1.3-1.05,3.04-4.4,3.76-4.46.5-.04,1.53,1.11,2.36,1.24,5.34.8,13.66-2.8,17.44-6.94,1.27-1.39,3.63-6.22,4.72-6.78,2.73-1.42,8.32-1.03,12.7-3.68,5.05-3.05,8.42-11.18,10.01-12.16,1.07-.66,2.53-.2,3.6-.85,4.04-2.45,9.15-7.66,11.77-11.84,3.31-5.29,3.9-12.7,9.49-14.7-10.35,38.22-34.99,72.96-68.79,89.66Z"/>
  <path class="st3" d="M449.48,329.32c-.19-.03-1.93-1.05-1.83-1.28,4.78-3.19,7.83-9.77,9.19-15.84.41-1.82.04-5.17.44-5.94.15-.29,3.75-1.71,5.04-3.1,2.97-3.18,5.93-10.95,6.49-15.57.32-2.62-.4-6.24.04-8.35.28-1.3,7.57-9.01,8.61-17.58.89-7.32-1.05-5.46,2.57-11.56,3.12-5.26,5.41-10.86,5.69-17.39.11-2.6-.86-8.18-.63-9.31.19-.96,3.12-4.54,3.91-6.62,1.23-3.27,1.47-6.92,2.2-10.32,19.35,5.13,19.97,26.63,18.64,45.97-1.85,26.85-15.71,76.91-44.27,76.91-4.69,0-11.8.75-16.1,0Z"/>
  <path class="st3" d="M156.88,328.46c-30.17-3.74-42.7-56.76-42.85-86.32-.08-15.3,4.41-31.06,18.33-34.82.04,4.78,1.85,9.13,3.78,13.18.66,1.39,2.45,2.57,2.7,3.74s-.73,4.41-.63,6.67c.52,11.47,6.37,15.3,7.91,21.7,1.24,5.16.04,10.13,2.55,16.77,1.59,4.19,5.14,7.15,6.19,9.91,2.84,7.46.06,16.61,7.86,24.28,1.32,1.3,3.82,1.62,3.95,1.81.35.5-.04,2.47.27,3.52,2.35,7.84,4.86,13.79,10.07,19.57-6.45-.58-13.8.79-20.13,0Z"/>
</svg>