<?xml version="1.0" encoding="UTF-8"?>
<svg id="Ebene_1" xmlns="http://www.w3.org/2000/svg" version="1.1" viewBox="0 0 2034.72 1149.12">
  <!-- Generator: Adobe Illustrator 29.5.1, SVG Export Plug-In . SVG Version: 2.1.0 Build 141)  -->
  <defs>
    <style>
      .st0 {
        fill: #0e0806;
      }

      .st1 {
        fill: #27201b;
      }

      .st2 {
        fill: #090605;
      }

      .st3 {
        fill: #cccccb;
      }

      .st4 {
        fill: #848d79;
      }

      .st5 {
        fill: #110c0a;
      }

      .st6 {
        fill: #fafaf6;
      }

      .st7 {
        fill: #120f0d;
      }

      .st8 {
        fill: #130c07;
      }

      .st9 {
        fill: #fcfcfc;
      }

      .st10 {
        fill: #c9dce0;
      }

      .st11 {
        fill: #080808;
      }

      .st12 {
        fill: #0d0805;
      }

      .st13 {
        fill: #d9d8d7;
      }

      .st14 {
        fill: #f1efee;
      }

      .st15 {
        fill: #080605;
      }

      .st16 {
        fill: #29221d;
      }

      .st17 {
        fill: #c9c9c9;
      }

      .st18 {
        fill: #070604;
      }

      .st19 {
        fill: #060504;
      }

      .st20 {
        fill: #050505;
      }

      .st21 {
        fill: #eeeeec;
      }

      .st22 {
        fill: #dddcdb;
      }

      .st23 {
        fill: #ae7044;
      }

      .st24 {
        fill: #bbbbba;
      }

      .st25 {
        fill: #f9f9f9;
      }

      .st26 {
        fill: #cac8bb;
      }

      .st27 {
        fill: #7d532f;
      }

      .st28 {
        fill: #195113;
      }

      .st29 {
        fill: #fff9e5;
      }

      .st30 {
        fill: #493e36;
      }

      .st31 {
        fill: #ddd;
      }

      .st32 {
        fill: #0e0805;
      }

      .st33 {
        fill: #385b77;
      }

      .st34 {
        fill: #fafaf9;
      }

      .st35 {
        fill: #b46f3c;
      }

      .st36 {
        fill: #e5f8fd;
      }

      .st37 {
        fill: #c6c6c6;
      }

      .st38 {
        fill: #cb050b;
      }

      .st39 {
        fill: #dcdbda;
      }

      .st40 {
        fill: #bebebe;
      }
    </style>
  </defs>
  <path class="st29" d="M1284.93.6l1.92,427.41-1.92,1.24-.92,1.99h-526.84s-1.2-1.99-1.2-1.99c-.53-.1-.94-.21-.94-.31-.16-143.74.06-293.15.94-428.34h528.96"/>
  <g>
    <path class="st20" d="M1057.42,275.7c1.99,2.45,15.78,4.98,19.92,6.44,24.66,8.69,37.79,19.14,48.66,45.67,6.95,16.96,12.3,34.88,19.09,51.93.45,3.36-7.37,7.13-9.87,8.52,1.9,10.65,4.06,21.41,5.73,32.21,4.44,28.76,6.26,58.39,10.94,86.95,3.84,23.45,12.21,50.31.26,72.87-3.57,6.73-5.16,6.48-10.33,10.03-1.45,1-2.53,3.23-4.7,4.34-3.23,1.65-4.1.44-6.52.77-.83.11-2.94,2.26-4.38,2.59-3.35.79-5.69-.22-5.51-4.35.34-7.8,6.78-20.4,7.49-28.91v-12.94l-3.27,12.26c-1.85,3.58-6.51,11.54-10.36,11.84-7.67.61-2.37-11.42-1.48-15.55,2.47-11.38,1.16-22.45,4.41-33.54,1.28-4.36,4.64-9.85,4.62-14.32-.02-3.41-1.59-9.33-2.3-12.93-2.88-14.76-6.72-29.92-10.06-44.63-.16-.68.03-1.95-.79-1.81l3.76,37.03c.67,3.51-8.98,5.41-9.14,6.05-.15,9.8.3,19.65.06,29.44-.15,6.12-.84,12.52-1.08,18.63-2.54,62.24-7.58,124.39-11.77,186.49-.04,3.01-8.97,4.91-9.11,5.49.37,1.68-.45,6.92.12,7.96.17.31,4.17,1.77,5.1,2.38,1.14.75,4.37,3.36,5.22,4.34,1.68,1.94,2.91,6.49,4.04,7.48,1.52,1.33,6.45,3.45,8.8,5.14,7.51,5.4,16.18,13.94,17.88,24.08.24,2,.21,4.02,0,6.02-2.84,20.21-24.39,22.18-39.19,19.77-15.41-2.5-41.47-15.87-47.44-33.21-2.45-7.11-.47-19.68,2.13-26.68,1.06-2.85,4.91-8.62,5.33-10.25.27-1.06.29-4.76.11-5.89-.49-3.04-8.34-2.52-9.06-6.64-2.97-59.88-6.83-119.6-11.77-179.27-.37-4.49-.14-9.6-1.04-13.87-.48-.38-4.16-.44-4.31-.26-.16.19-.47,4.31-.53,5.12-4.5,62.92-9.47,125.83-12.85,188.88,0,3.05-8.95,4.92-9.09,5.51-1.31,5.46,2.63,8.99,4.4,13.66,2.91,7.65,3.37,14.42,3.11,22.67-.44,6.23-3.63,4.86-3.21-.6l-.76-1.45c1.17-6.42-.5-12.96-2.58-18.91-1.73,6.79-12.8,14.08-18.43,10.14-6.98-10.13-21.41-21.1-29.67-6.52,6.78.55,13.44,3.24,18.26,9.08,8.45,12.85-5.21,4.09-9.42-.19-5.44-3.55-12-3.86-17.4-.08l-1.44-.49c-1.37-.54-1.19-1.74.53-3.61,1.21-.86,2.95-1.32,4.01-2.4,3.3-3.32,3.7-8.2,8.78-11.17,1-.59,5.15-1.89,5.3-2.16.56-.98-.27-6.89.1-8.59-1.74-.79-7.32-2.19-8.44-3.51-.6-.71-1.04-5.88-1.2-7.37-3.09-28.79-3.52-58.83-5.35-87.83-2.48-39.28-5.84-78.6-6.96-117.9-.74-6.5,1.07-16.21.03-22.29-.32-1.89-2.71-1.85-4.11-2.59-1.75-.93-4.9-2.27-5.03-4.6l4.31-35.21-10.85,47.03c-4.76,12.54,3.02,20.6,4.83,32.24,1.35,8.66.38,15.83,2.43,24.94.8,3.55,5.04,13.46,1.68,16.06-5.22,4.05-12.66-8.83-14.22-13.37l-2.57-10.04v11.13c0,8.29,6.94,21.81,7.49,30.09.31,4.57-1.76,5.75-5.59,5.07-1.94-.35-3.35-2.39-4.5-2.65-.82-.19-2,.43-3,.34-2.99-.26-4.46-2.03-6.79-3.67-5.31-3.73-8.99-6.24-12.26-12.83-11.92-23.99-1.48-55.25,2.14-80.22,3.86-26.65,5.75-53.7,9.87-80.33,1.62-10.44,3.8-20.82,5.66-31.12-1.83-.44-9.1-4.94-9.49-6.5-.13-.51-.1-1.02.02-1.52,7.49-18.41,13.38-38.56,21.35-56.63,11.36-25.77,29.88-33.52,52.94-42.06,4.31-1.6,10.24-1.85,13.23-5.85"/>
    <path class="st6" d="M1067.35,282.94c7.44,1.5,14.65,4.42,21.53,7.89,17.58,8.86,25.7,16.59,33.92,36.4,7.13,17.18,12.56,35.83,19.62,53.12.18.79-.4,1.1-.86,1.5-9.54,8.13-27.17,12.46-38.98,12.98-1.65-16.77-2.13-34.09-4.35-50.76-.14-1.02-.76-6.77-1-7.01-.32-.33-1.92.08-2.08.95l15.18,152.5c-15.41,7.71-33.93,11.35-50.77,13.2-34.97,3.85-80.98,3.36-115.02-6.42-2.54-.73-14.29-4.46-15.6-5.89-.65-.71-.57-1.47-.54-2.39.24-7.58,2.74-18.57,3.68-26.59,4.49-38.29,10.07-79.42,11.82-117.84.12-2.69-.07-5.42,0-8.12-1.56,1.12-1.77,4.43-2.06,6.4-2.51,16.91-2.59,34.35-4.94,51.29-13.53-.31-28.44-4.43-39.4-13.55,6.76-17.18,12.44-35.43,19.6-52.37,2.33-5.52,4.99-11.63,8.43-16.38,11.33-15.64,31.03-22.8,47.51-28.83,2.79,8.16,5.19,14.57,11.83,19.63,24.23,18.45,72.4,16.83,82.46-19.72Z"/>
    <path class="st33" d="M1102.04,497.09c-.68,11.31-.58,22.69-1.04,34.02-2.15,52.8-5.79,107.24-9.64,160.01-.96,13.15-2.21,26.31-3.45,39.43-15.67,7.51-34.52,7.19-50.4.48-1.86-19.42-2.18-39.04-3.31-58.54-2.57-44.39-6.78-88.66-9.59-132.99-.05-.81-.3-1.37-.55-2.08,1.98.07,13.85-.51,13.88-2.71.02-2.02-7.6-.31-8.78-.28-5.13.14-10.99.28-16.07,0-1.65-.09-8.43-2.08-8.79-.32-.64,3.16,11.25,2.57,11.22,3.61l-13.84,192.59c-.72,1.76-5.09,3.15-6.89,3.67-13.66,3.98-30.91,2.57-44.12-2.77-1.44-10.17-2.25-20.71-3-31.05-1.39-19.21-1.98-38.52-3.22-57.75-3.12-48.43-7.19-96.74-7.47-145.3,15.59,5.24,32.07,8.34,48.34,9.62,23.64,1.86,49.62,1.94,73.17-.6,14.72-1.59,29.3-4.73,43.54-9.02Z"/>
    <path class="st35" d="M936.97,396.62c-1.88,11.95-2.35,24.21-4.52,36.11-4.23,23.18-11.77,46.63-15.95,69.88-2.55,14.18-.47,12.35,3.24,24.41,3.41,11.09,1.72,20.44,3.92,31.09.72,3.48,2.6,7.63,3.04,11.02,1.31,10.15-7.13-1.06-8.84-4.47-2.73-5.46-2.77-10.91-4.53-16.56-1.53-4.93-3.5-4.78-4.06.51-1.71,16.13,3.22,30.02,7.41,45.12.15,3.34-2.89,1.82-4.55.85-8.69-5.08-13.85-29.98-14.68-40.32-.2-.16-1.2.86-1.34,1.22-.46,1.14.65,9.02.97,10.93,1.57,9.41,5.03,18.28,9.46,26.34-3.98.43-7.25-3.85-9.3-7.27-5.58-9.31-6.44-21.53-7.26-32.43-1.95-2.48-1.64,7.92-1.59,8.71.46,7.61,2.82,16.38,5.87,23.17-1.18.33-1.19-.76-1.71-1.38-17.16-20.25-5.23-57.3-1.65-80.92,3.67-24.24,5.31-49.32,8.79-73.73,1.89-13.26,4.12-26.45,6.86-39.51,9.76,3.98,19.97,6.98,30.44,7.23Z"/>
    <path class="st35" d="M1145.32,584.93c2.15-6.18,4.26-12.52,5.18-19.13.32-2.31,1.42-11.4.15-12.76-.91-.97-.9.23-1.07.88-1.03,3.73-.96,9.88-1.76,14.27-1.38,7.56-4.54,18.03-10.25,22.75-1.36,1.12-3.36,2.45-5.07,1.51,6.88-10.58,10.75-24.45,10.68-37.6-.8-.17-1.21.19-1.49,1.02-.96,2.82-1.4,9.86-2.29,13.67-1.64,7.07-6.46,21.57-12.41,25.13-.93.56-3.72,1.87-4.07.14,2.87-13.1,8.58-26.5,7.99-40.29-.09-2.19-.98-14.06-3.88-8.53-4.15,7.94-1.51,17.66-10.02,25.41-1.71,1.56-4.12,3.3-4.22-.59-.08-3.12,3.55-12.42,4.15-16.93,1.36-10.26.14-17.58,3.39-28.07,3.98-12.87,5-10.54,2.28-25.12-5.93-31.87-16.12-61.29-18.96-94.16-.27-3.08-.46-6.23-.54-9.32,10.11-.39,20.38-3.29,29.66-7.81,2.97,13.41,5.17,27.04,7.12,40.7,3.91,27.39,5.7,55.61,10.4,82.74.93,5.36,2.52,10.7,3.42,16.01,3.02,17.95,4.6,42.64-8.38,56.08Z"/>
    <path class="st35" d="M1052.89,266.66c.18,9.26,3.09,14.59,11.76,15.05-8.05,30.73-46.29,33.94-68.74,23.57-9.42-4.35-17.52-10.87-19.87-22.75-.25-1.25.15-.5.71-.83,6.42-3.81,8.8-6.67,9.91-15.63"/>
    <path class="st38" d="M1079.2,264.33"/>
    <path class="st38" d="M1080.33,261.83"/>
    <path class="st20" d="M981.92,277.93c-12.82,3.05-23.13,3.63-36.03.88-10.71-2.28-21.07-6.01-25.41-17.48-.3,6.25,2.77,12.7,6.05,17.79h-6.5c-1.18,0-5.79-1.38-7.19-1.86-18.98-6.45-31.93-30.34-34.3-50.1l-1.34,6.79c.08,7.13-.55,14.36,1.34,21.29-.87.24-.87-.36-1.27-.78-16-16.93-15.35-52.89-11.07-74.59,8.22-41.72,31.35-94.71,55.03-129.34,18.43-26.95,56.33-58.38,90.06-47.83,2.13.67,8.47,4.01,9.65,4.01,1.64,0,9.14-3.32,11.96-3.93,54.41-11.83,97.52,59.67,116.16,103.3,14.09,33,31.63,91.05,21.77,126.34-2.19,7.82-6.32,16.39-11.53,22.37.82-6.75,1.01-13.56.91-20.38l-1.36-6.77c-3.28,24.02-20.44,48.4-44.85,51.02,3-4.05,5.51-9.55,5.85-14.73.03-.5.31-2.21-.46-2.12-4.16,11.16-14.68,14.71-25.04,16.7-9.6,1.85-17.77,2.05-27.44,1.55-3,0-3.9-1.89-6.88-2.2l-2.61-2.16c-1.22.8,1.81,4.85-2.95,1.33l-1.92-4.96c-.43-1.58-.82-4.99-.45-6.06l1.55-1.81c30-15.42,44.78-46.76,51.13-79.7,1.11-2.64,2.93-1.22,2.57,1.07-.68,5.36-1.67,10.69-2.97,15.99-1.99,7.35,8.51,1.67,11.13-.16,11.59-8.07,15.2-27.44,13.75-41.05-1.57-14.71-17.69-10.67-20.49,1.07-1.03.45-1.66.67-1.94-.59.12-22.36-14.68-40.35-34.57-47.36-13.18-5.23-26.42-10.3-39.73-15.21-18.3-6.79-34.7-18.12-48.72-31.9-5.78,11.59-12.11,23.46-20.52,33.3-16.02,15.17-31.54,34.34-30.56,58.27-.11,1.47-.79,1.3-1.99.97-3.33-4.82-8.86-11.34-15.28-8.1-11.43,5.77-3.91,32.38.2,41.87.62,0,1.26.01,1.77.5,2.4,4.68,5.36,7.74,10.19,9.64,1.2.48,7.31,2.23,6.49-.45-1.47-4.13-4.01-21.51-2.87-22.34.97-.7,2.04-.24,2.2,1.09l5.15,21.72c6.4,29.48,29.19,51.53,54.55,64.09,18.3,9.06,34.45,8.05,53.22.63l1.69.32c.98-.27,4.99-2.98,4.82-1.83-.32,2.09-18.55,7.21-20.89,7.87-16.65,4.75-29.96.03-44.76-7.87-.75,2.86-.73,4.7-1.92,7.46l-3.38,4.42Z"/>
    <path class="st11" d="M1066.9,280.06c-2.87-.28-6.25.6-8.97-.47,3.08,0,6.07.32,8.97.47Z"/>
    <path class="st23" d="M1048.07,267.89c-11.05,4.59-26.49,8.1-38.2,5.94-20.87-3.86-49.4-25.18-60.92-43.61-9.75-15.61-12.36-32.08-16.59-49.86-.77-.12-.48,1.12-.44,1.63.36,4.51.74,8.99,1.47,13.45,1.11,6.77,5.04,11.16-5.08,8.58-3.85-.98-6.9-3.45-9.39-6.58-.78-.98-1.51-2.98-2.04-3.53-.63-.65-1.38.15-1.78-.41-1.63-2.31-4.43-12.68-5.03-15.85-1.32-6.91-3.08-17.7.84-23.66,2.6-3.95,5.91-5.62,10.41-4.47,5.93,1.51,6.74,5.36,10.58,9.31-1.19-18.76,7.98-34.81,19.51-48.22,4.15-4.82,9.45-9.15,13.42-14.08,7.31-9.11,12.79-20.83,18.89-30.85,8.95,7.3,17.65,15.4,27.56,21.31,21.33,12.72,46.9,18.24,68.93,29.17,16.81,8.34,27.87,25.85,27.51,45.49l1.55-3.76c3.8-7.86,13.78-11.6,19.27-3.23,3.14,4.78,1.56,19.02.49,24.8-2.11,11.45-7.79,21.62-18.77,25.81-2.07.79-7.24,2.07-7-1.65.33-5.08,2.7-11.36,3.1-16.93.05-.63.38-2.9-.44-3.03-3.46,13.86-6.87,28.87-13.38,41.51-8.99,17.45-23.08,32.54-40.44,40.88-1.18.57-2.89,1.4-4.04,1.87Z"/>
    <path class="st34" d="M993.36,161.15c.52,7.57-.56,14.3-6.27,19.43-9,8.07-25.43,6.86-32.74-3.05-21.57-25.35,21-54.19,36.8-26.33,1.47,2.59,3.36,7.34,2.22,9.95Z"/>
    <path class="st25" d="M1083.5,179.88c-1.19,1.49-2.83,2.74-4.93,3.75-6.56,2.61-12.97,3.61-19.73.69-9.3-4.01-14.19-13.9-12.12-24.1,2.31-21.99,30.58-26.11,41-7.53,4.76,8.49,3.6,21.31-4.23,27.19Z"/>
    <path class="st2" d="M1058.29,115.88c8.2-.98,22.83,2.55,29.47,7.82,1.43,1.14,8.07,8.53,7.85,10.05-.12.81-.75.5-1.23.37-8.1-2.2-13.91-7.77-22.81-8.97-3.16-.42-7.04-.18-10.26-.53-1.23-.13-6.79-.79-7.41-1.16-1.11-.68-1.72-4.11-1.12-5.39.67-1.44,4.1-2.03,5.52-2.2Z"/>
    <path class="st18" d="M944.92,131.19c-.31-1.76.62-2.94,1.43-4.35,5.66-9.95,15.36-13.71,26.17-13.45,2.36.06,6.7.21,8.91.53,1.08.16,7.27,2.72,7.44,3.48.59,2.69-7.99,2.82-9.58,3.1-7.84,1.36-18.78,3.07-26.05,6.05-1.07.44-8.01,5.02-8.32,4.65Z"/>
    <path class="st0" d="M993.32,230.39c.09-.04.16-1.28,1.09-.89.14.06,1.31,1.21,1.83,1.51,5.07,3,20.15,4.28,27.75,4.03,5.01-.17,17.86-2.01,21.22-3.84.86-.47.63-.95.71-.99.19-.1,4.15.8,3.27-1.25,3.1,1.95.08,1.81-2.15,2.42-1.4.38-3.38,1.42-5.13,1.94-12.95,3.85-32.39,3.94-44.55-.72-.74-.28-2.07-1.12-2.59-1.24-1.07-.24-1.67.27-2.72-.07-.97-.31-2.39-1.18-1.81-1.8,1.1-1.16,1.64,1.48,3.08.89Z"/>
    <path class="st5" d="M954.34,177.54c-.19.93-1.15-.49-1.34-.7-11.48-12.35-4.19-31.09,9.87-36.97,17.24-7.22,34.33,7.69,31.38,26.44l-.89-5.15c-.71-10.3-9.21-19.22-19.07-20.12-19.74-1.8-32.17,19.97-19.95,36.51Z"/>
    <path class="st7" d="M1083.95,180.35c-.63.62-.86.36-.45-.47,7.39-7.16,8.19-20.84,1.98-28.98-11.94-15.65-34.8-10.13-38.75,9.32-1.02-1.06-.17-3.08.13-4.31,2.73-11.06,12.64-17.76,23.41-16.75,19.33,1.81,29.31,27.34,13.69,41.19Z"/>
    <path class="st12" d="M1014.4,192.95c-.08.12-1.96.73-2.63,1.24-2.16,1.66-6.05,6.82-2.88,9.03,2.71,1.89,9.16,2.68,12.38,2.29,2.12-.26,12.42-4.12,12.89-3.62,1.17,1.24-1.95,3.41-2.72,3.94-5.95,4.09-15.15,4.88-21.5,1.45-4.36-2.35-5.94-5.52-4.24-10.53.44-1.3,3.96-6.63,5.02-6.95,2.06-.62,4.55,1.89,3.68,3.16Z"/>
    <path class="st8" d="M1118.93,165.84c1.79,1.87-6.3,5.9-6.94,7.5-1.51,3.77,2.45,13.37-3.82,13.56.16-1.32,1.25-2.08,1.31-3.54.12-2.88-1.9-6.1-.52-9.9,1.17-3.21,6.3-8.62,9.97-7.62Z"/>
    <path class="st32" d="M930.12,186.43c-.66.78-3.35-3.58-3.48-4.09-.75-3.04,1.15-7.56.11-9.94-.26-.6-7.11-7-6.49-7.49,1.96.15,4.32,1.29,5.8,2.61,4.91,4.36,2.7,8.44,3.18,14,.14,1.67,1,3.2.89,4.92Z"/>
    <path class="st8" d="M1028.73,243.97c.29.31-.04,1.21-.56,1.5-2.41,1.37-8.43,1.53-11.21,1.16-.97-.13-6.34-1.66-6.35-2.51-.01-1.27,4.29.61,4.9.74,3.23.69,7.37.12,10.66-.31.5-.07,2.47-.68,2.56-.58Z"/>
    <path class="st30" d="M1083.95,180.35c-2.58,2.29-2.43,2.1-5.38,3.28,1.14-1.48,3.68-2.53,4.93-3.75l.45.47Z"/>
    <path class="st27" d="M969.8,186.2c-.71-.13-.94-.35-1.35-.47-6.3-2.67-11.92-8.66-10.69-17.97,2.79-21.09,33.46-17.25,30.99,4.51-1.24,10.92-9.44,14.75-18.96,13.93Z"/>
    <path class="st16" d="M969.79,186.31c2.25-.97,4.74-.23,7.2-.68,14-2.53,15.73-25.23,1.87-30.09-20.58-7.22-29.47,22.47-10.13,29.78l-.28.52c-16.98-4.94-13.61-30.77,2.45-32.32,25.04-2.42,24.46,37.43-1.1,32.79Z"/>
    <path class="st27" d="M1076.49,182.15c-1.46,1.22-3.65,2.55-5.38,3.28-6.76,1.5-13.24,1.02-17.77-5.14-5.44-7.4-3.92-18.97,4.01-23.77,16.53-10.01,32.3,11.99,19.14,25.64Z"/>
    <path class="st1" d="M1076.9,182.16l3.36-6.09c3.93-8.48-2.45-19.93-11.26-21.02-22.68-2.79-23.48,28.43-5.33,30.37h7.84c-19.04,8-30.01-20.43-12.86-30.04s31.98,15.3,18.24,26.77Z"/>
    <path class="st15" d="M978.37,169.67l.64,1.05c-1.64,3.09.54,4.54,3.1,2.36l1.15.42c.21.7.87,1.21,1.04,2.5,1.95,14.79-19.38,14.34-18.38,1.67.55-6.94,6.66-8.46,12.45-8Z"/>
    <path class="st14" d="M983.05,173.68c-3.64,4.13-7.59.82-4.73-4.16,1.99.17,3.64-.87,4.49,1.78.28.88.09,1.81.24,2.38Z"/>
    <path class="st19" d="M1068.79,169.38c-.76,4-.34,5.18,3.58,4.43,1.53-.31,1.01.85,1.02,1.91.11,8.03-5.24,13.46-12.47,10.2-8.24-3.71-5.84-15.37,2.61-16.97,2.39-.45,3.44.22,5.25.42Z"/>
    <path class="st21" d="M1072.55,174.29c-2.93,3.5-8.36-1.15-4.04-3.99.18.02.96-.55,1.88-.41,2.42.37,3.64,2.63,2.16,4.4Z"/>
  </g>
  <path class="st9" d="M547.12-.04l1.92.92-.05,452.36c1.19,10.52,1.49,21.06.89,31.64,2.8.65,5.65.54,8.46.04l2.22,1.56c.55-1.83,2.79-2.47,6.72-1.92,42.75-12.94,86.55-23.1,130.56-30.71l2.88-.96c2.73-3.65,9.4-4.89,13.44-2.88l602.12.05,11.32.91c4.99.27,10.03.55,14.92,1.64,29.08,6.48,58.18,13.1,87.17,19.94,2.41.57,4.76,1.44,7.11,2.32s4.66,1.91,6.95,2.96c9.47.69,18.95,2.84,28.45,6.44,6.23,2.58,11.84,2.46,16.81-.38l-.14-482.74,1.92-1.2h544.32v837.73c-.27.84-.59.83-.96,0l-.93,1.92H1.14l-1.22-1.92V-.04h547.2Z"/>
  <path class="st28" d="M2034.16,644.01c.84,163.3.84,336.77,0,500.93l-.93,4.62H1.14l-1.22-4.62v-500.93h2034.24Z"/>
  <path class="st39" d="M1384.24-.04l1.93.88.47,66.64c18.83-1.93,37.7-4.18,56.62-6.76l.49-59.61,1.93-1.14h45.12v484.13c.38,1.96-6.73,4.12-7.99,4.07-9.3-.31-28.95-7.91-39.05-10.32-.51-1.9.06-2.59,1.81-2.95-2.9-4.13-4.69-5.14-9.91-5.18-16.53-5.84-33.45-10.99-50.74-13.88-6.4,1.47-8.98.54-14.01-2.95-7.79,2.45-11.95.13-12.48-6.98-4.59-2.44-9.69-4.18-15.31-5.23l-.86-2.27c1.16-4.35,1.15-8.16.71-12.38l3.3-1.28c4.85.43,17.18,2.63,21.77,3.97,1.15.34,2.01,1.23,2.78,2.11l-1.92-.66v-83.11l1.92-1.16c-5.89,1.01-32.51-1.61-33.49-3-.44-.62-.28-1.51-.11-2.28-.17-1.57,1.18-2.32,4.05-2.24-.81-3.94-.56-7.03.75-9.28,6.95-1.78,17.54-.52,25.05.8,1.44.25,2.64,1.18,3.75,2.08l-1.92-.66v-115.24l1.92-1.17c-5.58,2.37-39.16,3.28-40.95,1.31-.52-.58-.47-1.48-.33-2.27l.84-1.92,10.51-.11c-1.17-4.43-.8-7.59,1.13-9.49l3.04-1.87c5.11-.55,17.55-.91,22.59-.56,1.2.08,2.24.77,3.18,1.47l-1.92-.66v-115.24l1.92-1.17c-8.33,3.36-20.11,4.91-28.8,2.88l-1.3-1.44c.43-3.38.68-7.25-1.58-10.07l2.33-2.28c9.03-1.94,18.18-3.09,27.43-3.68V1.11l1.92-1.15h13.44-.03Z"/>
  <path class="st31" d="M754.48-.04v422.22h528.96V-.04h5.76l1.32,6.75c.17,133.92.19,268.46.06,403.64l-.73,24.04c2.62.06,5.77,4.46,4.8,6.62,9.33,1.54,18.65,4.07,27.79,6.67.93.26,1.79.79,2.66,1.34s1.71,1.24,2.5,1.95l-7.16,1.01-601.06.02-5.22-1.98c-.99-2.45-.09-2.64,1.92-.96l1.31-1.63c11.49-2.54,22.59-5.6,33.3-9.19l.9-437.08,1.92-1.2h.97,0Z"/>
  <path class="st37" d="M1316.08-.04l1.93.64.93,75.46c2.61-1.2,4.54-.98,5.78.67,2.1-3.33,11.58-3.6,14.4-.96.74.1,2.5-.29,2.81.05.56.62,1.78,10.05.07,11.46-4.41,3.48-13.1,4.1-18.24,1.92l1.92.66v109.97l-1.92,1.16c5.47-.47,11.15-.63,17.03-.47l1.21,1.91.96,11.52h-13.44c-.66,1.1-1.95,1.97-3.87,2.62v108.85l15.36,1.66.99,2.02c1.21,1.61,1.38,11.12.97,11.52-.32.31-4.59-.22-5.77,0-2.59,1.57-5.81,2.12-9.66,1.63l-1.91,78.79c5.36,1.36,10.84,2.32,16.46,2.88l.88,2.11c5.25,3.66.12,11.48,1.41,13.46.46.71,13.13,1.21,15.68,5.44.79,1.3,1.65,6.54,2.2,6.93.84.6,6.42-1.2,8.95-.85,3.27.46,4.48,3.29,6.03,3.65,1.74.4,5.56-1.25,9.19-.59,16.21,2.97,33.25,7.83,48.86,13.53,2.32.85,5.13.32,7.3,1.34,2.02.95,2.22,3.49,4.99,4.61s14.09,2.06,15.39,3.34c.92.91.22,2.01-1.42,1.91-6.41-.39-12.1-4.66-17.77-.96-38.63-9.24-77.6-17.35-116.16-26.87-11.3-2.79-22.54-6.13-33.94-8.58-.96-4.07-1.9-5.31-5.44-7.45,2.22-106.66.12-213.63-.03-320.26-.06-38.29,1.36-76.43,1.01-114.72h26.88-.02Z"/>
  <path class="st17" d="M592.24-.04l1.92.88.13,59.73c5.62,1.09,11.65,1.87,18.07,2.35l2.92,2.29c6.73.66,7.3,13.72,0,12.47l-3.91,1.59c-5.84-.69-11.57-.68-17.21.03v120.98l-1.92,1.18c7.79.63,15.62.77,23.48.44,5.64-1.25,5.45,10.15,2.72,12.18-6.84.04-13.65.31-20.44.82-.78,1.25-2.06,2.11-3.85,2.57v120.56c5.06.01,10.12-.28,15.21-.87l4,1.52c1.92-.45,6.08-1.29,7.43-.08.47.42,1.22,11.91-1.67,11.6-7.16,4-19.08,6.24-26.88,3.84l1.92.67v90.28l-1.92,1.17c6.77-3.75,16.45-5.34,24-3.84,2.93-.35,4.23,1.49,3.92,5.53-1.09,5.58-.07,7.6,3.06,6.07,7.49-3.27,12.2-2.13,14.14,3.42,24.66-4.87,49.17-10.16,73.52-15.88,5.06-1.02,10.26,4.56,5.2,7.58-.86.21-1.55.87-1.92.96-4.42,1.08-9.01,1.79-13.44,2.88l-2.88.96c-43.41,10.6-87.01,20.68-130.56,30.71-3.56,1.14-5.49.65-5.78-1.48l.02-481.92,1.92-1.2h28.8Z"/>
  <path class="st13" d="M667.12-.04l1.92.88v68.58l1.92,2.51c4.44.74,4.13,11.93,0,12.47l-1.93,2.59-.04,112.71c1,.71,1.97,1.62,2.93,2.73,2.98,1.04,2.04,10.71-.96,11.52l-1.93,2.58-.05,113.16-.9,2.3c6.4-1.08,8.23,8.92,4.8,12.47.06,1.77-1.19,2.43-3.76,1.98-.16,29.46-.19,57.9-.08,85.35,4.29-.85,5.92,2.68,4.92,10.57,5.32.22,10.78-.8,16.1-1.84,15.29-3.64,30.36-7.01,45.21-10.1V1.16l1.93-1.2h16.32l-.95,438.07c0,1.3-.61,1.65-1.6,2.24-1.46.87-11.39,3.55-13.98,4.26-6.85,1.89-14.03,2.83-20.91,4.53,1.87-9.91-10.23-4.17-15.16-3.16-20.33,4.2-41.12,9.69-60.97,12.15-.94.12-1.96,1.63-2.95,1.5-2.16-.3-2.37-5.09-4.07-5.62-1.85-.57-11.35,3.52-14.77,1.85-.85-.85,1.7-11.69-1.92-13.44l2.9-2.57c5.53-1.71,30.13-7.78,33.66-6.23.65.29,1.25.69,1.84,1.13l-1.92-.67v-85.49l1.92-1.17-2.62,1.8c-10.67,1.08-21.26,2.06-31.77,2.93l-1.13-1.85v-11.52h-5.76c-.33-.68-.63-1.52-.23-2.09,1.28-1.83,35.66-4.35,41.51-2.7l-1.92-.66v-117.16l1.92-1.17-3.31,1.35c-15.4,1-31.14.71-46.65.4-1.11-.02-2.22-.28-3.33-.57s-2.25-.72-3.35-1.18c3.52-2.72,16.57.46,19.06-1.09,1.45-.91,1.44-9.14.24-10.82-1.44-2.03-21.56,1.09-25.07-1.52,1-.47,2.01-.91,3.05-1.22s2.03-.58,3.04-.61c18.86-.58,38.3-.55,56.31,1.35l-1.92-.66v-116.68l1.92-1.17c-12.46,1.84-26.42.43-38.27-2.64l-1.09-2.16c4.71-.52,3.63-11,0-12.47,1.1-.37,2.21-.7,3.35-.9s2.22-.38,3.27-.27c9.97,1.07,19.97,2.18,29.86,3.81V1.12l1.93-1.16h13.44Z"/>
  <path class="st31" d="M737.2-.04v430.38c-.18,1.97-1.85,2.74-3.61,3.11-17.82,1.3-39.08,9.73-56.36,10.84-1.76.11-3.56-.1-5.32-.03-.2-2.55.68-10.91-1.12-12.35-.53-.43-1.38,0-1.76-.13l.46-2.06c15.77-3.27,31.3-6.58,46.58-9.94-.76-.08-1.91-.36-1.92-.89-.62-24.62-.62-51.05,0-75.69l1.92-1.15c-2.71-.44-5.57-.47-8.58-.07l-33.21,4.23-1.41-1.76c-.21-2.82-.46-7.94-1.6-10.35-.72-1.53-2.28-1.14-3.2-2.13l.69-2,44.36-4.57c1.64-1.04,2.14-28.16,2.22-32.68.47-25.65.06-52.65-1.13-77.29-12.69.55-26.11.9-38.87.23-1.6-.08-3.05-.93-4.39-1.72l.96-11.52,3.37-1.74c12.69-.17,25.3-.8,37.83-1.91l1.04-107.26-39.5-4.99-3.7-2.13c1.14-3.93,1.8-8.64,0-12.47,2.47-.57,5.02-1.15,7.57-.93l34.67,3.58V1.12l1.92-1.16s22.09,0,22.09,0Z"/>
  <path class="st3" d="M556.72-.04l1.32,26.76c.52,151.53.83,303.07.95,454.61,2.16,1.44,2.68,3.15,1.57,5.15-4.72.84-7.55,1.23-12.43-.05-.52-10.98.96-22.18-1.05-33.02l.04-453.45s9.6,0,9.6,0Z"/>
  <polygon class="st36" points="1445.68 -.04 1445.26 62.39 1384.73 70.03 1384.24 -.04 1445.68 -.04"/>
  <path class="st36" d="M653.68-.04v70.05c-12.72-2.03-25.61-3.27-38.4-4.79-6.84-.81-13.72-1.89-20.65-1.91l-2.26-1.58-.13-61.76h61.44Z"/>
  <path class="st36" d="M715.12-.04v76.77c-14.71-1.43-29.53-2.73-44.16-4.8-1.21-.17-2.6.13-3.84,0V-.04h48Z"/>
  <path class="st36" d="M1370.8-.04v71.97c-5.2,0-10.56.43-15.72,1.08s-10.71,2.09-15.96,2.76c-4.42.56-9.92.38-14.4.96l-1.92-.89V1.12l1.92-1.16s46.08,0,46.08,0Z"/>
  <path class="st22" d="M563.44-.04l-.02,484.04,3.86.56c-1.67,1.24-4.62,1.54-6.72,1.92l-3.38-4.77c-1.08-160.49-.16-321.19-.46-481.75h6.72Z"/>
  <path class="st26" d="M2034.16,1148.6c.27-.84.59-.83.96,0v.96H-.08v-.96h2034.24Z"/>
  <path class="st10" d="M1324.72-.04v76.77c-2.19.28-5.41,1.35-7.67,1.92l-.97-78.69s8.64,0,8.64,0Z"/>
  <polygon class="st4" points="2035.12 1148.6 2034.16 1148.6 2034.16 1124.61 2034.16 1100.62 2034.16 1045.92 2034.16 837.69 2035.12 837.69 2035.12 1148.6"/>
  <path class="st31" d="M700.72,452.89c-.48.12-1.61.65-2.88.96l2.88-.96Z"/>
  <polygon class="st36" points="1445.68 76.73 1445.68 201.48 1384.24 201.48 1384.24 82.49 1445.68 76.73"/>
  <polygon class="st36" points="1445.68 214.91 1445.68 340.62 1384.24 333.9 1384.24 214.91 1445.68 214.91"/>
  <polygon class="st36" points="1445.68 354.05 1445.68 446.17 1384.24 434.66 1384.24 347.33 1445.68 354.05"/>
  <path class="st36" d="M1342,87.28c9.57-1.1,19.15-2.51,28.8-2.88v117.07c-9.2,1.58-19.36,1.1-28.8.96-2.71-.04-18.24.86-18.24-1.44v-111.79c6.03-.96,12.18-1.22,18.24-1.92Z"/>
  <path class="st36" d="M1329.52,213.95c.33.03,1.46.97,3.25,1.03,12.64.4,25.39-.44,38.03-.07v117.07c-9.66-.25-19.23-1.79-28.8-2.88-2.55-.29-18.08-1.21-18.3-2.48l.05-110.28c.2-2.91,3.37-2.61,5.76-2.4h.01Z"/>
  <path class="st36" d="M1337.2,340.62c.18.02,1.09.87,2.32,1,9.61,1.04,19.25,2.05,28.88,2.83.78-.03,2.4.91,2.4,1.44v84.92c-9.33-.42-18.66-2.99-27.84-4.8-4.93-.97-13.34-1.48-17.58-3.06-1.17-.44-1.59-.95-1.63-2.21l1.93-81.1c3.8.53,7.72.58,11.52.97h0Z"/>
  <rect class="st40" x="1381.36" y="82.49" width="1.92" height="118.99"/>
  <rect class="st40" x="1381.36" y="214.91" width="1.92" height="118.99"/>
  <path class="st36" d="M615.28,77.69c1.98.2,5.52,1.62,8.17,1.91,10.36,1.12,20.82,1.89,31.19,2.89v118.51c0,3.25-14.42.51-16.76.44-15.18-.43-30.46.4-45.64.04v-124.75c7.51.1,15.58.23,23.04.96h0Z"/>
  <path class="st36" d="M598,214.91c18.82-.66,37.81.49,56.64,0v118.99c-12.93,1.69-25.99,2.39-38.96,3.8-1.26.14-2.13.98-2.32,1-6.97.79-14.14,1.05-21.12,1.92v-125.72c1.91-.05,3.85.07,5.76,0h0Z"/>
  <path class="st36" d="M619.12,350.21c1.95-.24,4.17.22,6.22,0,9.76-1.07,19.4-3.6,29.3-2.87v87.32c-13.08.97-25.7,5.12-38.4,7.68-7.85,1.58-16.02,2.94-24,3.84v-92.12c8.99-.79,17.96-2.74,26.88-3.84h0Z"/>
  <path class="st36" d="M670.96,213.95c14.36-.87,29.61.56,44.06.11.44,2.02.96,4.01,1.1,6.1,1.94,28.28,1.85,71.54,0,99.87-.16,2.42-.97,4.7-1.04,7.12l-47,4.84c-.68-.73-1.22-1.01-1.01-2.3l.05-115.74c1.27-.06,2.57.08,3.84,0h0Z"/>
  <path class="st36" d="M670.96,84.4c14.62.57,30.44,4.13,45.14,5.34l-1.08,111.62c-14.33-.81-28.79,2.14-43.1,1.06-2.77-.21-4.93.59-4.85-3.31l.04-114.72c1.27.02,2.57-.04,3.84,0h0Z"/>
  <path class="st36" d="M672.88,344.46c5.58-.64,40.19-5.76,42.08-4.64.11.06,1.12,2.12,1.12,2.24v77.73c0,.61-1.26,2.59-2.3,2.56l-44.74,9.43c-.58-.22-2.05.56-1.94-.57l-.03-83.44c-.12-4.39,2.95-2.98,5.81-3.31h0Z"/>
  <rect class="st24" x="721.84" y="90.16" width="1.92" height="111.31"/>
</svg>