<?xml version="1.0" encoding="UTF-8"?>
<svg id="Ebene_1" xmlns="http://www.w3.org/2000/svg" version="1.1" viewBox="0 0 2034.72 1149.12">
  <!-- Generator: Adobe Illustrator 29.5.1, SVG Export Plug-In . SVG Version: 2.1.0 Build 141)  -->
  <defs>
    <style>
      .st0 {
        fill: #0e0806;
      }

      .st1 {
        fill: #cccccb;
      }

      .st2 {
        fill: #848d79;
      }

      .st3 {
        fill: #fcfcfc;
      }

      .st4 {
        fill: #c9dce0;
      }

      .st5 {
        fill: #d9d8d7;
      }

      .st6 {
        fill: #c9c9c9;
      }

      .st7 {
        fill: #fff;
      }

      .st8 {
        fill: #090909;
      }

      .st9 {
        fill: #050505;
      }

      .st10 {
        fill: #dddcdb;
      }

      .st11 {
        fill: #ae7044;
      }

      .st12 {
        fill: #2e261f;
      }

      .st13 {
        fill: #bbbbba;
      }

      .st14 {
        fill: #cac8bb;
      }

      .st15 {
        fill: #332a24;
      }

      .st16 {
        fill: #7d532f;
      }

      .st17 {
        fill: #195113;
      }

      .st18 {
        fill: #150d08;
      }

      .st19 {
        fill: #fff9e5;
      }

      .st20 {
        fill: #23160d;
      }

      .st21 {
        fill: #13100d;
      }

      .st22 {
        fill: #26180f;
      }

      .st23 {
        fill: #ddd;
      }

      .st24 {
        fill: #0e0805;
      }

      .st25 {
        fill: #020100;
      }

      .st26 {
        fill: #010000;
      }

      .st27 {
        fill: #c7894f;
      }

      .st28 {
        fill: #af7044;
      }

      .st29 {
        fill: #b3b3b3;
      }

      .st30 {
        fill: #e5f8fd;
      }

      .st31 {
        fill: #c6c6c6;
      }

      .st32 {
        fill: #b07345;
      }

      .st33 {
        fill: #fefefe;
      }

      .st34 {
        fill: #25180e;
      }

      .st35 {
        fill: #dcdbda;
      }

      .st36 {
        fill: #bebebe;
      }
    </style>
  </defs>
  <g>
    <path class="st19" d="M1282.88.6l1.92,427.41-1.92,1.24-.92,1.99h-526.84s-1.2-1.99-1.2-1.99c-.53-.1-.94-.21-.94-.31-.16-143.74.06-293.15.94-428.34h528.96"/>
    <g>
      <path class="st32" d="M1213.38,463.79l12.75,20.86c-4.5-9.05-8.9-18.31-12.96-27.64-8.83-20.29-16.6-41.48-17.95-63.67-.2-3.26-.66-11.77,3.92-6.75,4.92,6.19,11.16,12.81,17.78,17.12,5.56,3.62,14.11,2.53,9.26-5.43-6.62-10.88-16.38-20.92-25.22-29.56-1.11-2.75-.84-5.83.8-9.25l.82-5.01c.1-.83.6-1.2,1.3-1.4l28.59-2.32c.38.04.82.11,1.09.41.85.95,1.11,15.06,1.13,16.21-.94,17.25-.04,34.23,2.71,50.96,6.55,22.16,13.1,44.35,19.63,66.55l-14.55-21.09h-29.1Z"/>
      <path class="st26" d="M1089.34,257.52l1.06.06c17.92,21.74,54.86,24.33,72.77,1.29,1.36-.27,2.72-.24,4.08.08,7.38.36,28.85,8.32,36.12,11.8,23.45,11.23,32.97,35.33,35.91,61.23.27,2.38,1.44,17.71.89,18.65-.69,1.18-5.19-.47-5.32,1.73,1.69,14.03.51,28.23.89,42.33.22,8.29.51,14.88,2.59,22.93,3.93,15.23,9.24,30.71,13.67,45.86,2.16,7.37,4.35,14.75,6.15,22.23h-1.79s-19.82-67.14-19.82-67.14c-4.58-19.6-1.94-40.72-3.02-60.97-.1-1.88-.81-3.9-.44-5.95l-29.54,2.4c-.29,2.07-.55,4.23-1.05,6.26-.53,2.19-2.32,5.3-1.23,7.3.57,1.04,5.57,5.3,6.97,6.86,5.34,5.98,13.61,15.31,17.86,21.92,3.34,5.19,4.03,9.68-3.15,10.37-1.16.11-1.64.04-2.73-.33-5.86-1.97-14.12-10.6-18.7-15.32-1.03-1.06-3.33-4.71-4.49-5.22-.9-.4-.61.64-.73,1.11-1.12,4.54,1.17,17.47,2.07,22.67,4.7,27.43,18.01,51.12,28.89,76.05h-2.24c-10.18-23.83-23.15-46.66-28.08-72.64-1.37-7.22-3.37-18.6-2.82-25.77-.2-1.12.14-2.96.9-3.8-1.08.42-2.37.19-2.24-1.43-.34.02-.7,0-1-.18-.38-.24-5.55-5.75-6.18-6.54-.45-.56-.71-1.09-.88-1.84,1.06,1.36,1.26,6.87.9,8.61l-.9.66c1.47.97-.68,4.15-1.6,5.38-4.18,5.53-10.55,4.76-15.41,1.04-3.23,1.3-6.69.85-9.85-.48-.61.63-1.31.52-2.09-.32-3.22,1.58-6.36,1.58-9.71.26-7.69-3.03-8.68-8.32-8.46-16.04-3.75-4.34-6.36-9.52-7.83-15.56-22.94,10.03-45.81,20.3-68.62,30.82-4.05,2.1-8.23,3.49-12.55,4.17-.05,1.32-1.56,1.98-2.05.78l-1.09.17c-11.13,4.27-15.43,7.38-27.76,4.04-8.17-2.21-14.44-4.96-17.14-14.13-4.01-13.61,1.26-29.05,4.6-42.2h-4.93c.3-10.88,3.04-22.87,6.71-33.05,12.29-34.1,38.97-46.85,71.88-50.14,1.84-.18,9.52-.97,10.52,0Z"/>
      <path class="st9" d="M1092.93,253.72c-1.45.13-.9-.27-.47-1.21.47-1,1.84-2.26-.22-2.62-1.67-.29-7.15,1.23-9.39,1.44-11.23,1.04-24.26-.04-35.04-3.67-6.57-2.21-12.84-6.22-15.33-13.43-.82-.11-.39,1.01-.32,1.53.2,1.62.7,3.83,1.21,5.38,1.07,3.29,3.14,6.12,4.49,9.25-24.4.97-41.66-22.63-45.68-46.11l-.84,3.62c.23,1.91-.45,3.77-.52,5.63-.21,5.23.72,10.3,1.14,15.47-9.16-8.91-12.86-22.03-13.65-34.94-1.5-24.5,5.24-46.42,13.54-68.81,9.95-26.86,25.1-56.86,42-79.49,18.15-24.31,53.17-49.78,83.71-41.86,2.41.62,9.24,3.97,10.51,3.99,1.4.03,6.74-2.44,8.82-2.96,49.96-12.55,102.62,65.95,121.15,110.33,11.22,26.87,22.45,70.85,10.94,98.85-2.14,5.21-5.24,10.2-8.81,14.41.16-5.79.97-11.54.69-17.37l-1.35-6.4c-3.48,22.39-20.76,42.71-42.54,45.15,2.37-4.05,4.89-8.19,5.37-13.08.05-.5.35-2.22-.44-2.13-4.45,11.44-17.23,14.14-27.61,15.62-11.54,1.65-22.66.94-34.19.07-.44,1.65,2.68,3.21.45,4.28-1.54.56-4.32-4.08-2.69-4.99-.34-.05-.84-.14-.9-.41-.1-.53-.14-7.53,0-7.89l.9-.96c-.19.36-.39.7-.64,1-1.88,2.27-13.87,5.94-17.36,6.75-15.02,3.51-29.6.64-43.52-5.88l-.23,6.72c0,1.94-1.05,6.81-3.17,4.72Z"/>
      <path class="st28" d="M1092.93,253.72c.05-.06.79-.02,1.29-.75,1.63-2.35.74-8.99,1.4-12.09,11.9,5.61,24.2,9.03,37.33,7.54,8.76-.99,16.96-4.22,24.91-8.02v9.27c0,1.2,2,4.01,2.69,4.99.79,1.14,1.7,2.95,3.15,3.55,1.27.53,2.62-.21,3.57.73-4.68-.23-3.87,1.76-6.71,4.52-19.49,18.95-52.5,15.46-70.31-4.3-.43-.48-.68-1.45-.89-1.65,1.71.1,2.88-1.81,3.8-3.09.11-.16-.25-.68-.22-.71Z"/>
      <path class="st8" d="M1195.02,383.5c-.57,1.22-1.02,2.49-1.34,3.8-4.92,30.2.75,38,9.41,64.88,2.78,8.64,7.58,21.63,9.19,30.17.18.97.29,1.89.2,2.88h-194.78c2-8.3,4.77-16.41,7.72-24.37,8.05-21.81,20.48-42.61,21.41-66.67.06-1.55-.06-1.22-1.36-1.19,1.21-.46,2.13-.56,3.13-.95.23.37.44.75.59,1.15s.29.78.27,1.14c-.53,13.57-4.28,26.32-9.34,38.7-7.32,15.67-13.45,31.79-18.38,48.36l-1.35,1.92.43-.95c62.95-.01,125.9,0,188.87.02l.56.93-1.04-1.36c-4.79-16.46-9.94-32.7-15.81-48.61-3.54-10.62-5.41-21.47-4.49-32.76.28-3.42,1.69-15.56,3.1-17.63.22-.33.49-.61.77-.89.45.48,2.11.71,2.24,1.43Z"/>
      <path class="st29" d="M1195.02,383.5c.14.74-.84,3.11-.9,3.8h-.45c.22-1.35.12-4.29,1.34-3.8Z"/>
      <path class="st33" d="M1048.6,392.06c27-10.68,53.1-24.52,79.71-35.41.79-.32,1.57-.73,2.45-.73.83,4.37,2.39,8.88,4.7,12.62.68,1.1,2.88,3.28,3.05,3.89.5,1.79-.14,4.77.2,6.92.94,5.88,7.82,9.71,13.04,9.34,1.39-.1,3.18-1.13,4.1-1.2.44-.03,1.25.87,2.01,1.24,3.13,1.32,6.65,1.78,9.85.48,2.76-.42,1.07-.04,2.14.43,4.7,2.11,8.79,2.64,12.42-1.86.69-.85,2.46-4.09,2.46-5v-9.27c2.77,1.93,5.12,4.58,7.42,7.12.47.52.56,1.35.64,1.44-1.23,6.75-2.73,13.79-3.13,20.68-1.18,20.59,7.46,36.88,13.45,55.6,2.63,8.22,4.63,16.72,7.15,24.98h-189.85c6.65-31.27,28.21-58.38,28.21-91.28Z"/>
      <path class="st33" d="M1165.11,260.95c.89-.55,12.84,2.77,14.78,3.36,10.8,3.26,24.65,8.05,33.63,15.16,18.79,14.87,24.83,45.68,24.43,69.28l-32.64,2.9c.36-11.8-1.18-23.57-4.73-34.73l-2.88.27c5.11,15.13,6.27,31.32,1.79,46.82-.77.21-.89-.34-1.34-.71-4.41-3.6-9.43-10.07-13.87-14.27-16.83-15.92-34.95-29.95-59.13-22.35l-72.07,18.8,6.6-38.77c-.17-1-2.3-.69-3.01-.68l-6.72,38.98c-15.58-6.05-31.36-7.45-47.91-6.66,3.13-24.55,11.38-51.84,32.84-64.74,11.69-7.03,27.97-12.07,41.33-13.64,2.71-.32,10.43-1.33,12.29.14.95.75,1.63,2.38,2.65,3.37,19.67,19.31,56.4,20.4,73.98-2.52Z"/>
      <path class="st32" d="M1218.3,390.63l.35.68c-2.63,3.9-.9,8.6,1.65,12-.32.33-.69.37-1.1.16-7.72-2.77-22.35-21.44-28.87-28.06-1.35-1.37-3.55-2.6-4.74-4-.61-.72-1.1-2.5-1.58-2.61-2.42-.55-1.08,2.74-1.06,3.98.08,3.82.41,9.81-1.61,13.07-1.96,3.17-7.12,4.44-10.04,2.15-.98-.77.28-1.7.57-2.7.74-2.52,2.27-12.94.34-14.44-.66-.52-1.82.04-1.82.5v10.46c0,2.38-1.89,5.09-4.03,5.94-1.91.41-3.9.33-5.82,0-3.78-1.19-1.6-2.3-1.35-5.47s-.98-12.17-2.45-14.98c-.12-.23-.58-.61-.67-.47-.39.89.44,2.19.44,2.61v13.79c0,.66-1.92,2.64-2.66,2.88-6.41,2.08-14.66-3.47-13.45-11.19,1.25.19.73,3.63.89,3.8,1.23-.01,2.4.4,2.69-1.19.87-4.83-2.5-4.96-4.94-7.59-5.88-6.33-5.52-15.7-9.16-23.08-.59.02.14,5.65-.44,6.67-.24.42-3.34,1.91-4.1,2.3-19.82,10.24-42.7,19.71-63.31,28.34-17.04,7.13-31.6,16.39-50.01,8.91-15.42-6.27-11.01-28.9-7.61-42.04.54-2.09,1.89-8.06,2.64-9.56.17-.34.24-.66.67-.71,8.08-1.39,16.73-.14,24.69,1.67,1.65.37,12.35,3.33,12.85,3.95.28.35.27.53.21.96-8.63.77-16.94,3.53-24.62,7.61-.12.75.63.52,1.11.47,4.33-.44,9.46-2.82,13.74-3.96,8.19-2.17,16.46-3.34,24.55-5.31,21.32-5.19,42.72-11.82,64.02-16.65,25.21-5.72,36.1,1.26,54.64,18.06,13.78,12.49,27.8,28.25,39.4,43.03Z"/>
      <path class="st27" d="M1221.43,403.47c-2.55-.23-4.13-5.44-4.09-8.06.02-1.24.56-4.5,1.85-3.82,2.03-1.61,6.48,5.81,7.36,7.64.79,1.65,1.68,2.98.46,4.71-1.56,2.23-3.83.87-5.58-.46Z"/>
      <path class="st34" d="M1219.19,391.58c-3.26,2.58-.74,9.63,2.24,11.88-1.18.62-1.38.31-2.24,0,.87-.2-.26-1.32-.46-1.65-2.16-3.5-2.27-7.43-.43-11.19.27.34.59.65.9.95Z"/>
      <path class="st12" d="M1167.7,389.21c-3.03,2.08-6.91.99-9.85-.48,3.59,1.17,6.21,1.03,9.85.48Z"/>
      <path class="st12" d="M1166.36,387.78c-2.07.83-3.7.67-5.82,0h5.82Z"/>
      <path class="st11" d="M1043.15,135.67c.17-1.84.84-4.84,1.29-6.72,5.15-21.91,25.25-33.93,37.14-51.37,3.91-5.73,7.23-11.85,11.05-17.64,6.18,4.85,12.28,9.84,18.8,14.18,16.32,10.84,34.55,24.22,52.62,30.82l8.65,1.14c6.22,1.18,2.79.29,9.68,2.72,3.9.22,12.52,4.79,15.53,6.64,2.1,1.31,0,0,2.06,1.44,2.22,1.54,2.35,2.13,3.22,3.39,4.81,7.01,7.63,16,7.43,24.68,1.43-1.72,1.81-3.91,3.34-5.72,3.45-4.07,8.15-5.53,13-3.33,6.21,2.82,5.52,11.32,5.16,17.39-.77,13.16-5.57,25.1-17.63,30.25-2.72,1.16-6.16,2.75-8.28-.38,1.52-5.76,2.86-11.7,3.37-17.67.04-.52.53-1.61-.31-1.52-5.45,23.47-13.52,45.62-31.58,61.31-16.02,13.92-42.76,23.77-63.36,19.28-18.79-4.09-45.82-23.42-56.42-40.41-8.17-13.11-10.39-27.22-14.32-42.08-.76-.12-.48,1.13-.44,1.65.48,6.14,1.23,12.27,3.12,18.12.3,2.26-3.13,1.75-4.65,1.56-3.99-.49-8.23-2.88-10.8-6.12-.75-.95-1.88-3.65-2.05-3.77-.1-.07-.71.42-1.02.33-2.03-.54-5.57-14.73-5.96-17.4-1.09-7.39-2.35-19.33,6.38-21.92,6.8-2.02,11.18,3.59,14.97,8.53.15-2.39-.21-5.02,0-7.37Z"/>
      <path class="st25" d="M1102.33,112.34c-3.75-.3-7.3-1.85-11.02-2.31-9.33-1.15-18.42.8-25.69,7.3-.6.53-4.83,5.65-5.37,5-.24-3.62,2.14-7.3,4.25-9.99,6.39-8.15,18.64-14.12,28.54-10.8,3.94,1.32,9.26,6.11,9.3,10.8Z"/>
      <path class="st0" d="M1117.26,176.39c-3.67,4.44-2.13,6.08,2.34,7.41,7.52,2.23,13.39-.1,20.56-2.35.96-.3.84,1.03.6,1.6-.37.91-3.98,2.81-5,3.25-5.54,2.39-14.46,2.92-19.53-.83-3.41-2.52-4.42-6.29-2.02-10.17.25-.41,3.3-4.17,3.53-4.33,1.76-1.24,4.26.53,3.82,2.11-.13.45-3.57,2.43-4.3,3.31Z"/>
      <path class="st22" d="M1097.41,210.44c-.05-.06-.05-1.36,0-1.41.48-.55,1.92.96,2.46.95.58-.01,1.04-.79,1.35-.8.21,0,2.75,1.75,3.7,2.1,9.85,3.59,35.57,3.5,45.22-.67.59-.26.56-.99.61-1.02.44-.18,2.95,1.57,3.08-1.03,1.13.34,1.31,1.9.13,2.29-3,.24-5.73,1.58-8.64,2.23-16.77,3.76-27.59,2.28-43.77-2.02-.7-.19-3.92-.33-4.13-.61Z"/>
      <path class="st18" d="M1221.43,149.61c1.69,1.73-5.76,4.91-6.49,6.18-1.52,2.66,2.32,12.57-3.81,12.35,2.84-3.79-.77-7.31.8-11.75,1.03-2.91,6.2-7.9,9.5-6.79Z"/>
      <path class="st24" d="M1041.43,167.67c-.65.77-2.96-2.7-3.11-3.59-.37-2.13.63-7.63.38-8.45-.21-.71-6.17-5.33-6.67-6.97,4.41.13,8.66,4.05,8.95,8.8.12,1.95-.53,3.47-.46,5.19.07,1.64,1.08,3.29.91,5.01Z"/>
      <path class="st20" d="M1136.36,223.29c1.3,1.27-3.95,2.56-4.45,2.64-3.89.61-8.98.38-12.56-1.45-.58-.3-1.4-.56-1.35-1.42,1.98-.54,3.67,1,5.57,1.22,4.07.47,8.74-.5,12.79-.98Z"/>
      <path class="st7" d="M1151.93,148.59c0,11.15,9.06,18.51,20.21,18.51,11.15,0,20.17-7.36,20.17-18.51,0-11.15-9.04-20.19-20.19-20.19-11.15,0-20.19,9.04-20.19,20.19Z"/>
      <circle class="st16" cx="1175.48" cy="152.62" r="14.66"/>
      <path class="st15" d="M1189.98,150.43c-2.22-13.9-20.64-15.25-26.26-6.56,6.8-10.53,25.92-6.42,26.26,6.56Z"/>
      <path class="st21" d="M1151.93,146.33c6.37-36.68,60.26-11.79,34.68,15.84,21.47-23.2-22.57-52.64-34.68-15.84Z"/>
    </g>
    <circle cx="1178.6" cy="158.22" r="7.79"/>
    <circle class="st7" cx="1175" cy="153.18" r="2.18"/>
    <path class="st7" d="M1083.43,128.54c-11.15,0-20.19,9.04-20.19,20.19,0,11.15,9.06,18.51,20.21,18.51,11.15,0,20.17-7.36,20.17-18.51s-9.04-20.19-20.19-20.19"/>
    <circle class="st16" cx="1086.79" cy="152.77" r="14.66"/>
    <path class="st15" d="M1101.29,150.58c-2.22-13.9-20.64-15.25-26.26-6.56,6.8-10.53,25.92-6.42,26.26,6.56Z"/>
    <path class="st21" d="M1063.24,146.48c6.37-36.68,60.26-11.79,34.68,15.84,21.47-23.2-22.57-52.64-34.68-15.84Z"/>
    <circle cx="1089.91" cy="158.37" r="7.79"/>
    <circle class="st7" cx="1086.31" cy="153.33" r="2.18"/>
    <path class="st25" d="M1156.13,116.02c3.75-.3,7.3-1.85,11.02-2.31,9.33-1.15,18.42.8,25.69,7.3.6.53,4.83,5.65,5.37,5,.24-3.62-2.14-7.3-4.25-9.99-6.39-8.15-18.64-14.12-28.54-10.8-3.94,1.32-9.26,6.11-9.3,10.8Z"/>
  </g>
  <path class="st3" d="M547.12-.04l1.92.92-.05,452.36c1.19,10.52,1.49,21.06.89,31.64,2.8.65,5.65.54,8.46.04l2.22,1.56c.55-1.83,2.79-2.47,6.72-1.92,42.75-12.94,86.55-23.1,130.56-30.71l2.88-.96c2.73-3.65,9.4-4.89,13.44-2.88l602.12.05,11.32.91c4.99.27,10.03.55,14.92,1.64,29.08,6.48,58.18,13.1,87.17,19.94,2.41.57,4.76,1.44,7.11,2.32s4.66,1.91,6.95,2.96c9.47.69,18.95,2.84,28.45,6.44,6.23,2.58,11.84,2.46,16.81-.38l-.14-482.74,1.92-1.2h544.32v837.73c-.27.84-.59.83-.96,0l-.93,1.92H1.14l-1.22-1.92V-.04h547.2Z"/>
  <path class="st17" d="M2034.16,644.01c.84,163.3.84,336.77,0,500.93l-.93,4.62H1.14l-1.22-4.62v-500.93h2034.24Z"/>
  <path class="st35" d="M1384.24-.04l1.93.88.47,66.64c18.83-1.93,37.7-4.18,56.62-6.76l.49-59.61,1.93-1.14h45.12v484.13c.38,1.96-6.73,4.12-7.99,4.07-9.3-.31-28.95-7.91-39.05-10.32-.51-1.9.06-2.59,1.81-2.95-2.9-4.13-4.69-5.14-9.91-5.18-16.53-5.84-33.45-10.99-50.74-13.88-6.4,1.47-8.98.54-14.01-2.95-7.79,2.45-11.95.13-12.48-6.98-4.59-2.44-9.69-4.18-15.31-5.23l-.86-2.27c1.16-4.35,1.15-8.16.71-12.38l3.3-1.28c4.85.43,17.18,2.63,21.77,3.97,1.15.34,2.01,1.23,2.78,2.11l-1.92-.66v-83.11l1.92-1.16c-5.89,1.01-32.51-1.61-33.49-3-.44-.62-.28-1.51-.11-2.28-.17-1.57,1.18-2.32,4.05-2.24-.81-3.94-.56-7.03.75-9.28,6.95-1.78,17.54-.52,25.05.8,1.44.25,2.64,1.18,3.75,2.08l-1.92-.66v-115.24l1.92-1.17c-5.58,2.37-39.16,3.28-40.95,1.31-.52-.58-.47-1.48-.33-2.27l.84-1.92,10.51-.11c-1.17-4.43-.8-7.59,1.13-9.49l3.04-1.87c5.11-.55,17.55-.91,22.59-.56,1.2.08,2.24.77,3.18,1.47l-1.92-.66v-115.24l1.92-1.17c-8.33,3.36-20.11,4.91-28.8,2.88l-1.3-1.44c.43-3.38.68-7.25-1.58-10.07l2.33-2.28c9.03-1.94,18.18-3.09,27.43-3.68V1.11l1.92-1.15h13.44-.03Z"/>
  <path class="st23" d="M754.48-.04v422.22h528.96V-.04h5.76l1.32,6.75c.17,133.92.19,268.46.06,403.64l-.73,24.04c2.62.06,5.77,4.46,4.8,6.62,9.33,1.54,18.65,4.07,27.79,6.67.93.26,1.79.79,2.66,1.34s1.71,1.24,2.5,1.95l-7.16,1.01-601.06.02-5.22-1.98c-.99-2.45-.09-2.64,1.92-.96l1.31-1.63c11.49-2.54,22.59-5.6,33.3-9.19l.9-437.08,1.92-1.2h.97,0Z"/>
  <path class="st31" d="M1316.08-.04l1.93.64.93,75.46c2.61-1.2,4.54-.98,5.78.67,2.1-3.33,11.58-3.6,14.4-.96.74.1,2.5-.29,2.81.05.56.62,1.78,10.05.07,11.46-4.41,3.48-13.1,4.1-18.24,1.92l1.92.66v109.97l-1.92,1.16c5.47-.47,11.15-.63,17.03-.47l1.21,1.91.96,11.52h-13.44c-.66,1.1-1.95,1.97-3.87,2.62v108.85l15.36,1.66.99,2.02c1.21,1.61,1.38,11.12.97,11.52-.32.31-4.59-.22-5.77,0-2.59,1.57-5.81,2.12-9.66,1.63l-1.91,78.79c5.36,1.36,10.84,2.32,16.46,2.88l.88,2.11c5.25,3.66.12,11.48,1.41,13.46.46.71,13.13,1.21,15.68,5.44.79,1.3,1.65,6.54,2.2,6.93.84.6,6.42-1.2,8.95-.85,3.27.46,4.48,3.29,6.03,3.65,1.74.4,5.56-1.25,9.19-.59,16.21,2.97,33.25,7.83,48.86,13.53,2.32.85,5.13.32,7.3,1.34,2.02.95,2.22,3.49,4.99,4.61s14.09,2.06,15.39,3.34c.92.91.22,2.01-1.42,1.91-6.41-.39-12.1-4.66-17.77-.96-38.63-9.24-77.6-17.35-116.16-26.87-11.3-2.79-22.54-6.13-33.94-8.58-.96-4.07-1.9-5.31-5.44-7.45,2.22-106.66.12-213.63-.03-320.26-.06-38.29,1.36-76.43,1.01-114.72h26.88-.02Z"/>
  <path class="st6" d="M592.24-.04l1.92.88.13,59.73c5.62,1.09,11.65,1.87,18.07,2.35l2.92,2.29c6.73.66,7.3,13.72,0,12.47l-3.91,1.59c-5.84-.69-11.57-.68-17.21.03v120.98l-1.92,1.18c7.79.63,15.62.77,23.48.44,5.64-1.25,5.45,10.15,2.72,12.18-6.84.04-13.65.31-20.44.82-.78,1.25-2.06,2.11-3.85,2.57v120.56c5.06.01,10.12-.28,15.21-.87l4,1.52c1.92-.45,6.08-1.29,7.43-.08.47.42,1.22,11.91-1.67,11.6-7.16,4-19.08,6.24-26.88,3.84l1.92.67v90.28l-1.92,1.17c6.77-3.75,16.45-5.34,24-3.84,2.93-.35,4.23,1.49,3.92,5.53-1.09,5.58-.07,7.6,3.06,6.07,7.49-3.27,12.2-2.13,14.14,3.42,24.66-4.87,49.17-10.16,73.52-15.88,5.06-1.02,10.26,4.56,5.2,7.58-.86.21-1.55.87-1.92.96-4.42,1.08-9.01,1.79-13.44,2.88l-2.88.96c-43.41,10.6-87.01,20.68-130.56,30.71-3.56,1.14-5.49.65-5.78-1.48l.02-481.92,1.92-1.2h28.8Z"/>
  <path class="st5" d="M667.12-.04l1.92.88v68.58l1.92,2.51c4.44.74,4.13,11.93,0,12.47l-1.93,2.59-.04,112.71c1,.71,1.97,1.62,2.93,2.73,2.98,1.04,2.04,10.71-.96,11.52l-1.93,2.58-.05,113.16-.9,2.3c6.4-1.08,8.23,8.92,4.8,12.47.06,1.77-1.19,2.43-3.76,1.98-.16,29.46-.19,57.9-.08,85.35,4.29-.85,5.92,2.68,4.92,10.57,5.32.22,10.78-.8,16.1-1.84,15.29-3.64,30.36-7.01,45.21-10.1V1.16l1.93-1.2h16.32l-.95,438.07c0,1.3-.61,1.65-1.6,2.24-1.46.87-11.39,3.55-13.98,4.26-6.85,1.89-14.03,2.83-20.91,4.53,1.87-9.91-10.23-4.17-15.16-3.16-20.33,4.2-41.12,9.69-60.97,12.15-.94.12-1.96,1.63-2.95,1.5-2.16-.3-2.37-5.09-4.07-5.62-1.85-.57-11.35,3.52-14.77,1.85-.85-.85,1.7-11.69-1.92-13.44l2.9-2.57c5.53-1.71,30.13-7.78,33.66-6.23.65.29,1.25.69,1.84,1.13l-1.92-.67v-85.49l1.92-1.17-2.62,1.8c-10.67,1.08-21.26,2.06-31.77,2.93l-1.13-1.85v-11.52h-5.76c-.33-.68-.63-1.52-.23-2.09,1.28-1.83,35.66-4.35,41.51-2.7l-1.92-.66v-117.16l1.92-1.17-3.31,1.35c-15.4,1-31.14.71-46.65.4-1.11-.02-2.22-.28-3.33-.57s-2.25-.72-3.35-1.18c3.52-2.72,16.57.46,19.06-1.09,1.45-.91,1.44-9.14.24-10.82-1.44-2.03-21.56,1.09-25.07-1.52,1-.47,2.01-.91,3.05-1.22s2.03-.58,3.04-.61c18.86-.58,38.3-.55,56.31,1.35l-1.92-.66v-116.68l1.92-1.17c-12.46,1.84-26.42.43-38.27-2.64l-1.09-2.16c4.71-.52,3.63-11,0-12.47,1.1-.37,2.21-.7,3.35-.9s2.22-.38,3.27-.27c9.97,1.07,19.97,2.18,29.86,3.81V1.12l1.93-1.16h13.44Z"/>
  <path class="st23" d="M737.2-.04v430.38c-.18,1.97-1.85,2.74-3.61,3.11-17.82,1.3-39.08,9.73-56.36,10.84-1.76.11-3.56-.1-5.32-.03-.2-2.55.68-10.91-1.12-12.35-.53-.43-1.38,0-1.76-.13l.46-2.06c15.77-3.27,31.3-6.58,46.58-9.94-.76-.08-1.91-.36-1.92-.89-.62-24.62-.62-51.05,0-75.69l1.92-1.15c-2.71-.44-5.57-.47-8.58-.07l-33.21,4.23-1.41-1.76c-.21-2.82-.46-7.94-1.6-10.35-.72-1.53-2.28-1.14-3.2-2.13l.69-2,44.36-4.57c1.64-1.04,2.14-28.16,2.22-32.68.47-25.65.06-52.65-1.13-77.29-12.69.55-26.11.9-38.87.23-1.6-.08-3.05-.93-4.39-1.72l.96-11.52,3.37-1.74c12.69-.17,25.3-.8,37.83-1.91l1.04-107.26-39.5-4.99-3.7-2.13c1.14-3.93,1.8-8.64,0-12.47,2.47-.57,5.02-1.15,7.57-.93l34.67,3.58V1.12l1.92-1.16s22.09,0,22.09,0Z"/>
  <path class="st1" d="M556.72-.04l1.32,26.76c.52,151.53.83,303.07.95,454.61,2.16,1.44,2.68,3.15,1.57,5.15-4.72.84-7.55,1.23-12.43-.05-.52-10.98.96-22.18-1.05-33.02l.04-453.45s9.6,0,9.6,0Z"/>
  <polygon class="st30" points="1445.68 -.04 1445.26 62.39 1384.73 70.03 1384.24 -.04 1445.68 -.04"/>
  <path class="st30" d="M653.68-.04v70.05c-12.72-2.03-25.61-3.27-38.4-4.79-6.84-.81-13.72-1.89-20.65-1.91l-2.26-1.58-.13-61.76h61.44Z"/>
  <path class="st30" d="M715.12-.04v76.77c-14.71-1.43-29.53-2.73-44.16-4.8-1.21-.17-2.6.13-3.84,0V-.04h48Z"/>
  <path class="st30" d="M1370.8-.04v71.97c-5.2,0-10.56.43-15.72,1.08s-10.71,2.09-15.96,2.76c-4.42.56-9.92.38-14.4.96l-1.92-.89V1.12l1.92-1.16s46.08,0,46.08,0Z"/>
  <path class="st10" d="M563.44-.04l-.02,484.04,3.86.56c-1.67,1.24-4.62,1.54-6.72,1.92l-3.38-4.77c-1.08-160.49-.16-321.19-.46-481.75h6.72Z"/>
  <path class="st14" d="M2034.16,1148.6c.27-.84.59-.83.96,0v.96H-.08v-.96h2034.24Z"/>
  <path class="st4" d="M1324.72-.04v76.77c-2.19.28-5.41,1.35-7.67,1.92l-.97-78.69s8.64,0,8.64,0Z"/>
  <polygon class="st2" points="2035.12 1148.6 2034.16 1148.6 2034.16 1124.61 2034.16 1100.62 2034.16 1045.92 2034.16 837.69 2035.12 837.69 2035.12 1148.6"/>
  <path class="st23" d="M700.72,452.89c-.48.12-1.61.65-2.88.96l2.88-.96Z"/>
  <polygon class="st30" points="1445.68 76.73 1445.68 201.48 1384.24 201.48 1384.24 82.49 1445.68 76.73"/>
  <polygon class="st30" points="1445.68 214.91 1445.68 340.62 1384.24 333.9 1384.24 214.91 1445.68 214.91"/>
  <polygon class="st30" points="1445.68 354.05 1445.68 446.17 1384.24 434.66 1384.24 347.33 1445.68 354.05"/>
  <path class="st30" d="M1342,87.28c9.57-1.1,19.15-2.51,28.8-2.88v117.07c-9.2,1.58-19.36,1.1-28.8.96-2.71-.04-18.24.86-18.24-1.44v-111.79c6.03-.96,12.18-1.22,18.24-1.92Z"/>
  <path class="st30" d="M1329.52,213.95c.33.03,1.46.97,3.25,1.03,12.64.4,25.39-.44,38.03-.07v117.07c-9.66-.25-19.23-1.79-28.8-2.88-2.55-.29-18.08-1.21-18.3-2.48l.05-110.28c.2-2.91,3.37-2.61,5.76-2.4h.01Z"/>
  <path class="st30" d="M1337.2,340.62c.18.02,1.09.87,2.32,1,9.61,1.04,19.25,2.05,28.88,2.83.78-.03,2.4.91,2.4,1.44v84.92c-9.33-.42-18.66-2.99-27.84-4.8-4.93-.97-13.34-1.48-17.58-3.06-1.17-.44-1.59-.95-1.63-2.21l1.93-81.1c3.8.53,7.72.58,11.52.97h0Z"/>
  <rect class="st36" x="1381.36" y="82.49" width="1.92" height="118.99"/>
  <rect class="st36" x="1381.36" y="214.91" width="1.92" height="118.99"/>
  <path class="st30" d="M615.28,77.69c1.98.2,5.52,1.62,8.17,1.91,10.36,1.12,20.82,1.89,31.19,2.89v118.51c0,3.25-14.42.51-16.76.44-15.18-.43-30.46.4-45.64.04v-124.75c7.51.1,15.58.23,23.04.96h0Z"/>
  <path class="st30" d="M598,214.91c18.82-.66,37.81.49,56.64,0v118.99c-12.93,1.69-25.99,2.39-38.96,3.8-1.26.14-2.13.98-2.32,1-6.97.79-14.14,1.05-21.12,1.92v-125.72c1.91-.05,3.85.07,5.76,0h0Z"/>
  <path class="st30" d="M619.12,350.21c1.95-.24,4.17.22,6.22,0,9.76-1.07,19.4-3.6,29.3-2.87v87.32c-13.08.97-25.7,5.12-38.4,7.68-7.85,1.58-16.02,2.94-24,3.84v-92.12c8.99-.79,17.96-2.74,26.88-3.84h0Z"/>
  <path class="st30" d="M670.96,213.95c14.36-.87,29.61.56,44.06.11.44,2.02.96,4.01,1.1,6.1,1.94,28.28,1.85,71.54,0,99.87-.16,2.42-.97,4.7-1.04,7.12l-47,4.84c-.68-.73-1.22-1.01-1.01-2.3l.05-115.74c1.27-.06,2.57.08,3.84,0h0Z"/>
  <path class="st30" d="M670.96,84.4c14.62.57,30.44,4.13,45.14,5.34l-1.08,111.62c-14.33-.81-28.79,2.14-43.1,1.06-2.77-.21-4.93.59-4.85-3.31l.04-114.72c1.27.02,2.57-.04,3.84,0h0Z"/>
  <path class="st30" d="M672.88,344.46c5.58-.64,40.19-5.76,42.08-4.64.11.06,1.12,2.12,1.12,2.24v77.73c0,.61-1.26,2.59-2.3,2.56l-44.74,9.43c-.58-.22-2.05.56-1.94-.57l-.03-83.44c-.12-4.39,2.95-2.98,5.81-3.31h0Z"/>
  <rect class="st13" x="721.84" y="90.16" width="1.92" height="111.31"/>
</svg>