<?xml version="1.0" encoding="UTF-8"?>
<svg id="Ebene_1" xmlns="http://www.w3.org/2000/svg" version="1.1" viewBox="0 0 2034.72 1149.12">
  <!-- Generator: Adobe Illustrator 29.5.1, SVG Export Plug-In . SVG Version: 2.1.0 Build 141)  -->
  <defs>
    <style>
      .st0 {
        fill: #cccccb;
      }

      .st1 {
        fill: #848d79;
      }

      .st2 {
        fill: #100b09;
      }

      .st3 {
        fill: #130c07;
      }

      .st4 {
        fill: #fcfcfc;
      }

      .st5 {
        fill: #c9dce0;
      }

      .st6 {
        fill: #d9d8d7;
      }

      .st7 {
        fill: #080605;
      }

      .st8 {
        fill: #c9c9c9;
      }

      .st9 {
        fill: #a6a6a6;
      }

      .st10 {
        fill: #060504;
      }

      .st11 {
        fill: #050505;
      }

      .st12 {
        fill: #a7472b;
      }

      .st13 {
        fill: #dddcdb;
      }

      .st14 {
        fill: #1b1614;
      }

      .st15 {
        fill: #f3f2f1;
      }

      .st16 {
        fill: #bbbbba;
      }

      .st17 {
        fill: #f9f9f9;
      }

      .st18 {
        fill: #cac8bb;
      }

      .st19 {
        fill: #efefee;
      }

      .st20 {
        fill: #7d532f;
      }

      .st21 {
        fill: #195113;
      }

      .st22 {
        fill: #4c3523;
      }

      .st23 {
        fill: #0d0705;
      }

      .st24 {
        fill: #ae6f44;
      }

      .st25 {
        fill: #fff9e5;
      }

      .st26 {
        fill: #12100d;
      }

      .st27 {
        stroke: #000;
        stroke-miterlimit: 10;
      }

      .st27, .st28 {
        fill: #b07345;
      }

      .st29 {
        fill: #958e8b;
      }

      .st30 {
        fill: #0c0704;
      }

      .st31 {
        fill: #ddd;
      }

      .st32 {
        fill: #020100;
      }

      .st33 {
        fill: #030201;
      }

      .st34 {
        fill: #010000;
      }

      .st35 {
        fill: #fafaf9;
      }

      .st36 {
        fill: #af7044;
      }

      .st37 {
        fill: #e5f8fd;
      }

      .st38 {
        fill: #c6c6c6;
      }

      .st39 {
        fill: #c88950;
      }

      .st40 {
        fill: #fefefe;
      }

      .st41 {
        fill: #fafafa;
      }

      .st42 {
        fill: #dcdbda;
      }

      .st43 {
        fill: #5b473e;
      }

      .st44 {
        fill: #bebebe;
      }

      .st45 {
        fill: #414141;
      }
    </style>
  </defs>
  <path class="st25" d="M1283.44-.04l1.92.92v420.1l-1.92,1.2-.92,1.92h-526.84l-1.2-1.92c-.53-.1-.94-.2-.94-.3-.16-138.9.06-283.28.94-421.92h528.96Z"/>
  <g>
    <path class="st11" d="M947.42,254.5c2.22-.23.73-.9.47-1.57-.33-.82-.93-2.06-.04-2.68,11.61,2.67,23.7,2.69,35.37.45,10.13-1.95,21.06-5.23,24.98-16.25.61.09.26,1.5.21,1.92-.37,2.92-1.59,6.75-2.84,9.39-.29.6-3.26,5.14-3.03,5.34,12.47.08,22.67-5,30.84-14.49,7.82-9.07,13.15-20.6,14.75-32.7l.85,3.59c.58,4.92.8,9.82.34,14.76-.23,2.43-.82,4.84-1.04,7.25,6.69-6.65,10.56-15.24,12.27-24.62,4.61-25.17-.72-46.7-8.54-70.24-10.11-30.46-25.52-62.16-43.86-88.16-18.26-25.89-55.48-54.39-88-43.41-1.44.49-6.65,3.12-7.44,3.12-.89,0-4.83-1.85-6.18-2.26-32.41-9.83-62.67,11.88-82.16,36.64-20.99,26.67-36.15,56.58-46.27,89.37-5.29,17.16-9.71,34.38-10.36,52.51-.61,17.03,2.14,33.33,13.27,46.44l-.76-11.86c-.1-3.39.13-6.76.7-10.1l.8-2.72c1.91,15.42,10.39,29.54,22.55,38.5,3.95,2.91,7.78,4.84,12.45,6.23,2.42.72,4.91,1.06,7.3,1.84.36-.39-1.79-3.15-2.14-3.8-1.94-3.61-3.06-7.43-3.44-11.56-.03-.34-.35-1.05.21-.99,4.6,11.64,16.09,14.6,27.02,16.3,6.83,1.06,14.19,1.55,21.1,1.28,3.97-.16,8.72-1.22,12.48-1.2.5,0,1.1.39,1.67.28-.2,1.76-2.32,2.9-.6,4.32l.68.19c2.48-.85,3.21-11.04,2.76-13.62,19.13,10.59,41.58,10.78,60.66.25l.68,10.09c.3.97,1.22,2.59,2.25,2.16Z"/>
    <path class="st28" d="M815.13,486.47l1.02-1.33c6.59-13.79,13.16-27.67,18.75-41.95,4.95-12.65,8.03-25.38,9.9-38.82.37-2.66,1.94-17.02.28-17.9-.18-.09-3,2.46-3.32,2.67-4.28,4-5.87,5.78-9.84,10.13-3.16,3.09-9.23,8.9-13.81,8.48-6.83-.62-4.84-4.93-1.96-9.11,6.84-9.94,15.9-19.77,24.48-28.59l.42-2.22-2.87-12.47-.45-.52c-9.9-1.18-19.78-2.03-29.65-2.57l-.8.38c-1.05,13.62-1.09,27.21-.96,40.75.23,13.65-1.85,26.86-6.29,39.89l-14.06,47.68c-.46,1.8-.77,3.63-.93,5.48,9.27.39,20.88.53,30.09,0Z"/>
    <path class="st34" d="M951.59,258.82l-.73-.09c-16.43,22.94-57,24.4-73.78,1.07l-.87-.06c-2.27.81-6.26,1.24-8.95,2-30.48,8.62-50.3,15.87-60.55,49.59-3.94,12.95-5.51,27.03-5.24,40.6l5.02.66c-.42,5.73-.43,11.4-.59,17.13-.43,16.37.96,33.62-2.55,49.5l-19.47,66.84c-.26.67.74.39,1.14.41,5.84-21.3,12.74-42.31,18.55-63.62,4.62-16.91,2.84-30.95,3.19-48.22.09-4.37.41-8.89.61-13.25.13-2.82.22-5.66.3-8.48h3.14s26.75,2.46,26.75,2.46l2.9,12.5-.3,1.87c-6.57,6.02-12.32,13.03-17.89,20.04-1.99,2.51-8.82,10.63-9.22,13.27-.45,2.92.28,4.15,2.95,4.92,3.8,1.1,5.46-.02,8.65-1.85,4.18-2.4,7.74-6.52,11.17-10.02,3.02-3.08,5.81-6.52,9.08-9.26.82,7.65-.36,15.62-1.57,23.2-1.76,10.99-4.5,21.05-8.41,31.4-5.8,15.36-13.21,30.05-19.81,45.04.43-.02,1.23.2,1.52-.19,9.25-21.71,21.06-43.01,26.09-66.38,1.9-8.79,4.21-21.56,3.66-30.44-.08-1.35-1.06-3.15-.31-4.34.9-1.43,1.29,2.57,1.41,3.2,1.16,6.1,2.01,12.66,2.18,18.87.28,1.94.28,3.92,0,5.86-.54,16.72-8.92,33.84-13.78,49.74-2.21,7.21-4.73,15.21-6.63,22.44-.5,1.92.55,1.67,1.28.09,2.8-6.12,4.53-15.97,6.62-22.76,4.83-15.68,13.13-32.68,13.71-49.19.29-2.15.28-4.33,0-6.48-.23-7.95-1.71-15.75-2.99-23.58.14-.89,4.17-5.07,5.07-5.88,1.01-.92,2.35-2.04,3.58-2.62v9.1c0,.41.64,2.29.84,2.83,2.29,6.08,8.31,28.78,13.58,25.38.36-.23.44,8.13.66,8.09.38-.06,2.34-7.75,3.38-7.57.96.17,3.4.45,4.31.42.47-.01,4.51-1.33,4.64-1.54.16-.24-.63-.26.48-1.34.15-.15.12,7.54.14,7.53.11-.07,1.78-7.1,2.35-6.93,6.27,1.76,13.07,22.08,14.03,15.05.26-1.88,9.01-25.51,9.39-26.83.08-.29-1.65,13.46-1.1,12.57,2.49-4.05,6.97,6.61,8.06,1.99,26.87,13.39,47.15-31.65,74.81-20.08.6.52.22,6.08.3,7.4,1.13,17.7,9.53,33.8,15.93,49.83,4.64,11.63,9.11,23.44,12.34,35.59l1.22.18c-3.06-12.28-7.7-24.36-12.37-36.08-7.19-18.04-16.75-35.91-15.93-56.15,7.63,2.71,15.33,7.04,23.65,5.82,3.42-.5,9.27-2.34,12.48-3.74,12.28-5.33,12.11-21.13,10.3-32.73-1.17-7.52-3.63-14.72-5.32-22.1,2.39-.63,5.55,2.09,5.38-1.71-.18-4.03-1.41-9.39-2.25-13.41-4.17-19.98-12.4-40.92-29.67-52.26-16.11-10.57-37.18-15.27-56.1-15.86-.38.11-.36.43-.49.56Z"/>
    <path class="st36" d="M947.42,254.5c-.45-.74-1.87-1.38-1.71-3.01l-.68-9.94c-.33-.36-3.61,1.61-4.27,1.9-16.75,7.58-33.23,8.19-50.25,1.02-2.5-1.05-4.84-2.41-7.31-3.54.03,4.71.56,9.2-1.88,13.49-.35.61-.76.75-.95,1.02-.98,1.36-2.49,3.72-4.17,4.32,1.22,1.27,2.24,3.08,3.41,4.33,17.41,18.55,53.17,17,69.74-2.17.78-.91,1.43-2.26,2.23-3.09-1.78-.49-2.98-1.98-4-3.42-.21-.3-.1-.79-.17-.89Z"/>
    <path class="st9" d="M850.88,413.36c.5-1.88.5-4.6,0-6.48.06,2.09.07,4.39,0,6.48Z"/>
    <path class="st45" d="M849.69,413.05c.5-1.66.5-4.18,0-5.86.05,1.93.06,3.93,0,5.86Z"/>
    <path class="st24" d="M876.51,96.57l4.37,1.48c3.23,1.32,8.36,5.27,7.84,9.31-13.17-3.3-26.64-4.45-38.23,4.07-1.24.91-4.88,4.57-5.77,4.83-.51.15-.73.23-.7-.41.06-1.33,1.07-2.56,1.05-3.85-9.5,8.02-14.99,20.59-14.75,33.31-.99-1.2-1.28-2.98-2.14-4.42-1.46-2.45-5.31-5.75-8.14-6.07-5.41-.62-10.67,2.98-11.19,8.78-.78,8.85,1.02,23.35,6.15,30.68,3.49,4.99,11.33,11.44,17.55,10.82,1.61-.16,2.07-.45,1.92-2.27-.25-2.99-1.79-7.52-2.32-10.89-.36-2.33-.77-5.03-.94-7.36-.03-.34-.22-1.15.29-1.07,2.8,10.12,5.4,21.22,9.31,30.93,6.6,16.39,20.52,32.4,35.48,41,11.86,6.81,31.53,12.91,45,11.01,22.82-3.23,52.57-25.25,63.7-46.02,6.46-12.05,8.27-25.34,11.87-38.46.52-.07.28.7.29,1.07.16,4.21-.54,8.99-1.34,13.12-.36,1.88-1.38,4.41-1.59,6.09-.07.57.04,1.07.29,1.57,7.51.46,13.01-2.56,16.89-9.11.19-.32.31-.99.35-1.02.06-.05,1.05.57,1.45.27.45-.33,3.34-8.69,3.69-9.91,1.76-6.15,3.06-15.02,2.31-21.37-.37-3.15-4.48-8-7.63-8.45-2.89-.41-7.25.81-9.51,2.74-1.63,1.4-2.7,4.59-4.61,5.87.01-5.23-.54-10.45-1.88-15.49-3.75-14.17-14.47-25.58-24.34-35.57-2.07-2.1-3.81-3.28-5.78-5.73-6.52-8.13-12.09-17.96-17.17-27.11-.43-.12-.49.12-.75.3-1.76,1.27-3.73,3.32-5.54,4.76-13.56,10.82-25.25,17.57-41.31,23.86-7.98,3.12-16.21,5.63-24.2,8.72Z"/>
    <path class="st40" d="M802.61,351.05l33.67,2.78c-.48-11.83.75-23.64,4.34-34.88.56.2,2.32-.44,2.21.47-.22,1.76-1.56,4.83-2.06,6.82-3.21,12.93-3.72,27.68,1.02,40.22,1.43-.67,6.23,17.27,6.42,18.74,2.58,19.6,3.04,15.09,2.86,31.33-.28,23.93-35.02,76.97-10.32,82.35,16.27,3.55,62.69,4.02,85.73-4.21,6.07-2.17,89.23,64.17,66.6-87.8-2.44-16.42,2.61-22,.52-39.14l-12.21-59.88c1.29.13,1.95-.59,2.3.84,1.24,5.12,1.63,11.97,2.56,17.41,1.2,7,2.67,13.95,4.09,20.91.41.36,7.77-2.48,9-2.85,7.96-2.4,17.08-4.07,25.39-4.25,4.71-.1,9.44.78,14.17.16-3.26-23.97-10.69-51.46-31.61-65.06-11.41-7.42-27.07-12.33-40.39-14.33-2.45-.37-13.06-1.71-14.58-.68-.65.44-2.83,3.64-3.84,4.66-17.22,17.37-49.45,18.62-67.63,2.14-2-1.82-3.61-4.17-5.65-5.83-10.01,2.77-20.13,5.42-29.82,9.22-5.55,2.18-11.04,4.67-15.91,8.21-21.24,15.44-26.84,47.39-26.84,72.62Z"/>
    <path class="st39" d="M819.9,406.27l.12-.41c3.26-2.08,4.79-8.38,2.27-11.7-1.77-2.33-4.17,1.74-5.19,3.19-1.43,2.02-4.9,6.76-2.83,9.05,1.14,1.26,2.17.59,3.55.49"/>
    <path class="st27" d="M823.7,405.77"/>
    <path class="st27" d="M817.77,407.77c7.49,2.67,25.3-22.7,33.85-30.81,1.1-1.05.75-.66,1.52-1.62.99-1.22.55-.44,4.89-4.55-.06,6.17-2.3,17,4.56,20.11,2.87,1.3,5.46.79,7.93-1.17-1.87-3.9-2.66-8.56-2.36-12.92.04-.52.45-4.02.6-4.16.09-.09-.11.05.18,0,.33,3.41.05,6.93.3,10.33.16,2.18.59,4.49,2.23,6.02,2.13,1.98,7.31,2.05,9.8.78,3.01-1.53,1.15-2.25.89-4.95-.46-4.7.6-9.25,1.79-13.72.52-.07.4.72.29,1.07-1.89,6.26-2.13,11.4-.71,14.2,2.44,4.81,12.41,1.97,15.16-1.39.59-.72,1.93-3.33,1.93-4.17v-3.58c0-.44-.3-.79-.7-.97-.94-.42-.81-2.05-.79-.91-1.85.27-2.06,4.88-2.11,3-.07-3.18,1.68-3.13,3.44-4.79,5.57-5.27,7.5-12.46,8.71-19.98l1.57-3.77v5.71c15.85,8,32.04,15.36,48.28,22.51,9.78,4.31,19.63,8.58,29.5,12.65,14.04,5.79,21.4,11.05,36.87,5.8,6-2.04,9.69-3.74,12.24-10.15,5.49-13.74-.91-30.91-4.15-44.51-13.82-1.73-27.2,1.75-40.2,6.15-.09.76,0,.49.42.64,2.27.87,4.78,1.02,7.09,1.6,4.99,1.26,11.51,2.69,15.83,5.51.3.2.92.64.05.56-8.71-2.57-17.43-5.36-26.3-7.32-2.91-.64-6.23-.87-9.26-1.52-22.8-4.94-45.52-12.9-68.28-17.84-19.76-4.28-30.73,1.82-45.43,14.35-16.74,14.27-31.28,31.71-45.3,48.74-.5.93.6,1.33,1.01,2.04,1.33,2.34.66,5.96-.61,8.22-.45.8-1.69,2.58-2.62,3.3l-1.96,1.21"/>
    <path class="st35" d="M938.78,149.62c.15,2.38.74,4.6,1.64,6.78.07.16.49,1.3.74.62l.29-.92c-5.02-14.04,11.74-25.12,22.91-16.72,12.13,9.12,3.53,27.64-10.48,26.07l-.8.52-.74.31c7.38,1.71,17.39.39,22.79-5.55,14.77-15.05.21-37.72-19.34-34.43-10.47,1.76-19.34,12.14-17.01,23.32Z"/>
    <path class="st17" d="M888.72,146.85c-.14-18.46-22.86-26.01-35.41-14.29-5.78,5.4-7.46,11.85-5.87,19.62.21,1.04,1.69,6.94,2.96,5.07-.34-1.23-.68-2.44-1.01-3.61.69-.44.42-.79-.3-.93.51-10.46,8.44-17.2,18.52-14.94,15.42,3.45,15,25.31-.26,28.15l-.38.68c-.63.32-.26.45.3.62.6.51,1.79.51,2.38,0,10.29-.49,20.08-9.12,19.07-20.36Z"/>
    <path class="st33" d="M939.67,198.05c-.64.64,1.18,1.56,1.18,1.69-13.88,6.87-30.18,8.65-45.39,6.59-3.15-.43-7.36-2-10.16-2.14-1.21-.06-2.54,0-2.54,1.56.58.11,3.39-.16,3.56.02.05.05.1,1.05.22,1.46,8.29,27.01,43.93,27.07,54.67,1.2.55-1.32,2.04-6.83,2.48-7.32.58-.65,1.47.17,2.24,0,.15-1.68-5.75-3.59-6.25-3.08Z"/>
    <path class="st32" d="M938.48,105.51c3.25-.22,6.29-1.55,9.47-2.07,10.32-1.68,19.37.18,27.32,7.32.45.41,4.93,5.33,5.22,4.93-.53-6.86-6.52-13.57-11.94-17.09-6.67-4.34-16.13-6.85-23.41-2.7-3.06,1.74-6.79,5.77-6.65,9.61Z"/>
    <path class="st2" d="M938.78,149.62c-1.01-15.8,12.86-26.47,27.35-21.99,14.08,4.35,19.29,21.79,9,33.09.13.62.76-.32.89-.46,6.79-7.03,9.05-15.3,3.82-24.31-9.6-16.54-35.79-15.79-41.21,3.8-.82,2.95-1.8,7.3.15,9.87Z"/>
    <path class="st26" d="M855.35,163.81c.37-.34.07-.86-.89-1.54.57-.84-.57-2.11-1.49-1.85-1.27-2.3-2.26-4.78-3.01-7.26-.3,0-.48.17-.56.48.11.93.31,1.59.47,2.45.06.32.39,1.01-.16.94-2.48-4.96-3.13-13.01-.54-17.98,9.68-18.59,37.63-13.61,39.57,7.81.48-.31.34-1.19.3-1.69-1.46-16.1-16.3-24.34-30.5-18.01-5.81,2.59-12.16,9.74-12.7,16.46-.69,8.56,1.78,16.25,9.53,20.2Z"/>
    <path class="st23" d="M919.15,173.34c.06.09,1.56.63,1.96.9,1.36.92,2.16,1.59,3.01,3.05,2.9,4.99.68,5.63-3.75,6.79-5.32,1.39-8.05.77-13.24-.61-1.43-.38-5.12-2-6.07-2.07-1.69-.12-1.05,1.7-.05,2.55,6.17,5.23,20.15,6.28,25.56-.53,2.3-2.9,1.01-6.46-.91-9.25-.4-.58-3.03-3.71-3.46-3.79-1.27-.26-3.86,1.66-3.06,2.98Z"/>
    <path class="st14" d="M941.16,157.03c1.71,4.22,7.64,8.29,11.92,8.95,15.07,2.29,24.05-17.02,12.19-26.66s-30.27,2.53-24.11,17.71Z"/>
    <path class="st3" d="M830.32,168.13c-3.45-3.23.02-7.14-1.03-11.42-.67-2.74-6.46-9.12-9.41-7.25-1.64,1.04,3.34,3.73,3.98,4.23.45.35,2.29,1.8,2.43,2.11,1.39,3.16-2.5,12.75,4.03,12.33Z"/>
    <path class="st30" d="M999.26,167.51c.46.54,2.85-2.95,2.96-3.56.2-1.15.07-3.64.03-4.93-.03-.84-.64-3.01-.44-3.55.25-.69,4.87-4.84,5.79-6,.28-.35.72-.5.59-1.08-2.65.18-5.22,1.75-6.84,3.86-1.34,1.74-1.77,3.59-1.77,5.82,0,1.27.64,3.41.56,4.62-.09,1.37-1.32,3.18-.88,4.82Z"/>
    <path class="st22" d="M854.46,162.27c.36.51.84,1.46.89,1.54.51.73,3.48,2.14,4.3,2.15.32,0,.64-.3.76-.3.06.27.16.26.3,0,.62-.22,1.02-.53,1.19-.93l-.61-.61c-2.16-.06-4.18-.96-6.02-2.07l-.82.21Z"/>
    <path class="st43" d="M862.2,166.9c.29.7.62.85,1.33.94,1.36.18,3.64.03,5.09-.02.57-.02,1.2.31,1.03-.62-.78.04-1.6.01-2.38,0-1.42-.48-3.58-.51-5.07-.31Z"/>
    <path class="st29" d="M862.2,166.9c1.52.29,3.49.28,5.07.31l-.3-.62-.24-.6c-2.03.19-4.04.08-6.01-.33-.1,0-.2,0-.3,0-.04.96,1.04,1.09,1.79,1.23Z"/>
    <path class="st20" d="M849.1,152.71c-.02.6.28.82.3.93l.29-.16c.15,2.74,1.67,4.94,3.28,6.94l.32-.78c-.8-2-.56-4.15-.21-6.23l-.41-.7.68-.44c.08-1.93.89-2.92,2.78-2.6l.41-.66,1.18.4c10.46-2.19,15.94,11.55,4.4,14.59l-.22.74c-.69.27-1.46.26-1.19.93,17.59,4.74,26.12-20.79,8.94-27.28-10.41-3.93-20.16,3.06-20.56,14.32Z"/>
    <path class="st26" d="M849.1,152.71c.12-4.19,3.74-11.2,7.45-13.11,10.75-5.56,24.7,2.36,21.61,15.58-2.15,9.19-9.49,10.47-17.43,10.49.36.9,5.34,1.03,6.26.93,3.59-.4,8.5-3.53,10.28-6.78,6.5-11.82-2.59-24.16-15.16-22.79-7.92.86-13.32,7.54-13,15.69Z"/>
    <path class="st41" d="M892,206.38c-.25.23.82,1.57,1.04,1.85,9.81,12.46,30.99,11.05,41.12-.31.47-.53,3.79-4.87,3.42-5.25-4.17,1.31-8.24,2.88-12.51,3.86-7.55,1.73-14.78,1.83-22.5,1.38-3.58-.21-7.02-1.24-10.58-1.54Z"/>
    <path class="st12" d="M933.71,217.49c-1.89-.75-3.73-.02-5.5,0-9.08.16-18.82.15-26.97,4.77,9.86,7.17,24.74,4.61,32.47-4.78Z"/>
    <path class="st10" d="M856.54,149.01l-.02.7c2.82,2.31-.95,5.72-3.07,2.82l-.78.18c-.61,2.71-.88,5.08.3,7.71.59.74.89,1,1.49,1.85,2.24,1.42,4.74,2.61,7.45,2.47,3.64-1.41,7.24-2.62,7.17-7.56-.06-4.4-2.25-6.91-6.21-8.08-2.82-.83-3.64-.61-6.32-.09Z"/>
    <path class="st20" d="M944.44,160.11l.33-.69c-.92-2.22-.77-4.76.18-6.94l-.21-.69c.22-.11.41-.28.44-.54.19-1.99,1.47-2.71,3.34-2.26l.69-.29.57.34c10.14-2.43,14.28,12.46,3.49,14.74l-.49.65-.45.62c16.04,3.6,24.72-19.18,9.74-26.75-13.17-6.66-27.82,8.86-18.53,21.34.1.13.76,1.09.89.47Z"/>
    <path class="st7" d="M949.21,148.7l-.27.64c1.78,2.85-1.59,5.11-3.53,2.43l-.66.02c-1.48,2.2-1.55,6-.3,8.33,1.33,2.47,5.67,4.43,8.34,4.32,7.9-.32,10.38-11.37,3.18-15.17-1.71-.9-5.14-1.92-6.75-.56Z"/>
    <path class="st19" d="M852.67,152.71c.72.42,1.13,1.27,2,1.48,3.06.74,5.02-3.49,1.87-5.18-.99.19-1.84-.33-2.84.61-.93.88-.8,2.04-1.03,3.09Z"/>
    <path class="st15" d="M944.74,151.78c1.42,3.1,6.15,1.96,5.16-1.8-.08-.28-.5-1.13-.69-1.28-1.93-1.52-5.57.67-4.47,3.08Z"/>
  </g>
  <path class="st4" d="M547.12-.04l1.92.92-.05,452.36c1.19,10.52,1.49,21.06.89,31.64,2.8.65,5.65.54,8.46.04l2.22,1.56c.55-1.83,2.79-2.47,6.72-1.92,42.75-12.94,86.55-23.1,130.56-30.71l2.88-.96c2.73-3.65,9.4-4.89,13.44-2.88l602.12.05,11.32.91c4.99.27,10.03.55,14.92,1.64,29.08,6.48,58.18,13.1,87.17,19.94,2.41.57,4.76,1.44,7.11,2.32s4.66,1.91,6.95,2.96c9.47.69,18.95,2.84,28.45,6.44,6.23,2.58,11.84,2.46,16.81-.38l-.14-482.74,1.92-1.2h544.32v837.73c-.27.84-.59.83-.96,0l-.93,1.92H1.14l-1.22-1.92V-.04h547.2Z"/>
  <path class="st21" d="M2034.16,644.01c.84,163.3.84,336.77,0,500.93l-.93,4.62H1.14l-1.22-4.62v-500.93h2034.24Z"/>
  <path class="st42" d="M1384.24-.04l1.93.88.47,66.64c18.83-1.93,37.7-4.18,56.62-6.76l.49-59.61,1.93-1.14h45.12v484.13c.38,1.96-6.73,4.12-7.99,4.07-9.3-.31-28.95-7.91-39.05-10.32-.51-1.9.06-2.59,1.81-2.95-2.9-4.13-4.69-5.14-9.91-5.18-16.53-5.84-33.45-10.99-50.74-13.88-6.4,1.47-8.98.54-14.01-2.95-7.79,2.45-11.95.13-12.48-6.98-4.59-2.44-9.69-4.18-15.31-5.23l-.86-2.27c1.16-4.35,1.15-8.16.71-12.38l3.3-1.28c4.85.43,17.18,2.63,21.77,3.97,1.15.34,2.01,1.23,2.78,2.11l-1.92-.66v-83.11l1.92-1.16c-5.89,1.01-32.51-1.61-33.49-3-.44-.62-.28-1.51-.11-2.28-.17-1.57,1.18-2.32,4.05-2.24-.81-3.94-.56-7.03.75-9.28,6.95-1.78,17.54-.52,25.05.8,1.44.25,2.64,1.18,3.75,2.08l-1.92-.66v-115.24l1.92-1.17c-5.58,2.37-39.16,3.28-40.95,1.31-.52-.58-.47-1.48-.33-2.27l.84-1.92,10.51-.11c-1.17-4.43-.8-7.59,1.13-9.49l3.04-1.87c5.11-.55,17.55-.91,22.59-.56,1.2.08,2.24.77,3.18,1.47l-1.92-.66v-115.24l1.92-1.17c-8.33,3.36-20.11,4.91-28.8,2.88l-1.3-1.44c.43-3.38.68-7.25-1.58-10.07l2.33-2.28c9.03-1.94,18.18-3.09,27.43-3.68V1.11l1.92-1.15h13.44-.03Z"/>
  <path class="st31" d="M754.48-.04v422.22h528.96V-.04h5.76l1.32,6.75c.17,133.92.19,268.46.06,403.64l-.73,24.04c2.62.06,5.77,4.46,4.8,6.62,9.33,1.54,18.65,4.07,27.79,6.67.93.26,1.79.79,2.66,1.34s1.71,1.24,2.5,1.95l-7.16,1.01-601.06.02-5.22-1.98c-.99-2.45-.09-2.64,1.92-.96l1.31-1.63c11.49-2.54,22.59-5.6,33.3-9.19l.9-437.08,1.92-1.2h.97,0Z"/>
  <path class="st38" d="M1316.08-.04l1.93.64.93,75.46c2.61-1.2,4.54-.98,5.78.67,2.1-3.33,11.58-3.6,14.4-.96.74.1,2.5-.29,2.81.05.56.62,1.78,10.05.07,11.46-4.41,3.48-13.1,4.1-18.24,1.92l1.92.66v109.97l-1.92,1.16c5.47-.47,11.15-.63,17.03-.47l1.21,1.91.96,11.52h-13.44c-.66,1.1-1.95,1.97-3.87,2.62v108.85l15.36,1.66.99,2.02c1.21,1.61,1.38,11.12.97,11.52-.32.31-4.59-.22-5.77,0-2.59,1.57-5.81,2.12-9.66,1.63l-1.91,78.79c5.36,1.36,10.84,2.32,16.46,2.88l.88,2.11c5.25,3.66.12,11.48,1.41,13.46.46.71,13.13,1.21,15.68,5.44.79,1.3,1.65,6.54,2.2,6.93.84.6,6.42-1.2,8.95-.85,3.27.46,4.48,3.29,6.03,3.65,1.74.4,5.56-1.25,9.19-.59,16.21,2.97,33.25,7.83,48.86,13.53,2.32.85,5.13.32,7.3,1.34,2.02.95,2.22,3.49,4.99,4.61s14.09,2.06,15.39,3.34c.92.91.22,2.01-1.42,1.91-6.41-.39-12.1-4.66-17.77-.96-38.63-9.24-77.6-17.35-116.16-26.87-11.3-2.79-22.54-6.13-33.94-8.58-.96-4.07-1.9-5.31-5.44-7.45,2.22-106.66.12-213.63-.03-320.26-.06-38.29,1.36-76.43,1.01-114.72h26.88-.02Z"/>
  <path class="st8" d="M592.24-.04l1.92.88.13,59.73c5.62,1.09,11.65,1.87,18.07,2.35l2.92,2.29c6.73.66,7.3,13.72,0,12.47l-3.91,1.59c-5.84-.69-11.57-.68-17.21.03v120.98l-1.92,1.18c7.79.63,15.62.77,23.48.44,5.64-1.25,5.45,10.15,2.72,12.18-6.84.04-13.65.31-20.44.82-.78,1.25-2.06,2.11-3.85,2.57v120.56c5.06.01,10.12-.28,15.21-.87l4,1.52c1.92-.45,6.08-1.29,7.43-.08.47.42,1.22,11.91-1.67,11.6-7.16,4-19.08,6.24-26.88,3.84l1.92.67v90.28l-1.92,1.17c6.77-3.75,16.45-5.34,24-3.84,2.93-.35,4.23,1.49,3.92,5.53-1.09,5.58-.07,7.6,3.06,6.07,7.49-3.27,12.2-2.13,14.14,3.42,24.66-4.87,49.17-10.16,73.52-15.88,5.06-1.02,10.26,4.56,5.2,7.58-.86.21-1.55.87-1.92.96-4.42,1.08-9.01,1.79-13.44,2.88l-2.88.96c-43.41,10.6-87.01,20.68-130.56,30.71-3.56,1.14-5.49.65-5.78-1.48l.02-481.92,1.92-1.2h28.8Z"/>
  <path class="st6" d="M667.12-.04l1.92.88v68.58l1.92,2.51c4.44.74,4.13,11.93,0,12.47l-1.93,2.59-.04,112.71c1,.71,1.97,1.62,2.93,2.73,2.98,1.04,2.04,10.71-.96,11.52l-1.93,2.58-.05,113.16-.9,2.3c6.4-1.08,8.23,8.92,4.8,12.47.06,1.77-1.19,2.43-3.76,1.98-.16,29.46-.19,57.9-.08,85.35,4.29-.85,5.92,2.68,4.92,10.57,5.32.22,10.78-.8,16.1-1.84,15.29-3.64,30.36-7.01,45.21-10.1V1.16l1.93-1.2h16.32l-.95,438.07c0,1.3-.61,1.65-1.6,2.24-1.46.87-11.39,3.55-13.98,4.26-6.85,1.89-14.03,2.83-20.91,4.53,1.87-9.91-10.23-4.17-15.16-3.16-20.33,4.2-41.12,9.69-60.97,12.15-.94.12-1.96,1.63-2.95,1.5-2.16-.3-2.37-5.09-4.07-5.62-1.85-.57-11.35,3.52-14.77,1.85-.85-.85,1.7-11.69-1.92-13.44l2.9-2.57c5.53-1.71,30.13-7.78,33.66-6.23.65.29,1.25.69,1.84,1.13l-1.92-.67v-85.49l1.92-1.17-2.62,1.8c-10.67,1.08-21.26,2.06-31.77,2.93l-1.13-1.85v-11.52h-5.76c-.33-.68-.63-1.52-.23-2.09,1.28-1.83,35.66-4.35,41.51-2.7l-1.92-.66v-117.16l1.92-1.17-3.31,1.35c-15.4,1-31.14.71-46.65.4-1.11-.02-2.22-.28-3.33-.57s-2.25-.72-3.35-1.18c3.52-2.72,16.57.46,19.06-1.09,1.45-.91,1.44-9.14.24-10.82-1.44-2.03-21.56,1.09-25.07-1.52,1-.47,2.01-.91,3.05-1.22s2.03-.58,3.04-.61c18.86-.58,38.3-.55,56.31,1.35l-1.92-.66v-116.68l1.92-1.17c-12.46,1.84-26.42.43-38.27-2.64l-1.09-2.16c4.71-.52,3.63-11,0-12.47,1.1-.37,2.21-.7,3.35-.9s2.22-.38,3.27-.27c9.97,1.07,19.97,2.18,29.86,3.81V1.12l1.93-1.16h13.44Z"/>
  <path class="st31" d="M737.2-.04v430.38c-.18,1.97-1.85,2.74-3.61,3.11-17.82,1.3-39.08,9.73-56.36,10.84-1.76.11-3.56-.1-5.32-.03-.2-2.55.68-10.91-1.12-12.35-.53-.43-1.38,0-1.76-.13l.46-2.06c15.77-3.27,31.3-6.58,46.58-9.94-.76-.08-1.91-.36-1.92-.89-.62-24.62-.62-51.05,0-75.69l1.92-1.15c-2.71-.44-5.57-.47-8.58-.07l-33.21,4.23-1.41-1.76c-.21-2.82-.46-7.94-1.6-10.35-.72-1.53-2.28-1.14-3.2-2.13l.69-2,44.36-4.57c1.64-1.04,2.14-28.16,2.22-32.68.47-25.65.06-52.65-1.13-77.29-12.69.55-26.11.9-38.87.23-1.6-.08-3.05-.93-4.39-1.72l.96-11.52,3.37-1.74c12.69-.17,25.3-.8,37.83-1.91l1.04-107.26-39.5-4.99-3.7-2.13c1.14-3.93,1.8-8.64,0-12.47,2.47-.57,5.02-1.15,7.57-.93l34.67,3.58V1.12l1.92-1.16s22.09,0,22.09,0Z"/>
  <path class="st0" d="M556.72-.04l1.32,26.76c.52,151.53.83,303.07.95,454.61,2.16,1.44,2.68,3.15,1.57,5.15-4.72.84-7.55,1.23-12.43-.05-.52-10.98.96-22.18-1.05-33.02l.04-453.45s9.6,0,9.6,0Z"/>
  <polygon class="st37" points="1445.68 -.04 1445.26 62.39 1384.73 70.03 1384.24 -.04 1445.68 -.04"/>
  <path class="st37" d="M653.68-.04v70.05c-12.72-2.03-25.61-3.27-38.4-4.79-6.84-.81-13.72-1.89-20.65-1.91l-2.26-1.58-.13-61.76h61.44Z"/>
  <path class="st37" d="M715.12-.04v76.77c-14.71-1.43-29.53-2.73-44.16-4.8-1.21-.17-2.6.13-3.84,0V-.04h48Z"/>
  <path class="st37" d="M1370.8-.04v71.97c-5.2,0-10.56.43-15.72,1.08s-10.71,2.09-15.96,2.76c-4.42.56-9.92.38-14.4.96l-1.92-.89V1.12l1.92-1.16s46.08,0,46.08,0Z"/>
  <path class="st13" d="M563.44-.04l-.02,484.04,3.86.56c-1.67,1.24-4.62,1.54-6.72,1.92l-3.38-4.77c-1.08-160.49-.16-321.19-.46-481.75h6.72Z"/>
  <path class="st18" d="M2034.16,1148.6c.27-.84.59-.83.96,0v.96H-.08v-.96h2034.24Z"/>
  <path class="st5" d="M1324.72-.04v76.77c-2.19.28-5.41,1.35-7.67,1.92l-.97-78.69s8.64,0,8.64,0Z"/>
  <polygon class="st1" points="2035.12 1148.6 2034.16 1148.6 2034.16 1124.61 2034.16 1100.62 2034.16 1045.92 2034.16 837.69 2035.12 837.69 2035.12 1148.6"/>
  <path class="st31" d="M700.72,452.89c-.48.12-1.61.65-2.88.96l2.88-.96Z"/>
  <polygon class="st37" points="1445.68 76.73 1445.68 201.48 1384.24 201.48 1384.24 82.49 1445.68 76.73"/>
  <polygon class="st37" points="1445.68 214.91 1445.68 340.62 1384.24 333.9 1384.24 214.91 1445.68 214.91"/>
  <polygon class="st37" points="1445.68 354.05 1445.68 446.17 1384.24 434.66 1384.24 347.33 1445.68 354.05"/>
  <path class="st37" d="M1342,87.28c9.57-1.1,19.15-2.51,28.8-2.88v117.07c-9.2,1.58-19.36,1.1-28.8.96-2.71-.04-18.24.86-18.24-1.44v-111.79c6.03-.96,12.18-1.22,18.24-1.92Z"/>
  <path class="st37" d="M1329.52,213.95c.33.03,1.46.97,3.25,1.03,12.64.4,25.39-.44,38.03-.07v117.07c-9.66-.25-19.23-1.79-28.8-2.88-2.55-.29-18.08-1.21-18.3-2.48l.05-110.28c.2-2.91,3.37-2.61,5.76-2.4h.01Z"/>
  <path class="st37" d="M1337.2,340.62c.18.02,1.09.87,2.32,1,9.61,1.04,19.25,2.05,28.88,2.83.78-.03,2.4.91,2.4,1.44v84.92c-9.33-.42-18.66-2.99-27.84-4.8-4.93-.97-13.34-1.48-17.58-3.06-1.17-.44-1.59-.95-1.63-2.21l1.93-81.1c3.8.53,7.72.58,11.52.97h0Z"/>
  <rect class="st44" x="1381.36" y="82.49" width="1.92" height="118.99"/>
  <rect class="st44" x="1381.36" y="214.91" width="1.92" height="118.99"/>
  <path class="st37" d="M615.28,77.69c1.98.2,5.52,1.62,8.17,1.91,10.36,1.12,20.82,1.89,31.19,2.89v118.51c0,3.25-14.42.51-16.76.44-15.18-.43-30.46.4-45.64.04v-124.75c7.51.1,15.58.23,23.04.96h0Z"/>
  <path class="st37" d="M598,214.91c18.82-.66,37.81.49,56.64,0v118.99c-12.93,1.69-25.99,2.39-38.96,3.8-1.26.14-2.13.98-2.32,1-6.97.79-14.14,1.05-21.12,1.92v-125.72c1.91-.05,3.85.07,5.76,0h0Z"/>
  <path class="st37" d="M619.12,350.21c1.95-.24,4.17.22,6.22,0,9.76-1.07,19.4-3.6,29.3-2.87v87.32c-13.08.97-25.7,5.12-38.4,7.68-7.85,1.58-16.02,2.94-24,3.84v-92.12c8.99-.79,17.96-2.74,26.88-3.84h0Z"/>
  <path class="st37" d="M670.96,213.95c14.36-.87,29.61.56,44.06.11.44,2.02.96,4.01,1.1,6.1,1.94,28.28,1.85,71.54,0,99.87-.16,2.42-.97,4.7-1.04,7.12l-47,4.84c-.68-.73-1.22-1.01-1.01-2.3l.05-115.74c1.27-.06,2.57.08,3.84,0h0Z"/>
  <path class="st37" d="M670.96,84.4c14.62.57,30.44,4.13,45.14,5.34l-1.08,111.62c-14.33-.81-28.79,2.14-43.1,1.06-2.77-.21-4.93.59-4.85-3.31l.04-114.72c1.27.02,2.57-.04,3.84,0h0Z"/>
  <path class="st37" d="M672.88,344.46c5.58-.64,40.19-5.76,42.08-4.64.11.06,1.12,2.12,1.12,2.24v77.73c0,.61-1.26,2.59-2.3,2.56l-44.74,9.43c-.58-.22-2.05.56-1.94-.57l-.03-83.44c-.12-4.39,2.95-2.98,5.81-3.31h0Z"/>
  <rect class="st16" x="721.84" y="90.16" width="1.92" height="111.31"/>
</svg>