<?xml version="1.0" encoding="UTF-8"?>
<svg id="Layer_1" xmlns="http://www.w3.org/2000/svg" version="1.1" viewBox="0 0 1024 1536">
  <!-- Generator: Adobe Illustrator 29.7.1, SVG Export Plug-In . SVG Version: 2.1.1 Build 8)  -->
  <defs>
    <style>
      .st0 {
        fill: #8a5128;
      }

      .st1 {
        fill: #6e8b9c;
      }

      .st2 {
        fill: #90562c;
      }

      .st3 {
        fill: #0a0604;
      }

      .st4 {
        fill: #c87940;
      }

      .st5 {
        fill: #894f26;
      }

      .st6 {
        fill: #8a5027;
      }

      .st7 {
        fill: #fff;
      }

      .st8 {
        fill: #211c11;
      }

      .st9 {
        fill: #1d190f;
      }

      .st10 {
        fill: #91552c;
      }

      .st11 {
        fill: #425c68;
      }

      .st12 {
        fill: #221c11;
      }

      .st13 {
        fill: #435c68;
      }

      .st14 {
        fill: #8b5028;
      }

      .st15 {
        fill: #fdf7ed;
      }

      .st16 {
        fill: #292013;
      }

      .st17 {
        fill: #2a1e10;
      }

      .st18 {
        fill: #8b5128;
      }

      .st19 {
        fill: #291f11;
      }

      .st20 {
        fill: #261d10;
      }

      .st21 {
        fill: #8a4f27;
      }

      .st22 {
        fill: #c87a40;
      }

      .st23 {
        fill: #2e2712;
      }

      .st24 {
        fill: #241d11;
      }

      .st25 {
        fill: #6f8d9d;
      }

      .st26 {
        fill: #91562c;
      }
    </style>
  </defs>
  <g>
    <path class="st17" d="M669,584c-.75-1.44-3.71-4.43-4.82-6.68-9.75-19.7-6.86-41.98-1.9-62.54,1.11-4.58,4.05-9.99,4.63-14.37.94-7.08-.39-15.64.04-22.96,1.35-22.64,8.75-47.41,22.23-65.77,4.01-5.46,8.88-9.72,12.82-15.16-2.13-1.13-8.51-7.74-10.36-7.42-1.3.22-14.89,15.05-17.63,17.41-14.8,12.75-33.26,22.57-51.34,9.31-2.95-2.16-7.49-8.23-9.72-9.28-1.9-.9-4.38-.62-6.51-1.49-10.64-4.37-7.76-13.67-12.67-17.33s-10.51.3-17.27-4.73-7.8-16.36-8.59-16.92c-1.53-1.08-15.04,4.83-22.45-4.04-9.42-11.26,1.83-25.01,3.25-36.81,2.5-20.75-9.48-28.19-16.2-45.24-8.02-20.32-6.47-45.14-4.55-66.43,2.43-27,32.38-61.61,52.56-78.53,27.86-23.36,64.97-44.85,102.46-33.03-5.81-40.55,48.9-55.44,77.68-39.17,4,2.26,7.97,7.77,8.48,8.07.4.23,6.5-1,9.23-.78,21.3,1.72,37.42,22.86,38.67,43.33.26,4.26-1.83,16.45-1.55,17.67s4.47,6.48,5.68,9.2c12.44,27.95-4.42,64.66-36.18,66.68,5.5,34.79-4.24,66.84-20.58,97.05,9.69,16.28,32.41,37.6,50.55,43.48,96.28,31.21,104.25,107.45,118.91,196.09.95,10.88-6.46,9.09-6.92,11.04s-.06,7.45.05,9.82c2.76,55.71,26.48,108.91,42.26,161.74,1.2,4.03,4.82,13.87,4.76,17.29-.1,5.96-6.75,9.1-7.03,11.98-.35,3.62,2.65,13.3,2.99,18,3.06,42.17-7.43,63.25-23.16,99.81-9.31,21.64-14.29,41.4-21.56,63.44-10.44,31.68-23.56,64.67-32.53,96.47-4.48,15.87-4.04,20.16-3.69,36.21.1,4.41-1.33,9.39-1.01,12.93.82,8.96,10.75,30.35,13.47,41.62,7.01,29.05,5.53,52.15,4.45,81.47-1.07,29.08-1.85,62.37-5.97,91.03-.32,2.21-.76,6.82-1.51,8.49-1.65,3.67-6.93,2.46-7.53,7.47-1.05,8.73.48,27.81,2.75,36.36,4.56,17.18,13.7,35.87,6.1,54.49-4.14,10.14-26.68,15.11-36.47,19.53-12.25,5.53-22.3,14.25-34.65,19.35-21.41,8.85-46.19,10.2-68.89,6.53-25.67-4.15-33.14-16.03-12.26-34.68,36.04-32.18,80.59-41.4,74.34-101.41-.85-8.13-5.38-6.23-6.65-10.34-1.93-6.25-1.46-18.4-2.34-25.66-4.04-33.22-9.65-66.22-17.89-98.62l-1.98,10.5c-4,25.01-3.27,54.29-8.27,78.73-1.63,8-7.52,10.59-7.76,11.47-.25.94-.95,12.75-.97,14.8-.25,24.91,14.19,47.55,10.72,71.73-1.15,8.05-4.58,11.23-11.76,14.24-18.94,7.94-42.87,5.66-63.18,9.82-34.84,7.13-68.34,20.1-104.01,2.42-22.3-11.05.6-24.42,12.54-29.89,37.76-17.3,99.91-29.59,89.66-85.31-.5-2.74-4.76-5.88-5.86-13.14-5.26-34.76-6.57-72.35-11.26-107.74-4.65-35.04-11.74-69.73-16.86-104.64-8.01-91.54-9.57-187.82,12.97-278.04l-.97.04c-1.06-4.48-7.28-4.23-6.01-10-1.4-.31-.94,1.31-1.99,2l-1.39.91c-1.57,4-6.73,10.11-5.61,3.09-.79-.54-1.13-1.25-.98-2.16,6.39-8.08,9.33-13.72,11.29-23.94,3.06-15.95,5.49-35.79,6.76-52.08,2.49-31.86,4.95-65.24-13.9-92.56l-1.17-4.26c-1.38.69-1.84,3-1.4,6.92l.4,3.08c2.7,1.29,1.95,3.09-1,3-2.31,20.87-9.97,39.45-19,58,1.41,1.41.78,2-1,1-.94,2.24-4.58,7.53-5.11,3.49,15.51-25.69,21.35-50.27,24.1-80.22.15-1.61-1.46-4.51-2.99-5.27Z"/>
    <path class="st20" d="M304,928.01c.54,4.21,4.5,10.27,8.04,12.45,10.36,6.4,22.88-2.99,17.47,18.55-2.31,9.18-7.61,18.04-16.5,22.01.75.99,3.03,3.65,4.03,3.61,5.86-.25,17.54-4.41,22.98-7.1,20.31-10.04,41.17-24.69,61.02-35.98,3.13-3.17,8.06-18.56,8.7-23.3.84-6.17-1.99-20.89,4.27-23.72,9.69-4.39,16.13,10.86,15.48,18.47,6.04-4.86,19.47-23.35,27.8-20.84,8.93,2.69-2.97,21.87-6.29,25.83,6.58-2.47,12.21-7.23,19.49-7.99,9.9-1.03,15.08,3.03,9.43,12.42l-18.91,11.57c6.85-1.02,28.22-7.21,29.84,3.73,1.12,7.56-13.07,12.06-18.84,12.29l9.97,1.51c4.61,3.02,5.66,7.75,1.26,11.49-2.44,2.08-7.92,2.69-8.21,3.01-.51.58,2.24,10.44-.02,12.96,9.65-2.32,18.52-13.28,28.51-14.01,13.2-.97,9.61,13.6,1.4,18.43l-10.91,6.58c11.17-.69,21.06-7.24,32.52-5.99,6.35.7,7.9,6.69,4.89,11.91-3.65,6.33-16.09,7.82-22.66,10.33-1.32.5-4.52,1.24-4.74,2.74,8.09,4,25.95-4.42,31.04,4.46,8.2,14.3-25.66,15.51-33.05,13.56,6.39,6.75,22.84,5.54,20.96,18.41-1.56,10.68-18.13,3.34-24.56,2.69-9.15-.93-16.02,3.84-25.03,4.76-4.44.46-9.48-.5-13.65.35-7.11,1.46-28.13,14.96-37.05,18.95-35.18,15.72-68.94,21.52-107.68,18.82-.2,31.93-4.17,65.05-11.31,96.19-2.72,11.87-4.12,25.47-15.36,32.24,2.25,15.95,8.84,31.08,11.98,46.75,2.05,10.21.3,9.26-.41,17.31-.98,11.1.44,24.02-1.03,36.88-1.96,17.13-5.69,34.05-7.97,51.14.19,3.86,4.46,5.88,7.42,7.66,8.71,5.25,35.47,12.71,38.91,21.08,2.12,5.18.11,9.36-3.26,13.22-11.47,13.14-37.43,5.54-52.48,5.44s-27.79,3.47-42.21-2.71c-16.69-7.16-6.44-19.47-5.31-31.72.49-5.32.22-12.54.02-17.99-.04-1.21.75-3.72-.99-3.48l-17.81,46.36c7.02,10.14,40.84,22.84,44.25,32.68,2.94,8.48-9.89,19.35-17.18,21.73-21.75,7.1-55.3.26-76.52-8.02-32.56-12.72-16.02-28.31-11.05-52.54,2.75-13.39,2.18-27.62,4.78-41.22,2.3-12.06,7.17-23.25,10.53-34.97-6.89-1.73-20-4.09-23.24-11.28-2.42-5.37-1.86-15.6-3.04-21.96-2.93-15.78-12.76-26.64-17.75-41.25-6.36-18.63-5.71-38.31-.02-57.06.58-1.91,2.78-4.93,2.85-6.13.12-1.9-3.33-4.39-2.63-8.58,12.88-28.14,28.19-53.42,38.09-82.99,9.36-27.95,14.14-60.78,30.3-85.7,1.08-1.67,8.13-8.38,6.43-10.06-53.43-1.92-95.69-45.8-90.87-100.38,6.77-76.55,132.94-137.29,178.7-66.95,4.02,6.19,14.58,32.21,17.6,34.4,3.78,2.76,14.44-1.23,21.53,3.47,6.14,4.07,6.39,11.2,5.97,17.87-.12,1.91-1.82,4-1.44,5.68.52,2.27,4.17,5.04,4.51,8.49,1.27,13.02-22.64,21.98-32.99,23.41Z"/>
    <path class="st12" d="M669,584c1.99-1.27,4.11,4.06,3.95,5.35-3.04,14-3.53,29.19-7.08,43.02-3.35,13.02-12.12,23.65-16.85,36.15-.66,3.46,3.8-2.29,3.98-2.52-1.5,9.26-4.24,18.44-8.23,27.55-9.95,34.19-21.76,67.55-35.44,100.07-27.45,34.27-62.7,79.95-49.42,126.76.18.65,1.46,3.77,1.62,3.9,3.7,2.93,6.06-27.12,5.55-29.33,5.17-18.19,9.93-36.41,14.28-54.67,1.91-11.05,11.77-11.44,8.6.63-3.47,9.4-19.09,68.6,2.71,33.94,2.76-8.13,5.2-14.23,11.54-20.34,10.78-7.59,19.92-14.14,23.27-27.79,7.82-6.74,5.23,6.39,3.36,11.25-3.88,10.09-11.51,16.63-20.48,22.11-5.88,7.06-10.41,15.27-13.59,24.63-1.31,3.25-3.32,5.52-6.03,6.82-1.83,2.79-4.99,59.65,3.65,31.12,1.63-13.12,4.18-25.96,7.65-38.5.62-4.08,8.35-13.94,10.36-6.88-2.38,5.36,1.64,61.29,5.52,34.69.9-22.74,2.77-40.98,19.16-58.92,5.78-11.37,8.4-23.9,7.87-37.59,1.79-11.6,17.87-36.99,25.63-46.38l2.41-.07,1.5,2c1.75-1.49,2.09-3.94,3.53-5.62,1.31-1.53,1.89-.32,1.98-.38-6.76,12.44-16.17,24.31-22.81,36.69-9.18,17.12-4.02,28.42-10.43,45.57-5.78,15.45-18.75,23.8-20.74,41.26-.91,7.92.45,28.13-4.48,33.52-8.27,9.04-13.72-1.58-14.27-9.81l-2.26-19.22c-2.89,10.48-2.84,21.65-5.31,32.2-.99,4.22-1.76,9.82-6.66,11.36-4.46,1.4-6.17-1.39-7.56-1.3-1.76.12-3.85,6.29-9.71,5.55-6.96-.88-6.69-9.19-6.78-14.82-14.03,12.95-16.32-9.52-16.98-19.51-3.04-45.7,17.43-69.59,42.96-103.02,24.11-31.57,33.89-89.72,49.26-127.74,6.1-15.09,16.89-30.16,20.47-45.53,1.61-6.91,7.07-36.32,6.27-41.63-.11-.73-1.49-3.65-1.97-4.57Z"/>
    <path class="st3" d="M676,1051c-8.56-58.47-7.57-138.38-1.99-197.49,2.57-27.19,8.32-53.89,13.99-80.51.32-.8,2.33-3.71,1.92-.6-5.77,25.08-11.32,50.43-13.91,76.11-6.38,63.16-5.58,134.13.88,197.13.17,1.64.83,4.33-.88,5.36Z"/>
    <path class="st22" d="M874.65,389.35c41.18,40.98,42.6,101.64,54.31,155.3.01,4.07-8.7,8.65-12.27,10.54-27.25,14.35-67.54,21.43-97.7,15.33-1.04-.7-2.26-5.7-2.69-7.31-5.01-18.93-8.9-44.36-11.98-64.02-1.69-10.82-3.75-21.68-3.31-32.68-3.31-2.26-4.08,9.76-4.09,12-.05,18.98,9.35,70.36,14.75,89.33,3.35,11.76,9.89,6.58,11.45,8.74,3.57,26.87,11.62,52.69,17.96,78.93-5.31,21.16-11.04,42.12-15.59,63.48-4.81,22.57-7.95,45.53-13.57,67.93-28.61,2.58-59.99-.56-87.93-7.41-9.08-2.23-21.03-5.57-29.37-9.63-2.93-1.43-8.56-3.91-8.44-7.32,5.32-47.71,22.39-101.95,5.57-148.8-10.55-29.37-31.23-36.84-28.73-74.24,2.06-30.84,21.07-53.74,23.98-83.51-1.91-.33-2.97,1.25-3.85,2.64-3.06,4.87-3.69,14.85-6.66,20.34l-5.47,11.01c.79-32.75,9.37-68.18,35.35-89.91,6.78,1.14.09,15.47-.87,19.91-2.54,11.73-7.99,33.29,3.58,41.44,15.21,10.71,40.59-11.57,50.44-22.41,23.55-25.92,36.44-59.57,58.12-86.88,20.37,9.45,41,21.27,57.02,37.21Z"/>
    <path class="st11" d="M893.74,1303.75c-5.09,5.38-39.19,5.88-47.22,5.24-5.98-.47-25.17-3.75-27.07-9.93-3.47-34.92-7.8-69.93-15.93-104.07-13.1-54.97-41.65-102.77-44.55-160.45-1.73-34.3.6-70.43,3.05-104.54,4.76,3.7,10.99,1.27,14.41-3.08l4.57-7.91c-.41,5.73-.46,11.79-1,17.49-.88,9.37-8.53,42.43,4.77,45.33,1.88.41,3.42-.8,4.62-.6,1.47.24,2.46,3.01,4.31,3.57,8.86,2.68,10.71-4.25,12.78-4.47,1.76-.18,4,2.11,8.56,1.25,9.43-1.76,8.69-9.1,11.96-11.08,2.53-1.53,5.98-.45,10.02-3.98,15.66-13.66,26.11-72.31,26.96-93.04.44-10.72-1.71-22.01-1.03-32.03,1.23-17.92,18.57-38.5,24.14-55.86l1.57-1.43c26.19-3.59,52.28-11.55,74.32-26.17,7.09,31.78.71,64.51-11.22,94.26-3.16,7.88-7.68,15.31-10.94,23.06-10.88,25.82-17.34,53.28-26.12,79.88-9.2,27.88-25.12,63.92-30.26,91.74-2,10.85.5,16.05.17,25.38-.13,3.55-2,7.56-1.61,11.07.74,6.45,8.38,21.79,10.7,29.39,13.2,43.37,9.41,87.07,6.28,131.7-.51,7.21-4.2,57.09-6.25,59.26Z"/>
    <path class="st11" d="M763,864.5c-.2-2.66-.9-7.93-1.44-10.56-2.74-13.43-29.79-24.17-39.07-33.93-.68-.21-.72.95-.49,1.48.43.97,7.52,7.71,8.98,9.03,8.69,7.84,25.45,15.88,26.9,28.1,2.11,17.74.73,47.3.15,65.93-1.71,55.59-9.6,113.25,6.46,167.46,7.27,24.54,18.55,47.83,25.5,72.5-2.52,32.17-4.08,67.08-9.14,98.88-.59,3.72-.4,7.93-3.95,10.05-8.55,5.12-38.99,4.1-49.15,2.31-3.2-.56-16.47-4.08-17.77-6.47-5.29-43.83-9.01-87.88-15.14-131.61-5.81-41.42-16.49-84.66-18.9-126.1-2.49-42.71-1.1-88.35,1.03-131.05,1.82-36.46,7.12-70.92,15.01-106.49,17.3,5.82,34.64,12.28,52.99,14.01.2,13.37-.93,26.86,2.02,39.98,2.85-.57-.01-5.73-.01-6.49v-32.5l40.46,4.04,22.54-1.04c1.35,1.24-8.74,31.25-10.51,34.98-5.08,10.69-14.17,21.09-20.01,31.99-7.6,14.22-13.8,30.09-16.49,46.02-2.85-.57.01-5.73.01-6.49,0-10.9.8-23.33,0-34Z"/>
    <path class="st6" d="M557,205.01l-3,7.98c7.4.85,13.78-2.71,19.99-5.99,1,1.25-8.68,14.33,7.7,8.18,4.15-1.56,7.19-4.9,11.31-6.18,1.86,21.89,21.8,37.97,42.61,40.89,3.24.45,9-.71,11.39.61,2.89,1.6,6.4,13.13,15.11,16.89,20.25,8.75,17.13-16.03,22.41-27.38s16.76-16.42,28.38-11.41c20.9,9,24.02,54.66,9.64,69.43-5.75,5.91-8.29,4.33-15.05,3.97-5.94-.32-.58,3.61,4.03,4,6.59.56,10.34-1.62,14.47-6.53l6.51-10.47c4.29,6.17,10.94,12.24,17.99,15.02,3.15,1.24,9.46,1.75,11.1,2.9,1.32.93,7.19,10.86,9.45,13.55,10.48,12.46,26.1,23,40.97,29.54-15.63,21.72-26.76,46.47-42.19,68.3-9.3,13.16-23.93,30.31-38.46,37.54-36.9,18.36-22.24-30.57-18.35-48.85,1.79-1.66,8.42,9.98,8.01,11.99,2.57.39,2.09-.42,1.99-2.49-.64-13.53-27.44-28.25-27.93-31.13-.15-.88,7.53-12.13,6.93-15.37-2.13-.52-2.24,1.19-3.22,2.27-15.8,17.47-41.12,55.33-69.78,42.22-2.29-1.05-12.86-9.45-12.86-11,0-.62,2.42-2.07,1.86-2.49-4.17-.04-8.91.62-12.52-1.99-2.03-1.47-5.62-7.54-4.29-9.83.35-.6,8.6-6.25,10.84-8.66,4.91-5.3,13.37-16.32,10.81-23.86-1.9-5.6-14.4-.56-4.84,1.82-1.65,8.38-20.27,25.09-28.52,25.56s-16.79-10.64-18.09-18.02c-.73-4.18,9.04-5.98,8.44-12.27-.05-.56-1.62-5.53-1.83-5.75-2.46-2.49-1.94,4.36-2.2,5.29-2.85,10.45-26.78,14.5-29.56.98-1.67-8.1,2.7-12.78,4.71-19.84,9.31-32.79-12.29-40.89-18.44-69.44-1.67-7.75-3.21-45.5,1.51-50.5,1.71-1.81,7.89-2.94,9.5-6.5,1.26-.57-.87,4.81,1.98,3.98,1.86-.54,10.46-8,11.52-6.98Z"/>
    <path class="st18" d="M829,965.99c6.04-17.11,12.57-34.62,12.99-52.99-2.61-.64-2.37,1.74-2.99,3.46-4.43,12.29-11.32,52.21-21.04,58.99-1.24.86-7.23,3.29-7.96,2.53,4.23-16.19,8.83-32.26,11.68-48.81.8-4.63,3.94-14.24.33-17.18-5.02,13.96-6.31,28.95-10.3,43.21-1.63,5.85-6.81,24.59-13.26,25.78-1.95.36-5.47.31-5.47-2.45,7.47-21.79,9.93-44.83,13.01-67.54-1.8-2.13-4.32,6.23-4.52,6.97-4.36,16.09-4.8,34.56-9.99,51.01-1.91,6.05-6.55,14.57-9.83,3.85s2.66-33.56,3.33-45.35c.86-15.12-.73-30.46,2-45.49-6.11,4.67-3.86,15.75-5.44,23.05s-8.76,24.78-18.55,21.95c2.52-25.76,10.96-49.43,23.83-71.68,7.37-12.74,15.36-22.18,20.46-36.54,13.37-37.7,18.13-80.7,27.2-119.8,2.51-10.81,11.14-34.67,11.44-43.64s-10.92-42.36-13.44-54.33c-1.68-7.98-3.04-16-4.48-24.01,31.58,3.37,66.08-4.11,93.98-19l4.05,56.46c4.18,60.09-19.23,118.77-43.86,172.22-6.07,13.17-14.7,26.77-20.03,39.97-6.25,15.46-2.11,37.78-3.15,54.85-1.2,19.68-10.93,66.41-23.97,81.03-.73.82-5.33,4.2-6.01,3.48Z"/>
    <path class="st18" d="M673,769c-6.53,10.44-24.45,34.67-25.92,45.58-1.44,10.75-.19,20.08-4.05,30.95-4.45,12.54-16.64,22.58-19.98,35.02-1.76,6.56-2.45,38.45-5.16,40.33-4.46,3.11-6.15-6.09-6.65-8.65-2.32-11.88-.95-24.27-.75-36.24-5.53,3.08-7.14,10.3-8.79,16.21-2.99,10.74-3.38,27.75-7.22,36.78-2.02,4.75-5.99,5.9-7.28.29s0-32.83,1.78-38.55c.36-1.15,2.24-1.2,2.99-2.19,7.07-9.34,8.11-22.01,16.53-29.51,2.96-2.64,7.38-4.69,10.49-7.51,6.69-6.09,12.66-16.26,11.98-25.51-3.36,2.08-3.4,6.97-5.11,10.38-5.34,10.59-12.35,12.84-20.35,19.65-9.31,7.92-8.29,17.54-14.7,26.29-2.54,3.47-8.57,9.11-11.29,2.66-2.35-5.55,3.83-27.45,5.55-34.4.32-1.3,7.33-20.83.9-16.1-2.81,2.06-7.09,26.52-8.48,31.52-2.82,10.15-6.79,16.84-8.36,28.63-.73,5.49.14,33.8-8.5,31.31-3.65-4.14-4.31-12.79-4.67-18.4-2.14-33.37,10.62-60.16,29.65-86.43,8.12-11.21,18.73-20.68,24.56-33.44,6.29-13.75,11.8-31.62,16.85-46.15,8.73-25.15,15.54-50.99,25.98-75.52.26-.34.74-.61,1-1,9.34-18.57,16.5-37.16,19-58,.06-.41.8-1.44,1-3-.46-3.17-1.09-7.77,1-10,2.96,1.96,8.24,12.02,9.86,15.64,13.59,30.46,9.12,67.49,5,99.71-1.38,10.8-3.86,34.9-6.93,44.07-1.07,3.2-7.6,11.84-9.93,15.57Z"/>
    <path class="st5" d="M886.99,1311c-1.17,15.38-.37,31.23,4.5,46.09-16.29,25.72-57.47,53.05-88.72,49.63-7.68-.84-19.72-4.59-19.33-13.72,17.58-13.71,39.79-30.7,42.54-54.52,1.1-9.49-.68-19.89.02-29.49,19.36,7.35,40.91,5.32,60.98,2Z"/>
    <path class="st21" d="M773,1280.01c-4.06,15.45-2.31,32.8,3.72,47.5-9.77,11.67-25,17.62-38.95,22.76-27.04,9.96-60.67,19.46-87.76,5.72l21.66-10.82c14.21-9.08,32.27-17.32,39.18-33.82,4.51-10.76,5.09-22.9,3.15-34.35,19.31,5.72,39.16,6.34,58.99,3.01Z"/>
    <path class="st4" d="M890,778.99c13.35-29.87,26.74-61.92,34.72-93.77,5.58-22.26,5.42-36.28,6.28-58.73.05-1.21-.75-3.72.99-3.48l36.82,122.28c-19.68,20.97-51.22,29.07-78.81,33.71Z"/>
    <path class="st12" d="M673,607c-3.42,22.83-6.05,38.16-19,58-1.79-.97.7-5.02,1.29-6.21,8.97-18.18,15.58-30.97,16.57-52.45l1.14.66Z"/>
    <path class="st12" d="M675,594c-.63,3.25-.59,6.84-1,10-2.17-2.71-.53-7.54-.99-11,.13-.18,1.54.7,1.99,1Z"/>
    <path class="st2" d="M299.21,926.2c-3.78,6.51,7.53,18.26,13.8,20.29,8.17,2.64,13.96-1.96,12.88,8.9-2.18,21.81-35.86,38.2-55.89,35.61-1.14,1.16,4.16,14.54,5,16.99-22.2-5.53-45.44-8.88-67.99-2.99,1.95-9.5-6.84-6.26-12.49-7.01-64.84-8.59-101.49-76.44-66.93-133.9,29.31-48.74,123.73-83.6,159.22-24.39,4.28,7.15,12.77,30.71,18.48,33.52,8.21,4.03,18.72-3.34,23.48,6.52,3.97,8.23-2.02,13.38-1.56,16.59.57,3.98,8.1,5.37,3.66,14.05-4.71,9.19-29.87,12.75-31.66,15.83Z"/>
    <path class="st1" d="M324,1023.01c-7.61,23.62-15.07,47.3-19.1,71.89-21.21.71-42.41-1.6-62.89-6.89-1.48,6.33,14.79,5.82,15.99,8.5l-4.99,3.49,9-2.98-3,3.98c3.14-.18,4.07-3.74,7.55-3.95,4.85-.3,14.35,2.6,19.96,2.95,8.62.54,19.65,2.12,24.48-5.99-1.39,24.88-3.77,49.67-8.3,74.18-2.07,11.21-4.67,25.09-8.19,35.81-3.6,10.95-7.01,10.85-17.68,13.32-40.41,9.36-98.75-1.89-134.13-23.51-7.66-4.68-13.38-7.07-10.16-16.78,5.16-15.54,18.9-34.91,25.93-51.06,14.13-32.43,18.86-71.49,34-102,5.02-10.11,7.27-15.21,19.15-16.85,32.09-4.43,57.93,4.6,88.37,11.39,7.94,1.77,16,3.14,24.01,4.5Z"/>
    <path class="st13" d="M257,1260.5c.15-1.51,1.22-6.96,1.75-8.25,1.47-3.58,6.94-6.13,8.2-11.81.2-.91.73-3.74-.94-3.43-2.73,6.39-10.3,9.19-11.79,16.72-3.53,17.83-.43,41.3-2.17,59.83-.5,4.77-9.02,6.7-13.23,7.77-21.36,5.42-54.57,5.51-75.6-1.04-17.17-5.35-11.32-12.38-14.52-27.48-3.69-17.39-15.97-30.47-20.41-47.59-4.31-16.6-2.98-37.54,4.21-53.19,42.37,30.15,102,40.3,152.5,27.99-2.06,12.72,15.82,47.36,12.8,57.28-1.87,6.13-20.46,13.99-26.58,15.43-4.47,1.05-9.44.7-13.74,2.25-2.45-1.53-.48-2.1-.48-2.47,0-9.96-.95-22.41,0-32Z"/>
    <path class="st26" d="M471,984c11.63,1.05,25.48-17.71,36.35-15.05,4.65,1.14-2.98,10.73-5.41,12.49-2.66,1.93-17.75,6.93-11.52,11.64s30.05-9.59,38.49-3.99c.5,11.14-15.6,11.11-23.59,14.73-17.4,7.89,4.06,10.39,12.22,10.22,3.33-.07,12.83-3.11,14.34,1.62,2.03,6.33-16,8.21-20.43,8.36-3.23.11-6.66-1.34-8.91-1.05-2.45.32-5.62,4.17-3.55,6.49,4.38,4.91,20.01,7.23,20.09,14.03.09,7.68-16.16,1.08-20.7.61-8.72-.89-13.88,2.46-22.03,3.76-5.55.88-12.69.37-17.64,1.36-7.68,1.54-31.05,16.07-40.76,20.24-34.63,14.9-61.59,19.12-99.51,17.58-2.71-.11-4.88-1.64-7.45-.05,3.12-20.8,9.9-40.87,16.93-60.57,9.38,1.71,18.83,3.15,28.43,2.44,15.13-1.11,69.89-11.5,82.62-17.38,9.03-4.17,7.62-8.23,12.18-14.82,6.77-9.78,16-16.78,13.82-30.68,11.3-3.2,4.78,16.79,6,18.01Z"/>
    <path class="st14" d="M242.99,1325l-32.79,85.36c4.98,9.29,43.83,26.27,45.66,33.34.38,1.49-1.71,6.22-2.85,4.75-2.94-3.81-4.56-5.91-10.01-6.45l2,2.98c-1.05-.04-2.03-.45-3.1-.38-1.34.08-5.76-.19-5.89,1.38,7.9-1.29,19.98,1.33,10.49,10.01-.99-4.61-10.39-11.84-13.49-7.01,9.94.15,14.27,10.63,2.01,12.02.62-7.38-6.52-10.71-13.01-10,1.1,2.44,3.9,1.69,6.08,3.41,3.8,2.98,3.36,7.61-1.61,8.56-12.54,2.39-59.88-8.72-70.41-16.54-1.85-1.37-4.34-3.84-4.86-6.15-2.61-11.57,6.55-28.81,8.52-41.06,1.45-9.05,1.13-18.47,2.42-27.58,2.18-15.43,7.63-28.8,11.93-43.57,22.98,2.7,46.46,3.15,68.92-3.07Z"/>
    <path class="st10" d="M446,922.99c7.85.24,13.29-6.49,20.95-8.53,7.22-1.93,16.49-.35,8.07,7.06-4.61,4.06-15.55,7.46-18.75,10.73-2.18,2.23-.82,5.36,2.29,5.76,6.08.79,22.57-6.36,27.51-.58,2.79,3.27-4.17,5.65-6.4,6.73-6.52,3.16-14.4,5.52-21.67,5.83.86,6.36,10.53,3.58,15.48,4.01s12.92,1.8,5.47,6.44c-6.02,3.75-12.13-.03-16.34.78-.75.14-8.29,6.86-10.73,8.16-6.93,3.7-16.1,4.48-22.6,8.4-7.21,4.35-18.43,17.39-26.39,23.61-8.61,6.72-19.41,14.52-29.64,18.36-15.29,5.76-34.41,4.24-49.82-.7l-5.44-30.06c8.75-.26,16.44-3.6,24.03-7.48,20.85-10.68,41.94-24.95,62.52-36.48,5.59-5.46,9.67-25.45,10.44-33.56.4-4.18-2.02-18.89,6.1-12.07,4.58,3.85,3.3,12.88,4.15,17.85,1.32,7.66,6.69,11.11,5.66,21.13-.35,3.39-3.66,7.9-.39,10.58,3.78-5.5,5.73-15.33,3.83-21.81-.74-2.52-5.47-7.84-4.19-10.01.14-.24,2.06-.82,2.87-1.6,5.12-4.93,12.2-13.78,17.49-17.55,2.1-1.5,6.36-3.73,6.47.42.14,5.33-13.66,21.93-10.97,24.57Z"/>
    <path class="st6" d="M331.65,1399.35c3.8,3.9,1.9,6.31.33,10.65-1.72-.46-1.65-2.69-3.46-4.02-6.14-4.52-16.98.73-14.52,3.03.66.61,9.1-6.46,12.54,0,3.1,5.82-13.47,7.77-17.06,7.99-8.88.54-17.35-1.7-25.95-2.03-13.92-.53-25.39,2.77-39.51-1.49-17.32-5.22-7.21-13.15-6.02-23.97,1.34-12.29-1.76-28.06.06-39.94.29-1.91,8.54-24.07,9.49-25.51,1.79-2.73,7.25-3.34,8.24-6.76.91-3.13-.46-17.67.2-18.3,14.55-.3,27.9-5.22,40-13,1.41,7.39.65,14.98,0,22.49-1.64,19.24-7.34,39.54-8.86,58.13-.81,9.83.19,10.64,8.2,15.54,8.61,5.26,31.18,11.9,36.32,17.18Z"/>
    <path class="st15" d="M460.99,969c.52,11.77-7.97,18.87-14.43,27.06-1.33,1.68-1.8,4.12-3.13,5.87-4.29,5.69-11.72,7.04-18.23,8.77-13.81,3.67-28.28,5.15-42.2,8.28l19.91-12.58c9.56-4.72,20.15-20.51,27.94-25.06,5.6-3.26,13.7-3.86,20.13-6.87,1.65-.77,9.15-6.45,10.01-5.48Z"/>
    <path class="st25" d="M311.99,985c3.02,10.89,6.47,21.56,7,33-6.57-2.45-34.64-5.46-38.49-9-1.24-1.15-6.18-14.14-5.5-14.99,13.11,2.26,25.57-2.7,36.98-9Z"/>
    <path class="st0" d="M586.99,891c-5.14,12.19-3.25,26.45-5.23,39.26-.86,5.55-6.24,10.24-8.31,3.79-2.69-8.37-1.84-37.67.8-46.3.25-.81,1.19-2.13,1.74-1.75,1.15,4.81,6.58,7.57,11,5Z"/>
    <path class="st19" d="M591,269.99c-13.12-1.63-21.32-6.99-34.99-1.48-4.29,1.73-6.7,5.28-11.01,6.48,2.16-23.86,34.2-19.1,45.99-5.01Z"/>
    <path class="st9" d="M695.01,261c8.2-3.27,13.33,5.39,13.99,12.5.33,3.56.47,12.05-4,10.51-.29-5.32,1.08-12.77-2.12-17.38-3.52-5.07-7.91,1.16-10.95-1.05-4.08-2.96,2.83-21.39,6.7-24.45s15.87-3.53,17.23,1.52-2.74,1.78-4.17,1.16c-12.2-5.31-15.71,7.38-16.69,17.18Z"/>
    <path class="st8" d="M211.99,923.02c.09.12.08,1.88,0,1.98-.38.46-8.7-2.85-11.6-2.89-8.15-.1-20.87,5.06-22.96,13.82-7.03,29.42,31.38,53.13,50.56,26.07-7.29,24.96-40.22,17.22-51.2-1.29-11.6-19.55.02-46.63,24.47-42.47,1.41.24,10.31,4.23,10.73,4.78Z"/>
    <path class="st16" d="M264,829.99c-15.91,2.73-19.37,13.24-19.49,28.01-5.05-5.91-4.33-17.65.06-23.93,3.56-5.08,15.37-11.07,19.43-4.08Z"/>
    <path class="st24" d="M214,952.01c2.48,2.11-3.65,2.92-6.02.51-2.74-2.78.5-7.66-.43-9.52-2.06-4.13-11.76-5.22-15.53-2.48-1.43,1.04-7.25,13.95-5.81,3.21s13.08-11.8,21.06-7.5c10.29,5.54,2.23,8.45,2.67,13.26.3,3.24,3.5,2.04,4.06,2.52Z"/>
    <g>
      <path class="st23" d="M265.32,881.54c-.52-.85-1.08-1.2-1.58-2.49-3.54-8.97,2.41-25.98,14.09-21.25,9.18,3.72,16.99,16.68,10.69,25.91-9.23,8.31-18.91-8.25-20.68-16.43-1.63,3.92-2,8.25-1.17,12.42l-1.34,1.83Z"/>
      <path class="st7" d="M288.51,883.72c-6.47,9.48-17.62,6.82-23.19-2.18-2-7.39-.33-15.77,5.1-21.21-1.86,6.93.18,12.24,4.39,17.82,3.2,4.25,8.34,8.96,13.7,5.58Z"/>
    </g>
    <g>
      <path class="st23" d="M589.28,290c-.75-.76-.98-1.42-2.19-2.28-8.44-5.98-27.65-4.21-25.68,9.09,1.55,10.45,13.06,21.87,24.27,17.74,10.99-7.4-3.8-21.69-11.86-25.62,4.5-.68,9.1.06,13.22,2l2.25-.92Z"/>
      <path class="st7" d="M585.67,314.54c11.51-4.24,11.57-16.46,3.61-24.55-7.18-3.97-16.33-4.41-23.37-.19,7.68-.14,12.7,3.35,17.43,9.13,3.61,4.41,7.21,10.93,2.33,15.61Z"/>
    </g>
  </g>
  <g>
    <path class="st23" d="M265.78,882.29c-.48-.83-1-1.2-1.45-2.45-3.12-8.78,3.25-24.98,14.4-20.02,8.76,3.9,15.88,16.67,9.45,25.37-9.24,7.7-18.04-8.6-19.46-16.55-1.72,3.73-2.22,7.89-1.57,11.94l-1.37,1.72Z"/>
    <path class="st7" d="M288.18,885.18c-6.6,8.93-17.32,5.99-22.4-2.89-1.68-7.2.23-15.22,5.69-20.29-2.05,6.62-.25,11.82,3.63,17.34,2.96,4.21,7.77,8.93,13.08,5.84Z"/>
  </g>
</svg>