<?xml version="1.0" encoding="UTF-8"?>
<svg id="Layer_1" xmlns="http://www.w3.org/2000/svg" version="1.1" viewBox="0 0 1024 1536">
  <!-- Generator: Adobe Illustrator 29.7.1, SVG Export Plug-In . SVG Version: 2.1.1 Build 8)  -->
  <defs>
    <style>
      .st0 {
        fill: #8f5327;
      }

      .st1 {
        fill: #c1411c;
      }

      .st2 {
        fill: #312614;
      }

      .st3 {
        fill: #191004;
      }

      .st4 {
        fill: #f3e7d9;
      }

      .st5 {
        fill: #915427;
      }

      .st6 {
        fill: #fcf7ef;
      }

      .st7 {
        fill: #f3e8da;
      }

      .st8 {
        fill: #c0411d;
      }

      .st9 {
        fill: #dfb68f;
      }

      .st10 {
        fill: #668894;
      }

      .st11 {
        fill: #322615;
      }

      .st12 {
        fill: #3a5661;
      }

      .st13 {
        fill: #e0b891;
      }

      .st14 {
        fill: #150e03;
      }

      .st15 {
        fill: #bf411c;
      }

      .st16 {
        fill: #302614;
      }

      .st17 {
        fill: #fefefe;
      }

      .st18 {
        fill: #e0b992;
      }

      .st19 {
        fill: #c0411c;
      }

      .st20 {
        fill: #905427;
      }
    </style>
  </defs>
  <path d="M917.47,939.03c-1.72-4.22-7.48-11.6-5.35-15.37,4.02-7.13,7.13-4.36,5.43-15.71-2.13-14.31-8.99-33.44-13.28-47.71-18.59-61.81-44.8-152.27-87.75-200.25-27.2-30.38-60.19-47.73-99.52-58,1.67-1.75.49-7.15,1.12-7.89.31-.37,7.29-2.43,9.1-3.39,31.14-16.63,45.6-56.83,32.27-89.69-1.02-2.51-5.1-8.28-5.24-9.66-.3-2.76,4.39-21.06,4.76-26.87,7.47-118.34-71.64-200.49-191.47-187.47-102.98,11.19-197.77,117.95-183.38,223.35,3.9,28.55,14.54,45.1,23.63,70.37,8.56,23.81,3.13,49.55,10.52,73.48,5.48,17.73,20.47,32.1,34.29,43.76l.37,1.4c-21.68,27.71-41.27,57.18-60.75,86.38-1.24,6.44,3.98,7.31,3.81,7.74-.25.63-7.33,9.21-8.48,10.52-9.67,10.99-22.22,18.31-33.04,27.96-23.86,21.29-43.13,47.7-65.48,70.52-35.81,4.65-79.92,18.12-93.76,55.24-1.11,2.97-1.77,9.68-2.74,11.26-.4.65-10.74,6.33-12.96,8.04-11.89,9.09-25.56,26.1-32.69,39.31-3.57,6.62-6.4,17.18-10.4,22.6-4.54,6.16-15.9,11.38-21.94,18.06-13.79,15.24-23.25,54.19-13.67,72.69,4.46,8.62,15.45,10.34,16.73,12.27.52.79,1.11,9.6,1.75,12.25,6.19,25.76,26.13,43.53,53.7,39.8l1.52,1.77c15.81-4.03,31.38-14.29,34.4-30.9,23.44,5.24,47.1,9.62,70.97,13.15.66,20.99,14.14,40.49,32.95,49.3l2.16-1.32c2.71,1.53,5.21,2.19,7.5,2,4.11,1.33,11.45,1.88,15,0,2.49.77,7.65-.47,9.5-2,1.6.21,3.35-.28,5.26-1.47,1.47,1.78,2.43.61,1.74-1.53.58.35,1.16.62,1.74.62,8.35-.02,24.08-21.61,24.82-30.16,16.73-.22,33.38-2.63,49.96-7.22,11.21,6.05,23.03,8.43,35.54,4.14,5.28-1.81,14.25-5.71,14.95-11.39,4.86-4.41,7.39-11.08,10.3-13.69,4.73-4.25,12.27-4.01,17.7-11.31.86.22,1.73.22,2.55-.14,1.53-.68,3.54-8.35,3.73-10.42,17.03,1.93,40.02,4.05,53-8.92,1.31,2.31,2.9,4.5,5.21,5.94-4.57,5.68-6.4,11.19-5.48,16.55-.07,7.94-.62,14.9,1.96,22.54,1.95,5.78,6.18,9.73,8.24,14.76,4.42,10.79,3.19,17.77,11.82,28.18,11.88,14.32,24.07,12.56,40.98,9.52,2.97,1.62,6.27-.6,6-4l6-5c1.05.17,1.43-.13,1-1,7.19-5.88,12.93-13.28,18-21,3.15.76,5.33-2.11,4-5l5.98-10.11c19.9-.16,39.57-1.79,59.02-4.89l3.15.84c35.18-4.54,69.39-18.36,100.22-34.09,21.22-1.95,37.3-12.11,53.57-25.59l1.05-3.17c20.76-22.19,36.73-49.99,40.86-80.64,3.88-28.86-1.41-62.44-12.39-89.32ZM529.82,899.33c-.58,2.17-2.63,3.59-4.82,3.67-28.7,1.02-59.6-.53-86.18,12.22-11.81,5.66-23.4,13.66-30.35,25.02-6.93,11.32-7.09,25.47-13.16,37.29-1.24,2.41-4.6,3.1-6.84,1.79-10.62-6.19-14.54-19.87-26.81-23.5-2.9-.86-4.87-4.61-2.99-7.35,7.18-10.42,18.02-17.65,28.95-23.69,3.17-1.75,6.43-3.38,9.72-4.94,11.36-8.41,23.76-15.44,35.89-22.68,11.92-7.11,24.04-14.61,34.13-24.19.9-1.04,1.8-2.07,2.7-3.06,2.67-2.92,5.52-5.83,7.91-9.02.57-.8,1.14-1.6,1.69-2.42,1.8-2.73,4.93-2.78,7.08-1.44,1.43-.62,2.93-1.03,4.49-1.17-.33-1.43-.04-3.02,1.21-4.41,4.27-4.74,9.9-10.87,16.64-11.95,1.12-.41,2.38-.41,3.51-.07,4.92.67,8.43,4.58,10.5,9.07,3.53,7.63,4.76,16.5,6.21,24.72,1.52,8.56,2.75,17.55.48,26.09Z"/>
  <path class="st4" d="M389,1224c-17.26,2.38-37.48,6.02-53.65.32-1.88-.66-7.68-.12-9.89-.53-68.06-12.51-132.87-24.71-199.51-43.23-8.93-2.48-17.35-5.83-25.72-9.37-5.27-2.23-11.46-1.89-13.78-9.13s.49-5.08,3.29-6.33c.69-.31,4.19-4.38,7.07-5.45.64-.24,9.54-2.72,10.06-2.79,2.29-.29,3.72,1.42,4.68,1.51.45.04.32-1.98,1.08-2.08.98-.13,2.66,1.26,3.41.67,1.33-1.03.08-3.77,1.94-3.58,5.27,25.72,28.11,46.75,55.49,40.96l-.48-.96c6.47-.88,18.11-6.79,23.19-11.08,6.17-5.2,8.87-12.63,12.25-19.65,23.95,5.51,48.84,8.05,72.59,13.43,1.82,14.59,7.36,29.24,18.5,39.27,3.5,3.15,11.17,8.7,15.47,10.03,5.68,2.94,12.07,3.16,18.32,3.02l.68.98c5.77,1.21,9.54.75,14.43-2.19.04-.02-.16-.37-.43-.81-.94.05-1.32,0-1-1,.66-.2,5.99-2.52,7-3,2.84.07,5.1.72,6.79,1.94l4.37-1.33c3.02-5.81,7.64-4.95,9.34,1.07,2.83.58,4.88,1.16,5.59,4.31,11.76-2.16,14.72-.49,8.91,5.01Z"/>
  <path class="st7" d="M889,1109c.34-.23,1.54-.35,2.51-.95,2.13-1.32,3.11-5.1,6.82-3.99,6.84,2.54,15.7,4.06,22.17,6.91,9.9,4.37,14.68,11.67,4.85,19.88-2.23,1.86-6.44,2.98-7.72,4.08-1.01.86-.18,2.53-1.28,3.11-17.55,9.26-56.57,18.33-76.9,23.38-42.37,10.52-86.3,17.09-129.7,23.24-2.84.4-6.75-.44-8.79-.02-2.63.54-4.41,6.26-6.94,7.78-10.12,6.07-21.18,13.41-31.25,20.58-2.41,1.72-4.83,2.79-6.36,3.93-.97.72-1.17,2.65-1.54,2.9-.28.18-1.81-.8-2.86-.39-2.95,1.17-6.77,4.19-9.96,5.09-7.74,2.19-17.07,1.65-25.03,1.46l9.05-1.43c2.16-.15,3.44-1.69,4.94-2.56,2.05-1.18,4.05-2.64,6-4l6-5c.32-.35.68-.66,1-1,7.19-5.85,12.92-13.29,18-21,1.23-1.53,2.67-3.3,4-5l6.45-10.37c19.42-.34,38.83-1.35,58.08-3.92,2.94,1.07,3.1.83.47-.71,27.34-4.21,54.23-13.26,79.68-23.82,7.15-2.97,17.87-9.85,24.29-11.71,5.69-1.64,12.02-1.46,18.31-3.69,14.26-5.07,23.79-14.64,35.73-22.77Z"/>
  <path class="st4" d="M481,1169c2.74,2.89,5.11-4.57,6.46-4.77.4-.06,6.81,1.74,7.75,2.07,3.38,1.17,14.67,6.23,17.46,8.07,9.41,6.2,1.4,15.42-5.76,19.04-16.74,8.47-46.48,18.48-63.54,20.51-5.34.64-3,1.2-5.28,1.66-15.85,3.23-32.65,6.16-49.08,8.43,2.62-7.64-1.51-3.76-3.94-3.41-10.27,1.47-5.52-1.36-7.98-3.14-1.65-1.19-10.47.49-4.08-2.94-5.4-6.53-3.52-1.14-7.04.95-.85.51-4.59,1.52-5.59,1.56-1.9.08-1.16-1.91-1.8-1.87-2.63.16-3.42,2.46-4.56-2.14,13.17-6.31,20.62-17.8,25.66-31.05,6.6.34,13.18-.2,19.7-1.1,8.66-1.19,24.36-6.55,31.34-6.59,1.74-.01,7.79,3.83,10.87,4.67,14.82,4.09,28.15.3,39.44-9.94Z"/>
  <path class="st4" d="M509,1144c2.93-3.94,4.5-8,4-13,14.3,2.8,40.63,3.6,52.56-5.97,1.21-.97,1.45-4.53,3.42-3.02,1.07.82,3.45,7.73,8.02,7.01.94,2.45-1.27,1.64-1.99,2.7-2.89,4.22-5.68,9.61-6.02,14.77-.19.49-.51.56-.98.51-.16-.02-.53-.88-.98-1.02.72,3.56-1.53,3.46-4.57,3.79-10.85,1.17-32.21-.55-43.94-1.33-4.64-.31-7.79.56-9.5-4.43Z"/>
  <path class="st0" d="M748.99,486c-11.55-10.85-26.25-15.76-41.35-8.86-15.09,6.9-20.42,20.57-27.63,34.37-.17.55,3.35,1.67,4.32,1.4,1.85-.53,9.34-15.41,11.69-18.38,20.55-26.06,53.17-11.43,59.51,17.44,7.03,32.03-10.9,69.48-44.29,76.78-2.14,1.18-14.29.44-14.78,1.21-4.6,7.3,10.61,7.4,14.53,6.04,2.32,2.26-9.76,30.22-11.83,34.66-14.5,31.14-36.73,72.06-64.27,92.73-23.15,17.38-63.14,35.8-79.9.61,27.06.56,53.51-10.21,75.92-24.59,19.11-12.27,42.62-30.44,48.07-53.41l-5.01,7.47c-33.04,37.4-82.5,69.29-134.46,63.51-46.2-5.14-108.61-37.42-116.97-87.44-4.38-26.24-.45-41.91-11.06-68.54-20.18-50.66-31.22-84.66-11.23-139.26,38.55-105.32,155.85-169.2,263.44-123.95,73.1,30.74,97.9,114.81,85.29,188.2Z"/>
  <path class="st10" d="M763,970.99c17.72-32.42,32.88-66.42,40.04-102.95,7.88-.03,15.75-.36,19.01-8.5,7.38-18.42,17.76-80.8,15.96-100.06-.29-3.13-.72-5.72-4.38-4.38-2.84,1.04-2.26,16.15-2.63,19.38-2.75,24.13-7.45,52.63-14.07,75.93-1.33,4.69-1.75,10-7.92,9.57,1.69-8.21-4.6-12.07-10.7-15.8-31.42-19.22-76.35-24.55-112.3-19.2,6.92-32.87,10.45-66.39,18.46-99.03.64-2.6,5.84-15.72,4.53-16.96-3.7-3.5-8.04,8.87-9.02,11.47-8.16,21.81-10.28,44.96-14.29,67.71-1.33,7.55-8.85,35.93-7.27,40.86,1.17,3.66,5.17,4.24,8.59,3.96-2.57,12.1-3.31,25.67-7.06,37.44-8.17,25.62-26.84,54.59-36.98,82.02-.75,2.03-1.65,8.93-3.4,9.24-25.23-2.62-47.56-9.56-69.24-22.54-21.51-12.88-23.29-15.87-30.04-39.96-4.17-14.88-6.56-30.16-11.02-44.98-8.63-28.66-20.04-54.42-26.8-84.2-1.09-4.79-2.97-23.37-6.43-25.57-1.03-.65-1.91-.52-3.03-.46-.16,16.56,3.06,33.09,7.5,48.99,1.53,5.48,9.58,25.12,9.42,28.54-.18,4.04-15.88,20.59-19.43,24.47-13.95-38.66-50.17-64.89-90.49-70.49l59.49-82.41c25.21,18.55,57.03,29.73,88.35,31.07,23.79,54.66,89.82,13.95,115.13-17.69,12.41-15.51,24.35-36.74,33.55-54.45,7.03-13.54,14.8-28.37,18.48-43.02,18.41,5.47,37.2,12.16,54.02,21.48,61.67,34.18,85.72,104.8,107.43,167.57,10.81,31.24,21.92,64.8,30.26,96.74.9,3.44,4.5,15.25,4.26,17.68-1.07,11.07-41.59,29.39-51.73,33.29-30.54,11.74-64.11,19.35-96.25,25.24Z"/>
  <path class="st1" d="M281,1158l-84.95-14.05c1.73-25.28-7.86-61-37-65.5-24.48-3.78-39.92,24.47-41.06,45.55-4.59-.14-10.8-4.86-12.23-9.27-3.43-10.62-.07-34.17,3.51-44.95,5.76-17.33,14.65-20.31,27.2-30.8,8.91-7.45,11.69-19.51,17.35-29.65,6.74-12.08,29.25-41.23,43.1-43.86,1.82-.34,3.84,1.79,5.8,2.32s4.83-.29,6.09.41c.38.21,1.69,3.56,2.8,4.7,6.16,6.3,16.24,1.36,17.31,2.16.21.16.69,2.78,1.62,3.89,5.73,6.82,13.02,6.46,20.84,2.92,1.75-.79,6.71-4.72,7.14-4.72.83,0,4.19,5.98,12.75,4.61,13.72-2.2,23.96-18.66,34.24-25.77,5.18-3.58,19.24-.78,25.68.32,36.08,6.13,56.64,26.92,76.23,56.77,2.83,4.31,4.65,10.07,7.77,14.23,7.6,10.14,24.8,13.62,36.18,18.82,34.43,15.73,53.52,29.55,55.68,70.32.81,15.37.56,23.33-13.81,30.28-25.32,12.24-77.83,26.35-105.75,28.25-6.54.45-16.06,1.39-19.22-5.75s-3.84-20.65-7.24-29.76c-7.14-19.13-22.63-35.52-44.56-33.52-23.29,2.13-36.5,31.14-35.46,52.04Z"/>
  <path class="st5" d="M644.65,1129.65c-1.63,1.63-6.13,5.44-8.15,5.45-8.85.05-4.02-13.86-2.54-18.63,1.95-6.24,8.8-18.16,7.99-23.88-.77-5.44-3.42-5.75-6.94-2.06-9.69,10.16-17.54,28.4-26.97,38.01-5.99,6.11-15.1,2.46-15.84-5.27-.79-8.32,30.04-43.33,27.8-46.25-.47-.61-5.43-1.67-6.02.47-8.68,13.1-19.4,25.17-27.18,38.82-.86,1.52-.59,3.65-1.74,5.25-2.82,3.91-8.19,1.67-10.28-1.83-8.92-14.88,16.13-41.52,21.21-55.11l-.99-3.61-4.03,2.66c-3.19,6.16-7.99,11.27-11.77,17.02-2.55,3.88-10.83,20.32-13.45,21.59-7.88,3.84-8.3-7.17-7.5-12.54,3.36-22.46,32.85-50.07,51.44-61.56,3.73-2.31,9.82-4.1,13.26-6.74,4.62-3.52,13.18-26.43,15.8-33.2,6.29-16.23,10.68-33.12,16.77-49.23,11.36-30.05,28.93-54.55,35.17-86.83.59-3.07,2.19-18.46,2.74-19.26s5.74-1.64,7.2-1.8c33.01-3.67,72.58,5.15,100.34,23.45-8.4,25.13-14.27,51.4-25.11,75.78-14.5,32.61-44.79,79.82-69.45,105.55-2.49,2.6-9.52,5.84-10.7,8.36s.46,7.01.19,10.05c-.8,9.06-4.67,20.77-9.64,28.43-6.91,10.64-16.83,13.94-24.76,23.24-5.93,6.95-10.61,17.45-16.84,23.66Z"/>
  <path class="st20" d="M846.42,1119.42c-9.58,7.59-25.7,15.38-37.06,20.43-42.25,18.79-88.96,28.71-135.36,27.13,2.88-6.98,4.81-14.9,5.07-22.49.12-3.65.39-13.77-5.07-12.5,1.55,28.7-15.13,57.8-36.48,76.02-5.47,4.67-16.27,14.24-20.59,3.55-3.9-9.65,2.59-4.98,6.54-4.54,5.92.66,11-1.85,14.52-6.54,2.16-2.89,5.49-9.72.02-10.49-4.47,14.36-17.47,13.63-23,.49,2.62-1.35,5.5.58,8.35.45,9-.4,17.75-11.14,15.14-19.98-.28-.95-.33-2.62-1.98-1.95-3.3,1.33-2.72,11.38-9.53,14.52-8.63,3.98-12.64-4.36-14.93-11.08-.51-1.5-.55-1.23.94-1.04,6.75.85,13.26-.52,17.44-6.47,2-2.84,4.78-12.91.08-11.92-3.31.69-7.24,18.79-18.74,9.01-14.13-12.01,6.99-37.72,15.22-48.01-2.8,8.69-6.5,22.42,4.11,27.39,8.41,3.93,15.16-2.39,20.31-8.47,6.09-7.19,11.48-20.19,17.05-25.95,4.3-4.45,12.86-8.38,17.57-13.43,7.21-7.73,13.53-22.71,14.86-33.14,1.1-8.68-3.04-13.13,6.86-18.14l46.21-16.79,1.03-2.46-4.13-.42-21.86,4.92c29.01-38.8,93.34-43.72,122.81-2.82,19.97,27.72,23.38,71.94-5.39,94.74Z"/>
  <path class="st20" d="M448.59,802.41c6.81,5.17,15.64,13.84,20.83,20.67,2.34,3.08,13.86,20.28,11.58,22.91-.29.34-2.71-1.29-3.54-.11-29.85,42.34-73.18,69.63-119.95,90.13-.7-4.27-.74-8.3-2.68-12.34-.99-2.07-5.45-8.02-7.83-5.66-.87.86,4.17,15.76,4.04,19.47-.16,4.66-3.83,10.03-5.15,14.46l-25.92-4.41c-2.07-1.99-.45-1.1.26-1.77,2.28-2.15,5.64-3.52,4.02-7.47-.47-1.13.12-1.66-1.61-1.16-2.81.82-16.49,10.11-19.56,12.46-7.17,5.48-23.61,23.12-31.65,24.35-6.01.92-8.68-.2-8.51-6.44.27-10.54,11.31-20.77,18.56-27.54,2.51-2.35,13.94-10.35,14.39-11.13.34-.59-1.14-3.4.13-4.81-2.92-1.94-16.39,9.19-19.01,11.48-10.26,8.95-18.67,18.27-20.85,32.15-.17,1.08.8,2.61.36,3.41-1.44,2.59-10.82,6.43-14,6.45-12.83.08-7.87-14.74-4.67-22.17,4.2-9.75,11.54-17.77,18.2-25.85.79-.96,2.42-1.24,3.03-2.18,1.8-2.76.76-6.04-2.07-4.82-1.38.59-8.47,7.36-10.01,8.99-5.46,5.77-13.17,16.53-16.15,23.85-2.83,6.93-1.34,17.7-12.11,14.47-9.18-2.75.02-20.34,2.92-25.67,5.16-9.49,10.83-12.6,16.41-19.86.54-.71,2.84-5.1.48-5.24-1.5-.09-10.03,5.99-11.53,7.45-6.26,6.1-16.74,23.52-19.23,31.82-.45,1.51.39,3.57.24,3.69-1.03.86-7.02-2.4-8.96-2.03,5.2-30.75,34.41-48.84,62.76-55.67,8.49-2.05,22.12-4.74,30.58-4.17,5.87.4,22.44,5.68,26.37,2.64.49-.38,1.14-2.09.81-2.79-2.15-4.59-17.21-4.33-21.55-6.47l56.47-61.53c16.77-15.45,37.63-26.68,48.52-47.54,16.5.99,32.56,8.09,45.6,17.98Z"/>
  <path class="st5" d="M509.41,938.59c7.61,7.08,15.41,15.75,19.58,25.41-3.86-3.18-30.59-16.52-32.99-12.99-.63,3.28,2.59,5.09,5.1,6.39,22.26,11.53,31.33,16.1,47.88,36.12,9.9,11.97,21.72,33.49,33.51,42.52,1.5,1.15,5.4.62,2.87,3.04-3.12,2.98-6.71,5.49-9.87,8.91-7.02,7.58-14.82,16.45-19.17,25.83-4.4,9.49-10.14,24.97-.83,33.21,3.78,3.34,10.06,2.66,10.47,3.03.29.27,1.22,7.56.95,7.86-4.02.88-6.3,3.69-10.36,5.14-13.51,4.81-28.55,2.97-42.56,1.96,0-13.72-1.48-27.57-5.94-40.58-.14-.83,2.53.2,1.94-1.42-2.28.67-4.23-1.03-3.79-3.36.69-3.7,18.35-9.8,13.34-17.67-2.14-3.36-3.29,1.64-4.71,3.35-1.99,2.4-9.22,9.29-12.23,8.59-.9-.21-7.43-10.89-10.08-11.94l-10.51-8.45c8.42-11.02,21.68-17.38,35.5-18.51,8.12-.66,27.19,1.69,33.23-.77.75-.31,2.66-1.69,2.25-2.23-25.26-9.47-61.82-4.91-77.49,18.98-3.56-3.29-8.7-5.73-13.15-7.85-10.66-5.1-36.32-12.25-42.19-20.81-14.37-20.96-15.94-64.36,1.81-83.86,25-27.47,61.57-23.92,87.44.11Z"/>
  <path class="st12" d="M906.99,930c23.97,54.49,25.62,118.14-15.07,165.18-4.76,5.5-22.92,22.14-28.99,24.35-3.17,1.16-1.79-1.67-4.52,1.32-3.41,3.72-4.8,2.8-1.41-1.36,12.26-15.04,19.25-31.64,17.84-51.86-4.93-70.68-76.65-98.24-133.72-61.03-.85.56-2.22,2.46-3.11.89l19.27-28.23c8.89-1.87,18.08-2.73,26.98-4.52,21.97-4.42,30.08-8.87,53.19-2.7,5.85,1.56,12.58,4.42,18.23,6.77,5.07,2.11,9.83,7.18,15.32,5.16-12.45-11.46-29.08-18.01-45.99-19.48,20.31-7.28,41.36-12.13,60.66-22.34,3.11-1.65,20.04-13.08,21.32-12.16Z"/>
  <path class="st12" d="M535.98,908.99c2.01,15.21,9.97,22.52,21.7,30.83,23.99,16.98,51.29,25.5,80.32,29.19l-18.5,45.99c-1.27,1.63-15.8,8.62-16.49,8-4.43-11.65-11.06-23.26-17.64-33.87-5.89-9.49-13.15-19.82-20.36-28.13-1.29,8.41,5.07,13.2,8.8,19.69,8.68,15.11,16.74,30.58,25.19,45.81-2.1.57-7.98,7.56-8.55,7.55-2.05,0-5.85-4.16-7.43-5.86-11.04-11.89-21.07-29.16-31.07-42.41-2.5-3.31-8.06-7.78-9.97-11.27-2.96-5.41-4.44-12.72-8.15-18.85-12.88-21.24-39.28-42.61-64.82-43.68l19.56-3.41c15.67.1,31.89.87,47.42.4Z"/>
  <path d="M325.35,1113.59c1.75.98,6.81,4.42,7.24,4.41,1-.01,2.13-1.25,3.22-.84.26.1,2.49,3.67,3.44,4.46.3.25,1.28-.44,2.16.39,12.16,11.47,18.57,31.27,17.25,47.63-.14,1.78-.74,3.55-.67,5.36l-2.03-1.47,2.03,7.48-1.99-.5c.28,2.2-.23,3.92-1.09,5.9-1.19,2.72-3.16,3.11-3.58,3.81-.64,1.06-.31,6.29-.49,6.57-1.87,2.88-11.53,6.43-14.26,8.32-1.56,1.08-1.46,2.81-1.6,2.9-.42.3-7.14-5.14-5.98,3.01l-.99-2c-4.63-1.85-8.5,3.52-9,2.99-2.01-2.15,2.5-1.57,1.98-2.99-5.42-1.3-7.74-5.56-13.99-3.02l2-1.5-2.02-4.48-1.48,1.99c-1.36-.67-6.88-9.43-8.55-10.51-1.05-.68-3.24.85-3.95-.99-.33-.85,1.87-.14,2.06-1.09.62-3.08-3.74-6.94-2.07-10.41l-1.98,1.02c.38-2.16-1.49-4.04-1.8-5.76-.57-3.13.62-4.12.68-5.82.02-.48-1.55-.22-1.79-1.08-.6-2.04-1.14-8.8-.09-10.6.64-1.1,1.92-.69,1.98-.78.29-.45-3.1-5.02-.81-10.31,1.65-3.81,1.24,1.33,1.98-5.88.31-2.98,1.75-4.29,2.47-6.78.42-1.49-.58-3.38-.16-4.03.85-1.33,2.65-.07,4.05-.91,4.76-2.82,8.4-10.27,11.73-11.86,1.04-.5,4.46.81,6.26-3.21.31,3.75,6.68,0,9.01-.98.76-.32.25,1.24.84,1.57Z"/>
  <path d="M173.73,1093.27c1.53,1.36,7.14,10.49,8.44,13.06,3.15,6.2-.39,4.52-.17,5.17,1.07,3.13,3.58-.94,3.99-.49-1.4,4.86,1.9,11.29,2.11,15.54.11,2.27-3,.53-2.1,3.45l2.99-.99c1.01.58-3.99,12.06,0,11v.97c-3.76-.44-1.07,3.36-1.43,6.06-.49,3.65-2.99,13.09-6.05,15.05-1.13.73-2.44-.21-2.5-.1-.21.34,1.41,3.81-2.48,7.03-3.59,2.97-12.4,3.53-8.55,10.49l-1.98.49c-.33-.38,1.03-6.7-2.83-3.74-.48.37.47,2.19-1.16,1.73.2-3.31-3.36-2-5.35-2.34-.78-.14-1.28-.97-1.68-1.1-2.15-.72-.28,1.88-1.48,1.45-1.87-.67-.38-2.91-.51-2.98-1.33-.63-7.62.16-7.85-.15-.33-.45-.09-2-.74-2.76-2.19-2.54-5.06-3.53-6.19-4.41-.65-.51-7.64-11.39-9.22-13.13-.34-.38-1.38-.54-1.99-.58l1.99-2.47c-1.23-2.18-5.25-.15-3.98-4.51l2.98,1.51c-1.63-2.37-2.48-4.89-.99-7.51l-2.99.99c.66-3.4,1.46-7.05,1.45-10.52,0-3.13-2.88-5.3.54-5.98-4.98-2.49,1.57-5.63,1.84-7.01.13-.68,0-7.86-1.84-6.99,3.11-.93,5.02-6.27,5.96-7,.43-.33,1.98.58,2.03.5.28-.42-.67-1.67-.49-2.48.23-1.02,1.51-1.81,1.33-2.83-.29-1.6-4.48-4.58,2.17-2.7-2.51-3.07,3.2-2.78,5.7-4.29.62-.38.96-2.09,2.26-3.04,1.22-.89,6.27-1.32,7.95-1.29,5.87.13,16.49,3.04,20.82,6.9Z"/>
  <path class="st0" d="M587.88,1129.12c.3.17,1.79,4.07,3.77,5.72,2.38,1.99,8.24,5.31,11.35,5.16-2.79,7.7-4.26,15.83.14,23.35,1.22,2.09,4.8,4.28,5.38,5.67s-.99,6.83-.29,10.25c.77,3.76,5.3,7.03,5.54,8.34.1.53.1,9.65.01,10.66-.18,2.19-2.14,4.41-2.55,6.46-.96,4.82-.06,10.27,2.76,14.26-12.06-1.58-20.79-11.63-25.19-22.3-2.07-5.01-2.8-11.39-4.91-16.09-1.49-3.29-4.64-5.76-6.28-8.72-5.27-9.51-5.46-17.67-2.07-27.84,1.1-3.29,8.18-17.34,12.34-14.92Z"/>
  <path class="st6" d="M731,1171l2.5,1c-20.21,2.37-40.4,4.64-60.84,4.16-2.43,3.6-3.91,6.32-6.66,9.84l5.63-10.87c19.85-1.21,39.67-1.1,59.37-4.13Z"/>
  <path class="st6" d="M347,1216l1,1c-3.37,3.99-8.74,4.3-14,3-5.62.42-14.4-.6-19-4,1.09.34,7.11,2,7.5,2h15c.49,0,8.54-1.71,9.5-2Z"/>
  <path class="st6" d="M644,1212c6.11-6.52,12.37-14.04,18-21-3.8,7.5-10.5,16.73-18,21Z"/>
  <path class="st6" d="M643,1213c-2.83,3.1-2.3,2.43-6,5,1.45-2.15,3.25-4.73,6-5Z"/>
  <path class="st4" d="M348,1217c1.68-.42,3.34-1.46,4.99-2,2.17,2.61-6.07,3.97-6.75,4.36-.76.43-1.17,3.17-3.91,3.44-.44.04-7.52-1.98-8.32-2.8,3.48-.26,10.26-2.08,14-3Z"/>
  <path d="M553.42,671.42c-10.25,10.01-23.23,16.7-37.92,16.58-6.65-.05-9.43-4.83-10.21-5.01-1.94-.46-4.69.16-7.35-.43-7.58-1.67-19.66-6.4-18.94-15.55l18.77,8.72c16.69,4.21,36.54-2.21,49.71-12.75,2.08-1.67,7.96-8.99,9.83-8.82.76.07,4.86,2.22,5.25,2.83,2.33,3.63-6.6,11.95-9.14,14.43Z"/>
  <path d="M743,515.99c-5.01-.29-4.35-5.85-9.95-7.53-12.56-3.77-20.1,10.81-23.05,20.53,14.83,4.52,15.42,27.47,3.5,35.99-5.02-4.37.98-10.61,2.06-16,1.62-8.08-3.51-20.84-11.55-10.98-3.65-2.71,3.06-20.53,5.18-24.3,5.3-9.42,17.52-17.2,28.07-11.46,6.21,3.38,3.75,8.19,5.73,13.76Z"/>
  <path d="M576.99,519c-2.67-.65-2.55-1.87-3.48,1.01-13.39-8.57-30.21-18.15-46.78-15.77-4.05.58-15.22,6.88-17.49,4.54-6.54-6.75,14.34-12.19,18.36-12.67,12.04-1.42,26.17,3.12,36.3,9.48,5.21,3.27,10.69,7.53,13.08,13.41Z"/>
  <path d="M476.32,619.31c-.96,1.14-2.57,5.11-2.87,6.63-3.14,15.41,12.08,19.61,24.38,16.37,2.72-.71,12.95-6.11,13.69-6.05s2.18,1.68,2.38,2.44c1.39,5.25-16.16,11.02-20.41,11.3-16.4,1.08-31.67-11.03-25.53-28.55,1.7-4.86,13.8-15.74,18.06-13.01,6.28,4.02-7.35,8.08-9.69,10.87Z"/>
  <path d="M400.01,529.99l2-1.49c-5.33-1.85,1.59-13.69,4.49-16.49,3.43-3.3,13.27-7.41,17.98-7.07,2.42.17,13.72,4.11,10.6,7.59-2.39,2.67-8.2.03-12.51.56s-12.82,5.05-15.01,8.98-.75,10.87-7.57,7.91Z"/>
  <path class="st16" d="M198.76,985.26c12.05-1.53,42.71,4.04,55.49,7,23.3,5.38,34.75,32.47,40.28,53.72,3.84,14.76-.55,16.88-15.01,16.01-28.2-1.71-80.17-10.07-107.27-17.72-12.21-3.45-18.35-4.05-13.96-18.48,5.83-19.15,19.53-37.87,40.48-40.52Z"/>
  <path class="st16" d="M343.77,975.28c24.67-2.47,39.98,15.24,53.18,33.26,4.73,6.45,17.09,22.07,11.61,29.52-4.63,6.29-35.54,14.43-44.35,16.65-12.03,3.04-37.37,10.82-47.26,1.83-4.88-4.44-13.05-26.06-15.72-33.28-1.8-4.87-9.66-26.15-8.99-29.65,1.11-5.81,31.98-14.41,38.12-15.75,3.96-.87,9.53-2.2,13.41-2.59Z"/>
  <path class="st2" d="M395.71,1099.22c20.18-4.66,33.06,31.31,16.24,42.24-14.05,9.13-28.18-9.5-27.98-22.9.09-6.07,5.18-17.82,11.73-19.33Z"/>
  <path class="st11" d="M484.74,1079.21c15.95-1.49,24.96,30.36,9.18,39.21-21.04,11.8-29.88-37.28-9.18-39.21Z"/>
  <path d="M469,1119.01c-.6,1.03-.26,2.74-.92,3.51-2.95,3.44-28.58,10.18-33.61,9.53-3.1-.4-6.29-2.86-3.45-5.6,1.4-1.35,13.73-2.21,17.03-2.92,3.67-.79,18.91-5.72,20.96-4.52Z"/>
  <path d="M233.75,1074.24c1.33,1.16,1.28,4.99,1.25,6.76-3.12.2-31.55-1.52-22.59-8.07,2.08-1.52,19.77-.05,21.34,1.31Z"/>
  <path class="st13" d="M316.77,1143.18c7.18-.86,14.23,6.64,15.15,13.41,1.44,10.63.49,30.19-15.11,24.1-15.89-6.2-14.84-35.73-.04-37.51Z"/>
  <path class="st18" d="M160.69,1145.69c-1.6,1.79-5.25,3.38-7.71,2.92-13.36-2.5-15.18-21.8-7.98-31.11,12.49-16.13,25.3,17.42,15.68,28.19Z"/>
  <path class="st19" d="M267.65,1006.35c7.28,7.11,19.35,33.6,20.93,43.6.24,1.5,1.1,3.5-.52,4.6-1.77,1.2-27.05-2.09-31.42-2.69-15.22-2.07-30.39-5.44-45.53-7.97.6-16.86,3.16-33.65,8-49.79,11.39,2.16,24.64,2.86,35.73,5.55,5.31,1.29,8.85,2.83,12.81,6.69Z"/>
  <path class="st8" d="M213,993.01c-5.27,16.06-8.49,33.04-8,49.99-5.44-.61-39.49-6.98-40.87-9.12-2.28-3.53,10.53-26.11,13.44-29.81,7.83-9.95,23.3-13.66,35.43-11.06Z"/>
  <path class="st15" d="M340.79,983.29c4.65-.48,11-.73,15.6-.18,18.59,2.22,39.3,34.14,47.16,49.89-1.79,3.83-42.07,15.02-48.54,16.51-8.27,1.89-26.24,7.11-32.99,1.97-4.05-3.08-22.85-51.63-21.93-54.82,1.23-4.24,35.03-12.78,40.7-13.36Z"/>
  <path class="st9" d="M397.73,1105.17c15.53-3.27,22.71,34.58,5.01,31.6-13.58-2.28-15.74-29.34-5.01-31.6Z"/>
  <path class="st13" d="M482.7,1085.19c10.19-3.13,17.11,17,10.75,25.76-10.81,14.9-21.03-22.6-10.75-25.76Z"/>
  <path class="st17" d="M527.73,565.35c1.11,2.11,1.87,4.46,2.98,6.57l1.64-1.19c.38-3.19,1.2-6.74,4.8-7.53,11.35-2.48,34.58,27.37,30.87,38.86l1.07,1.37c1.26,1.97,1.87.24,3-.76,7.4-6.49,8.74-11.64,11.58-20.32,3.23-21.01-20.06-42.87-40.71-40.25-10.94,1.39-19.24,13.16-15.24,23.25Z"/>
  <path class="st3" d="M530.7,571.92c-.64,11.13,14.63,28.5,23.87,32.99,4.52,2.2,11.78,4.04,14.52-1.49,4.75-9.58-10-28.77-16.7-34.77-7.64-6.84-20.76-13.02-21.69,3.27Z"/>
  <path class="st14" d="M527.73,565.35c-.32-16.2,10-25.12,25.75-20.86,18.11,4.9,28.58,19.53,30.2,37.86,1.78-5.43,2.98-5.62,1.83-12.24-2.94-16.87-19.04-31.38-36.05-33.13-17.48-1.81-31.22,11.44-22.87,28.13.54,1.08,1.11.2,1.14.25Z"/>
  <path class="st17" d="M420.73,572.89c.83,1.61,1.38,3.41,2.21,5.02l1.28-.94c.33-2.46,1.01-5.21,3.8-5.86,8.79-2.06,26.32,20.63,23.32,29.53l.81,1.04c.95,1.5,1.44.16,2.33-.62,5.79-5.1,6.89-9.08,9.2-15.8,2.76-16.22-14.92-32.75-30.89-30.47-8.45,1.21-15.01,10.38-12.05,18.1Z"/>
  <path class="st3" d="M422.94,577.91c-.63,8.58,10.92,21.76,17.99,25.1,3.46,1.63,9.03,2.96,11.22-1.34,3.79-7.44-7.34-22.03-12.44-26.56-5.81-5.17-15.85-9.76-16.77,2.8Z"/>
  <path class="st14" d="M420.73,572.89c-.04-12.47,8.04-19.47,20.14-16.4,13.91,3.54,21.8,14.67,22.81,28.76,1.44-4.2,2.37-4.37,1.57-9.45-2.05-12.95-14.29-23.92-27.38-25.05-13.46-1.17-24.24,9.21-18.01,21.95.4.82.86.14.88.18Z"/>
</svg>