<?xml version="1.0" encoding="UTF-8"?>
<svg id="Layer_1" xmlns="http://www.w3.org/2000/svg" version="1.1" viewBox="0 0 283.46 425.2">
  <!-- Generator: Adobe Illustrator 29.5.1, SVG Export Plug-In . SVG Version: 2.1.0 Build 141)  -->
  <defs>
    <style>
      .st0 {
        fill: #7d96c4;
      }

      .st1 {
        fill: #89523b;
      }

      .st2 {
        fill: #a46137;
      }

      .st3 {
        fill: #8488b1;
      }

      .st4 {
        fill: #f6a92c;
      }

      .st5 {
        fill: #5d7fb8;
      }

      .st6 {
        fill: #61392b;
      }

      .st7 {
        fill: #df854f;
      }

      .st8 {
        fill: #89513c;
      }

      .st9 {
        fill: #af803b;
      }

      .st10 {
        fill: #fff;
      }

      .st11 {
        fill: #634a3f;
      }

      .st12 {
        fill: #b9794d;
      }

      .st13 {
        fill: #fbf19f;
      }

      .st14 {
        fill: #694439;
      }

      .st15 {
        fill: #60382b;
      }

      .st16 {
        fill: #8a533c;
      }

      .st17 {
        fill: #88523c;
      }

      .st18 {
        fill: #ed3393;
        opacity: .2;
      }

      .st19 {
        fill: none;
        stroke: #09141a;
        stroke-linecap: round;
        stroke-linejoin: round;
        stroke-width: 1.5px;
      }

      .st20 {
        fill: #844d39;
      }

      .st21 {
        fill: #f9e710;
      }

      .st22 {
        fill: #203f7b;
      }

      .st23 {
        fill: #eeecea;
      }

      .st24 {
        fill: #f9f8f8;
      }

      .st25 {
        fill: #abb7d9;
      }

      .st26 {
        fill: #b07f3b;
      }

      .st27 {
        opacity: .7;
      }

      .st28 {
        fill: #4267a4;
      }

      .st29 {
        fill: #e4087e;
      }

      .st30 {
        fill: #fbf19e;
      }

      .st31 {
        fill: #3c2a20;
      }

      .st32 {
        fill: #8386b1;
      }

      .st33 {
        fill: #322117;
      }

      .st34 {
        fill: #f9a66d;
      }

      .st35 {
        fill: #fbfcfc;
      }

      .st36 {
        fill: #8b533c;
      }
    </style>
  </defs>
  <g>
    <path class="st12" d="M94.75,139.67c.14-.67-.34-.58-.72-.78-1.43-.78-2.98-1.4-4.38-2.23-7.6-4.48-14.36-11.8-7.25-20.48-10.99-15.83-12.28-36.78-3.23-53.9-4.61-2.49-9.1-6.09-10.63-11.41-3.65-12.67,6.73-24.36,18.96-25.18,8.95-.6,15.3,2.34,18.56,11.13,21.2-11.17,48.09-11.09,69.3,0,.72-1.36,1.14-2.81,1.93-4.14,5.38-9.11,19.34-8.56,27.21-3.3,12.69,8.47,12.01,27.04-2.54,32.75,9.29,16.84,8.08,38.17-2.95,53.83-.08.48,1.38,2.2,1.72,2.87,3.82,7.37-1.99,13.46-7.8,17.08l-6.25,3.5-.22.59-4.96,1.63c-.35.34-.95.52-1.78.56-7.85,2.8-16.47,4.02-24.86,4.97-.94-.13-.85-.64-.1-1.08.09-.24.18-.24.27,0l.27-.28.54-.92c15.87-8.08,7.97-35.49-3.08-44.12-1.32-.68-2.38-1.51-3.18-2.49.23-.13.47-.24.72-.32,1.94-.59,8.71,1.25,11.06,1.91,4.71,1.34,9.19,3.17,13.4,5.39,4.4,1.84,4.57-3.49.46-4.36l-5-2.29-.18-.62.52-.75c10.26-3.63,11.52-18.96,1.45-23.73-12.36-5.85-23.65,9.25-15.07,19.73v.86s-1.66.21-1.66.21c-9.91-2.05-20.02-1.2-29.95.02l-.84-.23v-.84c5.9-6.98,2.07-19.57-7.21-20.79-15.9-2.08-20.69,18.97-6.38,24.74l.5.77.06.36c-2.39,1.13-4.8,2.3-7.25,3.5-2.12,1.55-.61,4.9,1.92,3.64,7.37-3.77,15.82-6.6,24.14-7.24l.77.29c-.73.98-1.73,1.83-3,2.53-10.89,9.27-18.29,36.76-1.67,44.39l.58.89c-.25.8-1.93.67-2.72.57-7.53-.93-17.8-2.49-24.78-5.34-.55-.23-1.01-.64-1.42-1.07-.65.68-2.54-.33-3.27-.83h0Z"/>
    <path class="st12" d="M183.42,147.45c.14-.1.29-.19.45-.25,2-.72,9.25,6.45,10.1,8.51,3.95,9.63,7.67,19.49,11.32,29.25,3.49,9.33,6.94,18.66,9.58,28.29.12.45.16.93.2,1.41.03.48.03.97,0,1.46,2.33,8.95,4.7,21.38,5.18,30.72.15,2.92-.44,6.91.28,9.59-.38,9.11-2.67,18.42-7.97,25.93-9.63,13.63-27.96,18.24-43.05,20.22-18.66,2.16-38.29,3.87-57.02,1.11-.24.11-.48.2-.73.26-2.04.49-10.56-1.96-13.13-2.74-19.79-6.01-35.14-19.74-37.43-41.44.41-1.3-.01-1.55-.01-2.63-.01-13.45,1.66-25.1,4.92-37.95l.03-1.58c5.55-22.91,14.43-46.03,23.32-67.09.1-1.1,4.82-3.33,5.28-3.19.24.07.44.19.57.42-.05.96-.12,1.93-.41,2.85-4.39,14.32-8.37,27.57-10.7,42.48-3.32,21.22-5.1,50.1,4.67,69.58,16.11,32.11,65.81,39.78,91.61,15.82,34.33-31.88,15.71-91.39,2.89-129.45-.09-.52-.07-1.04.07-1.56h0Z"/>
    <path class="st12" d="M229.53,403.73c-.03-.31-.3-.03-.82.83-5.66,4.45-20.85-1.16-25.09-6.54-5.56-7.04-5.25-21.93-7.18-31.04-3.42-16.13-9.91-38.42-18.2-52.48l.92-.94c21.19-8.26,41.8-26.35,42.98-50.89l.57-1.27c12.79,31.36,16.68,66.12,17.47,99.92.14,5.91-.6,13.14.06,18.84.79,6.73,8.59,11.53,8.68,17.87.03,2.67-2.07,4.8-4.6,5.08-.8.09-1.69-.26-2.05-.17s-.75.77-1.19,1.02c-3.89,2.27-7.57.85-11.55-.23h0Z"/>
    <path class="st12" d="M104.03,315.9c-7.88,14.09-15.36,39.52-18.15,55.59-2.72,15.66.2,28.25-18.2,33.44-3.8,1.07-10.46,2.37-13.58-.63-.26-.92-.45-1.1-.55-.56-3.48,1-7.33,2.38-10.83.61-.56-.28-1.64-1.33-1.92-1.39-.98-.22-1.86.48-3.7-.38-4.13-1.93-2.77-6.65-1.06-9.85,3.3-6.19,6.7-7.02,7.15-15.23.4-7.34-.21-15.13-.02-22.54.78-30.99,5.38-63.05,16.65-91.86l.75,1.36c3.94,23.02,21.26,42.17,42.36,50.47l1.08.98h0Z"/>
    <path class="st12" d="M279.73,256.69l-.52-.16c-.73,2.2-2.25,3.79-4.44,4.46-1.96.6-5.69,1.14-2.95-1.39,1.76-2.51,1.66-4.78,1.1-7.63l.41,3.06c.09.55-.05.88-.41.97.63.06.01,1.54-.23,2.07-1,2.21-2.41,3.68-4.96,3.35-.69-.22-2.14-1.07-2.71-1.54-.62-.51-.72-1.46-1.65-1.51-.41-.33-.8,1.16-.27.83-2.83,5.86-7.12-.03-8.69-3.51-1.55-3.42-2.15-6.92-4.08-10.29-4.55-7.94-14.82-14.52-22.15-19.83-3.74-12.22-7.91-24.88-12.75-37-2.89-7.24-6-14.4-9.42-21.34-4.36-8.86-9.14-16.27-14.5-24.45-.45-.69-.73-1.47-.98-2.26,18.39,6.43,37.52,18.47,51.44,32.24,17.08,16.9,36.62,47.62,38.87,72.14.38,4.16.68,7.97-1.09,11.81h0Z"/>
    <path class="st12" d="M94.21,140.78c-.07.68-.25,1.32-.54,1.93-17.16,24.76-28.19,54.32-36.56,82.85-7.66,5.5-18.35,12.3-22.79,20.84-2.16,4.17-3.45,12.71-7.86,14.78-2.4,1.13-3.23.04-4.28-1.99-.2-.09-.68-3.66-.59-3.5.17.3.24,2,.05,2.39-1.08,1.34-2.4,2.83-4.09,3.34-1.92.23-3-.23-4.14-1.82-.56-.78-1.72-2.69-1.04-3.33-.82-.58-.37-3.15,0-4.17-.93,2.59-.44,6.56,2.11,8.65.59,1.32-2.65.63-3.45.43-2.29-.57-4.33-2.36-5.03-4.67l-.45.46c-4.31-9.06,2.02-28.96,6.04-37.9,10.31-22.92,26.51-44.21,46.53-59.05,11.09-8.22,23.38-14.12,36.1-19.23Z"/>
    <path class="st2" d="M186.7,139.39c1.16,0,2.71.72,3.82,1.11,8.39,11.2,14.86,23.4,20.51,36.23,6.74,15.3,12.7,31.43,17.12,47.61.09.32.47,1.04.02,1.22-4.35-3.15-8.91-6.06-13.1-9.45-5.31-20.35-14.26-40.34-21.59-60.15-2.47-3.52-5.87-7.25-10.06-8.51-.25.07-.35-.02-.27-.28-.72-.06-2.13-4.75-2.05-5.02.08-.23.19-.42.41-.54.03-.02-.14-.39.34-.64.63-.33,4.23-1.58,4.85-1.58h0Z"/>
    <path class="st2" d="M220.53,256.41c.02.09-.03.2,0,.28l.27.28c.6,1.48,1.3,2.95,1.91,4.45-.17,25.43-22.59,45.12-44.47,53.09-2.51-4.27-5.38-8.32-8.73-11.95-.23-.87.87-.49,1.7-.63,26.95-4.6,46.51-13.46,48.78-44.55.04-.53-.31-1.12.54-.96h0Z"/>
    <path class="st2" d="M112.49,303.66c-2.93,3.98-6.03,7.89-8.46,12.23-13.17-4.58-25.5-14.49-33.51-26.04-5.5-7.93-9.39-17.08-10.69-26.77.39-.99,1.08-2.45,1.36-3.34.5.29.46.77.54,1.26,4.67,27.24,25.7,38.97,50.75,42.66Z"/>
    <path class="st2" d="M98.03,140.5l.41.48c-.72,2.12-1.44,4.25-2.17,6.37l-.7.37c-.05.25-.14.24-.27,0-1.17.25-4.32,1.58-5.04,2.51-.98,1.27-2.78,6.48-3.55,8.34-8,19.29-15.47,40.35-20.61,60.59-2.94,2.22-6.02,4.25-9,6.39-.37-1.06.37-2.78.68-3.89,5.04-17.69,11.97-36.05,19.82-52.64,4.88-10.31,10.76-18.67,16.6-28.25.18-.29.38-.95.55-1.11.53-.51,2.5.57,3.27.83h0Z"/>
    <path class="st8" d="M5.54,256.97c-.19-1.51-.31-2.73.08-4.23l1.29-2.99c-2.16,6.27.34,11.85,7.37,11.39-3.04-2.68-3.3-6.29-1.91-10,.67,0,0,.82,0,.97v4.17c0,.38.86,2.31,1.14,2.73,1.04,1.61,2.3,1.99,4.05,2.41-4.56,1.36-9.85.08-12-4.45h0Z"/>
    <path class="st17" d="M279.73,256.69c-.99,2.14-1.83,3.33-4.1,4.3-2,.85-5.88,1.06-7.91.42,2.09-.54,3.58-1.22,4.5-3.33.11-.26.68-1.98.68-2.09v-4.03l.83,2.93c-.07,2.56-.92,4.51-2.74,6.24,7.11.39,9.23-5.05,7.37-11.39l1.3,3.26.07,3.69h0Z"/>
    <path class="st16" d="M21.63,258.08c-.97-2.97-.61-6.47.96-9.18.1-.18.22-1.02.68-.55.16.17-1.71,3.7-1.36,4.59l.27,6.25c-.23-.44-.34-.49-.55-1.11h0Z"/>
    <path class="st36" d="M229.53,403.73c-.31.47-.41.51-.82.83,2.19-4.46-.73-7.04-3.55-10l3.14,2.5c1.49,2.13,2.87,4.19,1.23,6.67h0Z"/>
    <path class="st1" d="M263.36,258.36c-.09.28-.13.54-.27.83-.57.35-.64.5-.45-.31.9-3.73.9-6.58-.37-10.25,2.16,2.83,2.17,6.48,1.09,9.73Z"/>
    <path class="st36" d="M53.55,403.73c-1.76-3.05.63-6.14,2.86-8.06.31-.26.44-.67.96-.55-1.84,2.12-3.78,3.69-3.56,6.82.06.84.64,1.7.28,2.35-.21-.2-.35-.22-.55-.56h0Z"/>
    <path class="st12" d="M220.8,256.97l-.27-.28c.02.07.22.16.27.28Z"/>
    <path class="st34" d="M149.59,98.25c7.4,3.15,11.76,11.81,13.99,19.24,3.34,11.12,2.95,22.5-8.26,28.29l-.27.28c-.07.04-.2-.04-.27,0-.11.2-.22.4-.36.57-1.07,1.29-6.96,2.52-8.89,2.78-5.67.78-11.72-.16-17.13-1.87-.52-.16-1.54-.6-1.45-1.21-13.39-6.09-12.5-20.82-7.77-32.79,2.33-5.89,5.95-12.28,11.86-15.02l.52-.83c5.57-2.11,11.87-2.2,17.5-.26l.54.81h0Z"/>
    <path class="st7" d="M126.95,146.34c.81.13,1.45.7,2.24.91,9.13,2.46,16.77,2.93,25.59-1.19-.42.7-.4.57.34.49,6.3-.68,12.6-1.64,18.76-3.12,2.16-.52,4.77-1.67,6.75-2.03.39-.07.84.24.88.22l1.64,5.56-.46.38c-4.59-1.09-9.33-.85-14.2.72-15.42,4.9-31.23,6.9-47.29,3.46-7.6-1.89-15.27-3.12-23.01-3.69-1.08.24-1.94.13-2.61-.32l2.46-7.23c8.8,3.05,16.84,4.62,26.06,5.83.77.1,2.46-.06,2.86,0h0Z"/>
    <path class="st20" d="M156.96,94.08l.8.05c3.33,3.5,7.53,4.02,11.99,3.27l.31.57c.54.06,2.68,1.12,3.37,1.43.86.39,4.2,1.97,4.66,2.48,1.52,1.66.38,4.47-1.9,4.44-.91-.01-5.14-2.39-6.41-2.92-6.37-2.65-13.28-4.68-20.18-5.15-5.34-2.27-13.29-2.16-18.55.28-7.49.73-14.91,3.06-21.82,5.99-1.19.5-3.06,1.86-4.23,1.82-2.36-.09-3.23-3.31-1.22-4.87.66-.51,6.91-3.38,7.62-3.49-.01-.27.09-.47.32-.58,4.51.8,8.62.12,12.04-3.34l.74.03c10.74-1.84,21.76-2.41,32.47,0h0Z"/>
    <path class="st34" d="M188.27,34.39c8.84-1.02,17.86,6.24,15.48,15.77-.41,1.64-3.18,6.38-4.92,6.4-.59,0-2.68-3.21-3.26-3.9-4.45-5.22-9.51-9.34-15.12-13.2,1.6-2.95,4.56-4.69,7.83-5.07h0Z"/>
    <path class="st34" d="M100.72,39.84c-.11.19-3.03,1.89-3.6,2.32-5.58,4.18-10.43,8.93-14.51,14.65-9.76-6.67-5.23-20,5.54-22.13,3.2-.63,7.11-.53,9.86,1.46.61.44,3.17,2.9,2.71,3.69h0Z"/>
    <path class="st10" d="M124.49,94.08c-1.95,2.12-5.18,3.93-8.04,4.18-1.52.13-4.03-.45-5.06-.29-15.27-5.17-11.33-27.61,5.33-26.14,10.28.91,14.75,14.63,7.77,22.25Z"/>
    <path class="st10" d="M170.05,97.97c-1.27-.13-3.41.43-5.06.29-3.07-.27-6.01-1.93-8.04-4.18-9.15-10.14.72-25.82,13.58-21.76,12.33,3.89,11.69,21.99-.49,25.65h0Z"/>
    <path class="st6" d="M166.99,61.91c1.97-.23,3.45.02,5.21.93.99.51,5.3,3.75,2.84,4.5-1.38.42-1.36-.67-2.11-1.35-1.58-1.43-3.55-2.14-5.67-1.86-1.22.16-4.61,2.21-4.6.06.01-1.37,3.22-2.15,4.33-2.28h0Z"/>
    <path class="st15" d="M111.87,61.91c1.47-.2,6.43.37,6.86,2.07.59,2.34-3.76.26-4.54.16-1.54-.2-2.7,0-4.07.71-1.03.53-3.44,3.58-4.33,2.29-.97-1.4,2.67-4.02,3.78-4.52.64-.28,1.62-.61,2.31-.71Z"/>
    <path class="st7" d="M155.05,146.06l.27-.28s-.12.2-.27.28Z"/>
    <path class="st34" d="M183.15,147.17c.1.07.18.2.27.28,12.45,38.12,30.54,91.42,2.05,126.48-24.24,29.83-78.98,23.56-96.77-10.38-8.59-16.38-8.33-38.4-6.77-56.47,1.75-20.31,6.67-40.23,13.37-59.35.09-.02.18.02.27,0,6.73-1.24,20.43,2.69,27.77,3.81,10.72,1.64,19.4,2.05,30.13,0,7.65-1.46,18.86-5.85,26.27-5.2.68.06,2.94.49,3.41.83h0Z"/>
    <path class="st31" d="M141.41,125.49c-.41.78-.95.79-1.36,0-4.2-.23-8.44-2.35-9.15-6.94-.52-3.36-.24-4.87,3.14-5.72,2.91-.74,9.93-.68,12.89-.05,3.92.83,4.31,2.56,3.41,6.37-1,4.23-4.91,6.12-8.92,6.34h0Z"/>
    <path class="st14" d="M141.41,125.49c.11,6.23-1.55,14.03,6.05,16.21,4.53,1.3,10.36-1.81,9.44-7.11-.12-.67-1.39-2.66-.34-2.98,1.77-.53,1.9,4.62,1.75,5.68-.31,2.09-2.69,4.54-4.52,5.4-4.86,2.3-10.81-.13-13.06-4.97-2.26,4.39-7.05,6.8-11.87,5.42-3.01-.86-5.91-3.97-6.01-7.24-.03-.92.59-4,1.55-4.25,1.74-.47.22,2.2.12,2.9-.32,2.31.3,4.15,2.03,5.67,3.16,2.78,8.13,2.22,11.05-.68,3.66-3.63,2.13-9.38,2.45-14.05.44.02.92.02,1.36,0h0Z"/>
    <path class="st11" d="M112.97,75.25c15.34-2.24,15.2,21.68.27,19.59-10.75-1.5-10.58-18.08-.27-19.59Z"/>
    <path class="st11" d="M164.53,75.25c11.44-1.69,16.09,12.83,6.86,18.39-6.07,3.66-13.9-.5-14.63-7.56-.5-4.81,2.88-10.11,7.77-10.83h0Z"/>
    <path class="st33" d="M112.96,76.91c9.59-1.65,13.6,10.38,6.17,15.18-6.65,4.29-14.87-3.14-11.69-10.52.82-1.9,3.48-4.31,5.52-4.66Z"/>
    <path class="st33" d="M164.81,76.92c12.85-1.9,12.71,17.45.75,16.32-9.29-.88-9.3-15.06-.75-16.32h0Z"/>
    <path class="st24" d="M111.59,79.39c2.21-.34,2.52,3.81-.28,2.96-1.5-.45-1.19-2.73.28-2.96Z"/>
    <path class="st23" d="M108.46,85.39c-1.06-1.09.72-2.38,1.45-1.34.6.85-.57,2.25-1.45,1.34Z"/>
    <path class="st35" d="M163.41,79.41c1.56-.14,2.18,2.72.49,3-2.53.42-2.35-2.83-.49-3Z"/>
    <path class="st24" d="M161.56,85.43c-.6.98-2.64-.57-1.35-1.51.99-.73,1.83.73,1.35,1.51Z"/>
    <g>
      <path class="st21" d="M248.97,262.75c.26-1.15,2.69-2.16,3.74-1.68,6.86-2.43,18.48-1.93,23.81,3.6,1.95,2.01,2.64,5.73.89,8.06.15,1.39-2.1,2.76-3.28,3.46-6.83,4.03-18.8,4.3-25.55,0-1.16-.74-3.3-2.22-3.06-3.61-2.59-4.08-.12-7.48,3.44-9.82Z"/>
      <path class="st21" d="M209.73,309.37c6.11-4.82,11.61,3.75,13.19,8.89.74-.1,1.43,3.02,1.4,3.61l-.41.46c.87,5.74-.29,17.2-6.8,19.41-1.21.41-3.78.2-4.83-.47-1.37.25-2.92-1.89-3.7-3.02-2.72-3.91-4.29-9.44-3.98-14.18-.6-3.67.09-7.9,1.78-11.24.64-1.26,1.9-3.53,3.34-3.46Z"/>
      <path class="st21" d="M258.6,305.2c1.22.41,2.31,2.49,2.02,3.74,1.99,4.42,2.71,11.25-3.45,12.54-.88,1.15-3.41.62-4.77.29-5.97-1.46-11.32-6.39-14.81-11.28-1.42-1.99-2.64-4.54-3.2-6.92-.32-1.39-.81-3.86.34-4.77,1.05-4.79,5.74-5.44,9.78-4.38,5.5,1.44,10.93,6.15,14.11,10.78Z"/>
      <path class="st29" d="M198.3,321.01c.78-.51,2.82.1,3.05,1.03,3.65-.86,2.53,5.97-.7,4.07-.37.77-2.22.08-2.37-.69-6.23-1.91-12.24-4.83-18.54-6.51-1.65-.44-5.1-1.77-5.88.37-1.25,3.42.41,10.27.55,14.08.07,1.87.17,6.87-2.74,6.44-2.49-.37-1.41-2.52-1.35-3.92.22-5.21-2.62-16.02.82-20.02,2.44-2.84,6.73-1.7,9.81-.85,5.65,1.57,11.77,4.02,17.36,6Z"/>
      <path class="st4" d="M245.53,272.57c5.4,8.5,25.95,8.12,31.89.16,3.96,6.11-4.27,11.16-9.56,11.83-.72.01-1.18-1.56-.67-2.04-.22-.45-.11-.65.13-1.04.3-2.43-7.77-1.75-4.37,1.87.74-.1,1.4,1.72.67,2.04-5.91.56-17.65-1.59-19.01-8.49-.3-1.53.04-3.01.93-4.32Z"/>
      <path class="st4" d="M209.73,309.37c-7.97,6.29-5.74,26.62,2.56,31.9-4.02,3.13-8.06.02-10.43-3.53s-3.3-8.19-3.57-12.32c.55.17,1.95.65,2.37.69l.65.17c2.66,3.33,3.87-5.65.66-4.21l-.61-.03c-.93-.41-2.07-.69-3.05-1.03.54-5.7,4.23-14.94,11.42-11.65Z"/>
      <path class="st4" d="M234.71,298.8c-2.11,9.64,12.78,24.69,22.45,22.67-.89,4.25-4.8,5.3-8.59,4.56-5.03-.98-9.41-4.31-12.77-8.06.22-.81,2.19-1.38,2.72-.67l.68-.4c3.34.08-1.75-7.09-2.97-3.49l-.58.32c-.44.78-1.98,1.21-2.72.67-3-4.77-5.73-13.52,1.77-15.6Z"/>
      <path class="st29" d="M267.19,282.51c.19.36.6,1.62.67,2.04.28,1.63.33,5,.23,6.7-.4,6.45-3,12.98-7.47,17.69-.57-1.28-1.23-2.59-2.02-3.74,4.26-5.45,6.49-13,5.02-19.82-.22-1.04-.44-1.27-.67-2.04-1.23-1.04-.21-2.91,1.2-3.22s3.51.96,3.05,2.39Z"/>
      <path class="st29" d="M232.94,314.4c.89-.23,1.8-.53,2.72-.67.71-1.06,2.76-.91,3.64-.07,1.04.99.98,3.65-.77,3.65-1,.11-1.82.47-2.72.67-4.23.9-8.1,2.18-11.9,4.35-.15-1.02-.68-3.05-1-4.08,3.25-1.66,6.5-2.94,10.03-3.85Z"/>
      <path class="st29" d="M252.71,261.07c-1.28.45-2.59.92-3.74,1.68-1.7-3.19-2.3-7.17-.47-10.43.77-1.37,1.88-3.16,3.68-2.38,2.62,1.14.45,3.2-.27,4.6-1,1.96-.28,4.73.81,6.53Z"/>
      <path class="st30" d="M267.96,263.18c-5.4.59-10.82,1.2-16.04,2.77l-4.5,1.71c4.06-4.5,10.55-5.97,16.39-5.44.52.05,4.13.63,4.15.96Z"/>
      <path class="st13" d="M220.62,335.71c.1-5.13.32-10.44-.58-15.52-.32-1.82-.91-3.54-1.18-5.35,4.76,5.54,4.84,14.53,1.76,20.87Z"/>
      <path class="st13" d="M260.23,317.42c-1.77-4.47-3.76-8.86-6.22-13.01l-3.7-5.19c5.58,2.89,9.31,9.43,10.01,15.57.04.36.3,2.62-.09,2.63Z"/>
      <path class="st9" d="M200.65,326.11c1.56.16,2.92-1.01,2.43-2.62-.36-1.18-.82-1.05-1.73-1.45.92-1.14,1.59-.97,2.47.09,1.79,2.19-.84,8.22-3.17,3.98Z"/>
      <path class="st26" d="M267.19,282.51c-1.9-3.55-5.02-1.72-4.24.83-2.58-1.35-1.14-3.25,1.12-3.75,1.79-.4,5.17.8,3.12,2.93Z"/>
      <path class="st26" d="M238.52,317.31c.72-.55,1.12-1.39.93-2.28-.43-2.06-2.3-1.52-3.8-1.29,1.32-5.37,7.38,2.55,4.31,3.66-.42.15-1.11-.13-1.45-.09Z"/>
    </g>
    <g>
      <path class="st5" d="M50.27,158.28l.34-.03c.59.88,1.64,1.35,3.14,1.39.62.73,1.38,1.28,2.29,1.67.65.65,1.02,1.31,1.1,1.98.56,1.75,1.18,3.5,1.85,5.24.38,4.18-.41,8.3-2.37,12.33-3.77,14.58-8.24,35.1,4.49,46.86,2.02,2.78,1.47,7.74-2.2,8.52-2.22.24-4.94-1.52-6.83-2.82-8.48-5.84-12.31-16.28-13.72-25.87-2.38-16.29,1.97-33.78,10.26-47.86-.49-.11-.85-.21-.73-.79,1.18-.49,2.14,1.03,2.38-.62Z"/>
      <path class="st28" d="M47.89,158.91c.26.2,1.32.4,1.39.54-6.89,11.59-10.87,25.05-11.04,38.57-.17,14.47,4.7,33.13,20.66,38.23.12.19-.04.39-.5.58-2.29.57-4.91.61-7.32.25-26.05-6.06-28.11-37.17-21.37-57.58,2.39-7.25,5.67-15.8,12.24-19.8,1.19-.45,2.28-.74,3.58-.94l.17-.5c.72.12,1.31.03,1.98-.22.11.23.02.72.2.86Z"/>
      <path class="st22" d="M50.27,158.28l5.66-21.46c.02-.39-1.1-1.15-1.44-1.65-2.77-4.02,2.79-8.49,6.58-4.64,2.23,2.27.27,6.7-2.99,6.5-1.72,5.13-2.68,10.54-4.29,15.73l-.79,4,10.05-17.45c.13-.4-1.57-2.21-1.09-4.08,1.65-6.48,11.79-1.21,6.89,3.88-1.58,1.64-3.43.77-3.9,1.06-.76.47-2.8,5.32-3.67,6.35l1.43-1.23c7.66-2.91,8.64,9.15.54,7.21-.25.44-.34.95-.6,1.4-1.65,2.83-4.29,6.5-5.51,9.41-.53-.66-1.68-1.23-1.1-1.98-.21-.06-.33-.18-.36-.38l5.29-9.43-.62-2.22-6.03,10.35h-.58c-.2,1.06-3.3-.39-3.46-.62-.05-.07.12-.54-.03-.74Z"/>
      <path class="st22" d="M51.09,237.09c-27.26-4-28.59-38.91-21.81-58.62,2.14-6.22,6.15-16.32,12.68-18.77.48.4-.31.58-.53.71-6.25,3.76-11.15,17.81-12.79,24.71-4.48,18.87-1.15,45.13,21.34,51.39.36.1,1.05.02,1.11.57Z"/>
      <path class="st0" d="M58.41,236.84c.13-.22.27-.44.5-.58,2.29-1.44,3.32-3.56,2.68-6.29-.56-2.36-2.12-3.07-3.56-4.71-8.93-10.14-5.57-31.8-2.21-43.44,1.41-4.88,4.11-9.13,2.38-14.35-.53-1.58-1.75-2.48-1.04-4.17,5.6,6.95,1.68,12.21-.35,19.42-3.09,10.97-5.85,30.96,1.36,40.98,2.26,3.14,6.37,5.14,4.54,9.77-.82,2.07-2.27,2.88-4.28,3.38Z"/>
      <path class="st22" d="M47.69,158.05c-.25,1.17-1.43.61-2.15.71l2.52-16.19c-.44-.87-1.2-1.17-1.68-2.12-1.84-3.63,2.11-7.18,5.66-5.21,2.51,1.39,2.79,4.54.83,6.43-.89.86-2.59.78-2.9,1.57l-2.28,14.8Z"/>
      <path class="st25" d="M51.9,228.85c-5.4-5.41-8.75-12.75-10.21-20.06-2.17-10.84-.25-21.96,3.31-32.22,1.09-3.15,2.74-6.17,3.42-9.43.44.49.23,1.48.17,2.09-.42,4.27-2.03,8.95-2.86,13.23-3.08,15.99-2.64,31.89,6.16,46.39Z"/>
      <path class="st32" d="M68.06,134.44c2.88.58.15,4.95-1.62,2.3-.85-1.26.31-2.56,1.62-2.3Z"/>
      <path class="st32" d="M59.94,131.27c2.23.45,1.29,3.69-.73,3.04-1.88-.6-1.11-3.41.73-3.04Z"/>
      <path class="st3" d="M66.8,147.95c2,.18,1.96,2.74.46,3.09-2.33.55-2.6-3.29-.46-3.09Z"/>
      <path class="st3" d="M51.43,137.29c2.94.26,1.85,4.13-.59,2.82-1.5-.81-.42-2.91.59-2.82Z"/>
    </g>
  </g>
  <g class="st27">
    <path class="st19" d="M160.89,71.84"/>
    <path class="st19" d="M158.05,71.4s.69.92,2.19.72"/>
    <path class="st19" d="M160.33,69.67s.61,1.64,3.03,1.39"/>
    <path class="st19" d="M171.03,67.37s-1.58,3.23-5.24,3.44c-2.27-.14-2.87-2.39-2.87-2.39"/>
    <path class="st19" d="M175.09,68.07s-1.89,3.59-5.98,3.09"/>
    <path class="st19" d="M177.61,69.83s-1.69,2.74-5,2.68"/>
    <path class="st19" d="M180.36,71.71s-1.49,3.02-4.82,2.79"/>
    <path class="st19" d="M183.07,74.77s-2.27,2.81-5.69,1.5"/>
    <path class="st19" d="M166.81,70.85c-.86-1.06-.4-3.09-.4-3.09"/>
    <path class="st19" d="M158.05,74.1s2.83-3.25,8.34-3.3c7.01-.07,11.74,6.61,11.74,6.61"/>
  </g>
  <g class="st27">
    <path class="st19" d="M120.01,72.51"/>
    <path class="st19" d="M122.84,72.08s-.69.92-2.19.72"/>
    <path class="st19" d="M120.57,70.35s-.61,1.64-3.03,1.39"/>
    <path class="st19" d="M109.86,68.05s1.58,3.23,5.24,3.44c2.27-.14,2.87-2.39,2.87-2.39"/>
    <path class="st19" d="M105.81,68.75s1.89,3.59,5.98,3.09"/>
    <path class="st19" d="M103.29,70.5s1.69,2.74,5,2.68"/>
    <path class="st19" d="M100.53,72.39s1.49,3.02,4.82,2.79"/>
    <path class="st19" d="M97.82,75.45s2.27,2.81,5.69,1.5"/>
    <path class="st19" d="M114.09,71.52c.86-1.06.4-3.09.4-3.09"/>
    <path class="st19" d="M122.84,74.77s-2.83-3.25-8.34-3.3c-7.01-.07-11.74,6.61-11.74,6.61"/>
  </g>
  <ellipse class="st18" cx="104.28" cy="107.87" rx="10.07" ry="7.58"/>
  <ellipse class="st18" cx="178.78" cy="106.33" rx="10.07" ry="7.58"/>
</svg>