<?xml version="1.0" encoding="UTF-8"?>
<svg id="Layer_1" xmlns="http://www.w3.org/2000/svg" version="1.1" viewBox="0 0 1024 1024">
  <!-- Generator: Adobe Illustrator 29.7.1, SVG Export Plug-In . SVG Version: 2.1.1 Build 8)  -->
  <defs>
    <style>
      .st0 {
        fill: #070b05;
      }

      .st1 {
        fill: #13312c;
      }

      .st2 {
        fill: #fdf9eb;
      }

      .st3 {
        fill: #9e4da8;
      }

      .st4 {
        fill: #c22e2c;
      }

      .st5 {
        fill: #c42e2c;
      }

      .st6 {
        fill: #080d06;
      }

      .st7 {
        fill: #060b04;
      }

      .st8 {
        fill: #27475e;
      }

      .st9 {
        fill: #fff;
      }

      .st10 {
        fill: #050904;
      }

      .st11 {
        fill: #375b78;
      }

      .st12 {
        fill: #c02d2b;
      }

      .st13 {
        fill: #040803;
      }

      .st14 {
        fill: #060a04;
      }

      .st15 {
        fill: #050903;
      }

      .st16 {
        fill: #010201;
      }

      .st17 {
        fill: #060904;
      }

      .st18 {
        fill: #070a06;
      }

      .st19 {
        fill: #040b04;
      }

      .st20 {
        fill: #040702;
      }

      .st21 {
        fill: #090f07;
      }

      .st22 {
        fill: #502e59;
      }

      .st23 {
        fill: #16341a;
      }

      .st24 {
        fill: #060a05;
      }

      .st25 {
        fill: #c12d2c;
      }

      .st26 {
        fill: #c22d2c;
      }

      .st27 {
        fill: #f4ebd9;
      }

      .st28 {
        fill: #6b4474;
      }

      .st29 {
        fill: #030903;
      }

      .st30 {
        fill: #502e5a;
      }

      .st31 {
        fill: #faf8f1;
      }

      .st32 {
        fill: #070c05;
      }

      .st33 {
        fill: #f6eeda;
      }

      .st34 {
        fill: #c32e2c;
      }

      .st35 {
        fill: #090e07;
      }

      .st36 {
        fill: #c12c2b;
      }

      .st37 {
        fill: #21424e;
      }

      .st38 {
        fill: #5f3967;
      }

      .st39 {
        fill: #040903;
      }

      .st40 {
        fill: #050a05;
      }

      .st41 {
        fill: #a7201c;
      }

      .st42 {
        fill: #597844;
      }

      .st43 {
        fill: #f9f7ef;
      }
    </style>
  </defs>
  <path class="st23" d="M660,117c14.21,38.35,13.47,86.28-10,122-.89,1.56-1.41,3.07-2.59,4.91-1.92,2.97-12.02,12.7-12.3,13.8-.31,1.23,9.7,19.48,8.17,24.02,37.78,21.53,74.18,45.49,109.05,71.45,14.55,10.83,46.25,32.62,53.68,47.82,1.94,5.94,3.43,12.08,4.47,18.44l-1.66,126.26c5.98,3.48,12.04,6.25,18.19,8.3,31.63,17.65,66.9,45.2,82,79,15.36,38.4,8.9,78.97-18,111-18.35,26.38-51.28,48.52-79.33,64.17-9.56,5.34-21.83,9.95-30.59,15.41-8.4,5.23-17.58,14.61-26.19,20.81-18.45,13.28-40.07,25.51-60.89,34.61-111.95,44.14-236.79,44.59-351,8-1.53-.54-2.87-1.58-4-2-23.07-9.76-46.18-20.62-68-33-13.19-8.56-25.76-21.61-37.68-28.82-7.65-4.63-18.08-8.19-26.34-12.66-34.93-18.9-76.18-47.34-95.98-82.52-18.23-35.02-18.42-71.99,0-107,10.02-17.57,27.83-35.31,43.53-47.97,11.84-9.55,24.54-17.89,37.98-25.02,1.79-16.88-1.76-34.31,3.21-50.79,4.65-15.42,35.58-46,47.77-59.23,18.1-19.66,37.02-38.7,55.51-57.99,6.71-5.75,13.77-12.74,21.16-20.98-14.49-32.25-16.64-69.21,4.84-100.02,5.45-9.53,12.09-16.42,21-23,28.34-19.48,59.62-22.61,92-13,.35-.05,2.13,1.83,2.84-.65-.41-13.88,3.81-29.56,15.16-38.35l17.06-7.57c5.85-15.12,11.73-25.62,28.68-30.51,19.86-5.73,35.4,1.98,46.21,18.34,1.1.63,14.78,2.54,15.49,2.21.92-.43,12.08-14.45,12.08-15.47,0-.33.21-.67.47-1,15.88-16.53,38.3-28.43,60.57-33.93,7.27-1.8,18.2-5.49,23.43.93Z"/>
  <path class="st13" d="M694,879c-104.01,45.46-244.63,45.64-351,8,.89-1.93,3.2-.42,4.52-.03,120.33,36.05,223.9,35.6,342.11-7.85,1.28-.47,3.42-2.21,4.37-.13Z"/>
  <path class="st19" d="M827,554c-.6,2.01-2.99,0-4.01-.49-5.01-2.41-9.81-5.22-15.05-7.12l2.1-126.93c-.36-5.02-2.09-9.49-3.89-14.11-.5-1.28-2.26-3.37-.14-4.36,5.64,11.54,4.91,16.57,4.96,28.46.14,36.82-1.2,73.29-.9,110.09.01,1.74-.26,3.36-.73,5.01.22,1.35,15.11,8.01,17.67,9.44Z"/>
  <path class="st35" d="M456,184c4.66-3.61,15.03-6.62,17-8.5,1.43-1.37,3.42-9.64,5.2-12.8,11.19-19.85,42.14-25.6,59.82-11.21,2.96,2.41,9.31,11.62,9.99,12.01,2.53,1.46,11.88.79,15.35,2.57,3.58-5.82,7.92-11.15,12.65-16.07,2.36.84-.23,2.71-.98,3.52-1.45,1.56-3.08,2.89-4.43,4.57-2.37,2.93-4.17,8.87-8.07,9.02-2,.08-13.47-1.4-14.91-2.21-2.19-1.25-6.8-9.42-10.59-12.41-17.93-14.15-48.15-7.7-58.41,12.64-2.01,3.99-2.32,8.47-5.08,11.92l-17.54,6.96Z"/>
  <path class="st10" d="M299,380c6.93-7.22,13.88-14.44,20.84-21.64-16.11-30.64-16.86-71.44,5.16-99.36-14.62,25.53-19.67,51.89-11.26,80.76,1.18,4.05,7.73,17.27,7.12,19.52-.42,1.52-16.22,16.59-18.86,19.22-.46.46-2.58,3.5-3,1.5Z"/>
  <path class="st40" d="M650,239c18.06-31.69,22.14-63.4,15.75-99.25l-5.75-22.75c4.08,5.01,6.64,19.13,7.71,25.79,5.2,32.31,2.68,69.48-17.71,96.21Z"/>
  <path class="st24" d="M891,744c24.2-34.79,33.54-65.27,18.12-106.63-.48-1.28-2.21-3.43-.12-4.37,16.99,38.02,9.69,80.39-18,111Z"/>
  <path class="st18" d="M111,728c-19.57-34.78-19.83-72.21,0-107,2.01.6,0,3-.49,4.01-17.24,35.7-17.05,63.33,0,98.98.49,1.02,2.5,3.41.49,4.01Z"/>
  <path class="st40" d="M438,223c-.59.09-1.05,1.23-3.17.85-2.4-.43-5-2.02-7.62-2.56-30.65-6.34-51.32-3.06-77.5,13.91-.88.57-3.08,2.98-3.71.8,27.17-20.04,60.12-24.51,92-13Z"/>
  <path class="st17" d="M271,852l68,33c-24.7-9.1-45.86-18.63-68-33Z"/>
  <path class="st28" d="M232,603l-.78,2c-4-.37-5.72,8.33-2.38,10.96,4.06-.82,9.64-1.88,12.14,1.62,4.41,1.92,9.7-1.24,12.82-4.06,1.65,1.01,3.3,2.01,4.95,3.01,1.61-1.37,4.6-3.12,5.28-1.08,2.08-4.98,5.3-3.8,9.5-2.08,1.51-2.19,3.75-2.48,6.06-1.42,16.86-9.55,33.65-19.45,50.37-29.71l2.51-.04c-.08-3.55,2.47-4.88,5.76-4.64,3.68-3.14,7.76-5.01,12.25-5.61,3.27-3.49,10.61-6.23,14.45-2.89,4.37-3.56,7.46-4.1,9.26-1.64,3.15-2.37,5.82-2.55,8.01-.54l4.44-.16c2.03-4.87,6.2-4.71,6.19.7,4.51.11,9.01,1.19,13.5,3.25,1.98-1.69,4.34-1.21,7.06,1.44,5.49-.29,9.82.8,12.99,3.28,6.42-1.91,13.29-2.22,20.63-.91,5.52-1.84,11.1-2.51,16.74-2.02.81-3.33,2.62-5.14,5.98-3.36,6.68-4.22,13.68-7.91,21-11.08,9.26-8.09,22.47-17.51,34.69-21.23,10.47-3.19,22.31-4.68,31.96-.82,2.85-1.06,5.11-.72,6.78,1.03l11.11,1.96c2.29,2.74,6,3.47,11.15,2.21,1.71,1.37,3.53,1.35,5.45-.04,5.92,1.08,11.67,1.08,17.78.42l1.52,1.21c2-4.7,6.16-5.86,12.5-3.48,1.5-2.97,3.44-5.3,5.81-7,3.29.18,5.45-.44,6.5-1.87,6.07-3.14,12.2-6.5,18.38-10.08-.51-3.57,1.87-4.44,4.71-2.61,2.43-3.11,5.85-5.16,10.28-6.15,1.11-3.56,5.03-5.9,8.59-4.62l3.62-1.87c6.28.35,9.53-1.33,9.75-5.04.49-.25,8.15.77,9.98,1.58,2.4-2.51,4.24-3.68,6.78-.47,4.59-.93,8.93.33,8.65,5.32-.13-1.47-.01-2.94,1.33-3.86,2.46-1.7,13.9,3.86,16.99,5.95,2.85-.19,4.83.54,5.95,2.18,4.11-1.06,8.22-1.17,12.32-.35,2.88-1.26,6.7-1.38,9.54.32,6.61-2.73,13.15-4.81,19.62-6.24,2.9-2.87,5.07-3.37,6.51-1.49.33,5.54.66,11.2,1,17,.01,1,0,2,0,3-.92,6.03-.92,12.03,0,18-.14,37.8-1.33,75.75-2.1,113.4-1.06,7.11-5.28,16.51-10.97,21.03-8.65,6.88-38.46,11.53-50.74,14.26-155.94,34.68-312.75,65.87-468.71,100.29-40.38,2.44-31.9-32.19-32.48-59.41-.04-1.95-1.01-3.88-1.05-6.03-.73-41.15.63-82.39.05-123.54,2.69.74,5.25,1.43,7.99,2Z"/>
  <path class="st2" d="M774,396c4.23,1.91,10.37,6.56,12,11l-1.28,1.76-10.83-2.6c-154.92,31.21-310.07,62.42-464.8,93.42-30.91,6.19-61.92,12.22-93.06,16.9l.95,52.29-1.98,1.24c-3.01-3.47-4.23-10.63-3-15,.2-14.15.54-28.49,1-43,.65-12.65,4.81-16.74,12.49-26.01,22.27-26.9,50.54-55.69,75-81,9.67-10.01,19.87-19.52,29.52-29.55.75-.67,1.21-.4,1.98,0,2.26,1.16,7.73,8.21,10.54,10.53,7.76,6.4,18.01,12.6,27.47,16.03,32.28,9.69,66.01,6.65,93-15,5.99-3.92,12.49-10.2,17-16,2.36-1.18,2.93.14,2.35,2.61s-12.51,13.06-15.58,15.55c-20.62,16.74-46.45,24.97-72.93,22.11,36.67,8.74,73.28-4.9,100.32-28.98,10.64,2.72,21.18,3.8,31.64,3.26,14.06-4.25,27.97-4.39,42.53-2.87,16.42-.42,24.55-5.77,37.64-14.58,21.7-3.99,37.57-8.03,48.88-29,2.48-4.6,7.18-17.87,3.63-22.36-.58-.73-15.42-9.56-16.26-9.14,6.87,32.2-15.29,56.63-47.86,54.89-9.31,8.12-18.23,13.35-31.45,12.51-3.28-.21-17.22-2.2-17.18-6,.01-1.05,1.11-1.36,2.26-1,11.57,4.13,21.1,5.45,32.68.18,3.9-1.78,9.52-7.86,12.26-8.74,3.65-1.16,7.82-.02,11.55-.45,18.13-2.13,35.59-18.66,35.6-37.49,0-3.32-4.46-18.99.39-19.37,1.12-.09,16.88,9.87,19.44,11.46,38.63,23.96,79.49,52.95,114.08,82.42Z"/>
  <path class="st9" d="M811,568c30.41,22.75,57,31.27,77.17,68.33,1.23,2.25,6.02,14.64,6.83,14.67,9.44,25.11,1.92,55.78-15,76-35.14,49.12-111.45,83.12-168,100-146.99,43.49-312.58,41.49-455-16-.07-.32.05-.67,0-1,177.97-36.65,351.97-74.32,522-113,6.36-3.06,13.73-9.38,18-15,8.27-14.31,10.56-30.6,10.69-47.19-.55-21.81-.37-43.67.55-65.58,0-2.13,1.01-2.27,2.76-1.23Z"/>
  <path class="st33" d="M786,407c10.36,11.24,8.41,35.42,3,49-2.46,5.84-8.63,12.7-14,16-9.59,7.85-23.7,7.66-35.55,5.58-27.83-7.69-53.02-11.32-79.45,3.42-10.12,5.83-19.26,14.04-29.7,19.8-2.54,1.4-17.28,7.24-17.3,8.2-10.19,3.08-21.5,1.49-31.97-.05l-28.36-5.24c-20.71-3.66-39.64,3.11-57.67,12.3-12.69,7.96-23.23,19-38,24-11.04,3.74-22.74,4.32-35.1,1.74-37.79-9.79-70.68-8.26-104.9,11.26-28.83,16.92-68.53,51.49-101,19-1.1-.1-1.71-1.09-1-2l-1-55c36.51-5.86,72.92-13.06,109.23-20.27,150.29-29.86,300.29-60.59,450.55-90.53l12.22,2.8Z"/>
  <path class="st9" d="M136,619c10.57-13.93,27.33-28.8,41.69-38.81,3.75-2.62,12.08-8.67,15.83-10.17,1.78-.72,1.3.65,1.58,1.37,2.71,6.93,2.6,7.97,7.9,13.62l1.44,5.15c1.83,44.13,1.96,88.32.39,132.58-.07,17.41.12,34.9,2.54,52.07,1.73,5.34,3.61,10.41,5.63,15.2-25.99-8.02-71.06-48.52-85-72-21-29.86-15.14-72.06,8-99Z"/>
  <path class="st11" d="M468,270c.82,4.45.04,4.96-3.95,6.38,1.21,2.86,1.38,5.61.51,8.24,2.53,2.11,3.23,5.6,2.1,10.48,2.72,1.2,2.19,3.84-.35,5.21,1.22,6.66-.71,11.82-4.25,17.44.68,1.32,1.05,2.59.74,4.13s-7.85,14.66-9.18,16.64c-3.9,5.82-8.23,12.2-15.34,14.26-5.02,6.91-12.15,11.28-21.38,13.1l-1.74,1.76c-12.75,4.15-26.42,2.95-39.56,1.74-1.77,5.22-7.31,6.1-10.22,1.25l-4.63-.19c-1.93-.42,2.56-3.01.43,1.45,3.07,1.92,4.35,3.95,3.82,6.12-60.05-33.81-46.16-126.07,21.99-140.51,33.84-7.17,61.87,4.82,81.01,32.51Z"/>
  <path class="st38" d="M232,603c57.13,11.7,79.77-36.89,128.8-46.7,34.6-6.93,64.51,14.01,101.64,2.64,25.86-7.92,43.81-33.52,71.34-36.66,27.46-3.14,50.07,12.55,79.47,6.47,29.56-6.11,51.45-35.81,78.38-38.62,30.4-3.18,49.63,15.8,82.9,3.9,5.81-2.08,10.89-5.54,16.47-8.02-.6,7.42,1.29,15.89-.99,22.99-.16-2.13-.5-4.13-1-6-1.27-.07-4.49,2.7-6.01,3.38-.72.32-1.71-.42-2.72-.11-.32.1.08,3.01-4.27.73v3.02c-3.12-2-4.97.34-8,1l3.99,1.98c-4.57,1.43-4.53-1.39-5.15-1.8-1.78-1.19-3.98,3.35-4.83,2.8-.12-.08.29-1.21-.52-1.7-1.58-.95-4.18-1.7-3.99.72-2.06-2.64-2.81-2.31-3.52,1-1.68.42-.4-1.68-1.6-1.96-2.41-.58-11.38-.01-13.38,1.97v-3.99c-4.16,3.22-10.87-3.85-11.51-3.86-.72,0-1.8,2.23-2.48,1.84-.09-.05.28-1.28-.72-1.99-1.3-.91-3.65-1.87-5.29-2-1.01.97,1.01,5.69-1.47,4.97-3.6-1.04-3.43-2.81-2.54-5.97-2.01-.22-.04,2.47-1.98,1.99.43-3.59-4.66-1.99-7.01-.98.13-7.19-3.19.07-3.57.06-2.33-.07-4.62-3.42-8.43-.07l-2.01-3.99c3.23,8.61-7.84,4.96-12.3,8-.98.66-.63,1.93-.72,1.99-.57.32-1.64-2.8-5.23-.78s-2.3,4.22-2.82,4.76c-.11.11-1.23-.82-1.41-.72-.83.46-.33,1.6-1.01,1.59-1.52-.02-3.32-.1-5,1.1-3.1,2.2-3.13,6.16-7.5,2.06-.43.49,1.13,2.64.94,2.92-.96,1.44-15.57,8.03-17.46,11.08l-1.48-1.99c-.52,6.2-2.88,2.67-4.09,3.44-.82.53-.41,2.27-1.44,2.56-2.54.72-.55-2.34-2.48-2l-3,3,1.99,1.98c-1.89-.43-4.63,2.71-5.48,2.68-.72-.02-8.12-3.77-7.53.32-1.93.5,0-2.21-1.98-1.98.92,4.14-3.95,4.61-2.01,6.98-5.88,1.25.36-3.62-4.52-4-.33-.03-3.67,6.81-2.99,1-3.01-.3-6.18,1.46-7-2.01-.06,3.56-5.57.71-6.38,1.17-.54.31-.6,3.4-2.61,2.84-.96-.27-1.15-2.47-1.66-2.82s-10.01,1.34-11.86-.19l1.01-1.98c-4.55-.28-9.09-1.4-13.49-2.3-.59-.12-.42-1.62-.95-1.59-1.92.11-3.91,1.99-6.56-.12-.61.8,2.17,4.49-1,5-1.33-1.51.21-5.79-.01-5.99-.36-.32-3.01.59-4.15.45-4.04-.5-6.47-3.94-5.35,1.54l-1.94-2.9c-5.05,1.76-10.42,2.02-15.59,3.38-8.86,2.32-13.89,6.31-21.37,11.11-2.47,1.59-9.16,2.95-6.6,5.41-3.44-.87-3.04,2.09-5.07,3.44-6.26,4.17-16.59,7.4-22.34,11.69-1.49,1.11-1.33,2.53-1.62,2.88-.9,1.07-1.57-2.92-2.48-2.98-.57-.04-2.07,2.26-1.49,2.98.27.34,2.42-.78,1.99.99-2.14,1.62-7.1-.35-8.37.04-.91.28-.53,1.89-.64,1.97-.58.42-1.57-1.62-2.47-1.7-2.02-.18-3.11,3.8-4.01-.28l-1.52,4.99-1.03-2.96c-3.93,1.4-10.11-.84-13.32-.06-1.19.29.02,2.44-1.62,2.02.41-5.81-9.28.42-9.91-.07-.32-.25-.18-2.27-1.73-2.79-3.98-1.34-9.45.74-13.01-2.55-.52-.48-.34-1.53-.41-1.57-.52-.3-2.07,1.55-3.47,1.61-1.61.07-7.96-2.67-10-3.19-2.97-.76-6.55,2.01-5.49-4.45l-1.98.49.98,3.51c-1.46-.65-8.85.11-9.52-.11-.81-.27-.07-2.19-.97-1.87s-5.67,2.98-6.01,2.97c-.99-.02-1.25-3.24-1.99-2.98-1.95,1.64-4.4,4.06-7.04,4.1-1.92.03-1.31-2.03-1.91-1.98-1.73.13-3.22,1.69-5.55-.12l.99,2.99c-5.08-2.83-6.18,2.36-7.13,2.84-.4.2-1.91-.96-3.09-.62-2.87.81-6.21,3.88-8.86,5.22-1.19.61-3.45-.69-4.36,1.52-.41,1,.55,4.38-.57,6.05-1.55.06-1.65-2.62-2.09-2.92-2.06-1.38-16.29,10.36-19.9,9.93l1.02,1.97c-1.26-.03-2.47.32-3.55.96-3.82,2.26-7.23,5.16-10.13,6.86-3.21,1.89-9.86,2.47-9.34,7.2l-1.48-1.99c-2.2,2.84-8.36,1.47-6.51,5.99-4.74-1.38-5.82-3.76-8.01,2-1.76.41-.62-1.59-1.04-1.92-.35-.26-2.18,1.28-2.83.88-.46-.29-.55-3.01-2.1-2.94.17,2.15-.32,2.07-2,.99.51,2.71-.69,3.17-3.01,4l-2.01-3.99c2.59,3.71-2.37,2.87-2.01,6.98-1.96.32-.54-2.44-.99-3.01-.21-.26-5.41,2.84-3-2.98-2.24.14-1.74,3.74-2.01,4.01-.15.14-2.02-1.12-4.04-.64s-1.97,2.58-2.38,2.54c-.92-.09-6.83-1.55-8.05-1.92-.3-.09.89-6.06-2.52,1-1.95.3-.55-2.28-.99-3.01-.24-.38-7.58,1.75-8.99,1.01,2.12-3.83-.81-2.65-1.04-3.65-.47-2.09,1.14-5.78.04-8.35l1.98,1.02.02-4.01h4.99Z"/>
  <path class="st41" d="M492,179c1.11-.47,2.35-.45,3.72.07.26,8.92,7.83,15.62,17.72,16.48,3.84.68,10.21-.74,10.49-4.89,4.93-3.74,6.35-10.07,5.16-16.2.91-1.56,2.21-1.38,3.92.55.48-.05.79.03.99.51.19.4-.13,1.03,0,1.49-.66,2.97.69,6.72,4,7,.35.3.73.87,1,1,3.92-.3,7.76-.25,11.53.14-2.18,5.84-4.7,6.73-11.14,4.91-.49.29-6.36,5.75-6.74,6.75-1.33,3.49,1.1,12.06,4.08,14.34,12.81,9.82,30.3,9.7,34.02-8.53l2.26-.6c.07.36.91,1.08,1.04,2.42.46,4.73-1.14,10.12.96,14.58.93,3.46-4.44,7.93-7.96,7.19-2.91,1.74-4.75,4.52-5.54,8.32-4.67,1.3-.97,12.26,1.12,14.57,1.32,1.46,6.73,3.99,8.86,4.7,6.75,2.28,13.05,1.86,19.39-.78.89-5.46,6.81-10.12,9.13-4.01-.29,2.13-1.66,4.16-1,7,6.16,1.53,3.21,4.99-1.93,5.08.49,5.19-2.36,7.02-8.53,5.5-7.76,7.54-10.67,21.16-1.35,29.32,8.18,7.15,18.26,6.66,28.16,4.33l1.65,1.77c-.17.45.1,1.36,0,2l.02,2.62c4.66,5.58-2.29,12.43-5.6,5.55-4.58-.13-9.55-.23-12.32,3.82,1.61,3.91-.74,4.27-3.93,4.58.57,3.46.17,6.63-1.18,9.52,4.56,6.94,2.23,9.91-6.99,8.91-4.22,2.79-6,6.03-9.68,8.82-2.41,1.83-7.16,4.57-10.09,4.98-6.03.84-7.86-2.6-12.21-4.33-2.94-1.17-7.28-2.05-10.44-3.47-10.14,5.07-16.66,10.82-29.02,8.93-7.33-1.12-18.27-10.37-18.23-18.25.02-3.47,2.41-9.28,2.67-12.68-.49-5.81,8.83-2.48,8.58.23-1.58,1.58-1.63,3.69-.17,6.32-5.61,3.71,8.46,8,10.48,3.75,10.32,2.36,18.25-5.85,17.78-16.25-.86-19.3-21.96-24.15-34.36-11.62-.62.1-1.2.12-1.62-.13-.79-.47-1.83-16.88-1.75-17.52l-.95.23c-.48.06-.79-.04-.99-.51-.19-.41.14-1.03,0-1.49-.61-6.16-1.18-15.46,7.43-15.1,6.99-7.82,2.59-13.35-6.43-15.08,1.07-4.99.49-6.46-1.72-4.42l-2.33-.84c-2-4.94-4.91-6.01-8.72-3.22-2.69-2.25-4.94-1.61-6.75,1.93-3.6-4.47-7.09-7.56-10.47-9.28-3.66-3.61-6.88-5.11-8-11-.46-11.37,1.86-13.03,6.97-4.98,14.05,14.46,30.34,1.24,30.12-16.03,3.34-3.48-4.25-13.77-8.95-12.45l-1.1-1.03c3.54-3.53,4.87-7.37,3.97-11.51.31-1.43.67-2.64,1-4Z"/>
  <path class="st27" d="M548,368c-2.25,1.02,1.65,2.12,2.2,2.3,11.75,3.92,22.44,4.14,33.51-2.1,3.3-1.86,6.65-6,9.6-7.45,1.86-.91,6.42.23,8.88-.09,13.01-1.74,26.39-8.03,33.65-19.33,7.75-12.06,4.52-24,4.17-37.33l19.97,11.52c6.15,14.18-7.32,33.92-18.47,42.47-12.63,9.68-20.26,7.63-33.49,11.51-6.11,1.79-11.56,8.24-18.8,11.2-18.71,7.66-28.53,1.58-45.7,3.3-11.71,1.17-16.95,5.4-30.89,3.87-3.71-.41-16.13-4.21-17.9-3.73-1,.27-13.14,10.91-16.2,12.88-27.58,17.82-65.44,25.27-96.48,12.42l-9.04-4.44c39.81,12.37,78.99.44,106.03-30.49.99-1.14,2.68-1.88.97-3.52,3.16-4.06,5.44-8.84,8.5-12.98,11.6,12.14,27.92,18.1,44.52,13.5,3.55-.98,9.46-5.08,11.67-5.31,2.04-.22,2.61,1.55,3.31,1.8Z"/>
  <path class="st42" d="M628.55,235.59c-2.54,2.7-5.72,4.98-8.54,7.41.75-8.48-2.16-16.24-5.82-23.69-1.56-3.17-5.26-5.45-5.25-9.81,0-2.48,5.98-14.5,7.54-17.51,2.23-4.3,12.36-18.56,12.22-21.33-.32-6.23-6.62-8.18-11.24-3.69-5.7,5.54-15.32,20.64-19.08,27.77-.89,1.68-3.17.58-1.37,3.25-6.53.56-4.87-7.21-5.25-7.81-.2-.33-1.83-.74-2.59-1.81-3.17-4.45-5.56-9.72-10.08-12.85,13.38-23.76,39.17-35.38,64.4-42.59,1.52.12,1.66.61,2.34,1.74,1.6,2.67,3.52,12.44,4.05,15.94,4.31,28.26-1.21,63.6-21.33,84.96Z"/>
  <path class="st8" d="M468,270c36.28,52.47-5.95,123.68-69.54,119.04-11.23-.82-24.25-4.46-33.46-11.04-.77-.55-6.83-6.06-7-6.51-.32-.84,1.33-.2,1.68-.82.6-1.06.21-2.53.33-2.69.24-.31,2.52,1.42,2.99,1,.34-.3-1.65-3.06.51-3.99.47,6.23,1.54,2.7,2.32,3.19,1.97,1.23,2.86,6.86,8.17,1.3l-1.99-2.49c13.22,1.35,29.5,2.99,42.25-1.09.9-.29.72-1.43,1.26-1.65,2.54-1.04,6.76-1.04,9-4.26l1.48,1.99c-.25-3.53,4.5-2.28,5.76-4.32.55-.9.11-2.48.27-2.68.07-.09,1.32.94,1.77.74.21-.09,1.77-3.02,3.22-3.23l-1.99-1.49c1.62.03,3.22-.05,4.72-.79,8.28-4.07,14.81-16.69,18.49-24.56,1.04-2.21,2.65-4,2.73-4.27.39-1.3-.95-2.76-.95-3.81,0-.6,4.11-6.86,4.63-10.56.39-2.79-.76-4.9-.24-7.09s2.7-1.7,2.63-2.44c-.08-.85-1.53.11-2.21-1.91-.83-2.45,1.03-7.07.08-8.47-.68-1-4.89-.14-4.87-2.11,6.57-.53.92-7.88,2.22-9.85.47-.72,4.38-1.83,4.75-2.27.64-.78-2.87-3.54,1.03-2.9Z"/>
  <path class="st34" d="M617,302l-13.49,2.09c-15.76-1.37-27.06-10.77-23.42-27.51.39-1.81,1.95-2.72,1.95-4.07,0-.93-2.4-.09-2.03-1,.47-1.17,3.19-1.43,4.43-2.57,1.96-1.79,5.41-10.08,5.07-3.93,2.29.55,1.76-3.41,4.48-4l-1.99,3.99,2.99.02c-.66-8.58.24-4.69,5.02-6.49,2.77-1.04-.91-2.06-1.02-2.52,15.97,1.11,27.42,18.13,24.94,33.44-.84,5.18-5.31,8.18-6.94,12.56Z"/>
  <path class="st36" d="M600,249c-7.39-2.78-5.73,3.13-7.38,5.05-2.85,3.31-8.79.04-7.63,4.95-4.14-2.68-9.06-1.63-14.16-3.33-1.97-.66-8.45-3.89-9.71-5.29-2.02-2.24-5.19-13.01-3.87-15.2.23-.38,2.03-.67,2.62-1.78,1-1.87,1.65-5.03,2.44-6.11s4.05-1.51,3.72-4.3c3.17,4.73,6.78-3.46,8.98-4,7.83-1.93,16.13,1.52,20.98,7.52,6.52,8.08,5.3,13.02,4.02,22.48Z"/>
  <path class="st12" d="M498,288c.16-.02.5-.9.98-1.01l2.03,17.01c1.68-.76,1.76-2.34,3.82-3.66,3.8-2.43,15.25-4.79,19.21-3.74.82.22,9.14,6.2,9.97,7.17,5.12,5.92,6.49,18.08,1.84,24.59-1.13,1.58-7.9,7.18-9.6,7.49-2.44.44-4.59-1.23-6.61-.89-.78.13-.16,1.99-2.13,2.13-5.67.4-11.6-1.57-14.52-6.59l3.99-1.51c.8-1.09-6.98-3.38-2.01-4.99l1.98.5c-1.62-4.4-1.92-1.53-4.42-1.44-1.08.04.16-2.52-1.54-2.06l-1.01,2c.9-11.69-.4-23.48-2-35Z"/>
  <path class="st26" d="M491,183c3.16-.36,1.6.7,1.12,2.61-.95,3.76-1.13,5.4-4.12,8.38,6.95-1.21,5.28,1.24,7.64,3.91,2.16,2.45,5.14,4.56,5.3,8.67.02.46-1.61.27-1.74.9-.68,3.19.14,6.18-1.7,10.53-7.84,18.57-26.06,18.71-36,1.99-.99.05-.17,5.49-.12,6.77.08,1.8,1.79,2.55-1.38,2.24-.51-2.7-1.15-11.63-.9-14.38.74-7.93,6.79-15.93,14.2-18.82,5.91-2.31,14.83-.49,17.25-7.77.64-1.93.14-3.62.45-5.03Z"/>
  <path class="st26" d="M573,202c-.51,2.19-4.33,11.87-5.27,12.74-.66.61-10.32,4.94-11.46,5.04-.79.07-10.31-.79-10.82-.97-.49-.17-.65-2.92-1.44-1.81-.36.51.78,2.41-1,1.99-.59-4.01-5.68-4.41-8.04-6.75-3.83-3.8-6.44-13.98-3.06-18.6.77-1.04,7.65-2.95,5.08-5.64,1.87-.79,4.51.91,5.59.9.7,0,.26-1.76.43-1.89,2.23-1.83,1.85,1.84,2,1.97,2.51,2.2,1.09-3.79,3.99-3.01.27-1.62-1.32-1-2.36-.88-3.63.41-3.69,1.73-7.63-.1,15.34-2.88,30.78-.13,34,17Z"/>
  <path class="st26" d="M533,175c-.17.02-.39.89-.87.88l-1.12-1.87c-.21,4.06,2.54,8.04-2.01,9.5,4.2,1.23.85,2.44-.26,4.81-.47,1,.18,2.13.13,2.23-.48,1.06-2.43.11-2.88.46-2.29,1.8,2.6,1.76,2,2.99-3.79-.16-7.12,3.46-10.62,3.68-5.41.35-12.87-1.63-17-5.06-.59-.49-5.02-5.5-5.17-5.86-.4-.97.85-1.94.57-2.58-.13-.3-3.7-.49-.77-5.16l-1.99,2.47-1-2.48c5.19-21.27,32.66-23.46,41-4Z"/>
  <path class="st31" d="M614,869c2.66.32,2.54,1.24,0,2-1.62.76-3.26,1.48-4.95,2.05s-3.34,1.1-5.05,1.35c-84.06,12.24-172.16,5.53-255.27-10.19,71.2,27.99,148.53,28.55,223.35,22.62,2.39.08,4.19.53,2.91,3.17-12.46,2.7-26.42,4.54-39,3l-10,1c-71.42,3.97-145.51-8.05-210-40-1.43-1.45-3-.69-1-2,37.33,8.39,74.55,16.07,112.71,20.04,62.2,6.47,124.32,5.04,186.29-3.04Z"/>
  <path class="st39" d="M779,697c-5.36,2.58-12.19,4.03-17.99,5.51-79.13,20.23-163.76,35.77-244,53-86.57,18.59-173.26,36.87-260.01,54.49l522-113Z"/>
  <path class="st36" d="M587,339c1.92-1.27,4.42-.47,4.02-2.99,1.69-.42.4,1.2,1.47,2l2.52-1.02c-1.49-1.73-1.49-3.96-2.61-5.74-.88-1.38-2.55-.76-2.39-2.24,5.4,1.99,2.24-8.31,3.48-10.05.96-1.35,4-.17,5.51-.97l-3.99-1v-.98c2.57-.3,2.81-3.66,5.99-3.02l-2.99-1.98c3.14.42,13.69-2.28,15.49-.02.57.72-2.18,2.75,2.5,2l-.99-2.99,2.99.99c.36-2.04-1.82-2.65-2.05-4.6-.17-1.44,1.01-2.12,1.06-2.4,4.95,11.24,7.8,24.46-4.31,32.19-8.63,5.51-16.15,3.68-25.69,2.81Z"/>
  <path class="st20" d="M712,827l.75,1.24c-130.88,37.85-280.86,40.57-411.52.03-13.48-4.18-30.85-9.74-43.56-15.45-2.5-1.12-.65-1.72-.67-1.81,30.55,11.69,61.75,21.76,93.81,28.69,117.32,25.38,246.09,21.66,361.19-12.69Z"/>
  <path class="st5" d="M468,240c.85-2.36,2.71.24,3.52.99,2.41,2.24,4.57,4.77,6.99,7.01,1.16-5.28,3.67-4.97,7.49-1.99l.02-3.01c3.1,1.66,6.62.9,9.99,1.02l-2.99,1.98,3,4.01,1.48-1.99c4.56,1.91,3.28,3.11,1.51,6.99,1.06,1.01,5.57-4.79,4,1l4-.99c-1.91,4.21.13,2.39,1.43,4.01,1.67,2.08,1.88,5.01,1.06,7.51-.53,1.59-6.47,11.37-6.5,5.47-1.02-.77-5.56,7.31-4.98,8,2.93-2.02,4.82-1.3,3-5,3.14,1.07,4.63-1.71,3.98,3-2.93-2.32-3.1,4.97-7.98,1.99.13,2.72,3.46,3.56,0,6-6.71-21.33-13.35-30.59-29-46Z"/>
  <path class="st29" d="M706,851c-.33.5-.33.95-1.02,1.45-3.84,2.76-18.07,8.49-23.31,10.73-97.16,41.41-228.93,42.99-328.19,7.85-4.63-1.64-38.12-14.45-38.46-16.52-.06-.36.53-.59.98-.5,41.19,18.92,85.31,31.73,130.51,36.99,26.43,3.08,52.9,3.16,79.49,3.01l10-1c12.78-.1,26.3-1.38,39-3,1.83-1.22,3.77-2.36,5.94-2.85,7.19-1.62,40.66-8.85,42.5-7.63.47.31.95.53,1.57.48,21.39-5.91,42.57-12.64,62.6-22.37,4.95-3.77,12.16-6.08,18.4-6.63Z"/>
  <path class="st39" d="M315,852c1.6-1.04,1.14-.87,3.01-.61,13.48,1.89,29.9,7.45,43.97,10.13,96.7,18.37,196.67,18.99,293.25-.8,16.91-3.46,33.47-9.12,50.29-12.73,3.07-.66.49.95.49,1l-3.44,2.17c-28.72,8.12-58.64,15.76-88.56,17.83-62.28,9.11-123.75,10.58-186.38,3.88-37.76-4.04-76.03-11.02-112.62-20.88Z"/>
  <path class="st21" d="M203,585c2.5,2.66,2.76,6.57,3.04,10.46,3.99,54.83-2.85,114.75.92,170.08.58,8.46,2.44,17.34,8.03,23.98.26,2.74-.76.86-1.99.48-2.79-5-5.97-11.02-6.74-16.76-4.87-36.15-.78-83.26-1.22-120.78-.03-2.36-1.05-4.55-1.08-6.92-.27-20.15,1.08-40.57-.96-60.54Z"/>
  <path class="st43" d="M706,851c-13.78,4.98-26.73,11.92-40.48,17.02s-26.83,9.19-40.52,11.98c-2.87.9-2.95-2.31.86-3.42,13.82-3.47,28.07-7.45,40.82-12.96-15.62,3.46-31.4,6.39-47.25,8.6-.85.12-1.75-.07-2.67-.28s-1.85-.56-2.75-.94v-2c31.07-4.54,62.1-10.52,92-20-.07.62.17,1.74,0,2Z"/>
  <path class="st15" d="M457,540c2.51.91-1.12,1.57-1.75,1.74-27.26,7.37-56.38-7.56-83.74-5.73-18.7,1.25-34.08,8.59-50.5,16.5-1.02.49-3.41,2.5-4.01.49,14.41-8.45,34.76-16.71,51.51-17.99,27.93-2.14,63.61,13.41,88.49,4.99Z"/>
  <path class="st32" d="M613,509c0,.07,1.17-.15,1,.99-43.53,6.42-66.36-18.89-110.68,2.83-2.06,1.01-6.04,5.22-8.32,3.18,10.9-6.84,26.63-12.92,39.52-13.98,27.53-2.28,50.98,12.73,78.48,6.98Z"/>
  <path class="st7" d="M811,568c-3.02-.56-1.94,1.53-2,3.45-.27,7.98-.85,16.15-1.04,24-.65,26.16,5.23,65.23-10.96,86.54-2.19-.64.24-2.82.8-3.71,14.59-23.05,6.97-74.51,9.22-102.78.11-1.36.7-8.2.99-8.51.96-1.01,2.26.45,3,1Z"/>
  <path class="st0" d="M775,472c1.35,1.46-1.01,2.03-1.96,2.53-25.25,13.19-48.83-3.91-74.5-3.55-12.9.18-23.2,4.07-34.52,9.53-1.02.49-3.41,2.5-4.01.49,9.84-5.66,22.12-10.08,33.52-10.98,27.96-2.21,55.86,17.75,81.48,1.98Z"/>
  <path class="st14" d="M136,619c-22.64,29.84-27.59,66.01-8,99-1.65,1.04-4.32-4.68-4.82-5.68-15.83-31.77-9.57-63.54,9.99-91.65.34-.49,2.26-3.78,2.83-1.67Z"/>
  <path class="st6" d="M463,387c-25.2,22.38-61.76,26.32-93,15,.92-1.98,3.18-.37,4.5-.01,34.78,9.46,58.81,4.45,88.5-14.99Z"/>
  <path class="st35" d="M880,727c16.25-22.72,22.79-48.54,15-76,.07,0-.15-1.17.99-1,8.83,25.85,2.2,53.5-13.16,75.33-.34.49-2.26,3.78-2.83,1.67Z"/>
  <path class="st39" d="M774,396c.94-2.46,2.66.36,3.49,1.01,6.79,5.34,12.56,10.28,15.03,18.97,2.28,8.02,1.18,30.56-1.82,38.23-.28.71-.69,4.31-1.7,1.79,5.15-12.23,5.19-38.19-3-49-3.65-4.82-7.56-7.22-12-11Z"/>
  <path class="st16" d="M212,512c.62,14.23.59,28.78,0,43,.32,5.46.74,9.89,3,15,.3.68.69,1.32,1,2-.04-.04-.64.78-1.02.46-1.63-1.34-3.73-8.57-3.99-10.96-1.8-16.54,1.35-36.12,0-53,1.6-1.72,1,2.97,1,3.5Z"/>
  <path class="st33" d="M212,555c-.81-13.96.26-28.88,0-43h1c-.63,12.23.17,25.16.02,37.51-.02,1.69.64,4.44-1.02,5.49Z"/>
  <path class="st3" d="M790,541c-2.44-4.46-1.24-13.04,0-18,.05,5.99.02,12.01,0,18Z"/>
  <path class="st3" d="M790,509c.12,3.65-.04,7.35,0,11-2.26-4.86-.43-11.57-1-17,.45.02.83-.06.99.5.09,1.83-.05,3.67,0,5.5Z"/>
  <path class="st26" d="M538,184c-2.34,2.97-6.97-5.14-4-7,1.25,4.05.63,4.11,4,7Z"/>
  <path class="st22" d="M722.35,577.74c.11.31,1.68.31,1.63.71-.08.69-1.32,2.1-1.49,3.52-.36,2.98-.06,6.36-.73,9.28-.75,3.23-7.92,18.16-9.91,20.54-.15.17-1.29-.42-1.79-.11-6.24,3.93-9.02,7.26-16.79,9.05-7.03,1.63-15.5.43-22.25-1.74l-.99,3.99c.66-6.45-2.39-5.15-5.52-7.99-39.83-36.24,18.51-95.36,50.02-56.02,5.35,6.69,5.32,11.39,7.83,18.75Z"/>
  <path class="st22" d="M411.64,615.4c3.83,2.64,11.31,15,11.82,19.45,5.02,43.57-59.74,52.51-65.99,13.21-.17-1.09,1.16-2,1.11-2.53-.09-.91-1.47-1.82-1.57-3.06-.73-9.19,8.18-23.07,16.12-27.83,12.34-7.39,26.65-7.42,38.49.76Z"/>
  <path class="st30" d="M563.57,673.6c-1.04,2.09-6.18,7.69-8.05,9.42-3.17,2.95-7.72,3.22-6.54,7.97-1.95.33-.5-2.4-1.03-2.95-.78-.79-6.51,1.01-8.4.99-3.21-.04-13.13-3.03-15.28-5.32-.76-.82-.69-2.29-1.23-2.96-.96-1.18-2.27-1.26-3.27-3-5.18-8.98-3.89-20.45,1.79-28.69,16.91-24.51,58.64-9.03,42.01,24.54Z"/>
  <path class="st22" d="M309.99,703.99c.15.11.43,2.67.95,3.48.47.74,1.6-.48,2.5.5,10.03,10.77,2.99,28.49-10.67,31.38-1.42.3-8.92-.25-9.56-.65-.28-.18-4.27-4.25-4.66-4.75-2.47-3.16-6.2-10.34-5.48-14.35.45-2.49,1.66-3.01,2.38-4.68.43-1.01-.3-2.6.02-2.98.84-1,3.01-.62,3.4-1.07.63-.72-.29-3.3.17-3.81.18-.19,2.79-.07,3.95-.53,2.55-1.01,6.59-3.93,9.24-3.32,1.23.28,2.03,1.82,4.24,1.88,1.26.03,3.36-1.2,3.51-1.09Z"/>
  <path class="st9" d="M809,657c6.58.68,2.46,15.5.83,20.8-10.24,33.22-48.64,63.77-78.87,79.3-104.98,53.93-237.13,57.07-350.57,35.88l-14.06,3.86c-5.23-.92-10-.21-14.33,2.16-4.94-1.14-9.95-2.4-14.99-3.01-.24-1.44,1.76-1.39,2.79-1.68,21.01-5.86,45.76-8.99,67.43-13.58,120.63-25.58,240.99-52.56,361.56-78.44,20.63-5.36,38.14-23.63,40.22-45.28Z"/>
  <path class="st9" d="M352,799c2.04-6.51,9.5-3.96,13.47-4.05,1.73-.04,12.56-3.93,15.03-3.95.47,0,6.88,1.67,8.94,2.05,108.82,19.83,260.99,13.21,356.91-47.2,26.97-16.99,63.8-49.93,64.16-84.38.02-1.5-.96-3.08-1.51-4.46.63-6.58-1.12-13.59,1.01-20,2.6-1.85,11.7,12.18,12.87,14.62,16.14,33.73-17.24,69.61-41.98,88.78-110.6,85.65-297.95,88.76-428.9,58.6Z"/>
  <path class="st1" d="M420.01,281c27.52-3.99,30.96,21.13,4.99,27.01-.17,2.68,2.49,4,2.95,6.54,4.83,26.36-22.97,25.65-28.97,4.45-8.05,5.02-11.9,11.19-22.53,8.05-15.38-4.55-9.57-21.59,1.56-26.55-14.84-2.46-19.97-29.03-.66-28.42,5.09.16,9.52,3.12,14.09,4.9,3.62-9.2,15.13-26.66,25.08-13.99,4.43,5.64,3.51,11.24,3.48,18.02Z"/>
  <path class="st25" d="M585.58,308.45c1.94,1.8,3.84,3.92,4.8,6.47,1.39,3.7-1.31,3.05-1.29,3.51.18,2.99,1.89,3.74-.09,7.91-1.46,3.07-.63,2.72-1.72,5.38-5.9,14.33-31,15.12-39.74,3.27-5.9-8-3.3-11.69-3.49-20.35,4.54-4.84,6.93-9.56,13.94-11.63l1,3-.99-4.98c1.72-.65,2.28,1.48,3.49,1.6,1.12.11,2.96-1.18,4.54-1.19,7.48-.06,14.09,1.94,19.55,7.03Z"/>
  <path class="st4" d="M559.59,262.44c4.49,3.62,5.68,9.3,8.41,14.08-2.8.8-1.03,1.54-1.36,2.24-.14.3-1.74.26-1.66.71.34,1.98,2.79,2.03,3.01,3.51l-3.01.51,2,1.49c-2.68-.4-.99,1.24-1.98,2.43-1.36,1.64-6.66,6.83-8.44,7.65-1.54.72-11.54,3.29-12.91,2.99-1.24-.28.04-2.48-1.64-2.05l-1.51,4.98c-3.95-2.82,2.44-1.14,0-4.01-.66-.78-1.76-.14-1.98-.28-4.38-2.85-9.47-3.97-13.51-9.46-2.48-3.37.52-1.12.98-3.22-3.71-.07-2.26-5.58-4.99-8l3.99-1.03-3-1.49,3.01-2.49-3-1c4.98.88,2.74-3.05,3.63-5.02,1.97-4.37,5.16-1.72,5.37-1.97.24-.3-.56-2.27.6-3.11,7.19-5.25,21.27-2.88,28,2.54Z"/>
  <path class="st4" d="M543.78,238.84c-.67.42-1.92.09-2.77.17-.31,1.96,2.4.54,3.01,1,1.04.78-5.55,10.9-10.01,7l1.98,2.49c-20.96,16.11-49.79-16.25-27.01-34.02,5.4-4.21,5.14-2.81,10.6-2.55.5.02.37-1.9.84-1.89,3.97.14,15.53,6.8,18.02,10.02,2.05,2.66,7.85,16.21,5.34,17.78Z"/>
  <path class="st9" d="M614,871c22.88-3.33,48.63-7.53,70.26-14.2,1.6-.49,2.91-1.17,4.73-.79l-26.75,11.74c-12.6,4.25-25.23,8.55-38.26,11.27.16.41,1,.82,1.01.98.04.48,0,.79-.51.98-16.47,3.15-32.83,6.89-49.49,9.02-.99-1.55-3.92-1.17-5.53-1.06-78.73,5.75-150.08,5.31-224.74-24.18l-11.73-5.76c92.59,19.79,187.02,25.68,281,11.99Z"/>
  <path class="st9" d="M536,893c-2.3,1.83-6.86.98-10,1,2.3-1.83,6.86-.97,10-1Z"/>
  <path class="st37" d="M407.78,291.33c1.17.72,5.43,6.12,5.8,7.68,1.64,6.89-7.58,9.02-12.8,7.7s-8.13-11.15-3.87-15.06c1.58-1.45,9.25-1.32,10.88-.31Z"/>
</svg>