<?xml version="1.0" encoding="UTF-8"?>
<svg id="Layer_1" xmlns="http://www.w3.org/2000/svg" version="1.1" viewBox="0 0 1024 1536">
  <!-- Generator: Adobe Illustrator 29.7.1, SVG Export Plug-In . SVG Version: 2.1.1 Build 8)  -->
  <defs>
    <style>
      .st0 {
        stroke: #120f0d;
      }

      .st0, .st1 {
        fill: #120f0d;
      }

      .st0, .st2 {
        stroke-miterlimit: 10;
      }

      .st2 {
        fill: #66bc46;
        stroke: #000;
      }

      .st3 {
        fill: #0260aa;
      }

      .st4, .st5, .st6, .st7, .st8, .st9, .st10 {
        display: none;
      }

      .st4, .st11 {
        fill: #46727a;
      }

      .st5, .st12 {
        fill: #020101;
      }

      .st13 {
        fill: #060504;
      }

      .st14 {
        fill: #eeeeec;
      }

      .st15 {
        fill: #f9f9f9;
      }

      .st16 {
        fill: #b38365;
      }

      .st6 {
        fill: #010000;
      }

      .st17 {
        fill: #040303;
      }

      .st18 {
        fill: #493e36;
      }

      .st19 {
        fill: #3a3939;
      }

      .st20 {
        fill: #3b3a39;
      }

      .st7 {
        fill: #fefefe;
      }

      .st21 {
        fill: #3a3938;
      }

      .st9 {
        fill: #faf9f9;
      }

      .st10 {
        fill: #f8f7f7;
      }

      .st22 {
        fill: #020203;
      }

      .st23 {
        fill: #040403;
      }
    </style>
  </defs>
  <path class="st22" d="M724.46,280.58c-1.69-1.9-6.2-4.13-6.26-4.52-.2-1.3,5.46-20.28,6.26-23.98,13.45-62.05,7.63-147.22-59.36-172.61-4.74-1.79-17.94-4.01-20.3-5.52-1.99-1.27-8.99-10.44-11.95-13.19-19.01-17.64-42.48-29.71-66.46-38.34,0,0-26.16-7.32-35.12-8.37h-.01v.02c-23.8-2.8-72.15-3.42-95.87,0-10.41,1.5-40.81,10.33-40.81,10.33-89.97,31.65-121.43,135.39-103.95,225.74.8,4.12,6.48,24.32,6.25,25.9-.07.45-5.26,4.25-6.69,6.07-14.58,18.55-7.81,50.9,2.66,69.98,9.79,17.84,30.62,37.39,51.41,25.89,8.13,28.06,22.02,55.99,44.17,74.73,17.48,14.79,38.58,24.73,60.28,30.98,1.9,8.77,1.56,19.08-8.04,22.2-.32.1-.61.19-.88.28.58,13.25,21.2,45.92,29.32,56.28,0,0,157.8,34.67,116.49-54.02-8.29-2.92-14.32-10.34-14.89-19.89-.08-1.31.46-2.47,1.32-3.34-.31-.45-.6-.89-.92-1.34,51.68-16.57,87.79-53.5,99.72-105.89,4.51.81,7.9,3.89,12.8,4.02,38.64,1.03,65.86-73.51,40.83-101.41Z"/>
  <path class="st22" d="M412.98,1520.7c-5.42,2.39-9.39,2.83-16.28,3.84-9.24,1.36-27.15,1.34-36.07,0"/>
  <path class="st22" d="M688.13,1512.25c-7.7,6.42-16.16,10.48-25.64,12.28s-26.27,2.54-37.02,0"/>
  <path class="st16" d="M671.77,209.71c4.52,34.78,1.65,70.13,3.98,105.05,1.76.36,2.36-.85,3.05-2.24,1.84-3.74,3.11-10.77,5.05-15.43,6.46-15.51,16.83-29.1,34.32-17.93,30.72,19.63,4.58,97.93-32.46,98.62-3.28.06-10.04-1.74-11.43-5.03-.74-1.75,2.23-9.74-1.85-8.81-1.44.33-7.51,24.97-9.01,29.04-30.59,82.74-119.74,106.26-197.48,90.48-54.28-11.02-93.2-40.2-112.96-94.42-1.34-3.67-6.55-23.86-7.54-24.64-4.21-3.33-1.87,6.28-1.87,6.97.04,5.11-9.49,6.61-13.57,6.09-38.04-4.77-61.22-88.54-25.36-100.52,23.83-7.96,30.03,19.15,36.48,36.85.97,1.2.98,1.13,1.91-.01,1.36-1.65,2.15-10.43,2.36-13.29,1.31-17.93.8-36.18,1.87-54.13.28-4.71,2.24-37.28,3.77-38.39,46.35-5.74,90.31-22.28,128.69-49.6,1.54.98-.31,2.17-.95,2.95-1.98,2.44-4.63,4.45-6.63,6.9l-25.17,23.07c1.07,2.32,19.87,5.16,23.26,5.41,36.38,2.69,71.8-9.73,96.81-37.36,1.42.77-.22,2.36-.68,3.23-1.94,3.64-14.52,22.01-14.03,23.76,1.37,2.21,3.93,1.59,6.04,1.42,25.08-2.13,47.67-20.08,63.24-39.23,6.16,27.19,25.28,50.55,50.14,61.17l.02.02h0Z"/>
  <path class="st23" d="M589.18,208.84c15.49-1.07,34.97,5.25,46.72,15.92,3.59,3.26,13.45,14.05,10.01,19.24-1.01,1.3-2.28,1.01-3.62.76-4.9-.92-15.27-7.05-21.81-8.94-14.35-4.14-26.36-3.84-41.1-3.72-4.28.04-13.07,2.85-15.2-3.83-4.2-13.18,15.84-18.8,25.01-19.43h-.01Z"/>
  <path class="st17" d="M423.07,208.82c9.17-.4,37.96,4.94,30.43,19.75-3.47,6.83-10.36,3.61-15.49,3.53-14.81-.24-27.76.48-42.06,4.7-3.51,1.04-18.64,7.95-19.69,7.86-3.59-.28-2.04-6.47-1.16-8.82,5.67-15.1,33.32-26.38,47.97-27.02h0Z"/>
  <path class="st5" d="M592.97,253.09c67.04-6.49,63.47,103.97-4.78,90.93-49.95-9.55-47.09-85.9,4.78-90.93Z"/>
  <path class="st5" d="M420.25,253.04c65.83-2.56,64.63,100.09-4.82,90.98-50.06-6.57-45.83-89.01,4.82-90.98h0Z"/>
  <path class="st12" d="M447,399.35c8.73,4.67,15.81,10.86,25.37,14.52,28.43,10.9,66.41,8.98,90.87-10.62,1.75-1.41,5.7-7.59,7.03-3.27,1.22,3.96-1.78,5.92-4.32,8.05-27.7,23.18-78.94,21.88-108.81,3.91-4.21-2.53-13.04-6.97-10.14-12.59Z"/>
  <path class="st12" d="M499.89,333.69c3.14-.55,9.35-.05,5.52,2.76-1.83,1.34-4.58.96-6.74,1.87-30.15,12.65-19.46,44.26,13.39,42.39,3-.17,14-3.6,14.66-.52.55,2.57-5.65,3.82-7.36,4.16-13.07,2.6-33.85.39-40.48-13.61-7.43-15.7,5.48-34.32,21.01-37.04h0Z"/>
  <path class="st12" d="M322.63,354.1c-10.59-2.5-10.87-19.43-4.72-27.02,2.63-3.25,8.16-5.08,8.46-5.51,1.85-2.7-9.74-20.54-16.35-19.42-1.84.31-7.42,5.73-8.26,4.74-2.91-3.42,6.82-12.04,15.52-6.73,9.11,5.56,18.37,27.44,18.2,38.23-1.03,1.34-1.88,1.43-2.86-.03-1.3-1.94-2.39-13.48-4.74-13.66-8.98,3.39-12.78,12.01-9.22,21.24.6,1.55,4.82,7.35,3.98,8.16h-.01Z"/>
  <path class="st12" d="M691.89,321.64c14.59-.71,16.61,28.16,7.01,32.35-5.3,2.31.37-6.43.63-7.22,3.34-10.39,1.53-19.03-9.51-22.17-.84.65-3.91,18.1-6.66,14.74-1.08-12.18,12.28-44.02,26.61-40.92,3.94.85,10.26,8.42,6.13,8.45-.41,0-4.76-4.35-6.87-4.75-6.98-1.31-16.91,12.75-17.34,19.52h0Z"/>
  <path class="st7" d="M594.9,257c50.31-2.31,59.31,77.89,7.28,83.33-57.92,6.06-61.26-80.85-7.28-83.33Z"/>
  <path class="st7" d="M394.16,328.19c-15.43-16.6-14.05-45.75,3.02-60.61,31.8-27.7,78.29,6.07,65.03,46.73-9.2,28.19-48.75,34.64-68.05,13.88h0Z"/>
  <path class="st4" d="M589.12,275.65c35.66-6.3,39.45,46.43,9.99,51.66-32.4,5.76-39.63-46.42-9.99-51.66Z"/>
  <path class="st11" d="M420.16,275.65c39.46-6.93,39.05,57.16,1.92,51.64-27.01-4.02-27.42-47.15-1.92-51.64h0Z"/>
  <path class="st8" d="M601.71,291.16c-3.73,3.61-3.92,5.94-.58,6.97,1.44-1.16,2.9-1.85,4.38-2.05,3.11,11.72-5.6,21.85-16.48,15.6-12.52-7.18-4.05-29.33,12.69-20.52h-.01Z"/>
  <path class="st10" d="M601.71,291.16c.77.41,2.06.6,2.6,1.22.87,1.02.87,2.47,1.2,3.7-4.81,10.76-14.72-3.35-3.8-4.92Z"/>
  <path class="st6" d="M433.7,291.16l-.64,2.07c-7.7,1.02.28,9.36,1.47,1.48l2.02-.59c1.56,2.32,1.24,7.14.72,10.09-1.91,10.84-16.74,12.49-21.8,2.4-6.11-12.2,7.99-22.53,18.22-15.44h.01Z"/>
  <path class="st9" d="M433.7,291.16c.17.12,2.73,2.78,2.85,2.95-1.88,14.43-16.87-1.46-2.85-2.95Z"/>
  <g>
    <g>
      <path class="st15" d="M630.5,332.91c-2.3,2.92-5.49,5.37-9.54,7.36-12.69,5.12-25.09,7.07-38.17,1.36-17.98-7.88-27.47-27.29-23.45-47.32,16.01-30.84,61.61-33.79,78.3-9.95,9.21,16.68,7.98,37.01-7.17,48.55h.03Z"/>
      <path class="st0" d="M628.02,335.57c-1.22,1.21,3.48-.97,4.27-2.59,17.13-15.01,10.95-38.78,6.61-45.14-23.04-33.66-76.35-13.47-80.48,11.74,0-3.45.95-8.43,4.13-12.71,17.27-19.39,27.14-21.1,36.68-22.06,45.29,1.67,56.42,47.23,31.27,68.13l-2.47,2.63h-.01Z"/>
      <path class="st18" d="M620.95,340.28c2.2-2.9,7.13-4.98,9.54-7.36l.87.93h0"/>
      <path class="st11" d="M621.82,326.48c-2.82,2.39-7.05,5-10.41,6.44-13.08,2.94-25.61,1.99-34.38-10.1-10.53-14.54-7.57-37.26,7.76-46.68,31.97-19.66,62.48,23.55,37.03,50.34h0Z"/>
      <path class="st1" d="M621.82,326.48l6.51-11.95c7.61-16.66-4.73-39.13-21.79-41.27-43.88-5.47-45.43,55.83-10.31,59.63h15.18c-36.83,15.71-58.06-40.12-24.88-59,32.78-18.65,61.86,30.04,35.29,52.56h0v.02h0Z"/>
      <path class="st13" d="M607.94,288.79c-1.29,6.64-.58,8.6,6.06,7.36,2.59-.51,1.72,1.42,1.74,3.17.19,13.33-8.88,22.33-21.15,16.92-13.96-6.17-9.91-25.5,4.42-28.15,4.06-.74,5.83.37,8.9.7h.03Z"/>
      <path class="st14" d="M614.02,296.15c-4.4,6.46-12.57-2.12-6.06-7.36.27,0,1.45-1.01,2.82-.76,3.63.68,5.49,4.85,3.24,8.1h0v.02Z"/>
    </g>
    <g>
      <path class="st15" d="M388.7,330.8c-15.14-11.54-16.38-31.87-7.17-48.55,16.69-23.83,62.29-20.89,78.3,9.95,4.02,20.03-5.47,39.44-23.45,47.32-13.08,5.72-25.48,3.76-38.17-1.36-4.06-1.99-7.24-4.44-9.54-7.36h.03Z"/>
      <path class="st0" d="M388.68,330.8c-25.15-20.87-14.02-66.44,31.27-68.13,9.54.99,19.39,2.69,36.68,22.06,3.19,4.3,4.13,9.27,4.13,12.71-4.13-25.21-57.44-45.42-80.48-11.74-4.35,6.33-10.53,30.1,6.61,45.14.79,1.62,5.49,3.8,4.27,2.59l-2.47-2.63h0Z"/>
      <path class="st18" d="M387.81,331.72h0l.87-.93c2.41,2.39,7.34,4.46,9.54,7.36"/>
      <path class="st11" d="M434.38,274.02c15.34,9.42,18.29,32.14,7.76,46.68-8.77,12.09-21.3,13.04-34.38,10.1-3.36-1.44-7.59-4.05-10.41-6.44-25.46-26.79,5.06-70,37.03-50.34Z"/>
      <path class="st1" d="M397.35,324.34c-26.58-22.52,2.51-71.21,35.29-52.56,33.18,18.88,11.96,74.71-24.88,59h15.18c35.11-3.8,33.57-65.1-10.31-59.63-17.05,2.14-29.4,24.61-21.79,41.27l6.51,11.95h0v-.02h0Z"/>
      <path class="st13" d="M411.26,286.67c3.07-.33,4.85-1.44,8.9-.7,14.33,2.65,18.39,21.98,4.42,28.15-12.26,5.41-21.34-3.6-21.15-16.92.02-1.75-.85-3.68,1.74-3.17,6.64,1.23,7.36-.72,6.06-7.36h.03Z"/>
      <path class="st14" d="M405.15,294.01c-2.24-3.25-.39-7.42,3.24-8.1,1.37-.25,2.55.78,2.82.76,6.51,5.24-1.66,13.82-6.06,7.36h0v-.02Z"/>
    </g>
  </g>
  <path class="st22" d="M460.71,562.25c.45,8.35-13.39-59.06-20.89-56.64-7.36,2.37-16.72,7.71-20.95,9.28-17.27,6.39-22.18,8.09-33.76,13.69-9.13,4.42-9.42,2.65-16.55,6.18-2.28,1.13-10.22,3.91-13.38,6.29-43.62,32.79-57.67,96.64-78.71,145.41-.8,8.21,14.75,8.46,14.33,16.5-14.89,71.43-20.69,142.35-30.64,214.57-6.25,45.38-27.14,106.79,7.21,145.76,4.43,5.03,7.25,4.73,11.89,9.34,4.18,4.16,9.28,10.36,15.76,10.3,3.27-.03,4.66-2.83,6.62-2.92,2.4-.1,4.55,2.51,8.37,1.73,7.51-1.55,5.24-12.04,4.04-17.48-2.09-9.54-7.02-18.88-9.52-28.43-3.59-13.73-4.74-30.22-1.42-44.16l6.63,29.97c2.8,8.97,11.3,18.81,20.76,19.9,13.59,1.56,4.48-21.73,3.35-29.03-2.88-18.51-3.78-37.55-9.79-55.66-3.01-9.05-8.7-17.47-8.65-27.44l34.34-146.54-6.88,53.03-11,60c-.12,5.26,26.2,9.61,27,14,.63,37.87,1.26,66,2.28,103.86,2.1,77.72,7.76,155.69,12.41,233.27,1.78,29.78,2.18,60.54,4.78,90.16.22,2.52.89,12.15,1.41,13.25,1.65,3.51,11,4.11,11.78,6.5l.19,17.4c-15.3,3.78-21.55,19.86-31,31-11.75,13.87-30.17,26.69-37.5,43.75-3.94,9.16-5.49,30-2.49,39.55,5.28,16.82,23.25,25.19,38.55,27.47,8.95,1.33,26.93,1.36,36.2,0,6.91-1.01,10.89-1.44,16.33-3.83,16.87-7.4,45.35-35.66,57.77-50.06,10.44-12.09,12.04-20.61,8.76-35.98l-.97-22.1c-.95-12.04-2.7-26.48-12.56-34.05.06-3.39.18-6.78.35-10.17,6.99-1.03,12.01-3.95,15.05-8.78,5.8-117.35,13.98-234.47,22.66-351.61.58-7.85.46-15.72.24-23.57,1.48,3,13.37,3.26,14.29,0l-.93,5.56c7.19,105.65,13.85,211.45,17.04,317.43l2.96,45.26c.7,8.71,6.37,13.73,17.01,15.07l.38,11.2c-10.5,6.98-12.01,23.39-13.01,35.51l-.53,20.86c-6.63,21.58,7.71,36.53,21.99,50.21,6.44,6.18,13.06,12.19,19.88,17.93,12.93,10.88,25.68,17.08,42.85,21.11,10.79,2.53,28.03,1.73,37.15,0,9.51-1.8,18-5.84,25.73-12.24,13.38-11.07,13.71-25.65,11.41-42.17-3.51-25.18-23.97-36.9-38.58-54.4-8.98-10.76-14.31-25.26-27.57-31.43-3.27-1.52-5.71.45-6.29-4.31-.21-1.79-.18-14.45.21-15.09.6-.98,9.01-2.76,10.13-6.73,9.13-124.04,18.42-248.05,21.11-372.34.05-2.32.98-4.46,1.03-6.78.47-23.81-1.56-39.87-1.28-63.68.27-1.01,24.07-9.36,24.44-12.66.31-2.7-2.14-20.15-2.36-22.97-.99-12.9-2.16-30.03-4.12-42.11-1.76-10.89-6.42-22.67-5.18-34.29,1.09-10.21-.26-13.55-.1-23.8l3.34,11.74c5.5,23.02,8.14,46.52,13.26,69.62,4.77,21.58,16.09,53.44,17.61,74.01.87,11.71-3.4,15.65-6.67,25.45-6.02,18.03-7.76,34.33-10.59,52.88-1.71,11.17-13.27,47.96,11.12,33.99,12.88-7.38,15.45-26.94,18.05-40.25.21-1.06.06-3.17,1.44-2.91,1.92,14.17,1.23,27.36-2.38,41.16-2.49,9.53-13.89,34.85-7.11,42.67,4.45,5.14,7.81.98,11.14.64,2.55-.26,4.12,5.18,12.73,1.34,6.17-2.76,7.46-7.84,10.86-10.39,3.8-2.86,6.8-1.61,11.98-7.28,32.86-35.95,11.61-100.06,5.72-142.34-7.84-56.32-12.31-110.92-21.35-167.17-2.38-14.84-8.6-36.41-9.26-50.32-.07-1.46-.3-3.06.48-4.38,1.25-2.12,14.42-6.5,13.81-12.12-8.82-25.27-19.52-47.39-30.36-71.79-12.16-27.36-21.97-54.57-45.83-73.24-4.04-3.17-12.05-6.99-15.11-9.94-2.58-2.49-22.97-5.25-26.78-9.57-12,1-6,3-24-9-3.77.4-5.73-2.9-13.1-3.21-1.21-.05-4-2.55-5.17-2.88-9.8-2.81-38.02,90.11-38.88,80.44"/>
  <path class="st3" d="M543.13,1357.75c-.37-2.03-.98-4.11-1.15-6.18-6.93-84.51-7.26-170.01-12.37-254.71-2.07-34.27-7.43-70.31-8.57-104.23-.07-2.19-.49-8.93.92-9.94,1.17-.84,12.17-.83,15.3-1.86,2.76-.9,3.9-3.88,1.33-4.42-1.34-.28-9.64,1.82-12.25,1.95-10.43.52-23.86.59-34.26,0-2.63-.15-15.87-2.71-16.56-2.01-.51.51-.02,2.65.97,3.41,3.01,2.33,18.2,1.82,22.76,2.48l-10.44,123.45c-3.83,84.41-9.56,168.72-14.41,253.1-22.81,9.96-47.86,9.73-71.81,4.41-3.27-.73-18.16-4.12-19.01-6.86l-6.78-100.18c-3.79-93.55-11.19-186.81-12.39-280.27-.25-19.56-1.28-42.85,0-62.04.14-2.17.75-4.19,1.03-6.32,23.98,5.83,48,11.03,72.58,13.73,71.41,7.82,147.78,5.77,216.88-14.75-.36,24.08.5,48.24.05,72.33-.04,2.33-.98,4.48-1.03,6.8-2.58,123.64-11.68,247.23-21.08,370.6-1.49,3.8-11.23,6.21-14.95,7.13-24.5,6.1-51.48,4.19-74.77-5.64v.02h.01Z"/>
  <path class="st16" d="M727.94,707.93c7.78,40.9,14.45,82.15,19.88,123.5,4.19,31.93,6.28,64.27,10.71,96.11,5.7,40.92,24.33,99.44-4.39,135.39-1.39,1.74-4.07,4.77-6.19,5.39,5.7-13.22,11.89-28.54,12.39-43.22.05-1.33.83-5.02-1.46-4.46-3.55,5.27-3.04,13.33-4.57,19.86-2.8,12.03-11.18,32.8-21.08,40.12-3.47,2.57-7.01,4.37-10.91,1.48,15.33-18.68,22.88-45.1,23.72-69.35-1.07.14-2.11-.56-2.93.58-.77,1.08-3.58,21.92-4.74,26.39-2.83,10.91-8.79,27.15-15.67,35.9-2.01,2.56-9.33,10.49-12.32,6.04-4.13-6.14,7.79-33.13,9.76-41.15,2.49-10.16,3.93-21.68,3.1-32.16-.33-4.13-3.11-22.6-8.06-12.32-6.02,12.5-2.3,36.94-19.44,44.77-8.71,3.98-9.17.56-8.43-7.76,1.8-20.4,7.7-51.61,14.1-70.96,7.58-22.92,9.56-19.87,4.12-45.53-10.55-49.83-23.73-99.3-33.28-149.44l-10.09-42.25,65.77-16.92h.01Z"/>
  <path class="st16" d="M311.18,1082.46c-7.57,4.94-20.31-20.8-22.53-26.08-6.29-14.97-6.93-25.73-9.64-41.16-.53-3.01-3.65-3.18-3.79-1.97,1.16,24.64,9.05,50.46,24.68,69.32-9.93,3.31-16.54-6.21-21.28-13.84-9.17-14.75-13.14-30.66-14.87-48.05l-2.77-.07c-1.24,17.15,5.64,30.39,11.95,45.16.7,1.65.86,3.11-1.05,1.09-33.7-39.54-15.76-89.9-9.12-135.38,10.23-69.97,15.37-140.52,28.89-210.06.46-2.35,2.16-14.23,3.94-14.42,16.91,8.35,40.31,13.02,58.56,16.86,1.34,15.72-6.02,32.48-4.17,48.16l-37.82,165.49c.77,11.62,7.25,21.6,10.55,32.42,3.96,13,4.64,25.94,6.73,39.25.87,5.51,6.14,27.45,5.61,30.59-1.32,7.7-14.95-3.64-17.53-7.41-7.89-11.52-5.99-25.17-10.5-36.33-2.58-6.39-4.8-4.17-6.45,1.18-3.63,11.73-2.56,28.04-.04,39.97,2.43,11.53,12.38,30.48,11.74,40.96-.09,1.48-.55,2.97-1.09,4.32h0Z"/>
  <path class="st16" d="M559.06,1369.3c.23-.8,1.37-1.36,2.28-1.43,4.14-.28,13.96,2.57,19.09,2.89,13.82.86,29.06-.52,42.22-4.91l.96,16.73c-11.3-.46-23.72,4.49-30.22,14.42-1.88,2.87-5.48,14.41-7.42,14.99-8.47-1.46-19.75-7.17-24.09-15.11-.49-.9-2.81-6.54-2.81-6.92,0-4.39-.86-17.65,0-20.65h-.01Z"/>
  <path class="st16" d="M459.39,1367.82v21.15c0,.62-3.26,8.55-3.95,9.68-4.55,7.45-15.29,14.03-23.98,12.51-3.5-17.48-18.25-29.63-35.67-28.58v-16.72c20.67,5.39,42.69,7.14,63.6,1.97h0Z"/>
  <path class="st20" d="M371.58,1416.01c-2.39-.72-1.6-4.86,1.14-5.7s15.97-.44,19.49.05c4.09.57,21.46,6.61,20.51,11.9-1.12,6.23-11.11-1.54-14.11-2.8-1.52-.64-9.09-3.46-9.95-3.46-3.78,0-14.43.79-17.09,0h0Z"/>
  <path class="st21" d="M640.2,1426.83h15.19c1.23,0,2.38,4.13.52,5.46-1.59,1.14-6.66.15-9.05.46-4.78.61-12.01,2.55-16.32,4.73-2.86,1.44-10.59,9.62-12.55,3.46-2.16-6.79,17.43-13.09,22.21-14.1h0Z"/>
  <path class="st20" d="M631.67,1416.01c-2.04.27-8.71,2.54-10.9,3.46-2.79,1.17-11.67,8.73-13.23,3.8-2.3-7.25,18.27-12.68,23.2-13.15,3.22-.3,11.3-.55,14.2.01,4.32.84,3.76,5.87,1.93,5.87-4.64,0-10.82-.57-15.19,0h-.01Z"/>
  <path class="st19" d="M380.12,1426.83c4.77.67,22.11,7.83,20.97,13.83-1.22,6.43-8.34-1.21-10.96-2.56-2.28-1.18-6.38-3.06-8.76-3.71-4.52-1.25-14.46-.99-16.9-2.16-3.44-1.66-.63-5.4.46-5.4,4.58,0,10.92-.6,15.19,0h0Z"/>
  <path class="st2" d="M600.5,513.62c14.04,2.79,27.64,8.17,40.6,14.59,33.14,16.4,47.11,29.72,62.62,66.4,13.45,31.82,25.09,63.61,38.37,95.62.36,1.46-.76,2.04-1.62,2.79-18,15.07-51.22,23.09-73.51,24.03-3.1-31.07-4-63.12-8.2-93.99-.23-1.89-1.43-12.55-1.86-12.98-.59-.63-3.61.16-3.92,1.77l28.63,282.39c-29.07,14.28-64,21-95.75,24.46-65.98,7.12-152.72,6.21-216.96-11.88-4.8-1.33-26.96-8.25-29.42-10.9-1.22-1.33-1.07-2.71-1.03-4.44.44-14.04,5.16-34.37,6.94-49.23,8.45-70.9,18.99-147.07,22.28-218.22.23-5-.12-10.03,0-15.02-2.93,2.08-3.33,8.21-3.88,11.84-4.72,31.3-4.87,63.59-9.32,94.97-25.53-.59-53.65-8.21-74.3-25.09,12.73-31.82,23.47-65.63,36.95-96.97,4.4-10.23,9.4-20.55,15.9-29.32,21.37-28.99,72.44-42.24,103.53-53.4,5.27,15.11,6.03,18.93,18.56,28.3,25.49,24.48,103.28,30.79,127.79-26.15l3.76-3.15s13.93,3.62,13.86,3.57h-.02Z"/>
  <path class="st16" d="M568.49,484.92c.35,6.55.45,14.35,3.95,20.01,3.16,5.1,7.27,4.14,4.8,12.18-8.45,27.56-47.55,36.54-71.86,34.68-18.76-1.44-55.65-14.36-58.16-37.14-.77-7.01,2.42-6.57,4.71-11.34,2.5-5.19,2.91-11.71,2.65-17.42,38,7.15,76.2,8.95,113.91-.98h0Z"/>
</svg>