<?xml version="1.0" encoding="UTF-8"?>
<svg id="Layer_1" xmlns="http://www.w3.org/2000/svg" version="1.1" viewBox="0 0 1024 1024">
  <!-- Generator: Adobe Illustrator 29.7.1, SVG Export Plug-In . SVG Version: 2.1.1 Build 8)  -->
  <defs>
    <style>
      .st0 {
        fill: #030703;
      }

      .st1 {
        fill: #0d2a12;
      }

      .st2 {
        fill: #5ba03e;
      }

      .st3 {
        fill: #d4660d;
      }

      .st4 {
        fill: #e06a0e;
      }

      .st5 {
        fill: #df8019;
      }

      .st6 {
        fill: #fff;
      }

      .st7 {
        fill: #d27011;
      }

      .st8 {
        fill: #fef9ea;
      }

      .st9 {
        fill: #030704;
      }

      .st10 {
        fill: #d16f11;
      }

      .st11 {
        fill: #da640a;
      }

      .st12 {
        fill: #5ba03d;
      }

      .st13 {
        fill: #03070b;
      }

      .st14 {
        fill: #d3640d;
      }

      .st15 {
        fill: #0c2911;
      }

      .st16 {
        fill: #020602;
      }

      .st17 {
        fill: #f3e9d1;
      }

      .st18 {
        fill: #d4650d;
      }

      .st19 {
        fill: #05090b;
      }

      .st20 {
        fill: #122f17;
      }

      .st21 {
        fill: #030702;
      }

      .st22 {
        fill: #d4670d;
      }

      .st23 {
        fill: #020704;
      }

      .st24 {
        fill: #020502;
      }

      .st25 {
        fill: #0e2b13;
      }

      .st26 {
        fill: #ea8119;
      }

      .st27 {
        fill: #d3640c;
      }

      .st28 {
        fill: #f9f0da;
      }

      .st29 {
        fill: #da630a;
      }

      .st30 {
        fill: #faf9f1;
      }

      .st31 {
        fill: #050b0c;
      }

      .st32 {
        fill: #050a05;
      }

      .st33 {
        fill: #020501;
      }

      .st34 {
        fill: #5ca23f;
      }
    </style>
  </defs>
  <path class="st25" d="M231,503c9.51-14.58,20.13-28.45,31.86-41.61,55.73-61.55,108.85-125.28,159.35-191.2,16.46-21.64,34.42-43.5,62.52-45.67.15-.08.73-1.99.46-2.35-32.08-30.69-21.55-107.96,28.58-55.68l2.4.94c9.11-18.69,25.91-38.34,45.98-45.58,18.5-6.66,29.03-2.34,30.11,18.66.94,18.39-5.07,35.96-10.81,52.71,14.37-.99,44.69-2.26,41.46,20.4-3.22,22.63-28.86,36.42-49.91,37.43l-1,.94c-.05.27-.05.73,0,1,53.43,34.1,108.44,69.65,165.04,106.63,17.04,11.21,32.68,21.87,47.49,35.33.94.85,1.64,1.62,1.47,3.03,1.91,5.35,2.31,20.76-6,16-4.4-4.85-9.33-9.53-14.78-14.05l-37.86-26.66c-50.36-33.41-100.15-65.17-149.36-95.29-.33.84-.67.84-1,0-1.82,1.67-1.09-.4-1-.2,5.76,13,.58,37.93-5.07,50.63-16.33,36.73-67.1,78.12-101.84,96.99-86.79,47.14-70.52-52.62-61.38-102.16.13-.72.19-1.07-.72-1.27-1.32.79-1.79.3-1-1-34.46,41.99-70.46,83.99-108,126-17.51,21.04-35.31,42.32-53,63-6-1.68-8.26-4.69-6.78-9.04-1.52,2.93-5.84,6.88-7.22,2.04Z"/>
  <path class="st33" d="M864,763c-25.36,27.26-54.45,36.54-83.92,55.58-13.69,8.85-25.92,21.14-40.77,30.23-130.71,79.97-352.07,76.05-477.62-12.99-7-4.97-13.8-11.8-20.77-16.23-10.67-6.79-24.05-12.12-35.23-18.77-43.21-25.72-89.26-64.59-96.58-117.42-9.28-67.03,51.56-122.1,106.4-148.37,1.5-14.73,7.87-25.09,16.51-36.49,46.39-61.21,103.16-118.97,151.94-179.06,18.39-22.66,36.45-50.25,55.51-71.49,11.73-13.06,27.35-23.56,45.51-23.99l-10.51-14.98c-8.38-14.81-16.16-50.89,3.82-59.21,15.87-6.61,27.25,7.73,37.68,17.19,7.32-18.83,28.4-40.47,47.73-46.78,45.04-14.7,27.86,51.18,18.29,72.78,26.11-5.32,54.98,4.94,35.82,35.33-9.75,15.46-28.19,22.69-45.82,23.68.02-.09-2-.97.7-1.8,4.55-1.39,10.41-1.4,15.3-2.7,14.32-3.81,31.76-17.6,33.9-33.09,2.9-20.93-18.82-20.54-33.45-20.46-2.48.01-6.48,2.39-7.94-.91-.49-1.11,5.34-14.86,6.2-17.83,3.51-12.17,8.61-42.26-.67-51.76-8.46-8.66-26.41-.09-34.96,5.13-9.52,5.81-20.18,16.37-26.52,25.48-1.66,2.38-6.82,13.37-8.21,13.83-3.82,1.27-4.51-2.84-6.82-4.93-9.15-8.29-21.14-18.75-34.05-9.98-15.1,10.25-5.47,47.74,3.52,60.51,1.49,2.11,8.99,7.7,7.57,10.5-1,1.96-14.33,3.62-18.11,4.96-11.02,3.9-22.37,14.27-29.97,23.03-32.78,37.78-63.32,81.19-95.97,120.03-36.03,42.86-78.74,86.13-111.51,130.99.03,3.4-1.61,6.86-4.91,10.39-3.3,7.72-6.05,15.69-8.25,23.93-53.13,26.8-113.84,79.16-105.05,144.89,8.75,65.44,74.86,106.71,129.15,133.38,32.8,29.63,71.12,45.77,112.16,61.72.91.35,1.73.93,2.54,1.54s1.62,1.39,2.36,2.16c5.04-1.26,9.52.15,13,4,.54-2.71,1.1-2.38,2,0,2.97-.2,5.98-.29,8.91.34,41.36,8.79,77.16,15.85,119.87,16.75,41.21.87,76.03-4.28,116.28-11.11,2.96-.5,5.97-.29,8.94.02,1.87-1.41,3.82-2.85,6.09-3.54,40.28-12.2,70.76-22.27,107.25-44.42,13.66-8.29,24.69-17.66,36.22-27.54,29.06-14.95,57.27-31.27,83.32-51.75l3.11-.74Z"/>
  <path class="st16" d="M572,253c36.01,23.3,72.94,45.23,108.92,68.58,28.88,18.75,59.61,38.45,87.4,58.6,40.41,29.3,31.78,43.83,30.64,89.27-.53,21.12-.2,42.32-.84,63.43,69.12,29.13,139.36,97.11,105.06,178.79-8.27,19.69-22.61,38.36-39.18,51.32l.98-4c18.33-19.55,35.11-40.79,40.83-67.57,15.77-73.84-48.21-128.07-108.87-155.37l-2.12-2.76c-1.09-27.72.23-57.72,2.43-86.02.99-16.28-1.06-32.58-10.9-46.06l-.35-3.22c-11.15-13-27.67-22.51-42.09-32.41-27.29-18.74-55.17-37.05-83-55-29.61-19.11-60.44-36.73-89.42-56.61-.29-.51.52-.92.51-.98Z"/>
  <path class="st20" d="M786,398c20.32,23.7,11.74,54.35,10.96,83.46-.3,11.01.26,22.07.06,33.09-.09,5.06-3.17,16.58,1.04,19.9,61.91,27.85,126.89,83.55,109.27,159.38-6.53,28.12-24.52,48.96-43.32,69.18-14.49,11.34-29.79,23.09-45.69,32.81-12.42,7.59-27.98,13.74-39.64,21.36-5.58,3.64-11.14,10.1-16.75,14.25-40.02,29.63-85.58,48.17-133.91,59.59-2.1-1.04-4.34-1.21-6.72-.52-6.92-.29-9.19-12.07-1.65-12.68l2.37-1.8c9.46-3.29,19.25-6.1,29.35-8.44,18.09-5.36,40.05-12.18,55.95-21.67.06-.03-.09-.41-.3-.89-1.69.59-2.01.51-1-1-1.14-1.16,1.66-1.56,1.57-1.46-.54.57-2.61.83-2.57-.54-5.44,1.53-20.15-3.97-13.86-10.4,2.64-.69,4.28-1.47,5.86-3.6l1.53-1.48c55.38-16.79,115.45-40.04,157.5-81.24,62.9-61.63,39.64-126.58-25.03-172.99-5.94-4.26-26.42-18.26-32.28-19.05-.2-.03-.45.31-.71.76-.25.87-.58.85-1,0-1.62,21.24-2.17,42.84-1.64,64.79.2,16.7-.54,32.74-10.36,46.21,1.99,2.45-1.32,5.57-4,4-9.62,5.78-18.32,9.7-29.62,12.51-150.68,37.46-304.81,73.31-456.83,106.88-39.03,8.62-67.5-.13-68.68-44.85-.22-49.65-.16-99.3.18-148.96-6.53-11.33-11.42-23.54-9.05-37.58-.99-.5-1.52-.75-2.56-.46-1.39.39-3.88,1.88-5.19,2.71-16.92,10.66-36.47,23.17-48.25,38.75,1.46,2.33.54,3.01-2,2-97.18,107.65,52.4,194.19,144,222,5.41,3.19,7.33,7.12,5.77,11.81,2.78,1.89,3.85,4.62,3.21,8.19l3.03,2c.88.32.88.65,0,1-.37,2-2.54-.22-.54.69,17.51,7.98,34.79,15.55,53.54,21.31,1.61,1.02,1.6,3.16-.03,6.4,3.4,7.07,0,7.86-6.46,6.86l-2.51.74c-38.19-12.21-69.33-27.34-101.91-50.59-5.03-3.59-9.82-9.04-14.77-12.23-12.32-7.95-28.54-14.27-41.63-22.37-27.9-17.27-59.82-43.12-75.86-72.14-45.52-82.32,21.7-152.73,91.64-187.7,2.49-5.74,2.74-12.13,5.04-17.96s5.96-10.18,9.49-15.01c5.21,2,5.01-5.92,8.51-5.98,2.38-.04-.55,7.04.63,8.84.85,1.29,6.32-.38,4.87,4.13l-.06,1.76c-11.75,13.53-17.2,54.11-6.78,67.91,17.23,22.8,61.29-4,77.68-16.38,25.4-17.37,54.81-13.37,83.48-9.31,12.78,1.78,25.47-.41,37.68-2.97,3.75.9,10.07,3.29,11.44,7.46l5.51-3.15c2.26-1.25,4.8-1.52,4.05,1.69-.08.79-.23,1.45-.62,1.66-29.58,16.29-54.35,15.21-86.65,9.09-13.88-1.51-31.4.53-41.73,8.25-.21.58-.47,1.09-.88,1.36-9.23,6.14-20.76,13.47-30.42,18.78-11.59,6.38-24.78,11.48-38.09,11.66-4.3.06-13.11-.7-15.6-3.8-.24,1.96-.76,2.59-1.01.86-.27,49.86-.46,102.14.99,149.75,2.11,19,21.87,23.55,38.2,18.38,154.5-35.26,315.32-72.69,471.81-110.12,23.57-5.98,24.91-25.12,24-45.83l1.01-1.04-.97-3.51c1.06-39.79,1.71-79.38,1.96-118.75l-.99-2.75c-.56,1.75-1.23,1.75-2,0-18.52,9.83-38.42,11.69-58.92,5.94-22.25-8.81-44.8-3.42-64.01,9.47l-1.07-.41-1.6.16c-3.61,7.42-11.75,9.5-7.74-1.9-3.2-3.84-3.75-6.6-1.66-8.26,15.09-12.91,35.97-22.63,56.67-19.58,36.88,8.29,79.34,16.9,84.18-34.35,1.45-9.62-.62-19.31-2.85-28.07,8.62-.67,2.85-11.02,6-16Z"/>
  <path class="st8" d="M773,468c-2.3,1.01-3.22-.14-2.58-2.47,9.34-13.46,8.97-28.89,7.22-44.34-4.5-1.73-6.7-4.81-8.76-8.88-4.51,3.44-9,3.72-13.47.82-162.18,36.75-340.24,78.3-501.11,116.75-.59,1.88-1.54,3.46-2.84,4.74-13.59,3.59-13.67,5.04-13.78,17.56-.08,9.44,0,19.58,5.48,27.72l-1.15,2.09c-7.38-1.93-8.23-12.81-8.6-19.86-1.57-29.5,3.44-40.69,21.83-63.94,13.92-17.6,28.79-34.58,43.77-51.21,35.71-40.97,71.38-82.97,107-126,.57-.1,1,.54,1,1,.84.5,1,1.47.49,2.9-3.38,16.12-6.55,32.34-7.51,48.93-.91,15.59-1.07,34.77,6.6,48.73,12.83,23.37,39.85,13.75,59.42,5.44,3.36,1.91,1.32,4.1-6.12,6.58,35.13-8.34,69.26-23.59,100.53-41.02,32.9-18.33,59.24-34.45,12.75-59.58-.95,3.1-4,7.78-5.16,3.02l-.29-1.79c9.87-17.92,12.19-37.43,9.29-57.21.31-.03.69-.03,1,0,25.34,15.46,50.69,31.5,75.82,47.54,37.91,24.2,76.01,48.56,112.09,74.95,12.52,9.15,17.46,18.27,17.32,34.04-.1,11.01-2.12,26.1-10.23,33.47Z"/>
  <path class="st26" d="M543,260c.36,4.11,1.12,8.3,2.28,12.59,5.58,10.98-23.67,63.71-31.85,64.18-.78.04-1.53.03-2.25-.34-5.05-3.37-28.9-17.32-33.44-14.05-5.05,3.64,1.2,9.74,5.1,11.04,6.49,2.91,12.82,6.15,18.98,9.71,2.24,1.47,3.29,2.69,2.73,5.48s-25.94,28.56-27.41,29.97c-13.5,12.88-27.23,25.52-41.06,38.02,5.5-2.01,8.13-1.53,7.92,1.42-18.57,6.2-26.76-.86-28.05-19.45-2.43-35.12,9.68-91.81,27.05-122.55,1.42-1.32,2.56-.88,2.65,1.05,13.48.42,26.51,3.86,39.1,10.33,11.04,6.2,22.68-.09,8.83-8.49-11.47-6.96-27.54-11.13-40.78-12.39-.51,2.53-2.97,3.3-3.79.5,19.34-36.27,66.36-29.06,94-7Z"/>
  <path class="st4" d="M444,418c-.09.02-.85-.94-1.49-.82-3.65.68-7.96,2.41-11.51,1.33,18.95-17.63,38.93-34.46,56.51-53.49,2.06-2.23,15.19-16.43,15.45-17.57.38-1.69-5.65-4.66-7.29-5.61-5.46-3.19-21.03-8.12-21.67-14.42-.25-2.49,1.15-6.46,3.7-7.23,6.84-2.07,27.9,10.21,34.28,14.44,1.16.64,1.65.05,2.54-.53,1.7-1.12,9.8-12.13,11.46-14.6,7.67-11.4,17.37-30.23,17.58-43.98.08-5.25-4.69-12.68-.57-15.5,57.74,46.08-31.52,118.37-69.69,142.81-7.31,4.68-21.21,13.45-29.31,15.19Z"/>
  <path class="st12" d="M548,152c1.97-4.34,23.18-18.83,25.97-14.77s-.54,23.85-1.94,29.76c-5.23,22.17-22.84,43.8-41.03,56.01-.91.66-3.04,2.98-4.01,1.5-.2-26.24.91-53.36,21.01-72.5Z"/>
  <path class="st24" d="M578,278c.13.01.51-1.29,2.66-.3,6.73,3.14,17.12,11.82,24.02,16.12,50.48,31.47,104.5,64.77,152.81,99.19,7.05,5.02,18.47,13.43,22.51,20.99,7.18,13.41,4.56,40.81-4.18,53.32-22.67,32.44-60.6,6.87-91.19,9.81-18.65,1.79-27.79,10.1-42.63,18.87l-.98,2.92c-4.55,3.27-21.49,13.8-25.98,14.65-1.53.29-2.54.04-4.04-.56-4.14,5.29-15.07,5.8-21.89,5.98-4.93.95-8.97.29-12.11-1.98l-3.43,1.85-33-3.08c-22.55-2.38-44.29,2.65-63.31,15.08-11.7,7.8-23.87,14.73-36.5,20.79l-3.76-.65c-30.06,11.41-59.17-3.65-90.23,1.27-29.61,4.69-43.16,24.55-68.51,33.49-17.28,6.09-43.05,5.66-45.24-17.28s-1.3-40.4,11.98-58.48c15.53-21.14,35.84-42.76,53-63h1c-16.83,19.85-37.24,43.25-52.4,64.1-13.13,18.06-14.11,36.17-11.61,58.4.64,5.7,2.8,8.96,7,12.5l2.62-.49c14.33,9.17,32.33,1.27,45.9-5.86l24.89-15.47c25.15-16.7,54.41-13.59,82.8-9.15,32.9,2.45,50.85-7.99,77.69-26.2,19.74-12.81,42.54-16.65,65.72-14.49,20.68,3.24,41.09,3.61,61.22,1.12,16.6-5.98,32.25-14.32,46.93-25.01,26.22-18.96,53.1-13.62,81.86-7.1,13.96,2.31,29.09,1.13,38.42-10.81l2.94-.54c7.97-10.94,10.19-27.24,9.04-40.54-1.27-14.59-10.55-21.76-21.31-29.69-32.02-23.59-69.61-46.91-103.2-68.8-26.38-17.19-53.56-33.16-79.52-50.98Z"/>
  <path class="st11" d="M449,267c.15-.14,1.14,1.24,2.71-2.02,8.09-2.3,43.32,9.19,48.31,16.52,3.68,5.41,1.07,11.33-6.26,10.28-15.25-2.19-27.9-13.57-47.27-12.79-1.33.05-3.36,1.15-3.47,1.01-.46-.6,1.89-3.43,0-4,1.7-3.01,3.53-6.57,6-9Z"/>
  <path class="st34" d="M508.99,221c-12.51-8.35-20.78-19.84-23.71-34.78-1.97-10.02-3.81-25.46,9.74-13.74,13.94,12.07,15.24,31.32,13.98,48.51Z"/>
  <path class="st16" d="M577,278c5.32,20.03.25,41-9,59l-.4,3.77c-15.47,24.38-36.28,44.14-59.09,61.84-6.36,4.94-34.75,26.09-40.4,25.8-.71-.04-1.41-.21-2.12-.41-71.66,36.34-71.23-31.14-63.83-81.33,1.07-7.28,4.84-18.14,4.83-24.67l2.01-1.49c-5.67,31.19-27.33,120.62,28.53,115.53,32.95-3,93.52-54.01,114.43-79.57,18.52-22.64,30.77-49.09,23.02-78.96.17-1.33,1.54.53,2.01.49Z"/>
  <path class="st0" d="M406,321c-32.12,41.75-67.41,80.88-101.49,121.01-1.59,1.87-4.26,3.51-5.51,4.99h-1c20.1-23.7,40.92-46.8,60.97-70.53,14.63-17.3,28.4-36.84,43.51-53.49.38-.42,3.01-3.95,3.51-1.99Z"/>
  <path class="st9" d="M587.77,208.28c22.9-2.4,22.67,8.9,6.14,20.13-12.2,8.29-32.71,12.68-46.98,9.15-3.8-.94-5.38-2.18-2.5-5.63,1.85-2.22,16.74-13.66,19.65-15.35,5.79-3.36,17.09-7.61,23.69-8.3Z"/>
  <path class="st23" d="M531,223c12.24-8.83,30.2-29.49,36.18-43.32,5.41-12.51,6.88-28.16,6.82-41.68-3.66-3.58-22.75,10.91-26,14l3.47-5.03c3.97-3.67,16.78-12.62,21.88-10.87s1.15,23.19.18,27.93c-4.72,22.87-20.94,43.72-39.04,57.96-.83.65-2.55,3.47-3.49,1.01Z"/>
  <path class="st20" d="M782.99,398.01c1.31,1.22-4.24,5.7-.01,7.5-2.81,4.57-4.55-2.4-4.02-4.85.18-.85,2.78-.31,1.31-2.12-.57-.96,2.62-.62,2.72-.53Z"/>
  <path class="st15" d="M622,876c-.1,3.74-4.5,3.65-4.93,4.1-.2.21.2,5.27.47,5.83,2.99,6.15,9.22-1.64,10.46,5.07-83.58,19.74-171.59,17.02-254-6-.11-.66-.77-.66-2,0-4.35-1.24-8.69-2.62-13-4-.37-4.6,8.97-.77,8.98-3.5-4.01-3.26-1-6.71.02-10.5,51.38,13.51,103.2,20.94,156.46,19.72,32.93-.75,65.22-5.41,97.54-10.72Z"/>
  <path class="st20" d="M374,885c-.56-.16-1.44.16-2,0,1.85-.96-.99-6.9,1.5-6.98,1.46-.04,2.61,5.86.5,6.98Z"/>
  <path class="st5" d="M779,491c1.39,8.5,1.82,17.09,1.29,25.77l-2.29,77.23-1,14c1.53,2.63,1.5,5.36,0,8,1.56,8.94,1.72,23.88-2.77,32.31-3.84,7.22-12.72,12.78-20.73,14.7-156.53,37.53-314.21,74.31-470.96,109.9-18.13,4.12-34.8,2.59-38.6-18.58-.91-48.65-1.71-100.64-.95-149.63,0-.24.44-.47,1.01-.7,12.88,1.24,20.16,3.66,33.78.28,19.4-4.81,33.88-19.61,51.22-28.28.48-1.1,1.36-1.55,2.4-1.96,22.92-9.02,39.52-7.48,63.22-3,29.2,5.41,54.69-7.1,79.49-21.08l1.89.04c2.27-.87,2.45-.21,2,2.02-.53,2.66-41.87,22.99-48.58,23.39-17.93,1.34-35.93.22-54.01-3.35-31.89-2.73-48.29,7.41-74.08,24.76-10.58,6.12-22.22,11.98-34.37,12.64.17,4.16-1.84,6.95-6.11,7.14,3.26,3.88,7.26,3.54,11.89,2.93,20.17-2.66,38.66-14.98,55.18-26.2,15.68-10.27,33.85-16,52.6-12.36,35.19,9.77,71.9,5.13,100.04-18.91,29.86-23.08,62.93-19.36,99.02-15.19l4.4,2.12c4.44-1.99,9.62-2.65,14,0,3.44-2.86,7.91-4.09,13.44-3.68,1.37-2.25,3.5-1.9,5.56-.32,1.79-2.51,4.96-3.99,9.5-4.42,15.86-8.59,31.47-17.92,46.83-28l4.42-.74c1.39-3.94,5.29-3.34,8.61-2.06,6.51-5.67,19.35-4.07,27.64-2.53,13.22,4.72,26.42,6.36,39.6,4.92,3.22,1.66,6.07,1.44,8.55-.66,12.77.5,15.98-2.86,12.88-15.35-13.3,8.48-42.21,11.9-56.46,5.55-4.04-1.8-5.37-4.14-1.56-3.7l1.62-.94c20.27,5.52,39.99,3.88,58.38-6.06.62,0,.54-.95,2,0Z"/>
  <path class="st6" d="M159,600c.54-.59,1.33-1.29,2-2,.08-.77.23-1.48.64-1.97,11.47-13.65,36.5-31.04,52.81-39.5.65-.34,1.11-.25,1.55.46.04,14.19,2.68,25.97,10.03,37.36-.14,47.86-.27,95.72-.41,143.58-.85,42.12,21.78,59.74,62.72,51.65,86.46-18.62,173.35-38.15,260.66-58.59,1.76-.13,2.58,1.81,1.55,2.1-54.32,15.29-110.09,26.75-165.55,36.9-1.21.8-2.43,1.57-3.71,2.22s-2.53,1.25-3.86,1.58c-36.52,9.07-71.71,16.23-108.77,22.52-.1.02-1.17,1.56-1.15,1.66.62,2.54,9.07,1.53,11.25.7,22.1-5.15,45.54-10.08,69.01-12.62,22.87-2.47,41.8,1.95,63.95,7.23,127.32,17.9,271.47,5.79,379.02-70.95l6.26-2.34.42-2.91c25.42-20.66,47.15-50.21,21.92-80.41-2.28-2.74-16.36-16.66-18.36-16.55s-2.04,15.5-2.04,18.82c-.59,2.94-2.95,3.81-2.94,1.06l-1.33-.19c.2-28.67.98-57.27,2.33-85.81.33.03.67-.05,1,0,.22-.48.42-.84.5-.82,10.36,2.9,33.21,19.21,41.54,25.9,56.23,45.12,74.94,104.78,20.54,161.59-62.74,65.52-184.75,98.12-272.89,107.28-120,12.47-275.22-4.86-379.55-68.74-69.41-42.5-113.96-109.54-49.13-179.21Z"/>
  <path class="st6" d="M797,720c-7.06-.94-9.68-3.36-7.86-7.27,4.44-4.45-.93,1.83-3.75,2.21-3.3.44-6.01-1.87-4.52-5.16l-4.06-.46c-70.69,57.42-166.83,76.4-256.74,79.03-39.03,1.14-90.95.18-127.63-11.43-2.95-.93-10.11-3.41-7.44-6.92,54.92-12.47,109.82-24.99,164.65-37.86l-.65-1.14c64.48-15.6,128.96-31.28,193.45-47.05,14.75-2.6,27.44-8.52,38.55-14.95,1.87-1.57,2.43-2.17,4-4,4.81-7.39,8.49-15.4,9.47-24.23l1.53-.77,1,.52c-.44-8.25.66-16.36,1.49-24.51,11.64,7.63,25.6,19.88,30.99,33.01,11.73,28.55-11.76,54.46-32.49,70.99Z"/>
  <path class="st1" d="M697,828l.99,5c-6.78-2.61-9.04,3.25-2.18,5.68,3.87,1.37,5.29,1.53,9.19,3.33-1.06,1.01-2.17,1.89-3.43,2.35-19.05,6.89-42.9,11.56-63.03,15.11-67.02,11.82-128.87,12.66-196.5,7.7-15.32-1.12-32.02-2.64-46.04-7.16l.91-2.09c7.49.06,3.56-4.6-.98-6.76-3.37,2.3-7.02,1.82-6.68-2.88-3.52,3.21-8.39,3.23-14.59.07-3.3.71-6.41.73-9.33.04-1.32,4.19-3.17,4.88-7.07,2.83l-2.27.8c-2.93,1.53-9.24,0-12-2-1.76-2.12-4.6-3.39-8.53-3.79-4.06-2.45-7.22-2.85-9.47-1.21-.78,1.5-3,.7-3-1-1.69-2.57-7.82-4.91-8-1,.94.22.91.56,0,1h-4.99c.5-2.19.71-5.64-.93-7.37-1.1-1.17-2.89-.44-3.08-.63-.55-.55,2.75-4.63.79-8.26-1.17-2.17-4.56-2.14-3.79-5.73,126.23,35.69,262.07,41.06,389.17,6.3l4.83-.3Z"/>
  <path class="st1" d="M642,496c-.41,3.4,3.12,4.83,3.62,7.96.39,2.47-2.15,4.99-.61,8.04.18.2,4.36-2.71,4.55-3.01.72-1.15-2.3-10.03,3.44-2.99.4,1.01-.27,2.01-2,3l-.5,1.72c-14.15,10.8-29.65,17.89-46.5,21.28.54,1.47-.81,1.65-2,1-21.55,2.78-43.78,2.21-66.67-1.71l-18.33-.29-1.49,2.09c-10.66,2.29-20.69,6.56-30.08,12.81l-2.44-.9c-6.91,3.79-14.65,7.94-23.22,12.46l-1.78-.46c-.27-1.58-3.27.16-3.98.52-1.39.71-6.07,4.19-7.01,3.48-.17-.13-.37-2.84-1.52-3.99-1.84-1.84-6.99-1.99-8.5-6.01,24.55-9.32,43.85-29.38,70.18-35.32,25.06-5.66,45.21.49,69.82,1.32,1.23.88,1.32,2.48.27,4.78,12.51,5.52,13.09,8.93,1.73,10.22,5.26-1.79,10.55-2.41,16.11-2l1.39,2,.2-1.34c8.5-1.97,16.84-4.67,25.03-8.1-3.49-2.04-7.04-4.4-10.66-7.05l-.08-2.51c9.94-3.51,21.78-11.55,31-17Z"/>
  <path class="st24" d="M798,554c-3.09-4.17,4.49-.06,5.21.29,53.4,26.52,111.4,85.44,83.56,149.97-27.76,64.34-126.37,105.87-189.76,123.74-124.54,35.1-270.5,32.19-394-6-90.55-28-236.62-106.16-149.51-218.01l5.51-3.99c-54.04,59.7-31.27,118.02,26.1,162.4,96.05,74.29,265.14,95.27,383.39,86.59,92.97-6.82,241.04-43.53,300.91-120.09,50.75-64.91,9.22-125.73-49.88-162.92-4-2.52-17.92-11.48-21.52-11.98Z"/>
  <path class="st24" d="M217,557c.13,8.8.65,19.14,4.27,27.23,1.51,3.38,5.36,7.06,5.78,10.22,2.21,50.22-3.13,103.2-.1,153.1,1.11,18.27,7.19,32.68,24.81,40.19,17.04,7.27,37.83.39,55.25-3.22,103.01-21.35,205.81-46.6,308.21-70.79,43.79-10.34,90.12-19.68,133.2-31.8,12.55-3.53,17.76-5,28.65-12.34.92-.62,3.29-2.65,3.92-.58-3.82,3.2-8.11,5.55-12.32,8.18-72.44,20.18-146.34,36.67-219.68,53.82-45.28,10.59-90.64,21.2-135.99,31.51-42.32,9.62-89.48,22.68-131.83,29.17-13.44,2.06-23.1,1.71-35.2-5.17-17.35-9.86-20.12-25.35-21.02-43.98-2.35-48.66,1.81-99.23.09-148.09-.49-3.53-3.72-6.39-5.24-9.76-3.99-8.89-4.15-18.1-3.81-27.69.26-.71.59-.69,1,0Z"/>
  <path class="st13" d="M244,604l-.04,143.54c.94,8.64,1.46,16.44,9.11,21.89,11.13,7.94,22.9,3.54,34.95,1.08,154.69-31.62,307.6-73.24,461.77-107.23,29.17-8.8,27.14-20.18,27.22-47.28.32-2.66,1.24-2.54,2,0-.49,23.67,1.31,39.22-24.77,47.73-142.84,34.52-286.07,67.32-429.47,99.53-15.92,3.58-35.96,10.37-51.49,12.5-9.66,1.33-21.23-2.47-26.72-10.8-5.72-8.67-3.18-23.2-3.5-33.5-.38-12.19-.96-24.71-1.09-36.92-.33-29.98.36-59.98.03-89.95-.11-.96,1.34-.65,2.02-.58Z"/>
  <path class="st30" d="M706,844c.36.21.79.98,1,1-17.4,11.08-38.55,17.86-58.57,23.38-98.18,27.08-201.57,24.31-298.29-7.76-11.94-3.96-24.96-8.61-35.14-15.62l1.86-.77c124.99,33.6,264.23,36.82,387.77-.92l1.36.69Z"/>
  <path class="st16" d="M707,845c.15.02,5.12-2.23,2,.98-.38.39-8.16,4.17-9.62,4.89-22.35,11.16-52.89,19.66-77.38,25.12-82.96,18.5-172.63,15.08-254-9-6.98-2.07-14.09-4.11-20.96-6.54-2.45-.87-35.97-13.31-34.04-15.45.59-.17,1.7.18,2,0,15.38,7.99,31.89,13.94,48.48,19.02,83.42,25.55,176.3,28.85,261.34,9.3,28.37-6.52,56.3-14.96,82.18-28.32Z"/>
  <path class="st16" d="M705,842c.57.26,2.13-.18,2.99.01v.98c-.87-.16-1.39.77-1.99,1.01-9.48,3.77-24.7,7.04-34.99,9.51-103.8,24.93-220.31,23-324.03-1-10.66-2.47-21.17-6.14-31.99-7.51.09-.06-.04-.65,0-1,.03-.29.07-.86,0-1,1.05-3.09,7.35-1.91,8,1,.69.16,1.78.7,3,1,5.36-1.55,13.52,1.79,18,5,4.07.98,8.3,1.18,12,2,1.69-.89,3.97-1.02,6.86-.39,10.02,3.12,20.23,5.23,30.62,6.33l2.52,2.06c10.23,2.56,21,3.89,31.51,4.99,71.19,7.49,145.31,6.06,215.68-7.31,20.9-3.97,41.67-9.08,61.81-15.69Z"/>
  <path class="st31" d="M483,545c.95,2.77-4.88,7.4-7,5-20.82,11.76-42.76,23.47-67.49,22.99-30.72-.59-48.53-12.49-79.51,3.01-2.2-.71,1.48-2.33,1.95-2.55,33.83-15.71,55.21.36,88.42-2.58,15.66-1.38,25.31-7.26,38.63-13.87,7.56-3.75,14.02-6.63,21.29-11.2.89-.56,3.07-2.99,3.71-.8Z"/>
  <path class="st21" d="M796,640c-2.07,9.91-4.37,17.25-11,25l6.71-14.79c4.98-28.41,1.62-58.99,3.25-87.75.15-2.57.61-6.3,2.04-8.46l-1,86Z"/>
  <path class="st31" d="M777,491c-17.69,12.2-39.86,11.69-60,7l-1.51.63c-20.05-6.58-39.42-2.64-56.91,8.58l-3.58-.21c-1.41,2.09-2.74,2.76-4,2,.72-.75,1.32-2.45,2-3,6.87-5.53,24.81-12.95,33.62-13.88,27.12-2.86,43.68,13.45,74.6,4.6,5.45-1.56,9.61-4.84,13.81-6.33,1.27-.45,1.84.61,1.96.61Z"/>
  <path class="st19" d="M779,616h-2c0-2.66,0-5.34,0-8l1-14c.09-34.34,1.32-68.65,1-103,2.3,1.49,1.83,1.77,2.06,4.44,1.97,23.13-1.59,51.49-2.1,75.01-.33,15.16.36,30.39.04,45.54Z"/>
  <path class="st32" d="M217,557c-.33.03-.67-.05-1,0-4.88.69-25.88,15.71-30.91,19.59-8.29,6.39-16.9,13.83-24.09,21.41-2.44-1.36,2.57-5.2,3.47-6.03,13.11-11.94,30.07-26.11,45.85-34.15,1.75-.89,5.71-4.24,6.68-.83Z"/>
  <path class="st28" d="M242,582l-4.33-8.17c-.37-2.73-1.29-5.79-1.54-8.46-.36-3.81-.84-22.18.03-24.71.17-.5,5.13-4.62,5.93-5.07,2.4-1.35,7.85-2.22,8.69-2.81.64-.45.97-3.1,2.17-4.34,2.86-2.95,41.85-9.99,49.28-11.72,138.92-32.43,277.89-64.67,416.79-97.21,7.64-1.79,31.46-9.36,37.25-8.29,2.1.39,5.2,2.82,6.1,2.66.75-.14,2.11-2,3.39-2.65,6.11-3.1,4.83,2.41,8.69,5.83,1.66,1.47,4.29,1.75,4.91,3.14,1.68,3.78,1.11,23.5.54,28.18-.6,4.97-4.05,11.12-6.41,15.58-.52.98-2.44,3.46-.47,4.03-20.93,28.74-58.59,4.84-86.48,7.02-35.11,2.74-58.33,37.31-92.98,40.02-31.27,2.45-61.09-8.59-92.53.47-24.83,7.15-44.94,28.21-69.57,35.43-28.25,8.29-54.26-4.94-82.8-.8-24.7,3.58-35.03,14.54-54.96,26.04-14.11,8.14-37.38,17.87-51.67,5.83Z"/>
  <path class="st17" d="M568,337c.04-.06.61,1.03,1.43.08.89-1.03,2.67-6.19,3.06-6.07,14.03,8.34,37.72,21.76,23.49,40.47-6.46,8.48-35.37,24.47-45.96,30.04-26.72,14.07-74.04,34.7-103.65,37.35-1.12.1-3.59.93-3.36-.86,6.85-1.27,13.35-4.02,19.66-6.83.99-.44,4.73-1.46,3.33-3.18,27.76-14.08,63.03-42.54,83.51-65.99,7-8.01,12.04-16.98,18.49-25.01Z"/>
  <path class="st29" d="M452.76,369.76c-4.26,4.26-18.64-4.31-23.6-6.42-3.07-1.31-6.94-2.33-10.16-3.37l2.01-12.98c7.27-1.59,41.68,12.86,31.76,22.77Z"/>
  <path class="st20" d="M611,513c5.01,3.5,9.72,7.71,15.99,8.49-2.21,1.94-6.3,3.94-9,5-4.13,1.62-17.58,5.5-21.5,5.5h-17.5c.13-1.85,2.72-.63,4.56-1.94,4.8-3.4-1.35-3.02-3.19-3.9-1.59-.75-3.89-2.97-6.36-3.68l2.99-5.49c11.61.39,22.97-.1,34-4Z"/>
  <path class="st2" d="M585.76,210.26c21.89-3,23.69,6.77,6.54,17.54-12.44,7.81-34.54,12.5-48.28,6.7,12.07-9.76,25.65-22.04,41.74-24.24Z"/>
  <path class="st10" d="M517,531c21.83.31,43.49,1.97,65,5l1.42,1.2c4.46-.83,6.09.56,5.63,5.05,4.8,3.08,3.12,5.33-5.04,6.75-17.94-.25-35.53-3.74-54.17-3.53-5.77.06-3.68.76-6.28,1.15-18.28,2.73-24.62,6.31-40.33,16.14-7.81,4.88-18.25,13.66-26.74,16.98-12.97,5.08-33.92,9.37-46.82,8.2-15.05-1.36-32.85-7.6-47.91-5.67-29.45,3.76-44.96,25.57-69.21,33.67-9.17,3.06-16.07,6.08-25.95,5.98-2.58-.02-8.86-4.01-9.58-6.42,4.39-1.94,8.06.82,7.99-6.49-3.38-1.43-4.54,5.84-6.97,2.5,3.43-4.98,10.4-3.57,16.02-4.96,28.76-7.16,48.16-31.11,75.76-36.24,24.48-4.55,51.86,7.28,78.72,3.24,9.95-1.5,36.03-15.35,45.49-21.03.5-.3,4.22-1.71,1.99-2.51,2.15-1.22,4.56-3.59,7-5,9.07-5.23,23.31-13.78,34-14Z"/>
  <path class="st27" d="M660.33,554.31c1.43-2.18,8.89-8.77,11.33-10.15,22.06-12.5,45.3,3.73,43.33,28.33-2.43,30.35-41.88,41.61-56.84,13.88-4.51-8.36-2.89-24.33,2.19-32.06Z"/>
  <path class="st14" d="M540.78,596.29c33.98-3.76,40.4,46.17,8.9,58.89-20.02,8.08-39.53-7.84-37.72-28.72,1.24-14.28,14.27-28.56,28.82-30.17Z"/>
  <path class="st7" d="M717,498c-.01.16-.87.54-1.01.98,16.76,4.45,33.41,5.57,49.99-.5,1.88-.69,11.31-6.19,12.02-5.47-1.98,6.1,3.19,16.08-4.37,19.1-3.14,1.26-6.95-.03-9.13,2.89-.73-4.14-3.77.44-6.01.58-1.42.09-3.13-1.48-4.96-1.42-4.29.14-8.18,1.15-13.01.84-10.43-.68-23.37-5.8-34.11-7.04-2.35-.51-2.05.53-2.9,2.04l-2-3.01-.51,3.01-1-3.01c-2.91,2.08-7.68,1.21-10.35,2.18-1.55.56-1.35,2.79-2.22,2.87-1.32.12-4.13-1.77-6.72-1.07-1.01.27-.95,2.05-1.71,2.48-1.72,1-3.96.38-5.74,1.3-5.64,2.9-12.95,8.74-18.69,12.33-2.2,1.37-5.96,1.61-7.97,4.93-.34.56.57,1.91.42,1.99-.64.35-1.86-.87-2.56-.9-.22,0-2.73,1.08-3.39,1.38-1.3.59-6.35,4.91-8.29,5.82-5.5,2.6-10.48,3.42-15.76,4.7l-3.03-1.26c-4.61,3.96-9.07,2.11-12.2-2.74l.16,3.85c-2.11,1.05-3.42,2.43-3.94,4.15-4.51.43-9.48.06-14,0,.49-2.78,7.86-2.16,5.99-5-.07-.11-1.98,1.11-2.53.09-.87-1.62-.03-3.98-.61-4.93-1.58-2.6-8.55,2.16-4.86-3.16,2.87-1.51,7.65-1.44,11-1-.1,1.98,1.56,1.98,5,0-.04-1.1,2-1.4,3-1,2.28.69,2.94.69,2,0-.63-.14-1.06-.26-1-1,.28-.05,1.1-.81,2-1,18.27-2.15,36.65-13.93,51-25,21.29-12.74,36.46-17.64,61.49-9.98.5.19.56.51.51.98Z"/>
  <path class="st18" d="M339.62,635.63c2.63-3.05,3.75-4.84,7.69-6.82,24.6-12.36,39.52,19.83,20.16,35.16-12.63,10-29.21,2.55-32.36-12.6-.57-2.72-.14-8.49.64-11.09.88-2.92,2.51-3.09,3.86-4.66Z"/>
  <path class="st3" d="M446.64,667.36c17.32-.89,25.22,19.88,14.88,32.66-7.75,9.57-22.17,11.01-30.55,1.51-11.11-12.6-.45-33.34,15.67-34.17Z"/>
  <path class="st3" d="M289.73,722.25c-.16-.31-1.68-.25-1.67-.68.04-.84,1.27-2.74,1.39-4.42.15-2.09-1.06-3.77.03-6.13,2.66-5.75,14.68-10.68,20.75-9.81,7.47,1.08,13.74,9.69,13.34,17.04-1.09,20.12-26.68,26.55-34,6.8-.32-.87.63-1.9.14-2.81Z"/>
  <path class="st22" d="M641.83,634.25c16.8-.76,19.07,27.93-1.38,28.76-19.7.8-20.63-27.76,1.38-28.76Z"/>
  <path class="st10" d="M598,549c-.32-2.3-6.9-3.56-5.99-5.49,2.58-5.51,4.94.88,7.99,1.48.83-1.42-1.85-7.77.5-7.97,2.56-.22,5.26,9.98,11.5,6.97-.96-3.82-2.05-3.63,1.99-5,.69.91-1.72,5.02,3.53,2.02l-.52,3.98c-6.15,1.49-12.43,3.38-19,4Z"/>
  <path class="st20" d="M777,608c.01-4.42-.85-10.23,1-14-.01,4.41.85,10.23-1,14Z"/>
  <path class="st6" d="M385,770c2.66,4.25,10,5.57,14.78,6.72,58.14,14.06,141.1,11.66,199.85,2.4,62.43-9.83,127.54-30.39,176.09-71.92l8.28.8-1.99,3.98c5.54,3.75,5.99-4.02,9.49-2.98,1.5.44,2.04,4.36,1.49,4.97-.31.34-4.06-.81-2.96,1.51.81,1.72,6.28.49,6.99,4.52-96.63,77.06-257.4,93.39-376.36,76.86-18.06-2.51-43.21-10.66-60.19-9.9-16.89.75-40.36,5.57-57.68,8.32-6.91,1.1-26.57,6.74-31.49,6.47-2.32-.13-5.12-3.05-9.28-.75l5.94-6.44c39.42-5.09,78.25-15.74,117.05-24.55Z"/>
  <path class="st20" d="M356,852c.43-.99.48-3.68,1.5-4.01,4.14-1.36,1.3,4.24,3.98,3,2.11-.98,1.28-4.74,1.52-5,.48-.51,4.22,1.04,5.53,1.06,1.98.02,3.67-.9,5.68-.78,3.23.19,8.92,2.89,10.22,2.79,3.03-.25,4.22-5.21,7.55-5.05,1.55,2.49-.67,3.61-.82,4.65-.6,4.21,3.35.54,4.49.46,1.75-.13,2.31,1.95,3.3,2.35s2.79-.77,3.02-.47c.31.38,1.98,8.57-1.08,8.59-2.15.01-4.17.42-4.92.42-12.95.05-27.62-5.26-40-8Z"/>
  <path class="st20" d="M326,845l.49-5.99c5.86,5.24,12.54,8.14,20.51,7l-2.99,3.99c-6-1.44-12.01-3.51-18-5Z"/>
  <path class="st20" d="M323,844c-2.31-.55-5.55-.67-8-1-.46-.86-2.84-.76-2-2.99,3.28-1.03,6.01-1.82,8.96.53.44.35,2.94,3.14,1.04,3.46Z"/>
  <path class="st20" d="M378.99,842.01v2.99s-3.99,0-3.99,0v-1.48c1.06-1.57,2.15-1.74,3.99-1.51Z"/>
  <path class="st5" d="M602,533l1,1c-.44.46-1.11.46-2,0-.57.03-1.84.93-3,1-1.48,1.38-4.28,2.45-5,0-3.74.19-7.23,1-11,1-21.32-.01-43.79-5.43-65-5,25.2-2.11,50.18,4.62,75.54,3.04,2.59-.16,6.96-.62,9.46-1.04Z"/>
  <path class="st5" d="M655,507c-1.68,4.48-6.95,6.32-10.56,9.98-1.26,1.27-1.32,4.24-3.45,3.01-.23-.13,2.47-2.53-.47-1.98-9.32,5.85-20.83,11.91-31.68,14.34-1.46.33-3.89,1.53-4.84-.35,21.07-4.42,29.83-12.76,47-23,1.08-.64,2.59-1.15,4-2Z"/>
  <path class="st6" d="M689,851.01l-7.48,4.01c-111.03,40.3-238.45,39.2-348.53-3.52.04-1.14,3.08-.23,4.06-.05,15.01,2.68,30.43,7.48,45.76,10.24,82.99,14.93,175.3,15.1,258.21-.16,16.11-2.97,31.87-7.57,47.97-10.51Z"/>
  <path class="st10" d="M603,534c1.81.13,3.55.1,4.51,2,.53,1.06,1.63,4.49-1,4.01-.81-3.76-2.4-4.31-5.51-6.01.65-.03,1.35-.05,2,0Z"/>
  <path class="st10" d="M598,535c-1.43,4.63-11.13,3.78-5,0,1.66-.08,3.34.1,5,0Z"/>
</svg>