<?xml version="1.0" encoding="UTF-8"?>
<svg id="Layer_1" xmlns="http://www.w3.org/2000/svg" version="1.1" viewBox="0 0 409.6 409.6">
  <!-- Generator: Adobe Illustrator 29.6.1, SVG Export Plug-In . SVG Version: 2.1.1 Build 9)  -->
  <defs>
    <style>
      .st0 {
        fill: #8ac440;
      }

      .st1 {
        fill: #c5b3a5;
      }

      .st2 {
        fill: #efa7a7;
      }

      .st3 {
        fill: #987960;
      }

      .st4 {
        fill: #f5c5c5;
      }

      .st5 {
        fill: #efa6a6;
      }

      .st6 {
        fill: #e04b4b;
      }

      .st7 {
        fill: #719c40;
      }

      .st8 {
        fill: #fed73b;
      }

      .st9 {
        fill: #fefefe;
      }
    </style>
  </defs>
  <path class="st3" d="M236.39,211.26c6.31,13.75,9.15,44.1,8.66,59.26.3.38.58.76.78,1.18,1.02,2.1-1.05,21.38-2.06,24.59l-1.82,3.26c1.73,1.57-.96,11.82-2.13,12.91-.24.22-.58.32-.96.4-2.95,10.92-11.59,26.94-12.93,36.65-1.01,7.29,2.74,7.27-6.26,7.49-2.43.19-4.9.39-7.43.6h-3.09c.06-1.5-.13-3.03,0-4.53.28-3.16,1.03-9.51,1.85-12.4-1.79-.83.06-4.43,1.86-4.23-1.23-1.9.95-6.34,3.09-6.65-.86-3.19.45-7.66,3.09-9.68,8.92-26.59,12.7-52.85,7.48-80.78-.2-1.05.16-2.27-1.29-2.67l-.64-2.07c4.38-14.37-1.23-28.72-6.93-42.01-.21-1.94.84-1.65,2.63-1.08,4.93,6.7,10.47,12.82,16.61,18.37l-.53,1.39Z"/>
  <path class="st1" d="M219.68,357v.6h-7.43c1.87-1.15,5.06-.55,7.43-.6Z"/>
  <path class="st6" d="M219.68,111.49c-1.44,2.9-1.23,3.1.62.6,5.38-7.48,12.35-15.43,20.23-20.45,40.09-25.51,73.06,27.92,36.65,50.93-10.26,6.49-23.77,9.17-35.84,10.03-.42.21-.42.41,0,.6,10.71.51,22.17,2.52,31.8,7.33,40.97,20.47,11.34,76.8-29.33,55.27-2.59-1.37-4.73-3.45-7.42-4.55-.7-1.53-8.82-8.55-10.84-10.88-2.5-2.9-4.4-6.35-7.1-9.08,2.15,5.47,4.72,10.79,6.35,16.47,2.92,10.2,3.9,18.68.46,28.88-9.96,29.51-53.43,26.83-60.36-3-3.34-14.39,2.06-28.71,7.75-41.74-7.3,8.54-13.66,17.31-23.72,23.08-42.32,24.27-74.85-37.15-25.78-56.63,8.19-3.25,17.79-4.71,26.6-5.15,1.15-.23.12-.63-3.09-1.21-23.89-2.29-54.62-14.19-47.21-43.41,7.49-29.54,42.97-29.39,61.16-9.23l11.42,13.93c-.09-3.48-2.6-6.69-3.73-9.95-4.54-13.05-7.11-28.28.39-40.79,9.52-15.88,32.95-19.3,47.3-7.62,17.39,14.17,11.82,38.95,3.71,56.55Z"/>
  <path class="st0" d="M245.06,270.52c3.51-4.38,6.32-9.27,9.92-13.59,16.52-19.82,42.98-31.47,68.99-32.98,1.34-.08,1.03.46.92,1.51-3.05,29.44-14.69,54.51-40.03,71.55-11.22,7.55-30.46,15.46-44.14,15.83-.73-.51-.73-1.08-.14-1.66l46.89-50.45c-12.04,10.93-24.2,21.74-36.43,32.47-1.37,1.2-2.88,2.27-4.4,3.32s-3.09,2.05-4.68,3.01c1.66-8.96,2.8-19.92,3.09-29.03Z"/>
  <path class="st0" d="M219.06,320.11c-1.08,3.21-1.94,6.47-3.09,9.68l-1.14.63-28.02-23.95,26.2,28.31-.14,1.65c-.47,1.28-1.67,3.58-1.86,4.23-35.6-5.32-62.15-37.07-62.5-71.96,31.71,1.61,61.42,21.11,70.55,51.4Z"/>
  <path class="st7" d="M240.73,312.85c-.62.02-1.24-.01-1.86,0,1.06-3.92,2.36-9.35,3.09-13.3,17.92-15.62,35.54-31.64,53.54-47.16l.3.9-55.08,59.57Z"/>
  <path class="st2" d="M146.65,152c3.28.31,6.59.74,9.9.61.14,1.06-1.41.57-2.16.6-1.4.06-3.32.16-4.65,0-.5-.06-2.53-.83-3.09-1.21Z"/>
  <path class="st4" d="M220.3,112.09c-1.01,1.41-1.64,3.3-3.09,4.23-.07-1.83,1.84-3.47,2.47-4.84l.62.6Z"/>
  <path class="st5" d="M241.34,152.61v.6c-1.01-.05-6.81.26-6.81-.3,2.18-.68,4.58-.14,6.81-.3Z"/>
  <path class="st7" d="M215.97,329.78c-.77,2.16-2.35,4.6-3.09,6.65l-41.47-44.74,44.56,38.09Z"/>
  <path class="st8" d="M191.08,119.52c45.09-5.06,53,58.91,10.81,66.2-46.69,8.06-55.23-61.21-10.81-66.2Z"/>
  <path class="st9" d="M192.29,135.22c26.88-4.13,28.58,36.49,2.62,35.25-22.24-1.06-22.52-32.19-2.62-35.25Z"/>
</svg>