<?xml version="1.0" encoding="UTF-8"?>
<svg id="Layer_1" xmlns="http://www.w3.org/2000/svg" version="1.1" viewBox="0 0 57.87 57.87">
  <!-- Generator: Adobe Illustrator 29.7.1, SVG Export Plug-In . SVG Version: 2.1.1 Build 8)  -->
  <defs>
    <style>
      .st0 {
        fill: #363636;
      }

      .st1 {
        fill: #fefefe;
      }
    </style>
  </defs>
  <path d="M57.87,27.07v4.4c-.51,13.82-12.88,26.33-26.96,26.62h-2.37c-.41-.1-.84-.1-1.24,0-.15,0-.3.01-.45,0-13.06-.21-24.14-10.94-26.41-23.52-.6-3.32-.6-8.31.08-11.61C2.74,12.08,11.92,2.95,22.8.75c3.24-.66,8.08-.67,11.34-.11,12.66,2.17,23.57,13.29,23.73,26.43Z"/>
  <path class="st0" d="M28.54,58.09h-1.24c.26-.19.95-.19,1.24,0Z"/>
  <path class="st1" d="M31.95,46.68l-6.12-10.64c1.41-3.05,3.19-5.96,4.64-9.01l.18-.16,1-.13c3.47-.45,7.58-.92,11.05-1.13.23-.01.67-.05.85.05,1.76,2.75,3.63,5.46,4.95,8.46l-6.09,11.49c-.06.14-.16.14-.28.18-1.16.34-3.46.55-4.73.68-1.81.18-3.63.27-5.45.2Z"/>
  <path class="st1" d="M30.7,25.03c-2.1-2.58-4.35-5.07-6.64-7.48l3.4-10.21.18-.28c3.2-.48,6.48-.79,9.73-.71,3.01,3.12,5.78,6.48,8.71,9.68.06.08.04.16.04.25-.05.48-.68,2.05-.88,2.63-.56,1.55-1.28,3.05-1.83,4.6l-.23.22-12.48,1.31Z"/>
  <path class="st1" d="M13.95,35.21c3.44.84,6.92,1.48,10.41,2.08l6.06,10.37-3.69,5.08-.26.05-12.62-2.28c-1.96-2.24-3.64-4.8-4.94-7.47l5.04-7.84Z"/>
  <path class="st1" d="M25.7,6.45c.12.2-1.16,3.89-1.33,4.44-.45,1.38-1.14,4.09-1.75,5.24-.07.12-.1.26-.24.32-3.4,1.3-6.62,3.04-9.71,4.95l-6.45-3.72c-.17-.29,1.16-3.52,1.39-4.04,1.11-2.49,2.18-3.71,4.29-5.42,2.46-2,5.33-3.59,8.35-4.58,1.94.68,3.73,1.69,5.45,2.79Z"/>
  <path class="st1" d="M5.14,19.18l6.25,3.67.23.34c.1,3.51.39,7,1.07,10.45-1.67,2.64-3.28,5.33-5.09,7.87-.15.03-2.18-1.46-2.46-1.69-.36-.3-1.37-1.13-1.57-1.47-.6-1.01-1.28-4.55-1.42-5.8-.36-3.23-.38-7.96,1.26-10.81.51-.88,1.16-1.72,1.73-2.56Z"/>
  <path class="st1" d="M55.95,31.36c-.63,7.89-4.72,15.02-11,19.74-.13-.08-.13-.16-.16-.28-.35-1.26-.39-2.86-.89-4.14l6.31-11.85c.29-.39,1.39-.75,1.9-1.03,1.32-.73,2.65-1.48,3.83-2.43Z"/>
  <path class="st1" d="M53.58,18.05c-1.88-1.24-3.91-2.23-5.98-3.1l-8.35-9.36c-.23-.4-.1-1,0-1.42,6.29,2.62,11.59,7.61,14.32,13.87Z"/>
  <path class="st1" d="M29.89,56.07l-1.3.23c-3.85-.19-7.65-.96-11.15-2.62-.5-.24-1.15-.5-1.54-.89l10.25,1.76c1.27.45,2.41,1.22,3.74,1.51Z"/>
</svg>