<?xml version="1.0" encoding="UTF-8"?>
<svg id="Layer_1" xmlns="http://www.w3.org/2000/svg" version="1.1" viewBox="0 0 384 384">
  <!-- Generator: Adobe Illustrator 29.7.1, SVG Export Plug-In . SVG Version: 2.1.1 Build 8)  -->
  <defs>
    <style>
      .st0 {
        fill: #f4f7f8;
      }

      .st1 {
        fill: #e7ecf1;
      }

      .st2 {
        fill: #b4dafc;
      }

      .st3 {
        fill: #8cc9fb;
      }

      .st4 {
        fill: #64b8fb;
      }

      .st5 {
        fill: #8dc9fb;
      }
    </style>
  </defs>
  <path class="st0" d="M278.08,71c.4,0,1.01.12,1.02.38.27,24.36-.45,48.93-2.2,73.83l-.86,3.31-1.3.32c-26.98-9.13-56.3-8.85-82.44,3.61l-2.98.29-3.01-.21c-24.74-10.73-53.17-11.07-78.16-.98l-3.01.13c-.34-1.12-.66-2.25-.9-3.39s-.48-2.27-.54-3.41c-.88-15.43-1.71-30.79-2.29-45.99-.25-6.69-.34-13.14-.03-19.82.16-3.35.7-7.35,4.27-8.08h172.43Z"/>
  <path class="st0" d="M139.32,316.74c33.96.3,67.99.4,102.09.29.15.2.3.4.46.59.72.86.12,19.96,0,22.76l-1.02.62h-103.56c-1.16-1.6-3.05-2.11-4.35-3.67-3.03-3.63-5.04-19.8-6.03-25.41-.14-.77-.78-2.05.18-2.55l1.37.26c2.33,3.53,6.14,5.25,10.11,5.93l.76,1.19Z"/>
  <path class="st1" d="M291.85,71c2.14,1.96,3.3,2.86,3.6,6.04,2.08,22.34-2.41,48.13-2.07,70.68l-1.01,10.82c-.45-.14-.44-.32,0-.53l-1.13.1c-4.37-3.55-9.67-5.83-14.84-7.87l-.35-1.19c-.45-.1-.43-.28,0-.53.55-10.02,1-20.26,1.55-30.3l.49-47.22h13.77Z"/>
  <path class="st1" d="M259.71,341h-18.88v-23.73s-99.8.04-99.8.04c-.67.3-1.47-.53-1.73-.57,3.94-.48,7.89-.96,11.86-.99,31.03-.23,62.53-.3,93.18.06l.63,1.05c4.56.14,9.12.21,13.71-.11l.78-1.19c4.42-.56,7.92-2.96,10.57-6.6l1.4-.11c-1.38,7.47-2.1,17.85-4.34,24.78-1.26,3.9-3.98,5.72-7.39,7.39Z"/>
  <path class="st2" d="M189.31,152.74l1.6-.19c24.15,15.05,53.48,20.22,81.08,12.12l3.03.19c.15,1.53.28,3.06.32,4.59s.08,3.05-.03,4.56c-2.88,37.78-8.75,76.32-15.07,113.13-.71,4.15-1.53,8.26-2.36,12.38-1.41,6.92-2.7,12.66-8.8,16.17,3.57-.45,6.78-.09,9.62,1.07-6.78,1.01-12.04.04-18.6-.03-33.59-.34-67.2.3-100.78.03-5-.75-9.49-2.6-12.24-7.38-.7-1.21-.96-2.33-1.3-3.67-3.08-12.34-5.09-27.74-7.22-40.53-6.27-37.62-10.85-75.35-13.42-113.48,26.65-11.7,57.8-11.35,84.18,1.05Z"/>
  <path class="st3" d="M276.04,148.52c0,.18,0,.35,0,.53,1.19,5.26.84,10.78-1.02,15.82-25.31,7.91-50.81,5.67-74.67-5.88-3.64-1.76-7.43-4.55-11.04-6.25,21.18-10.74,45.79-13.94,68.98-9.34,6.06,1.2,11.88,3.25,17.75,5.12Z"/>
  <path class="st3" d="M292.36,158.01c.05.16-.03.36,0,.53-3.01,50.67-11.72,100.59-20.92,150.29-3.93,5.12-6.51,6.98-12.75,7.91-4.15-.12-8.35.17-12.5,0-.62-.02-1.9.4-1.78-.52,5.16-.68,9.7-5.42,10.98-10.53,3.52-14.01,5.87-31.8,8.24-46.33,5.1-31.32,8.98-62.8,11.38-94.49.53-.68,1.12-1.36,1.9-1.73,2.49-1.16,12.36-5.36,14.11-5.32.45.01.89.09,1.34.2Z"/>
  <path class="st4" d="M292.36,158.01c-5.75,2.42-11.38,4.99-17.35,6.86.4-5.3.72-10.52,1.02-15.82,2.84.65,15.68,6.76,16.32,8.96Z"/>
  <path class="st3" d="M185.11,268.89c18.33-2.3,20.96,27.24,2.4,28.35-17.21,1.03-19.8-26.16-2.4-28.35Z"/>
  <path class="st3" d="M231.52,228.27c8.64-1.84,15.97,5.75,12.39,14.39-4.63,11.19-21.47,7.01-19.36-6.83.45-2.96,4.12-6.95,6.97-7.56Z"/>
  <path class="st5" d="M147.34,169.74c7.07-1.52,12.7,6.69,8.31,12.8-5.1,7.09-15.87,1.88-14.17-6.74.45-2.29,3.65-5.59,5.86-6.06Z"/>
  <path class="st5" d="M183.56,202.96c12.47-2.68,12.98,16.25,2.01,16.03-9.55-.2-10.3-14.25-2.01-16.03Z"/>
</svg>