<?xml version="1.0" encoding="UTF-8"?>
<svg id="Layer_1" xmlns="http://www.w3.org/2000/svg" version="1.1" viewBox="0 0 1024 1024">
  <!-- Generator: Adobe Illustrator 29.7.1, SVG Export Plug-In . SVG Version: 2.1.1 Build 8)  -->
  <defs>
    <style>
      .st0 {
        fill: #070b06;
      }

      .st1 {
        fill: #060c12;
      }

      .st2 {
        fill: #030703;
      }

      .st3 {
        fill: #f6f4e6;
      }

      .st4 {
        fill: #080a06;
      }

      .st5 {
        fill: #f6f5e9;
      }

      .st6 {
        fill: #fdeb9c;
      }

      .st7 {
        fill: #f6f6cb;
      }

      .st8 {
        fill: #fbcd36;
      }

      .st9 {
        fill: #040704;
      }

      .st10 {
        fill: #fff;
      }

      .st11 {
        fill: #050904;
      }

      .st12 {
        fill: #eda01c;
      }

      .st13 {
        fill: #080907;
      }

      .st14 {
        fill: #030803;
      }

      .st15 {
        fill: #070c11;
      }

      .st16 {
        fill: #fdf8e8;
      }

      .st17 {
        fill: #407e43;
      }

      .st18 {
        fill: #050804;
      }

      .st19 {
        fill: #040803;
      }

      .st20 {
        fill: #040603;
      }

      .st21 {
        fill: #f6eed5;
      }

      .st22 {
        fill: #f7bc39;
      }

      .st23 {
        fill: #fbcc35;
      }

      .st24 {
        fill: #f7f6e9;
      }

      .st25 {
        fill: #0a0d14;
      }

      .st26 {
        fill: #070a06;
      }

      .st27 {
        fill: #060b10;
      }

      .st28 {
        fill: #030603;
      }

      .st29 {
        fill: #f6f5e6;
      }

      .st30 {
        fill: #ed9f1b;
      }

      .st31 {
        fill: #fdf9e9;
      }

      .st32 {
        fill: #040804;
      }

      .st33 {
        fill: #060b06;
      }

      .st34 {
        fill: #fbf142;
      }

      .st35 {
        fill: #15321a;
      }

      .st36 {
        fill: #f7e53e;
      }

      .st37 {
        fill: #efe6cc;
      }

      .st38 {
        fill: #050a11;
      }

      .st39 {
        fill: #ed9e1b;
      }

      .st40 {
        fill: #f7eed5;
      }

      .st41 {
        fill: #050905;
      }

      .st42 {
        fill: #040903;
      }

      .st43 {
        fill: #050a05;
      }

      .st44 {
        fill: #080b07;
      }
    </style>
  </defs>
  <path class="st35" d="M483,130c49.72,23.53,90.29,67.65,103.01,121.99l8.82-18.66c8.72-15.77,21.33-28.71,37.17-37.33,22.23-8.53,50.02-18.34,74.47-13.23,7.69,1.61,10.06,5.43,10.66,13.02,2.62,33.48-8.4,63.1-28.13,88.21-7.24,7.95-15.57,14.23-24.98,19.52-2.75,1.55-6.11,2.3-8.36,3.48-1.05.55-.95,1.66-.65,1.98.42.45,8.52,4.31,10.72,5.79,20.44,13.76,40.65,27.94,60.6,42.4,16.83,12.21,62.68,43.05,72.68,57.82,2.57,5.38,4.57,10.88,6,16.5l.45.18c0,38.51.16,76.88.5,115.13l-.96.7c16.23,7.13,32.23,15.63,48,25.5,16.44,11.49,33.99,26.39,45,43,32.95,41.15,29.98,92.24,1,134-18.93,26.23-52.11,50.5-80.33,66.17-10.94,6.08-27.42,11.64-37,18-11.15,7.39-21.53,19.43-34.67,27.83-150.65,86.3-355.46,84.31-498-18-19.07-14.33-40.53-22.77-60.92-35.58-27.61-17.35-55.81-39.29-73.08-67.42-22.63-39.53-21.48-82.66,3-121,11.98-17.6,28.97-33.37,46-46,9.93-5.33,19.57-11.47,28.89-18.4-.68-19.15,8.03-32.76,20.97-46.13l.14-1.47c6.96-8.46,58.36-70.02,63-71,19.38-45.37,40.18-92.31,61-138,18.72-41.16,37.44-82.3,56.3-123.4,6.54-14.25,13.34-28.72,20.27-42.16,8.95-17.36,12.12-21.35,32.53-16.15,12.29,4.09,24.26,8.33,35.9,12.71Z"/>
  <path class="st28" d="M747,862c-140.39,89.75-364.92,81.96-498-18,.81-2.36,2.7.3,3.55.95,135.45,102.26,346.3,99.72,490.54,17.64.97-.55,3.26-2.71,3.91-.59Z"/>
  <path class="st11" d="M483,130c-.93,2.04-3.09.44-4.37-.13-11.34-5.01-36.96-15.93-48.69-13.42-2.65.57-5.21,1.96-6.95,4.04-5,5.97-12.96,24.25-16.85,32.15-23.75,48.24-44.2,98.27-68.14,146.36v-1c20.84-46.15,41-92.8,63.14-138.36,5.31-10.92,11.23-24.47,17.34-34.66,3.95-6.59,8.12-11.23,16.72-10.76,12.45.68,36.14,10.26,47.8,15.78Z"/>
  <path class="st41" d="M689,284c-2.42-.9.3-2.68,1-3.51,19.36-22.91,30.56-57.93,25.92-87.91-1.21-7.83-6.6-8.78-13.54-9.46-23.24-2.27-45.22,2.99-66.06,12.68-1.28.59-3.28,2.32-4.31.19,20.12-10.95,53.69-18.34,76.28-13.78,7.12,1.44,9.13,7.91,9.71,14.29,2.75,30.56-8.37,64.85-28.98,87.48Z"/>
  <path class="st13" d="M799,415c12.45,18.36,7.12,39.87,6.96,60.46-.19,23.62.26,47.25,0,70.87,16.19,8.03,32.19,16.3,47.04,26.67l-48-25.5v-116c0-1.59-4.25-10.5-5.41-12.59-.54-.97-2.72-3.24-.59-3.91Z"/>
  <path class="st26" d="M338,299c-19.32,46.41-41.5,92.08-60.09,138.99-.44-.07-.84-1.01-.91-.99,18.18-47.25,40.19-92.92,61-139v1Z"/>
  <path class="st18" d="M899,750c-2.18-.63.23-2.83.8-3.71,29.85-45.92,28.22-85.03-1.8-130.29,34.33,40.82,31.34,91.95,1,134Z"/>
  <path class="st9" d="M115,741c-24.03-39.13-22.78-83.13,3-121,2.07.61,0,2.99-.58,3.93-23.42,38.09-24.23,73.79-2.89,113.04.53.97,2.42,3.48.47,4.03Z"/>
  <path class="st4" d="M164,574c4.13-3.06,27.61-17.54,28.49-19.01,1.29-2.15.23-9.13.61-12.39,1.6-13.46,12.7-24.65,20.89-34.61,2.42.91-.3,2.68-1,3.51-9.54,11.34-16.63,18.64-18.88,34.12-.45,3.06.65,8.07-.63,10.37-.75,1.36-22.13,14.69-25.77,17.23-.84.59-3.15,2.91-3.73.78Z"/>
  <path class="st22" d="M784,511l1.11-.62c.29,52.79-.75,105.66-3.11,158.62,1.22.35.15,2.57-1,3-2.14,4.42-9.65,10.71-14,13-3.42,2.62-8.72,4.23-13.13,5.38-54.81,14.22-111.74,27-167.87,37.62-9.34,2.14-18.68,4.87-28,7-94.2,22.5-188.72,43.8-283.45,63.98-14.86,3.29-28.09,5.52-39.55-1.98-5.68-3.94-9.52-10.32-9.97-17.34-1.24-19.75-1.03-40.06-.03-59.66l.02-91.6,4.98-.4c1.35-1.42,6.68.16,7.5,2,.09-.58.18-1.04.3-1.05,4.1-.24,13.75-.11,18.05.07.23,0,.44.43.65.97.53-1.88,6.15-2.47,8.5-2,34.56-7.95,59.6-37.82,96.52-40.98,24.36-2.09,45.44,7.09,69.86,3.86,35.21-4.66,53.86-29.8,86.61-37.39,31.3-7.25,57.53,6.94,91.01-.99,33.25-7.87,54.14-42.76,88.37-40.37,11.49.8,23.21,6.62,34.4,8.6,17.36,3.06,37.44.13,52.23-9.73Z"/>
  <path class="st10" d="M828,581c19.05,11.69,41.82,29.92,55,48,23.62,27.38,26.2,70.47,5,100-19.37,32.58-66.06,64.05-100,80-161.55,71.32-357.96,78.96-524,14-.15-.59-.65-1.45-1-2,1.11-1.14,3.99-1.4,5,0,2-.69,3.26-.1,5,1,32.34-6.75,65.18-11.77,98.5-15.06l9.22.42c38.73,6.85,77.89,11.28,117.46,13.28l2.81,1.36c3.29-.84,6.71-.85,10,0,.66-.52,1.33-1,2.06-1.37s1.39-.66,2.09-.71c41.59-2.99,78.71-5.89,119.89-15.18,61.38-13.84,147.75-42.67,181.98-98.92,10.98-18.05,13.43-41.64.27-59.17-1.44-1.92-8.92-10.75-9.77-8.94,1.4,17.31-1.11,33.38-7.53,48.19l-3,1.08c-1.41,1.33-1.92.77-1-1,6.3-16.34,8.87-33.88,7.71-52.61l.79-64.7c.17-1.76,23.09,9.97,23.5,12.31Z"/>
  <path class="st40" d="M224,605c-8.45-4.43-13.43-30.75-9.1-37.37.89-1.37,10.59-8.71,12.69-9.75-1.18-4.32.51-11.05,5.69-12.27,42.65-9.98,85.44-19.9,128.29-29.37,136.69-29.22,271.28-59.36,403.76-90.43,4.87-.18,7.74,2.78,8.63,8.88,3.49,1.46,7.17,2.24,11.04,2.32,2.35,9.69,1.47,22.88,0,33.5-.18,4.05-2.09,8.66-4,12.5-2.94,7.21-16.78,14.84-17,16-16.14,8.46-35.49,2.77-52.08-2.88-24.72-7.86-48.02.68-68.92,13.88-5.24,3.65-9.75,8.47-15,12-13.67,11.29-32.53,14.57-49.95,13.88l-36.41-3.1c-19.83-2.28-37.83,3.24-55.64,10.22-8.65,4.21-16.03,10.38-24,15-23.34,17.8-51.62,14.74-78.65,10.44-28.28-4.54-53.47,5.56-78.35,17.56-1.23.66-2.16,1.55-3,2-17.42,11.16-43.74,26.96-65.48,22.96-4.24-.78-10.54-2.31-12.52-5.96Z"/>
  <path class="st16" d="M774,418c7.29,3.53,12.07,11.33,13.22,19.61,1.87,13.51,2.04,32.95-5.22,44.39-.43.04-1.19.42-1,1,.26-.63,4-11.82,4-12.5v-33.5c-1.62,3.87-11.84.15-12.81-1.2-2.48-3.44,1.06-9.33-9.63-7.74s-25.24,7.1-36.36,9.64c-163.61,37.39-328.08,71.16-491.44,109.56-3.04.61-5.31,3.45-5.57,6.49-.31,3.57,2.65,4.23,2.8,7.25-4.71-4.07-8.89,2.56-11.94,5.55-1.14,1.11-3.38,1.86-4.12,2.88-2.16,2.96-.75,19.44.52,23.63l7.56,11.94c-1.05.82-1.62.24-2-1-1.16-1.47-6.44-8.89-7-9-3.43-13.68-4.65-32.65-3.11-47.07.76-7.1,4.7-14.75,10.11-18.93,9.91-12.94,23.07-26.59,34-39,.78-3.02,19-23.8,20.52-23.34,55.71,25.89,120.02,24.24,177.29,4.71l2.2.63c16.29-3.33,33.02-10.41,48.22-17.68,41.87-20.01,90.66-54.74,104.55-100.37,15.93-4.9,31.62-10.56,47.09-16.96-5.96-4.21-7.24-6.55-3.87-7,38.9,24.8,87.53,57.8,122,88Z"/>
  <path class="st6" d="M425,156c.68-.4,1.38-.75,2.12-.98,4.11-1.28,19.14,4.13,24.2,6.03,53.69,20.08,95.36,71.15,98.28,129.21,5.81,115.22-124.22,176.78-224.19,153.84-5.35-1.23-21.28-4.89-24.1-8.13-.51-.59-.92-1.26-1.3-1.96,10.87-25.13,21.2-49.8,31-74,.9-2.04,2.1-3.96,3-6,19.03-47.46,41.04-93.82,63-140,9.05-19.42,18.52-38.78,28-58Z"/>
  <path class="st10" d="M797,687c.61,2.82,1.64,5.91,3.07,9.29.45,4.17-9.4,16.74-12.26,20.17-21.78,26.02-45.83,40.2-76.76,53.24-60.85,25.66-128.39,38.37-194.75,39.52-42.8.74-80.36-4.26-122.36-10.44-.64-.09-1.51-1.16-1.67-1.9-15.26,2.51-30.47,5.79-45.65,9.84l-1.63-1.71h-2c-.02-.53,0-.95.1-.98,118.11-27.58,240.59-55.28,358.9-82.02l9.93-2.61c24.58-3.59,47.94-10.39,70.07-20.39,5.41-3.63,8.72-6.46,12-12,.67-1,1.34-1.34,2-1l1,1Z"/>
  <path class="st10" d="M127,644c9.08-20.17,30.04-39.93,47.68-52.82,3.68-2.69,14.45-10.76,17.83-12.17,2.8-1.17.39,3.35.46,4.48.67,9.79,1.94,23.74,10.02,30.51l.86.04c2.08,56.6,2.94,112.64,2.57,168.12.72,5.12,1.91,10.07,3.57,14.84-1.91.22-19.27-11.13-22.32-13.18-20.35-13.73-41.81-31.66-54.68-52.82-17.47-24.8-19.94-59.9-6-87Z"/>
  <path class="st23" d="M422,461c-39.79,9.42-84.46,9.72-123-5-2.08-.82-4.72-2.88-7.07-3.61,1.11-5.48,4.01-10.3,6.07-15.39-.72-1.09-.31-2.56,1-3,.29-.71.63-.69,1,0,103.92,42.5,261.33-23.66,246.87-152.37-6.99-62.19-60.81-115.4-121.87-125.63,1.6-3.24,8.48-20.28,10.65-20.89,58.09,12.12,111.34,55.43,128.61,113.13,31.47,105.13-43.12,190.39-142.27,212.77Z"/>
  <path class="st17" d="M699,219.5c-.61,6-3.97,16.95-6.24,22.76-12.43,31.92-42.02,52.7-75.76,56.73l12.97-17.52c7.98-7.02,15.03-16.12,23.01-22.99,6.87-5.9,24.91-13.33,17.28-24.25-5.48-7.84-15.96-.03-21.58,3.95-19.44,13.75-33.97,33.27-49.67,50.82,2.48-39.05,23.94-72.29,62.03-84.46,3.92-1.25,15.01-4.54,18.46-4.54h19c2.23,0,.5,2.34.5,2.5,0,5.35.52,11.86,0,17Z"/>
  <path class="st37" d="M647,326c1.6.99,3.39,2.98,5,4-2.18.66,1.41,2.29,1.89,2.61,1.92,1.27,3.8,2.98,6.11,3.4.38.57-1.07,1.44-1.65,1.84-5.03,3.44-25.27,10.03-32.37,12.63-2.43.89-15.04,4.02-15.76,4.74-.63.62-4.12,13.19-5.87,16.63-10.18,19.97-33.53,42.22-51.42,55.58-30.94,23.09-68.47,40.32-105.91,49.57,1.1-1.92,5.14-2.55,7.23-3.26.66-.23,4.27-.76,1.76-1.73.09-.8.24-1.47.62-1.65,7.51-3.59,17.12-7.49,24.95-10.56.39-.15.89-.01,1.42.21,32.8-16.45,64.75-42.49,84-74,11.14-19.89,18.69-41.03,22.64-63.42,13.78-1.34,27.36-3.47,40.76-6.95,6.03,2.9,11.56,6.35,16.6,10.37Z"/>
  <path class="st14" d="M788,809l-6.32,4.18c-113.65,48.07-240.4,63.78-363.06,49.7-53.25-6.11-105.96-19.21-155.62-38.97,0-.46,1.02-.84,1-.91,127.84,49.46,273.72,55.15,407.01,24.51,38.15-8.77,81.63-21.89,116.99-38.51Z"/>
  <path class="st14" d="M701,722h1l-359,83c-23.88,5.76-47.88,10.76-72,15,.57,1.42-.43,1.76-3,1-1.54.24-3.4-.16-5,0-.06-.09-1.22-.05-1-.99,20.41-3.69,40.74-8.05,61.01-12.5,126.16-27.73,251.75-58.38,377.99-85.51Z"/>
  <path class="st14" d="M317,862c1.57-1.15,1.22-.85,3.01-.61,9.12,1.23,21.35,5.97,30.98,8.12,107.15,23.88,217.41,21.87,324.22-2.8,10.34-2.39,22.15-7,32.31-8.7,2.97-.5.46,1.33.48,1.99l-9.39,3.78c-35.82,8.85-72.02,15.25-108.61,19.22-67.2,8.51-136.27,8.02-203-4-16.29-2.46-32.44-5.88-48.45-10.25-7.28.01-15.19-3.31-21.55-6.75Z"/>
  <path class="st14" d="M708,861c.03.14,1.16.25,1.01.98-77.74,36.63-167.96,48.75-253.39,39.9-47.74-4.95-94.82-17.7-138.54-37.01.02-.36.94-.81.92-.87,7.18,1.34,14.87,3.4,20.79,7.63,26.54,9.91,53.86,17.72,81.75,22.76l3.46,1.61c45.63,5.5,91.84,8.68,137.8,3.45l4.2.55c43.1-6.97,86.32-15.45,126.73-32.9,4.42-3.2,9.51-5.24,15.27-6.1Z"/>
  <path class="st15" d="M558,735l.56,1.04c-69.65,15.19-138.89,32.27-208.52,47.49-27.05,5.91-57.85,14.32-84.79,18.21-12.57,1.82-19.5,2.61-30.25-4.75,5.84,3.99,16.62,4.4,23.49,3.99,100.1-20.47,199.89-43.19,299.51-65.99Z"/>
  <path class="st24" d="M708,860c.01.32-.06.69,0,1-44.83,20.7-92.78,33.58-142,39-2.66-.32-2.54-1.24,0-2l3.65-1.76c34.03-5.55,68.38-11.35,100.82-23.49-23.62,4.96-47.83,9.91-71.99,12.25-1.37.13-2.78,0-4.19-.16s-2.86-.48-4.28-.84c-.87-.28-.86-.62,0-1,39.96-4.62,79.19-12.77,118-23Z"/>
  <path class="st32" d="M483,460c-7.99,4.01-18.68,8.97-27,12-7.01,2.56-14.74,4.71-21.99,6.51-50.78,12.58-109.93,11.95-157.52-11.23-1.52.12-17.89,19.78-20.49,22.73-2.37-.85.25-2.7.98-3.52,3.01-3.32,16.74-20.4,19.49-20.46,1.43-.03,22.14,8.91,26.76,10.24,60.82,17.58,118.72,8.72,175.39-16.14,1.28-.56,3.44-2.17,4.37-.13Z"/>
  <path class="st25" d="M265,628c-1.6.37-7.86,2-8.5,2h-19c-.92,0-5.68-1.65-7.5-2-2.79-.18-4.44.72-4.94,2.69l-.06,89.31c.18,19.21-1.16,42.7,1.11,61.39.63,5.17,4.64,12.71,8.89,15.61-7.48-5.12-9.95-8.87-10.98-18.52l-.87-151.83c.37-1.15.9-1.51,2.11-1.46,5.54.21,13.07,3.56,19.2,3.85,5.11.24,10.45-.98,15.55-1.54,1.5-.17,3.96-1.49,4.99.51Z"/>
  <path class="st11" d="M210,797c-6.73-11.95-3.58-27.89-3.96-41.54-1.25-45.23-.42-90.8-2-136.01-.07-1.9.1-3.79-1.04-5.45.08.07,1.05-1.29,2.03.37,1.58,55.73,2.09,112.15,1.93,168.17.15,4.22,1.78,7.93,3.22,11.78.33.88,1.9,2.45-.18,2.68Z"/>
  <path class="st1" d="M767,685c2.07,1.16-.73,1.38-1.66,1.8-10.67,4.9-22.73,7.14-34.13,9.91-44.38,10.78-90.51,21.62-135.2,30.8-2.84.58-7.65,2.56-10.01.49,53.14-12.19,108.5-22.51,161.01-36.49,6.14-1.63,14.45-3.6,19.99-6.51Z"/>
  <path class="st29" d="M387,879c.87.28.86.62,0,1-8.42.77-16.99-.35-25.73-3.35,19.39,5.79,38.95,10.89,58.67,15.28l4.06,2.08c2.61.66,2.59,1.13,0,2-36.46-6.2-71.97-17.88-106-32-.17-.57-1.33-1-1.99-1.02-.17-1.12.82-.85.99-.98,5.29,1.43,10.48,3.32,15.79,4.71,17.55,4.59,36.36,9.28,54.21,12.29Z"/>
  <path class="st38" d="M786,524l1.99-15.99c-.18,9.49.27,19.04.05,28.54-.38,16.8-1.67,34.12-2.08,50.92-.63,25.58,1.34,55.88-2.18,80.82-.03.23-1.88,6.28-2.78,3.73.16-.33,1-2.84,1-3,1.59-48.03,2.93-96.36,4-145Z"/>
  <path class="st32" d="M305,586c16.21-8.64,35.88-17.69,54.46-19.04,42.75-3.09,58.56,16.53,102.54-8.96,1.38,1.53-1.05,1.95-1.98,2.51-43.11,26.26-72.79-.05-116.23,10.78-12.47,3.11-23.33,8.7-34.78,14.22-1.02.49-3.42,2.5-4.01.49Z"/>
  <path class="st0" d="M397,214c-21.59,46.34-42.32,93.25-63,140-2.02-1.57.73-6.11,1.53-7.97,18.12-41.77,38.29-82.7,56.61-124.39l4.86-7.64Z"/>
  <path class="st42" d="M486,543c5.7-2.77,12.92-5.66,19.01-7.49,43.64-13.2,80.94,14.73,122.99-13.51,1.28,1.34-.96,2.06-1.86,2.63-41.71,26.63-79.55-1.14-122.36,12.66-4.58,1.48-8.97,3.77-13.43,5.57-1.28.52-3.38,2.24-4.36.14Z"/>
  <path class="st36" d="M786,524c.23,28.85-1.16,57.75-2.04,86.46-.6,19.52-.26,39.06-1.96,58.54,0-.62-1.25-2.88-1.08-5.51,3.08-47.25,4.68-99.7,4.09-147.01-.02-1.69.64-4.45-1.02-5.49.52-.35.8-2.12,1.99-2,.05,4.99-.03,10.01,0,15Z"/>
  <path class="st32" d="M828,581c-2.23-1.37-22.13-12.97-22.99-12-.25,12.82.3,25.71.04,38.54-.38,18.1,1.16,65.28-9.04,78.46-.28.36-1.5.61-2,1,4.07-6.88,7.04-14.51,7.98-22.52l2.02-96.49c1.77-1.73,19.36,8.43,22.33,10.16.48.28,3.76,2.28,1.66,2.84Z"/>
  <path class="st19" d="M647,326c-5.43-3.37-11.38-6.1-16.67-9.76-13.14,3.73-26.68,5.92-40.33,6.75-2.56,21.86-11.54,44.25-23,63-1.95-.55-.06-3.07.47-4.03,10.32-18.69,18.7-38.41,21.72-59.78,8.24-1.73,16.74-2.09,25.04-3.46,4.43-.73,12.32-4.12,16.19-3.72,2.45.25,12.02,6.6,14.69,8.38.49.33,4.07,1.96,1.89,2.61Z"/>
  <path class="st27" d="M422,461c2.78,1.16-3.34,1.77-3.66,1.84-39.08,8.03-79.65,7.72-117.58-5.11-.67-.23-4.27-.77-1.76-1.73,34.63,13.58,87.03,13.12,123,5Z"/>
  <path class="st2" d="M764,499c-.01.07,1.59.33,1,.99-2.44,2.71-22.12,4.36-26.48,4-12.72-1.05-26.16-8.31-39.29-9.71-20.05-2.14-36.15,4.24-52.52,14.93-.88.57-3.08,2.98-3.71.8,18.04-12.58,35.89-19.75,58.38-16.88,19.68,2.51,31.09,12.25,52.87,8.62,3.33-.55,6.47-2.05,9.75-2.74Z"/>
  <path class="st26" d="M888,729c20.11-33.81,18.05-68.37-5-100,.57-2.11,2.49,1.18,2.83,1.67,20.98,29.83,23.66,64.71,4.68,96.34-.3.5-1.71,4.22-2.51,1.99Z"/>
  <path class="st11" d="M127,644c-12.95,28.77-10.24,60.3,6,87-1.53,1.38-1.95-1.05-2.51-1.98-15.26-25.07-16.91-52.54-6.97-80.01l3.49-5.02Z"/>
  <path class="st44" d="M222,604c.64.37,1.39.59,2,1,24.1,16.21,56.75-5.58,78-17,2.23.8-1.49,2.21-1.99,2.51-20.22,12.06-51.48,30.4-75.25,17.24-3.87-2.14-2.6-3.55-2.76-3.75Z"/>
  <path class="st43" d="M782,699c-20.06,13.46-56.09,17.87-80,23-.32.07-.68-.07-1,0,25.05-8.52,53.95-9.27,77.09-22.41.97-.55,3.26-2.71,3.91-.59Z"/>
  <path class="st33" d="M329,364c-8.96,23.74-18.96,47.08-30,70-.43,1.05-.64,2.11-1,3-2.09-.95-.35-3.09.13-4.37,7.52-20.43,17.76-40.02,25.7-60.3l5.18-8.32Z"/>
  <path class="st7" d="M300,434h-1c9.57-23.43,19.81-46.83,30-70,.55-1.25,1.37-2.58,2-4,2.04.93.43,3.09-.13,4.37-10.11,23.27-20.26,46.59-30.87,69.63Z"/>
  <path class="st19" d="M222,529c-3.08,4.02-8.19,10.58-8.94,15.56-1.26,8.36-.66,27.98-.11,36.98.27,4.34,1.59,9.09,2.04,13.46-.07-.01-.33,1.6-.99,1-2.7-2.46-3.58-41.63-3-47.49.71-7.15,3.84-12.42,8.01-17.98.32-.43,2.56-3.54,2.98-1.53Z"/>
  <path class="st20" d="M782,482c5.75-11.96,6.41-30.25,4.89-43.39-1.1-9.48-6.16-14.71-12.89-20.61.86-2.37,2.7.24,3.52.99,3.25,2.97,7.06,7.19,8.68,11.31,2.7,6.86,2.62,31.12,1.69,39.09-.33,2.81-2.84,11.49-4.89,13.11-.41.32-.94-.51-1-.51Z"/>
  <path class="st39" d="M720.66,611.66c-13.82,17.68-45.51,19.25-55.52-2.3-13.42-28.88,21.84-58.44,47.8-40.8,13.1,8.91,17.58,30.49,7.73,43.1Z"/>
  <path class="st30" d="M524.21,630.72c.71.46,6,1.07,8.47,2.1,30.02,12.52,18.53,52.85-10.43,56.92-41.08,5.76-44.25-49.25-9.81-58.25,2.73-.71,8.52-.11,9.95-.51.89-.25.64-1.3.63-1.97,1.61-.44.61,1.34,1.19,1.72Z"/>
  <path class="st12" d="M427.64,719.66c-.19.32-4.62,4.94-5.15,5.34-7.46,5.74-21.15,6.24-26.34-2.65-5.93-10.16-.7-23.11,10.63-26.07,5.71-1.5,10.68-1.76,15.73,1.72,6.48,4.46,9.13,14.81,5.14,21.67Z"/>
  <path class="st12" d="M326.77,669.2c10.14-1.38,17.58,8.86,14.57,18.65-2.02,6.57-10.25,11.53-16.82,11.14-19.6-1.18-15.9-27.32,2.25-29.78Z"/>
  <path class="st34" d="M230,628l-4.06,1.57-.94,90.43c-.24-24.86-.36-49.71-1.05-74.46-.17-6.12.6-12.38.05-18.54.24-.25,4.96.8,5.99,1Z"/>
  <path class="st10" d="M511,822c-3.25-.85-6.74-.84-10,0-17.84-.12-37.68-1.42-55.5-3-22.67-2.02-53.03-10.05-74.01-10.06-25.26-.01-61.68,9.82-88.13,12.93-3.45.41-6.94-.11-10.37.13-.96.29-1.29-.04-1-1,23.91-5.85,48.24-11.18,73-16,10.94-2.16,39.02-10.13,47.58-10.08,1.84.01,1.23,1.93,2.1,2.09,94.37,17.23,193.22,13.71,284.34-17.49,44.19-15.13,90.71-34.91,115.55-76.45,1.02-1.7,3.15-2.33,3.46-4.61.79-5.99-4-7.48-4.01-7.95,0-.23,2.28-2.41,2.98-3.5,11.67-18.17,6.4-33.88,9.01-54,29.27,20.9,27.5,54.75,7.42,81.93-56.23,76.11-213.18,105.87-302.43,107.07Z"/>
  <path class="st21" d="M271,820c.85.01,1.24.07,1,1,.33.33.64.69,1,1-.71.05-3.13,1.97-5,.99-1.2-.56,5.06-1.94,0-1.99.37-.06,1.63-.75,3-1Z"/>
  <path class="st21" d="M511,822c-3.32.04-6.68.02-10,0,2.21-1.71,7.98-1.66,10,0Z"/>
  <path class="st8" d="M400.3,305.28l99.38-62.1c10.57-5.87,17.97.72,22.69,9.95,8.03,15.69,11.89,38.9,10.67,56.41-1.95,27.89-14.78,23.6-37.27,20.19-30.61-4.65-60.92-12.12-91.63-16.37-4.94-.57-6.6-3.96-3.84-8.08Z"/>
  <path class="st8" d="M434.73,174.23c10.31-2.13,30.41,9.51,39.19,15.35,7.44,4.95,26.84,19.87,27.12,28.95.17,5.3-3.22,8.85-7.11,11.9-8.84,6.92-23.07,14.63-33.02,20.98-22.59,14.43-45.88,27.8-67.96,43.04-11.11,2.01-10.21-6.75-7.44-14.44,11.85-32.9,27.88-64.58,39.29-97.72,1.79-3.12,6.38-7.33,9.93-8.07Z"/>
  <path class="st8" d="M388.65,323.15c2.6-.87,8.5.71,11.53,1.17,34.37,5.23,68.28,13.88,102.62,19.38,18.13,7.13,10.11,21.74,1.61,33.22-9.68,13.06-29.27,28.12-44.03,34.97-14.31,6.63-21.71,8.61-30.55-6.21-14.94-25.04-26.8-52.05-42.06-76.94-1-1.93-1.51-4.79.89-5.59Z"/>
  <path class="st8" d="M365.71,327.16c2.52-.75,5.7.26,7.17,2.46l43.65,84.34c2.24,6.75-2.69,13.84-8.98,16.09-13.36,4.79-39.77,5.81-54.04,4.94-7.32-.45-25.06-1.98-29.55-7.45-6.12-7.44-.89-14.22,2.35-21.73,11.05-25.62,24.92-50.12,36.5-75.51.65-1.25,1.46-2.72,2.9-3.15Z"/>
  <path class="st31" d="M343,805c.61-.12,1.39.12,2,0l-73,16-1-1c24.08-4.36,47.98-10.24,72-15Z"/>
  <path class="st5" d="M590,883v1c-1.53.7-3.06,1.35-4.65,1.86s-3.14,1-4.73,1.17c-60.08,6.51-124.66,6.17-184.36-3.51-1.59-.26-3.14-.83-4.69-1.42s-3.08-1.33-4.57-2.11v-1c65.2,10.98,137.39,11.59,203,4Z"/>
  <path class="st3" d="M566,898v2c-46.41,5.11-95.98,3.83-142-4v-2c2.93-.5,5.9-.89,8.87-.57,43.42,4.7,84.93,8.3,128.69,3.7l4.44.87Z"/>
  <path class="st10" d="M590,884c26.17-3.02,51.25-6.81,77.01-12.49,7.88-1.74,16.2-4.63,23.94-6.07,1.04-.19,3.28-1.32,3.04.55-41.24,17.3-83.53,27.09-127.99,32.01-47.4,5.25-94.94,4.15-142-4-30.15-5.22-59.43-13.24-87.99-24.01-.22-1.88,2.01-.77,3.04-.54,15.95,3.51,31.84,7.8,47.95,10.55,66.88,11.42,136,11.74,203,4Z"/>
</svg>