<?xml version="1.0" encoding="UTF-8"?>
<svg id="Layer_1" xmlns="http://www.w3.org/2000/svg" version="1.1" viewBox="0 0 384 384">
  <!-- Generator: Adobe Illustrator 29.7.1, SVG Export Plug-In . SVG Version: 2.1.1 Build 8)  -->
  <defs>
    <style>
      .st0 {
        fill: #007af5;
      }

      .st1 {
        fill: #009bf6;
      }

      .st2 {
        fill: #fc9126;
      }

      .st3 {
        fill: #683b0d;
      }

      .st4 {
        fill: #e9e9e7;
      }
    </style>
  </defs>
  <path class="st4" d="M252,198c2.48,33.4.22,73.89,0,108l-.53,1.5h-118.55l-.93-1.5c-.22-34.11-2.48-74.6,0-108l.53-1.5h118.55l.93,1.5Z"/>
  <path class="st3" d="M252,306c-.15,22.98,5.03,57.09-27.39,59.99-16.9,1.51-46.66,1.24-63.77.05-33.99-2.37-28.69-35.8-28.84-60.03h120Z"/>
  <path class="st3" d="M162,144c3.98-1.47,8.02-1.48,12,0,3.98-1.47,8.02-1.48,12,0,3.98-1.47,8.02-1.47,12,0,3.98-1.48,8.02-1.47,12,0,3.98-1.48,8.02-1.47,12,0,1.97-1.47,4.03-1.47,6,0l.12,17.51c13.49,7.89,22.7,20.56,23.88,36.49h-120c.76-10.18,5.69-21.44,13.1-28.52,1.8-1.72,10.45-7.03,10.77-7.98,1.28-3.75-.69-13.06.12-17.5,1.97-1.47,4.03-1.47,6,0h0Z"/>
  <path class="st2" d="M219.75,94.5c-3.31,1.85-6.45,1.87-9.75,0-4.05,1.85-7.96,1.87-12,0-3.98,1.46-8.02,1.46-12,0-4.04,1.87-7.95,1.85-12,0-3.3,1.87-6.44,1.85-9.75,0,6.4-15.91,2.57-33.33,3.72-49.91,2.31-33.38,45.58-33.7,48.06,0,1.21,16.52-2.72,34.01,3.72,49.9h0Z"/>
  <path class="st1" d="M150,94.5l1.5.69v47.91l-1.5.9c-5.99-.02-12.01.02-18,0v-43.88c0-.22,1.84-3.29,2.29-3.71,3.18-2.96,11.34-1.82,15.71-1.91Z"/>
  <path class="st1" d="M234,94.5c4.37.09,12.53-1.05,15.71,1.91.45.42,2.29,3.49,2.29,3.71v43.88c-5.99.02-12.01-.02-18,0l-1.5-.69v-47.91s1.5-.9,1.5-.9Z"/>
  <path class="st0" d="M162,94.5l1.5.69v47.91l-1.5.9c-2,0-4,0-6,0s-4,0-6,0v-49.5c3.99-.09,8.01.04,12,0Z"/>
  <path class="st1" d="M164.25,94.5c3.24-.02,6.51.01,9.75,0l1.5.69v47.91l-1.5.9c-3.99,0-8.01,0-12,0v-49.5h2.25Z"/>
  <path class="st1" d="M219.75,94.5h2.25l1.5.69v47.91l-1.5.9c-3.99,0-8.01,0-12,0l-1.5-.69v-47.91l1.5-.9c3.24.01,6.51-.02,9.75,0Z"/>
  <path class="st0" d="M234,94.5v49.5c-2,0-4,0-6,0s-4,0-6,0v-49.5c3.99.04,8.01-.09,12,0Z"/>
  <path class="st0" d="M186,94.5c.59.06,1.49.28,1.5.69.46,13.67.88,30.61,0,44.12.5,2.55,0,4.11-1.5,4.68h-12v-49.5c3.99-.02,8.01.01,12,0h0Z"/>
  <path class="st1" d="M198,94.5c.59.06,1.49.28,1.5.69.46,13.73.71,29.99,0,43.66.52,2.76.02,4.48-1.5,5.15h-12v-49.5c3.99-.01,8.01-.01,12,0Z"/>
  <path class="st0" d="M210,94.5v49.5h-12v-49.5c3.99.01,8.01-.02,12,0Z"/>
</svg>