<?xml version="1.0" encoding="UTF-8"?>
<svg id="Layer_1" xmlns="http://www.w3.org/2000/svg" version="1.1" viewBox="0 0 1024 1536">
  <!-- Generator: Adobe Illustrator 29.7.1, SVG Export Plug-In . SVG Version: 2.1.1 Build 8)  -->
  <defs>
    <style>
      .st0 {
        fill: #ca804b;
      }

      .st1 {
        fill: #649fc5;
      }

      .st2 {
        fill: #7c4f23;
      }

      .st3 {
        fill: #5a662e;
      }

      .st4 {
        fill: #7a4e22;
      }

      .st5 {
        fill: #59662e;
      }

      .st6 {
        fill: #58642d;
      }

      .st7 {
        fill: #352614;
      }

      .st8 {
        fill: #1e180a;
      }

      .st9 {
        fill: #342f20;
      }

      .st10 {
        fill: #f7e7d3;
      }

      .st11 {
        fill: #63858d;
      }

      .st12 {
        fill: #794e22;
      }

      .st13 {
        fill: #385064;
      }

      .st14 {
        fill: #393121;
      }

      .st15 {
        fill: #a3582a;
      }

      .st16 {
        fill: #1c1a0a;
      }

      .st17 {
        fill: #18190a;
      }

      .st18 {
        fill: #311e0b;
      }

      .st19 {
        fill: #a25729;
      }

      .st20 {
        fill: #fff;
      }

      .st21 {
        fill: #fcfbfb;
      }

      .st22 {
        fill: #7a4e21;
      }

      .st23 {
        fill: #352813;
      }

      .st24 {
        fill: #374f64;
      }

      .st25 {
        fill: #382c1b;
      }

      .st26 {
        fill: #cb814c;
      }

      .st27 {
        fill: #1f1b0b;
      }

      .st28 {
        fill: #784d21;
      }

      .st29 {
        fill: #362c18;
      }

      .st30 {
        fill: #362813;
      }

      .st31 {
        fill: #1f190a;
      }

      .st32 {
        fill: #9d5c3c;
      }

      .st33 {
        fill: #121206;
      }

      .st34 {
        fill: #1b180a;
      }

      .st35 {
        fill: #764c21;
      }

      .st36 {
        fill: #6a9bad;
      }

      .st37 {
        fill: #352f20;
      }

      .st38 {
        fill: #383020;
      }

      .st39 {
        fill: #385165;
      }

      .st40 {
        fill: #639ec1;
      }

      .st41 {
        fill: #629fc6;
      }

      .st42 {
        fill: #32220f;
      }

      .st43 {
        fill: #1d180a;
      }

      .st44 {
        fill: #714823;
      }

      .st45 {
        fill: #476878;
      }

      .st46 {
        fill: #181609;
      }

      .st47 {
        fill: #344953;
      }

      .st48 {
        fill: #3a2e1a;
      }

      .st49 {
        fill: #1a190a;
      }

      .st50 {
        fill: #432d19;
      }

      .st51 {
        fill: #5a672e;
      }

      .st52 {
        fill: #3a3120;
      }

      .st53 {
        fill: #332515;
      }

      .st54 {
        fill: #1a1709;
      }

      .st55 {
        fill: #2e2712;
      }

      .st56 {
        fill: #1c1b0a;
      }

      .st57 {
        fill: #4e7082;
      }

      .st58 {
        fill: #332a18;
      }

      .st59 {
        fill: #1e1b0b;
      }

      .st60 {
        fill: #f8e8d3;
      }

      .st61 {
        fill: #59692d;
      }

      .st62 {
        fill: #1c180a;
      }

      .st63 {
        fill: #fdfdfd;
      }

      .st64 {
        fill: #362c17;
      }

      .st65 {
        fill: #619dc4;
      }
    </style>
  </defs>
  <path class="st31" d="M570,86.5c2.78-17.86,20.67-27.9,37.54-26.54,3.02.24,8.89,2.49,10.77,2.09.81-.17,1.22-2.12,2.31-2.9,14.21-10.2,33.93-10.21,47.4,1.34,1.65,1.41,5.21,6.52,5.64,6.59,1.96.31,7.14-2.61,9.93-2.99,22.5-3.03,39.27,17.86,39.46,38.88,20.35,3.5,27.67,27.93,22.48,46.06-.73,2.54-4.23,8.01-4.23,8.48s3.72,6.06,4.43,8.28c5.66,17.54-2.32,40.38-22.69,42.26,1.46,18.14-12.48,33.63-31.03,28.97,3.44,34-8.36,73.04-29.61,99.89-2.53,3.2-6.77,5.04-6.23,9.33.81,6.4,9.05,25.57,12.66,31.44,14.54,23.64,44.46,24.02,69.17,31.83,45.69,14.45,59.8,31.1,81.52,72.48,11.13,21.2,24.53,47.44,33.65,69.35.85,2.04,2.93,6.18,2.82,8.09-.17,2.83-3.81,6.02-3.55,7.63.35,2.16,3.67,6.04,4.74,8.27,12.56,26.34,30.74,72,25.74,101.1-2.69,15.64-33.6,36.61-46.98,44.15,7.19,16.38,15.08,34.82,18.57,52.42,1.83,9.22.6,5.08-2.03,11.07-.82,1.87,7.2,34.16,8.21,39.76,13.15,72.71,18.1,162.41,19.35,236.62.09,5.62.87,30.4-.55,33.55-3.21,7.12-45.25,20.44-54.49,22.03,6.81,30.11,5.18,60.9,1.88,91.36-3.75,34.69-14.54,78.63-9.59,112.85,2.48,17.15,11.65,28.68,9.6,48.16-1.94,18.48-12.29,19.18-23.41,29.6-5.67,5.31-9.92,12.69-16,18-19.2,16.75-40.01,19.89-64.96,18.02-12.98-.98-29.69-5.43-29.4-21.38.26-14.47,25.96-36.74,35.29-48.71,27.72-35.58,27.34-51.22,23.59-95.39-4.02-47.34-15.69-93.54-21.99-140.52h-58c.38,17.35.06,34.16-2.14,51.36-5.2,40.74-20.91,83.83-17.85,125.13,1.23,16.62,16.51,50.84,2.33,63.36-8.18,7.22-35.5,10.74-47.61,15.39-28.72,11.02-64.44,28.23-95.76,12.29-3.17-1.61-2.26-3.86-4.96-3.52-7.5,18.14-28.55,29.49-47.64,30.87-3.76.27-13.14-1.13-14.65-.73-.9.24-11.12,9.72-14.42,11.66-6.14,3.62-17.2,6.24-21.68,9.32-2.06,1.42-4.81,6.75-7.61,9.39-5,4.7-22.86,16.54-29.44,15.48-1.32-.21-2.35-1.56-3.24-1.69-1.75-.26-3.43,1.06-6.41.29-3.19-.83-2.32-4.02-3.01-4.56-.22-.17-2.26,1.06-4.84-.54-3.36-2.09-4.18-6.3-5.33-7.24-.99-.81-3.33-.41-4.52-1.49-1.41-1.29-3.62-8.48-4.25-10.75-6.53,8.58-19.66,2.3-28.46,1.95-16.69-.67-16.96.98-34.25-3.72-4.08-1.11-7.02.72-11.31-2.69-4.58-3.64-5.67-19.2-4.87-24.95.22-1.6,6.52-15.34,7.43-16.57,5.46-7.3,17.97-2.51,25.48-3.03.8-.72-6.33-17.68-3-20.99-5.85,2.93-7.96-2.67-8.76-7.75-1.74-11.03,1.85-21.3,8.78-29.74,2.23-2.72,8.76-7.39,9.79-9.21,1.49-2.63,2.18-8.71,3.71-12.29,5.34-12.55,13.39-24.37,22.48-34.52.35-.78-5.6.21-4.82-5.73.53-4.02,7.96-17.32,10.31-21.79,4.45-8.49,10.06-18.61,15.71-26.29,1.81-2.46,10.6-11.45,10.77-12.25.48-2.17-6.95-4.77-8.88-6.02-21.16-13.69-38.69-34.5-32.63-61.47,2.7-12.01,12.82-23.86,14.29-34.71.75-5.55-.22-11.27.27-16.73,9.96-112.63,201.43-101.56,175.52,29.52-.53,2.7-4.22,12.76-4.18,13.46.06,1.02,5.69,8.02,6.41,12.24,3.1,18.18-15.81,39.61-33.52,42-7.33.99-13.93-3.57-16.26,4.74,27.5,9.27,43.01,33.87,52.04,60,1.37,3.97,7.08,21.27,6.91,24.08-.18,3.09-3.91,3.05-3.99,4.02-.1,1.18,2.18,5.45,2.59,7.38,1.68,7.95,1.98,14.25.19,22.26-1.06,4.75-7.24,15.16-7.32,17.27-.11,3.08,3.95,14.84,4.47,20.14.43,4.43-.05,8.94.14,13.37,18.79-9.87,36.01-20.26,51.01-35.48,12.24-12.42,19-19.91,20.02-37.98,1.87-33.07-2-71.86-5.05-105.04-2.12-23.1-5.54-46.17-7.66-69.28-.24-.9-.78-1.2-1.57-1.55-4.77-2.12-15.5-3.49-21.53-5.41-7.96-2.53-32.53-10.91-36-17.99-2.34-4.78-.24-6.51-.19-10.73.09-7.48.62-14.71.94-22.05,3.61-82.67,10.43-165.79,25.68-247.06-5.28-3.32-4.93-5.02-4.65-10.92,1.88-39.65,20.59-83.1,9.48-123.5-2.71-9.86-7.95-17.09-12.51-26l-13.46,30.02c-13.44,26.61-23.47,38.5-53.52,45.48-31.04,7.21-62.79,5.76-94.31,3.48l-9.69,10.51c16.09,14.29,24.4,37.87,25.97,59.01.6,8.14-1.55,22.95.25,29.75,2.36,8.9,22.63,32.94,27.94,44.06,16.26,34.02-39.24,69.01-66.42,76.95-20.98,6.13-43.96,7.69-54-15.58l-65.4-16.61c-10.09,2.09-12.29,12.43-22.12,16.67-28.71,12.38-33.5-31.13-26.73-49.73,5.1-14.01,18.1-24.24,32.42-14.45,6.9,4.71,7.39,12.22,13.02,16.98l47.04,5.45c-5.45-12.85-11.18-25.73-17.14-38.35-4.3-9.11-9.97-13.14-8.86-24.15,1.05-10.48,11.86-22.71,19.53-29.46,2.69-2.37,17.93-12.61,18.27-13.72,2.4-7.82-3.81-9.86-7.63-14.98-18.42-24.72-11.9-69.81,17.14-82.52,15.52-6.79,29.26-6.2,45.18-7.82,34.74-3.53,69.68-20.43,101.4-33.6,3.45-6.77,6.45-13.75,9.13-20.87,2.27-6.03,8.54-22.67,8.96-28.14.49-6.33-6.96-5.06-5.75-13.63,1.13-8,9.74-25.24,12.79-34.23,11.59-34.18,17.18-72.36,47.65-95.35,1.77-1.33,4.68-2.3,5.71-3.11,2.69-2.12-1.87-2.28-3.74-3.19-25.32-12.19-69.51-46.42-80.49-72.52-7.7-18.31-3.9-31.8-7.37-48.63-.89-4.32-9.4-16.97-11.79-23.21-4.86-12.65-4.52-22.47-7.41-34.59-.92-3.86-3.61-8.18-4.84-12.16-10.95-35.6-2.54-65.33,19.31-94.23,35-46.29,88.02-73.28,146.96-63.54.49-4.51-.67-10.18,0-14.5Z"/>
  <path class="st59" d="M262.81,1010.18c4.73,2.76-2.38,15.92-3.36,20.76-5.56,27.45-1.99,48.26-17.64,74.36-9.52,15.88-20.09,21.53-32.82,33.18-23.42,21.42-24.2,58.21-22.99,88.02.05,1.21-.76,3.72.99,3.48,2.09-17.22,6.65-34.58,20.68-45.82,13.86-11.1,37.23-16.66,54.78-17.21,26.09-.82,5.24,12.39-1.43,20.56-12.19,14.92-15.18,26.78-34.34,36.66-8.11,4.18-25.91,7.05-31.04,10.96-2.51,1.92-9.29,12.95-5.21,14.5,20.1.61,42.09,1.5,61.58,6.85,8.53,2.34,20.89,6.23,20.88,16.91,0,5.15-2.52,24.16-3.97,29.03-1.85,6.22-5.25,5.08-8.26,7.51-3.76,3.04-13.45,84.06-17.18,95.06-.81,2.08-1.74,4.02-3.53,5.47-11.85,9.66-49.05,13.01-64.49,12.47-12.26-.43-46.01-4.04-52.93-14.97-8.28-31.5-10.86-64.8-18.5-96.5-3.44-2.65-7.11-3.81-8.74-8.26s-5-30.5-4.09-34.49c1.9-8.3,20.7-12.45,27.97-14.03,17.73-3.86,35.74-4.3,53.71-5.79,2.84-27.9-20.03-24.37-37.88-31.41-27.43-10.82-28.3-25.13-44.04-44.96-3.36-4.24-15.66-13.2-15.01-17.96.37-2.68,2.1-3.29,4.48-3.61,29.66-3.96,72.51,8.3,85.03,38.06,5.05,11.99,3.34,24.05,7.53,35.98l1.99-19.49c-1.62-17.37-2.03-34.79-10.48-50.52-7.37-13.7-24.64-18.8-36.53-29.47-26.54-23.81-26.58-53.03-35.47-84.53-1.5-5.31-9.52-22.97-8.38-26.35,1.53-4.54,17.89,1.97,21.39,3.34,37.16,14.49,70.96,46.12,71.48,88.5.13,10.85-5.26,24.55-5.03,33.98.19,7.95,6.09,17.66,7.53,25.56.15-6.85,4.7-14.81,4.53-21.47-.22-8.95-5.34-22.59-6.02-33.05-2.59-39.6,22.26-71.07,55.32-89.66,4.14-2.33,26.32-13.49,29.48-11.64Z"/>
  <path class="st41" d="M184.99,957c2.16,2.08,2.46,23.53,2.02,27.5-.19,1.74-2.17,9.87-4.5,9.53-8.42-1.23-2.84-26.28-1-32.04.29-.91,1.53-6.87,3.49-5Z"/>
  <path class="st1" d="M165.84,969.81c-4.79,2.78-3.95-8.28-3.58-11.05.32-2.42,8.83-27.95,11.73-25.75.16,1.53,1.04,2.89,1.02,4.48-.04,4.43-6.12,30.56-9.17,32.33Z"/>
  <path class="st65" d="M167,1018.5c-.23,2.17-2.11,10.9-4.49,11.26-4.33.67-3.68-9.95-3.56-12.31.22-3.99,2.36-17.29,6.04-18.96,1.07-.48,2,.78,2,1.01,0,5.92.6,13.33,0,19Z"/>
  <path class="st24" d="M873.84,1090.84c-28.76,15.83-62.97,22.94-95.46,27.03-67.36,8.48-168.76,5.4-233.16-16.59-4.8-1.64-21.78-8.3-24.77-11.23-2.3-2.26-1.49-7.36-1.47-10.62.32-47.04,5.52-99.79,10.03-146.93,3.8-39.71,8.74-79.32,16-118.51,14.97,6.6,29.84,11.78,45.77,15.73,2.34.58,6.55.42,8.44,1.31,1.63.77,1.7,3.93,5.52,4.77,4.44.97,7.36-1.81,7.78-1.78.68.05,1.93,5.87,7.25,6.79,6.05,1.04,9.2-3.81,9.74-3.79.77.02,1.86,5.36,7.88,4.95,6.78-.47,11.77-8.59,13.33-8.94,4.02-.89,8,.91,11.75,1.01,62.62,1.65,130.99-12.27,184.53-45.04,19.25,80.95,20.2,164.73,26.05,247.46l.8,54.38Z"/>
  <path class="st0" d="M718,518.5c2.94,30.54,27.68,65.61,41.44,92.56,3.96,4.01,9.12,1.86,10.05,2.88l17.34,31.57c-12.68,11.57-26.58,22.18-40.51,32.31-13.35,9.71-29.29,21.51-43.65,29.35-40.19,21.97-80.14,6.51-105.84,54.16-7.98,14.8-12.06,33.94-9.38,50.72.85,5.34,4.05,13.4,10.54,9.95-.1.81.21,2.76,0,2.99-2.06,2.25-52.16-14.47-56.84-20.66,1.63-22.06,7.06-43.95,9.71-65.97,3.43-28.45,6.5-54.69-8.07-80.68-17.39-31.02-33.97-39.83-30.79-81.18,1.75-22.75,13.52-45.93,3.97-68.51-1.74-.24-.94,2.28-.99,3.48-.24,6.28.36,12.62-.13,18.88-1.31,16.81-7.97,34.15-8.91,51.09-.63,11.27,1.39,22.71,4.04,33.54-9.38,1.38-50.84-19.51-50.98-27.47-.04-2.18,8.52-21.73,10-26.01,11.08-32.13,18.96-75.88,45.51-98.49,1.86-1.58,10.63-8.38,12.21-8.78,7.72-2,21.53,2.71,30.25-2.24-5.43,23.7,7.96,73.29,30.65,84.85,5.33,2.72,13.08-3.8,17.69-7.03,41.25-28.87,72.57-78.48,90.76-124.75,20.79,4.72,43.77,10.08,63.27,19.06,34.11,15.71,46.79,45.59,62.79,77.21,9.6,18.97,18.52,38.41,27.38,57.72-11.52,18.48-36.13,34-56.26,41.69-5.59,2.14-25.49,9.08-29.78,5.25-18.83-34.62-42.69-70.24-43.5-111.01-.64-.07-1.99,1.33-1.99,1.5,0,6.92-.64,15.32,0,22Z"/>
  <path class="st44" d="M548.99,189.99c.26,9.72,10.63,17.32,20.01,16.01-2.91,13.24,8.07,24.26,20.96,25.04-.8,8.61,2.77,16.05,10.36,20.14,1.31.71,5.45,1.66,5.64,1.89.09.12-.76,1.65-.51,2.95,1.69,8.92,10.85,20.02,20.1,13.05,2-1.51,8.06-19.8,10.73-24.27,10.66-17.86,29.91-16.29,37.47,2.96,9.45,24.04,1.68,71.51-30.76,72.26,6.9,25.77,14.77,70.48,43,81.51,1.27.5,2.66.52,4,.49,2.27,2.22-16.16,36.95-18.83,41.67-14.99,26.44-34.2,51.83-57.16,71.84-3.26,2.85-19.82,15.93-22.74,16.36-5.25.78-16.34-15.3-18.79-19.85-7.56-14.11-15.68-44.55-9.67-59.64.96-2.42,10.72-5.78,13.65-7.38,1.38.29,7.92,23.18,12.52,24.99-.25-8.2-4.13-16.36-7.87-23.52,21.25-18.03,38.49-43.04,44.87-70.47l-12.18,19.31c-20.75,27.7-45.62,57.42-84.23,52.6-21.78-2.72-73.76-45.73-85-65-10.53-18.06-8.85-31.92-10.6-51.4-.89-9.89-8.28-17.13-11.83-26.16-2.71-6.89-2.35-8.27,2.44-14.27,4.36-5.47,9.22-7.24,16.2-7.79,4.4-.35,15.5,3.7,11.07-4.66-4.94-9.33-22.55-5.99-29.35.37-2.72,2.54-3.83,6.61-6.5,8.99.3-8.83-2.53-17.76-3.05-26.46-.45-7.55-.34-28.25,2.3-34.78,1.07-2.65,5.11-5.02,6.95-8.05s3.01-9.88,4.3-11.7c.97-1.37,9.75-2.83,13.91-9.09.89-1.34,1.39-4.77,1.59-4.93.33-.25,3.26.95,4.48,1.01,7.86.38,11.39.53,17.86-4.14,1.35-.98,2.15-3.43,3.23-3.7s8.44,1.2,11.83.75c3.66-.48,8.5-3.73,11.16-3.91,3.93-.26,10.29,4.03,18.84,2.91,2.45-.32,8.38-3.15,9.99-2.76,1.01.24,2.95,4.3,5.24,5.7,7.27,4.46,16.67,3.75,24.35,1.14Z"/>
  <path class="st12" d="M497.99,1133.01c-10.67-2.86-20.71-1.35-27.99,7.51-.2,2.56.36,1.11,1.73.73,3.3-.91,5.93-3.01,9.04-3.96,16.34-4.99,27.03,8.04,21.69,23.69-5.91,17.33-28.56,32.72-45.46,20.03,3.42,8.32-8.19,16.33-14.7,19.81-37.77,20.16-97.41,15.07-117.17-27.45-12.93-27.84,4.28-34.87,9.37-56.35,3.73-15.76.68-30.59,7.01-46.99,23.82-61.72,128.21-64.37,154.95-3.99,9.43,21.29,8.18,45.09,1.53,66.97Z"/>
  <path class="st28" d="M848.98,572c9.65,20.65,19.23,41.66,24.52,63.99,2.49,10.53,6.4,30.15,3.25,40.26-4.05,12.99-32.2,32.28-44.08,38.92-35.62,19.9-77.56,31.08-117.01,40.75-3.34,6.91-5.63,12.65-10.64,18.61-11.8,14.04-28.82,17.96-41,32-5.86,6.76-16.88,26.9-24.78,29.22-1.4.41-2.83.3-4.25.25-3.21-3.16,12.45-29.79,15.19-34.31s9.24-11.78,10.98-16.04c.48-1.19,1.01-2.32-.69-2.65-2.58-.5-9.99,10.23-11.51,12.47-6.4,9.48-13.27,26.98-19.44,34.56-3.76,4.61-12.36,7.89-12.26-.35.08-6.89,10.51-27.77,14.33-34.59,2.56-4.57,10.55-14.4,11.85-18.15.58-1.68,1.2-4.44.05-5.95-7.19,9.54-15.62,20.35-21.05,30.95-2.44,4.76-9.48,25.75-11.35,27.4-4.62,4.09-8.22-2.1-8.14-6.8.19-11.92,9.05-32.63,14.87-43.23,2.32-4.21,10.39-14.56,11.13-17.87.28-1.25.4-3.2-1.45-2.45-5.67,2.31-19,27.87-21.68,34.33-1.53,3.69-6.52,20.63-7.35,21.65-4.22,5.18-6.3-6.77-6.52-9.44-2.06-25.7,16.35-61.55,40.77-71.31,19.51-7.79,43.76-8.99,62.93-17.07,20.57-8.67,50.68-31.94,69.25-45.75,11.05-8.21,25.13-23.06,37.54-27.46,8.2-2.91,16.93-3.26,25.54-3.97-.35-1.91-2.09-1.65-3.45-2.03-9.06-2.55-23.77,1.74-32.47,5l-17.06-29.45c6.73-3.17,13.99-4.32,20.95-7.03,16.07-6.27,36.54-19.15,49.09-30.93,1.74-1.64,1.39-4.16,3.93-3.53Z"/>
  <path class="st36" d="M225,894c17.59,1.13,35.02,4.06,52.51,5.99,11.41,1.26,18.18-1.74,25.95,10.05l5.53,13.95c2.75-11.84-5.62-24.83-17-28.48-2.95-.95-9.87-1.06-11.51-2.49l-23.48-46.01c30.21,6.67,61.72-7.24,84-27l-26.32,15.17c-14.04,5.98-29.58,11.9-45.16,10.81-4.3-.3-13.5-1.55-15.73-5.26-6.35-10.56,7.19-26.78,14.74-33.69,2.43-2.22,13.63-11.08,15.99-12.02,1.88-.74,1.28.61,1.45,1.51,1.14,6.01,5.53,31.22,10.01,34.01,1.27.79,3.61.91,4.58-.47,2.09-2.99-1.87-7.1-2.84-10.27-6.89-22.51-12.92-59.78,3.31-79.26,3.14-3.77,6.66-7.41,11.98-6.51-6.35,9.22-11.91,15.46-10.92,27.41,1.44,17.4,1.21,34.27,6.42,51.58,2,6.65,2.21,13.81,10.53,11.53,6.5-1.79,25.05-15.14,29.47-20.52,2.59-3.15,2.28-4.83,3.49-7.01-1.1-1.87-.1-3.54,3-5,4.96,5.29,8.77,11.55,12.81,17.69,12.45,18.86,31.16,45.57,41,65,6.58,13,2.35,22.78-6.3,33.32-16.83,20.51-53.8,42.38-81.01,39.97-5.71-.51-15.5-4.6-17.76-10.24-1.13-2.83.17-6.18-2.4-7.6-21.55-4.64-43.75-12.79-65.33-16.66-4.43-.79-7.39-1.71-12.01-.49-1.49-1.84-1.82-4.37-.98-7.59-.8-4.98-.14-8.78,1.98-11.41Z"/>
  <path class="st35" d="M820,1117c1.3,18.74,4.9,37.62,3.99,56.49-2.23,46.44-18.48,101.58-12.88,146.9.6,4.82,6.41,18.05,5.72,20.85-.19.77-4.51,7.34-5.42,8.67-15.33,22.39-37.28,46.05-67.47,38.65-3.94-.96-18.71-8.27-17.79-12.92.22-1.12,12.09-15.07,14.07-17.92,9.84-14.19,17.52-26.17,19.31-43.78,1.4-13.75-.29-33.34-1.54-47.44-4.14-46.63-15.41-92.26-22-138.5,28.23-1.28,56.27-5.7,84-11Z"/>
  <path class="st35" d="M665.99,1127c.32,18.21.47,36.33-2.15,54.34-7.02,48.29-26.18,97.32-14.03,146.48-9.51,5.9-17.93,13.35-27.94,18.56-17.71,9.21-57.49,22.76-75.93,13.18-9.11-4.73-.48-6.66,3.97-10.14,15.37-11.99,39.05-32.88,40.95-53.05,3.36-35.63-2.33-84.55-5.88-120.87-1.94-19.86-5.02-39.65-6.99-59.5,28.95,5.63,58.49,10.38,87.99,10.99Z"/>
  <path class="st35" d="M372,724.99c-.31-1.41,2.31-7.72,2-7.98-1.97-1.68-2.29,2.13-3.13,3.32-13.72,19.62-15.93,13.12-33.19,23.84-6.9,4.28-18.75,20.73-22.44,21.64-6.15,1.52-8.74-6.02-8.04-11.05.77-5.62,11.5-22.01,14.97-28.11.93-1.64,3.16-2.8,3.63-4.36,1.19-3.93-.9-8.34.2-12.29-2.95-.45-1.72.62-1.97,2.5-.45,3.41.37,8.6-4.75,9.36s-3.41-7.29-7.26-8.87c-.39,2.24,1,4.35.98,6.5-.05,6.63-5.49,6.97-10.01,10.99-7.03,6.26-12.59,13.48-15.45,22.55l-3.53,10.95c-3.33-8.91-3.73-19-3-28.48.51-6.53,5.16-30.93,8.14-35.86,1.51-2.51,4.17-4.14,6.85-5.15,20.64-7.75,39.4-6,60.03-9.97,16.31-3.14,33.79-9.88,49.48-15.52,9.47-3.41,30.76-14.17,39.1-14.97s15.02,6.13,22.38,7.95c-5.02-6.3-12.83-8.87-20.06-11.58,7-15.93,13.68-32.3,17.06-49.4l23.32,13.17c8.3,4.04,17.36,5.4,26.18,7.82,1.09,3.59,3.09,6.81,5.07,9.93,2.21,3.46,8.66,10.98,8.25,14.31-.61,4.95-8.12,21.03-10.65,26.45-11.76,25.17-20.23,39.82-48.42,47.58-30.53,8.4-64.47,5.96-95.76,4.73Z"/>
  <path class="st40" d="M404,1353l-18.78-4.72c-32.99-10.45-31.9-28.21-29.21-58.77,1.75-19.92,6.97-39.5,7.98-59.5-1.47-.23-1.32,1.74-1.68,2.79-5.89,17.23-8.7,37.08-10.31,55.2-.59.7-11.75-8.29-13.3-9.19-3.54-2.05-7.68-3.91-11.69-4.82,7.63-14.39,14.55-30.35,23.59-43.9,1.5-2.24,11.16-15.06,12.45-15.63,1.14-.51,13.79,2.35,14.95,3.05,3.07,1.86,4.31,14.06,11.09,17.91,14.24,8.1,36.89-2.99,46.9-13.95,3.28-3.59,12.54-18.81,15.04-19.96,6.63-3.04,20.82,6.6,26,10.97,18.9,15.93,27.79,40.24,33.99,63.51h-15.5c-5.29,0-18.99,4.49-24.18,6.82-4.08,1.84-7.24,4.68-11.31,6.18l-13-44.99c-1.24,16.93,6.25,32.63,8.25,49.23,1.87,5.02,5.5.17,6.78,1.18.63.5,2.01,4.17,1.99,5-.02.61-1.51.67-1.98,1.35-3.63,5.25-7.63,10.23-11.44,15.35-1.32,1.77-6.25,10.37-6.8,10.69s-10.07,1.01-12.81,1.7c-11.08,2.76-23.96,13.32-26.99,24.51Z"/>
  <path class="st26" d="M830.99,724c3.13,7.71,6.53,15.35,9.28,23.23,1.68,4.81,9.08,26.89,8.73,30.26-.43,4.19-15.37,12.48-19.33,14.69-51.25,28.58-116.8,36.44-174.67,35.82,4.84-5.76,8.98-12.96,14.03-18.46,8.45-9.21,18.56-12.51,28.3-19.7,10.52-7.76,17.48-16.26,22.71-28.29,38.2-8.74,75.4-21.18,110.95-37.54Z"/>
  <path class="st12" d="M409.99,1366c-1.01,8.58,8.47,6.54,8.92,7.03.28.31-.03,2.23,1.07,3.45,4.13,4.56,9.5.23,9.94.54.19.14.81,2.94,2.5,4.05,5.95,3.88,11.87-2.93,17.03-5.11,2.8-1.18,6.12-1.47,9.22-2.78,4.01-1.69,6.29-3.98,9.79-6.18,17.92,20.45,7.16,53.5-22.47,49.99,1.45-2.64,2.53-5.6,2.89-8.61.13-1.08.87-3.62-.88-3.38-4.34,11.7-16.21,21.81-27.34,27.17-4.47,2.15-13.2,4.13-16.63,6.37-2.27,1.48-5.97,8.38-9.57,11.43s-16.28,11.46-20.46,12.55c-7.87,2.05-.75-3.78-.22-5.23,3.34-9.08-9.39,3.88-10.28,3.7-2.75-.56-1.31-5.83.52-7.47,1.38-1.23,6.62-1.69,3-4.06-4.46-2.92-12.4,11.82-14.06,3.01-1.21-6.43,3.94-6.6,6.96-9.04,4.08-3.29-1.16-4.72-5.33-2.33-2.23,1.28-4.77,7.42-7.08,6.89-1.72-.39-3-5.62-2.6-7.34.15-.65,10.18-4.85,9.06-9.14-2.91-3.89-5.24,2.41-8.25,3.72-5.82,2.54-9.75-1.66-7.22-7.22,2.62-5.77,21.01-8.86,27.46-11.54,22.38-9.29,20.53-22.49,33.2-39.8,1.14-1.56,9.06-12.28,10.81-10.68Z"/>
  <path class="st12" d="M507.96,1280.04c5.04,16.69,7.25,33.46-4.45,47.97-10.54,13.08-26.37,24.22-39.02,34.98-7.69,6.54-10.59,5.3-18.42,8.58-3.43,1.44-13.5,12.28-11.31,1.69l10.23-10.26c-6.86-3.42-16.01,14.37-20.89,10.9-3.28-2.33,2.17-10.42,4.25-12.55.94-.95,10.52-6.59,8.64-8.35-6.82-1.97-17.12,15.27-19.47,15.69-3.47.62-2.87-5.71-2.46-8.14,1.56-9.29,14.59-14.64,14.93-16.07.21-.88-.89-2.33-1.52-2.49-4.89-1.26-16.73,15.12-19.47,19-.81-5.2,1.29-9.34,3.82-13.67,7.93-13.56,24.58-17.38,39.17-15.34.05-1.57-2.62-1.66-2.92-2.09-1.1-1.61,18.29-29.87,23.91-29.91.26-1.9-1.99-.28-3.1-1.61-1.18-1.42-3.69-8.27-1.93-9.9,3.74-3.44,37.39-10.99,39.99-8.44Z"/>
  <path class="st4" d="M353.99,1398c-1.3-1.25-5.69-.77-5.96-1.03-.75-.73-.83-18.36-8.02-17.96,3.04,6.96,4.61,20.67.83,27.35-.8,1.41-3.01,1.61-2.83,2.13.95,2.64,6.48,5.31,6,9.49-5.46.97-12.54,9.08-11.73,14.7.51,3.59,4.34,6.69-2.03,8.05-4.95,1.06-14.72-1.92-20.74-2.17-6.5-.27-14.27,1.26-20.91.35-3.9-.54-8.47-3.34-12.53-4.47-3.12-.86-9.94.76-7.48-4.45,2.75.33,4.84-.16,6.42-2.52.92-4.38-8.89.04-9.97-6.01s7.78,3.41,8.97-1.99c.75-3.4-7.55-1.65-8.02-5.98-.65-5.86,3.69-1.35,6.45-1.52,1.71-.11,3.44-1.21,4.56-2.49-7.03-2.58-9.96-10.83-.54-11.56,6.85-.53,16.83,1.64,24.1,1.81,4.48.1,8.97-.36,13.46-.76-2.22-4.44-11.3-3.06-13.51-4.98-2.93-2.52-8.54-19.6-1.98-22.01.67-.25.56,1.71,1.52,2.42,7.09,5.22,17.64-7.39,16.98-14.42l3.66,8.07c14.54,5.48,19.75-14.51,18.34-25.07,12.51,14.52,18.51,35.81,14.98,55Z"/>
  <path class="st9" d="M800.35,1392.35c-4.94,4.55-8.97,12.75-13.96,17.54-18.9,18.12-49.75,22.95-74.62,16.83-3.69-.91-11.45-4.62-12.57-8.43-4.74-16.14,15.71-26.35,21.81-38.29,1.54-1.02,4.98,3.85,6.51,4.97,13.05,9.57,32.92,10.8,47.74,4.79,15.06-6.11,31.01-26.24,40.58-39.42,1.19-1.64,2.22-3.2,2.17-5.33l3.48,14.45c-.97,5.5.21,11.26-1.99,16.55-3.74,8.97-12.94,10.64-19.15,16.35Z"/>
  <path class="st37" d="M652,1329.01c-.85,5.02,2.48,10.14,3,15.5.16,1.7.26,10.39.02,11.93-.06.35-2.95,6.1-3.17,6.38-.13.17-1.48-.56-2.34.11-11.66,9.08-26.22,8.08-39.75,12.33-4.45,1.4-11.01,6.22-15.77,8.23-21.29,9.04-42.57,14.29-65.76,10.87-2.4-.35-15.02-2.72-16.08-3.48-.39-.28-1.72-8.59-1.63-9.38.06-.56,3.14-10.31,3.44-10.79.72-1.16,16.05-10,18.36-10.89,1.08-.41,6.38-2.1,6.67-1.81.17.17-.35,2.22,1.61,3.9,1.45,1.24,8.82,3.63,10.99,4.01,29.06,5.05,68.24-11.19,90.47-29.39,1.06-.87,3.52-1.26,3.8-1.71.56-.91-.28-2.92.31-3.65.2-.24,4.85-1.88,5.84-2.17Z"/>
  <path class="st4" d="M328.8,1363.78c-1.36.78-6.21.55-6.67-1.36-.56-2.31,2.61-7.38,2.89-9.91-5.19-1.26-3.3-2.07-3.02-6.51-5.28,3.63-11.4,23.4-16.66,24.85-.88.24-1.7.45-2.37-.31-3.83-2.81,4.93-19.39,4.03-20.54-7.86,1.48-7.23,17.55-11.99,19.51-3.67,1.52-1.55-11.77-.94-13.95,1.34-4.78,5.01-7.78,5.93-12.56-8.85,3.43-11.21,15.57-12,23.99-1.3.27-1.6-1.86-1.74-2.74-1.38-8.94,1.13-19.08,7.09-25.92,2.36-2.71,9.29-6.77,11.15-9.35,2.04-2.84,3.17-11.13,4.75-15.25,4.49-11.71,13.56-23.81,22.4-32.62,3.27,1.39,18.55,9.55,18.95,12.34-2.6,6.8.2,25.44-2.11,30.53-.59,1.31-9.93,9.57-11.19,9.9-3.35.9-4.35-5.44-7.29-1.37-.76,2.9,5.16,5.1,5.03,10.93-.07,3.44-3.56,18.79-6.24,20.34Z"/>
  <path class="st13" d="M404,1353c-.5,1.82.82,6.96-.51,9.99-.7,1.59-9.18,10.58-11.29,13.7-2.95,4.36-10.36,20.36-12.7,22.3-3.91,3.25-15.38-1.15-20.49,0,3.45-20.94-4.12-44.77-17.99-60.5,1.86-1.02,9.56-8.53,10.97-7.5.69,4.29,6.62,9.02,10.08,11.43,11.6,8.1,27.95,11.56,41.94,10.56Z"/>
  <path class="st39" d="M474,1412.99c13.28-14.76,10.04-34.89-1.83-49.5l21.33-17.48,8.49,11.98c.41-3.05-6.85-12.17-6.75-13.51.07-.92,9.06-9.25,10.75-10.49,5.88,30.7,1.11,67.04-31.99,78.99Z"/>
  <path class="st11" d="M191.31,876.3c2.91-3.16,9.97-4.27,13.99-3.09,3.49,1.02,6.65,8.2,7.45,11.54,2.93,12.21,1.55,52.12-18.8,45.8-8.36-2.59-11.52-24.49-10.93-32.03.4-5.09,4.92-18.56,8.29-22.21Z"/>
  <path class="st36" d="M380.99,817.99l-14.2-22.29c-2.2-10.16-4.09-20.55-9.28-29.72l-13.52-18.97c3.43.48,8.99-4.8,11.97-3.54,1.51.64,8.05,8.71,9.44,10.62,13.32,18.3,16.32,41.72,15.58,63.91Z"/>
  <path class="st63" d="M358.99,787c-12.52-13.78-33.78-6.88-49.98-5-1.22-10.87,1.41-7.64,7.97-10.52,10.03-4.39,12.28-15.04,21.39-20.41,10.35,9.44,17.45,22.26,20.63,35.93Z"/>
  <path class="st22" d="M441,1207.01c-8.5,12.84-19.61,23.93-35.78,25.71-13.54,1.49-16.49-2.34-21.22-14.22,19.61-.12,39.27-2.81,56.99-11.48Z"/>
  <path class="st47" d="M311,798.01c7.75-.17,16.92-2.44,24.54-2.04,1.8.09,9.07.8,8.46,3.52-.67,3-23.51,19.15-26.44,18.49-2.37-.54-5.49-16.91-6.56-19.97Z"/>
  <path class="st57" d="M355,792c.92,2.98-2.22,3.6-3,5-3.1-5.11-9.96-6.81-15.66-6.93s-22.57,3.9-25.73,3c-.94-.27-1.27-3.96-1.61-5.06,11.83-1.17,28.16-6.56,39.41-1.92,3.42,1.41,4.38,3.55,6.59,5.91Z"/>
  <path class="st2" d="M281.99,770c-16.59-17.89-12.31-45.04.51-64.01-.55,10.52-4.83,20.72-5.54,31.47-.75,11.35-.01,22.29,5.03,32.54Z"/>
  <path class="st21" d="M373,1406.01c-2.59,3.25-19.69,10.16-22.55,9.7-2.37-.38-6.13-11.9-2.85-12.78,4.15-1.12,19.78,4.18,25.4,3.09Z"/>
  <path class="st45" d="M225,894c-.14,6.38.64,12.84-1,19l-7.02,6.49c2.13-10.13,4.28-20.15,2.03-30.49l5.99,5Z"/>
  <path class="st15" d="M252.99,1314l-14.29,86.2c-1.47,8.54-12.41,10.5-19.7,12.3-22.81,5.62-59.93,6.5-81.99-2.02-13.58-5.24-11.26-11.38-13.7-24.3-4.52-23.96-7.95-48.2-12.31-72.18,3.66,1.16,7.4,2.49,11.16,3.32,17.38,3.85,39.45,5.67,57.28,5.73,24.42.08,49.92-3.13,73.54-9.05Z"/>
  <path class="st19" d="M173,1255v8.01c-18.66.59-38.89.75-57.02,5.48-25.76,6.72,2.69,12.29,12.8,14.22,28.84,5.49,63.39,5.41,92.56,2.15,5.39-.6,35.52-5.75,37.6-8.91,2.43-3.71-7.31-5.95-9.74-6.66-18.97-5.54-40.57-5.71-60.22-6.28v-8.01c15.47,1.12,31.02,1.62,46.34,4.17,5.13.85,29.95,5.8,31.35,10.1,2.3,7.12-3.64,23.55-3.19,31.72-2.1,2.78-5.44,4.11-8.52,5.48-28.98,12.83-119.6,14.74-147.64-.29-3.14-1.68-5.98-3.36-7.08-6.92-1.03-3.34-3.79-27.15-3.05-29.56,1.47-4.78,23.38-9.42,28.62-10.37,15.59-2.84,31.44-3.34,47.19-4.32Z"/>
  <path class="st3" d="M182,1176c2.97-5.53,4.47-20,6.49-27.01,6.91-23.99,15.2-48.11,26.65-70.35,4.47-8.67,9.33-17.11,14.84-25.16.24-2.16-.32-1.79-1.5-.5-12.47,13.63-25.17,39.04-31.53,56.47-3.24,8.87-6.2,19.4-7.96,28.54-1.41.24-1.46-1.77-1.7-2.78-2.1-8.63-4.68-24.98-4.36-33.76,1.43-39.25,39.75-73.39,75.06-84.46-6.86,17.71-5.16,36.85-9.27,55.22-1.52,6.81-4,14.77-6.87,21.13-16.68,36.97-49.9,36.78-58.86,83.64-1.41,1.33-1.92.77-1-1Z"/>
  <path class="st51" d="M167.99,1135c-2.55.4-1.56-.19-2.09-1.4-12.89-29.39-27.31-58.61-46.41-84.59l.65,3.35c8.93,15.24,17.65,30.64,25.54,46.46,9.19,18.41,17.69,37.61,25.33,56.67l-5.58-9.42c-12.34-11.96-27.53-17.44-39.46-30.54-24.69-27.13-20.67-65.12-35.97-96.52,35.48,8.87,77.19,39.58,80.87,78.62,1.22,12.93-1.41,24.71-2.88,37.37Z"/>
  <path class="st5" d="M164.99,1212c-14.85-18.96-33.73-35.23-56.49-44.01-3.03.1-1.01,1.12.23,1.77,7.64,4.05,15.18,7.63,22.15,12.85,8.8,6.57,29.06,26.22,33.1,35.91.19.45.26,1.64-.48,1.48-12.31-4.57-24.05-5.19-35.83-12.17-21.23-12.57-26.59-36.2-44.68-51.81,26.3-.6,60.21,5.31,74.52,29.97,4.86,8.38,6.3,16.49,7.47,26.02Z"/>
  <path class="st6" d="M267.99,1172.01l-12.99,14.5c-8.44,14.7-18.83,27.36-34.65,34.35-8.27,3.65-17.56,4.7-25.35,9.14-.48-.52,4.79-8.76,5.58-9.91,10.55-15.26,27.72-28.53,45.4-34.1.26-1.76-2.27-.98-3.26-.76-2.7.61-6.78,2.41-9.41,3.6-16.33,7.39-29.83,19.43-39.83,34.17.1-2.65,1.02-6.68,1.79-9.21,10.42-34.34,40.97-39.34,72.71-41.78Z"/>
  <path class="st50" d="M172.95,1268.05c1.1,1.07-.67,9.15,3.54,9.95,8.21,1.57,15.09-.6,12.51-10,21.62-1.02,42.71,2.77,64,5.49-2,1.87-5.34,2.51-7.94,3.06-38.07,7.96-84.25,7.3-122.47.37l-8.57-2.91,26.46-5.05c4.22.32,30.82-2.53,32.49-.91Z"/>
  <path class="st61" d="M182,1176l1,1c-4.42,23.13.06,47.33-3.02,70.49-.04,1.1,4.02.27,4.02.51v25c0,.25-4.08.48-4.99,1.01-4.23-33.55,4.55-68.24-3.03-101.49l3.52,6.46c1.02-.86,1.87-1.8,2.5-2.98Z"/>
  <path class="st33" d="M673.99,650.01c.24,1.4-1.68,1.35-2.73,1.74-13.43,4.98-35.05,2.23-48.24-3.27l-12.01-7.47c20.41,5.13,41.69,14.56,62.99,9Z"/>
  <path class="st8" d="M563,268.99c-17.63-7.25-33.71-12.8-53.04-8.53-4.59,1.01-19.11,8.18-22.02,6.11-5.67-4.03,5.42-11.77,8.71-13.43,20.64-10.45,52.78-2.85,66.36,15.85Z"/>
  <path class="st34" d="M492,379.01c.94.99-.69,3.67-2.06,4.43-7.25,4.04-21.89-3.06-26.37-9.5-10.82-15.55,6.32-26.71,6.52-41.44.11-8.07-3.28-22.15-9.08-28l3.99,1.5-1.98-5.99,6.18,8.31c4.03,10.5,7.18,20.28,5.36,31.74-1.59,10.02-13.24,21.84-4.56,31.46,6.06,6.72,21.2,6.64,22.02,7.49Z"/>
  <path class="st34" d="M558.99,376.01l-1.93-.97c-6.48,20.74-37.03,35.79-57.61,34.01-5.12-.44-14.43-2.32-12.45-9.04,4.64,1.45,8.33,3.89,13.49,4.06,17.38.57,42.59-14.51,52.5-28.57-1.47-1.1-4.51-.49-3.99-3.48,4.96-2.39,10.53-3.25,9.99,3.99Z"/>
  <path class="st62" d="M667,253.99c-4.45-.76-8.24-5.03-13.03-3.58-5.39,1.63-10.57,13.07-9.97,18.59,15.71-4.27,18.66,31.8,4.01,31,3.74-8.69,6.27-17.32.98-25.99-3.4-.52-4.18,5.25-6.66,5.9-7.73,2.02-3.46-17.87-1.81-21.9,5.77-14.15,17.4-17.56,26.49-4.02Z"/>
  <path class="st46" d="M510.01,419c.68-.78,3.17,1.7,4.52,1.97,8.47,1.64,18.53-3.62,25.47-7.97,3.78,5.14-10.14,10.9-13.77,11.72-3.21.73-14.05,1-15.76-1.69-.52-.82-.74-3.71-.46-4.03Z"/>
  <path class="st54" d="M509.51,366.02c1.33.03,1.73,2.39,1,3.97-3.29,7.08-20.68,9.11-20.48,5.5.11-1.99,11.31-4.18,13.68-5.29,1.47-.69,4.92-4.2,5.8-4.18Z"/>
  <path class="st62" d="M348.86,1159.16c1.05.97-.66,2.47,4.46,5.02,16.78,8.37,36.77,4.48,53.67-1.18,6.27,13.83-9.31,30.8-22.75,32.74-15.5,2.24-23.16-5.2-29.43-18.04-1.29-2.64-1.98-7.83-3.35-9.65-1.94-2.56-9.03-3.02-7.46-9.04,1.26.2,4.17-.49,4.86.15Z"/>
  <path class="st43" d="M422,1142l-.33-2.36c7.31-6.53,7.39-20.48-2.81-23.94,7.37,8.09,2.25,29.38-10.87,24.3-.94-.46-2.09.16-4.06-1.41-13.12-10.47,2.45-35.65,18.96-27.98,12.49,5.8,11.75,27.1-.9,31.39Z"/>
  <path class="st27" d="M362,1128l-1.36-1.86c3.28-7.44,4.76-20.25-5.56-22.34,7.12,6.23,6.02,29.19-6.08,25.2-2.45-1.58-5.89-2.92-7.25-6.26-4.68-11.56,6.52-32.37,19.77-21.77,7.15,5.72,7.16,21.21.48,27.02Z"/>
  <path class="st60" d="M422,1142c-6.74,2.29-8.43.75-14-2,13.96,2.41,17.87-26.88,1.99-25.5,17.84-6.61,25.54,16.57,12.01,27.5Z"/>
  <path class="st10" d="M362,1128c-2.54,2.21-7.36,4.83-10.72,3.26-1.39-.65-1.78-1.94-2.28-2.26,10.61.89,11.3-23.12,2-25.01,2.22-3.85,7.44-1.9,10.04.47,6.28,5.72,4.15,16.77.96,23.54Z"/>
  <path class="st16" d="M440.28,1094.69c-1.64-1.56-3.4-5.96-5.31-8.17-3.08-3.56-7.39-6.74-11.96-8.04-3.52-1-10.48.38-11.01-4.48,13.97-4.72,32.76,5.65,31.53,21.03-.79,1.37-2.51.36-3.25-.34Z"/>
  <path class="st56" d="M493.01,1157c-.7-4.45-5.18-5.47-9.01-5.99,3.4,10.33-.36,22.42-13,20.98,4.27-3.88,8.43-1.46,9.76-8.72,2.58-14.14-7.07-4.89-8.76-6.27,1.41-6.76,10.94-11.2,17.28-9.79,4.26.95,8.57,6.86,3.73,9.79Z"/>
  <path class="st49" d="M377,1137.99c-12.78-2.42-19.4,7.97-5.5,13.12,1.06.39,7.34-.11,4.49,2.38-6.85,6-22.46-4.48-15.99-14,3.76-5.54,12.68-7.4,17-1.5Z"/>
  <path class="st17" d="M369.73,1067.27c.58.46,1.71,3.33,1.27,3.73-6.27-.48-10.42-1.56-16.53.97-2.78,1.15-4.57,3.63-7.46,4.03.11-8.16,17.61-12.8,22.72-8.73Z"/>
  <path class="st29" d="M207.5,887.02c1.1.99,2.34,1.88,2.53,3.52.77,6.83-9.35,1.29-2.53-3.52Z"/>
  <path class="st23" d="M205.99,882.99c-.58.61-5.6-.02-4.99-2.48,1.33-5.32,7.53-.18,4.99,2.48Z"/>
  <path class="st64" d="M198.99,894c-2.12,1.56-4.84-4.35-1.47-5.99,3.39-.47,2.28,5.4,1.47,5.99Z"/>
  <path class="st14" d="M200.99,903.99c-3.69.59-4.37-1.59-3.99-4.99,3.69-.59,4.37,1.59,3.99,4.99Z"/>
  <path class="st30" d="M209.99,902.99c-.92.92-5.21.87-3.87-3.37,1.45-4.59,5.66,1.59,3.87,3.37Z"/>
  <path class="st25" d="M194.99,918.99c-.27.26-3.02-.16-3.99,0v-5c2.32-.82,5.09,3.94,3.99,4.99Z"/>
  <path class="st38" d="M192.91,906.11c.15.2,1.13,5.68-1.4,4.89-4.55-2.85-1.06-8.13,1.4-4.89Z"/>
  <path class="st48" d="M207.5,908.02c1.06,0,4.06,4.14.99,4.97-4.94,1.33-2.6-4.97-.99-4.97Z"/>
  <path class="st52" d="M193,900.99c-.12.17-3.8,1.22-3.99,1-1.1-8.08,6.1-4.11,3.99-1Z"/>
  <path class="st7" d="M199.99,919.01v5c-2.63,2.52-6.61-6.13,0-5Z"/>
  <path class="st53" d="M192.51,878.01c2.71-.61,3.42,4.44.97,4.99-2.71.61-3.42-4.44-.97-4.99Z"/>
  <path class="st18" d="M205.01,921.99c-.56-.56,0-4.5,1.49-4.97,5.14,2.7.18,6.65-1.49,4.97Z"/>
  <path class="st42" d="M191.99,891.99c-1.67,1.67-6.63-2.27-1.49-4.97,1.49.47,2.06,4.41,1.49,4.97Z"/>
  <polygon class="st58" points="200.99 908 198.01 913 196.99 909.01 200.99 908"/>
  <path class="st32" d="M397.99,1182.02c-3.07,9.63-23.38,13.51-29.68,6.68-3.41-3.7,2.17-5.81,5.69-7.19,8.22-3.21,16.03-3.75,23.99.51Z"/>
  <g>
    <path class="st55" d="M546.85,301.89c-.55-1-.6-1.75-1.59-2.98-6.97-8.61-27.3-12.3-29.14,2-1.44,11.24,7.11,26.35,19.88,25.31,13.49-4.49,2.39-23.5-4.79-29.89,4.84.59,9.36,2.68,13.06,5.87l2.59-.3Z"/>
    <path class="st20" d="M536,326.21c13.11-1.07,16.72-13.68,10.86-24.32-6.26-6.17-15.56-9.26-24.05-6.92,7.97,2.07,12.12,7.11,15.33,14.45,2.44,5.59,4.26,13.37-2.13,16.79Z"/>
  </g>
  <g>
    <path class="st55" d="M465.78,326.03c-.46-.85-.49-1.49-1.32-2.53-5.83-7.27-23.06-10.2-24.78,2.04-1.36,9.62,5.74,22.43,16.6,21.39,11.51-3.99,2.3-20.1-3.72-25.48,4.1.45,7.93,2.19,11.03,4.86l2.2-.29Z"/>
    <path class="st20" d="M456.28,346.93c11.15-1.06,14.36-11.88,9.51-20.9-5.24-5.2-13.12-7.73-20.36-5.64,6.75,1.67,10.22,5.94,12.86,12.17,2.01,4.75,3.47,11.38-2.01,14.37Z"/>
  </g>
</svg>