<?xml version="1.0" encoding="UTF-8"?>
<svg id="Layer_1" xmlns="http://www.w3.org/2000/svg" version="1.1" viewBox="0 0 1024 1536">
  <!-- Generator: Adobe Illustrator 29.7.1, SVG Export Plug-In . SVG Version: 2.1.1 Build 8)  -->
  <defs>
    <style>
      .st0 {
        fill: #181409;
      }

      .st1 {
        fill: #374c63;
      }

      .st2 {
        fill: #f8f7f0;
      }

      .st3 {
        fill: #1b1509;
      }

      .st4 {
        fill: #71471f;
      }

      .st5 {
        fill: #72471f;
      }

      .st6 {
        fill: #71461f;
      }

      .st7 {
        fill: #f3f2f0;
      }

      .st8 {
        fill: #1d160a;
      }

      .st9 {
        fill: #110e07;
      }

      .st10 {
        fill: #080602;
      }

      .st11 {
        fill: #70451e;
      }

      .st12 {
        fill: #c26648;
      }

      .st13 {
        fill: #71461e;
      }

      .st14 {
        fill: #f7f6ee;
      }

      .st15 {
        fill: #2b261d;
      }

      .st16 {
        fill: #1a1409;
      }

      .st17 {
        fill: #1a1509;
      }

      .st18 {
        fill: #4f95c3;
      }

      .st19 {
        fill: #171409;
      }

      .st20 {
        fill: #171309;
      }

      .st21 {
        fill: #1c1509;
      }

      .st22 {
        fill: #161308;
      }

      .st23 {
        fill: #2a251d;
      }

      .st24 {
        fill: #070503;
      }

      .st25 {
        fill: #cb8049;
      }

      .st26 {
        fill: #fdfdfd;
      }

      .st27 {
        fill: #1b150a;
      }
    </style>
  </defs>
  <path class="st3" d="M483,1426c5.05-19.73,8.24-27.69,6.99-49.49-2.81-48.89-26.92-95.07-22-144.51h-55.99c-5.13,41.33-14.32,82.2-18.87,123.62-1.49,13.55-5.17,40.18-1.67,52.42,4.53,15.83,38.65,44.94,52.08,55.92,11.71,9.56,33.84,18.97,28.51,37.59-5.15,17.96-45.16,20.5-60.54,19.44-35.17-2.42-64.73-22.84-95.53-37.47-21.81-19.6-2.35-48.72-.1-71.15,4.29-42.65-11.38-86.24-16.74-128.02-2.88-22.48-3.29-44.96.84-67.32-8.95-2.21-18.12-3.96-26.98-6.54-6.97-2.03-30.6-8.34-32-16.04l2.04-26.92c6.54-107.25-2.66-217.7,26.98-322.15-4.6-4.19-2.61-8.78-1.56-14.43,5.72-30.75,21.52-59.69,29.24-88.76,1.89-7.12,1.7-14.75,4.02-21.98,3.12-9.75,7.13-10.48,6.31-22.76-1.21-18.13-11.37-39.5-15.04-57.47-6.85,2.35-8.31.61-11.79-4.7-18.43-28.07-49.09-96.94-51.19-129.81-4.6-72.12,47.33-89.88,93.49-125.49,15.67-12.09,26.86-46.07,27.54-65.43-12.26-.32-21.34-12.86-7.06-19.06-13.56-12.63-23.53-29.46-27.99-47.5-3.47,1.04-5.64,3.41-9.58,3.91-5.28.66-12.99-1.06-16.44-5.39-2.07-2.6-2.67-8.2-3.01-8.49-.73-.63-5.69,1.05-7.47,1.05-15.69.04-28.6-25.04-23.53-39.03-21.69-4.56-23.52-26.22-16.46-44.03,1-2.52,6.45-10.83,6.47-11.49.05-1.79-3.62-7.54-4.03-11.99-1.53-16.88,4.02-29.98,18.68-38.4,1.67-.96,7.89-3,8.16-3.35.62-.83,1.23-7.42,1.92-9.57,5.09-15.85,19.08-26.53,35.95-27.14,2.91-.11,6.65,1.48,8.65.8,1.38-.47,2.62-3.61,4.13-4.93,9.88-8.63,21.35-12.49,34.33-8.23,2.44.8,7.68,4.21,8.71,4.24,1.63.05,5.8-2.6,9.01-2.96,8.24-.93,16.24.68,21.94,7.06,3.54,3.97,4.55,9.41,7.05,13.91,50.65-27.37,133.63-8.24,171.02,34.01,7.96,9,26.02,29.79,28.03,40.97,1.6,8.91,2.02,12.65,4.4,21.6,2.24,8.46,3,23.51-1.62,31.18-1.02,1.69-2.93,1.46-3.34,3.73-.81,4.4.41,11.12,0,16.02-1.39,16.96-6.82,31.59-14.47,46.53-1.95,3.8-9.67,14.48-9.6,17.49.03,1.39,1.08,2.63,1.08,2.99v18.5c22.71-15.88,52.31-19.3,79.37-15.87,50.61,6.41,82.5,43.94,78.67,95.41-.37,4.93-4.06,15.79-3.76,18.83.2,2.03,3.6,7,4.44,10.41,5.38,21.88-13.23,47.86-35.37,51.17-1.94.29-3.87-.71-4.9-.56-5.12.75-1.93,19.25.6,22.06,1.12,1.24,3.9,2.16,5.43,3.57,10.24,9.41,16.92,19.22,23.69,31.31,2.57,4.58,4.81,12.76,7.81,16.19,3.61,4.11,13.62,10.06,18.54,14.46,20.17,18.03,44.88,45.31,49.2,72.8,7.76,49.36-27.61,93.58-61.2,125.25-17.33,16.34-39.98,34.15-64.53,35.98,1.65,3.8,2,12.29,3.92,15.32.64,1.02,6.9,3.35,9.1,5.15,8.47,6.92,10.12,18.31,7.3,28.34-2.44,8.68-23.01,31.38-30.41,37.59-6.15,5.16-4.49,2.94-9.45,9.55-6.09,8.11-13.47,5.42-19.3,12.62,2.74,23.53,5.19,47.26,6.83,70.93,5.49,79.14,5.34,158.43,4.95,237.93-.98,6.24-15.08,11.15-20.69,13.31-15.21,5.84-32.11,9.92-48.24,12.26l-11,129.5c1.01,14.01-2.97,33.91,4.8,46.18,5.31,8.39,36.68,28.17,46.52,33.48,12.04,6.48,46.36,16.66,49.46,30.54,2.68,11.96-3.28,18.66-13.79,22.29-21.06,9.11-45.12,7.81-67.32,3.85-23.52-5.37-47.26-9.41-71.23-12.1-28.01-4.65-34.44-10.45-33.24-38.96.14-3.25.4-6.51.78-9.78Z"/>
  <path class="st24" d="M654,1483c-1.41,2.45-5.26,3.04-7.79,3.71-36.67,9.86-66.07-1.38-101.01-7.42-14.66-2.54-48.59-3.16-58.18-14.82-7.82-9.5-6.92-27.17-4.02-38.48l.45,27.05c2.73,15.84,16.83,18.08,30.37,20.63,9.38,1.77,19.03,2.01,28.41,3.59,38.87,6.56,71.68,19.57,111.78,5.72Z"/>
  <path class="st1" d="M561.9,882.11c.22.2.44,3.04,1.2,4.29.25.4,5.44,6.9,5.79,7.21,2.32,2.06,4.53.83,5.89,1.62.58.33.78,2.21,1.61,2.84,3.15,2.39,6.74.06,10,.03,5.23-.05,8.38,1.1,14.43-.78,7.16-2.23,6.06-6.62,8.88-8.37s9.79-1.86,13.05-4.81c2.64-.39,4.69,2.54,6.05,4.57,11.16,101.7,12.2,203.76,11.04,306.14-42.17,19.46-90.17,25.77-136.35,29.15-68.82,5.03-181.88,0-246-25.97-2.85-1.16-9.23-2.85-9.4-6.44l1.96-28.03c4.57-82.62.57-167.81,12.1-249.9,3.07-21.83,7.47-43.58,13.87-64.64,28.76,14.73,59.17,25.2,90.95,31.54,52,10.37,105.77,12.08,158.53,6.45,4.98-.53,35.03-6.09,36.41-4.88Z"/>
  <path class="st5" d="M530.87,124.86c.77-1.21-1.03-4.64,1.61-3.84,5.67,1.7,12.33,10.61,20.02,11.01,3.71.19-.75-4.44,1-6.02,5.96,5.25,13.19,12.39,20.49,15.53,1.49.64,3.7.06,4.79.69.64.37,4.7,8.55,5.4,10.1,9.52,21.03,10.74,46.15,6.82,68.67-3.14-3.78-17.82-8.18-19.83-2.33-3.18,9.26,10.96,5.22,14.9,11.76,4.24,7.04-8.85,24.2-11.08,31.57-5.13-1.82-6.84-5.21-13.01-3.53-4.19,1.14-13.69,10.01-14.96,14.05-.16.51-.27,1.63.48,1.48,4.81-7.48,19.83-8.7,21.45,1.56.72,4.55.44,24.39-1.25,28.16-.98,2.18-12.01,12.03-14.69,15.78-9.14,12.77-8.5,25.28-14.12,35.88-2.34,4.41-21.55,23.29-26.35,27.65-29.26,26.58-46.02,25.9-77.42,2.37-18.64-13.97-30.57-28.3-45.5-45.52-.46-.53-.94-3.48-2.6-1.86-.85.83,10.37,18.6,11.78,20.71,6.41,9.57,15.16,20.63,23.75,28.25,3.21,2.85,18.07,12.49,19.02,14.04.68,1.11-3.79,21.82-.54,25.99,5.49-.6,4.36-8.15,5.46-12.03.41-1.45,3.48-11.01,4.07-10.99,5.04,3.83,17.19,3.9,21.41,6.59,3.08,1.96,11.11,18.91,12.82,23.18,1.85,4.62,12.5,38.6,11.23,40.26-7.23-5.28-14.35-6.82-23.03-4.54-1.51.4-2.61,2.36-4.49,2.53-3.15.29-9.3-2.14-12.93-2.03-6.89.21-14.36,9.02-15.85,8.89s-13.24-7.86-15.6-9.43c-9.92-6.62-20.46-14.73-29.99-22.01-24.37-18.63-48.13-38.62-70.69-59.33-.27-1.75,7.8-8.45,9.56-10.6,21.33-26.04,23.65-57.5,28.47-89.53,5.34-1.81,10.06-2.48,13.55-7.46.19-2.65-.42-1.01-1.7-.7-6.28,1.51-10.17,2.66-16.5.92-32.32-8.9-38.32-81.27-5.06-87.46,22.95-4.27,29.55,25.18,37.77,39.74,1.99-.86,1.15-4.52,1.56-4.91.36-.35,2.96.11,4.18-.29,6.88-2.24,14.08-9.31,15.53-16.5.48-2.37-.34-6.97.65-8.35.44-.62,9.72-2.18,13.56-6.44,5.33-5.91,3.03-12.94,3.43-13.55.68-1.03,7.41-2.49,9.48-3.54,7.66-3.9,12.3-13.05,9.1-21.39,12.87,3.55,28.17-8.11,23-22,10.17,3.15,30.46-1.28,27-15,4.57,2.31,31.62,7.39,33.86,3.85Z"/>
  <path class="st25" d="M435.92,484.14c.42.6-3.21,11.57-3.01,14.38.16,2.23,1.93,3.45,2,4.93.08,1.73-1.36,3.2-.71,5.79,1.11,4.41,8.77,9.18,12.48,11.59,7.75,5.04,16.88,12.07,24.66,16.34,6.27,3.44,16.06,5.64,21.2,8.8,2.54,1.56,6.19,6.69,8.99,9.01,27.59,22.77,60.54,41.08,97.47,30.03,1.34,1.56-5.52,24.13-6.32,28.17-2.73,13.74-3.01,26.87-3.67,40.83-52.7,4.87-104.73-8.07-157-12.51l-31.61-57.5c-.79-3.24,4.54-2.9,1.5-10.4-13.35-22.12-24-45.82-36.72-68.27-14.57-25.71-30.84-54.55-60.72-64.3-2.72-.01-2.26.06-.19,1.2,25.58,14.13,41.9,41.39,55.92,66.1,10.76,18.96,25.48,44.42,34.03,63.97.54,1.24,1.03,2.29.78,3.71-14.45-4.65-30.09,1.38-43.35,7.14-17.6,7.65-34.84,18.2-49.66,30.34l-15.99,17.03c-10.94-20.85-22.27-41.83-31.46-63.54-17.3-40.86-28.52-81.76-1.75-121.69,15.97-23.82,41.98-38.05,65.58-53.18,37.09,33.06,75.55,65.33,117.56,92.03Z"/>
  <path class="st6" d="M391.72,581.29l31.91,58.69c.59,2.28-3.82,5.21,1.03,7.86,37.85,1.95,75.11,10.3,112.85,13.15,16.37,1.23,58.55,3.26,71.83-5.15,5.2-3.3,11.94-11.61,17.19-15.81,25.05-20.03,50.63-19.36,79.46-30.03-.3,2.89.6,6.55-.2,9.29-1.67,5.75-28.35,14.59-34.29,20.7-2.49,2.56-1.02,4.36,2.04,4.96,10.53,2.08,23,2.5,33.83,4.17,7.78,1.2,15.47,3.61,23.26,4.74,3.56.52,7.23-.27,10.79.21,5.44.73,14.04,5.97,9.04,11.87-5.49,6.49-33.17,4.23-41.83,5.17-1.25.13-9.58,1.21-7.62,3.86,3.14,4.26,44.26,2.58,50.97-.99,4.05,10.22-9.51,15.18-17.34,17.13-13.11,3.26-26.2,3.06-39.62,2.88-.51,2.23.27,1.62,1.24,2.3,8.7,6.15,38.43,1.68,48.26-3.3,3.17-1.03-5.88,9.09-7.01,9.99-12.54,10.05-34.9,12.69-50.5,13.01.68,2.03,3.78,2.66,5.59,2.9,12.79,1.71,26.47-1.67,38.41-5.9-21.84,22.1-64.7,21.63-92.53,13.02-7.44-2.3-17.5-8.21-24.4-9.6-12.06-2.42-33.69,2.49-46.25,4.87-55.06,10.43-115.92,27.78-172.19,20.56-25.38-3.26-40.46-23.43-55.6-42.4-16.9-21.17-32.55-44.93-45.01-69,14.91-18.93,35.97-32.52,58.3-41.65,7.37-3.01,32.05-12.74,38.39-7.53Z"/>
  <path class="st25" d="M552,732.01c-11.56,16.17-4.08,37.03,3.14,53.35,8.05,18.18,20.25,33.81,32.66,49.13-7.86,7.89-8.76,24.78-16.32,31.49-2.05,1.82-5.28,2.96-7.07,4.95-1.18,1.31-1.04,3.44-2.12,4.09-1.78,1.08-25.74,4.32-29.92,4.85-85.23,10.78-182.56,2.26-258.29-40.01,3.85-23.77,12.17-46.65,19.9-69.38,2.79-8.21,7.55-17.12,9.73-25.27,1.91-7.13,1.84-15.03,3.99-22.01,1.8-5.85,6.12-9.81,7.04-15.96,1.96-13.14-4.9-29.45-7.73-42.24,14.51,20.02,28.32,41.07,45.48,59.01,19.62,20.51,29.22,24.53,58.02,25.98,47.02,2.35,95.56-9.72,141.49-17.98Z"/>
  <path class="st4" d="M552,403h-2s-3.9-35.39-3.9-35.39c-.44-104,174.88-110.11,180.89-5.1.26,4.49-.52,23.33-2.48,26.51-1.2,1.95-9.06-2-12.01-2.01-8.24-.04-19.7,6.32-21.5,14.99,2.32,2.07,11.03-6.58,13.66-7.83,16.55-7.82,26.57,6.92,25.21,22.22-1.75,19.71-23.11,42.4-43.87,31.62-.38,2.37,3.29,4.11,2.84,6.35-.19.93-2.32,2.51-3.05,3.95-2.53,4.98-5.53,10.16-6.91,15.58-18.01-1.07-34.25,5.21-49.56,13.94-15.76,8.99-16.34,15.29-37.34,10.68-20.44-4.49-46.14-22.55-49.54-44.46-3.31-21.32,9.06-33.69,9.55-51.05.28-.87.62-.86,1,0l1.96,1.36c-.38,5.12,2.3,9,8.04,11.64,1.65-1.79,9.74-2.36,11,0v2.84c-17.77,14.73,8.14,20.49,18.11,11.68-13.6,8.04-34.16,1.21-14.55-12.57,9.71-2.89,9.18-3-1.59-.32l-1.97-1.63-.46-2.57c14.32-23.88-18.45-41.92-21.54-10.43Z"/>
  <path class="st5" d="M406,1231.01c-4.54,31.95-11.22,63.73-15.83,95.66-2.92,20.22-10.41,68.06-4.05,85.72,5.23,14.52,23.26,28.14,33.36,39.64l15.52,13.46c-21.06,16.04-47.76,21.59-72.98,11.99-13.25-5.04-32.17-18.47-39.21-30.79-8.54-14.93-2.83-18.48-.94-33.32,5.15-40.34-9.76-83.56-15.6-123.15-3.58-24.33-4.71-47.92-.27-72.23,32.83,7.29,66.42,10.86,99.99,13.01Z"/>
  <path class="st5" d="M571,1223l-10.04,120.46c1.05,16.49-4.2,43.45,5.61,57.48,5.39,7.71,27.68,21.91,36.52,27.48,7.36,4.64,15.04,8.89,22.92,12.6-17.2,18.44-47.19,17.18-70.36,13.84-15.8-2.28-55.43-12.02-62.4-27.6-3.17-7.08,2.2-17.56,2.8-25.72.87-11.89.15-27.04-1.17-38.91-4.89-43.98-25.47-85.74-20.88-130.63,32.52-.54,64.83-4.79,97.01-9Z"/>
  <path class="st18" d="M732.85,646.84l-46.85-6.85c11.61-8.9,30.28-10.28,25.78-30.28-2.38-10.6-16.17-2.02-22.79-.22-29.61,8.07-44.12,8.49-69.01,28.99-7.86,6.47-12.69,15.99-24.98,15.51.44-8.28-.67-17.17.12-25.38.94-9.87,5.76-29.49,8.71-39.29,1.13-3.74,3.32-7.43,7.68-7.39,2.4.02,3.95,1.72,6.06,2.03,8.31,1.21,22.43-8.21,30.39-10.5,3.97-1.14,18.57-2.04,21.03-4.48,1.03-1.02.22-2.05-1.49-1.95-3.74.22-7.76,1.31-11.5.47,1.78-2.4,17.74-11.02,14.98-14.5-16.09,8.99-30.81,20.26-48.98,25,1.72-23.73-13.29-46.28-32.01-59.49.58-1.39,11.92-7.45,14.27-8.73,7.27-3.93,10.37-6.02,17.41-10.59,21.57-14.02,54.26-31.22,77.33-10.7s50.83,92.05,45.89,122.91c-.64,3.98-10.47,34.44-12.05,35.44Z"/>
  <path class="st13" d="M641,746.01c1.52,1.26-5.16,4.84-6.08,5.42-5.56,3.47-14.52,8.7-20.72,10.28-2.68.68-14.72,1.72-15.2,2.32-.23.29.13,2.15-.01,2.97,3.95.32,8.43-.56,12.28.23,1.73.35,14.88,7.35,15.78,8.48,1.58,1.99,2.33,7.29,2.78,9.95,1.63,9.59,1.32,30.11,4.4,37.6,1.17,2.84,9.97,7.24,13,12,8.19,12.88-5.15,19.43-12.76,27.73-5,5.46-11.89,15.65-18.25,18.75-2.56,1.25-6.75,1.57-8.77,3.23s-2.76,6.32-5.47,7.52c-10.23,4.53-2.03-8.31-1.97-10.96.02-.87-1.8-.67-2-.51-1.26,1.05-5.26,17.9-9.01,13.99-.01-2.42-.2-4.85.23-7.26.18-1.02,4.5-9.34,1.27-7.73-2.61,1.3-6.34,10.74-5.52,14-10.17,2.07-4.96-11.02-2-15.99l-3.99,2.5c-2.01.84-3.32,10.54-5.49,9.48-3.91-1.89.66-10.79.47-13.99-3.58.39-4.56,8.53-5,9-2.61,2.78-2.91-6.22-1.99-8.49,2.04-5.06,9.63-5.56,11.1-7.15,2.05-2.23,6.11-15.65,8.05-19.72,2.56-5.37,5.45-10.27,8.87-15.12-6.43-9.75-14.69-18.12-21.23-27.8-10.9-16.13-27.32-46.99-20-66.44,3.74-9.94,8.27-7.82,15.94-11.06,2.04-.86,3.15-2.91,6.04-3.96,23.07-8.41,28.9,6.78,46.57,14.91,5.69,2.62,12.56,4.84,18.68,5.83Z"/>
  <path class="st13" d="M620,765.99c-1.18-1.5,31.07-15.71,31.98-20.49l-25.34-8.64-11.57-6.43-11.06-8.42c13.75-2.93,26.02,6.59,39.23,10.25,23.47,6.51,74.38,6.64,90.59-14.94,1.84-2.45,3.03-6.3,4.49-8.02,1.74-2.04,5.73-3.42,8.11-6.38,3.94-4.89,2.34-7.89,4.1-11.9,2.23-5.06,8.79-4.02,7.39-14.43-.34-2.51-2.49-5.22-2.54-6.11-.06-1.2,2.33-4.69,2.57-7.1.96-9.67-9.6-15.62-17.96-16.39,3.44-14.1,12.18-29.8,12.08-44.51-.05-7.97-2.47-17.51-3.57-25.49l-11.01-35.99c30.46,26.77,62.8,56.71,56.36,101.35-6.18,42.85-65.03,114.05-106.08,126.92-9.82,3.08-12.88,1.16-21.23,1.68-5.38.34-11.59,2.15-17.06,2.12-10.28-.06-19.98-3.76-29.48-7.09Z"/>
  <path class="st11" d="M616.01,576.01c-15.2,1.03-29.93,7.08-45.49,5.98-19.29-1.36-43.39-14.78-58.41-26.59-3.96-3.11-14.8-14.72-17.15-15.85s-6.05-1-8.9-2.1c-13.15-5.04-18.49-10.23-29.52-17.48-2.9-1.91-17.47-8.31-17.51-11.47s10.78-.43,12.76.22,12.35,7.26,11.22,1.79c-.34-1.63-6.93-4.55-8.74-5.27-2.99-1.2-13.52-3.14-14.3-3.7-1.52-1.08-.88-3.93-.96-5.54,5.45-.24,10.89.14,16.23,1.28,3.06.65,6.38,2.77,8.74,3.29,1.39.31,2.13-.78,2.03-2.05-.9-4.26-21.66-7.47-25.99-6.52.24-12.54,28.84-1.79,29.99-3,1.69-6.34-8.51-5.76-12.75-7.74l-12.23-1.25c2.96-.91,4.41-3.17,7.73-3.78,5.88-1.08,20.21.67,26.1,2.43,2.87.86,9.66,7.68,11.16,6.33,2.17-1.95-10.29-9.18-10.99-10.5,16.12-1.59,27.28,17.89,31.97,31.03,6.75,1.03,12.75,4.72,19.24,6.76,7.1,2.23,14.49,3.34,21.57,5.43,5.71,1.69,22.04,8.97,26.47,8.1,3.74-.73,4.13-4.04,9.46-2.05,12.6,4.71,32.4,37.79,28.3,52.23Z"/>
  <path class="st25" d="M544.95,411.08c-4.41,11.2-8.49,22.69-8.96,34.92l-6.01-9.47-3.48-3.52c-.76-.16-.64.96-.48,1.48,1.68,5.38,7.58,14.8,10.18,20.83,1.35,3.13,1.55,6.7,2.94,10.06,10.28,24.98,34.01,27.2,47.85,48.13-.02.58-8.95,6.14-9.72,6.31-2.67.57-12.76-4.28-16.25-5.32-9.07-2.69-40-9.19-45.48-14.52-1.48-1.43-3.2-6.94-4.72-9.28-9.43-14.59-8.33-16.87-13.09-32.91-4.8-16.19-9.95-34.05-20.71-47.3l17.03-5.94,16.43-11.52,34.48,18.06Z"/>
  <path class="st15" d="M333.58,1465.42c32.97,27.15,71.16,29.23,105.93,3.82,2.99,2.87,7.07,4,10.4,6.35,2.81,1.99,10.4,8.05,12.63,10.37,4.94,5.16,5.99,10.97,1.84,16.94-7.36,10.61-35.86,12.37-47.92,12.11-30.1-.64-64.07-18.78-90.51-32.47-17.04-8.82-14.71-23.97-11.94-40.55,3.42,4.3,5.39,9.08,9.02,13.47,3.04,3.68,6.88,6.93,10.55,9.95Z"/>
  <path class="st23" d="M490.99,1430c.17.13.28,2.61,1.31,3.72,25.63,27.69,104.99,38.04,135.22,14.29,3.24-2.55.96-4.83,6.73-3.77,7.77,1.43,30.33,13.62,28.62,23.02-3.06,16.84-44.56,17.41-57.39,16.78-18.8-.92-35.98-6.5-54.25-9.75-16.43-2.92-36.51-3.5-52.18-8.82-11.19-3.8-12.98-17.38-12.08-28.03.14-1.67,1.66-9.33,4.04-7.45Z"/>
  <path class="st6" d="M667.87,778.13c1.31.85,3.32,16.46,5.06,19.2.71,1.11,6.13,2.94,8.01,4.24,20.37,14.06,2.32,33.92-9.42,46.45-3.35,3.57-8.34,9.07-12.04,11.96-1.96,1.53-8.89,4.86-9.23,5.27-2.21,2.75-.84,12.21-10.25,10.74-.33-.25,3.51-6.38,1.5-7.99-4.06,2.7-4.78,6.63-6,10.99-1.51-1.11-1.7-2.79-1.6-4.5.33-5.61,14.43-15.46,17.93-21.16,4.54-7.38,4.63-15.08-.4-22.27-2.76-3.95-7.98-6.59-10.46-9.54-5.07-6.03-3.9-35.44-7.97-44.52l34.86,1.12Z"/>
  <path class="st26" d="M540,364.01c-1.29,4.79-.56,12.29,0,17.48.83,7.57,2.82,15.01,3.98,22.51l-28.99-15.01c7.54-7.57,14.58-15.8,22.01-23.47.95-.98,1.31-1.9,2.98-1.51Z"/>
  <path class="st7" d="M599,506.01c-.71,1.1-7.06,5-7.51,4.97-.82-.06-3.39-5.85-4.49-6.97l12,2Z"/>
  <path class="st17" d="M555.99,245.01c-4.1,11.03-12.82,22.53-9.53,35.03,2.88,10.94,14.95,11,10.47,28.4-3.5,13.61-12.17,16.86-25.43,15.55-6.93-.68-4.85-3.04-7.51-4.47-3.39-1.82-18.74-1.57-18.05-7.96.64-5.83,3.79-1.83,5.71-.72,6.56,3.81,24.18,8.94,31.39,6.72,4.06-1.25,8.05-8.3,8.7-12.29,1.54-9.31-3-9.77-7.18-16.35-6.84-10.76-6.1-19.95,0-30.84.88-1.58,9.62-14.92,11.41-13.08Z"/>
  <path class="st21" d="M462.01,209c-.46-2.31,2.51-3.11,4.12-4.36,17.35-13.51,50.42-25.05,69.81-10.07,3.49,2.7,5,9.16.55,9.49-1.73.13-14.96-4.97-19.31-5.74-19.89-3.49-37.31,2.4-55.17,10.68Z"/>
  <path class="st27" d="M463.01,316c4.08,10.84,16.25,19.73,26.63,24.86,11.55,5.71,26.26,10.22,38.85,6.13,2,3.29-2.86,5.52-5.51,6.49-16.21,5.92-40.33-8.01-52.45-18.5-4.67-4.04-8.49-10-12.45-13.55-1.34-1.2-4.08-1.61-4.64-2.37-3.4-4.62,12.19-11.13,13.56-6.53.67,2.27-1.77,4.83-3.98,3.47Z"/>
  <path class="st16" d="M372.99,245c-3.66-1.4-5.74-16.76-9.42-15.96-5.9,4.95-8.21,11.76-7.46,19.35.29,2.9,5.76,14.99-.57,9.57-5.33-4.57-6.45-13.45-5.1-20.02,1.46-7.1,7.52-11.33,11.43-16.26-5.57-9.9-11.23-13.13-19.86-3.69,2.38-14.31,15.24-14.17,23.4-3.91,6.9,8.67,8.09,20.23,7.58,30.91Z"/>
  <path class="st8" d="M507.01,263c-1.31-10.61-8.05-18.58-19.46-18.03-5.25.25-21.29,6.78-24.58,4.56-6.46-4.35,15.46-11.27,18.19-11.86,14.99-3.26,31.26,1.14,28.75,19.75-.25,1.84-.89,4.96-2.89,5.59Z"/>
  <path class="st22" d="M514,364.01c-6.94,10.23-30.31,8.03-34.99-4.01,11.62,5.39,22.37,6.18,34.99,4.01Z"/>
  <path class="st10" d="M420.99,812.01c.25,1.77-2.29,1.02-3.26.76-3.32-.88-8.73-3.43-12.09-4.92-19.68-8.7-37.16-21.54-50.61-38.39-2.45-3.06-5.56-6.85-7.02-10.47,20.37,22.63,43.25,43.8,72.98,53.01Z"/>
  <path class="st8" d="M625.71,441.31c4.61,3.85-.44,18.1-2.88,23.01-8.6,17.28-26.65,21.09-40.35,6.7-3.67-3.86-7.33-12.77-9.94-15.06-4.34-3.8-10.5.14-8.53-8.96,12.89,6.09,27.78,6.51,41.27,1.77,4.33-1.52,13.77-8.14,16.45-8.61,1.44-.25,2.88.22,3.99,1.14Z"/>
  <path class="st21" d="M574,416c-5.31.92-5.55,1.2-11,0-10.83-4.42-6.8-24.58,4.7-25.54-7.3-2.46-11.96,5.48-12.64,11.73l-2.06.81h-1c.04-1.41-1.11-3.5-1.09-5.5.1-10.54,17.7-20.19,24.65-6.56,4.73,9.28,5.42,17.21-1.56,25.06Z"/>
  <path class="st2" d="M610.42,393.51c-.1-3.28-1.41-.23.11-2.85-3.06,9.74,13.6,20.85,22.58,9.63,6.81-8.51,2.15-23.18-10.55-22.41,6.47-4.54,17.29.63,18.19,8.28.24.47.58.49,1.04.39,5.08,15.11-6.57,32.33-23.23,23.16-5.24-2.88-11.38-10.82-8.15-16.19Z"/>
  <path class="st19" d="M574,416c5.74-.99,13.87-5.49,15.99,3-11.98-5.71-29.27,14.14-9.52,13.01,3.38-.19,12.34-4.15,13.01-4.02,4.13.82-1.05,5.44-3.47,6.51-7.91,3.53-26.22,3.79-23.82-8.76.9-4.68,5-6.6,7.81-9.75Z"/>
  <path class="st19" d="M721.99,412c-3.1-3.18-3.16-7.37-9.02-5.59-7.12,2.16-.68,7.53-.03,12.16,1.09,7.71-2.97,15.07-10.94,16.42,5.17-5.76,9.19-15.25,3.5-21.97l-7.49,6.98c-.06-13.65,22.58-28.87,23.98-8Z"/>
  <path class="st9" d="M611,399c-.15.02-.52.89-.98,1.01-.42-9.8-.98-18.43,8.05-24.45,13.28-8.85,31.1,4.88,27.17,20.18-.25.97-2.65,4.27-2.24.26.59-6.18-3.1-12.97-8.31-16.19-14.08-8.71-24.08,5.88-23.69,19.19Z"/>
  <path class="st14" d="M577.38,408.24c-3.39,6.83-12.88,13.25-19.7,7.09-1.36-1.23-4.41-7.3-2.28-8.21,7.7,14.23,23.34-3.95,18.21-14.84,7.08,5.27,7.78,7.89,3.78,15.96Z"/>
  <path class="st0" d="M642.99,351c-9.98-7.48-16.16-11.19-28.99-10.47-6.58.37-3.29-2.6.61-4.42,10.95-5.09,27.17,2.83,28.38,14.89Z"/>
  <path class="st20" d="M567.74,348.26c5.33,5.18-5.7,4.43-8.69,6.29-5.32,3.3-5.8,9.49-10.04,13.45-3.99-8.56,11.7-26.57,18.73-19.74Z"/>
  <path class="st12" d="M595.13,472.87c-3.06-4.93,8.59-12.25,12.19-14.05,4.67-2.33,10.08-3.27,14.67-5.82-1.42,7.01-11.52,19.86-18.55,20.95-1.61.25-7.63,0-8.31-1.08Z"/>
  <path class="st8" d="M633.11,400.29c-2.98,3.91-4.86,5.33-10,5-15.15,2.52-16.59-22.13-5.17-27.55,13.81-6.56,22.17,12.21,15.17,22.55Z"/>
</svg>