<?xml version="1.0" encoding="UTF-8"?>
<svg id="Layer_1" xmlns="http://www.w3.org/2000/svg" version="1.1" viewBox="0 0 1024 1536">
  <!-- Generator: Adobe Illustrator 29.7.1, SVG Export Plug-In . SVG Version: 2.1.1 Build 8)  -->
  <defs>
    <style>
      .st0 {
        fill: #3a4f5b;
      }

      .st1 {
        fill: #2a2611;
      }

      .st2 {
        fill: #7e4f1f;
      }

      .st3 {
        fill: #fbfaf6;
      }

      .st4 {
        fill: #678eab;
      }

      .st5 {
        fill: #3d525c;
      }

      .st6 {
        fill: #2e2812;
      }

      .st7 {
        fill: #fff;
      }

      .st8 {
        fill: #865521;
      }

      .st9 {
        fill: #d08542;
      }

      .st10 {
        fill: #2b2511;
      }

      .st11 {
        fill: #17180a;
      }

      .st12 {
        fill: #7d4e1f;
      }

      .st13 {
        fill: #a55930;
      }

      .st14 {
        fill: #7f501f;
      }

      .st15 {
        fill: #302812;
      }

      .st16 {
        fill: #262310;
      }

      .st17 {
        fill: #26220f;
      }

      .st18 {
        fill: #3a3117;
      }

      .st19 {
        fill: #2d2611;
      }

      .st20 {
        fill: #0d0a04;
      }

      .st21 {
        fill: #19180b;
      }

      .st22 {
        fill: #322a12;
      }

      .st23 {
        fill: #3c525e;
      }

      .st24 {
        fill: #7e4e1f;
      }

      .st25 {
        fill: #2e2712;
      }

      .st26 {
        fill: #2d2712;
      }

      .st27 {
        fill: #3b505c;
      }

      .st28 {
        fill: #3c515d;
      }

      .st29 {
        fill: #fefcf8;
      }

      .st30 {
        fill: #2b2612;
      }

      .st31 {
        fill: #855321;
      }

      .st32 {
        fill: #2c2611;
      }
    </style>
  </defs>
  <path class="st32" d="M489,1239c-2.95-5.3-5.25-10.71-6.94-16.56-39-4.23-82.06-23.83-98.24-61.76-33.65-78.92,43.37-138.66,105.02-169.84.6-8.09-.21-16.28.12-24.38,1.12-27.18,2.41-54.73,10.02-80.98,8.71-30,22.93-58.76,28.01-90.11.05-1.68-6.28-4.8-7.47-7.39s-.5-5.39-.07-8.04c2.11-13.09,12.96-36.41,17.57-50.43,10.45-31.8,16.9-65.28,39.98-91.02-23.04-1.74-33.64-20.17-48.47-34.52-34.95-33.82-50.27-41.73-49.57-95.51.08-6.1-.76-5.16-1.96-12.99s-1.67-2.69-1.18-7.71c-.38-4.47-9.12-20.02-11.08-26.99-4.07-14.45-4.23-30.35-3.78-45.3.11-3.5,1.92-7.82,1.84-10.98-.09-3.77-2.45-9.6-2.79-14-3.31-42.65,35.78-82.11,69.07-102.9,37.01-23.11,79.94-38.09,123.91-27.59-2.21-11.3,5.89-23.08,14.67-29.82,17.95-13.78,48.95-16.13,69.31-6.65,3.02,1.4,9.46,6.92,10.73,7.3,3.07.93,5.79-.95,8.74-.85,25.93.84,52.34,24.45,54.53,50.55.35,4.19-1.43,13.66-.82,15.76.47,1.62,5.14,5.25,6.67,7.4,11.66,16.4,11.74,39.42,2.35,57.01-4.96,9.28-15.02,11.81-16.69,14.31-.81,1.21-.43,3.88-1.27,5.73-5.14,11.4-14.26,18.9-27.23,18.27,4.74,29.92-1.72,52.99-13.82,79.68-7.14,15.76-15.5,31.24-26.07,44.97-.1.59,2.27,4.47,2.89,5.35,1.54,3.46,1.88,6.46,1,9l-3.29-.28c-8.66-8.38-13.81-19.44-17.8-30.62-8.04,6.35-14.11,8.7-24,3.53-3.51-1.83-7.07-4.51-3.39-8.04,26.56,5.5,37.66-21.21,40.8-43.5,6.44-45.69-34.44-57.9-52.43-17-8.28,32.91-33.05,15.11-34.58-9.36-24.24-7.15-47.64-36.04-47.39-61.77-8.31,4.21-19.63.38-24.9-7.04-7.08,4.05-18.31,2.13-22.57-4.97-6.45,5.14-16.87,7.42-23.31.8-6.23,4.94-12.43,5.43-19.54,2.3-5.42,6.11-11.17,11.96-20.07,8.28-13.1,20.6-19.93,46.75-15.98,71.43,5.9-3.16,15.64-.63,19.86,4.33,7.48,8.81-9.29,7.49-14.87,6.29-.89-.03-3.87.15-3.98,1.04-.2,1.59,10.5,28.83,11.89,29.62,18.28-6.09,26.42,26.4,5,24.55-7.51,42.6,20.54,70.98,51.59,95.32,8.13,11.54,17.94,20.01,29.45,25.42,33.48,9.02,84.02-30.32,102.21-57.11,9.87-6.11-.55,15.7-2.56,18.8-7.62,8.03-14.89,16.21-21.79,24.55,5.14,5.08,20.43,23.68,19.98,30.35-.83,12.12-13.96-6.56-15.6-10.54-.53-2.47-12.81-13.98-14-12.72-.66.7-4.66,16.43-3.08,18.71-5.88,16.65-.92,40.74,10.79,54.64,24.66,29.28,60.1,5.83,79.15-17.55,23.76-29.16,47.45-67.33,53.41-104.67l2-1.79c.1-.65,4.14-6.28,4.52-6.45,3.9-1.75,6.17,4.57,1.48,3.45.43.73.82,1.46,1.08,2.25,2.01,6.08-6.28,30.41-9.01,37.8-12.64,34.11-36.53,73.22-65.62,95.57-62.43,47.96-104.04-19.37-85-79.22-12.96,6.7-26.35,11.85-40.16,15.45-15.89,16.52-25.93,37.82-32.61,60.32-8.62,28.58-17.51,56.63-26.67,84.16,1.88,7.35,44.06,21.79,50.78,22.69l1.42-.96c-2.31-12.51-1.38-25.29,1.49-37.66,7.85-26,9.86-51.46,8.27-78.54,4.61-8.8,7.59,4.96,8.11,9.91,1.6,23.87-.65,47.72-6.74,71.55-5.21,26.36-2.57,53.68,17.31,73.56,15.32,14.6,24.66,25.34,31.67,45.62,3.6,10.4,9.02,30.67,1.62,39.55-6.61,5.56-11.23,11.84-13.86,18.85,1.2,6.54,46.09,31.36,51.72,30.08,1.48-.33,17.43-15.79,16.38-16.36-12.66-4.47-27.47-13.09-34.52-24.71-1.98-3.27-2.24-5.08,2.35-4.79,12.14,9.45,24.95,18.97,38.56,26.02,19.68-16.54,39.88-32.18,60.6-46.93l12.01-76.6-.49-1.35c-4.78-2.98-7.46-5.67-6.61-11.73,4.77-31.49,8.73-63.22,8.73-95.97,2.26-27.92,11.75-59.13,32.1-79.16,3.7-3.64,14.06-12.59,18.84-12.21,3.26.25,2.41,1.92.2,4.33-31.32,22.93-40.42,61.08-42.06,98.12-.74,28.14-3.01,56.47-8.5,83.31.53,6.41,17.58,11.56,23.68,12.97,31.63,7.33,61.12,10.05,93.1,1.48l17.65-99.51c3.67-5.24,6.56,5.64,6.2,8.61-3.92,32-8.02,64.97-15.75,96.27-.7,2.84-11.89,7.29-13.05,4.27-5.47,35.66-12.48,72.14-25.41,105.76-10.12,26.31-29.26,42.76-51.63,58.94l15.81,2.93,2,2.37c.29,5.05-5.99,2.77-9.21,1-1.5-.24-8.19-1.17-7.79-.18l-2,1.18c-1.61,2.94-6.91,1.66-9.49.2-33.52,20.4-69.26,35.71-105.95,49.63-8.17,2.74-15.21,6.82-21.12,12.24-3.5-.12-6.49,1.56-8.97,5.04-17.03,20.98-36.65,35.52-62.09,46.43-15.42,9.99-29.25,22.17-41.48,36.57-5.9,6.12-15.67,11.72-22.37,3.81-6.33,7.17-20.07,12.61-24.82.79-7.98,2.72-12.39,3.92-16.29-4.57-8.39,14.27-9.08,31.77-8.55,48.01l-1.86,2.84c-4.15,1.65.19-8.15-1.33-2.82,1.48,5.32-4.71,4.23-4.67-.18-.54-.65-1.04-1.32-1.42-2.05-4.54-8.74,4.2-40.02,8.45-50.18-2.4-3.54-3.81-6.68-4.46-10.97-39.77-29.31-21.1-74.11-4.83-111.79,4.72-12.75,8.19-26.11,8.26-39.76-53.37,29.83-121,79.22-99.08,149,11.11,35.37,44.03,54.18,78.15,62.93l2.94,2.82c2.91,2.76,6.76,3.97,11.56,3.64,4.63-1.55,11.56,18.68,11.01,19.77-.41.8-1.56.82-2.56.59Z"/>
  <path class="st15" d="M259,930.01c-1.24,1.19,5.89,7.19,6.97,8.52,9.28,11.53,15.86,28.28,20.74,42.26,2.19,6.27,7.66,21.06,8.24,26.83.42,4.18-1,6.07-3.77,8.88,16.16,25.03,24.98,55.45,23.98,85.35,20.67,9.93,40.67,32.42,29.71,56.53-1.09,2.4-4.15,5.49-4.64,7.36-.95,3.64.79,7.72-1.24,11.25,7.74-1.39,27.22-7.76,30.55,2.96.87,2.81-.17,7.42.66,8.85,1.47,2.52,6.18,1.45,5.82,9.66-.37,8.53-.51,18.25-5.17,25.9-9.43,15.45-49.07,14.99-65.2,15.8-7.89,10.73-15.41,21.36-30.2,20.88-12.25-.4-28.31-1.52-37.5-10.5-2.84-2.78-5.23-8.62-8.68-10.32-6.15-3.02-22.27-3.35-31.04-5.96-3.24-.96-6.47-2.11-9.59-3.41-4.51-1.87-16.96-10.07-20.01-9.84-5.11.38-14.03,4.04-20.24,4.87-70.65,9.45-121.83-44.82-102.1-115.1,1.03-3.66,5.3-12.22,5.49-14.46.16-1.91-2.85-5.68-3.35-8.29-.97-5.03,1.77-9.82,3.72-14.4,7.73-18.09,17.98-35.85,26.03-53.97,13.56-30.51,21.37-63.99,46.81-87.19,2.67-2.44,19.63-14.86,19.88-16.12.2-1.03-3.44-6.56-4.17-7.07-1.69-1.17-8.96-2.32-11.96-3.54-53.58-21.72-70.28-87.96-47.6-138.12,38.97-86.15,185.08-101.25,208.37.35,3.38,14.75.2,22.96,10.52,35.48,3.83,4.64,8.16,7.88,11.78,13.22,15.57,22.89,14.14,47.63.01,70.64-11.85,19.31-29.43,38.76-52.82,42.68Z"/>
  <path class="st22" d="M737,529c20.08,28.46,72.78,39.68,104.02,56.48,112.55,60.54,89.51,191.53,116.47,297.53,7.56,29.73,24.92,70.25,27.5,99.5.9,10.25-3.61,11.33-3.99,15-.49,4.74,4.32,23.14,4.99,30,4.43,45.36-4.44,93.31-37.99,126l14.99,8.49c4.37,5.64.77,7.54-4.69,8.82-3.11.73-4.17.7-4.15-2.82-2.92.22-4.73-1.62-5.06-4.44-3.66-1.22-7.34-1.87-11.05-1.94-.6-1.46-2.13-1.94-4.58-1.43l-.47-1.19,1.82-3.82c44.26-35.49,49.59-99.61,39.25-151.33-41.42,29.39-99.58,28.11-148,18.9-.72-.14-1.4-.57-2.09-1.04s-1.36-1.08-1.97-1.71c-1.49-1.83-2.82-2.16-4-1-1.6,2.67-8,1.15-8-2v-3.99c2.41-1.69,15.44,5.5,19,1.99l4.64-1.24c46.17,7.82,93.16,7.7,133.33-17.5,2.28-1.43,8.82-5.81,9.78-7.96.69-1.55-1.54-12.41-2.11-14.78-6.07-24.93-13.59-50.91-21.63-76.02-10.84-46.93-18.63-94.46-23.36-142.59-7.45-46.11-18.65-97.64-52.05-131.86-25.18-25.8-59.93-39.62-91.81-52.2l-.79-2.84c-.16-.36,2.6-2.42-.49-1.99-1.71,4.24-1.93,3.12-5.51,4.99-1.72-.03-2.36-1.22-1.91-3.58-8.01-2.96-41.45-20.13-39.69-27.9.12-.53.35-1.03.6-1.52-.89-1.41-1.31-4.14-2.33-5.66-1.34-2-4.69-1-2.66-6.34,2.59.3.54,8.03,3.99,3Z"/>
  <path class="st22" d="M932,1161c2.06-1.21,6.96-2.02,7.83.42.56,1.57.2,8.83-2.52,8.27-6.05-1.96-6.68,2.39-7.07,8.11-3.24,2.26,2.6,8.3,5.77,8.95,1.4,5.77,2.12,7.09,6.91,2.65,6.99-4.07,10.03,7.54,6.27,10.99,1.13.58,1.39,1.54,1.13,2.84-.09.43-5.51,4.93-6.32,3.78l-2.16.27c-7.46-10.84-17.28-19.74-27.84-27.2-26.03,13.13-55.27,20.2-83.85,24.95l1.48.56c3.08,10.35,1.29,21.14-.51,31.53,20.94-5.53,42.3-9.66,64.08-12.38,1.07-3.8,3.72-3.6,6.07-.71l19.27-1.9,1.48,1.9c2.76,1.81,3.42,3.14,2,4-4.37,1.28-9.02,1.82-13.97,1.59l.97.41-46.18,7.32c-10.57,2.89-22.42,4.08-32.82,7.18-7.9,2.35-7.28,6.07-14.21,8.79-27.58,10.84-72.17,20.95-101.77,27.23-61.72,13.08-190.62,23.98-227.01-41.51,2.06-1.3-.88-4.29-1.44-5.92-.26-.75.53-2.02.36-2.44-.08-.21-2.66-3.07-2.83-3.4-.75-1.51-.57-4.04-1.58-5.25-1.65-1.96-11.55-2.34-14.5-3.01v-3.99s.72-1.19.72-1.19c4.57.67,8.33,1.06,11.28,1.19.39-.33,3.73,2.35,3.99,2l1-4c-.66,2.29.42,3.37,1.01,5l3.01,2.33c7.96,22.41,22.83,38.9,45.04,47.64,73.26,28.85,163.43,10.88,236.1-9.74.74-2.02,3.02-2.35,4.65-.89,8.33-3.42,16.77-5.82,25.33-7.2-.02-1.24.58-2.2,1.81-2.47,22.32,3.76,21.67-24.57,19.55-40.26-31.69,6.14-63.61,11.22-95.74,15.26-15.21,1.77-29.57,5.32-43.09,10.66-8.03,6.37-36.41,24.57-45.31,18.35-7.07-4.94,1.42-5.52,6.11-5.41,9.07-2.27,17.57-6.54,25.2-11.7-5.46,2.9-39.89,9.16-44.13,5.14-1.88-1.79-1.97-2.88-.34-5.08,22.37-.57,44.73-6.45,65.5-13.74,39.15-7.96,78.51-14.46,118.06-20.38,40.86-7.52,82.51-16.35,118.03-38.47l5.22-1.05Z"/>
  <path class="st18" d="M933,1159c2.12.69,6.38,1.56,6.5-1l3.5,3,.99-3.99c.14,1.44,3.7,5.78,5.01,4.98-.92-1.99-.2-4.19,1.98-4.98-.49,2.14,1.94,1.88,2.01,2.01.19.36-3.54,3.19-1.09,6.39,1.45,1.9,5.35-1.83,4.12,4.58,1.62.43.61-1.37,1.19-1.73,1.45-.89,5.1.45,6.37-2.27.52-1.1-2.26-2.42-.56-4,9.84,7.46,25,27.03,28,39,4.28,21.45-9.02,28.66-28.22,28.59-12.96-.05-26.03-.59-38.78-1.59-.44-1.82-2.36-1.98-3.99-2.01v-.98s1.99-1.01,1.99-1.01c.18-.9.52-.86,1,0,6.89,1.08,13.89,1.08,21,0-1.3-2.17-1.59-4.91-.85-8.22-.74-3.53-.46-6.45.85-8.78,1.65-.51.25-3.81,1.62-4.07,1.23-.24,3.59.98,3.38-.92-1.89.72-9.54-4.31-7.98-6.01,2.43,2.51,6.94,4.52,8.99,1.01-4.02.41-11.62-1.96-4-5-1.44,1.56.54,3.14,1.99,3.98,1.63-8.97-5.53-5.69-8.49-.01-1.31-3.27-3.53-2.67-6.49-3.99-.44-1.72,2.08-.42,2.07-1.57-.05-4.94-3.22-2.15-4.11-2.84-1.36-1.05-.45-7.44-5.96-5.58-.95-1.62,3.11-4.3,3.99-5.5l-1.99-1.48c3.64.45.56-1.41,1.2-2.81.1-.23,1.34-.17,1.45-.44.21-.48-.53-1.27-.34-1.51,3.25-4.06,5.08-3.13,9.68-2.26l-3.99-3.01,2.98-.98c.2-6.47-2.7-1.91-5.99-3-2.66-1.49-1.94-2.8,1-2Z"/>
  <path class="st20" d="M911,1230c-1.17-.04-4.2.76-3.99-.99,5.74.53,11.31-.81,16.99-1.01,13.53-.49,27.56,1.76,40.54,1.04,11.04-.61,24.83-3.55,26.38-16.64.5-4.26-1.96-7.92.08-11.4,8.23,32.84-25.3,28.96-46.54,29.04-2.82.01-5.68-1.1-8.95-1.11-8.02-.03-16.01,1.36-24.5,1.07Z"/>
  <path class="st9" d="M785,568c.64,1.41,24.81,10.08,28.68,11.82,53.31,24.04,82.18,47.77,101.59,104.41,22.68,66.21,19.83,135.87,37.02,202.98,6.4,24.97,15.68,49.23,21.64,74.36,1.21,5.12,5.87,23.85,4.64,27.49s-17.39,13.4-21.52,15.48c-39.32,19.86-85.77,17.86-128.05,10.45-6.45-1.13-14.37-2.16-20.55-3.97-4.52-1.33,1.08-2.48,2.49-3.57,34.16-26.26,44.52-36.2,57.32-78.7,8.33-27.67,13.46-56.39,18.76-84.77,3.24.74,10.52-1.26,12.46-4,7.02-31.28,11.78-63.53,15.57-95.51l-2.04-9.47-18.08,101.91c-9.14,1.96-18.18,4.08-27.49,4.96-20.77,1.96-42.27.69-62.52-4.53-6.14-1.58-27.03-7.94-30.01-12.82-2.24-3.67,3.26-22.98,3.97-28.14,6.17-45.31-1.44-94.69,24.31-134.69,6.67-10.36,15.45-17.87,24.81-25.68-26.67,11.23-41.98,43.98-47.51,70.97-5.01,24.5-2.74,50.4-5.5,75.51-.94,8.54-7.78,39.98-5.47,45.49,1.33,3.18,7.74,3.86,6.52,8.46l-12.26,76.79c-8.25,7.7-18.6,13.41-27.68,20.37-11.47,8.79-22.34,18.45-33.81,27.27-4.16,1.08-36.28-22.37-41.29-26.87-.68.73,4.62,7.05,5.48,8.01,8.73,9.83,20.98,16.42,33.51,20-3.62,2.57-17.89,18.08-20.72,18.85-3.57.97-27.29-10.99-31.95-13.69-4.62-2.68-20.99-13.19-22.18-17.87-1.75-6.9,14.86-19.14,17.09-24.55,2.22-5.37-2.08-23.4-3.73-29.75-7.5-28.85-18.37-32.22-35.53-52.47-37.61-44.38.51-93.05-8.09-143.91-.2-1.16-2.65-12.3-3.87-10.62-.45,13.39.92,27-.13,40.37-1.49,18.98-9.64,38.71-10.87,58.14-.48,7.63.41,16.02,1.99,23.48-14.03-2.95-27.82-7.51-40.68-13.81-4.11-2.02-16.02-7.25-16.29-11.76-.34-5.73,10.49-31.21,12.99-38.89,8.92-27.42,16.4-63.4,31.56-87.44,2.33-3.7,12.99-18.3,15.89-20.11,3.7-2.3,15.97-4.37,21.51-6.49,8.04-3.06,15.31-7.78,23.01-11.48-9.76,26.99-9.24,66.73,13.78,87,39.33,34.63,87.87-20.37,107.24-51.49,16.07-25.81,30.69-57.2,33.98-87.52Z"/>
  <path class="st0" d="M822,1020c48.41,8.72,99.27,12,143.93-12.56,1.65-.9,8.45-7.34,10.06-6.43-.2,5.92,2.09,12.36,2.88,18.61,6.15,48.77-3.1,109.27-45.88,139.38-.8.57-1.08.98-1,2-23.96,16.38-51.11,25.24-79.23,32.39-51.83,13.17-108.55,16.95-160.84,29.26-3.82.9-8.15,3.22-11.72,4.07-17.79,4.21-35.88,10.68-54.21,9.29-.34,2.2.05,1.99,1.9,2.39,3.39.73,16.74-.04,20.49-.5,6.95-.86,14.24-3.68,20.03-5.08,3.48-.84,7.96-1.21,11.57-1.8l-20.47,12.01c-7.29,2.48-14.42,7.21-22.52,4.99.02,1.91,6.56,3.21,7.38,3,1.19-.3-.07-2.43,1.61-2.01l.5,1.99c5.5-2.72,11.33-3.79,17.17-6.83,11.61-6.03,15.83-13.2,29.3-16.7,6.7-1.74,15.33-3.45,22.22-4.76,36.09-6.86,72.95-9.35,108.84-17.27,2.9,9.42,2.04,36.63-7.32,41.77-1.28.7-11.14,3.68-12.28,3.73-.9.04.29-2.41-1.42-1.94.86,4.42-1.88,2.58-5.05,3.45-7.86,2.15-16.01,4.54-23.47,7.54-1.16-.58.31-2.44-1.47-1.98.18,1.37-.2,1.67-1.37,2.17-3.68,1.57-11.3,3.21-15.59,4.38-63.5,17.37-146.34,30.65-211.27,9.16-31.37-10.38-46.69-25.19-57.78-55.72-1.08-19.19.23-40.8,11.51-56.99.62,1.83-.37,3.07.68,5.23.24.49,3.65,5.47,3.93,5.67.52.38,10.86-1.43,11.88-3.9,1.02,10.47,9.8,10.08,17.26,5.75,2.09-1.22,4.44-4.78,6.25-4.79,3.42,0,2.28,6.31,12.77,2.8,7.21-2.42,27.7-27.55,37.27-34.77,15.69-11.84,36.14-18,50.96-29.99,7.83-6.34,23.99-26.23,29.52-29.56,1.01-.61,2.4.57,2.81.34.96-.54,4.45-4.38,7.49-5.95,23.99-12.41,53.06-20.96,77.89-33.11,14.68-7.18,28.51-16.61,43.12-23.39,2.98,1.58,7.3,1.21,9.67,1.68,2.16.43,4.94,1.41,8,2,.71-1.76,3.22-.59,4,1Z"/>
  <path class="st12" d="M779,571c.84,31.19-45.28,104.6-70.03,124.44-46.41,37.21-85.38-.43-79.06-52.01.23-1.91,2.02-1.36,1.98-1.86-.09-1.02-1.22-2.27-.94-4.01,1.03-6.6,3.34-12.23,4.06-18.56,11.21,2.82,18.22,15.34,24,24.53.99-.31,3.93,4.85,4.99,3.46,3.29-4.28-15.72-29.55-20.97-32.5l23.44-25.54,7.54-16.95c-1.84-1.74-9.6,10.87-11.03,12.51-18.9,21.52-64.13,53.63-94,46.01-15.38-3.92-21.02-16.24-31.32-26.18-12.54-12.1-28.78-23.14-38.88-37.63-12.57-18.04-15.96-39.82-13.77-61.72,22.41,6.49,13.06-29.37-3.99-19l-12.97-33.53c6.46-5.58,16.33,2.38,21.94-2.97-5.77-6.44-14.5-9.98-21.97-4.5-3.97-20.68-.44-41.43,7.82-60.67,1.22-2.84,7.14-15.61,9.15-16,1.73-.34,4.09,1.67,6.53,1.23,1.07-.2,6.01-1.99,6.78-2.5,1.98-1.32,1.08-3.11,5.28-5.46.43-.24.52-1.55,1.09-1.63,2.07-.29,6.37,2.83,11.79,1.98,3.44-.54,8.37-4.92,10.04-4.96.58-.01,1,2.44,2.57,3.51,1.38.94,7.42,1.91,8.72,1.2,2.73-1.49,1.57-.45,5.08-1.29,2.4-.57,2.13-2.12,3.37-2.71,4.72-2.22,3.26.87,5.79,2.78,3.31,2.5,9.33,4.09,13.43,3.48,2.24-.34,4.47-2.52,6.88-2.02.39.08,3.16,4.6,5.37,5.97,1.59.98,10.15,3,11.93,3,3.75,0,5.17-2.2,8.37-2.89.15,3.74-.34,7.53.24,11.26,2.81,18.03,23.04,42.39,39.87,50.12,2.12.97,6.58,1.43,6.82,1.68.42.44,1.63,9.38,2.59,11.92,2.55,6.76,8.63,16.33,16.91,14.97s8.76-10.8,11.87-17.16c6.86-14.03,18.95-29.83,36.9-24.54,12.22,3.6,18.78,15.22,19.67,27.31,1.42,19.18-5.81,50.17-24.5,59.31-4.16,2.03-14.65,3.65-18.36,1.13-2.96,3.82,15.3,10.76,19.22,5.73l8.75-5.72c4.18,12.41,9.88,25.36,20.02,34,4.02,6.38,11.21,12.76,17.68,16.82,3.41,2.14,22.45,10.28,23.11,11.39s.18,3.38.21,4.78Z"/>
  <path class="st24" d="M880.99,846c-5.04,26.58-10.25,53.47-18.05,79.44-13.16,43.81-27.33,59.1-65.01,83.99-37.77,24.96-76.58,37.17-116.61,56.39-21.38,10.27-26.88,23.17-44.41,36.59-18.9,14.46-41.41,21.99-59.44,37.56-4.07,3.51-7.28,8.07-10.47,11.28-6.57,6.64-12.9,15.61-22.91,16.66-2.54-4.33-1.4-7.19,1.06-11.31,10.21-17.07,23.2-30.57,37.2-44.76,4.11-4.17-.11-4.65-2.86-2.95-2.24,1.39-7.77,7.66-10.29,10.03-9,8.47-15.49,16.29-22.63,27.14-4.11,6.24-8.83,17.92-14.37,21.86-8.88,6.31-16.17,6.27-13.15-6.33,5.43-22.68,25.68-44.27,41.99-59.89,1.57-1.5,4.72-.73,3.95-5.71-1.58-.33-2.46.63-3.61,1.39-15.33,10.08-31.59,29.28-39.76,45.73-2.02,4.06-6.68,19.05-8.16,20.84-.88,1.07-6.31,3.42-7.8,3.11-.69-.14-3.54-5.42-3.63-6.61-.54-7,6.1-22.84,9.42-29.51,6-12.04,16.36-25.69,26.07-34.98.69-.66,2.31-.92,2.41-1.07.21-.33-1.3-2.21-.9-2.81.32-.48,5.95-1.64,3.47-5.1-1.21,3.04-3.78,3.37-5.73,5.03-20.13,17.07-34.6,41.02-39.78,66.97-.86-1.3-5.36-2.68-5.52-2.96-.72-1.29.44-2.34.22-3.39-4.48-20.9,13.73-44.61,26.67-60.3,2.68-3.25,5.58-6.79,8.43-9.01,19.4-15.14,34.51-25.75,59.05-35.02,19.67-7.43,28.92-9.63,47.11-21.89,36.73-24.78,71.24-60.22,107.13-87.89,6.26-4.82,21.29-13.42,25.47-18.51,2.41-2.93,3.1-6.31,4.19-9.81l11.28-74.23c31.72,11.34,66.63,16.98,99.99,10.01Z"/>
  <path class="st24" d="M598.62,846.37c2.17,2.51,3.74,5.75,7.24,6.78v2.12c-3.65,9.2-9.59,18.73-13.15,27.73-8.36,21.12-8.71,43.53-16.03,65.17-7.68,22.7-32.94,63.64-28.21,85.87,1.65,7.76,5.16,15.43,9.53,21.94-10.23,4.82-20.24,11.1-28.5,19-1.5.03-2.88-11.65-5.5-8.97,4.59,12.59.27,11.61-6.01,18.77-5.24,5.97-10.91,13.38-15.01,20.22-1.91.33-2.69-.84-2.98-2.5-1.4-8.02-.25-16.12,1.01-23.99-2.63-.24-3.74,4.59-4.26,6.73-2.38,9.73,2.8,20.23,1.98,25.11-.7,4.17-9.37,13.16-9.74,18.65-1.99.26-1.64.2-2.24-1.24-2.5-6.09-2.86-14.11-5.25-20.25l.49-26.5c-2.07.37.19,3-2.98.99.24,14.2-2.2,28.21,2.21,42.29.9,2.88,5.45,9.43,5.6,10.43.5,3.33-1.02,6.98-1.31,10.28-9.84-7.6-15.74-19.63-18.25-31.74-.6-2.91,1.12-7.76-2.24-7.27v-.97c.67.08,1.79.16,2.01-.66.76-2.86-.12-9.77.53-13.85,4.73-29.32,25-52.45,26.44-85.94,2.2-51.18-2.1-102.04,21.63-149.48.73-1.46,1.43-3.23,3.37-3.1.41-1.74-1.54-.62-1.88-1.07-.78-1.03,1.9-4.36,2.4-5.92,4.95-15.46,8.79-31.2,12.51-47,15.87,8.86,33.26,13.75,50.58,18.91,3.26,11.81,8.23,20.43,16.03,29.46Z"/>
  <path class="st27" d="M469,1215c-45.05-11.13-81.86-35.26-86.98-84.51-4.58-44.11,27.48-79.12,60.08-103.89,14.76-11.21,30.75-20.59,46.89-29.6.34,15.24-2.88,28.4-7.95,42.54-10.95,30.53-31.16,63.73-10.88,95.8,2.98,4.71,14.64,14.34,15.33,15.68.79,1.54.5,3.85,1.28,5.72s3.05,4.04,3.23,5.81c.32,3.15-2.8,7.2-3.72,10.23-4.19,13.92-6.01,27.62-5.28,42.22-.18.15.39,1.62-.46,1.81-2.92.64-8.52-1.06-11.54-1.81Z"/>
  <path class="st27" d="M620.77,953.25c13.18,16.17,33.99,25.08,53.22,32.25-8.27,6.99-16.09,14.68-24.52,21.48s-19.48,15.63-28.59,21.41c-3.13,1.99-23.39,12.71-24.81,11.52-.25-.21-.02-1.36-.08-1.89h-.97c0,1.31-.51,2.19-1.7,2.8-4.08,2.08-11.79,3.38-15.99,4.99-5.14,1.97-10.2,4.83-15.21,7.11-6.89-11.12-10.24-22.06-7.87-35.15.82-4.53,4.2-12.69,5.96-17.06,4.76-11.84,11.13-23.21,15.93-35.06,1.97-2.42,13.74-6.49,17.42-7.58,4.13-1.23,24.7-6.26,27.22-4.81Z"/>
  <path class="st29" d="M580.01,957c5.48-17.61,10.59-35.45,11.43-54.06l19.06-44.93c12.97,11.07,19.17,25.7,23.02,41.98.93,3.96,4.19,18.32,3.31,21.29-.4,1.35-8.5,9.55-10.22,11.82-3.25,4.3-6.12,8.61-8.59,13.41-12.97,2.23-25.91,5.25-38,10.49Z"/>
  <path class="st2" d="M284,810c5.86.18,5.97-6.68,6.5-11,5.94,9.85,15.74,16.55,21.14,26.86,20.27,38.78-14.66,89.04-52.83,100.44-12.86,3.84-39.26,2.95-52.18-.35-.83-.21-.02-2.85-4.63-.95-1.54,1.47,8.99,7.23,9.98,7.53,1.51.46,3.35-.37,4.99-.11,5.92.95,11.91,2.56,18.02,1.57,2.28,31.22-29.65,20.55-46.16,9.9-12.04-7.77-23.66-21.13-35.06-27.21-1.06-.56-3.22-.39-3.73-.76-.11-.08.68-1.65.26-2.65-.51-1.2-2.82-2.01-3.3-3.77,1.33-1.91,3.31,2,3.98,1.49.15-.11-.23-1.54.47-1.79,2.4-.86,6.3-.43,10.09-2.15,2.55-1.16,11.94-9.05,6.94-11.04-.84-.33-6.41,6.11-8.58,6.39-6.99,3.6-14.63,3.03-22.09,1.29-10.07-2.35-18.09-12.29-22.52-21.48-8.58-17.78,4.81-36.95,24.98-32.98,1.17.23,3.53.95,4.47,1.53,2.88,1.79,1.25,3.44,3.25,4.23,1.21-3.98-3.7-8.59-6.96-9.61-.49-.15-8.51-1.29-9.41-1.34-12.5-.61-22.63,11.43-23.65,23.41-.7,8.24.99,13.36,4.04,20.53-1.21,1.18-9.77-7.2-10.97-8.52-31.27-34.39-31.41-85.41-7.25-122.13,41.11-62.48,138.7-78.98,182.21-10.82.4,2.63-3.93-.22-6.13.02-9.22.99-5.22,9.25-2.38,9.22.55,0,1.61-1.62,2.99-1.7.67-.04,5.93,1.59,6.75,2.02,8.43,4.33,8.04,24.39,9.77,32.92-2.15-1.21-4.49-5.83-6.93-6.37-7.47-1.65-12.22,10.47-11.04,16.88.42,2.26,1.91,2.34,1.98,2.49l1.39-.16c2.07,3.57,8.28,10.8,11.61,8.16Z"/>
  <path class="st4" d="M240,934.01c9.66-.74,12.66-2.09,19.65,5.34,14.98,15.93,22.34,48.88,29.16,69.35-.46,2.06-10.51,8.08-13.14,9.46-3.3,1.74-6.82,3.73-10.66,3.83,2.73-19.73-1.5-39.56-4.01-58.99l-1.51.98c-.48,30.76,2.72,62.27-1.19,92.84-2.58,20.22-6.7,37.61-20.32,53.36-2.09,2.42-11.61,11.09-14.3,10.61-.82-.15-13.3-7.94-14.11-8.87-9.31-19.15-16.87-39.72-31.1-55.95,1.2-4.16-.38-10.82.52-14.27.23-.89,2.08-1.07,2.82-2.36,1.9-3.31.64-28.99.19-34.84-1.12-14.36-4.93-29.24-12.5-41.5l6.37,27.56c.73,14.83,1.57,29.57,1.12,44.44-23.13-6.43-49.31-3.03-69.98,9-2.92-17.65-.13-35.3-.02-52.99-1.4-.24-1.36,1.68-1.74,2.73-4.35,11.93-8.1,44.03-2.99,55.5,1.39,3.11,4.55,3.36,5.98,6.02,1.55,2.91,1.51,7.88,2.72,11.28,7.05,19.93,18.58,37.38,32.05,53.44-22.6.93-47.72-.6-68.04-11.45-8.3-4.43-23.24-16.07-20.48-26.58,9.83-20.41,20.59-40.53,29.7-61.29,13.98-31.84,19.88-61.88,46.81-86.19,2.49-2.25,16.02-13.42,18.09-13.02,21.54,11.14,36.65,31.94,61.53,37.51,18.01,4.03,32.12-6.05,29.39-24.97Z"/>
  <path class="st12" d="M159.86,1134.15c.19.29-.95,1.75-.86,1.84,1.65-.59,8.4,3.44,8.87,4.21.35.59-.47,3.28.05,5.3,3.56,13.8,17.04,19.16,27.62,25.47,8.47,5.05,7.25,8.27,12.05,13.95s8.66,1.01,13.08,1.39c2.37.2,4.03,1.59,6.57,1.47,4.24-.2,6.61-2.87,9.27-5.75,4.39,10.67,14.7,14.1,25.27,16.71,13.02,3.21,29,2.93,41.22,5.7,4.08.92,11.02,3.26,10.76,7.83-.48,8.25-9.76,3.58-13.74.75-2.76,6.02,11.07,10.17,6.83,16.84-2.11,3.31-4.23-.58-4.58-.8-4.89-3.07-8.39-6.72-14.25-5.02.75,2.35,3.68,1.97,5.41,3.12.85.57,4.09,3.07,5.06,3.85,5.39,4.31,3.06,7.49-.98,12.01-1.96-6.5-9.83-7.28-15.49-8.99-.57,4.18,5.89,3.77,6.77,4.32.31.19,5.09,4.8,5.29,5.11.84,1.27,1.51,4.51.92,5.57-.06.11-1.06-.75-2.54-.06-2.65,1.23-2.3,2.92-2.47,3.04-2.02,1.45-1.93-1.61-2.65-2-3.11-1.71-8.9-3.17-12.33-1.97,2.37,2.71,6.62,5.01,10,6l-3.71,2.8c-13.41-2.51-27.77,1.13-38.79-8.81-2.63-2.37-5.39-7.39-7.99-10.02-5.17-5.23-22.49-5.13-30.73-7.27-17.94-4.68-31.83-13.29-44.77-26.26-1.63-1.64-3.97-.81-2.02-3.44h-3c.39,6.67,5.09,11.89,10,15.98-10.99,1.42-20,6.02-30.53.04-32.49-18.45-15.55-70.43,13.48-83.58,2.12-.96,5.9-2.58,8.09-2.02.3.08,4.67,2.49,4.82,2.72Z"/>
  <path class="st14" d="M223.63,1126.38c11.44,7.9,24.48,22.49,21.87,37.61-.11.64-.57,3.08-1.49,1.5-1.99-10.69-9.53-19.19-18-25.48.59.85,2.16,5.51,2.34,5.76,4.78,6.8,11.63,12.63,13.42,21.98.48,2.53-.05,8.55-3.29,6.29-3.65-2.54-5.75-12.12-10.09-16.93-.72-.8-7.65-6.82-8.39-6.1,3.04,4.64,7.84,9.43,9.88,14.61.59,1.49,4.16,12.14,4.17,12.82,0,.64-6.87,6.3-9.9,4.41-.73-.45-4.55-13.13-5.78-15.71-.63-1.33-6.46-11.94-8.37-10.12,5.66,7.71,6.51,17.06,9,25.98-8.81,2.9-8.29-5.57-12.73-10.03-9.31-9.36-25.3-10.9-31.66-25.06-3.74-8.31,0-4.28,4.39-8.89l-4.01-.02,1.01-1.98c-4.19-.18-7.66-2.18-10.92-4.6-17.42-12.94-37.44-38.77-45.82-59.18-1.41-3.44-8.05-23.25-6.83-25.24,8.37-8.3,53.67-14.32,60.59-7.52,2.55,2.5-.04,7.88-.11,11.03-.2,9.48,3.76,9.74,8.31,16.77,9.53,14.72,14.19,30.76,22.35,44.65,3.21,5.46,14.61,9.69,20.06,13.45Z"/>
  <path class="st28" d="M110.99,1125.01l-12.9,4.58c-2.95,2.1-6.08,3.94-9.11,5.93-.56.37-3.74.76-1.98,2.47,1.09,1.07,24.35-11.68,27.87-12.46,5.84.58,11.8.64,17.69.46,3.17-.1,17.37-2.86,17.41.5-9.46,4.59-15.4,7.53-22.49,15.49-16.82,18.86-23.39,46.7-8.89,68.92l9.4,10.09c-37.71-2.16-74.26-27.72-79.73-66.73-2.4-17.12.15-37.96,8.24-53.26,12.67,15.69,35.44,20.39,54.49,24.01Z"/>
  <path class="st2" d="M286.99,1019c14.76,25.92,23.81,54.16,23.19,84.35,3.79,4.4,9.55,6.35,14.15,9.82,12.12,9.13,19.71,20.82,18.67,36.35-.13,1.99.81,2.89-2,2.47,1.05-3.13-.16-8.12-1.3-11.19-.48-1.31-6.89-13.55-8.7-11.79,1.08,2.84,3.52,5.02,4.7,7.79,1.76,4.12,4.04,17.43,3.09,21.5-.49,2.1-2.64,3.45-2.81,5.7-2.55.63-2.56-2.44-3.99-3.41-.5-.33-1.81.4-1.89.31-1.11-1.32.08-6.09-.3-8.11-.68-3.7-3.05-10.98-4.63-14.46-.36-.79-3.92-6.99-4.19-7.31-.76-.87-1.37,2.81-2.97,2.01-.42,1.45,1.15.66,1.97,1.7,2.93,3.72,7.1,16.01,6.07,20.63-.15.69-5.25,1.6.94,1.66-1.19,2.67-4.52,3.62-6.71,1.69-4.29-5.6-8.63-14.07-13.76-18.73-4.7-4.26-11.23-6.17-16.38-8.84-.99-.51-4.6-2.58-5.14-2.13,4.1,4.39,4.75,11.29-.43,15.05-2.01,1.46-7.59,1.07-9.31-.33-2.83-2.31-4.94-16.08-4.69-19.89s4.38-13.21,4.05-14.91-2.05-1.81-2.58-2.69c-3.67-6.08-10.95-18.04-11.81-24.76-.97-7.55,4.06-24.99,4.77-33.99.3-3.8-1-17.35,1-19l20.99-9.49Z"/>
  <path class="st2" d="M364,1208c-.76.42-2.28-.21-2.87,1.63-1.8,5.56,1.83,9.58,6.86,10.86-1.75,3.98-4.11,4.47-7.98,2.51,2.16,3.15-1.5,4.42-4.63,5.88-15.54,7.25-31.19,4.35-47.37,7.11-.71-2.75,1.79-1.87,2.9-3.55,3.56-5.4-1.34-11.01-.91-11.43.13-.13,2.3-.19,3.55-.95,8.01-4.89,5.16-14.93-2.64-18.46-9.04-4.09-19.42-.54-26.91-8.38-9.68-10.13-11.47-25.94-10-39.22-1.8.31-1.71,2.02-2.13,3.35-2.8,8.77-2,17.88.15,26.65-11.48-.3-15.5,9.28-16.99-7.51-.5-5.64,1.76-25.99,5.09-29.91.32-.38,1.3-.6,1.89-.59v-.98s-1.98-.02-1.98-.02l5.48-13.98c2.39-2.23,1.03-.36,1.16.91,1.4,13.48,13.64,25.57,23.4,11.64,1.31-1.86.05-4.99,2.93-4.56l-1.4-.98c-1.79-1.36.92-1.08,1.7-.81,10.54,3.7,16.63,13.74,22.7,22.54.73,1.06.88,3.18,1.02,3.28.49.34,1.86-.84,2.5-.87.59-.03.31,1.55,1.21,1.8,3.68,1.04,5.79,1.79,5.77-1.94,1.53,1.12,1.29,3.17,2.53,4.47,1.37,1.43,5.31,2.02,5.91,2.64.35.36-1.47,7.83.07,9.89-7.5,1.72-13.22,3.44-20.95,4.39-1.72.21-2.85-.28-1.05,1.6,1.28,1.34,9.13,1.06,11.37.88,7.5-.59,35.28-10.74,40.39-5.63,7.41,7.42-12.4,16.88-11.77,2.77-2.54.38-2.1,7.59-1.03,8.47,1.67,1.38,4.37,1.14,4.99,1.61.42.31-.67,6.69,1.18,10.29,1.46,2.85,5.61,3.7,5.87,4.63Z"/>
  <path class="st23" d="M257.15,1091.87c.06.12,1.48.15,1.84.83,1.05,2,1.52,4.33,2.62,6.18,1.97,3.31,6.41,6.44,6.31,10.48-.24,10.24-8.23,20.73-11.67,30.39-2.29,6.42-2.83,12.22-4.56,18.45-.29,1.03-.24,3.03-1.68,2.79.48-11.41-4.25-21.39-11.98-29.52l-9.02-7.46c13.05-7.34,21.72-20.49,27.53-33.98,2.95-2.57.35,1.29.62,1.84Z"/>
  <path class="st5" d="M253.99,1191c-2.09-2.05-6.98-2.48-8.71-4.28-1.03-1.08-3.87-6.52-4.27-8.23-.65-2.78,2.23-.05,3.77-1.7,1.2-1.28,3.09-5.98,4.23-7.78,1.63-.27.94,1.35.99,2.47.33,7.37,1.05,12.61,3.99,19.52Z"/>
  <path class="st3" d="M274.82,1188.17c.46.27,4.34,7.78,6.18,8.82l-21-3c1.33-2.9,13.03-6.88,14.82-5.82Z"/>
  <path class="st31" d="M367.39,1202.44c-.39.2-.42,1.55-.99,1.58-5,.24-6.36-3.8-4.94-8.07,1.66-5,8.66-3.75,10.14,1.03,1.23,3.97-1.54,4.06-4.21,5.46Z"/>
  <path class="st7" d="M284,810c3.23,4.73-7.4-.53-8.34-1.16-3.62-2.43-3.17-3.58-4.66-6.84-.05-2.09-.15-4.17.24-6.25.24-1.3,1.21-5.39,2.75-5.74-.51,6.86,1.83,18.86,10.01,20Z"/>
  <path class="st8" d="M364,1208c11.9-6.54,7.9,13.41.94,6.54-2.78-2.75-.46-4.81-.94-6.54Z"/>
  <path class="st32" d="M818,1019c-1.04-3.63,4.62-1.77,4,1-1.65-.3-2.92-.79-4-1Z"/>
  <path class="st2" d="M944,1207c1.5,3.69,1.57,13.22,0,17-1.5,1.11-3.63,1.19-6.4.22-5.37,1.12-9.36,1.58-14.6-.22-.33.01-.67-.02-1,0-4.17.2-20.5,2.39-22.37,1.97-.62-.14-.8-3.64-2.63-1.96-.5.46,2.93,1.93-1.75,2.72-19.5,3.29-36.48,5.44-55.3,9.71-4.02.91-7.88,2.72-11.93,3.56,3.05-11.3,5.1-24.81.99-35.99,20.41-4.56,40.92-8.97,60.81-15.7,8.16-2.76,16.1-6.42,23.87-10.12,3.14-.18,19.03,14.65,21.84,17.8,1.41,1.58,7.98,9.76,8.49,11.01Z"/>
  <path class="st22" d="M944,1224c-.18.44-2.43,1.44-2.01,2.99h-.97c.7-2.76-3.45-2.39-5.58-2.06-1.94.29-.97,1.91-2.87,2.15-2.32.29-5.14-.34-7.56-.09l2.01-1.49-4.01-1.5c2.17-.09,6.55-.67,8.3-.66,4.23.03,8.44.78,12.7.66Z"/>
  <path class="st11" d="M913.99,981.01l-12.45,6.03c-16.92,5.35-34.9,7.83-52.54,4.95-.24-1.74,2.27-.94,3.48-.99,4.29-.17,8.86.35,13.05.04,16.34-1.2,32.77-5.58,48.45-10.03Z"/>
  <path class="st21" d="M728.99,871.01c.16,1.58-3.34,1.62-4.32,1.61-15.48-.17-33.81-7.48-43.67-19.61,4.74,2.08,8.7,5.82,13.32,8.17,9.79,4.97,23.75,9.82,34.67,9.83Z"/>
  <path class="st26" d="M591.91,552.09c2.31,2.65-10.47,29.18-13.07,33.25-4.04,6.32-12.62,16.02-19.84,18.15-11.02,3.26-18.06-.8-19-12.48,4.94.83,2.93,6.55,7.98,8.28,16.9,5.77,29.34-17.36,34.01-30.29-12.45,13-43.28,22.63-58.9,11.41-1.79-1.29-6.83-5.59-5.59-7.41,1.74.35,4.05,2.97,4.75,3.29,20.91,9.48,48.03-6.18,62.74-20.81l-8.99-1.48c3.51.21,13.3-4.9,15.9-1.92Z"/>
  <path class="st25" d="M522.01,428.01l1.48,1.98c17.29-9.67,44.58-2.58,58.06,10.96,1.64,1.65,6.89,7.43,1.8,6.22-3.56-.85-7.09-3.87-10.81-5.22-12.96-4.68-26.06-7.19-39.74-4.66-3.01.56-14.64,4.72-15.84,4.19-6.4-2.81,3.64-10.97,5.05-13.48Z"/>
  <path class="st30" d="M543.65,545.66c-2.28,3.78-14.01,7.53-18.52,8.73-3.79,1.01-15.57,1.78-17.67,2.83-.98.49.18,2.26-1.45,1.77.39-2.87-3.47-1.84-6.37-3.14-4.41-1.98-7.92-6.07-9.03-10.73-2.75-11.57,7.2-21.03,10.87-31.12,3.92-10.76,1.96-25.18-2.47-35.52-1.19-2.78-3.58-4.59-4.02-7.47,11.94,11.15,15.37,31.3,10.03,46.52-2.65,7.55-9.44,15.19-9.98,23.02-.34,4.84,3.66,10.5,8.33,11.65,5.74,1.41,32.39-5.97,35.56-10.85,1.2-1.84-.79-3.9,1.56-5.33,2.96,2.31,5.39,5.92,3.15,9.64Z"/>
  <path class="st19" d="M552.74,470.36c.15.05.29,1.17,1.02,1.56,1.44.76,2.76.24,4.29,1.8,2.9,2.95,7.28,17.14,6.28,21.1-.27,1.07-3.39,6.04-4.06,6.21-12.88,3.21-26.39-25.22-13.73-30.03,1.04-.39,5.25-.98,6.19-.63Z"/>
  <path class="st10" d="M722,434.99c-3.16.38-5.82-2.5-8.72-2.77-12.23-1.14-19.24,12.13-19.27,22.78,5.73-4.65,13.65-3.56,15.72,3.77,2.58,9.18,2.49,21.55-6.41,27.16-2.03-.68-4.81,3.18-6.32,2.06-.5-.38,6.1-7.51,7.2-10.29,1.57-3.98,2.07-7.83,1.39-12.04-.79-4.92-1.99-10.11-7.76-9.13-3.33.56-3.86,6.65-4.73,9.08-2.02,5.68-1.59-1.34-1.67-1.68-.86-3.36-2.53-6.64-2.46-10.38.23-11.66,9-26.77,21.8-27.34,3.92-.17,10.28,4.64,11.22,8.79Z"/>
  <path class="st17" d="M572.99,889l-23.99-12.99c6.71-.94,16.72,5.36,21.94,9.55,1.18.94,2.42,1.63,2.05,3.44Z"/>
  <path class="st6" d="M247.35,887.66c-1.39-1.62-2.2-5.11-2.62-5.45-.72-.59-2.43,0-2.73-.22-.1-.08.8-1.48.62-2.27-.95-4.18-4.24-7.79-3.23-12.75,1.68-8.24,8.52-3.51,13.4-3.16,16.23,1.14,34.07-1.78,47.19-11.8,1.69,5.53-5.75,6.56-6.79,9.72-.46,1.39.1,6.86-.46,9.53-3.18,15.03-11.57,28.23-29,25.51-4.6-.72-13.38-5.59-16.39-9.1Z"/>
  <path class="st25" d="M213,820c-.43-1.06-.99-1.57-1.32-3.12-2.27-10.85,7.86-28.92,20.23-21.29,9.73,6,16.08,22.19,7.08,31.41-12.15,7.6-19.93-13.03-20.33-22.63-2.63,4.12-3.9,8.95-3.77,13.82l-1.89,1.81Z"/>
  <path class="st25" d="M219.72,757.28c1.16.75,2.96,5.49,2.27,6.72-10.41-1.34-19.36,7.61-25.42,15.07l-7.56,12.93c-1.89-8.57,1.07-18.74,6.96-25.31.8-.89,2.22-.56,2.66-1,1.58-1.54,2.68-4.28,4.83-5.75,2.4-1.64,8.93-3.31,12.04-3.42,1.03-.03,3.45.25,4.22.75Z"/>
  <path class="st7" d="M239,827c-9.24,9.47-21.42,4.28-26-7-.83-8.75,2.72-17.91,9.99-23-3.49,7.48-2.2,13.89,1.49,21.01,2.82,5.43,7.74,11.77,14.52,8.98Z"/>
  <path class="st1" d="M145.37,866.69c.35.58,1.97-.02,1.63.8-.41.97-2.74,2.14-3.44,3.55-3.2,6.47,1.06,21.24,10.44,19.96l-5.5,2.99c-1.05-2.77-3.97-2.8-6.04-4.95-7.89-8.17-.8-16.7-2.76-22.38-2.54-7.33-11.62-2.35-15.23,1.3-2.49,2.51-3.13,6.6-6.45,7.04.2-10.53,12.98-19.93,23.06-14.56,4.03,2.15,2.61,3.44,4.31,6.26Z"/>
  <path class="st16" d="M277,841.99c4-5.38,14.46-9.57,13.78-17.29-.33-3.74-8.32-5.67-11.32-5.23-1.36.2-5.92,4.89-7.46,1.55,6.31-3.02,12.64-6.83,19.34-1.86,11.11,8.22-3.59,24.23-14.35,22.84Z"/>
  <path class="st13" d="M247.01,872c6.04,3.26,16.58-.32,22.05,1.45,2.79.9,13.84,10.48,12.47,13.57s-7.78,5.19-11.06,5.47c-11.98,1-23.47-8.14-23.47-20.49Z"/>
  <g>
    <path class="st25" d="M570.65,476.94c-.55-1-.59-1.76-1.58-3-6.96-8.63-27.36-12.23-29.29,2.18-1.52,11.33,6.99,26.5,19.82,25.37,13.58-4.6,2.53-23.68-4.64-30.07,4.85.57,9.39,2.65,13.09,5.83l2.6-.32Z"/>
    <path class="st7" d="M559.6,501.49c13.18-1.15,16.88-13.87,11.05-24.55-6.25-6.18-15.58-9.23-24.13-6.83,7.99,2.04,12.14,7.09,15.32,14.47,2.42,5.62,4.2,13.44-2.24,16.92Z"/>
  </g>
  <g>
    <path class="st25" d="M500.43,489.8c-.37-.76-.38-1.32-1.07-2.26-4.85-6.59-19.78-9.9-21.68.67-1.49,8.31,4.3,19.77,13.8,19.35,10.16-2.96,2.64-17.39-2.44-22.33,3.56.57,6.84,2.25,9.46,4.72l1.93-.15Z"/>
    <path class="st7" d="M491.48,507.57c9.76-.43,12.9-9.7,8.95-17.76-4.41-4.76-11.19-7.31-17.58-5.81,5.83,1.76,8.73,5.62,10.83,11.16,1.6,4.22,2.66,10.05-2.2,12.41Z"/>
  </g>
</svg>