<?xml version="1.0" encoding="UTF-8"?>
<svg id="Ebene_1" xmlns="http://www.w3.org/2000/svg" version="1.1" viewBox="0 0 1024 1024">
  <!-- Generator: Adobe Illustrator 29.5.1, SVG Export Plug-In . SVG Version: 2.1.0 Build 141)  -->
  <defs>
    <style>
      .st0 {
        fill: #1ba8e5;
      }

      .st1 {
        fill: #eaa995;
      }

      .st2 {
        fill: #96d4f5;
      }

      .st3 {
        fill: #94d4f4;
      }

      .st4 {
        fill: #04a0e2;
      }

      .st5 {
        fill: #ad3333;
      }

      .st6 {
        fill: #56beec;
      }

      .st7 {
        fill: #029fe2;
      }

      .st8 {
        fill: #ac3333;
      }

      .st9 {
        fill: #e6302a;
      }

      .st10 {
        fill: #ce2125;
      }

      .st11 {
        fill: #44b8ea;
      }

      .st12 {
        fill: #60c2ee;
      }

      .st13 {
        fill: #f4b099;
      }
    </style>
  </defs>
  <path class="st8" d="M457.52,740.49l-7.66,15.52h-19.14c-13.41-13.82-14.88-22.26-3.83-38.81,8.01-9.12,34.27,12.42,30.62,23.28h.01Z"/>
  <path class="st9" d="M541.74,371.84c11.89-1.63,22.9,13.13,15.31,23.28,18.26,6.82,35.43,47.16,30.62,65.97,12.21,1.81,24.37,17.06,15.31,27.16,26.18,64.61,54.46,167.97,0,225.07,3.99,12.29-24.95,31.61-34.45,23.28-29.72,15.35-80.65,18.54-111.01,3.88-1.73-.83-28.09-20.88-30.62-23.28-29.43-27.92-48.04-80.53-34.45-120.3,3.97,5.17,6.52,11.63,7.66,19.4,5.7,6.71,8.75,16.8,9.16,30.28,10.71,10.07,15.32,19.38,13.81,27.93,44.67,23.58,89.1,33.89,126.7-7.99,84.91-94.58-77.83-213.57-144.44-94.69l-9.06-2.1c5-26.36,19.53-64.59,30.62-89.25-9.56-9.23,3.62-26.11,15.31-27.16-3.88-19.07,12.65-47.71,30.62-54.33-8.77-7.51-.36-25.17,11.48-23.28,3.78-5.9,29.72-41.41,32.56-42.67,6.43,13.94,17,25.99,24.86,38.79h.01Z"/>
  <path class="st10" d="M396.28,569.75c17.57-15.39,23.38-33.94,45.74-44.84,41.11-20.06,85.77-12.06,115.13,23.42,74.98,90.6-48.93,211.01-134.07,126.2l6.3-6.26c104.52,8.88,37.79-135.63-20.98-54.49l-8.29,2.54-7.62,3.88c.08-7.73-.26-15.55-.04-23.28.31-10.94,1.91-17.03,3.83-27.16h0Z"/>
  <path class="st7" d="M426.9,317.51c23.1,8.93,39.3,41.35,57.42,58.21-3.6,5.62-7.35,16.35-11.48,23.28-3.67,3.79-7.54,6-10.92,2.12l-45.43-49.16-45.4,91.93c22.05,2.4,44.26,2.85,66.62,1.35l4.51,8.09c-4.43,8.84-11.94,19.66-15.31,27.16-27.63-4.08-76.03,12.78-88.04-19.4-1.53-6.96-.26-9.55,3.83-7.76,3.93-.13,5.67-5.9,5.23-17.31l47.1-103.24c7.42-9.03,18.05-14.12,31.89-15.27h-.02Z"/>
  <path class="st4" d="M572.36,360.2l28.17-18.04c23.54-15.17,44.29-15.58,49.32,16.44l16.36,100.38c-.32-3.49,1.78-5.25,5.68-5.65,1.09-3.39,2.37-3.34,3.83,0,1.71,48.15-37.75,47.18-72.73,34.92-2.74-6.76-11.21-18.31-15.31-27.16.27-5.19,1.55-9.48,6.43-8.67l46.38,6.79c-4.02-34.27-11.06-68.18-19.05-101.72-19.6,16.49-39.56,30.24-59.88,41.24l-4.5-3.62c-3.27-5.79-10.76-15.88-15.31-23.28,5.48-4.98,13.56-7.67,19.14-11.64,4.17-1.43,8-1.43,11.48,0h-.01Z"/>
  <path class="st2" d="M637.44,325.27c24.67,12.74,23.64,56.8,26.8,81.49,5.87,15.87,8.42,31.39,7.66,46.57,2.68,33.53-30.39,29.42-53.57,23.24l31.74-4.62c5.81-1.75,9.67-6.99,10.42-13.01.81-6.57-16.89-95.84-20.2-107.44-8.83-30.95-45.39,1.3-67.92,8.7,10.18-18.86,40.72-41.22,65.08-34.92h0Z"/>
  <path class="st3" d="M426.9,317.51l-2.97,4.9c6.13,1,17.64,18.34,14.42,22.26-12.62-4.55-23.51-24.23-37.27-10.59-14.97,14.84-34.33,89-50.13,110.25-1.62,16.97,28.34,9.06,33.82,20.6-15.08-1.02-34.64,6.08-42.09-11.6-5.71-4.66-5.71-12.42,0-23.28,5.5-16.3,11.83-27.94,19.14-42.69,3.64-13.43,10.02-25.07,19.14-34.92,1.84-5.37-1.62.58,3.86-10.38,10.56-21.11,12.01-36.17,42.07-24.54h0Z"/>
  <path class="st5" d="M602.99,713.33c16.31,29.7-16.44,50.63-34.45,23.28,3.68-1.9,33.01-21.77,34.45-23.28Z"/>
  <path class="st0" d="M637.44,325.27c-24.44-2.07-47.28,19.78-65.08,34.92-3.26,1.07-4.99,6.15-11.48,0,21.72-15.44,47.93-49.71,76.56-34.92h0Z"/>
  <path class="st6" d="M675.72,453.33h-3.83c-.98-12.25-5.74-31.56-7.66-46.57,6.11,12.36,11,32.99,11.48,46.57h.01Z"/>
  <path class="st12" d="M380.96,352.44c-4.33,12.6-13.68,23.89-19.14,34.92,1.45-10.44,7.56-35.77,19.14-34.92h0Z"/>
  <path class="st11" d="M342.68,453.33c-.11,1.05-4.2,4.86-3.83,7.76-8.35-22.36-.76-17.43,3.83-31.04-3.68,7.29.55,17.79,0,23.28Z"/>
  <path class="st1" d="M423.07,674.52c-20.14-20.06-27.45-26.2-22.97-58.21,6.19-44.21,77.92-46.73,90.06-.13,11.13,42.73-28.8,70.81-67.09,58.34Z"/>
  <path class="st13" d="M606.78,585.25l-72.69-174.57c6.96-1.46,9.53,3.4,13.16,7.96,30.29,38.06,56.18,117.79,59.53,166.6h0Z"/>
</svg>