<?xml version="1.0" encoding="UTF-8"?>
<svg id="Ebene_1" xmlns="http://www.w3.org/2000/svg" version="1.1" viewBox="0 0 1024 1024">
  <!-- Generator: Adobe Illustrator 29.5.1, SVG Export Plug-In . SVG Version: 2.1.0 Build 141)  -->
  <defs>
    <style>
      .st0 {
        fill: #f6bcbc;
      }

      .st1 {
        fill: #f6bbba;
      }

      .st2 {
        fill: #e41e22;
      }

      .st3 {
        fill: #e41d22;
      }

      .st4 {
        fill: #f6bbbb;
      }

      .st5 {
        fill: #591440;
      }

      .st6 {
        fill: #fce3dc;
      }

      .st7 {
        fill: #fce2db;
      }

      .st8 {
        fill: #e31e21;
      }

      .st9 {
        fill: #d87cb0;
      }

      .st10 {
        fill: #8c1a5e;
      }

      .st11 {
        fill: #bba782;
      }

      .st12 {
        fill: #baa782;
      }

      .st13 {
        fill: #f1db4c;
      }

      .st14 {
        fill: #227346;
      }

      .st15 {
        fill: #65b5d5;
      }

      .st16 {
        fill: #fce3db;
      }

      .st17 {
        fill: #e49657;
      }

      .st18 {
        fill: #eb635a;
      }

      .st19 {
        fill: #2fab66;
      }

      .st20 {
        fill: #aa886f;
      }
    </style>
  </defs>
  <path class="st9" d="M347.46,406.38c71.24-1.85,142.5-1.85,213.73,0l1.4,2.22c-2.12,15.57,6.62,28.79,20.43,34.53,2.09-1.29,4.85-1.38,8.26-.24,3.34-.52,6.04-.13,8.12,1.19.79.27.79.59,0,.95l1.81.9v224.1l-1.81,1.18c-.62,2.62-7.04,3.18-8.19.95-16.5,6.05-21.07,14.7-23.01,31.7-.11.97-.76,1.69-1.55,2.22l-1.43-3.83c-76.53.1-153.08.06-229.59.06,0,2.75-3.03,2.64-3.64,0l-1.88-1.72c-.72-10.65-6.87-20.52-16.3-25.05l-.9-2.45,1.86-7.97c-2.55-73.48,3.25-149.26,0-222.48-.12-2.78-.87-5.23-.96-7.97l1.52-1.98c12.91-1.18,24.32-11.46,26.47-24.83l2.02-1.46c0-2.75,3.03-2.64,3.64,0h0Z"/>
  <path class="st14" d="M654.88,385.65v232.76c-.65,2.71-3.37,2.42-4.54,0-24.74,2.37-36.03,34.12-19.78,53.14l-.24,1.52-7.27,7.54c-.25.8-.55.8-.91,0l-2.74.03c-5.12-4.32-11.47-6.81-18.03-7.43l-1.95-2.02v-226.17c10.76-3.97,19.28-10.74,23.01-22.25,4.22-13.03.83-20.09-5.58-30.88-.46-.77-.5-1.59-.14-2.47l-.57-2.08c1.45-2.39,8.85-10.29,11.48-9.23l2.56-.29c6.55,4.98,14.82,6.45,22.78,6.08l1.94,1.76h-.01Z"/>
  <path class="st19" d="M617.6,349.83l1.7,2.01c-.29,8.6,2.22,17.39,8.17,23.57l.12,2.68-10.91,11.31-1.37.4c-4.2-3.5-8.8-6.55-14.09-7.94-4.47,1.95-12.81,1.92-17.29,0-10,4.37-18.12,11.61-20.68,23.1l-2.06,1.39h-213.73l-1.7-2.09c.25-8.2-2.92-15.59-7.3-22.17l.83-2.12,8.19-7.54,1.76-.6,7.34,5.32c1.7-1.28,4.09-1.1,7.15.47,3.23-.22,5.39.57,6.5,2.35,15.53-1.08,28.48-11.83,29.92-28.33l1.91-1.84h215.56v.03Z"/>
  <path class="st18" d="M659.43,323.45c30.71,11.03,27,55.83-4.54,62.2-9.54.8-19.83-.92-27.29-7.54-7.81-6.94-10.86-17.92-10-28.27,1.83-22.35,22.47-31.46,41.84-26.38h-.01Z"/>
  <path class="st18" d="M599.4,671.17c8.55.36,16.48,3.46,22.74,9.42,15.08,20.99,6.51,50.13-20.01,54.66-5.73.33-9.17-.06-14.56-1.88-27.52-12.8-25.33-52.23,3.64-61.25,3.17-.67,4.57-1.09,8.19-.95h0Z"/>
  <path class="st18" d="M325.64,373.39c8.6,3.89,14.88,9.59,18.12,18.83,1.37,3.93,3.75,11.69.07,14.15-1.52,15.69-15.14,27.84-30.01,28.27-5.04.14-6.39-.3-10.91-1.88-28.06-13.85-24.49-52.95,5.46-61.25,7.88-1.32,9.74-.66,17.29,1.88h0Z"/>
  <path class="st18" d="M654.88,618.41c2.58.03,4,.47,6.37.95,32.04,9.03,30.67,55.11-1.81,62.2-8.44,1.22-10.28,1.19-18.19-1.88-28.41-13.41-22.01-57.61,9.1-61.25,1.27-.22,3.14-.01,4.54,0h-.01Z"/>
  <path class="st18" d="M312.91,673.06c11.61,4.67,18.93,16.55,19.1,29.21,3.39,3.18.84,10.7-.9,14.77-4.36,10.18-14.14,16.55-24.56,18.22-5.73.34-9.17-.06-14.56-1.88-27.69-13.08-25.5-52.05,3.64-61.25,6.21-1.16,11.05-1.56,17.29.95h-.01Z"/>
  <path class="st18" d="M376.56,316.85c9.74,2.7,18.02,9.31,21.61,19.24,1.41,3.91,3.59,10.97.22,13.74,3.31,2.8-.11,10.67-2.04,14.22-5.57,10.31-15.26,14.77-26.16,15.93-6.29,0-7.96-.5-13.64-2.82-27.96-14.9-20.44-52.3,4.54-60.31,6.19-1.26,9.2-1.13,15.46,0h.01Z"/>
  <path class="st8" d="M650.34,618.41c-24.32,4-33.81,36.68-16.86,54.7l7.77,6.57c-4.57-1.78-7.3-3.03-10.91-6.6-19.14-18.94-6.69-54.23,20.01-54.66h-.01Z"/>
  <path class="st4" d="M654.88,385.65c29.47-9.22,32.67-48.72,4.54-62.2,34.27,8.98,28.23,59.43-4.54,62.2Z"/>
  <path class="st0" d="M659.43,681.54c30.13-9.23,31.43-51.29,1.81-62.2,34.11,6.7,33.84,57.06-1.81,62.2Z"/>
  <path class="st2" d="M295.62,672.12l-9.93,6.21c-15.15,12.82-15.39,37.12-.08,49.87l6.37,5.18c-30.61-10.42-27.54-55.37,3.64-61.25h0Z"/>
  <path class="st2" d="M361.11,316.85l.57,1.05c-19.5,6.19-27.33,30.83-15.89,48.28l10.76,11c-2.87-1.18-6.75-2.7-9.1-4.72-19.34-16.67-10.85-50.61,13.64-55.6h.01Z"/>
  <path class="st2" d="M308.35,371.51l-10.31,5.82c-14.34,10.98-16.86,32.37-5.18,46.51l10.03,8.93c-30.5-10.68-26.94-55.8,5.46-61.25h0Z"/>
  <path class="st3" d="M591.21,672.12l-9.93,6.21c-15.15,12.82-15.39,37.12-.08,49.87l6.37,5.18c-12.15-4.13-20.18-13.92-20.91-27.33-.97-17.55,7.88-30.37,24.56-33.92h0Z"/>
  <path class="st4" d="M602.13,735.25c17.3-4.44,27.88-19.44,25.39-38.08-.64-4.77-3.64-8.43-5.3-12.46-.64-1.55-1.32-2.52-.07-4.11.17.16.76-.16.91,0,18.21,19.2,5.89,53.08-20.91,54.66h-.01Z"/>
  <path class="st1" d="M335.64,702.27c.97,17.91-12.09,31.97-29.1,32.98,15.65-4.34,25.69-15.81,25.47-32.98h3.64-.01Z"/>
  <path class="st12" d="M339.28,379.98c.48.42,5.42,9.86,5.94,11.27,1.79,4.82,2.63,9.94,2.24,15.11h-3.64c1.33-13.74-6.73-26.74-18.19-32.98,6.87,2.32,6.47,2.67,11.83,6.97.6.47,1.75-.43,1.81-.37h0Z"/>
  <path class="st4" d="M402.04,349.83c-.04,2.75-3.03,2.64-3.64,0,.76-15.86-7.81-27.47-21.83-32.98,16.19,2.92,25.9,15.87,25.47,32.98h0Z"/>
  <path d="M332.91,497.78c57.41-.16,114.96-.57,172.66-1.25l1.07,1.89v174.88l-1.83,2.57h-171.9v-178.1h0Z"/>
  <path class="st17" d="M504.81,675.89v-178.1h-171.9v-.95l3.81-1.88,166.94.19c12.15-11.53,24.18-23.06,36.14-34.6l2.3-.46v178.55c-.69,3.6-12.83,13.33-15.94,16.49-3.6,3.64-18.21,20.23-21.34,20.76h0Z"/>
  <path class="st13" d="M542.1,460.09c-12.91,11.9-23.96,25.87-37.77,36.73h-171.42c11.93-12.79,23.88-26.17,36.86-37.65l170.12-.06,2.23.99h-.01Z"/>
  <path class="st18" d="M601.23,381.88c31.94,9.08,29.05,55.59-1.81,62.2-5.57,1.51-11,.63-16.37-.95-30.04-12.63-25.18-52.16.91-61.25,5.4-1.12,11.48-1.05,17.29,0h-.01Z"/>
  <path class="st20" d="M616.68,389.4c18.38,18.18,7.56,51.57-17.29,55.6v-.95c5.15-1.39,13.06-7.38,16.34-11.8,13.19-17.76,5.11-42.76-14.53-50.4,5.44.97,11.44,3.57,15.46,7.54h.01Z"/>
  <path class="st2" d="M583.94,381.88l.57,1.05c-22.49,8.4-28.01,39.31-8.77,55.03l7.29,5.18c-16.09-4.73-24.88-19.73-21.83-36.75,2.2-12.29,10.85-22.04,22.74-24.5h0Z"/>
  <path class="st11" d="M402.04,349.83c-.47,18.45-14.56,30.15-31.83,30.15,3.81-1.45,7.78-1.76,11.54-3.6,9.67-4.72,16.14-15.59,16.66-26.55h3.64-.01Z"/>
  <path class="st16" d="M666.71,347.95c-1.97-9.59-13.92-16.36-22.74-17.43,7.55-6.87,22.66.76,24.34,10.58.39,2.25.96,5.89-1.59,6.85Z"/>
  <path class="st6" d="M616.67,697.55c-1.8-1.25-2.11-4.1-3.63-6.11-3.1-4.1-9.79-8.63-14.52-10.39-1.01-.37-7.69-.06-5.48-2.31.6-.6,6.07-1.84,7.47-1.71,9.29.85,19.78,10.27,16.16,20.53h0Z"/>
  <path class="st6" d="M332.91,396.94l-5.46-8c-5.53-4.59-11.88-8.83-19.09-9.42,10.94-7.74,27.3,3.74,24.54,17.42Z"/>
  <path class="st6" d="M670.36,644.79c-.76-8.37-8.64-12.66-15.15-15.89l-7.59-2.95c10.04-5.81,26.57,4.07,24.52,16.43-.18,1.12-.54,2.24-1.77,2.39h0Z"/>
  <path class="st6" d="M321.08,697.55c-1.8-1.25-2.11-4.1-3.63-6.11-3.1-4.1-9.79-8.63-14.52-10.39-1.01-.37-7.69-.06-5.48-2.31.6-.6,6.07-1.84,7.47-1.71,9.29.85,19.78,10.27,16.16,20.53h0Z"/>
  <path class="st7" d="M387.48,342.29c-1.8-1.25-2.11-4.1-3.63-6.11-4.93-6.5-12.58-9.99-20-12.24,10.37-7.17,27.91,5.38,23.63,18.37h0Z"/>
  <rect class="st15" x="351.11" y="516.62" width="135.52" height="140.41"/>
  <path class="st6" d="M611.21,406.36c-5.73-8.83-13.2-15.51-23.63-17.43,9.67-7.61,27.48,5.1,23.63,17.43Z"/>
  <path class="st10" d="M374.75,633.48l-.91-93.3h90.04c.01,8.46-.03,16.98,0,25.45l-1.57,3.53c-27.38,20.85-54.79,41.71-82.22,62.58l-5.35,1.73h0Z"/>
  <path class="st5" d="M463.88,565.63c.07,22.6-.06,45.25,0,67.86h-89.14l89.13-67.86h.01Z"/>
</svg>