<?xml version="1.0" encoding="UTF-8"?>
<svg id="Ebene_1" xmlns="http://www.w3.org/2000/svg" version="1.1" viewBox="0 0 1024 1024">
  <!-- Generator: Adobe Illustrator 29.5.1, SVG Export Plug-In . SVG Version: 2.1.0 Build 141)  -->
  <defs>
    <style>
      .st0 {
        fill: #5988b8;
      }

      .st1 {
        fill: #7d476b;
      }

      .st2 {
        fill: #d99cc5;
      }

      .st3 {
        fill: #7c476b;
      }

      .st4 {
        fill: #abbad8;
      }

      .st5 {
        fill: #dbdbe6;
      }

      .st6 {
        fill: #2c3c90;
      }

      .st7 {
        fill: #bdbed2;
      }

      .st8 {
        fill: #8989c1;
      }

      .st9 {
        fill: #fcfcfd;
      }

      .st10 {
        fill: #fbfbfc;
      }

      .st11 {
        fill: #fefdfe;
      }

      .st12 {
        fill: #fefefe;
      }

      .st13 {
        fill: #d89bc5;
      }

      .st14 {
        fill: #fdfdfd;
      }
    </style>
  </defs>
  <path class="st6" d="M746.47,575.84l-7.88,14.58-105.46,168.58h-228.05c-37.38-60.95-76.76-120.94-113.08-182.45,34.39-53.72,66.34-108.91,101.1-162.42,3.3-5.08,8.56-15.07,12.89-18.47l9.35-2.11,216.61.49c1.63-.08,2.89.51,3.83,1.71l109.54,174.04,1.13,6.05h.01Z"/>
  <polygon class="st1" points="746.47 575.84 633.39 396.17 406.02 395.65 528.03 336.18 684.15 336.48 762.41 467.85 746.47 575.84"/>
  <path class="st12" d="M565.28,585.44l125.79.53-38.65,60.22-91.75-47.96c-2.23-2.51,1.23-11.97,4.62-12.8h-.01Z"/>
  <path class="st12" d="M565.28,563.04l89.37-52.31,38.72,61.37-126.95.52c-3.58-.03-4.21-8.34-1.16-9.6h.01Z"/>
  <path class="st12" d="M599.89,435.1c.69.56-4.73,8.94-5.58,10.32-18.24,29.49-38.1,58.17-56.23,87.73-2.8,4.42-7.5-.83-12.07.04v-98.09h73.87Z"/>
  <path class="st12" d="M549.12,542.78l62.34-99.15,1.75,1.04,34.02,54.38-88.87,52.26c-1.91,2.09-8.31-4.21-9.7-6.08l.47-2.46h0Z"/>
  <path class="st3" d="M452.18,585.44l2.63.63c.81.63,8.63,16.59,5.45,17.5-24.59,14.4-48.95,29.21-74.28,42.51l-38.81-60.11c34.92-.49,70.07-1.16,105.02-.52h0Z"/>
  <path class="st12" d="M464.87,435.1c15.37-.08,30.79.06,46.16,0v97.02c0,.62-12.07,2.91-12.74.59-15.81-25.05-31.54-50.15-47.26-75.22l-.6-3.31c3.61-5.84,7.22-11.68,10.83-17.52l3.63-1.56h-.01Z"/>
  <path class="st1" d="M554.89,650.47c.21.31,1.51.79,2.11,1.74,14.11,22.05,27.32,44.63,41.74,66.5h-79.63c-.34-22.47,1.26-44.77,2.3-67.17.07-.84.31-2.08.97-2.16,2.98-.42,28.53-1.43,29.94-.95l2.55,2.05h0Z"/>
  <path class="st3" d="M429.09,535.32c7.59,9.16,14.96,24.11,18.9,35.32l-1.59,1.99c-33.83.17-67.72-.11-101.56,0l39.34-63.9c15.51,7.59,30.18,17.53,44.91,26.6h-.01Z"/>
  <path class="st3" d="M474.11,632.35c-.44.7-.51,2.23-1.32,3.52-15.46,24.62-31.5,49.02-47.72,73.22l-31.6-49.77c-.18-1.88,6.03-4.86,8.03-6.1,20.72-12.9,44.18-26.03,65.68-37.94l2.61.38c2.33,3.44,5.8,12.86,4.3,16.69h.01Z"/>
  <path class="st1" d="M482.18,647.27c2.2-.27,2.79.66,2.91,2.41l20.18-.42,1.14,2.27c-.53,18.05.06,37.02-1.1,54.96-.26,4.01-1.98,7.97-1.2,12.22h-66.95c-.12-2.12,1.51-3.85,2.55-5.64,12.68-21.95,28.5-44.35,42.46-65.79h0Z"/>
  <path class="st3" d="M628.75,649.4c4.32,2.26,11.04,4.1,14.75,7.12.6.49,1.95.27,1.44,1.87l-32.36,53.92c-2.69.53-1.85-.32-2.57-1.38-13.08-18.85-25.64-40.85-37.81-60.47.09-.84.37-2.11,1.01-2.15,11.83-.94,36.69-2.12,47.73-.9l7.79,1.98h.01Z"/>
  <path class="st12" d="M418.71,512.93c-.78-.39-1.89-1.19-1.64-1.67,5.46-10.46,13.21-23.23,19.81-33.12,1.44-3.94,3.46-5.85,6.06-5.73,12.21,19.34,25.32,38.36,37.13,57.92,1.13,1.88,6.74,10.25,6.18,11.4-.23.48-7.53,7.26-8.1,7.26-19.67-12.21-39.66-24.03-59.44-36.07h0Z"/>
  <path class="st2" d="M515.64,545.98c4.05-2.29,5.97-2.29,5.77,0,3.32,1.18,5.89,2.12,3.46,5.33l.47,3.54c-9.17,15.45-8.28,34.01,2.96,48.35l.03,3.56c-49.02,15.3-64.7-58.86-12.7-60.77h0Z"/>
  <path class="st1" d="M442.95,472.42l-24.23,40.52c-3.48-2.12-26.11-14.99-26.26-16.5,10.13-17.84,22.69-34.67,32.04-52.8,7.82,8.55,12.42,19.23,18.45,28.78Z"/>
  <path class="st12" d="M628.75,649.4l-56.55,1.07c-7.71-12.42-15.4-24.88-23.09-37.32-4.61-1.25.03-6.89,3.46-4.27,25.2,13.75,50.73,27.14,76.18,40.52h0Z"/>
  <path class="st2" d="M372.54,500.16l-43.78,70.94c-3.35,3.16-12.62.88-17.38,1.53l48.5-78.89,12.67,6.41h0Z"/>
  <path class="st2" d="M607.98,732.57c.9,4.83,5.94,8.39,6.93,12.8h-96.95v-12.8h90.02Z"/>
  <path class="st2" d="M725.7,583.32l-46.13,74.12c-1.64,3.4-12.7-3.47-12.74-5.32l41.49-67.27c3.35-3.16,12.62-.88,17.38-1.53h0Z"/>
  <path class="st7" d="M524.88,551.32l3.24.42c5.78,6.06,10.88,12.56,15.28,19.49.66-3.45,2.19-5.47,4.56-6.05,6.25.58,5.99,11.49,5.17,16.35-.91,5.35-3.43,10.55-6.77,14.99-3.14,4.17-11.61,13.29-16.86,10.25-.32.11-.81-.11-1.16,0-14.27-16.46-15.26-37.51-3.46-55.44h0Z"/>
  <path class="st13" d="M422.16,408.45h88.29c2.17,0,3.2,12.69-.16,13.71l-74.93.21c-7.12.24-9.29-9.54-13.21-13.92h.01Z"/>
  <path class="st2" d="M314.84,585.44c4.56.62,12.96-1.56,16.22,1.53l41.38,67.13c-.28,1.05-8.03,5.25-9.7,6.01-1.06.48-.95,1.87-2.26-.07l-45.63-74.59h0Z"/>
  <path class="st0" d="M549.12,542.78c1.69,1.26,8.41,7.31,9.23,8.53,1.39,2.06,3.04,8.58,4.58,11.03.65,1.01,2.29.6,2.35.7.26.44,1.13,8.93,1.16,9.6.04,1.67-.82,10.33-1.16,12.8-.35,2.67-3.23,10.37-4.62,12.8-1.57,2.75-5.83,7.68-8.07,10.67-.81,1.08-3.68,1.24-3.46,4.27-3.39-2.11-5.43,3.26-8.15,2.75-2.98-.55-9.66-6.51-11.48-9.14,15.73-5.74,27.86-26.96,18.46-41.58-2.17-.59-2.17-1.53,0-2.13-2.64-7.42-6.87-13.66-12.68-18.72v-2.61c-1.01-.36-1.01-.72-.01-1.07,5.84-3.76,8.97-1.5,13.86,2.13v-.03Z"/>
  <path class="st2" d="M679.52,495.87l45.02,74.62c-4.56-.62-12.96,1.56-16.22-1.53l-41.46-66.17,12.67-6.92h0Z"/>
  <path class="st13" d="M616.05,408.45c-2.7,2.37-11.48,13.87-14.43,13.87h-75.59v-13.87h90.02Z"/>
  <path class="st2" d="M658.9,490.41l-38.91-62.78c-1.29-4.67,6.16-7.44,8.18-11.7l42.83,67.1c.56,1.84-10.14,8.45-12.11,7.4h.01Z"/>
  <path class="st2" d="M659.34,664.35c2.25,3.13,11.73,3.97,10.51,8.52l-41.67,66.07c-2.05-3.45-8.29-10.46-7.29-14.09l38.46-60.5h0Z"/>
  <path class="st2" d="M410.61,415.91c1.06,4.63,7.98,8.95,6.49,13.88l-35.89,57.57c-1.85,3.41-13.17-5.14-13.17-5.87l42.57-65.58h0Z"/>
  <path class="st2" d="M504.11,732.57l-1.16,12.8h-83.09c1.26-4.29,5.46-8.21,6.93-12.8h77.32Z"/>
  <path class="st2" d="M409.45,735.76l-2.39-.67-37.52-60.07c-2.85-3.42,9.39-8.91,11.07-8.11l35.24,55.97-6.4,12.87h0Z"/>
  <path class="st12" d="M554.89,650.47l-33.47,1.07c.46-9.92.57-19.9,1.2-29.81,4.76.6,11.51-4.53,14.82-.46,6.15,9.5,11.35,19.7,17.44,29.21h0Z"/>
  <path class="st11" d="M429.09,535.32c5.17,3.17,41.14,23,41.63,25.25.63,2.93-3.02,8.5-2.44,12.01-7.28.13-14.6.01-21.88.06l-17.31-37.32h0Z"/>
  <path class="st14" d="M506.41,651.54c-6.22-.94-16.76,1.28-22.31.04-1.45-.32-1.45-3.14-1.92-4.31,4.39-6.75,11.83-21.6,16.75-26.69,1.29-1.33,6.22-.31,7.5.56,1.92,1.32,1.23,22.71,1.13,26.72-.04,1.57-1.14,3.09-1.16,3.68h.01Z"/>
  <path class="st3" d="M464.87,435.1l-13.86,22.39c-4.64-7.4-10.02-14.55-13.84-22.39,9.22-.04,18.48.04,27.7,0Z"/>
  <path class="st9" d="M474.11,632.35l-6.93-17.07c2.13-1.18,12.46-7.23,13.47-7.31,1.51-.14,5.74,3.72,5.96,4.8.53,2.57-10.48,16.35-12.51,19.58Z"/>
  <path class="st10" d="M452.18,585.44c4.17.07,15.16-1.28,17.13,1.77.43.66,3.9,9.45,3.58,9.87-.41.55-10.6,5.29-12.64,6.48l-8.07-18.12h0Z"/>
  <path class="st8" d="M535.27,540.65c-.19.11.18.94,0,1.07,1.06,3.66-3.27,6.2-6.93,5.33-1.26,2.55-3.57,2.19-6.93-1.07-1.78-.15-3.95-.07-5.77,0,8-1.43-2.28-6.67-2.29-8-.01-3.92,18.99-.8,21.9,2.67h.01Z"/>
  <path class="st5" d="M528.34,547.05c8.67-2.3,17.48,8.65,19.62,16,0,.69.09,1.46,0,2.13-.23,1.66-2.19,6.78-3.17,8.24-.75,1.11.04,1.85-2.58,1.35-3.51-9.09-11.32-15.93-17.33-23.45-1.17-1.47-1.98-3.85-3.46-5.33,1.92.17,5.2.56,6.93,1.07h0Z"/>
  <path class="st4" d="M547.96,563.04c-4.8-6.29-11.38-13.57-19.62-16,2.5-1.59,4.52-3.61,6.93-5.33,7.4,4.38,12.61,13.28,12.7,21.32h0Z"/>
</svg>