<?xml version="1.0" encoding="UTF-8"?>
<svg id="Ebene_1" xmlns="http://www.w3.org/2000/svg" version="1.1" viewBox="0 0 1024 1024">
  <!-- Generator: Adobe Illustrator 29.5.1, SVG Export Plug-In . SVG Version: 2.1.0 Build 141)  -->
  <defs>
    <style>
      .st0 {
        fill: #ea5367;
      }

      .st1 {
        fill: #3f6db2;
      }

      .st2 {
        fill: #b24348;
      }

      .st3 {
        fill: #9daad7;
      }

      .st4 {
        fill: #f4aaaa;
      }

      .st5 {
        fill: #fefefe;
      }
    </style>
  </defs>
  <path class="st1" d="M498.92,404.37l.68-1.01c3.75.67,7.59,1.56,11.54,2.68l18.99-5.52c1.33-.5,1.98.03,2.58,1.31,16.11-1.59,34.26,2.11,48.39,9.31l2.1-.84c9.01,5.06,17.56,10.95,25.52,17.35l-.22,2.11c31.61,27.33,41.52,59.41,44.74,98.16l-.49,5.23c1.88,2.23,2.35,9.71-.42,11.71,2.41.22,3.08,12.43,2.71,13.03l-1.8,1.36,1.21,2c-.13,15.12-.06,30.28.21,45.51l-1.42,4.11c.05,4.67.31,9.63.75,14.87-.71.33-1.26.67-1.28,1.04-.2,2.96-.09,6.61.53,9.47.79.28.79.57,0,.84-1.77,27.23-.6,55.04-.89,82.53-2.27,11.23-16.2,16.07-25.9,8.73-6.68-5.05-4.12-10.38-6.71-16.63-5.78-13.91-27.55-11.55-30.19,2.99-1.11,6.11,1.63,8.58-4.76,13.35-9.96,7.44-24.95,3.15-27.19-8.68-.96-5.03.95-7.46-3.38-12.1-6.67-7.15-20.06-6.08-25.55,1.76-2.89,4.12-1.95,8.97-3.72,13.47-4.22,10.76-19.89,12.31-27.39,3.43-4.93-5.85-1.43-11.12-6.06-17.23-8.23-10.84-26.56-7.02-28.82,6-.95,5.41.78,8.34-4.35,12.89-5.95,5.27-16.23,5.71-22.27.35-6.66-5.91-3.1-13.37-7.91-19.74-7.41-9.81-25.68-6.53-28.29,4.97-1.37,6.03.65,10.15-5.57,15.15-9.03,7.26-24.47,2.72-25.87-8.75-2.92-23.73,1.1-53.99.04-78.76-.07-1.63-.9-2.98-.96-3.74.71-3.4.78-7.11.68-10.62,0-.22-.5-.42-1.15-.62-.28-4.59.04-8.32,1.38-12.47-1.18.68-1.58.28-.91-.84l-1.2-1.47c.18-16.93.17-33.94-.01-51.03l1.21-2.5c-2.92-2.82-1.92-11.52.91-14.38l-1.82-3.89c.39-5.16,1-10.36,1.82-15.57,1.4-37.08,16.01-69.65,45.65-94.78l.78-2.91c7.5-6.06,15.63-11.48,24.3-16.01l3.23.31c19.16-9.3,35.59-10.63,56.61-5.92h-.05Z"/>
  <path class="st0" d="M532.71,401.83c-6.29.63-17.09,5.64-21.52,5.9-2.52.15-9.05-2.64-12.27-3.36-1.51-12.24-.57-24.54-.87-36.85-.65-25.57-1.98-51.4-2.76-76.98-.1-3.3-.42-7.88-.03-11.01,1.51-11.93,31.02-13.2,34.66-.78.32,41.12,2.59,82.03,2.8,123.07h0Z"/>
  <path class="st0" d="M442.32,410.29c-9.68,4.7-20.24,11.79-28.3,18.62l-58.68-87.41c-3.73-10.86,18.55-24.14,28.98-17.49l58.01,86.28h-.01Z"/>
  <path class="st0" d="M608.48,429.76c-6.33-5.47-19.84-14.77-27.39-18.62l52.04-87.58c9.7-7.75,32.84,4.46,29.71,15.67l-54.36,90.53h0Z"/>
  <path class="st0" d="M653.21,637.07c.02-.28-.02-.57,0-.84-.65-3.21-.9-7.09,0-10.15,1.34-2.77,12.55-2.64,14.15,0l.46-1.8c10.53-2.45,19.38-7.63,23.52-17.38-4.77,6.94-12.17,11.28-21,12.2-7.58.78-21.03.92-17.13-8.25l2.24-.94c50.59,11.08,49.89-61.12.04-49.69l-2.28-.99c0-3.94-.86-9.66-.91-14.38,2.94-4.69,12.85-5.13,18.62-5.17,8.26-.05,16.45,1.72,23.93,4.93-10.04-5.65-21.16-9.09-33.35-10.37l-1.91-2.09c27.11-2.94,54.45,15.38,60.71,39.78,9.94,38.73-25.28,72.11-67.1,65.15h.01Z"/>
  <path class="st0" d="M364.71,532.14l-1.23,2.15c-12.3,1.57-23.56,5.06-33.79,10.47,6.65-2.94,13.86-4.57,21.2-4.94,5.38-.27,14.21-.66,17.48,3.31-.05,4.72-.89,10.06-.91,14.38l-2.15,1.35c-14.91-2.33-28.93,6-33.05,19.45l-2.23,1.21c-.32,3.66-.94,7.05-1.83,10.15,1.66,19.67,15.76,36.41,38.52,34.9.63.17,1.18.39,1.43.78.7,1.08-.39,9.66-.69,11.71-.74.6-2.16.76-3.15.85-23.2,2.08-47.53-11.64-56.63-31.33-17.33-37.47,13.63-77.12,57.04-74.45h-.01Z"/>
  <path class="st4" d="M653.21,527.92c.16,1.94-.12,3.97,0,5.92,2.43.3,4.09-1.44,6.38-1.69,14.08,2.73,27.16,4.03,38.78,12.71,1.13.84,8.76,7.46,7.77,8.44-14.6-11.52-36.05-15.46-53.86-8.47-.06-5.39-.72-11.85.91-16.92h.01Z"/>
  <path class="st4" d="M368.36,543.15c-17.3-4.23-37.15-.6-50.21,11,2.46-5.84,8.89-10.14,14.58-13.14,11.9-6.24,20.59-5.25,31.97-8.87.61-.2,2.36.3,2.68-.03.85-.89-1.17-7.23.98-8.42-.25,6.51.07,12.96,0,19.46h0Z"/>
  <path class="st5" d="M653.21,610.84c-2.06-17.26,0-34.43,0-51.62,26.24-10.3,51.43,15.03,38.7,38.83-6.77,12.65-24.83,18.98-38.7,12.79Z"/>
  <path class="st5" d="M367.45,557.53c-.06,16.54,1.58,33.6.96,50.39-.06,1.6.09,3.2-.96,4.61-.15.69-.48,1.42-1.17,1.59-21.93,5.49-41.73-14.76-36.25-34.59,4.05-15.95,20.02-25.51,37.44-22h-.01Z"/>
  <path class="st3" d="M624.92,502.53c-9.5-37.79-39.55-70.59-77.61-86.32-2.27-2.81,13.56-.82,14.83-.62,39.23,6.35,70.09,44.52,65.41,81.34-.22,1.68-.71,4.97-2.62,5.6h0Z"/>
  <path class="st2" d="M653.21,610.84c.2,1.66-.23,3.38.04,5.04,21.55,5.41,36.15-1.83,41.95-21.59.4-1.37-.98-2.5,1.83-2.07-.92,11.53-6.1,23.96-17.61,29.79-1.7.86-10.74,4.05-12.05,4.05h-14.15c-.18,3.35.26,6.81,0,10.15-1.51-.88-.91-3.21-.92-4.64-.08-5.8-.54-13.03,0-18.64.09-.89-.45-2.07.92-2.1h0Z"/>
  <path class="st2" d="M328.19,589.69l1.08.63c3.75,16.14,17.71,29.16,36.45,25.07-.11-1.91.54-2.73,2.64-2,.72,3.55.49,17.65.05,21.66-.12,1.15.01,1.23-.97,2.03-.25-3.63.17-7.36,0-11.01-24.11,1.85-40-14.62-39.26-36.38h.01Z"/>
  <path class="st0" d="M367.45,612.53c.69.12.78.2.91.84-1.47.6-.21,2.86-1.51,3.43-1.74.75-7.76.93-9.94.84-16.82-.58-25.87-14.02-28.72-27.96.09-2.8,1.16-7.53,1.83-10.15-3.19,17.18,10.86,33.53,29.72,33.87,2.54.04,5.2-1.34,7.72-.87h-.01Z"/>
</svg>