<?xml version="1.0" encoding="UTF-8"?>
<svg id="Ebene_1" xmlns="http://www.w3.org/2000/svg" version="1.1" viewBox="0 0 1024 1024">
  <!-- Generator: Adobe Illustrator 29.5.1, SVG Export Plug-In . SVG Version: 2.1.0 Build 141)  -->
  <defs>
    <style>
      .st0 {
        fill: #cea325;
      }

      .st1 {
        fill: #805aa2;
      }

      .st2 {
        fill: #cda325;
      }

      .st3 {
        fill: #c7b3d7;
      }

      .st4 {
        fill: #eb565a;
      }

      .st5 {
        fill: #d9c8e3;
      }

      .st6 {
        fill: #cda225;
      }

      .st7 {
        fill: #cca125;
      }

      .st8 {
        fill: #e25038;
      }

      .st9 {
        fill: #8059a1;
      }

      .st10 {
        fill: #805aa1;
      }

      .st11 {
        fill: #d9c7e2;
      }

      .st12 {
        fill: #d9c8e2;
      }

      .st13 {
        fill: #fdd316;
      }

      .st14 {
        fill: #c7b4d7;
      }

      .st15 {
        fill: #9c78b3;
      }
    </style>
  </defs>
  <path class="st4" d="M404.26,377.92l-.16-2.43c5.34-3.27,9.83-8.08,12.52-13.84l2.37-.09c8.79,5.96,18.18,9.98,28.25,12.04,4.88,1,42.32,4.69,43.74,3.16s-1.73-7.96-2.79-9.95c-8.25-15.39-24.33-26.55-35.13-40.3-3.23-4.11-7.83-10.11-9.18-14.96l.35-1.48c6.09-1.16,11.5-4.26,16.32-7.8l2.38.92c7.6,12.99,19.29,22.48,28.67,34.05,6.33-18.68,16.81-36.74,14.33-58.02,6.46-.71,12.87-1.74,18.28-5.17l2.49,1.09c3.9,11.79,1.7,24.05-.29,35.33,11.36-12.12,28.94-12.63,41.94-21.91-.22-2.64,1.8-2.15,6.01,1.49,1.89-.84,4.33-.24,7.33,1.81,4.21.62,6.92,2.06,8.15,4.34l1.5.37c-7.8,19.12-31.25,17.3-44.51,29.36-7.98,7.25-9.23,19.06-13.33,28.65.56.82.5,1.71,1.77,1.5,4.78-.79,10.17-4.01,16.17-4.92,11.74-1.78,25.42,1.09,37.12-1.4l2.6,1.12c2.91,7.45,8.8,13.43,15.35,17.89l-2.86.9c-24.67,3.32-51.32.28-72.63,13.54l17.72,1.09c15.57,5.85,30.14,17.61,46.88,14.95l1.27.87c-.27,6.5.45,13.03,2.17,19.59l-1.19,2.41c-10.96.24-28.26.25-38.48-5.59-7.16-4.1-14.22-13.21-23.11-9.72,5.27,13.53.76,26.72,2.07,40.17,2.34,24.1,9.9,30.05,1.95,55.14-6.33,19.97-17.23,40.37-14.49,62.99l-1.42,2.02c-6.73-.46-13.46-.25-20.05.34l-1.89-2c-1.66-19.97,3.68-42.11,9.89-60.29,4.24-12.41,10.58-18.1,8.2-32.6-1.69-10.26-5.82-21.21-6.8-31.71-1.1-11.91,2.67-24.1-2.72-36.1-35.07-12.3-75.72,3.26-106.72-26.88v.03Z"/>
  <path class="st15" d="M390.07,318.2c4.85,1.23,9.68,2.82,13.96,5.77,24.61,20.79,12.76,58.81-18.43,53.94-5.19-1.27-6.82-1.66-11.81-4.47-28.77-19.63-16.51-59.88,16.28-55.23h0Z"/>
  <path class="st15" d="M592.12,235.19c4.52,1.24,10.72,3.82,14.62,6.71,21.97,21.67,11.69,53.57-16.92,54.3-4.77-.73-11.5-2.74-15.46-6.14-5.04-2.27-7.89-6.63-10.62-11.44-13.13-22.99,3.42-48.07,28.4-43.43h-.01Z"/>
  <path class="st15" d="M620.97,312.41c4.96,1.16,11.22,3.06,15.46,6.14,22.11,21.62,13.61,53.04-15.42,54.67-4.25-.5-8.83-1.49-12.67-3.92-31.7-16.27-21.6-60.84,12.63-56.92h0Z"/>
  <path class="st15" d="M508.21,218.21c3.43.9,8.73,2.64,11.81,4.47,25.08,20.18,16.49,58.01-14.78,55.61-4.22.12-9.78-2.14-13.32-4.85-30.09-18.44-16.48-60.74,16.28-55.23h.01Z"/>
  <path class="st15" d="M628.99,382.92c3.88.17,11.46,2.94,14.82,5.22,23.8,20.41,14.21,54.75-14.78,55.61-5.33-.71-9.94-2.52-14.82-5.22-28.14-17.96-17.56-60.8,14.78-55.61Z"/>
  <path class="st15" d="M439.29,249.6c3.6.86,10.16,2.9,13.32,4.85,25.42,20.98,15.32,58.18-16.28,55.23-4.97-1.2-7-.88-11.81-4.47-29.6-17.79-18.16-60.15,14.78-55.61h-.01Z"/>
  <path class="st4" d="M524.53,774.21c-.03-.53,0-1.03.15-1.46.34-.92,18.06-1.03,19.82-.79l1.91,1.53c.93-.22,1.13.09.65.94.37,13.62-7.56,22.06-11.81,33.63-1.05,2.86-.64,7.34-2,9.51-5.19,8.23-17.09,7.05-21.4-2.99-4.11-9.58,12.29-29.85,12.69-40.34h-.01Z"/>
  <path class="st13" d="M499.74,745.73l.29-2.43c20.05-7.46,44-8.91,65.95-.76l2.17,3.23c.6,5.68,1.66,10.81,1.57,16.56l-2.57.78c-19.36-8.81-44.68-7.86-62.15.78l-3.04-.67c-1.59-5.3-1.46-12.02-2.22-17.48h.01Z"/>
  <path class="st13" d="M486.41,635.42l.76-3.11c10.17-7.04,54.16-9.94,65.12-1.24l1.87,3.45c.53,4.25.82,8.48,1.33,12.64l-3.51.79c-20.08-7.53-41.54-6.43-60.41-.3l-3.64-1.09c-.44-3.68-1.1-7.42-1.55-11.17l.03.03Z"/>
  <path class="st13" d="M483.98,619.41c2.91-9.73,21.83-10.85,31.45-11,11.71-.18,24.04.29,35.31,5.76l1.21,2.87c.48,3.7,1.08,7.44,1.55,11.17l-3.15,1.21c-20.59-5.96-42.95-6.96-61.31,1.83l-3.51-.67c-.44-3.7-1.1-7.48-1.55-11.17h0Z"/>
  <path class="st7" d="M501.96,763.21c9.41-6.95,23.77-8.16,35.73-8.15,10,0,23.26,1.15,32.02,7.26,0,.41,1.23,1.49.76,2.85-2.38,6.91-17.19,7.28-23.44,9.23l-.65-.94c.05-10.22-19.59-10.82-20.27-1.09l-2.25.88c-7.93-.33-19.15-.86-21.92-10.06h.01Z"/>
  <path class="st13" d="M497.97,730.66l.61-2.72c9.6-9.03,55.4-10.36,65.5-1.58l1.63,3.41c.44,3.69,1.13,7.41,1.55,11.17l-2.12.75c-19.49-8.81-44.43-6.43-63.04.21l-3.24-1.02c-.46-3.35-.46-6.9-.9-10.23h0Z"/>
  <path class="st13" d="M502.41,565.49c6.28-.74,17.04-1.07,23.37-.36,4.71.53,16.22,3.03,19.76,6.34,3.12,2.91,1.48,7.4,1.96,10.6l-2.9.91c-19.95-7.12-43.59-6.49-61.84.86l-3.02-.88c-.35-4.19-2.74-8.62,1.17-11.69,4.11-3.24,15.87-5.1,21.48-5.77h.01Z"/>
  <path class="st13" d="M493.76,699.59l1.17-3.19c12.74-6.22,27.6-8.03,42.35-6.59,7.63.74,20.35,2.07,25.09,8.35.41,3.36.5,6.87.9,10.23l-2.62,1c-19.89-7.22-42.8-5.76-61.43.7l-3.72-.82c-.38-2.99-1.36-6.55-1.76-9.68h.01Z"/>
  <path class="st13" d="M482.42,602.85l1.29-3.61c7.27-8.21,55.16-8.83,64.74-.73l1.72,3.45c.38,2.91.74,5.84,1.1,8.74l-3.27,1.19c-20.57-5.8-42.57-6.17-61.1,1.94l-3.6-.76c-.41-3.43-.52-6.86-.9-10.23h.01Z"/>
  <path class="st13" d="M490.41,667.97l1.28-3.15c10.94-6.75,53.11-9.19,64.9-.29l2.22,3.49c.42,3.36.49,6.88.9,10.23l-2.59.83c-19.71-8.38-43.61-6.13-62.32,0l-3.51-.88c-.42-3.43-.49-6.86-.9-10.23h.01Z"/>
  <path class="st13" d="M488.63,652.9c.16-1.75.48-2.53,1.58-3.59,7.64-7.25,54.63-8.28,64.02.24l1.95,3.96c.35,2.87,1.32,6.14,1.76,9.68l-2.42.71c-19.27-9.2-44.91-7.19-62.93.08l-3.05-.84c-.41-3.41-.49-6.86-.9-10.23h0Z"/>
  <path class="st13" d="M496.19,715.59l.69-2.99c16.77-8.07,37.21-9.08,56.42-5.43,3.38.65,9.67,2.65,10.84,6.06.41,3.41.5,6.86.9,10.23l-3.41.9c-20.34-7.16-41.94-5.63-60.75,1l-3.6-1.02c-.37-2.91-.74-5.84-1.1-8.74h0Z"/>
  <path class="st13" d="M491.98,684.53c2.36-6.37,13.93-8.21,20.77-9.27,7.59-1.17,15.45-1.24,23.28-.42s19.97,2.11,24.56,8.24c.41,3.36.5,6.88.9,10.23l-2.41.87c-19.71-8.7-43.71-6.25-62.44-.03l-3.56-.9c-.37-2.9-.75-5.84-1.1-8.74h0Z"/>
  <path class="st13" d="M480.43,589.27l1.23-3.64c6.97-8.24,54.77-9.23,64.45-1.13l2.07,3.89c.33,2.25.95,4.52,1.32,7.25l-3.24.99c-20.4-6.97-42.28-6.26-61.04.86l-3.47-.98c-.22-2.08-1.06-4.89-1.32-7.25h0Z"/>
  <path class="st2" d="M481.73,596.54c19.31-8.62,46.71-9.44,67.75-.88.3,2.28.41,4.32.67,6.33-9.56-6.57-24.34-7.36-35.16-7.07-11.07.29-24,1.33-32.59,7.95-.25-2.14-.45-4.21-.67-6.33h0Z"/>
  <path class="st0" d="M498.87,740.89c15.28-7.3,38.74-8.58,56.27-4.9,4.06.84,9.13,1.61,12.14,4.96.15,1.37.68,3.03.87,4.84-16.63-7.87-34.84-6.99-51.75-5.17l-16.66,5.13c-.23-1.61-.65-3.23-.87-4.84h0Z"/>
  <path class="st6" d="M497.29,724.33c19.79-7.99,46.43-9.85,67.75-.88.25,2.04.45,4.42.67,6.33-9.22-6.41-23.89-7.3-34.38-7.08-11.16.24-24.71,1.38-33.37,7.96-.29-2.15-.41-4.26-.67-6.33h0Z"/>
  <path class="st6" d="M479.75,582.96c8.54-5.29,20.58-6.42,30.88-6.84,11.58-.46,25.98.32,36.87,5.96.37,2.43.42,4.64.67,6.33-8.36-6.79-22.2-7.22-32.02-7.26-12.07-.05-26.44.73-35.73,8.15-.23-2.15-.49-4.17-.67-6.33Z"/>
  <path class="st6" d="M493.09,693.27c10.5-4.97,23.52-6.59,35.52-6.66,9.83-.05,24.38.65,32.88,6.71.16,1.4.67,3.07.87,4.84-21.36-8.97-49.91-9.18-68.61,1.44-.26-2.1-.41-4.21-.67-6.33h0Z"/>
  <path class="st6" d="M483.31,613.09c19.19-9.93,46.05-9.48,67.97-2.37.27,2.15.41,4.26.67,6.33-11.6-6.54-29.04-7.19-41.5-6.14-9,.75-20.2,2.21-26.45,8.52-.26-2.11-.42-4.22-.67-6.33h-.01Z"/>
  <path class="st6" d="M491.31,678.2c9.88-4.8,21.92-6.22,33.17-6.46s25.59.11,35.24,6.51c.19,1.61.68,3.23.87,4.84-21.3-8.77-50.03-9.35-68.61,1.44-.26-2.12-.41-4.23-.67-6.33h0Z"/>
  <path class="st6" d="M495.52,709.26c10.79-5.12,23.28-6.59,35.52-6.66,10.04-.05,22.91.73,32.23,5.79.16,1.4.67,3.06.87,4.84-3.39-.63-6.7-2.93-9.98-3.69-17.45-4.09-43.71-2.62-57.98,6.06-.27-2.16-.41-4.22-.67-6.33h.01Z"/>
  <path class="st6" d="M487.96,646.57c20.01-7.44,46.23-8.83,67.55.61.26,2.07.44,4.43.67,6.33-7.31-6.38-18.46-7.16-27.31-7.65-13.1-.73-29.79-.05-40.24,7.04-.25-2.06-.44-4.42-.67-6.33h0Z"/>
  <path class="st6" d="M489.53,663.13c9.81-6.14,24.35-7.28,36.38-7.22,9.51.04,24.04.62,32.02,7.26.2,1.61.68,3.23.87,4.84-9.85-6.25-23.44-7.22-34.38-7.08-11.63.15-24.05,1.69-34.02,7.03-.16-1.4-.67-3.07-.87-4.84h0Z"/>
  <path class="st6" d="M485.53,630.58c18.85-10.78,46.17-9.52,67.97-2.37.27,2.15.41,4.25.67,6.33-9.94-6.54-24.97-6.9-36.01-6.51-10.86.38-22.84,1.56-31.74,7.4-.16-1.4-.67-3.07-.87-4.84h-.01Z"/>
  <path class="st10" d="M452.61,254.44c16.88,10.42,23.43,36.1,10.28,48.74-4.06,3.9-13.09,8.21-19.04,8.36-2.68.07-5.18-1.31-7.52-1.86,21.66-.32,36.84-22.58,24.35-43.6-2.56-4.31-6.85-7.28-8.08-11.63h0Z"/>
  <path class="st12" d="M588.54,349.78c-8.49-22.45,9.66-42.72,32.43-37.36-2.72,1.44-6.32.47-9.11,1.21-25.53,6.8-27.79,40.33-3.51,55.69-1.46.62-3.34.18-4.71.37,3.17-1.73.74-1.33-.8-2.6-6.5-5.33-11.22-9.19-14.29-17.32h0Z"/>
  <path class="st5" d="M390.07,318.2c-30.97,0-41.43,33.18-16.28,55.23-33.18-18.76-19.07-64.21,16.28-55.23Z"/>
  <path class="st5" d="M592.12,235.19c-30.2-1.17-42.82,33.37-17.78,54.86-2.26-2.1-5.71-1.33-6.01-1.49-.18-.09-.38-2.43-1.4-3.64-21.89-26.24-5.72-58.22,25.19-49.73Z"/>
  <path class="st1" d="M643.81,388.14c28.22,19.1,17.16,59.83-14.78,55.61l8.58-3.01c16.49-6.14,23.1-27.54,12.33-43.84-2.06-3.1-6.31-5.1-6.13-8.77Z"/>
  <path class="st11" d="M597.85,422.14c-2.7-5-3.91-18.06-2.25-22.87,3.72-10.76,21.18-22.02,33.38-16.35-30.65-1.4-39.01,35.72-14.78,55.61-7.55-4.18-12.14-8.54-16.37-16.37h.01Z"/>
  <path class="st10" d="M520.02,222.68c19.59,11.64,23.99,40.36,6.66,52.46-5.33,3.72-13.98,5.1-20.79,4.07l-.65-.94c19.49-.55,32.54-19.13,25.72-38.64l-10.95-16.95h.01Z"/>
  <path class="st10" d="M404.03,323.97c12.61,8.7,18.97,23.72,14.96,37.59-1.66,5.72-9.41,14.07-14.72,16.36-5.61,2.43-12.63,1.45-18.66,0,22.65,1.19,37.14-22,25.74-43.26-2.23-4.15-6.12-6.67-7.31-10.68h0Z"/>
  <path class="st5" d="M439.29,249.6c-3.09,1.33-6.69.59-9.92,1.44-24.08,6.24-26.55,38-4.85,54.17-1.87.33-3.31-.79-4.78-1.89-28.26-21.03-13.39-61.56,19.56-53.71h-.01Z"/>
  <path class="st5" d="M508.21,218.21c-30.67-1.17-43,34.71-16.28,55.23-13.92-5.1-22.26-24.15-18.36-37.27,4.58-15.46,18.66-22.11,34.64-17.96h0Z"/>
  <path class="st9" d="M636.44,318.56c26.52,19.29,16.02,58.38-15.42,54.67l9.43-3.43c14.19-5.95,21.32-23.8,13.1-39.09-2.17-4.03-6.63-7.67-7.11-12.16Z"/>
  <path class="st9" d="M606.73,241.9c25.91,19.2,14.7,56.56-15.42,54.67-.45-.03-.99-.3-1.5-.37l15.17-5.8c10.52-7.98,15.32-23.96,8.2-37.28-1.99-3.72-6.18-7.09-6.46-11.22h0Z"/>
  <path class="st8" d="M546.39,773.47c-2.55,2.23-17.69.53-21.88.73l-.65-.94c.4-9.57,8.94-11.18,17.2-9.03,4.77,1.24,9.37,5.68,5.31,9.23h.01Z"/>
  <path class="st14" d="M388.15,320.82c1.32,1.45-1.35,2.32-2.34,2.85-3.53,1.86-6.55,2.45-10.05,5.23-7.55,6.01-10.09,16.49-11.05,26.1-7.56-18.21,5.72-33.3,23.43-34.19h.01Z"/>
  <path class="st3" d="M590.21,237.82c1.39,1.63-1.27,1.92-2.29,2.44-9.83,5.04-16.47,8.77-19.93,20.13l-1.44,13.1c-9.19-18.35,5.28-35.41,23.65-35.68h.01Z"/>
  <path class="st14" d="M603.87,326.25c-4.6,4.39-8.1,17.69-6.54,24.56-10.42-16.64,4.4-35.2,21.25-35.31,6.22,1.42.37.92-.18,1.28-4.17,2.72-11.28,6.37-14.55,9.48h.01Z"/>
  <path class="st14" d="M506.29,220.84l-13.24,8.62c-7.97,6.82-10.15,16.43-10.41,27.05-8.8-18.63,5.15-35.32,23.65-35.68Z"/>
  <path class="st3" d="M612.75,396.21c-5.35,5.12-7.56,17.79-7.82,25.38-8.38-17.65,4.6-35.72,22.46-35.57,4.47,1.38-1.53,1.65-1.81,1.83-3.7,2.41-9.93,5.59-12.83,8.36Z"/>
  <path class="st3" d="M422.2,263.45c-4.9,4.68-7.3,16.89-7.61,23.89-8.7-18.19,6.69-35.66,24.61-34.29.38,1.99-2.83,1.16-3.31,1.48-3.94,2.56-10.61,5.99-13.69,8.91h0Z"/>
</svg>