<?xml version="1.0" encoding="UTF-8"?>
<svg id="Ebene_1" xmlns="http://www.w3.org/2000/svg" version="1.1" viewBox="0 0 482.16 482.16">
  <!-- Generator: Adobe Illustrator 29.5.1, SVG Export Plug-In . SVG Version: 2.1.0 Build 141)  -->
  <defs>
    <style>
      .st0 {
        fill: #f0874b;
      }

      .st1 {
        fill: #ec6d1b;
      }

      .st2 {
        fill: #ec6d1a;
      }

      .st3 {
        fill: #85be53;
      }

      .st4 {
        fill: #f5af89;
      }

      .st5 {
        fill: #f0864b;
      }

      .st6 {
        fill: #dbcfa0;
      }
    </style>
  </defs>
  <path class="st5" d="M259.1,169.15l.74,1.34c-2.41,6.31,1.29,12.4,7.71,12.03l.94,1.2,1.34.41,2.17,6.95c2.16-1.29,3.73-1.42,4.71-.39l1.47,1.05c.79,6.53,1.27,12.31,1.46,17.32.81.88.45,1.27-.59.63-.39,1.46-1.79,2.63-4.18,3.5l2.09,6.59-.84,1.32-1.02,1.01c-4.49-1.08-8.88,1.91-10,6.7l-1.3.53c-1.36.95-3.25,1.12-5.68.5,12.62,4.36,21.26,17.73,24.26,31.32,3.58,5.33,4.61,15.02,3.76,21.47l-1.21,1.2-1.17.79c-14.93-4.42-15.07,20.89.55,15.5l1.2.82c.33,3.28-4.45,9.85-7.63,9.5l-1.33.43c-5.86-4.95-14.25.84-12.95,8.64l-.98,1.07c-.27-.08-4.23,1.2-5.56,1.29-2.77.19-5.6-.66-7.65-.66h-11.74c-.24,0-1.3.63-2.3.68-2.76.13-6.56.35-9.14-.68.06-.69.78-.41.74-.42-5.82-1.01-9.27-1.83-14.37-5.34-3.01-2.08-8.03-5.64-8.09-9.45l.96-1.22c17.09-2.83,3.21-26.84-7.31-12.13l-1.29.04c-.4-.14-.78-.3-1.12-.54-2.96-2.01-5.3-18.63-4.79-22.82l1.22-1.99.88-1.27c8.25-.37,10.01-12.45,2.91-16.25l-.27-1.48c-.79-1.95-.35-4.16,1.34-6.62,4.78-7.25,9.25-14.69,13.39-22.32.53-2.76,1.49-4.94,2.88-6.54l.98-1.21c11.02.15,10.69-18.01-.76-16.6l-.8-1.2c-.54-1.19-.05-1.86,1.46-2,2.01-11.61,9.73-22.42,21.43-23.35,7.04-.3,16.72-.94,23.48.63Z"/>
  <path class="st2" d="M208.62,196.39l1.09,1.15-.23,12.2c.61,1.13,1.68,1.72,3.19,1.77l.64,1.35c-1.67,14.05-13.9,22.29-17.61,35.48-.92,1.12-4.94,1.37-5.87,0-1.35-1.23-1.13-3.26.65-6.09,5.12-7.26,9.73-14.73,13.85-22.4-11.42-19.27-40.49-12.87-44.8,10.22l-1.41,1.16.84,3.51c-.3,17.43,11.82,28.56,27.34,28.93,1.55.47,5.3,2.36,5.86,3.68-.34,8.64,1.01,17.63,4.7,25.34l.9,1.12c-1.2,4.86,1.46,9.94,6.14,10.83l.59,1.35c5.78,7.77,14.87,13.23,24.06,14.58.13,1.09-1.69.63-2.34.63-18.64-.08-34.68-19.15-38.71-37.74-19.76.42-38.4-11.62-44.65-32.27-13.13-43.31,30.48-79.04,65.75-54.81Z"/>
  <path class="st2" d="M299.01,281.93l-.84-2c.82-5.18,1.02-10.47.49-15.7l.94-1.94.74-1.77c9.66-5.11,15.33-15.87,14.42-27.44l.69-3.1-1.44-1.13c-3.61-15.43-18.91-23.63-32.74-19.03l-1.63-.75c-1.86.36-.99-.99-1.18-2.17-.89-5.47-.25-10.82-1.75-16.2-.74-.61-.35-.82,1.17-.63,56.3-14.96,79.47,74.9,21.13,91.87Z"/>
  <path class="st3" d="M212.73,193.86c4.78-.56,9.91,1.45,10.58,7.27.83,7.28-2.98,12.42-9.99,11.74s-4.92-4.28-4.81-9.19c.05-2.46-.14-4.51.12-7.29.02-.21-.02-.43,0-.63.59-2.3,2.77-4.24,4.11-1.9Z"/>
  <path class="st4" d="M299.01,281.93c-2.35,11.93-10.39,25.59-19.37,32.95-1.47-.2-2.44-3.08-1.76-4.44,3.14-2.5,5.39-6.12,7.63-9.5-.49-1.48.3-3.3,2.39-5.46.23-1.88.8-3.23,1.72-4.04.37-6.69,1.32-10.58,8.39-10.57l1,1.07Z"/>
  <path class="st3" d="M277.88,310.44c.94.97,1.85,2.99,1.76,4.44-2.96,2.43-12.06,7.29-15.57,6.98-1.14-.1-1.36-1.25-1.45-1.28-2.38-9.83,8.62-16.94,15.26-10.14Z"/>
  <path class="st1" d="M235.62,168.52c-9.1,2.54-14.98,8.3-18.7,17.51-.9,2.22-1.19,5.27-1.82,6.78-.37.9-1.97.02-2.37,1.05-1.8.21-2.7.66-4.11,1.9,1.89-16.99,11.27-26.56,27-27.24Z"/>
  <path class="st3" d="M273.19,181.82c.62,2.08-3.98,4.09-4.7,1.9-8.27.91-12.84-6.63-9.39-14.57,6.33,1.47,10.96,6.82,14.09,12.67Z"/>
  <path class="st4" d="M277.88,190.06c-.21.06-.67.48-1.17.63-1,.32-5.57,2.23-5.87,1.9.06-3.17-1.62-5.91-2.35-8.87,1.94-.21,3.06-.95,4.7-1.9,1.25,2.33,1.74,3.93,2.75,6.22.47,1.07.41,2.12,1.95,2.02Z"/>
  <path class="st3" d="M189.84,248.35c2.41-.32,3-1.09,5.87,0,8.97,3.41,7.55,19.37-3.52,19.01-3.29-.11-3.72-1.65-6.22-2.47-3.33-1.1-6.81-.6-10.53-1.94-12.05-4.33-19.4-18.38-17.29-31.7l1.66.49c6.17,10.06,17.43,17.93,28.9,15.68l1.14.93Z"/>
  <path class="st6" d="M263.8,229.34c1.19-1.12,2.79-1.02,4.81.3,3.2,1.35,9.66,4.93,9.86,8.57l1.32-.36c2.42,2.83,4.58,5.94,6.42,9.24l-.69,1.26c1.75.7,2.87,2.38,3.35,5.05,1.4,3.73,3.38,10.68,1.34,13.96l1.2,1.84c.27,4.78-.61,13.71-4.13,16.54.87,1.66-1.53,6.15-3.07,5.74-1.78-.48-1.23-7.38.72-7.64.18-5.22.2-12.41-1.2-17.39-.61-2.16-2.14-3.58-2.63-5.39-3.56-13.18-6.6-17.93-16.56-26.65-2.65-2.32-7.88-4.12-11.3-3.79,2.46-3.08,7.43-1.92,10.57-1.26Z"/>
  <path class="st3" d="M255.37,246.04c7.37,7.47-1.31,21.72-11.15,15.52-11.52-7.25,1.23-25.57,11.15-15.52Z"/>
  <path class="st3" d="M229.01,174.37c10.82-1.98,15.21,12.84,6.64,17.93-12.87,7.65-19.48-15.58-6.64-17.93Z"/>
  <path class="st3" d="M256.01,269.41c2.33-.43,3.95-.34,6.06.76,9.7,5.04,4.19,22.17-7.22,17.93-8.44-3.14-7.5-17.1,1.16-18.68Z"/>
  <path class="st3" d="M240.75,296.65c14.82-2.97,14.82,20.11,1.66,19.44-10.28-.52-11.04-17.57-1.66-19.44Z"/>
  <path class="st3" d="M204.51,306c-6.09-.53-9.65-7.27-7.63-13.31.92-2.77,3.95-5.36,6.73-5.71,14.52-1.87,14.47,20.2.9,19.02Z"/>
  <path class="st3" d="M238.4,211.12c12.57-2.22,14.48,18.11,2.73,19.45-11.79,1.34-13.87-17.48-2.73-19.45Z"/>
  <path class="st3" d="M226.07,267.5c10.81-2.41,15.67,12.03,7.18,17.88-6.15,4.23-13.98-.86-13.84-8.74.07-3.91,3.07-8.34,6.66-9.14Z"/>
  <path class="st3" d="M251.89,193.99c11.44-2.79,16.29,11.34,8.41,17.31-7.67,5.81-17.53-3.37-13.39-12.55.63-1.39,3.59-4.42,4.98-4.76Z"/>
  <path class="st3" d="M214.92,235.83c14.43-2.87,15.45,19.16,2.2,18.9-11.14-.22-11.01-17.15-2.2-18.9Z"/>
  <path class="st3" d="M284.93,283.83c-.08,2.34-.9,4.58-.58,6.97l2.93-5.07c2.12-.3,3.46,3.77,2.35,5.7.47,4.84-1.98,6.28-4.11,9.5-4.18,2.13-9.23,1.88-12.24-2.31-6.12-8.54,3.06-19.73,11.65-14.8Z"/>
  <path class="st4" d="M279.06,209.7c1.2,15.05,12.43,24.67,17.02,38.01,2.63-.15,3.37,6.01,0,5.07-1.31-1.86-3.15-3.17-5.25-3.69l-.62-1.38-1.56-.74c-1.7-4.29-3.62-8.58-6.61-12.02l-.05-1.82-1.05-.9c.33-3.82-1.32-7.97-4.61-9.7l-.21-1.44c-.48-2-2.73-6.64-2.39-8.44.17-.88,4.33-2.53,5.32-2.97Z"/>
  <path class="st3" d="M276.12,221.1c4.3,1.48,6.75,7.47,5.87,12.04,1.53,1.81-1.53,6.4-3.52,5.07-3.77-3.98-9.49-7.78-14.67-8.87.95-6.21,6.76-10.15,12.33-8.24Z"/>
  <path class="st3" d="M299.6,262.29l-.93.13c-1.11,3-6.05,7.65-8.46,4.94-.17-6.4-1.89-13.33-4.7-19.01.22-2.06,3.87-2.58,4.7-.63,2.4.2,5.62,2.15,6.75,4.44.97-.04-.71-3.94-.88-4.44,8.53-3.03,15.16-9.28,19.37-17.74,2.56,13.76-4.13,26.78-15.85,32.31Z"/>
  <path class="st0" d="M299.6,262.29c.92,6.18.62,13.52-.59,19.64-1.54.45-5.46.66-6.46,1.58-1.14,1.06-1.1,6.53-2.93,7.92-.19-1.97-1.7-3.87-2.35-5.7,2.33-5.97,3.11-11.92,2.93-18.37,5.21-.63,8.77-5.05,8.22-10.77l1.17,5.7Z"/>
  <path class="st0" d="M290.21,247.71c-1.67-.14-3.09.44-4.7.63-1.43-2.9-4.86-7.83-7.04-10.14,1.14-.6,3.31-3.95,3.52-5.07,3.83,3.77,6.24,9.46,8.22,14.57Z"/>
</svg>