<?xml version="1.0" encoding="UTF-8"?>
<svg id="Layer_1" xmlns="http://www.w3.org/2000/svg" version="1.1" viewBox="0 0 482.16 482.16">
  <!-- Generator: Adobe Illustrator 29.5.1, SVG Export Plug-In . SVG Version: 2.1.0 Build 141)  -->
  <defs>
    <style>
      .st0 {
        fill: #eb7923;
      }

      .st1 {
        fill: #e88d24;
      }

      .st2 {
        fill: #f8cd92;
      }

      .st3 {
        fill: #f5c284;
      }

      .st4 {
        fill: #f0c168;
      }

      .st5 {
        fill: #f2a62e;
      }

      .st6 {
        fill: #f0c16a;
      }
    </style>
  </defs>
  <g>
    <path class="st1" d="M93.43,265.56c-2.19-3.51-4.26-7.11-5.6-10.94l.42-.87c-.35-2.29,3.17-1.81,3.62.22l1.24,1.05c1.21,5.43,4.61,10.8,9.65,13.79l.3-12.61c.2-.62.58-1.11,1.12-1.49l.78-1.42c15.23-2.52,26.05-12.2,29.78-26.7.72-2.82,1.34-16.99-1.15-19.16-3.01-2.63-22.34-1.6-25.56.5-1.15.05-1.6-.45-1.17-1.47-1.26.28-2.16-2.57-2.45-3.67-3.14-11.92-2.17-23.27,4.49-32.96,12.44-18.12,41.02-21.49,59.79-4.91,8.31,7.81,14.01,15.26,16.25,26.07,1.09.47,1.54,1.42,1.34,2.84,8.17.91,15.5,4.72,21.94,10.06,1.27,1.19,2.57,2.45,3.76,3.71,28.34,34.91-8.41,77.52-48.4,57.66-9.45,19.68-34.88,25.52-55.87,13.71-6.27-4.07-9.65-7.6-14.28-13.41Z"/>
    <path class="st0" d="M211.98,207.6c16.07,16.9,18.61,40.38,3.21,55.75-4.42,4.41-10.19,6.95-16.03,9.31,10,4.84,24.27,9.53,27.99,21.03,1.81,5.6-.14,12.03-3.61,16.15-10.64,12.63-50,37.86-68.27,23.31-12.5-9.95-9.62-24.47-6.34-36.54,1.34-4.92,4.88-9.02,1.32-14.55-13,6.74-29.19,5.56-42.54-3.1-.6-1.27.9-.07,1.26.1,21.85,10.23,43.57,4.73,54.26-14.61,7.59,3.02,14.68,5.14,22.6,4.76,27.38-1.31,42.97-28.05,31-53.14-1.4-2.94-3.31-5.62-4.85-8.48Z"/>
    <path class="st4" d="M168.68,164.92c-9.42-6.61-19.87-10.44-30.91-9.64-24.89,1.81-38.93,23.01-32.58,46.72.28,1.03,1.7,3.89,1.67,4.46,1.01.53.98,1.27-.1,2.23,1.35,1.63.65,2.84-.91,3.69-14.4,6.84-21.08,23.73-17.01,39.8l-.58,1.59c1.25,4.08,3.35,7.91,5.18,11.81-16.12-20.21-9.77-47.47,11.55-57.63-17.9-29.41,4.58-63.29,38.76-56.77,10.13,1.93,17.38,6.66,24.94,13.76Z"/>
    <path class="st6" d="M184.93,190.98c9.16,1.45,16.55,6.62,23.28,12.91-6.98-4.62-14.77-8.38-22.94-9.24-.03-1.24-.09-2.42-.35-3.67Z"/>
    <path class="st5" d="M88.24,253.75c-4.3-14.09.08-29.63,10.86-38.52,1.5-1.24,6.73-3.71,7.36-4.71.36-.58-.9-1.47-.81-2.05.07-.5,1.18-1.22,1.21-2.01.72.92,1.24.36,1.98.2,4.08-.91,7.45-1.92,11.85-1.98,2.34-.03,11.78.89,13.47,2.01,2.02,1.35,2.5,12.19,2.36,14.63-.83,14.39-10.64,26.64-24.32,31.26-2.66.9-5.55.96-8.04,2.14-.84-4.74-.67-9.56.49-14.48l2.03-9.6c-10.15,1.68-15.14,12.66-13.97,22.29l-.85,1.05c-1.2-.54-2.6-1.12-3.62-.22Z"/>
    <path class="st2" d="M91.86,253.97c-1.65-8.93,2.44-19.58,10.77-23.25,1.2-.53,4.85-2.05,5.02,0,.16,1.92-1.66,7.57-2.01,9.98-.67,4.6-1.12,9.36-1.47,14.02s0,9.44-.33,13.74c-.19,2.5-2.12,1-3.63-.22-4.68-3.78-7.34-8.77-8.35-14.26Z"/>
    <path class="st3" d="M144.09,164.12c-8.92,5.22-16.7,11.77-24.32,18.55-.6.53-1.52.72-2.12,1.27-1.55,1.44-2.49,4.13-4.84,4.93-8.64-17.22,14.92-36.31,31.28-24.75Z"/>
  </g>
  <g>
    <path class="st1" d="M233.09,215.79c.93-3.99,2.02-7.98,3.8-11.64l.92-.35c1.39-1.89,3.59.8,2.46,2.57l.14,1.59c-3.02,4.74-4.41,10.88-2.92,16.39l9.26-8.92c.59-.31,1.22-.42,1.88-.33l1.58-.51c12.82,8.32,27.58,8.53,40.68.53,2.54-1.55,13.15-11.39,12.91-14.61-.29-3.91-15-16.03-18.83-16.66-.87-.73-.84-1.39.21-1.84-1.11-.63.28-3.29.86-4.28,6.27-10.71,15.11-18.27,26.88-20.84,21.98-4.81,45.06,11.78,46.74,36.26.41,11.18-.82,20.36-6.95,29.66.45,1.06.1,2.05-1.07,2.95,5.25,6.1,7.82,13.73,8.64,21.88.07,1.71.1,3.48.06,5.19-4.54,44.11-61.66,50.43-76.33,9.45-20.94,7.93-43.51-4.77-50.22-27.3-1.61-7.11-1.52-11.92-.71-19.2Z"/>
    <path class="st0" d="M360.35,252.83c-.5,22.92-15.5,41.58-37.66,42.44-6.36.25-12.35-1.76-18.26-3.95,3.76,10.15,10.71,23.05,5.15,33.84-2.71,5.26-8.72,8.6-14.19,9.27-16.75,2.05-63.29-5.93-66.06-28.61-1.9-15.52,10.59-24.1,21.62-30.63,4.49-2.66,10-3.27,11.39-9.64-14.23-3.79-25.09-15.42-28.53-30.57.48-1.31.7.55.84.92,8.46,21.94,28.1,32.43,49.7,25.57,3.32,7.24,6.92,13.49,12.92,18.49,20.73,17.28,51.17,8.34,60.51-17.77,1.09-3.05,1.64-6.27,2.57-9.36Z"/>
    <path class="st4" d="M359.65,193.15c-2.07-11.05-6.88-20.78-15.43-27.55-19.29-15.26-44.64-9.29-57.05,12.08-.54.93-1.56,3.94-1.99,4.33.35,1.05-.2,1.57-1.67,1.54-.2,2.08-1.56,2.49-3.3,2.06-15.32-4.64-32.25,3.12-40.83,17.44l-1.56.76c-2.03,3.78-3.26,7.95-4.72,11.99,2.84-25.34,26.97-40.82,49.67-33.96,8.15-33.18,48.69-42.7,68.73-15.23,5.94,8.14,7.79,16.38,8.17,26.55Z"/>
    <path class="st6" d="M352.71,222.81c5.58,7.15,7.22,15.8,7.58,24.83-1.73-7.98-4.67-15.89-9.95-21.95.87-.92,1.67-1.81,2.38-2.88Z"/>
    <path class="st5" d="M237.81,203.8c6.99-13.05,21.31-21.37,35.47-20.62,1.97.1,7.53,1.8,8.7,1.5.67-.18.41-1.66.88-2.02.41-.31,1.72-.1,2.32-.65-.13,1.15.64,1.09,1.29,1.46,3.6,2.06,6.77,3.57,9.99,6.46,1.71,1.53,7.88,8.49,8.29,10.43.49,2.32-6.93,10.48-8.78,12.15-10.91,9.85-26.79,12.17-39.99,6.41-2.57-1.12-4.7-3-7.34-3.81,2.79-3.98,6.37-7.36,10.73-10.14l8.35-5.59c-8.54-5.54-20.02-.93-26.08,6.81l-1.37.19c-.48-1.19-1.07-2.54-2.46-2.57Z"/>
    <path class="st2" d="M240.27,206.37c5.21-7.56,15.8-12.53,24.45-9.63,1.25.42,4.98,1.75,3.63,3.34-1.27,1.49-6.63,4.37-8.61,5.87-3.78,2.88-7.52,6.02-11.11,9.16-3.54,3.1-6.77,6.82-10.09,9.72-1.93,1.68-2.25-.69-2.46-2.57-.67-5.85.98-11.22,4.19-15.87Z"/>
    <path class="st3" d="M342.45,176.2c-10.19-2.17-20.51-2.61-30.88-2.78-.81-.01-1.61-.49-2.44-.49-2.15,0-4.76,1.32-7.04.34,6.1-18.2,36.82-16.31,40.36,2.93Z"/>
  </g>
  <g>
    <path class="st1" d="M153.91,243.01c-1.1-3.84-2.06-7.73-2.27-11.66l.63-.71c.29-2.23,3.46-.9,3.33,1.12l.88,1.3c-.34,5.4,1.38,11.28,5.29,15.35l3.71-11.73c.36-.53.84-.9,1.45-1.11l1.12-1.13c14.95,1.49,27.71-4.85,35.13-17.49,1.44-2.46,5.86-15.57,4.13-18.23-2.11-3.22-20.48-7.14-24.06-5.99-1.09-.24-1.38-.82-.69-1.67-1.25-.05-1.32-2.95-1.3-4.05.29-11.95,4.28-22.34,13.15-29.73,16.57-13.82,44.24-9.76,57.31,10.5,5.67,9.41,8.97,17.83,8.14,28.51.89.71,1.06,1.71.49,3,7.41,2.92,13.23,8.33,17.81,14.96.87,1.44,1.74,2.94,2.52,4.43,17.06,39.85-28.92,70.46-60.97,41.77-14.19,16.04-39.59,15.09-56.03-1.27-4.76-5.39-6.97-9.56-9.73-16.16Z"/>
    <path class="st0" d="M280.64,218.67c10.46,19.89,6.46,42.51-12.13,53.02-5.33,3.02-11.43,3.94-17.54,4.67,8.05,7.05,20.14,15.05,20.5,26.76.17,5.7-3.39,11.23-7.77,14.21-13.39,9.14-57.09,22.82-70.25,4.59-9-12.48-2.36-25.34,3.98-35.82,2.59-4.27,7.02-7.21,5.19-13.29-14.01,3.03-28.84-2.16-38.99-13.65-.21-1.34.86.17,1.16.42,17.68,15.1,39.51,15.44,54.77.02,6.29,4.75,12.34,8.52,19.87,10.17,25.99,5.68,47.84-15.41,43.45-41.93-.51-3.1-1.58-6.1-2.24-9.17Z"/>
    <path class="st4" d="M251.69,167.77c-7.02-8.57-15.77-14.8-26.32-16.83-23.8-4.59-42.7,11.71-43.19,35.52-.02,1.04.53,4.07.35,4.59.8.75.57,1.43-.7,2.06.82,1.87-.16,2.83-1.86,3.22-15.34,2.77-26.17,16.89-26.73,32.97l-.98,1.34c.06,4.14.98,8.26,1.65,12.37-9.61-22.99,3.74-46.92,26.46-51.05-8.77-32.06,21.47-58.11,51.7-43.37,8.96,4.37,14.46,10.62,19.62,19.18Z"/>
    <path class="st6" d="M259.82,196.28c8.18,3.67,13.7,10.38,18.3,17.97-5.28-6.09-11.55-11.57-18.97-14.45.31-1.17.57-2.29.67-3.52Z"/>
    <path class="st5" d="M152.26,230.64c-.2-14.28,8.12-27.73,20.62-33.33,1.74-.78,7.31-1.77,8.17-2.55.49-.45-.44-1.61-.21-2.12.21-.45,1.43-.84,1.68-1.58.43,1.04,1.06.65,1.8.69,4.07.18,7.5.08,11.63,1.14,2.2.56,10.79,3.8,12.07,5.29,1.53,1.78-.97,12.05-1.76,14.3-4.68,13.27-17.19,22.26-31.25,23.13-2.74.17-5.45-.5-8.1-.03.5-4.65,1.97-9.12,4.39-13.43l4.5-8.48c-9.96-.99-17.61,8.03-19.13,17.34l-1.08.76c-.98-.81-2.13-1.71-3.33-1.12Z"/>
    <path class="st2" d="M155.59,231.76c.87-8.78,7.6-17.72,16.39-19.05,1.27-.19,5.1-.69,4.7,1.26-.38,1.84-3.61,6.67-4.59,8.84-1.87,4.14-3.59,8.48-5.18,12.76-1.57,4.22-2.56,8.84-4.04,12.78-.86,2.29-2.25.4-3.34-1.12-3.36-4.73-4.49-10.06-3.95-15.47Z"/>
    <path class="st3" d="M228.88,160.82c-9.76,2.63-18.83,6.81-27.8,11.23-.71.35-1.62.29-2.33.66-1.84.96-3.46,3.24-5.87,3.4-3.42-18.31,23.83-30.23,36-15.28Z"/>
  </g>
  <g>
    <path class="st1" d="M44.69,287.17c-2.19-3.51-4.26-7.11-5.6-10.94l.42-.87c-.35-2.29,3.17-1.81,3.62.22l1.24,1.05c1.21,5.43,4.61,10.8,9.65,13.79l.3-12.61c.2-.62.58-1.11,1.12-1.49l.78-1.42c15.23-2.52,26.05-12.2,29.78-26.7.72-2.82,1.34-16.99-1.15-19.16-3.01-2.63-22.34-1.6-25.56.5-1.15.05-1.6-.45-1.17-1.47-1.26.28-2.16-2.57-2.45-3.67-3.14-11.92-2.17-23.27,4.49-32.96,12.44-18.12,41.02-21.49,59.79-4.91,8.31,7.81,14.01,15.26,16.25,26.07,1.09.47,1.54,1.42,1.34,2.84,8.17.91,15.5,4.72,21.94,10.06,1.27,1.19,2.57,2.45,3.76,3.71,28.34,34.91-8.41,77.52-48.4,57.66-9.45,19.68-34.88,25.52-55.87,13.71-6.27-4.07-9.65-7.6-14.28-13.41Z"/>
    <path class="st0" d="M163.24,229.21c16.07,16.9,18.61,40.38,3.21,55.75-4.42,4.41-10.19,6.95-16.03,9.31,10,4.84,24.27,9.53,27.99,21.03,1.81,5.6-.14,12.03-3.61,16.15-10.64,12.63-50,37.86-68.27,23.31-12.5-9.95-9.62-24.47-6.34-36.54,1.34-4.92,4.88-9.02,1.32-14.55-13,6.74-29.19,5.56-42.54-3.1-.6-1.27.9-.07,1.26.1,21.85,10.23,43.57,4.73,54.26-14.61,7.59,3.02,14.68,5.14,22.6,4.76,27.38-1.31,42.97-28.05,31-53.14-1.4-2.94-3.31-5.62-4.85-8.48Z"/>
    <path class="st4" d="M119.95,186.53c-9.42-6.61-19.87-10.44-30.91-9.64-24.89,1.81-38.93,23.01-32.58,46.72.28,1.03,1.7,3.89,1.67,4.46,1.01.53.98,1.27-.1,2.23,1.35,1.63.65,2.84-.91,3.69-14.4,6.84-21.08,23.73-17.01,39.8l-.58,1.59c1.25,4.08,3.35,7.91,5.18,11.81-16.12-20.21-9.77-47.47,11.55-57.63-17.9-29.41,4.58-63.29,38.76-56.77,10.13,1.93,17.38,6.66,24.94,13.76Z"/>
    <path class="st6" d="M136.2,212.6c9.16,1.45,16.55,6.62,23.28,12.91-6.98-4.62-14.77-8.38-22.94-9.24-.03-1.24-.09-2.42-.35-3.67Z"/>
    <path class="st5" d="M39.51,275.36c-4.3-14.09.08-29.63,10.86-38.52,1.5-1.24,6.73-3.71,7.36-4.71.36-.58-.9-1.47-.81-2.05.07-.5,1.18-1.22,1.21-2.01.72.92,1.24.36,1.98.2,4.08-.91,7.45-1.92,11.85-1.98,2.34-.03,11.78.89,13.47,2.01,2.02,1.35,2.5,12.19,2.36,14.63-.83,14.39-10.64,26.64-24.32,31.26-2.66.9-5.55.96-8.04,2.14-.84-4.74-.67-9.56.49-14.48l2.03-9.6c-10.15,1.68-15.14,12.66-13.97,22.29l-.85,1.05c-1.2-.54-2.6-1.12-3.62-.22Z"/>
    <path class="st2" d="M43.13,275.58c-1.65-8.93,2.44-19.58,10.77-23.25,1.2-.53,4.85-2.05,5.02,0,.16,1.92-1.66,7.57-2.01,9.98-.67,4.6-1.12,9.36-1.47,14.02-.34,4.6,0,9.44-.33,13.74-.19,2.5-2.12,1-3.63-.22-4.68-3.78-7.34-8.77-8.35-14.26Z"/>
    <path class="st3" d="M95.36,185.74c-8.92,5.22-16.7,11.77-24.32,18.55-.6.53-1.52.72-2.12,1.27-1.55,1.44-2.49,4.13-4.84,4.93-8.64-17.22,14.92-36.31,31.28-24.75Z"/>
  </g>
  <g>
    <path class="st1" d="M291.73,227.86c.93-3.99,2.02-7.98,3.8-11.64l.92-.35c1.39-1.89,3.59.8,2.46,2.57l.14,1.59c-3.02,4.74-4.41,10.88-2.92,16.39l9.26-8.92c.59-.31,1.22-.42,1.88-.33l1.58-.51c12.82,8.32,27.58,8.53,40.68.53,2.54-1.55,13.15-11.39,12.91-14.61-.29-3.91-15-16.03-18.83-16.66-.87-.73-.84-1.39.21-1.84-1.11-.63.28-3.29.86-4.28,6.27-10.71,15.11-18.27,26.88-20.84,21.98-4.81,45.06,11.78,46.74,36.26.41,11.18-.82,20.36-6.95,29.66.45,1.06.1,2.05-1.07,2.95,5.25,6.1,7.82,13.73,8.64,21.88.07,1.71.1,3.48.06,5.19-4.54,44.11-61.66,50.43-76.33,9.45-20.94,7.93-43.51-4.77-50.22-27.3-1.61-7.11-1.52-11.92-.71-19.2Z"/>
    <path class="st0" d="M418.98,264.91c-.5,22.92-15.5,41.58-37.66,42.44-6.36.25-12.35-1.76-18.26-3.95,3.76,10.15,10.71,23.05,5.15,33.84-2.71,5.26-8.72,8.6-14.19,9.27-16.75,2.05-63.29-5.93-66.06-28.61-1.9-15.52,10.59-24.1,21.62-30.63,4.49-2.66,10-3.27,11.39-9.64-14.23-3.79-25.09-15.42-28.53-30.57.48-1.31.7.55.84.92,8.46,21.94,28.1,32.43,49.7,25.57,3.32,7.24,6.92,13.49,12.92,18.49,20.73,17.28,51.17,8.34,60.51-17.77,1.09-3.05,1.64-6.27,2.57-9.36Z"/>
    <path class="st4" d="M418.29,205.22c-2.07-11.05-6.88-20.78-15.43-27.55-19.29-15.26-44.64-9.29-57.05,12.08-.54.93-1.56,3.94-1.99,4.33.35,1.05-.2,1.57-1.67,1.54-.2,2.08-1.56,2.49-3.3,2.06-15.32-4.64-32.25,3.12-40.83,17.44l-1.56.76c-2.03,3.78-3.26,7.95-4.72,11.99,2.84-25.34,26.97-40.82,49.67-33.96,8.15-33.18,48.69-42.7,68.73-15.23,5.94,8.14,7.79,16.38,8.17,26.55Z"/>
    <path class="st6" d="M411.35,234.88c5.58,7.15,7.22,15.8,7.58,24.83-1.73-7.98-4.67-15.89-9.95-21.95.87-.92,1.67-1.81,2.38-2.88Z"/>
    <path class="st5" d="M296.45,215.87c6.99-13.05,21.31-21.37,35.47-20.62,1.97.1,7.53,1.8,8.7,1.5.67-.18.41-1.66.88-2.02.41-.31,1.72-.1,2.32-.65-.13,1.15.64,1.09,1.29,1.46,3.6,2.06,6.77,3.57,9.99,6.46,1.71,1.53,7.88,8.49,8.29,10.43.49,2.32-6.93,10.48-8.78,12.15-10.91,9.85-26.79,12.17-39.99,6.41-2.57-1.12-4.7-3-7.34-3.81,2.79-3.98,6.37-7.36,10.73-10.14l8.35-5.59c-8.54-5.54-20.02-.93-26.08,6.81l-1.37.19c-.48-1.19-1.07-2.54-2.46-2.57Z"/>
    <path class="st2" d="M298.91,218.44c5.21-7.56,15.8-12.53,24.45-9.63,1.25.42,4.98,1.75,3.63,3.34-1.27,1.49-6.63,4.37-8.61,5.87-3.78,2.88-7.52,6.02-11.11,9.16-3.54,3.1-6.77,6.82-10.09,9.72-1.93,1.68-2.25-.69-2.46-2.57-.67-5.85.98-11.22,4.19-15.87Z"/>
    <path class="st3" d="M401.09,188.28c-10.19-2.17-20.51-2.61-30.88-2.78-.81-.01-1.61-.49-2.44-.49-2.15,0-4.76,1.32-7.04.34,6.1-18.2,36.82-16.31,40.36,2.93Z"/>
  </g>
</svg>