<?xml version="1.0" encoding="UTF-8"?>
<svg id="Ebene_1" xmlns="http://www.w3.org/2000/svg" version="1.1" viewBox="0 0 1024 1024">
  <!-- Generator: Adobe Illustrator 29.5.1, SVG Export Plug-In . SVG Version: 2.1.0 Build 141)  -->
  <defs>
    <style>
      .st0 {
        fill: #a7292b;
      }

      .st1 {
        fill: #b9dbbe;
      }

      .st2 {
        fill: #43888b;
      }

      .st3 {
        fill: #c6393a;
      }

      .st4 {
        fill: #65c2cb;
      }

      .st5 {
        fill: #1c5e3c;
      }

      .st6 {
        fill: #6fbc85;
      }

      .st7 {
        fill: #e84949;
      }

      .st8 {
        fill: #b7dfe3;
      }

      .st9 {
        fill: #a6282a;
      }

      .st10 {
        fill: #a8292b;
      }

      .st11 {
        fill: #a5282a;
      }
    </style>
  </defs>
  <path class="st7" d="M508.7,533.22c.34-3.21,2.92-2.94,4.9-.3,11,54.8,58.7,101.09,120.63,110.68l4.56,3.08,17.25,33.44c-.74,2.26-1.9,2.27-2.66,0-23.26,4.35-30.16,26.18-7.97,37.02,2.15-1.75,5.45-1.76,9.89-.08,3.95-.85,6.85-.42,8.69,1.27.86,6.63-2.22,9.42-8.12,12.4-32.63,16.45-139,17.57-178.43,16.31-30.86-.98-72.11-3.61-101.49-11.39-11.62-3.08-25.67-5.96-22.57-19.7,2.89-1.86,14.14-.55,15.93,2.39,27.61-7.94,26.59-31.61-1.33-38.21-.71,3.31-5.91,3.25-6.64,0,3.92-11.92,11.16-22.42,17.25-33.44l3.89-3.01c59.48-9.87,113.45-51.6,122.97-106.74l3.23-3.71h.01Z"/>
  <path class="st4" d="M478.18,422.16c1.51.05,3.16.22,4.34,1.13,11.83,9.08,29.94,47.68,26.18,62.15l2.84,1.57c1.19,14.81,1.25,29.82,0,44.61l-2.84,1.57c-7.44,59.23-66.66,104.82-130.07,113.44-5.69.77-15.96,2.84-21.24,2.39l-.07-3.09c11.02-11.09,14.91-29.27,16.87-44,9.52-71.45,12.95-148.38-8.52-217.55-3.47-5.09-5.33-10.01-5.63-14.79,42.11-2.6,92.45,23.73,118.13,52.54h.01Z"/>
  <path class="st6" d="M660.02,369.61l.23,3.68c-21.68,37.48-22.05,88.94-22.3,131.34-.27,45.42.45,98.14,21.11,139.32l-.37,3.92c-7.49-.03-12.55-.25-19.91-1.19-64.97-8.42-112.8-52.99-127.27-109.47-.55-2.16,1.29-4.69-2.82-3.98,1.46-11.64,1.39-36.16,0-47.77.67-11.54,16.56-55.02,26.45-59.01.86-.34,1.8-.55,2.75-.7,24.38-29.64,80.22-59.5,122.12-56.12h.01Z"/>
  <path class="st2" d="M360.05,369.61c12.08,15.5,15.75,38.15,18.4,56.89,7.73,54.88,8.19,127.84-2.86,182.18-2.69,13.26-6.16,31.82-18.2,40.35-5.8-.51-8.7-5.63-10.87-9.93-16.27-32.17-18.31-114.31-17.05-150.75,1-29.01,4.08-81.01,16.3-107.14,3.76-8.05,4.22-11.01,14.29-11.62h-.01Z"/>
  <path class="st5" d="M658.7,647.86c-12.21-16.19-15.82-39.84-18.42-59.26-6.64-49.58-6.68-110.14,0-159.72,2.6-19.31,6.03-44.08,19.74-59.27,13.39,1.08,16.71,19.76,19.26,29.85,10.43,41.29,11.62,95.51,10,137.99-.79,21.07-6.54,93.46-20.72,107.94-5.11,5.21-5.56,2.47-9.88,2.46h.01Z"/>
  <path class="st7" d="M506.06,358.87c8.26-4.62,16.83-8.87,25.68-12.74l6.18-.4v80.01c-12.65,15.37-21.21,36.09-26.31,54.55-.55,1.98.06,4.42-2.9,5.15-2.58-21.49-15.58-46.51-30.52-63.29v-81.2l2.87-1.04c8.02,5.85,16.36,11.27,25.02,16.26v2.69h-.03Z"/>
  <path class="st11" d="M506.06,358.87c-7.02-3.12-20.84-13.17-27.88-17.91-5.35-3.61-10.66-7.47-15.79-11.33l48.98-54.35,2.22,6.8c-1.06,22.22-1.75,44.13-2.08,65.76.35,5.95-1.46,9.63-5.43,11.02h-.01Z"/>
  <path class="st3" d="M537.91,345.73c-9.66,5.09-20.22,9.47-29.94,14.31-1.33,0-1.56-1.03-1.91-1.18,4.77-9.43,2.19-21.36,2.6-31.69.11-2.83,1.32-5.43,1.44-8.26.65-14.51.23-29.14,1.27-43.64l42.34,60.5c.51,1.5-.93,1.93-2.04,2.63-3.4,2.16-9.79,5.24-13.75,7.33h-.01Z"/>
  <path class="st3" d="M656.04,680.1c3.31.4,11.04,2.91,13.94,4.77,13.97,8.94,10.61,29.04-5.99,33.44-8.16,2.17-10.94,1.04-18.58-1.19-19.7-9.3-13.6-34.17,7.97-37.02.86.04,1.81-.1,2.66,0Z"/>
  <path class="st3" d="M361.37,680.1c2-.18,4.58-.08,6.64,0,23.66,3.19,23.77,33.32,1.33,38.21-6.98.33-9.69.27-15.93-2.39-20.46-8.72-13.98-33.84,7.97-35.82Z"/>
  <path class="st3" d="M496.76,735.03c-17.25-8.67-17.45-27.36,0-35.82,42.31-10.2,42.31,46.03,0,35.82Z"/>
  <path class="st0" d="M369.33,718.31c10.19-6.95,15.03-10.75,13.3-23.31-1.2-8.71-7.49-10.81-14.63-14.9,32.82,1.38,31.37,36.83,1.33,38.21Z"/>
  <path class="st9" d="M653.38,680.1c-3.69,3.68-9.95,4.51-13.29,8.94-7.43,9.86-3.18,20.28,5.33,28.08-1.8-.52-3.4-.11-5.77-1.34-19.13-9.9-10.44-36.97,13.74-35.68h-.01Z"/>
  <path class="st10" d="M496.76,699.21l-7.2,7.26c-3.44,6.58-4.67,11.99-1.29,18.88l8.49,9.68c-20.84-5.03-20.84-30.8,0-35.82Z"/>
  <path class="st8" d="M500.72,514.12c-2.5-.37-2.17-2.52-2.8-4.03-19.91-47.99-37.85-77.74-87.03-106.79l-25.63-13.34c23.84-2.93,49.87,7.07,68.9,19.8,35.43,23.69,57.17,64.61,46.56,104.39h0Z"/>
  <path class="st1" d="M642.75,386.34c.74,3.17-.89,2.05-2.62,2.97-49.91,26.44-79.06,46.24-102.86,96.18l-9.98,25.03c-15.64-61.43,44.86-127.11,115.46-124.17h0Z"/>
</svg>