<?xml version="1.0" encoding="UTF-8"?>
<svg id="Layer_1" xmlns="http://www.w3.org/2000/svg" version="1.1" viewBox="0 0 384 384">
  <!-- Generator: Adobe Illustrator 29.7.1, SVG Export Plug-In . SVG Version: 2.1.1 Build 8)  -->
  <defs>
    <style>
      .st0 {
        fill: #684d42;
      }

      .st1 {
        fill: #36642c;
      }

      .st2 {
        fill: #5c9c52;
      }

      .st3 {
        fill: #508b45;
      }

      .st4 {
        fill: #305b26;
      }

      .st5 {
        fill: #674d42;
      }

      .st6 {
        fill: #447b3b;
      }

      .st7 {
        fill: #574138;
      }
    </style>
  </defs>
  <path class="st0" d="M307,268.5c-1.56,21.66,3.91,46.67-4.61,67.02-4.63,11.07-11.19,18.52-20.89,25.23-23.36,1.1-48.34,1.74-72.28,1.36-36.53-.57-66.79-8.89-93.01-35.47l-1.21-3.39c-.67-1.62-1.25-3.32-1.26-5.09-.06-15.66,5.38-47.8,11.7-61.9.73-1.62,1.79-3.02,3.06-4.25l1.71-1.46,8.04,1.46c.07-.59.26-1.47.67-1.5,2.79-.21,21.05-.49,22.48,0l1.6,1.5c.16-.59.41-1.44.87-1.5,2.17-.26,14.36-.33,16.03.13l1.09,1.37c.08-.58.23-1.42.67-1.5.9-.16,11.1-.19,11.76,0l1.07,1.5c3.48-1.47,7.02-1.47,10.5,0l1.65-1.5h33.45l.9,1.5c17.25-1.78,36.95-2.7,53.25-.75,2.49.3,4.5,1.92,6.03,4.87,2.67,3.29,6.67,8.39,6.72,12.38Z"/>
  <path class="st6" d="M157,191.25c-2.4-46.32,5.55-92.45,30.44-131.94,18.45-29.27,48.47-47.24,83.56-47.31-36.29,49.69-61,108.16-70.37,169.24-1.31,8.56-2.91,18.67-3.13,27.25l.98.3c-1.42,2.45-1.34,3.64.26,3.56-.89,12.96-1.79,25.91-2.68,38.85l-1.56.79h-13.5c-8.76-15.94-15.62-33.62-21.83-50.82-1.15-3.2-1.7-6.58-2.17-9.93Z"/>
  <path class="st1" d="M232.75,191.25c3.71-3.69,15.92-12.28,20.76-15.61,44.41-30.55,101.79-7.08,112.73,44.86-12.43-10.44-22.11-24.78-37.85-30.77-15.66-5.96-31.57-4.86-46.16,3.38-7.14,4.03-14.51,10.12-17.98,17.64,12.17-2.04,24.64.1,35.19,6.44,10.75,6.46,15.98,14.2,21.19,25.31,14.91,31.81,30.56,70.3,42.98,103.27.54,1.45,1.26,2.88,1.13,4.49-19.8-26.84-38.17-54.75-57.74-81.75-4.2-5.79-7.71-12.1-12.75-17.25l-1.18.16c-11.62-9.51-26.4-17.15-41.67-15.63l-8.35,15.53-2.05.7h-36c.01-.93.05-1.85.19-2.75s.29-1.76.62-2.55c7.7-18.31,15.75-37.46,24.48-54.65.42-1.04,1.37-1.13,2.46-.8Z"/>
  <path class="st3" d="M197.5,208.5c-.02.88-.58,3.82.74,3.75l32.13-77c11.12-24.15,39.84-71.65,64.36-82.64,31.28-14.01,63.21,4.86,71.51,36.64-11.86-5.35-22.29-15.86-35.71-17.16-23.39-2.25-33.22,12.4-45.14,28.92-20.35,28.2-37.87,58.77-52.64,90.24-1.61,1.6-3.51,6.22-4.63,8.49-8.38,16.87-15.01,35.2-23.12,52.26-3.49,0-7.01,0-10.5,0l3-43.5Z"/>
  <path class="st7" d="M85,252l1.89,2.91c1.49,17.3,6.97,33.54,14.61,48.84l2.49,2.71,9.54,23.06c-.55-2.7-.06-4.79,1.48-6.27,20.17,21.21,48.05,35.06,77.59,36.78,27.32,1.59,57.12-.33,84.79-.04,1.27.01,3.33-.48,4.11.76-9.31,6.44-18.79,10.45-30.35,11.28-41.48,2.98-86.46-2.31-128.31,0-25.54-.09-55.85-27.94-55.85-53.65v-66.38h18Z"/>
  <path class="st6" d="M86.5,171.75l1.63-.41c9.63,6.36,19.16,13.08,28.59,20.15l2.78,4.26c3.27,2.85,6.71,5.92,9.75,9,.77.23,1.52.5,2.23.86s1.36.71,1.85,1.23c11.25,11.67,21.42,26.33,29,40.65.33.63.46,1.37.57,2.14s.13,1.58.1,2.38h-24.75l-7.76-1.32-.49-1.68c-.16-.65-.29-1.31-.32-1.97s-.05-1.26.15-1.79c2.09-5.77,4.42-11.64,7.55-16.88-12.18-14.92-33.27-14.55-43.78,1.94l-1.85-.05c-36.73-21.6-58.53-58.41-84-91.13l78.75,32.63Z"/>
  <path class="st2" d="M157,191.25c7.64,20.39,15.97,40.52,24,60.75h-18c-8.79-17.24-20.16-33.45-33.75-47.25-2.44-24.15-9.65-48.72-8.24-73.12,1.84-31.97,15.86-63.56,38.62-85.88-3.34,32.08-16.5,67.1-14.62,99.36,1.03,17.73,5.97,30.06,11.99,46.13Z"/>
  <path class="st4" d="M119.5,195.75c-4.44-3.88-9.19-7.71-14.01-11.11s-15.79-8.84-18.99-12.89c-3.81-4.83-8.47-14.9-11.14-20.73-18.79-40.92-24.68-84.82-21.1-129.64l1.48-8.63,63.76,183Z"/>
  <path class="st3" d="M130,249c1.44,2.02.78,2.45-1.5,3-8.18,22.75-12.59,47.06-13.5,71.25-.12,3.11.11,6.26,0,9.38-.03.91.56,2.79-.74,2.61-4.08-10.45-9.37-20.78-12.76-31.49-6.91-14.35-9.65-31.8-10.91-47.67-.05-.65.12-1.33.32-2.03s.5-1.38.84-2.05c-.38-4.95-1.86-17.71,0-21.75.21-.45,5.65-6.8,6.38-7.49,12-11.26,31.95-7.82,40.6,5.62-3.42,6.67-6.08,13.62-8.73,20.63Z"/>
  <path class="st5" d="M91.75,252c1.31,16.93,4.63,35.57,9.75,51.75-5.25-6.62-9.01-16.09-11.45-24.18-2.72-9.03-3.86-18.25-5.05-27.57h6.75Z"/>
</svg>