<?xml version="1.0" encoding="UTF-8"?>
<svg id="Ebene_1" xmlns="http://www.w3.org/2000/svg" version="1.1" viewBox="0 0 512 512">
  <!-- Generator: Adobe Illustrator 29.5.1, SVG Export Plug-In . SVG Version: 2.1.0 Build 141)  -->
  <defs>
    <style>
      .st0 {
        fill: #ad764d;
      }

      .st1 {
        fill: #fcc67d;
      }

      .st2 {
        fill: #f9e6c8;
      }

      .st3 {
        fill: #1ba567;
      }

      .st4 {
        fill: #faac66;
      }

      .st5 {
        fill: #25c075;
      }

      .st6 {
        fill: #d09263;
      }

      .st7 {
        fill: #4ddc83;
      }

      .st8 {
        fill: #1ca668;
      }
    </style>
  </defs>
  <path class="st2" d="M321,511l1.68-2c11.22.67,22.41.75,33.59.24l1.74,1.76v1h-203v-1c4.25-.54,8.5-1.04,12.76-1.38s8.51-.67,12.77-.69c38.3-.15,76.63-.06,114.93.18,4.26.03,8.51.31,12.77.63s8.52.77,12.77,1.26Z"/>
  <path class="st1" d="M113,292c1.11-1.15,2.33-.79,3.67,1.08l228.85-.18c4.2.02,7.94,4.48,7.38,8.58-8.96,66.18-18.2,133.23-27.36,198.77-.43,2.8-2.41,9.45-4.55,10.74-55.31.38-110.69-.29-166,0-5.62-1.87-10.59-6.83-11.75-12.75-10.17-68.73-20.64-137.44-30.25-206.25Z"/>
  <path class="st4" d="M402,276l-32.25,221.25c-.99,5.46-6.11,12.76-11.75,13.75-8.92,1.57-26.89-.07-37,0-.44-4.28,1.91-7.67,2.72-11.78,1.36-6.88,2.09-14.79,3.13-21.87,8.62-58.57,14.75-117.53,24.07-175.99,0-3.71-2.5-6.91-6.37-6.42l-229.12.14-2.44-3.08c-.74-5.3-2-10.6-2-16l8.33-1.11c52.63.13,105.28-.17,157.93-.89l8.34,1.44c38.82-.56,77.62-.37,116.4.56Z"/>
  <path class="st7" d="M260,101l2.13,1.54c10.62,35.26,13.84,73.37,2.25,109.71,4.49-.62,8.94-.52,13.37.31l.25,2.44c-24.31,2.45-48.69,2.44-73,0-.93-.36-1.84-.75-2.67-1.26s-1.62-1-2.12-1.7c-13.02-18.3-24.14-38.4-33.94-57.77l.72-2.27c-.85-7.15-5.26-14.02-7.77-20.73-11.81-31.62-19.61-69.9-15.11-103.64.61-4.55,4.22-23.37,7.87-25.13,12.49-6.02,6.04,16.79,5.97,21.96-.49,32.62,16.11,72.28,37.53,96.56,1.95,2.21,11.68,12.66,13.94,11.96,2.73-.85,7.8-27.22,8.44-31.61,1.93-13.35,2.68-28.37,2.13-41.86-.21-5.09-6.61-30.53,6.58-22.57,1.29.78,7.46,10.05,8.84,12.15,10.6,16.04,17.74,34.07,24.58,51.92Z"/>
  <path class="st6" d="M157,215c15.84-2.96,32.15-2.89,48,0,24.32-.04,48.68-.03,73,0,.91-1.94,2.09-1.94,3,0,8.44.96,12.78,4.6,14.73,12.95,1.17,4.99,1.31,30.24-.08,34.89-1.2,4.02-3.04,7.61-6.47,10.16h124.6s1.22,2.01,1.22,2.01c-4.5,1-8.17,1.35-13,1-96.86-2.12-194.18,2.84-291,0-11.23-.33-24.65.31-26.04-14.46-.74-7.88-.91-26.38.02-34.06.83-6.85,6.94-11.73,13.52-12.48,16.88-1.93,40.75.08,58.5,0Z"/>
  <path class="st5" d="M358,45c16.99,41.78,15.98,93.65.74,136.79-2.71,7.67-9.87,27.13-15.23,31.56-.77.63-1.63,1.16-2.52,1.65-19.93,2.71-40.07,2.76-60,0-1,0-2,0-3,0-2.73-2.62-15.4.15-17-1.01,10.47-27.42,10.47-56.48,5.69-85.18-1.21-7.25-6.69-22.49-6.69-27.81,0-7.5,14.22-38.76,19.18-45.32,2-2.64,3.31-4.62,7.09-3.5,6.66,1.96,1.91,15.82,1.68,21.28-1.09,25.82,2.71,60.32,14.55,83.53,5.13,10.05,5.99,10.01,13.46,1.48,19.6-22.38,32.37-65.55,33.07-94.93.14-5.72-3.39-18.71,3.66-20.39,2.1-.5,3.7.83,5.3,1.85Z"/>
  <path class="st0" d="M415,275h-132.99c1.64-2.17,4.75-2.37,7.04-4.46,1.7-1.55,4.01-5.24,4.53-7.47,1.11-4.77,1.13-31.51-.04-36.1-1.64-6.46-7.01-9.31-12.53-11.97,19.98.03,40.02-.05,60,0,2.48-2.32,17.92-3.88,20.45-2.97,1.07.38,1.93,1,2.55,1.97,14.12.06,37.04-.54,50.5,1,5.83.67,12.44,5.52,13.45,11.55.96,5.72.89,31.04-.01,36.88-1.05,6.79-6.89,10.22-12.94,11.56Z"/>
  <path class="st8" d="M167,152c3.84,4.42,3.99,7.5,6.46,12.04,9.58,17.58,19.09,35.19,31.54,50.96-15.98.03-32.02-.07-48,0-20.23-25.3-27.99-59.38-23.88-91.38.64-4.97,1.65-20.26,9.45-14.69,2.3,1.64,3.23,11.33,4.66,15.33,4.64,12.91,11.44,18.17,19.76,27.74Z"/>
  <path class="st3" d="M364,214c-6.92-.03-15.38,1.02-23,1,29.32-48.97,35.06-111.64,17.31-165.82-.31-.95-1.69-3.71-.31-4.18,7.24,4.58,16.95,26.98,20.02,35.48,15.83,43.9,14.67,95.17-14.02,133.52Z"/>
</svg>