<?xml version="1.0" encoding="UTF-8"?>
<svg id="Layer_1" xmlns="http://www.w3.org/2000/svg" version="1.1" viewBox="0 0 384 384">
  <!-- Generator: Adobe Illustrator 29.7.1, SVG Export Plug-In . SVG Version: 2.1.1 Build 8)  -->
  <defs>
    <style>
      .st0 {
        fill: #e75d5d;
      }

      .st1 {
        fill: #b1b1b1;
      }

      .st2 {
        fill: #e1e1e1;
      }

      .st3 {
        fill: #ee9191;
      }

      .st4 {
        fill: #d2d2d2;
      }
    </style>
  </defs>
  <path class="st2" d="M230,194.25c-1.91,2.7-7.86.7-10.69-.46-4.73-1.93-12.28-5.92-16.45-8.83l-.61-1.97c-.85-.39-1.04-2.29-3.06-1.88-13.99,6.82-27.83,14.09-41.94,20.63-5.98-8.29-9.92-19.86-11.25-30,1.45.16,2.53-.55,3.77-1.1,13.3-5.98,26.46-12.39,39.73-18.4l2.05-2.02c24.66-10.43,48.69-21.61,72.1-33.55l1.6.31,104.63-46.48c7.62,14.83,4.7,29.35-8.7,39.29-39.21,29.12-85.44,52.97-125.23,81.77-1.65.55-4.49,2.4-5.96,2.67Z"/>
  <path class="st3" d="M146,171.75c-.91-2.35-1.93-4.87-2.94-7.2-.3-.7.44-1.37-1.11-.98l-31.95,14.19c-3-21.24-22.55-36.76-43.21-39.67-43.35-6.09-81.7,39.08-57.89,78.89,14.69,24.56,44.95,29.9,70.34,19.64,25.51-10.31,52.91-23.23,78.01-34.86-4.04-9.87-7.4-20.07-11.25-30ZM81.48,202.29c-4.06,12.88-17.67,15.04-29.48,13.71-1.25-.14-2.25-.65-3.01-1.37-.85-.29-1.69-.68-2.51-1.32-.06-.05-.11-.1-.17-.15-2.96-.81-5.72-2.3-8.14-4.6-4.67-2.71-8.47-6.96-10.45-12.32-4.14-11.25.62-27.31,11.03-33.69,5.31-3.25,12.27-3.06,18.24-2.51,6.5.6,13.25,1.67,19.33,4.14,1.82.74,2.82,2.17,3.17,3.72,11.39,7.63,10.08,19.2,3.1,28.83-.19,1.89-.55,3.75-1.12,5.56Z"/>
  <path class="st0" d="M204.5,272.24l14.25-31.16c.21-1.46-.2-.9-.95-1.27-2.08-1.03-5.03-1.9-7.3-2.82-8.44-5.93-19.03-9.88-29.25-11.25-11.82,25.32-25.63,54.41-35.61,80.26-22.72,58.86,47.33,102.49,86.59,55.09,25.59-30.9,12.87-80.29-27.73-88.86ZM186.59,355.26c-6.72-2.48-13.82-7.38-16.73-14.08-3.34-7.69-2.41-17.79-1.43-25.93.76-6.31,2.36-12.83,7.47-17.06,5.83-4.83,13.96-4.86,21.1-4.18,1.07.1,1.96.47,2.67,1.01.11,0,.22-.01.33,0,12.37.25,19.24,10.23,20.52,21.68,2.09,18.69-10.98,47.06-33.94,38.58Z"/>
  <path class="st4" d="M189.5,152.25l1.92-5.2,82.95-127.04c10.51-12.74,22.31-12.48,37.03-8.01.82.25,1.36-.52,1.06,1.1l-47.22,103.91c-1.37,2.21-3.35,2.76-5.5,3.88-22.02,11.44-47.45,21.05-70.25,31.37Z"/>
  <path class="st4" d="M230,194.25l-19.5,42.75c-9.66-3.92-19.5-7.55-29.25-11.25,6.7-14.36,14.46-28.3,21-42.75,5.69,2.65,13.03,7.86,18.97,9.91,1.83.63,7.1,1.66,8.78,1.34Z"/>
  <path class="st1" d="M233.53,150.91c16.72-3.83,17.18,21.44,1.54,19.18-10.58-1.53-10.47-17.13-1.54-19.18Z"/>
</svg>