<?xml version="1.0" encoding="UTF-8"?>
<svg id="Layer_1" xmlns="http://www.w3.org/2000/svg" version="1.1" viewBox="0 0 737.28 1105.92">
  <!-- Generator: Adobe Illustrator 29.6.1, SVG Export Plug-In . SVG Version: 2.1.1 Build 9)  -->
  <defs>
    <style>
      .st0, .st1, .st2 {
        fill: #583411;
      }

      .st3 {
        fill: #090605;
      }

      .st4 {
        fill: #170e09;
      }

      .st5 {
        fill: #8a4d25;
      }

      .st6 {
        fill: #423c68;
      }

      .st7 {
        stroke: #120f0d;
      }

      .st7, .st8 {
        fill: #120f0d;
      }

      .st7, .st1, .st9, .st2 {
        stroke-miterlimit: 10;
      }

      .st10 {
        fill: #fafaf6;
      }

      .st11 {
        fill: #080808;
      }

      .st12 {
        fill: #0d0805;
      }

      .st1, .st9, .st2 {
        stroke: #000;
      }

      .st9 {
        fill: #504677;
      }

      .st9, .st2 {
        stroke-width: 2px;
      }

      .st13 {
        fill: #020202;
      }

      .st14 {
        fill: #070604;
      }

      .st15 {
        fill: #060504;
      }

      .st16 {
        fill: #050505;
      }

      .st17 {
        fill: #a7472b;
      }

      .st18 {
        fill: #eeeeec;
      }

      .st19 {
        fill: #262524;
      }

      .st20 {
        fill: #272524;
      }

      .st21 {
        fill: #f9f9f9;
      }

      .st22 {
        fill: #371e00;
      }

      .st23 {
        fill: #493e36;
      }

      .st24 {
        fill: #0e0805;
      }

      .st25 {
        fill: #030201;
      }

      .st26 {
        fill: #fafafa;
      }
    </style>
  </defs>
  <path class="st16" d="M200.34,661.11c-.61,4.15-1.37,8.44-2.19,12.82,14.27,3.18,26.16,6.33,40.34,9.82-1.5-5.85-.57-15.19,2.21-22.38l15.74-59.6-5.87,47.37c.17,3.14,4.47,4.94,6.84,6.2,1.89,1,5.15.94,5.58,3.49,1.43,8.2-1.03,21.26-.03,30,0,.21.01.42.02.63,20.44,4.52,41.17,8.01,62.35,8.89,28.28,1.17,56.9,1.19,85-2.05,26.97-3.11,54.05-8.33,80.41-13.98.77-.17,1.54-.34,2.31-.5-.08-8.17-.27-16.35-.14-24.5.23-.86,13.37-3.43,12.46-8.14l-5.13-49.83c1.09-.2.86,1.51,1.06,2.43,4.55,19.77,3.94,19.55,7.86,39.41.74,3.82,8.11,30.19,8.71,34.69,13.37-3.52,26.54-7.55,39.39-12.27-5.38-35.71-7.93-72.47-13.52-108.23-2.26-14.54-5.18-29-7.79-43.34,3.41-1.86,14.09-6.94,13.46-11.46-9.25-22.97-16.52-47.05-26-69.88-14.8-35.71-32.7-49.77-66.29-61.45-5.64-1.94-30.04-4.03-32.74-7.32l-89.91-5.76c-4.07,5.4-18.82,9.28-24.69,11.42-31.39,11.51-56.61,21.94-72.11,56.6-10.85,24.31-18.9,51.43-29.09,76.19-.17.69-.2,1.37-.03,2.06.54,2.09,10.45,8.14,12.94,8.74-2.52,13.86-5.5,27.8-7.7,41.85-5.61,35.83-8.19,72.22-13.46,108.08Z"/>
  <path class="st11" d="M488.41,1047.26c-2.26-1.83-8.05-4.37-9.18-5.56-1.72-1.82-4.05-11.6-7.36-15.31-6.27-7.01-15.02-7.97-15.16-13.86s.41-8.02.74-12.96c.29-4.42,1.42-9.95,1.77-13.4,3.52-34.8,5.11-72.72,7.36-107.78,4.3-67.17,7.36-131.63,16.82-194.53-.16-7.48-1.93-17.95-1.49-25.14.3-4.94,5.51-3.62,7.05-6.28.85-1.48.47-5.53-.25-10.01-.45-.43-.87-.88-1.22-1.38-.24-.35-.42-.75-.54-1.18l-217.98-8.03v3.6c0,1.53-.79,2.88-1.93,3.79-.65,2.85-1.09,5.46-.94,7.23.37,4.37,3.79,7.46,7.99,7.97.6,4.53-.67,9.34-.79,13.59,7.16,129.08,16.77,214.79,22.77,325.5.72,3.88-.11,12.58.74,13.84.77,1.14-.88,9.18-1.9,10.39-1.9,2.27-8.69,4.89-11.5,7.92-3.99,4.3-6.06,13.88-7.93,15.81-1.06,1.09-5,2.27-6.69,3.38-13.13,8.67-19.87,22.64-18.5,38.39,2.53,29.04,48.03,23.53,66.91,15.79,9.95-4.08,32.76-19.26,37.55-28.64,3.6-7.03,3.34-18.12,2.74-26.03-.78-10.33-7.96-33.22-7.82-42.9.09-6.48-4.31,3.34,0,0,4.61-95.66,14.55-191.57,25.09-287h5.75c.85,8.09,7.05-5.84,8.03,2.24,2.73,22.64,5.49,69.71,6.77,92.47,3.59,64.07,9.28,119.95,10.31,184.34-.15,7.66-.82,9.84-.64,16.35.26,9.29-5.62,23.79-6.48,33.79-1.49,17.27-1.05,26.62,11.84,38.5,20.24,18.66,45.8,26.87,73.18,21.36,31.97-6.44,24.56-40.34,4.9-56.28Z"/>
  <path class="st11" d="M258.26,603.01l-.03-.06c-.32-.3-.6-.64-.83-1.01-.66,2.69-1.32,5.39-1.98,8.09.2-.16.42-.3.65-.44.58-2.21,1.33-4.42,2.19-6.59Z"/>
  <path class="st11" d="M270.15,623.14c-.06,1.17-.07,2.34-.03,3.53.24-1.32.33-2.38.19-3.04-.03-.15-.09-.31-.16-.48Z"/>
  <path class="st2" d="M402.81,348.25c6.19-1.78,11.15-6,17.26-7.91-.24,5.3-1.03,18.93,3.32,21.58.05.05.37.87.74,1.43,5.51,8.28,16.53-.88,3.73,17.52-23.14,33.27-96.84,30.68-105.59-13.39.35-3.06,5.29-2.39,7.22-4.71.97-1.17,2.85-.25,3.55-1.57,1.79-6.57,2.67-13.2,2.88-20.15,21.92,10.34,42.68,16.39,66.89,7.19h0Z"/>
  <path class="st2" d="M492.01,212.51c2.27-2.81,2.73-6.71,5.03-9.71,7.1-9.23,21.12-7.79,24.11,3.93,2.13,8.36-1.24,30.35-4.57,38.64s-11.86,17.34-20.5,20.5c-1.97.72-10.59,2.25-12.04.52-.83-.99,6.94-21.69,7.23-25.48.07-.97.62-4.45-.7-4.66-8.15,37.24-20.94,73.24-53.01,96.28-19.09,13.71-50.25,24.69-73.62,19.95-26.4-5.36-62.94-32.48-77.24-55.13-12.41-19.66-16.05-40.97-21.29-63.25-1.25-.17-.68,1.64-.71,2.51-.25,6.19,3.63,12.31,4.77,18.38.3,1.6,3.51,9.47,3.42,9.99-.47,2.79-14-.87-16.1-1.75-4.88-2.05-7.89-5.17-10.47-9.68-.49-.86-.93-2.82-1.06-2.91-.14-.1-1.78.99-2.14.74-.58-.42-4.36-11.77-4.84-13.52-2.79-10.07-6.48-30.56,1.24-38.65,8.7-9.11,10.59-4.97,15.48,2.99-.99-23.49-5.55-44.68,9-62,6.79-8.08,32.66-23.62,39-32,8.32-10.99,21.62-6.33,28.94-17.99,11.77,9.57,96.84-6.55,110.06.99,27.31,15.58,19.13,31.37,47,45,22.3,10.91,4.17,51.27,2.99,76.31h.02Z"/>
  <path class="st19" d="M354.61,1057.71c.23,7.86-3.96,14.49-9.72,19.41-21.4,18.28-51.71,31.11-80.03,21.09-7.34-2.6-14.24-12.06-11.31-19.63,10.46,15.34,36.07,14.76,52.16,10.44,15.23-4.09,28.29-14.04,40.61-23.41l8.29-7.89h0Z"/>
  <path class="st20" d="M501.34,1080.74c.57,11.16-5.11,14.96-14.71,18.01-27.28,8.68-56.44-2.7-76.97-20.91-4.99-4.43-8.13-11.29-8.28-17.97,4.23,3.55,7.82,7.78,12.28,11.09,7.25,5.37,19.96,13.32,28.34,16.27,18.6,6.55,43.66,6.78,59.35-6.49h-.01Z"/>
  <path class="st5" d="M269.32,540.14l-.31-2.64-.6,3.4c.27-.3.58-.55.91-.77Z"/>
  <path class="st5" d="M265.44,559.7c-.09-.2-.17-.42-.24-.64l-.61,3.43c.31-.93.6-1.86.84-2.79Z"/>
  <path class="st5" d="M274.71,601.05c-1.58,5.82-3.28,11.61-4.11,17.52.07.07.14.15.21.22,1.86-4.63,2.05-9.79,3.29-14.57.14-.55,1.18-.59,1.21-.67h-.01c.15-.37-.49-1.47-.59-2.5Z"/>
  <path class="st0" d="M299.94,1015.98l-22.13-336.35c9.75.99,79.37,23.11,89.23,22.67,3.13-.14-20.76,304.52-19.57,305.35.53.37.56.91.67,1.48,1.8,9.2-9.88,18.34-16.91,22.54-7.55-10.28-18.15-16.63-31.28-15.69h-.01Z"/>
  <path class="st0" d="M471.87,704.95l-17.27,311.03c-8.87-.58-18.08,1.99-24.8,7.93-1.69,1.5-4.97,6.47-6.49,6.46-2.16-.01-10.4-8.4-11.86-10.45-2.89-4.07-18.71-304.79-18.2-309.96,15.6,3.41,72.29-4.45,88.05-5.89h-3.24l-6.18.88Z"/>
  <path class="st3" d="M426.36,153.68c12.01-2,34.05,3.54,42.98,12.06.97.93,7.53,9.1,7.54,9.71.02.82-1.23.98-2.16.76-6.07-1.44-12.84-6.5-18.69-8.66-10.47-3.87-21.83-2.26-32.57-4.84-4.65-3.73-2.68-8.1,2.9-9.03Z"/>
  <path class="st14" d="M281.97,172.21c-1.62-1.8,6.83-12.53,8.6-14.05,9.06-7.76,29.26-9.53,40.29-6.43,2.44.69,9.92,3.18,5.72,5.68-2.24,1.34-19.99,3.29-24.54,4.23-5.9,1.22-13.93,2.87-19.44,5.02-3.83,1.49-6.74,4.4-10.63,5.55Z"/>
  <path class="st12" d="M397.05,262.16c-.59,5.7-10.87,8.6-15.66,9.15-12.11,1.39-28-4.79-19.17-19.18,1.48-2.42,5.42-7.5,8.29-4.06,2.25,2.7-4.26,4.71-6.21,8.3-3.9,7.16-.56,8.16,6.14,9.76,10.24,2.44,16.98-1.47,26.62-3.96h-.01Z"/>
  <path class="st4" d="M506.38,216.83c2.56,2.6-7.41,6.86-8.28,8.62-2.31,4.7,3.44,16.75-5.39,17.99,4.08-4.63.35-9.16.67-14.01.3-4.59,7.69-13.69,12.99-12.6h.01Z"/>
  <path class="st24" d="M261.82,242.01c-1.46-.78-3.27-3.14-3.55-4.71-.49-2.69.75-10.87.35-11.82-1-2.38-7.51-7.36-9.01-10.08,5.82,1.08,10.94,4.93,11.54,11.11.31,3.15-.66,6.64-.53,9.3.09,1.72,1.89,4,1.2,6.21h0Z"/>
  <g>
    <path class="st21" d="M459.08,236.06c-1.53,1.93-3.65,3.55-6.34,4.87-8.43,3.39-16.68,4.68-25.37.9-11.95-5.21-18.26-18.06-15.59-31.31,10.64-20.41,40.95-22.36,52.05-6.59,6.12,11.04,5.3,24.49-4.76,32.13h.01Z"/>
    <path class="st7" d="M457.44,237.81c-.81.8,2.31-.64,2.84-1.71,11.39-9.93,7.28-25.66,4.39-29.87-15.32-22.27-50.75-8.91-53.5,7.77,0-2.29.63-5.58,2.75-8.41,11.48-12.83,18.04-13.96,24.38-14.6,30.11,1.1,37.5,31.25,20.78,45.08l-1.64,1.74h0Z"/>
    <path class="st23" d="M452.74,240.93c1.46-1.92,4.74-3.29,6.34-4.87l.58.61h0"/>
    <path class="st22" d="M453.32,231.8c-1.87,1.58-4.69,3.31-6.92,4.26-8.69,1.95-17.02,1.32-22.85-6.68-7-9.62-5.03-24.66,5.16-30.89,21.25-13.01,41.53,15.58,24.61,33.31Z"/>
    <path class="st8" d="M453.32,231.8l4.33-7.91c5.06-11.02-3.15-25.89-14.48-27.31-29.17-3.62-30.2,36.94-6.86,39.46h10.09c-24.48,10.4-38.59-26.55-16.54-39.04,21.79-12.34,41.12,19.88,23.46,34.78h0v.02h0Z"/>
    <path class="st15" d="M444.09,206.86c-.86,4.39-.39,5.69,4.03,4.87,1.72-.34,1.14.94,1.16,2.1.13,8.82-5.91,14.78-14.06,11.2-9.28-4.08-6.59-16.87,2.94-18.63,2.7-.49,3.88.24,5.92.46h.01,0Z"/>
    <path class="st18" d="M448.13,211.73c-2.93,4.27-8.36-1.4-4.03-4.87.18,0,.96-.67,1.87-.5,2.41.45,3.65,3.21,2.16,5.36h0Z"/>
  </g>
  <g>
    <path class="st21" d="M296.36,234.66c-10.07-7.63-10.89-21.09-4.76-32.13,11.09-15.77,41.4-13.82,52.05,6.59,2.67,13.25-3.63,26.1-15.59,31.31-8.69,3.78-16.93,2.49-25.37-.9-2.7-1.32-4.81-2.94-6.34-4.87h.01Z"/>
    <path class="st7" d="M296.35,234.66c-16.72-13.81-9.32-43.96,20.78-45.08,6.34.65,12.89,1.78,24.38,14.6,2.12,2.84,2.75,6.14,2.75,8.41-2.75-16.68-38.18-30.06-53.5-7.77-2.89,4.19-7,19.92,4.39,29.87.53,1.07,3.65,2.52,2.84,1.71l-1.64-1.74h0Z"/>
    <path class="st23" d="M295.77,235.27h0l.58-.61c1.6,1.58,4.88,2.95,6.34,4.87"/>
    <path class="st22" d="M326.73,197.09c10.19,6.23,12.16,21.27,5.16,30.89-5.83,8-14.16,8.63-22.85,6.68-2.23-.95-5.05-2.68-6.92-4.26-16.92-17.73,3.36-46.32,24.61-33.31h0Z"/>
    <path class="st8" d="M302.11,230.38c-17.67-14.9,1.67-47.12,23.46-34.78,22.06,12.49,7.95,49.43-16.54,39.04h10.09c23.34-2.52,22.31-43.08-6.86-39.46-11.34,1.42-19.54,16.29-14.48,27.31l4.33,7.91h0v-.02h0Z"/>
    <path class="st15" d="M311.36,205.46c2.04-.22,3.22-.95,5.92-.46,9.53,1.76,12.22,14.55,2.94,18.63-8.15,3.58-14.19-2.38-14.06-11.2.01-1.16-.56-2.44,1.16-2.1,4.42.82,4.89-.48,4.03-4.87h.01,0Z"/>
    <path class="st18" d="M307.3,210.31c-1.49-2.15-.26-4.91,2.16-5.36.91-.16,1.69.52,1.87.5,4.33,3.47-1.1,9.14-4.03,4.87h0Z"/>
  </g>
  <path class="st13" d="M401.94-.8c3.16,2.62,4.97,6.88,9.86,6.83,3.57-.04,7.9-3.69,8.95,1.81.19.97-.08,2.66.91,3.38,1.83,1.34,4.44-1.72,5.77-.43.82.78.04,3,.22,4.25.48,3.29,5.41-.37,7.18,1.41,1.28,1.29-.14,4.27-.3,5.87-.64,6.43,4.6,4.35,8.95,4.77,4.63.45.22,4-.38,5.8-1.19,3.6,5.36,2.12,5.99,4.14.72,2.34-2.95,4.46-2.06,6.24.72,1.44,6.05.32,7.54,1.27,1.65,1.04-.29,2.38-.52,3.35-.75,3.23,4.42,2.21,4.81,3.39.5,1.49-4.01-24.3-3.98-22.38.02,1.44,3.59,1.87,3.59,3.4s-3.66,2.31-3.34,3.38c1.26,1.23,4.64.56,4.86,2.82s-4.77,5.51-4.67,8.49c.11,3.38,5.94,3.65,6.22,5.76s-3.28,2.58-4.18,4.26c-1.6,3,2.71,5.15,1.87,7.54-.2.56-.85.53-.8.93.03.28,1.23,3.87,1.4,4.22.75,1.58,2.52,1.57,3.92,2.41,2.08,1.26,4.98,3.7,6.89,5.3,37.75,31.72,39.03,85.35,29.03,129.3l.15.46c-4.85,2.38-8.51,6.03-11.79,10.19-1.58.37-.71-1.43-.23-2.29l2.7-4.39c.64-1.36.85-2.58-.5-3.62-2.39-1.63-3.36-3.13-.99-5.28,2.81-1.65,3.54-2.73,2.21-3.21-3.72-.52-6.51-1.7-6.42-5.83.07-3.08,2.04-5.51,5.27-3.63l3.83,2.52c-.28-2.68-4.43-8.75-7.65-6.71-2.61,2.79-4.64,2.05-4.13-1.77.47-3.51,2.59-5.01,5.38-6.8.06-1.18-5.52-1.51-6.52-1.34-3.96,1.08-6.21.37-5.36-3.92.78-3.93,3.19-5.6,6.41-7.69,4.07-3.17-1.11-11.29-5.87-9.32-3.39,2.55-7.94,5.57-8.62-1.13-.32-3.12.87-5.44,4.3-5.72l3.05-.17c1.04-.3-5.38-4.3-5.8-4.14-5.13-1.59-8.75-4.15-10.92-8.95-3.24-.5-2.91,1.15-2.02,3.31l2.45,4.86c.61,2.27-2.07,1.1-3.25.41-3.41-1.97-6.32-6.1-5.88-10.03l.61-4.29c.27-2.51-1.48-3.73-3.39-4.96-1.96-1.4-1.71-3.68-.82-5.6,2.54-2.95,1.71-7.17-2.77-6.29-.82,1.94-1.23,4.09-1.24,6.43-.35,2.24-1.41,3.82-3.97,2.85l-3.61-2c-2.3-1-3.37-.28-5,1.38-3.43,2.21-8.66-2.45-5.04-5.93l3.61-2.46c-4.57-1.2-6.95,1.87-7.58,5.92-1.62,5.67-11.83,1.75-9.55-3.32,1.34-1.76,2.54-3.34-1-2.18-2.09.68-2.95,2.08-3.67,3.98-.65,1.51-2.07,1.91-3.46,1.07l-2.75-2.06c-1.59-1.03-3.56-1.59-5.21-.43-3.4,3.02-7.02,5.68-11.99,4.32-2.67-.88-5.33-1.16-7.99-.86-4.69,1.48-9.35,2.5-13.68-.56-3.93-3.38-7.01-4.94-11.13-.8-1.17.84-2.89,1.4-3.83-.04-1.19-2.55-2.69-5.03-6.03-4.9-.3.01-.43.22-.33.49,1.58,2.24,2.76,3.94.39,6.22-2.53,2.42-7.19,3.25-8.5-.7-.78-3.8-2.97-7.46-7.59-6.08,2.98,1.86,7.35,4.81,2.96,8.04-1.99,1.47-3.91,1.31-5.48-.7-1.21-1-2.74-.87-4.09-.23-4.62,3.15-7.16,2.72-7.63-1.28l-.39-4.36c-.53-4.49-6.55-.61-4.61,2.47,2.53,4.04,2.69,6.87-1.97,9.39-.81.89-1.24,2.11-1.19,3.29,1.69,5.26.68,9.14-3.54,13.03-1.97,1.81-6.76,4.21-4.37-.55l2-3.6c.98-2.21,1.01-3.86-2.15-3.18-2.22,5.13-6.35,7.56-11.72,9.41-1.84.85-3.67,1.89-4.96,3.41,4.81.41,7.74,1.01,7.4,6.34-.18,2.83-2.31,5.25-5.21,3.22-3.27-2.89-6.55-4.09-9.46.13-1.7,2.47-1.98,5.59.71,7.5l3.83,2.89c2.34,1.91,3.88,9.16-.88,8.55-2.57-.57-5.68-.86-8.15.21-1.04.45-.87.79-.08,1.33,2.54,1.73,4.53,3.27,4.72,6.61.22,3.88-2.03,3.57-4.35,1.3-3.27-1.95-7.14,4.1-7.54,6.75,3.21-2.77,9.03-5.61,9.12,1.22.05,4.28-2.79,5.07-6.48,5.82-.94.33-.89.6-.21,1.25,2.9,2.03,6.12,4.47,1.54,7.11-1.49,1.14-1.19,2.52-.42,4.02,1.12,1.71,2.16,3.45,3.12,5.24.35.9,1.15,3.24-.45,2.82-3.5-4.84-7.53-9.78-13.44-12.13l-.27-.53c-8.89-28.81-6.67-60.95,3.71-89.13,5.15-13.99,17.44-37.08,31.38-44.35,1.57-.82,5.01-1.73,5.91-2.84.77-.94.75-2.18,1.1-3.28-1.2-.79-5.01-.87-5.11-2.46-.12-1.88,4.3-3.57,4.66-5.76.66-3.92-7.05-3.89-5.03-8.24,1.08-2.34,7.21-4.74,7.66-6.7.77-3.34-6.2-1.94-5.49-6.11.18-1.07,1.89-2.61,2.93-2.93,2.37-.74,5.48,1.53,3.83-2.08-.65-1.42-4.22,20.81-2.73,19.42,1.26-1.17,6.59,1.03,7.22-1.05.71-2.36-1.39-6.83-1.29-9.54.07-2.03.84-5.98,2.81-7.09,3.25-1.82,7.74,2.47,9.4,1.36,1.33-.88-2.44-8.01-2.62-9.65-.5-4.47,5.25-1.2,7.59-1.31,6-.31.79-10.47,5.77-10.44,2.19.01,5.63,3.22,6.07-1.62.06-.68-.7-3.27-.09-3.27h3.32c2,0,3.05-1.49,4.31-1.81,3.24-.83,5.26,2.74,7.16,2.2,1.74-.5.87-4.7,3.16-5.05,1.97-.3,2.66.95,4.25,1.21,4.61.76,4.08-5.66,6.62-5.91,2.86-.27,3.81,5.41,8.01,4.09,1.02-.32,1.57-1.42,2.42-1.93,3.12-1.86,4.61,1.8,6.56,1.62,2.28-.21,2.02-4.47,5.81-1.65,1.51,1.12,2.7,3.56,5,2.88,1.74-.52,1.88-4.67,4.29-4.37,2.59.32,3.65,5.33,6.65,4.88,2.09-.31,2.7-5.73,5-6.38h1.33l.06-.02Z"/>
  <path class="st13" d="M441.56,118.34c1.74-.28,2.68.4,3.72,1.55.94,1.04,2.81,3.95,1.97,5.19-1.68,2.49-8.95.56-9.39-1.9-.32-1.75,1.76-4.53,3.69-4.84h.01Z"/>
  <path class="st13" d="M308.79,118.34c1.58-.29,2.7.36,3.72,1.35,2.56,2.49,1.75,4.74-1.61,5.95-2.32.84-7.21,1.2-6.43-2.21.31-1.35,2.7-4.8,4.32-5.1h0Z"/>
  <path class="st13" d="M289.97,137.14c.57-.05,1.66.06,1.93.55.54.96-1.3,5.36-2.14,6.27-1.8,1.97-6.6,1.35-5.67-1.51.8-2.46,2.85-5.04,5.88-5.32h0Z"/>
  <path class="st13" d="M460.07,137.54c1.04-.92,3.8-.08,4.83.65s3.24,4.04,3.12,5.21c-.1,1-1.56,1.62-2.57,1.7-2.45.18-3.47-1.07-4.33-2.9-.36-.78-1.66-4.12-1.05-4.66Z"/>
  <path class="st13" d="M272.67,151.54c3.17-.58,7.06,3.82,6.09,6.5-1.23,3.4-7.5-1.45-7.98-3.49-.32-1.37.27-2.71,1.88-3.01h.01Z"/>
  <path class="st13" d="M478.14,151.54c.75-.08,1.97.16,2.49.66,2.18,2.04-1.49,5.33-3.43,6.31-3.68,1.86-5.14-.65-3.53-3.58.76-1.37,2.72-3.19,4.47-3.38h0Z"/>
  <path class="st13" d="M353.36,114.35c1.4-.14,2.19-.08,3.36.66,2.94,1.85.77,2.74-1.48,3.44-2.1.66-4.85,1.15-5.67-1.39-.69-2.11,1.93-2.53,3.79-2.71h0Z"/>
  <path class="st13" d="M396.79,114.35c1-.15,5.06.35,5.49,1.15.87,1.64-1.04,3.55-2.88,3.56-.94,0-5.63-1.34-5.65-2.25-.02-1.06,1.97-2.3,3.04-2.46Z"/>
  <path class="st13" d="M434.7,117.54c2.07-.2,1,3.13.05,4.06-.74.72-3.71,2.2-4.77,2.12-1.71-.14-1.74-2.8-.77-3.92.82-.95,4.17-2.13,5.49-2.26Z"/>
  <path class="st13" d="M316.77,117.53c.89-.22,5.11,1.38,5.82,2.07,1.2,1.16,1.11,3.96-.77,4.12-1.46.12-4.82-1.91-5.38-3.17-.3-.67-.68-2.78.32-3.02h0Z"/>
  <path class="st13" d="M329.41,115.14c.95-.19,1.4.1,1.93.77,1.19,1.51,2.23,6.29-.7,6.54-3.6.31-3.85-6.79-1.23-7.32h0Z"/>
  <path class="st13" d="M421.38,115.14c3.72-1.01,3.84,7.32-.04,7.33-3.35,0-1.83-6.82.04-7.33Z"/>
  <path class="st13" d="M342.35,112.92c1.17-.68,2.7,1.83,2.84,2.69.16.94.09,4.14-.64,4.8-1.11,1.01-3.05-.51-3.29-1.66-.18-.87.44-5.45,1.08-5.83h.01Z"/>
  <path class="st13" d="M408.76,112.93c1.09-.2,1.3,1.35,1.5,2.17.29,1.19.7,3.36-.01,4.39-.86,1.25-2.9,2-3.37.06-.4-1.64-.57-6.17,1.88-6.62Z"/>
  <path class="st13" d="M481.46,170.34c.5-.06,1.37-.02,1.57.49.84,2.25-3.14,5.65-5.28,4.16s1.98-4.44,3.71-4.66h0Z"/>
  <path class="st13" d="M269.56,170.33c1.9-.48,7.01,3.39,4.4,4.78-2.95,1.57-7.12-4.09-4.4-4.78Z"/>
  <g>
    <path class="st25" d="M345.85,292.8c.77.67-1.42,1.62-1.42,1.76,16.65,7.13,36.18,8.97,54.43,6.84,3.77-.45,8.82-2.07,12.18-2.22,1.47-.07,3.05,0,3.05,1.62-.7.12-4.06-.17-4.26,0-.07.05-.11,1.1-.27,1.53-9.95,28.02-52.67,28.06-65.55,1.24-.65-1.36-2.44-7.08-2.98-7.58-.7-.67-1.76.19-2.68,0-.18-1.74,6.88-3.72,7.49-3.2h.02,0Z"/>
    <path class="st26" d="M404.68,301.58c.29.24-.97,1.62-1.24,1.93-11.78,12.92-37.15,11.47-49.31-.31-.56-.55-4.56-5.05-4.11-5.44,4.99,1.36,9.88,2.98,15,4.01,9.05,1.79,17.73,1.91,26.98,1.43,4.29-.21,8.41-1.29,12.68-1.6h0v-.02h0Z"/>
    <path class="st17" d="M354.15,313.83c2.28-.79,4.47,0,6.59,0,10.9.17,22.56.17,32.35,4.94-11.82,7.44-29.66,4.79-38.93-4.96h0v.02h-.01Z"/>
  </g>
  <path class="st9" d="M474.82,621.59c.77,3.12,7.55,12.9,9.54,16.94,37.08,75.07,59.9,155.92,82.89,234.9.14,2.15,0,3.76-2.78,4.3-14.8,3.35-33.15,3.4-47.58,6.88-1.82.44-1.85.7-2.91,1.83-1.63-.54-2.22-2.1-1.77-4.68l-52.05-215.14c-2.37-2.21-6.45-.52-5.67,2.49l52.33,217.47c1.62,1.01,2.96,2.08,4.03,3.21,1.4,2.05,2.6,6.33-.75,7.03l-62.68,8.35-1.64-.48-32.12-232.04c-2.3-3.08-6.76-1.67-6.2,1.97l31.44,227.26c.29,3.95,1.17,5.86,4.61,7.96,2.04,8.01.37,7.99-8.23,8.69-29.08,2.34-58.51.89-87.74,1.38l-34.27-2.17c-3.96-1.59-1.22-5.21-1.33-7.89,3.45-2.11,4.32-4.01,4.61-7.97l31.52-227.84c.08-3.48-5.24-4.32-6.39-.92l-31.99,231.38-1.67.67-63.25-8.48c-2.59-1-1.5-5.15-.19-6.91,1.95-1.32,3.4-2.84,4.34-4.56l52.01-216.12c.79-3.02-3.34-4.72-5.69-2.45l-52.03,215.13c.44,2.43-.15,3.99-1.77,4.66-.79-.79-1.32-1.86-2.77-1.98l-47.72-6.73c-2.78-.54-2.92-2.15-2.78-4.3,23.59-80.46,46.55-163.37,85.24-239.58,1.51-2.98,6.67-9.87,7.19-12.25l.75-1.34h192.5l.97,1.34Z"/>
  <path class="st6" d="M474.82,621.59h-194.22c1.71-7.89.62-18.26,2.4-26.38.44-2.03,1.89-4.46,4.43-4.91l178.42-.17c3.41-.28,5.79,1.85,6.44,4.53,1.98,8.12.61,19.18,2.53,26.94Z"/>
  <path class="st6" d="M447.41,905.17c.26,1.99-1.55,4.44-3.92,4.68-5.5.57-5.47-4.46-6.16-7.78l-31.45-227.34c-.83-5.21,6.52-7.11,9.23-2.48l32.3,232.92Z"/>
  <path class="st6" d="M311.92,909.85c-2.68-.28-3.84-2.63-3.92-4.68l32.15-232.37c1.56-5.21,10.49-3.55,9.38,1.94l-31.45,227.34c-.69,3.32-.66,8.34-6.16,7.78Z"/>
  <path class="st6" d="M244.58,889.79c-1.81-.29-2.73-2.94-3.13-3.34l.22-4.83,52.23-215.56c2.85-3.66,9.81-1.23,8.59,3.28l-51.86,215.25c-.17,2.52-2.83,5.73-6.03,5.21Z"/>
  <path class="st6" d="M513.97,886.44c-.45.47-1.33,3.05-3.13,3.34s-5.83-1.55-5.61-3.57l-52.29-216.9c-1.22-4.51,5.74-6.93,8.59-3.28l52.23,215.56.22,4.83Z"/>
  <path class="st11" d="M247.77,632.07c-3.35,12.6-6.19,26.01-8.64,38.48-3.82,19.81,8.25,26.11,11.1,42.19l3.71,48.17c-3.16,9.29-14.18-.26-16.71-5.67l-7.06-16.31c-2.68,10.73-3.28,22.45-.52,33.24,1.19,4.65,9.88,21.92,2.15,24.18-4.87,1.42-8-3.61-9.1-3.41-1.63.29-2.03,4.54-7.46,2.28-.89-.37-5.82-4.83-7.03-5.91-31.81-28.35-13.2-86.29-8.35-122.79,1.76-13.23,4.15-26.33,5.66-39.61"/>
  <path class="st1" d="M250.3,736.44c-.55-8.91-1.11-21.64-3.96-29.86-2.24-6.47-9.16-16.26-10.25-22.12-2.08-11.16,7.49-36.61,10.56-48.82,4.11-16.38,7.83-32.85,11.17-49.4.03-.34.08-.67.15-1,.06-.32.15-.62.24-.93,4.18-20.87,7.77-41.87,10.71-62.98l-1.14-.98c-7.8-1.34-15.58-3.23-23.08-5.7-7.12-2.35-13.95-5.96-21.01-8.12.1,11.72-3.46,22.98-5.53,34.4-6.5,35.94-9.3,71.45-13.99,107.6-3.8,29.28-14.79,75.21-11.4,102.99,1.44,11.85,6.71,24.9,15.09,33.47-5.34-13.9-9.98-28.39-9.34-43.54.03-.88-.55-2.68.71-2.51.63,14.55,4.71,30.27,10.9,43.43,1.83,3.89,4.7,12.7,9.99,8.71-8.46-14.61-10.84-31.83-10.08-48.54l3.78,23.91c2.1,7.4,3.08,15.89,8.42,21.8,1.99,2.21,9.94,8.85,10.12,2.18.12-4.47-4.6-14.39-5.59-19.66-1.76-9.32-1.42-21.89.87-31.11.29-1.16,1.97-9.35,3.96-7.9.57.41,3.09,10.87,4.2,13.43,1.62,3.75,3.88,7.67,6.32,10.95,2.68,3.6,3.61,6.06,8.92,5.12h0s-.01,0-.01,0c.04-8.26-.22-16.58-.73-24.82Z"/>
  <path class="st11" d="M557.27,663.6l-57.02-64.26c.05.08,8.87,41.75,8.92,41.84.73,1.16.85,2.44.54,3.61,3.18,10.97,8.95,27.78,8.16,36.23-.75,7.94-5.3,12.39-8.24,19.1-7.42,16.94-4.82,38.42-8.29,56.46,2.09,19.56,14.43,4.22,19.07-4.66l5.37-12.96c3.48,11.26,2.86,24.07-.19,35.41-1.1,4.1-6.06,14.2-5.43,17.3.73,3.57,5.11,5.66,8.55,4.53,1.39-.45,2.47-2.28,3.3-2.44,2.09-.4,4.59,4.45,9.97.61,1.69-1.2,2.38-3.39,3.57-4.34,6.2-4.93,7.21-3.03,12.19-11.55,17.19-29.42,3.82-82.57-.47-114.88Z"/>
  <path class="st0" d="M532.22,507.33c4.05,24.07,8.96,48.12,12.19,72.34,3.15,23.59,5.11,47.41,8.11,71.04,4.28,33.77,13.23,72.23,9.96,105.87-.89,9.11-6.55,20.22-12.59,26.98-.55.11-.43-.65-.36-1.08.99-6.5,5.41-15.31,6.87-22.64,1.56-7.83,2.04-15.79,1.77-23.77h-2.15c.64,16.83-3.49,34.35-11.86,48.95-.88,1.54-4.12,7.14-5.15,7.85-1.52,1.05-3.75.12-3.58-1.75.09-.98,4.61-8.39,5.5-10.78,3.2-8.62,6.87-28.56,5.74-37.44-.17-1.31.25-1.17-1.44-1.07-2.44,14.75-1.93,33.42-11.53,45.67-1.39,1.78-7.83,8.64-9.95,5.3-1.1-1.72,4.97-20.65,5.56-24.8,1.09-7.62,1.65-29.6-3.18-35.5-2.89-3.54-2.97,3.62-3.56,5.73-1.63,5.86-6.21,18.54-11.21,21.89-1.88,1.26-6.45,3.62-7.14.05.72-7.65.81-15.37,1.44-23.02,1.27-15.37,2.52-24.87,8.29-39.2,2.01-5,5.51-9.2,6.08-14.78,1.27-12.48-9.16-42.68-12.45-56.6-8.11-34.3-14.78-68.96-19.97-103.85l.37-1.84c10.65-2.19,21.12-5.02,31.33-8.95,2.23-.86,11.37-5.89,12.9-4.6h.01Z"/>
  <path class="st10" d="M445.07,368.74c10.2,2.05,20.08,6,29.5,10.71,24.08,12.04,34.23,22.55,45.5,49.48,9.77,23.36,18.23,46.7,27.88,70.2.26,1.07-.55,1.5-1.18,2.05-13.08,11.06-37.22,16.95-53.41,17.64-2.25-22.81-2.91-46.34-5.96-69-.17-1.39-1.04-9.21-1.35-9.53-.43-.46-2.62.12-2.85,1.3l20.8,207.31c-21.12,10.48-46.5,15.42-69.57,17.96-47.94,5.23-110.97,4.56-157.64-8.72-3.49-.98-19.59-6.06-21.38-8-.89-.98-.78-1.99-.75-3.26.32-10.31,3.75-25.23,5.04-36.14,6.14-52.05,13.8-107.97,16.19-160.2.17-3.67-.09-7.36,0-11.03-2.13,1.53-2.42,6.03-2.82,8.69-3.43,22.98-3.54,46.68-6.77,69.72-18.55-.43-38.98-6.03-53.99-18.42,9.25-23.36,17.05-48.18,26.85-71.19,3.2-7.51,6.83-15.82,11.55-22.26,15.53-21.28,44.52-31.01,67.11-39.2,3.83,11.09,5.12,19.8,14.22,26.68,18.52,17.97,90.86,24.59,104.66-25.1l8.36-1.72.03,2.03Z"/>
</svg>