<?xml version="1.0" encoding="UTF-8"?>
<svg id="Layer_1" xmlns="http://www.w3.org/2000/svg" version="1.1" viewBox="0 0 379.2 410.88">
  <!-- Generator: Adobe Illustrator 29.7.1, SVG Export Plug-In . SVG Version: 2.1.1 Build 8)  -->
  <defs>
    <style>
      .st0 {
        fill: #fbdc6b;
      }

      .st1 {
        fill: #5f5f5f;
      }

      .st2 {
        fill: #e73166;
      }

      .st3 {
        fill: #e2e2e2;
      }

      .st4 {
        fill: #bfb9c6;
      }

      .st5 {
        fill: #8f6b61;
      }

      .st6 {
        fill: #979797;
      }

      .st7 {
        fill: #f96b55;
      }

      .st8 {
        fill: #d9d9d9;
      }
    </style>
  </defs>
  <path d="M196.56,0c8.84,1.56,15.12,10.75,15.84,19.31.07.82-.22,4.02.23,4.33,84.02,9.93,152.48,83.99,164.62,166.25,2.02,13.72,1.88,27.11,1.71,40.96-2.3,4.81-6.84,5.21-11.62,5.42-7.21.32-14.67,0-21.85-.25-3.24-.12-13.19-.08-15.56-1.72-.78-.54-1.59-2.42-1.83-3.32-1.57-1.63.01-4.47,1.09-6.08.47-.71,1.97-2.79,2.63-1.83l.17-.48h34.7l.29.48-.33-.64c.76-81.92-59.07-162.85-138.91-181.87l-.32-.5c-.31.78-3.1.74-3.48,0,.39.2.59.67.61,1.42,2.94,4.38,6.16,8.63,9.65,12.74,18.77,27.51,27.98,61.11,33.34,93.87,4,24.47,6.08,50.19,6.82,74.5l41.75.05c1.55.94,2.49,2.62,3.03,4.3.46,1.42,1.03,3.93-.17,5.01-.11.43-.89,2.64-1.09,2.87-.29.34-2.51,1.21-2.87,1.21h-103.8v124.61c0,1.65-1.76,6.36-2.4,8.16-5.52,15.69-15.62,30.45-31.28,37.34-28.35,12.47-60.52-3.88-71.14-31.88-3.11-8.2-4.9-19.48-3.07-28.13,3.87-18.25,31.08-23.3,38.47-4.85,3.13,7.81,2.04,22.91,13.38,24.05,8.55.86,13.34-6.69,14.04-14.27,1.34-14.55-5.79-46,2.88-57.2,2.22-1.27,5.37-.4,6.76,1.74.69,1.07,1.75,3.41,1.16,4.49.31,2.19.47,4.39.48,6.6l-.48.35.22-.48h19.29l.29.48c-.36-.52-.21-.62.36-.36l-.48-.23v-69.75l.48-.3-.51.11c-.43-.46-.91-.94-1.47-1.22l-16.75.06c-1.45,5.93-1.57,12.16-1.41,18.27l.68,16.51c-.02,2.88-.1,5.78-.7,8.61.68.43.04,2.43-.24,3.2-1.23,3.49-3.19,4.32-6.72,3.03-2.29-1.89-3.37-1.86-4.02-5.22-1.88-9.74.21-23.37.43-33.51.07-3.41.06-6.85-.49-10.2H4.44c-.12,0-.69-.45-.84-.6-.41-.4-3.27-5.83-3.36-6.36-.09-1.96-.17-3.96-.24-6v-8.4c.09-1.3.17-2.58.24-3.84-.47-18.76,3.78-37.68,10.07-55.3C34.51,87.78,93.71,31.89,166.81,23.43c-.7-1.54-.51-3.18-.21-4.79,1.64-8.7,7.05-18.25,16.76-18.64h13.2Z"/>
  <path class="st1" d="M.24,229.07h-.24v-6c.67,1.77-.08,4.22.24,6Z"/>
  <path class="st6" d="M0,214.67v-3.84h.24c-.02,1.23.22,2.76-.24,3.84Z"/>
  <path class="st7" d="M318.96,231.94c.71-2.83-.48-7.17-3.01-8.87h-41.29c-.25,0-.56,0-.72-.23-.28-.4-.06-4.47-.11-5.41-2.8-52.66-9.19-115.38-38.3-160.57-2.02-3.13-11.09-13.45-11.57-15.55-.1-.42-.06-.84-.05-1.26h3.48c1.13,0,5,1.19,6.36,1.56,74,20.22,130.66,96.36,133.21,172.45.1,2.99-.09,6.01,0,9h-35.16c-.83,0-2.58,2.49-2.97,3.27-.77,1.54-1.22,2.94-.75,4.65-1.96-1.53-4.47-1.47-6.72-.6-1.08.42-1.41,1.2-2.4,1.56Z"/>
  <path class="st3" d="M180,278.72c.63-4.71.92-9.5.88-14.35l.32-.52.22-.48h16.29l.29.48.48.17v41.52l-.48.29-.21.48-16.52.19c-.49-.13-.71-.51-.8-.98-.05-1.83-.21-3.64-.46-5.44-1.26-4.85-2.28-6.8-7.92-6.24,1.21-1.56,3.2-2.38,3.34-4.47.17-2.49-.7-3.02-2.38-4.4,1.1-.1,2.4.15,3.46-.02,2.68-.41,3.01-4.13,3.5-6.22Z"/>
  <path class="st0" d="M263.04,223.07H116.28c-.08,0-.4-.35-.31-.54,3.15-45.44,6.45-92.16,24.32-134.49,9.13-21.63,29.49-58.86,58.38-50.44,20.32,5.92,36.14,37.71,43.2,56.13,15.66,40.9,19.37,85.83,21.18,129.34Z"/>
  <path class="st2" d="M12.36,223.07c-.55-.17-.39-3.04-.37-3.73,2.44-76.29,54.83-154.58,129.61-176.29,4.56-1.32,9.64-2.69,14.4-2.4-20.23,25.56-32.55,56.48-39.72,88.15-6.99,30.88-9.32,62.67-10.2,94.27H12.36Z"/>
  <path class="st5" d="M180,318.77h18.6c.13,0,1.73,1.59,1.57,2.03v36.24c-1.36,6-3.47,12.42-6.37,17.87-18.42,34.58-66.31,29.4-77.47-7.98-2.32-7.79-5.34-26.35,7.83-25.34,10.48.81,8.22,11.67,10.35,18.92,5.13,17.43,28.22,22.86,39.82,8.38.98-1.22,5.66-9.05,5.66-10.17v-39.94Z"/>
  <path class="st4" d="M180,278.72c1.06-13.36-1.83-26.82.27-40.14.2-1.25.46-2.49.71-3.73l17.15-.04c.44-.16,2.03,1.44,2.03,1.57v70.28s-.33.36-.36.36h-19.8v-6.96c.08.33.31.66.41,1.15.27,1.31.22,3.34.59,4.45.06.19.14.32.35.37l16.65-.21v-41.98h-16.8c-.02,4.16.16,8.42-.54,12.53-.13.78-.49,1.6-.66,2.34Z"/>
  <path class="st8" d="M180,25.19c-.45-6.68,3.87-14.04,11.37-13.17,3.56.42,5.96,3.32,7.22,6.45.42,1.04,2.19,6.71,0,6.71h-18.6Z"/>
</svg>