<?xml version="1.0" encoding="UTF-8"?>
<svg id="Layer_1" xmlns="http://www.w3.org/2000/svg" version="1.1" viewBox="0 0 1024 1024">
  <!-- Generator: Adobe Illustrator 29.7.1, SVG Export Plug-In . SVG Version: 2.1.1 Build 8)  -->
  <defs>
    <style>
      .st0 {
        fill: #00b763;
      }

      .st1 {
        fill: #fe057f;
      }

      .st2 {
        fill: #00964f;
      }

      .st3 {
        fill: #00a5fc;
      }

      .st4 {
        fill: #371c8a;
      }

      .st5 {
        fill: #fe9625;
      }

      .st6 {
        fill: #28b44a;
      }

      .st7 {
        fill: #cd1666;
      }

      .st8 {
        fill: #fe570c;
      }

      .st9 {
        fill: #fe9425;
      }

      .st10 {
        fill: #fecc00;
      }

      .st11 {
        fill: #009550;
      }

      .st12 {
        fill: #0074ba;
      }

      .st13 {
        fill: #a3db52;
      }

      .st14 {
        fill: #fecf0c;
      }

      .st15 {
        fill: #e50490;
      }

      .st16 {
        fill: #71d022;
      }

      .st17 {
        fill: #e10394;
      }

      .st18 {
        fill: #fe9525;
      }

      .st19 {
        fill: #4b4799;
      }

      .st20 {
        fill: #fe1034;
      }

      .st21 {
        fill: #a3dc50;
      }

      .st22 {
        fill: #00a0aa;
      }

      .st23 {
        fill: #fe163f;
      }

      .st24 {
        fill: #00a1aa;
      }

      .st25 {
        fill: #d80b5a;
      }

      .st26 {
        fill: #fd4800;
      }

      .st27 {
        fill: #00954f;
      }

      .st28 {
        fill: #571a8b;
      }

      .st29 {
        fill: #fe057e;
      }

      .st30 {
        fill: #e20492;
      }

      .st31 {
        fill: #161714;
      }

      .st32 {
        fill: #74d121;
      }

      .st33 {
        fill: #fecf0b;
      }

      .st34 {
        fill: #00a5fe;
      }

      .st35 {
        fill: #f41f5d;
      }

      .st36 {
        fill: #0079cf;
      }

      .st37 {
        fill: #0078cf;
      }

      .st38 {
        fill: #fe6d1b;
      }

      .st39 {
        fill: #fd1034;
      }

      .st40 {
        fill: #f46314;
      }

      .st41 {
        fill: #e10493;
      }

      .st42 {
        fill: #00a6fe;
      }

      .st43 {
        fill: #ad6ed2;
      }

      .st44 {
        fill: #fe1a4b;
      }

      .st45 {
        fill: #fb5a0c;
      }

      .st46 {
        fill: #76d221;
      }

      .st47 {
        fill: #fe1c4f;
      }

      .st48 {
        fill: #fe047e;
      }
    </style>
  </defs>
  <path class="st31" d="M402.34,89.47l5.71,1.93c58.66,44.67,151.42,54.17,207.06-.38l4.84-1.55,8.44-10.36c16.83,2.42,64.08,19.46,80.16,26.22,51.38,21.59,100.31,45.06,135.78,91.67l39.1,46.35c23.58,23.72,46.5,47.63,68.77,71.71l42.34,60.13-11.93,24.93-31.18-55.47-34.29-37.13c-26.08,23.04,12.06,48.88,34.57,49.66l16.91.82-15.41,22.75c-1.13,2.02-2.32,4.08-4.02,5.65-25.35,23.33-47.64,43.93-68.63,72.09-9.98,13.39-23.17,31.73-29.94,46.83-.06.13,2.17-.05,2.64-.15,11.53-2.25,32.99-20.67,41.93-29.66,17.92-18.03,35.29-36.56,52.69-55.15,1.61-1.3,3.38-2.25,5.33-2.87,0,0,20.76-68.1,38.45-48.33,16.48,18.42-39.68,78.59-40.85,79.91-18.88,21.36-41.97,45.03-64.12,61.8-33.27,25.18-46.08,21.62-75.8-7.14-7.44-8.06-15.1-15.87-22.98-23.44,5.49,136.27,16.63,276.65,29.59,411.99,1.69,26.88-2.76,37.03-26.53,46.55-39.45,15.8-92.64,23.24-135.45,28.04-97.27,10.9-196.88,13.19-294.37.81-45.19-5.74-90.54-14.88-133.44-28.03-31.85-9.77-42.6-27.27-35.06-63.17,9.22-51.54,13.83-104.77,17.78-157.75,4.85-81.09,11.5-161.73,19.97-241.92-12.2,12.87-24.79,25.56-37.78,38.07-8.06,7.49-14.25,12.34-25.62,10.14-26.08-5.04-70.31-52.71-88.04-72.25-.69-.76-1.21-1.69-1.72-2.65s-52.75-67.88-53.13-68.93l12.34-8.17c2.05.7,43.4,48.88,45.1,50.25l39.18,40.55c1.95,2.77,45.09,43.58,51.12,40.06,4.31-2.51-34.32-54.52-37.78-58.71-17.98-21.79-34.28-38.04-54.89-56.89-1.44-1.32-28.28-22.97-29.16-24.72l16.04-9.03c5.18,1.04,22.56,12.91,24.42,18.13.82.1,1.62.24,2.39.5s1.48.52,2.04.99c15.36,12.88,29.41,27.58,42.99,42.45l3.12,6.25c.7.13,1.38.3,2.02.58,4.37,1.9,21.5,26.57,25.78,32.75,7.19,10.39,14.28,20.97,18.95,32.9,1.14,1.85,31.65-25.2,22.62-32.89-9.16-12.86-21.38-22.92-36.66-30.18-27.89-15.74-21.76-43.62-14.2-70.56,2.93-15.72-.67-16.95-15.55-13.87-20.23,6.29-38.02,5.33-57.01-3.07l-9.02,10.69-2.03-.72-51.82,32.72c25.94-27.94,103.76-119.08,129.82-150.6,30.42-36.14,62.12-68.04,101.81-91.62,32.56-19.34,68.55-35.63,104.22-47.92l26.57-8.66,15.8,7.04Z"/>
  <path class="st10" d="M66.08,354.57c3.05-1.54,18.13-17.37,20.58-17.77,2.96-.49,13.45,4.95,17.52,5.9,19.67,4.61,30.97-2.76,48.44-4.05,10.79-.79,9.64,5.17,8.88,14.65-.9,11.24-5.97,22.07-6.77,33.25-2.52,35.15,26.73,37.91,46.74,56.03,6.92,6.26,16.39,16.46,9.84,26.47-2.37,3.62-11.04,11.85-14.56,15.24-2.94,2.84-6.52,5.51-9.43,8.5-5.27-15.07-15.28-29.23-24.52-42.03-6.62-9.17-14.46-19.32-21.76-27.88-4.23-7.57-4.8-17.05-3.96-25.61l3.14-16.52c4.52-17.11-8.34-21.23-21.8-15.57-8.18,3.13-16.42,6.02-24.73,8.68l-3.2-1.18c-4.72-4-9.98-7.44-14.56-11.65l-9.86-6.47Z"/>
  <path class="st2" d="M986.84,380.58c-22.21,21.97-65.18,77.63-88.79,98.06-7.79,6.74-35.83,27.71-45.62,28.44-1.61.12-2.72.29-3.74-1.31,25.61-49.11,75.65-108.17,117.46-142.61l20.69,17.42Z"/>
  <path class="st27" d="M50.03,363.6c26.75,20.94,76.96,68.43,97.35,96.13,7.59,10.31,17.78,24.32,23.12,35.87,3.57,7.71,6.22,13.19-5.19,8.12-6.19-2.75-17.37-12.44-22.96-17.21-23.73-20.29-84.79-89.88-107.13-111.73l14.81-11.17Z"/>
  <path class="st34" d="M953.21,344.01l9.65,17c-6.28-1.08-20.94-3.18-27.01-5.56-21.65-8.52-42.18-29.68-19.05-50.86l36.41,39.42Z"/>
  <path class="st29" d="M270.41,318.02c1.43-40.09-4.83-84.5-18.83-122.37-1.34-3.63-10.15-21.16-10.06-22.4.32-4.45,7.87-3.91,10.89-2.66,14.01,5.81,24.91,26.46,27.29,41.36,5.81,36.38.18,83.62,35.54,105.33,17.96,11.03,67.62,21.26,63.89,50.41-2.7,21.15-58.88,71.67-73.44,93.46-20.03,29.97-4.79,55.05,20.48,72.36,32.76,22.44,90.56,48.2,93.34,96.84,1.12,19.53-7.14,16.44-20.38,20.86-25.91,8.64-48.65,32.05-59.2,58.17-7.56,18.72-9.64,50.28,13.59,56.79v1.31c-5.83,10.44-11.09,38.49-21.19,44.18-11.91,6.72-25.11-3.86-36.74-5.06-13.51-1.38-27.91,6.63-33.03,19.89-11.45,29.65,22.17,39.42,36.12,57.54,12.96,16.85,10.54,33.77,5.1,53.25-.79.71-17.89-2.93-20.5-3.52l-1.52-2.04c2.02-16.04,1.81-32.52-11-43.72-26.31-22.09-55.95-51.81-24.1-85.37,13.9-10.41,29.45-17.99,46.65-22.74,16.31-5.97,30.21-15.75,22.54-35.41-14.28-24.47-19.49-38.24,3.62-59.58,12.44-10.08,25.07-19.92,37.89-29.51,22.42-19,37.31-39.62,12.69-64.69-9.14-9.31-20.03-16.55-30.82-23.57-28.52-16.79-58.95-34.84-68.43-70.38-7.58-28.39,3.99-54.8,24.82-73.42,36.2-30.75,66.83-58.63,10.74-91.7-10.38-6.12-21.7-10.85-33.66-11.74l-2.26-1.89Z"/>
  <path class="st34" d="M636.23,832.49l2.06.56c1.59,6.55,4.55,11.91,8.9,16.07l.17,2.19c-12.9,6.96-24.47,14.46-17.88,31.7,5.14,13.44,24.48,24.3,36.15,31.19,13.32,7.87,28.8,13.56,39.98,24.5-10.7,2.9-22.04,5.38-33.08,6.61-11.99,1.33-14.18,1.68-23.47-6.6-19.71-17.56-33.54-39.12-55.75-55.51-24.84-18.33-55.02-26.79-79.15-47.16-20.99-17.73-54.09-66.02-77.53-71.26-39.76-8.9-44.52,39.63-59.63,62.27-8.35,12.51-30.32,24.98-34.79,35.31-10.86,25.08,27.33,40.1,40.86,52.57,10.13,9.34,19.27,22.82,24.39,35.87-28.86-.12-57.17-7.04-85.67-10.75,2.28-11.55,5.4-22.36,4.18-34.39-1.29-12.82-10.9-28.86-19.16-38.22-6.53-7.4-40.68-29.37-21.05-39.03,17.1-8.42,36.06,14.88,57-2.21,13.93-11.37,20.61-40.03,29.43-57.05,23.07-44.54,47.03-67.11,89.7-27.21,29.27,27.38,49.44,62.43,86.63,80.56,23.35,11.38,63.11,18.81,87.69,9.99Z"/>
  <path class="st43" d="M270.41,318.02c18.82.32,39.82,12.1,53.99,24.63,37.99,33.62-7.07,62.06-30.01,84.25-41.41,40.07-25.91,91.42,17.22,120.94,19.47,13.32,71.1,38.57,72.78,65.47,2.49,39.97-64.92,61.03-77.02,89.78-10.24,24.33,18.83,36.61,11.08,59.09-9.54,27.69-72.3,19.37-82.54,62.43-7.91,33.27,26.39,48.22,41.8,68.81,8.53,11.39,6.89,26.81,5.56,40.34-2.15-.48-14.79-3.11-15.25-3.77-.86-4.51-1.43-9.14-2.93-13.5-9.47-27.54-47.64-31.68-49.49-64.74,3.56-22.31,5.15-45.18,9.41-67.23,15.64-9.23,55.03-15.56,62.11-34.51,5.42-14.5-11.05-26.58-9.64-40.52,3.6-35.76,72.57-46,69.22-91.71-2.23-30.4-34.26-42.96-54.62-57.58-18.54-13.32-42.09-37.66-43.96-62.46-.89-11.74,2.3-44.34,6.53-55.08s26.88-26.84,35.5-35.46c24.53-24.56,25.66-54.27-13.3-59.6-2.21-.3-7.46.79-8.63-.87.77-8.52.99-17.06,1.36-25.63.05-1.29.83-2.57.85-3.1Z"/>
  <path class="st29" d="M667.92,572.57l2.02,1.3c1.6,7.55,3.6,15.33,8.43,21.37l-.16,2.43c-19.58,5.49-42.97,22.38-58.66,35.88-24.64,21.18-41.49,50.3-28.72,84.23-2.19,5.2-11.57,5.44-16.74,5.23-3.96-.16-16.04-2.43-18.89-4.62-.72-.56-.99-1.54-1.21-2.4,4.34-16.09,10.17-43.53,4.91-59.36-9.87-29.66-82.86-36.35-87.79-73.97-2.58-19.7,14.43-55.04,23.03-73.14,6.61-13.91,13.75-36.81,32.62-30.8,21.04,6.7,55.26,45.75,73.94,61.57,15.21,12.88,46.94,37.59,67.23,32.29Z"/>
  <path class="st34" d="M775.87,592.29c-.5.39-1.02.75-1.58,1-5.07,2.27-24.66-7.12-30.09-10.39-24.12-14.53-37.21-37.75-50.24-62.28-8.49-15.45-20.5-27.94-35.28-37.13-27.37-16.72-53.3-33.92-78.57-53.66-12.9-10.08-30.96-26.68-33.79-43.93-.72-4.36-1.49-11.94,2.52-14.1,18.48-4.89,46.29-16.56,63.7-25.22,9.98-4.96,34.76-19.52,36.49-31.75,1.79-12.7-17.41-34.43-23.23-46.39-5.28-10.85-13.9-36.4-4.57-46.31,2.34-2.49,11.31-9.15,14.59-11.62,11.52-8.69,23.63-16.46,38.54-16.22,14.69.24,28.91,11.61,14.05,24.64-12.95,11.35-33.09,19.66-35.04,40.42-3.19,33.88,30.09,38.52,27.41,64.53-4.79,46.47-141.78,54.27-67.97,111.43,33.03,25.58,82.4,37.64,106.85,71.95,12.8,17.96,19.11,41.17,41.05,50.27,7.32,3.04,12.39.27,13.43,10.15.81,7.66,1.3,16.95,1.72,24.64Z"/>
  <path class="st17" d="M437.47,235.56l-.41,2.38c-32.22,20.51-25.02,67.05,6.93,83.11l1.19,2.35c-1.6,36.66.45,56.51-16.99,90.23-11.22,21.69-37.67,47.85-35.26,73.33,1.7,17.98,18.44,30.93,35.12,30.03l1.49,1.6c-.76,4.73,1.07,8.56,5.38,10.53,8.81,3.54,19.88,9.7,19.69,21.03-12.58,36.83,3.54,60.84,32.62,79.25,13.17,8.34,42.26,19.49,50.48,31.44,6.16,8.95,3.69,24.44,1.45,34.67-1.49,6.81-4.23,18.4-12.91,17.73-7.58-.59-20.4-17.88-26.23-23.27l-.27-2.12c19.27-13.53,12.15-25.65-21.34-36.34-15.71-6.67-24.41-22.52-29.61-38.72-7.62-28.22-17.06-55.33-41.69-72.21l-19.66-15.1c-43.62-29.2-18.45-74.83,9.76-103.5l.41-3.62c23.65-30.87,38.25-91.32-5.84-110.11l-1.42-2.79c-1.11-1.82-1.76-4.23-1.94-7.24l-6.06-12.73c-2.84-8.51-5.44-20.53,1.14-27.54,1.04-2.55,18.66-26.71,21.44-30,7.82-9.26,7.55-5.72,15.68-1.22,4.84,2.68,11.97,6.85,16.85,8.81Z"/>
  <path class="st5" d="M548.84,371.8c-7.57,25.28,20.3,46.62,36.93,60.41,25.56,21.18,51.61,34.43,78.14,52.69,29.83,20.53,32.43,41.58,51.66,68.75,14.16,20.02,36.23,35.79,60.31,38.64.42,7.68,1.52,19.22.89,26.48-.9,10.38-7.98,13.56-13.72,20.6-3.34,4.1-7.62,10.21-10.3,14.76l-1.7,1.21c-2.77-.31-18.12-3.08-19.34-4.18-1.64-1.47-1.37-3.34-.38-5.1,12.73-13.97,14.1-44.48-5.41-52.15-10.72-4.21-36.21.53-47.71,3.75-6.04-6.22-8.58-16.53-10.28-25.1,15.76-4.12,24.99-20.13,20.82-36.57-7.2-28.35-59.14-55.59-81.91-72.05-22.77-16.46-76.22-65.03-100.48-67.86-26.69-3.11-44.16,34.02-53.61,55.77-5.53,12.74-13.29,48.9-31.39,43.91-19.06-5.26-1.4-33.73,4.31-43.56,12.46-21.47,25.6-38.62,32.6-63.59,1.64-5.83,2.25-11.98,4.06-17.71,2.09-12.31,12.33-27.79,20.82-36.5l3.17-1.15c-1.04,39.52,32.19,46.57,62.54,38.54Z"/>
  <path class="st30" d="M699.62,124.42l.88,2.23c-14.05,23.99,2.53,37.09,20.67,49.37,8.23,6.68,13.52,15.33,15.01,26.22,3.44,25.05-9.12,34.99-27.34,47.01-21.28,12.03-11.71,34.87,9.49,25.84l1.84.82.45,2.6c-3.65,6.46-4.59,14-4.7,21.38,2.68,31.31-7.06,61.39-26.59,85.37-8.74,9.57-12.81,23.78-6.7,36.14,8.11,16.4,37.18,27.24,51.87,38.05,23.62,17.39,39.2,43,38.86,74.13-.1,9.35-4.34,9.4-11.13,5.3-10.93-6.61-20.35-32.17-29.23-43.81-28.44-37.28-81.31-47.13-114.79-77.99-18.22-16.8,1.99-24.31,15.98-31.7,27.28-14.42,66.58-29.9,64.6-69.63-1.09-21.77-19.02-26.88-26.44-43.14-10.7-23.42,24.98-31.83,35.33-46.08,11.93-16.43,6.9-37.32-10.9-45.81-10.93-5.22-24.19-5.23-35.73-2.97,11.47-18.43,19.72-38.43,22.29-60.49,5.47,2.24,10.85,4.8,16.27,7.17Z"/>
  <path class="st36" d="M731.32,646.06c1.31.72.34,2.9,1.36,3.69,2.12,1.64,16.38,2.37,20.06,4.38-4.97,8.43-6.19,17.67-15.67,23.49-19.33,11.85-55.67,8.19-50.93,42.15,2.31,16.55,27.06,30.29,37.45,42.38,21.86,25.45,22.37,41.34,4.5,69.19-11.81,18.41-40.14,44.95-10.19,61.36,16.27,8.92,54.65,12.15,64.84,23.59,3.47,3.89,1.42,4.06-1.92,5.17-15.36,5.13-32.71,8.74-48.64,11.04-21.5-14.16-45.36-24.42-66.75-38.69-9.66-6.44-24.77-12.8-11.62-24.55,17.45-15.6,36.09-15.92,47.94-42.16,21.22-46.96-24.48-74.58-43.09-109.06-4.01-7.44-6.8-14.06-4-22.66,7.71-23.65,58.8-29.73,76.65-49.32Z"/>
  <path class="st11" d="M383.49,102.91c1.09,47.16,34.45,81.19,74.31,97.49,57.84,23.66,136.95,14.3,171.93-44.68,9.81-16.54,14.09-33.81,17.71-52.73,2.32-1.67,14.41,6.68,17.94,6.63,2.71,2.09-1.72,19.65-2.66,23.25-28.3,108.13-156.31,125.16-239.53,76.86-23.39-13.58-47.15-42.75-56.61-68.95-1.66-4.59-8.76-26.41-5.37-29.37,3.67-.13,20.37-10.46,22.29-8.5Z"/>
  <path class="st26" d="M647.36,851.32c-6.62-3.72-8.44-12.02-11.14-18.82,25.39-9.1,27.47-31.56,15.25-54.05-12.23-22.51-47.89-58.03-47.89-83.53,0-38.51,76.59-90.96,110.11-85.54,10.17,1.64,9.35,15.31,4.26,22.27-15.1,20.65-73.06,26.43-81.12,56.74-12.67,47.6,59.02,74.98,51.25,124.43-3.55,22.57-24.33,29.66-40.73,38.5Z"/>
  <path class="st20" d="M454.6,550.16c-2.09-4.83-4.62-9.54-8.56-13.01-7.63-6.71-20.65-5.13-18-20.16,27.7-1.49,35.26-40.98,44.67-62.17,6.96-15.68,17.52-40.5,37.15-38.22,14.13,1.64,50.08,33.8,63.55,43.76,25.89,19.14,58.09,38.43,81.67,59.76,6.52,5.9,21.49,20.7,13.22,29.99-8.2,9.2-24.96-1.75-32.87-6.74-27.01-17.04-48.94-41.59-72.88-62.68-15.06-13.27-37.92-35.64-59.18-24.24-11.94,6.4-20.8,36.46-26.63,49.22-6.36,13.93-17.47,30.77-22.15,44.49Z"/>
  <path class="st23" d="M397.2,421.99c-20.47,29.02-51.25,63.68-15.87,95.93,21.29,19.41,41.52,26.71,55.74,55.51,12,24.29,12.68,58.93,37.22,74,9.95,6.11,36,11.61,37.63,24.26,1.38,10.72-5.58,12.43-11.91,18.29-17.48-16.15-36.9-25.04-51.76-45.79-11.5-16.07-15.51-37.44-25.2-55.2-21.71-39.77-54.12-46.12-86.94-70.37-17.22-12.72-24.72-24.53-13.88-46.46,3.95-7.99,26.12-35.83,33-40.32,4.03-3.35,8.21-6.42,12.65-9.1,3.41-9,11.72-8.31,12.22,1.68,5.48,3.15,9.63,2.3,12.42-2.55,2.02-1.67,4.92-3.74,4.69.11Z"/>
  <path class="st47" d="M390.35,305.47c24.94,13.23,33.02,25.26,30.83,56.01-1.83,25.7-9.95,40.62-23.98,60.51-.28-1.62-3.19.9-3.55,1.22-2.15,1.94-3.74,5.17-6.21,5.05-.55-.03-7.92-1.94-8.27-2.2-2.03-1.49.22-8.59-5.5-7.67-3.24.52-2.95,4.28-4.8,5.8-2.95,2.42-10.81,5.81-13.66,7.67,23.97-25.88,63.48-66.9,26.1-100.36-17.91-16.03-56.15-24.38-68.1-38.99-12.74-15.57-12.48-61.87-16.53-83.09-4.22-22.08-14.81-40.2-33.12-52.27,10.1-6.51,20.91-12.23,31.68-17.48l2.86,2.88c11.91,26.49,20.34,52.78,22.03,82.2,3.45,27.56,15.08,52.58,40.17,63.84l28.4,14.03,1.64,2.86Z"/>
  <path class="st27" d="M779.29,649.65l2.43,45.11c-.97,2.98-14.28,7.5-17.58,9.39-40.42,23.09,5.24,59.32,18.94,83.59,7.77,13.76,9.15,23.24,10.77,38.92l6,77.52c-.97,1.06-9.44-4.95-11.11-5.84-18.8-9.97-38.4-9.98-54.83-17.92-11.47-5.54-7.95-13.42-2.94-22.77,9.08-16.97,24.6-31.6,26.83-52.6,4.29-40.37-29.42-56.19-48.72-82.39-14.6-19.81,16.72-21.6,27.85-25.49,23.56-8.24,22.45-27.32,37.65-43.96.65-.72,3.9-4.57,4.72-3.57Z"/>
  <path class="st37" d="M278.42,674.16c-11.5,11.74-21.08,25.25-19.06,43.06,1.68,14.82,17.23,23.89-2.07,33.87-3,1.55-30.3,11.85-31.42,10.58l3.43-56.9c.47-10.23,7.81-19.79,14.11-27.36,11.33-13.61,39.12-33.61,40.69-51.53,2.29-26.16-26.91-43.56-43.69-57.54.73-12.37,1.68-24.77,3.45-37l15.83,21.52c14.74,19.08,39.05,28.65,55.72,43.88,37.46,34.23-17.66,57.69-36.99,77.42Z"/>
  <path class="st30" d="M228.51,448.83c-3.33-7.17-8.81-14.1-14.63-19.23-10.1-8.89-34.74-18.9-39.58-30.3-8.33-19.62,11.62-45.81,5.06-67.14-7.51-24.42-34.6-7.24-50.7-6.04-3.98.29-26.98-.99-28.73-3.63-.52-.79.3-2.34.81-3.17,4.01-6.48,15.92-15.3,20.62-22.35,11.28-.87,21.74-.76,32.26-5.69,12.06-5.66,34.74-30.18,46.77-26.82,8.1,2.27,10.48,17.98,10.04,25.31-1.78,29.7-20.16,59.81-8.34,91.22,6.85,18.2,25.59,23.85,39.05,35.25-2.87,10.29-1.42,28.26-12.62,32.59Z"/>
  <path class="st48" d="M853.84,237.36l50.21,54.65c.35.66.25,1.15-.06,1.79-1.68,3.46-7.62,8.57-10.06,12.85-8.33,14.61-5.63,28,4.43,40.53,9.95,12.39,22.86,17.56,36.01,25.09.26,1.19-3.39,4.5-4.27,5.37-2.01,1.98-16.64,15.23-17.76,15.54-1.18.33-2.19-.25-3.12-.89-13.94-14.4-32.97-21.85-52.39-23.17-17.6-1.19-39.86,3.96-54.82-8.08-12.82-10.31-12.25-28.86,5.97-30.51,15.29-1.38,33.78,5.03,48.33-3.21,31.36-17.75-14.91-64.16-2.46-89.97Z"/>
  <path class="st36" d="M780.16,411.24c-1.47-6.67-2.41-13.52-3.31-20.3-2.75-20.66-8.8-74.94-1.14-92.36,1.84-4.18,3.85-5.39,7.89-6.98,10.36-4.08,22.26-3.28,28.71-14.78,6.38-11.38,3.52-37.22,4.8-51.45.27-3.01,4.02-22.04,6.31-22.06,2.26,3.55,13.95,12.81,14.81,15.85,1.5,5.28-1.94,15.5-2.38,21.34-.93,12.52.23,22.52,4.04,34.29,2.56,7.91,13.88,28.29,6.19,34.67-12.5,10.38-43.73-3.4-61.57,11.77-15.02,12.77-8.07,42.32,5.05,53.71,22.82,19.79,62.92,5.36,90.81,17.03,3.14,1.32,19.34,10.95,18.8,14.2-.41,2.45-18.79,17.91-20.44,22.59-.58.66-1.3,1.32-2.2,1.32-1.39-.01-18.74-14.13-22.98-16.32-22.6-11.69-50.23-12.98-73.39-2.53Z"/>
  <path class="st16" d="M542.84,740.18c.18,1.12.16,2.26-.3,3.3-1.7,3.86-10.96,11.94-14.68,14.6-5.13,3.67-13.33,9.02-19.28,7.19-32.64-33.77-74.44-91.31-122.1-45.73-6.85,6.55-15.16,20.55-21.39,25.12-6.55,4.8-11.74-2.84-12.42-9.4-2.38-22.97,25.99-59.1,46.03-66.58,27.97-10.43,56.67,4.44,77.35,23.54,13.49,12.46,38.25,47.26,54.61,49.52,4.61.64,7.92.08,12.2-1.56Z"/>
  <path class="st22" d="M599.38,234.67c-.76,16.01,4.46,31.55,12.16,45.09,4.56,8.01,17.79,22.59,17.01,31.54-.67,7.72-15.6,15.38-21.73,18.53-15.57,7.99-65.25,29.42-80.72,28.55-17.59-.99-24.93-18.54-20.5-34.96,3.94-14.63,35.96-53.9,47.08-66.36,2.09-2.34,6.82-7.86,9.05-9.36,8.92-6,27.6-7.3,37.65-13.03Z"/>
  <path class="st1" d="M569.4,889.86l1.2,1.91c-2.7,6.33-4.15,13.08-4.36,20.24l-1.98.26-2.23.3c-9.04-6.42-18.54-12.08-28.51-17-14.86-10.86-30.5-20.15-46.9-27.88-25.38-8.34-23.47,6.12-9.1,21.99,9.68,8.66,40.92,40.81,40.05,51.11-.06.66-.23,1.31-.43,1.95,3.4.22,6.85,10.84,3.43,12.55-4.99.05-10.03-.16-15.03-.04-3.48.09-9.54,2.72-12.43-.36-2.43-2.59-6.37-13.67-8.69-17.8-12.39-22.11-29.63-35.58-44.82-54.39-16.99-21.04-11.36-36.95,14.14-42.59,33.02-7.31,50.47,11.9,76.54,27.5,12.89,7.71,26.18,14.66,39.13,22.25Z"/>
  <path class="st24" d="M253.27,288.44c-.55,2.06-1.84,3.79-3.86,5.18-11.62,14.37-15.32,57.71-1.21,71.75l.79,2.84c-1.2,9.88-2.97,19.71-4.29,29.57-7.28-3.52-14.04-8.01-20.12-13.45-27.6-35.88,21.51-94.68-7.31-130.38-24.34-30.16-54.93,21.59-78.14,24.88-1.11.16-1.7,1.69-1.51-.69,12.56-11.77,22.41-26.13,33.82-39.01,6.43-7.25,13.53-13.97,20.17-21.03,6.2-6.59,5.77-10.15,16.28-5.43,8.82,3.96,33.93,25.57,38.39,34.23,5.03,9.77,6.58,30.32,6.99,41.54Z"/>
  <path class="st9" d="M590.82,717.77c9.2,24.46,43.93,57.11,46.17,79.42,1.7,16.97-14.45,21.04-27.71,20.99-45.87-.18-70.46-21.61-100.7-52.9,14.99-4.18,25.05-12.5,34.27-25.1,6.81-9.3,8.09-12.91,11.14-24.2,12.04,4.93,24.57,8.05,36.84,1.79Z"/>
  <path class="st25" d="M420.33,886.27c-2.3,5.14-18.07,14.98-22.75,14.74-.7-.04-1.4-.2-2.1-.4-8.79-8.88-23.88-14.32-31.73-22.82-10.52-11.4,8.44-21.07,15.47-27.81,17.35-16.65,18.55-33.46,30.48-51.47,17.64-26.63,37.18-13.9,52.11,7.17,1.97,2.78,9.12,11.9,5.04,14.08-5.2,2.78-17.88,3.86-24.42,5.81-30.47,9.09-43.67,32.5-22.09,60.69Z"/>
  <path class="st4" d="M727.04,136.97l3.21,2.8,13.39,26.7c21.55,38.46,9.92,81.83-21.43,109.57l-2.03-.14c-12.29,9.96-33.36-3.87-22.3-18.4,14.25-18.71,39.83-18.91,36.85-52.84-2.77-31.46-33.6-31.99-40.06-53.1-3.15-10.29.82-18.07,4.94-27.13,9.22,4.04,18.29,8.3,27.41,12.55Z"/>
  <path class="st7" d="M758.74,376.28l-1.8,1.87c-31.85,2.78-18.2,48.87,7.16,50.08l1.49,1.83c1.4,13.4,2.15,26.91,3,40.33-7.58-12.32-18.69-22.2-30.49-29.95-10.18-6.68-37.35-17.63-39.28-30.6-2.25-15.18,16.64-22.32,25.66-30.41,28.12-25.21,5.66-53.62,22.24-79.8,1.23-1.94,10.7-13.92,11.92-7.97-4.18,27.78-2.6,56.72.09,84.63Z"/>
  <path class="st13" d="M727.04,136.97c4.73,2.21,14.51,5.05,18.21,8.04,2.32,1.87,8.17,11.82,9.89,14.99,8.61,15.92,14.32,35.06,15.42,53.34l-12.2,51.85c-2.88,5.92-9.57,8.11-14.46,11.76-24.6,18.42-17.44,43.99-20.38,70.99-1.92,17.65-23.23,25.3-34.18,37.29,11.74-21.36,23.19-38.51,24.84-64.09.96-15-2.71-31.94,6.01-45.25,2.88-4.4,9.79-9.95,13.29-14.33,8.44-10.55,14.6-23.57,17.79-36.96,8.14-34.17-11.02-58.67-24.23-87.64Z"/>
  <path class="st44" d="M517.14,147.73c26.11.35,52.38-3.35,75.65-16.31l36.58-24.91c-4.55,29.98-21.91,58.07-47.72,72.41-6.41,3.56-11.57,5.04-18.24,7.35l-10.2-5.78-24.19-8.94c-5.72-2.61-11.92-6.85-13.25-13.66-.52-2.69-1.19-9.08,1.38-10.15Z"/>
  <path class="st28" d="M383.49,257.97c-3.43,8.41-2.76,18.53.45,26.87,2.45,6.36,8.58,13.15,6.41,20.63-35.46-18.82-57.58-20.89-69.14-66.14-4.38-17.12-4.13-35.09-8.39-52.17-4.1-16.46-12.06-31.58-17.56-47.5,2.47-1.21,14.44-7.34,15.82-7.2,2.49.25,4.84,6.02,5.75,8.38,8.01,20.82,8.23,51.38,13.8,74.3,6.02,24.8,22.8,66.37,52.87,42.83Z"/>
  <path class="st18" d="M569.4,889.86c24.3,14.24,42.89,30.8,60.41,53.77,1.38,1.81,3.23,3.79,2.99,6.28-29.37,2.38-58.78,4.65-88.24,4.49l-2.16-1.1c-5.63-9.97-9.98-20.27-13.05-30.88l1.51-2.08,1.65-1.34,23.37,7.64c12.53,2.93,17.32-1.37,7.94-12.3l.45-2.07c1.57-3.18.69-7.09,1.24-10.8.63-4.2,2.76-7.65,3.9-11.61Z"/>
  <path class="st14" d="M462.31,370.9c.79-12.76-.42-25.3-.04-38.13.84-28.03,5.69-52.53,22.46-75.1.85-1.15,4.85-6.55,5.36-6.94,2.86-2.18,14.64.82,18.87,1,8.92.37,18.15,0,27.03-.48-17.53,22.73-48.88,50.79-49.7,82-5.53,6.78-11.52,14.65-16.12,22.13-2.89,4.72-6.2,10.22-7.87,15.52Z"/>
  <path class="st24" d="M344.9,119.98c3.95,26.2,15.36,51.05,32.15,70.78,2.68,3.15,18.9,18.02,19.16,19.39.47,2.52-6.65,8.42-8.41,10.65-3.99,5.04-13.81,20.7-19.5,21.8-10.86,2.1-17.8-19.26-19.66-27.48-5.23-23.17-7.34-46.91-13.73-69.88-3.88-13.95-13.25-25.7,10-25.25Z"/>
  <path class="st42" d="M437.47,235.56c4.64,1.87,31.06,8.67,32.55,10.77l-11.58,20.58c-9.11,17.29-12.41,36.94-13.26,56.49-19.9-6.83-32.95-32.97-30.73-54.11,1.36-12.96,12.52-27.23,23.02-33.72Z"/>
  <path class="st0" d="M420.33,886.27c17.87,23.36,43.56,40.45,54.83,69.01-14.57.1-29.16-.97-43.68-2.24-7.21-8.97-11.73-19.81-18.16-29.4-4.61-6.88-12.18-17.31-17.83-23.02,8.84-3.66,17.09-8.62,24.84-14.34Z"/>
  <path class="st41" d="M517.14,147.73c.5,5.71-1.18,9,2.2,14.28,6.58,10.26,29.13,12.83,39.67,19.44,2.26,1.42,3.25,2.19,4.39,4.82-26.81,9.28-46.75,10.08-74.53,4.48-8.63-5.18-11.81-19.97-11.06-29.96.38-5.1,1.4-13.51,5.92-15.75,11.27,1.61,22.04,2.54,33.41,2.69Z"/>
  <path class="st43" d="M857.24,457.84c-14.67-8.89-35.05-13.04-50.56-4.06-3.6,2.09-5.8,4.92-8.83,7.56-1.09-.17-12.1-10.09-12.92-11.64-2.31-4.34-1.6-12.84-2.63-17.91,24.49-17.29,63.96-8.79,84.31,12.28l-9.38,13.77Z"/>
  <path class="st8" d="M775.88,276.79c-1.64-27.97,5.03-55.29,17.54-79.79,1.28-2.5,7.88-15.57,10.18-15.15.42.08,5.82,5.59,6.1,6.22,1.95,4.45-2.66,13.49-3.77,18.43-3.63,16.12-3.6,28.86-5.22,44.73-1.89,18.55-7.91,22.05-24.83,25.56Z"/>
  <path class="st19" d="M483.73,145.04c-7.34,15.97-5.11,31.9,5.14,45.71-23.15-4.67-43.14-12.99-60.83-29.58-.26-.66-.54-1.7-.14-1.97,5.86-3.8,24.98-15.85,30.25-17.41l4.16-.35c6.41,1.49,14.81,2.64,21.42,3.59Z"/>
  <path class="st35" d="M141.04,422.89c-14.72-17.25-33.37-35.63-50.55-50.19,11.83-1.8,31.62-13.63,43.06-11.44,2.75.53,7,4.11,8.23,6.62,3.22,6.55-3.01,24.55-3.35,33.01-.3,7.62,1.55,14.58,2.6,22Z"/>
  <path class="st2" d="M232.72,663.99l6.41-74.39c9.81,9.32,26.8,16.97,25.28,33.61-1.21,13.16-24.18,30.17-31.69,40.78Z"/>
  <path class="st38" d="M462.31,141.45l-34.27,19.72c-11.39-10.68-20.52-23.42-24.79-39.04-.48-1.74-3.35-12.05-.48-12.03,17.12,14.09,38.05,26.35,59.54,31.35Z"/>
  <path class="st33" d="M758.74,376.28c1.73,17.96,4.98,35.83,6.85,53.78-29.91.16-43.37-53.27-6.85-53.78Z"/>
  <path class="st12" d="M248.99,368.21c-6.03-4.13-8.62-10.59-10.03-17.74-2.47-12.55-1.58-24.6.86-37.11,1.81-9.29,4.63-20.4,13.45-24.91.95,25.92-1.17,54.04-4.28,79.77Z"/>
  <path class="st21" d="M259.28,410.34l7.25-44.85c5.7-2.64,21.3-.58,21.84,7.7.81,12.5-14.25,25.62-22.69,32.65-.84.7-5.83,5.16-6.4,4.5Z"/>
  <path class="st15" d="M783.57,714.18l4.28,50.19c-7.02-7.29-21.71-24.15-22.31-34.54-.56-9.77,10.43-14.15,18.02-15.66Z"/>
  <path class="st39" d="M834.11,497.28l-23.11-25.08c10.69-8.2,25.09-5.42,36.44-.04l-13.33,25.11Z"/>
  <path class="st36" d="M248.13,924.81c-9.44-.43-36.88-11.59-38.5-22-.88-5.65,1.28-10.99,1.67-16.53,1.68-.46,1.66.73,2.41,1.51,2.99,3.09,5.54,6.74,8.71,9.71,2.92,2.73,29.77,22.96,25.71,27.32Z"/>
  <path class="st3" d="M242.99,219.42c-1.69,1.76-19.26-16.4-21.4-18.38-2.37-2.2-5.3-4.07-7.71-6.26l12.41-12.09c2.86-.06,16.18,31.63,16.7,36.73Z"/>
  <path class="st46" d="M530.85,920.33c.73,12.84,10.21,22.26,13.71,34.06-1.14,0-2.28.01-3.43,0-5.23.55-10.53.75-15.76.32-1.42-.28-.7-27.19,1.2-29.9-3.11-4.06,6.11-12.19,4.28-4.48Z"/>
  <path class="st45" d="M780.99,184.47c-.56.51-2.13.17-1.78-1.25l-9.33-25.63c3.34,1.74,18.13,9.97,18.71,13.13l-7.6,13.75Z"/>
  <path class="st6" d="M526.57,924.81v29.58c4.84.04,9.72-.05,14.56,0-6.38,1.7-13.89.83-20.56.9.17-4.25-1.85-8.66-3.43-12.55.78-5.78,4.78-14.65,9.42-17.93Z"/>
  <path class="st31" d="M531.52,518.98c4.88-.4,10.21,2.75,14.16,5.36,10.69,7.06,20.75,18.5,31.04,26.68,10.23,8.14,29.7,17.54,33.22,30.67,5.91,22-12.91,34.09-31.5,34.83-16.15.65-61.86-16.4-72.42-29.19-16.61-20.12,1.86-66.44,25.5-68.36Z"/>
  <path class="st32" d="M776.48,818.28c3.05-.82,4.94,2.87,5.79,5.28,2.73,7.72,4.49,37.71,1.94,45-2.3,6.61-6.35,6.97-12.24,5.21-10.82-3.24-17.55-12.55-15.6-24.48.74-4.53,13.17-23.34,16.58-27.47.85-1.03,2.39-3.23,3.53-3.54Z"/>
  <path class="st32" d="M574.29,267.13c6.02-1.47,8.33,1.73,11.59,6.32,6.74,9.5,14.3,26.52,7.03,37.35-8,11.93-43.83,24.58-57.29,22.41-8.39-1.36-9.49-9.77-6.9-16.96,3.2-8.88,27.27-32.99,35.09-40.37,1.88-1.78,8.71-8.31,10.48-8.75Z"/>
  <path class="st14" d="M564.26,912.26c8.27,8.43,9.85,18.84-5.35,16.8-6.58-.88-20.86-6.41-28.06-8.73-.16-.05-1.08-2.3-1.7-1.79-.38,2.26-1.59,4.27-2.58,6.27-2.99,6.05-5.62,12.35-9.42,17.93-5.74-14.13-15.31-25.69-25.36-36.66-7.42-8.1-25.15-21.35-26.08-32.76-.87-10.73,4.48-10.31,13.21-9.35,16.41,1.8,40.13,20.51,54.79,29.62,8.62,5.36,23.78,11.75,30.56,18.67Z"/>
  <path class="st40" d="M570.04,731.35c2.69-.55,7.7,4.4,9.62,6.61,5.94,6.83,21.2,31.47,25.19,39.97,12.49,26.6-8.47,25.06-26.91,20.98-8.33-1.85-26.7-8.93-30.16-17.74-4.53-11.54,10.2-12.75,13.82-20.93,3.1-7.01-.07-27.16,8.44-28.9Z"/>
  <path class="st37" d="M532.33,539.58c1.72-.4,2.89-.23,4.55.24,5.07,1.46,18.68,15.4,24.05,19.66,5.34,4.23,26.89,18.46,28.93,22.61,5.61,11.41-9.88,16.23-18.3,15.55-10.13-.82-45.49-14.85-50.99-23.73-5.45-8.79,2.56-32.21,11.76-34.34Z"/>
</svg>