<?xml version="1.0" encoding="UTF-8"?>
<svg id="Layer_1" xmlns="http://www.w3.org/2000/svg" version="1.1" viewBox="0 0 376.16 376.16">
  <!-- Generator: Adobe Illustrator 29.7.1, SVG Export Plug-In . SVG Version: 2.1.1 Build 8)  -->
  <defs>
    <style>
      .st0 {
        fill: #f49144;
      }

      .st1 {
        fill: #eba246;
      }

      .st2 {
        fill: #e99f41;
      }

      .st3 {
        fill: #fed89b;
      }

      .st4 {
        fill: #ea9f41;
      }

      .st5 {
        fill: #eaa041;
      }

      .st6 {
        fill: #eaa245;
      }

      .st7 {
        fill: #eba449;
      }

      .st8 {
        fill: #fecc81;
      }

      .st9 {
        fill: #eba244;
      }

      .st10 {
        fill: #eca448;
      }

      .st11 {
        fill: #eaa144;
      }

      .st12 {
        fill: #d47930;
      }

      .st13 {
        fill: #eaa042;
      }

      .st14 {
        fill: #e48840;
      }

      .st15 {
        fill: #eba346;
      }

      .st16 {
        fill: #e48940;
      }

      .st17 {
        fill: #fea654;
      }

      .st18 {
        fill: #eba245;
      }

      .st19 {
        fill: #eba347;
      }

      .st20 {
        fill: #efad63;
      }

      .st21 {
        fill: #eaa143;
      }

      .st22 {
        fill: #eba348;
      }

      .st23 {
        fill: #e99e40;
      }
    </style>
  </defs>
  <path class="st0" d="M264.68,70.26c21.3-.75,65.03,12.15,58.12,42.53-3.77,16.57-38.98,30.63-52.69,33.24-29.22,5.58-51.82-7.93-76.17-22.82-12.15-6.77-25.75-11.43-39.46-11.25-1.91-.43-2.88-1.19-1.95-3.23,30.87-16.75,77.85-32.46,112.16-38.46Z"/>
  <path class="st14" d="M333.7,142.19c-.86.89-1.73,1.76-2.68,2.52s-1.89,1.51-2.93,2.01c-32.76,15.81-67.19,30.4-100.94,41.93l-2.29-.48-.41-1.99c10.48-14-2.77-28.98-12.54-38.63l.17-2.09-2.52-.08c-22.49-19.2-58.46-33.62-84.13-13.5l-2.68.19c6.59-11.34,18.95-17.48,29.76-23.34,1.65,2.82,6.02,1.35,8.96,1.74,23.54,3.11,35.71,13.19,55.43,24.09,31.12,17.18,58.39,13.58,87.93-4.82,10.29-6.41,18.97-12.46,16.58-26.93-3.46-20.96-32.55-28.63-49.26-30.89-2.52-.34-5.66.86-7.49-1.64,18.87-3.3,34.09,0,50.83,9.8,13.66,8,43.91,33.02,32.98,52.01-2.75,4.77-9.96,7.79-14.78,10.12Z"/>
  <path class="st14" d="M334.31,172.51c.28,8.6,2.11,25.76-3.74,32.09-4.43,4.79-18.78,11.81-25,14.98-27.5,13.99-63.91,29.09-93.67,35.42l-1.44-1.02,1.99-11.36c-.67-4.97-.23-9.57,1.32-13.78.24-1.37.67-2.66,1.39-3.83,3.21-5.21,16.64-15.52,22.11-19.71,20.68-15.86,44.63-28.02,69.92-32.6,5.5-.99,21.17-3.49,25.36-1.38.63.32,1.21.74,1.78,1.2Z"/>
  <path class="st23" d="M224.87,188.17l.28,1.93c-3.53,1.97-7.14,3.6-10.84,4.9-1.53,9.88-1.3,20.27.69,31.16l-1.26,2.68c.17,4.61.16,9.26.26,13.88l-2.13,12.27c-6.26,1.33-5.73,1.85-12.74.71-14.24-2.33-27.69-8.47-41.57-12.26,4.18,5.28,13.39,12.95,14.71,19.92l-.55,2.44c-1.28,1.68-12.1,5-13.28,2.05-.06.65-.18,1.49-.67,1.7-1.2.49-13.38.83-13.63-1.41,0,2.65-6.45,3.32-7.54.99l-1.08,1.77c-8.66-.23-11.89.02-15.26,9.1-1.82,3.78-3.7,5.08-5.64,3.9-.17,4.11-7.26,3.42-10.4,3.01-16.03-2.1-36.69-17.54-47.49-29.72-7.77-8.76-16.01-19.97-14.06-32.52,3.33-8.77,7.76-11.95,16.87-11.28,3.23.24,7.15,2.21,10.27,2.02,6.25-.38,18.45-6.62,25.77-8.25,3.71-.83,7.45-2.01,11.14-.61.33-3.53,1.31-6.77,2.19-10.16.58-2.49,5.37-1.75,5.58.73l1.34,1.28c-.68,2.88-1.01,5.78-.98,8.7,8.13,4.64,15.41,10.49,22.37,17.03,20.17,13.13,44.92,19.33,67.73,24.24,1.51-14.01,1.09-28.43-1.26-43.25-.91-14.94,3.26-18.97,16.04-23.64,7.87-7.11-5.55-22.93-10.9-27.95l.19-2.11c-.69-.22-.68-.5-.02-.84-1.98-1.6,1.37-4.57,3.08-5.12,7.43,6.96,18.77,19.71,17.94,30.99-.22,2.99-3.02,9.78-5.16,11.73Z"/>
  <path class="st12" d="M333.7,142.19c-1.86,9.92.28,20.3.6,30.32-45.03-2.21-89.66,23.35-120.55,56.32-.27-7.24-1.76-15.13-2.07-22.25-.89-20.53,4.51-10.56,13.19-18.41,10.6-3.09,20.78-7.51,30.98-11.78,25.47-10.67,53.04-22.19,77.85-34.2Z"/>
  <path class="st16" d="M114.65,283.89c2.86.2,3.3,4.47,3.45,7.12.41,7.49-5.61,10.74-11.91,11.07l-3.78,4.96c1.43,3.6,2.03,7.18,1.78,10.75-7.63,13.86-30.19,5.22-41.32.37-19.25-8.37-47.05-30.08-43.27-55.14,1.39-3.32,3-1.75,4.84,4.7,10.22,21.35,38.81,38.71,60.88,40.82,2.61.25,14.59.58,10.88-3l.56-1.92c-.81-.84-.71-1.95.31-3.33-21.79-8.45-41.91-22.48-52.82-44.97-2.02-.13-3.4-.78-4.15-1.97-1.2,1.17-1.67.71-.81-.83-2.35.26-3.07-4.08-.9-5.04,1.32-.08,2.66,0,3.97-.08-2.3-8.29-2.71-14.69.35-22.75,1.5,2.03.68,4.97,1.3,7.6,4.12,17.51,24.72,36.28,39.26,44.51,7.99,4.52,22.79,12.04,31.39,7.13Z"/>
  <path class="st17" d="M212.1,145.46c.12,2.39-2.36,3.82-3.08,5.12l-2.95-.18c-16.26-13.26-33.58-22.74-54.45-21.2-9.66.72-27.28,5.2-25.1,18.44,7.06,15.86,3,26.06-6.22,40.25-1.1,3.71-2.77,6.5-5.02,8.37,1.12,1.17.65,1.62-.78.86l-5.58-.73c1.04-3.99,1.7-7.15,3.34-11.04,2.05-4.88,9.48-15.63,10.21-19.31,1.22-6.24-3.01-11.28-3.95-16.8-1.06-6.24-.42-12.77,4.24-17.16,24.95-23.47,67.28-7.26,89.33,13.39Z"/>
  <path class="st16" d="M172.29,263.36c.66,3.48.41,12.3-1.69,15.19-2.8,3.86-14.87,3.07-15.43,3.68-.41.44,1.33,9.03-1.92,11.88-3.78,3.32-23.49,7.31-29.48,8.97l-1.1-.12c-9.43-16.82-2.2-21.21,14.02-21.03l-1.5-11.4,1.42-1.41c2.14-.21,6.16-.97,7.54-.99l14.31-.28c1.72-.03,8.23-1.41,10.09-2.11,1.45-.54,2.54-1.45,3.74-2.38Z"/>
  <path class="st23" d="M38.37,247.49l.9,5.04-1.45,1.76c-16.57.94-9.41,12.97-2.42,21.32,14.68,17.52,36.63,25.8,58.18,28.93.08-2.39,1.89-2.8,3.16-.91l3.26,4.13c-9.33,5.39-21.88,1.57-31.46-1.87-18.81-6.75-40.31-21.23-47.25-41.73-.54-1.59.71-2.87-1.7-1.12,1.06-7.03,4.95-14.09,12.09-15.33,2.14-.37,4.5-.07,6.69-.21Z"/>
  <path class="st12" d="M136.62,269.13l1.88,14.28c-3.58.78-16.28.22-17.83,3.72-2.28,5.14,2.31,11.13,3.11,15.96-4.3,1.19-14.64,2.49-16.75,6.46-1.18,2.22-1.37,5.59-2.84,8.25-.78-1.95-3.6-9.72-3.29-11.14.27-1.22,3.6-3.85,3.71-6.17,10.75-.3,14.57-5.92,10.04-16.59,4.74-2.71,7.13-12.08,9.28-13.24,2.86-1.55,9.38-1.2,12.69-1.52Z"/>
  <path class="st17" d="M266.26,78.06c7.85-.61,16.88-.15,24.28,2.84,9.78,3.95,14.44,10.21,1.49,14.33-17.38,5.53-30.44-6.79-46.94,9.15-3.9,3.77-6.33,9.03-11.05,11.86-10.74,6.45-29.67,1.79-39.61-5.12-6.14-4.27-6.2-7.23.14-11.14,13.62-8.43,55.74-20.69,71.68-21.92Z"/>
  <path class="st8" d="M114.51,197.11c.07-.28.7-.6.78-.86l1.46-.82c14.03,3.25,30.2.71,44.04-3l1.37,1.2c2.24,1.4,3.07,1.31,2.5-.25l1.44-1.51,1.53-2.37c16.53-7.12,29.31-21.44,38.91-37.02l2.5-1.06c6.28,6.04,19.98,21.35,12.56,30.53-2.51,3.1-8.84,3.34-12.23,6.52-4.4,4.13-4.31,10.84-4.06,16.56.53,12.28,3.05,24.62,2.39,37.02-.09,1.66-.5,7.47-1.95,7.95-1.7.57-17.64-3.71-20.69-4.57-12.13-3.42-33.58-10.32-44.19-16.69-5.67-3.41-11-9.45-16.53-13.62-1.72-1.3-10.46-6.46-10.81-7.03-.87-1.4.47-8.91,1-10.99Z"/>
  <path class="st8" d="M165.09,260.97c-4.69.68-10.01,1.6-14.68,1.98-8.09.65-17.19-.01-25.22,1.56-11.13,2.17-5.96,15.77-18.99,15.38-12.12-.37-34.64-16.4-43.06-25.7-5.67-6.27-20.65-25.86-11.82-33.53,5.22-4.54,9.61-.63,14.95-.06,12.83,1.38,27.68-11.37,41.42-8.66,8.72,1.72,36.97,26.69,44.79,34.1,4.65,4.41,9.42,9.2,12.6,14.93Z"/>
  <path class="st3" d="M209.02,150.57c-.11.21.13.64.02.84-9.34,16.35-25.34,34.3-42.93,40.45-.99,1.01-2.51,2.2-3.94,1.76-6.56,3.42-29.19,5.27-36.87,4.94-2.5-.11-8.54-.27-9.99-2.32,3-10.34,8.25-16.32,12.08-25.25,6.32-14.73-10.58-24.25,2.23-35.68,10.17-9.07,28.37-9.1,40.83-6.33,14.53,3.22,26.84,12.57,38.58,21.58Z"/>
  <path class="st8" d="M39.27,252.53c.05.49.74.68.81.83l1.99.65c2.51,7.36,6.05,14.23,10.62,20.61l-1.39,1.51c1.42-.62,2.99-.06,4.21.8,10.7,11.62,23.66,19.22,37.92,25.45l.15,2.16c-15.44,2.13-39.37-9.32-51.3-19.61-10.35-8.93-29.09-31.58-3.02-32.39Z"/>
  <path class="st20" d="M96.75,303.62c-.38.26-2.54.82-3.16.91-2.6-2.1-5.86-3.09-8.83-4.47-6.48-3.01-13.09-6.67-19.26-11.47-2.5-1.95-10.18-10.08-11.43-10.64-1.79-.81-3.72-.28-5.57-.33-.64-3.7.73-1.96,3.12-3-3.47-3.8-6.13-8.39-8.51-13-1.36-2.63-2.03-6.11-3.04-8.26,1.73.03,3.69-.63,5.2.73.86.77,5.74,10.09,7.46,12.43,7.64,10.39,18,18.73,28.92,24.92,2.81,1.59,16.43,7.15,17.02,7.91.8,1.04-1.34,3.88-1.93,4.28Z"/>
  <path class="st4" d="M179.63,206.01c5.11-1.84,6.18,8.61,1.6,9.19s-4.61-8.1-1.6-9.19Z"/>
  <path class="st13" d="M195.95,231.73c4.04-1.37,5.18,7.49.92,7.59-2.96.07-2.67-7-.92-7.59Z"/>
  <path class="st2" d="M193.39,184.6c2.52-.05,2.67,7.5.15,7.55s-2.67-7.5-.15-7.55Z"/>
  <path class="st11" d="M128.28,210.31c-3.19,2.37-4.57-6.14-2.09-6.69,2.9-.64,3.37,5.74,2.09,6.69Z"/>
  <path class="st13" d="M155.76,211.46c2.76-.73,3.12,7.06-.68,5.9-2.33-1.77-1.25-4.44.68-5.9Z"/>
  <path class="st10" d="M166.1,191.87c.88,5.25-2.35,7.31-3.94,1.76.2-.11.69-1.73,1.56-2.17,1.2-.62,2.27.45,2.38.41Z"/>
  <path class="st13" d="M209.41,170.78c-.71.79-4.13.82-3.14-2.78,1.07-3.89,4.52,1.25,3.14,2.78Z"/>
  <path class="st21" d="M77.59,231.72c9.63-3.32,5.7,9.86-2.09,2.79-.26-1.1,1.24-2.49,2.09-2.79Z"/>
  <path class="st4" d="M108.16,241.97c2.7,3.99-5.77,6.09-6.92,2.9-1.74-4.82,6.15-4.05,6.92-2.9Z"/>
  <path class="st18" d="M103.14,225.13c-.64.87-7.83,1.57-8.75-1.08,1.48-4.04,11.25-2.31,8.75,1.08Z"/>
  <path class="st13" d="M95.05,258.17c2.41,3.86-7.37,4.68-7.9,2.24-.77-3.53,7.12-3.48,7.9-2.24Z"/>
  <path class="st13" d="M133.66,251.64c4.24-1.44,6.92,3.34,2.93,4.7-4.24,1.44-6.92-3.34-2.93-4.7Z"/>
  <path class="st5" d="M55.99,227.06c5.02-1.72,8.61,2.43,3.14,3.23-3.4.5-6.42-2.11-3.14-3.23Z"/>
  <path class="st15" d="M95.04,232.15c1.39-.48,4.71-.23,4.3,1.9-2.08,3.77-8.23-.54-4.3-1.9Z"/>
  <path class="st1" d="M77.03,246.83c6.19-1.95,5.76,3.62,1.6,3.27-1.75-.15-3.91-2.54-1.6-3.27Z"/>
  <path class="st4" d="M111.76,233.5c1.39-.48,4.71-.23,4.3,1.9-2.08,3.77-8.23-.54-4.3-1.9Z"/>
  <path class="st19" d="M130.62,244.75c-1.67-2.54,3.22-4.5,3.88-2.11.92,3.31-3.16,3.2-3.88,2.11Z"/>
  <path class="st4" d="M115.73,258.59l.05,2.52c-1.66.14-2.97.38-3.98-1.18.95-1.6,2.27-1.41,3.93-1.34Z"/>
  <path class="st19" d="M151.02,252.84c2.37-.7,3.52,1.92,1.62,2.48-2.37.7-3.52-1.92-1.62-2.48Z"/>
  <path class="st13" d="M145.05,185.68c3.94-.41,5.07,8.87.73,9.81-4.35.95-5.41-9.33-.73-9.81Z"/>
  <path class="st13" d="M165.36,170.04c4.4-1.62,6.31,6.2,2.3,8.23-3.92,1.12-4.78-7.32-2.3-8.23Z"/>
  <path class="st13" d="M188.38,157.84c1.3.81,2,9.25-1.6,9.13-3.48-.54-3-12,1.6-9.13Z"/>
  <path class="st6" d="M151.38,171.09c-2.62-4.04,1.67-11.26,3.54-5.13.79,2.57-.67,5.65-3.54,5.13Z"/>
  <path class="st1" d="M147.65,143.36c-1.11-.77-.98-5.21,1.06-5.9,3.72,1.68,1.63,7.78-1.06,5.9Z"/>
  <path class="st7" d="M175.81,140.29c.6.67,1.65,1.28,1.91,2.2,1.33,4.7-7.56,3.07-1.91-2.2Z"/>
  <path class="st11" d="M165.26,149.76c.22.22,1.09,5.36-1.89,4.24-3.21-1.2.25-5.9,1.89-4.24Z"/>
  <path class="st22" d="M131.96,174.02c2.14-.56,2.79,3.68.85,4.19-2.14.56-2.79-3.68-.85-4.19Z"/>
  <rect class="st21" x="141.46" y="150.2" width="2.38" height="4.22" transform="translate(-3 2.87) rotate(-1.14)"/>
  <path class="st9" d="M36.89,262.82c3.57-.81,6.49,3.47,1.49,4.11-5.3.69-5.79-3.14-1.49-4.11Z"/>
  <path class="st19" d="M63.04,288.29c.81,6.68-9.04,1.92-4.23.23,1.28-.45,2.88-.13,4.23-.23Z"/>
</svg>