<?xml version="1.0" encoding="UTF-8"?>
<svg id="Ebene_1" xmlns="http://www.w3.org/2000/svg" version="1.1" viewBox="0 0 2034.72 1149.12">
  <!-- Generator: Adobe Illustrator 29.7.1, SVG Export Plug-In . SVG Version: 2.1.1 Build 8)  -->
  <defs>
    <style>
      .st0 {
        fill: #140d07;
      }

      .st1 {
        fill: #585858;
      }

      .st2 {
        fill: #cccccb;
      }

      .st3 {
        fill: #848d79;
      }

      .st4 {
        fill: #fcfcfc;
      }

      .st5 {
        fill: #c9dce0;
      }

      .st6 {
        fill: #f9f9f8;
      }

      .st7 {
        fill: #d9d8d7;
      }

      .st8 {
        fill: #ebebe9;
      }

      .st9 {
        fill: #080605;
      }

      .st10 {
        fill: #c9c9c9;
      }

      .st11 {
        fill: #060504;
      }

      .st12 {
        fill: #dddcdb;
      }

      .st13 {
        fill: #ae7044;
      }

      .st14 {
        fill: #bbbbba;
      }

      .st15 {
        fill: #0d0806;
      }

      .st16 {
        fill: #cac8bb;
      }

      .st17 {
        fill: #040303;
      }

      .st18, .st19 {
        fill: #ad7044;
      }

      .st18, .st20 {
        stroke: #000012;
        stroke-miterlimit: 10;
      }

      .st21 {
        fill: #195113;
      }

      .st22 {
        fill: #909090;
      }

      .st23 {
        fill: #c9bcb3;
      }

      .st24 {
        fill: #f0efed;
      }

      .st25 {
        fill: #fff9e5;
      }

      .st26 {
        fill: #1f1e1e;
      }

      .st27 {
        fill: #7c532f;
      }

      .st28 {
        fill: #13100d;
      }

      .st29 {
        fill: #ae4e3a;
      }

      .st30 {
        fill: #0d0d0d;
      }

      .st31 {
        fill: #201a17;
      }

      .st32 {
        fill: #ddd;
      }

      .st33 {
        fill: #020100;
      }

      .st34 {
        fill: #030201;
      }

      .st35 {
        fill: #16120f;
      }

      .st20 {
        fill: #fff;
        stroke-width: 3px;
      }

      .st36 {
        fill: #0e0705;
      }

      .st37 {
        fill: #e5f8fd;
      }

      .st38 {
        fill: #110c09;
      }

      .st39 {
        fill: #c6c6c6;
      }

      .st40 {
        fill: #fafafa;
      }

      .st41 {
        fill: #f8f8f8;
      }

      .st42 {
        fill: #0f0f10;
      }

      .st43 {
        fill: #dcdbda;
      }

      .st44 {
        fill: #8d8b8b;
      }

      .st45 {
        fill: #bebebe;
      }

      .st46 {
        fill: #483221;
      }
    </style>
  </defs>
  <path class="st25" d="M1428.11-.26l3,.92v420.1l-3,1.2-1.44,1.92h-824.07l-1.88-1.92c-.83-.1-1.47-.2-1.47-.3-.25-138.9.09-283.28,1.47-421.92h827.39,0Z"/>
  <path class="st18" d="M1381.63,301.31l4.69,13.65s18.8,80.93,15.52,109.59c-3.47,37.13-5.39,18.85-41.13,26.09.22-53.62-1.99-105.49-19.17-157.54,14.24-2.55,40.09,8.21,40.09,8.21Z"/>
  <path class="st20" d="M1319.23,258.03c7.03,1.44,20.59,5.22,27.09,8.54,16.61,8.49,26.67,11.2,34.44,30.18,6.74,16.46,11.87,34.33,18.54,50.9.17.76-.38,1.05-.81,1.44-9.01,7.79-25.67,11.94-36.83,12.44-1.56-16.07-2.01-32.66-4.11-48.64-.13-.98-.72-6.49-.94-6.72-.3-.32-1.81.08-1.97.91l14.34,146.12c-14.56,7.39-32.06,10.88-47.97,12.65-33.04,3.69-76.52,3.22-108.68-6.15-2.4-.7-13.5-4.27-14.74-5.64-.61-.68-.54-1.41-.51-2.29.23-7.26-9.91-14.51-9.03-22.2,4.24-36.69,1.91-31.36,3.39-40.79.11-2.58.82-48.06.88-50.65-1.47,1.07,26.81,36.51,26.54,38.39,36.99,16.23,32.94-17.89,42.07-29.37-9.72,14.72-35.88,33.29-46.23,24.55-16.79-16.79-35.07-57.76-28.3-73.99,2.2-5.29,4.72-11.14,7.97-15.69,10.71-14.99,32.74-19.97,48.31-25.75,2.64,7.82,5.8,8.11,12.07,12.96,30.63,9.72,42.4,5.6,63.29-11.29h0l1.2.1Z"/>
  <path class="st30" d="M1256.1.41c2.11-.39,4.51-.39,6.62,0,6.55-.55,13.19,1.12,18.91,4.49,32.69-13.86,65.69,6.72,86.46,32.89,19.39,24.42,34.27,53.4,44.35,83.32,6.24,18.51,10.96,37.97,11.53,57.48v8.54c-.15,2.08-.28,4.12-.39,6.1.75,8.44-2.09,16.56-5.88,23.88-1.34,2.6-3.86,7.48-5.87,9.26-.57.51-2.03-.29-1.87-1.29.35-.69,1.11-21.16.3-19.82-3.31,18.16-15.56,34.49-32.35,40.88-2.01.76-6.69,2.45-8.58,2.26-1.26-.12-1.25-.52-1.07-1.8,2.16-3.41,3.69-7.04,4.59-10.87-8.76,12.43-25.33,13.37-39.01,14-7.19-.31-14.27-.56-21.25-.73l-.43-.87c-1.16,1.43-3.09-1.37-1.56-2.24-.3-.04-.74-.13-.78-.36-.08-.47-.1-5.99,0-6.33l.78-.84c-.17.32-.35.62-.57.89-1.51,1.83-9.69,4.34-12.44,5.13-15.54,4.43-32.72,3.54-46.86-4.95-.37,2.47-.57,4.97-.6,7.49-.17.43-.79.56-1.85.39l-.67,1.04c-11.22,2.58-23.56,2.34-34.92.16-8.57-1.65-18.4-4.57-23.3-12.46,1.15,4.03,2.84,7.85,5.05,11.45.15.38.23.71.11.91-.89,1.44-9.11-.19-11.03-.69-18.18-4.79-30.87-23.87-34.41-42.18-.86,6.7-.38,13.49.39,20.19.03,1.33-.24,1.34-1.27.87-2.02-.92-5.01-5.76-6.26-7.92-7.37-12.8-7.3-26.87-6.79-41.34.93-26.56,11.37-54.39,22.15-78.44,16.69-37.22,39.56-77,77.07-93.7,6.89-3.07,14.14-5.44,21.67-4.82l.03.03h0Z"/>
  <path class="st22" d="M1262.72,0v.41c-2.07-.11-4.56-.11-6.62,0V0h6.62Z"/>
  <path class="st1" d="M1423.97,193.23h-.39c.07-1.96-.38-4.4.39-6.1v6.1Z"/>
  <path class="st19" d="M1362.83,142.38l1.63-3.38c6.6-9.3,18.4-8.17,19.35,4.86,1.04,14.23-4,32.17-17.73,37.93-2.32.97-7.05,2.75-7.81-.88,1.37-6.1,3.21-12.25,3.19-18.59-1.91,4.96-2.85,10.27-4.38,15.36-7.36,24.45-18.63,43.09-40.74,55.49-32.89,18.44-61.82,10.87-88.69-14.1-17.99-16.72-23.4-34.71-28.23-58.79l-.58-.4c.34,4.82.79,9.57,1.68,14.31.45,2.4,1.65,4.7,1.39,7.2-5.49.96-11.15-1.43-14.75-5.86-.64-.78-1.85-3.33-2.37-3.65-.48-.3-1.23-.02-1.58-.47-1.06-1.36-3.12-7.92-3.66-9.91-2.26-8.34-5.9-30.12,7.78-29.3,5.73.35,8.06,4.67,11.5,8.55-1.18-17.78,9.12-32.8,20.25-44.96,3.7-4.05,8.26-7.63,11.68-11.8,6.32-7.69,10.93-17.33,16.21-25.79.71-.18,9.81,7.7,11.33,8.85,12.68,9.54,26.15,16.1,40.82,21.64,12.28,4.64,25.52,8.1,37.35,13.88,15.54,7.6,25.62,21.53,26.35,39.81h.01Z"/>
  <path class="st13" d="M1248.31,247.34c.2-.06,1.15-.52,1.19-.67-.12-1.11.14-8.22.95-8.27,18.48,11.21,41.43,9.63,60.18,0v7.53c0,.94.58,2.07,1.56,2.24-.88.61-.73.19-.51,1.11.85,3.47,3.85,6.52,7.13,7.43.67,1.02.31,1.18-.78,1.22.83,1.05-1.4,3.13-2.34,2.44-16.23,16.26-44.94,19.03-63.32,5.21-3.19-2.4-7.27-5.85-8.35-9.68-.34-.12-.34-.25,0-.41,2.33-.45,4.71-5.1,5.3-7.29.35-1.3-.12-.79-1.01-.85h0Z"/>
  <path class="st44" d="M1244.02,255.47v.41"/>
  <path class="st17" d="M1361.65,272.97c.52.57.3.78-.39.41-1.71-.1-3.43-.79-5.16-2.07-11.8-5.78-23.21-8.82-35.96-12.17-.79-.21-1.47-.72-2.12-1.22.28-.39.51-.82.78-1.22,16.32,4.56,28.2,5.84,42.85,16.27h0Z"/>
  <path class="st26" d="M1383.47,300.63c-.56.18-.77.63-.78,1.22l-1.26-1.09c-4.15-10.19-10.7-19.44-19.4-25.87l-.77-1.52.39-.41c9.62,6.86,17.41,16.32,21.81,27.66h.01Z"/>
  <path class="st34" d="M1263.78,199.84c5.26-.87,8.33,2.26,13.15,2.75,8.61.87,21.36-3.37,28.65.59,8.07,4.39,10.8,25.37-.21,25.45-6.18.04-13.89-5.15-20.63-5.71-10.12-.83-17.93,2.96-27.33,3.62-2.8.2-4.41.1-6.32-2.25-6.59-8.1,4.22-23.06,12.69-24.45h0Z"/>
  <path class="st6" d="M1256.49,146.86c-.06,1.67-.35,3.29-.78,4.88-.33.34-.46.07-.39-.81l-.45-.45c.55-8.93-6.42-15.96-14.85-15.96-16.48,0-20.05,22.2-4.95,28.2.71-.91,2.34-.34,2.34.81.57-.2,1.09-.2,1.56,0l3.5.81c-7.02,1.6-16.76.12-21.81-5.69-12.8-12.97-3.44-32.96,13.6-34.35,12.15-.99,24.45,9.16,22.23,22.55h0Z"/>
  <path class="st41" d="M1344.12,153.37c-1.52.84-1.17-2.61,0-2.85.18-20.69-31.7-19.11-29.14,1.09.8,6.27,3.74,9.2,9.08,11.5.35.15.55.4.59.84-.87.69-2.65.49-3.7.4-9.91-.88-16.96-10.59-15.39-20.74,2.69-27.18,43.54-23.39,40.69,5.39-.12,1.25-.77,4.62-2.13,4.37h0Z"/>
  <path class="st27" d="M1251.03,158.25c-.49-.94-.6-2.16-.36-3.65-.49-1.71-.5-3.2-.03-4.48l-.54-.09c-.2-2.1-.73-3.6-3.25-2.82l-.88-.35c-3.82.18-8.71.82-9.84,5.53-.99,4.11,1.67,8.56,5.79,9.06l.54.87c.94.1,1.33.37,1.17.81-.13.03-.39.36-.78.41-1.8-.25-3.65-.37-5.45,0-.96-.11-1.79-.63-2.34-.81-7.34-2.9-11.55-10.83-8.78-18.75,4.74-13.54,24.77-12.15,28.19,1.91,1.02,4.19.07,10-3.44,12.37h0Z"/>
  <path class="st33" d="M1263.11,115.13c-3.05,6.15-11.9,4.09-17.22,2.73-10.75-2.75-19.84-8.35-31.66-4.77l-3.69-.2c.03-1.57,6.92-4.21,8.35-4.7s3.4-1.14,4.86-1.43c13.79-2.73,25.78,8.68,39.36,8.36h0Z"/>
  <path class="st33" d="M1302.25,113.09c9.12-1.2,18.14-8.93,28.42-9.38,6.09-.26,12.61,2.09,16.18,7.34l-13.42-1.23c-11.39-1.76-25.43,11.62-36.14,6.42-1.08-.53-2.86-1.79-3.03-3.14,2.53-.24,5.52.32,7.98,0h.01Z"/>
  <path class="st38" d="M1256.49,146.86c.58-17.42-17.39-27.09-31.42-18.78-10.76,6.37-12.66,21.08-4.41,30.58-2.67-1.61-5.04-5.42-6.14-8.44-8.9-24.31,31.4-40.65,41.49-14.04,1.14,3.01,2.18,7.83.48,10.68h0Z"/>
  <path class="st28" d="M1339.45,160.69c-1.04.43-1.13,0-.39-.81-.35-1.12.84-3.06,1.95-3.25.84-2.3,1.88-3.39,3.12-3.25.63-.8,1.48-4.7,1.57-5.88,2.02-25.33-36.07-30.1-40.13-3.88-.72-.65-.42-2.09-.29-2.95,1.82-11.31,11.9-18.46,22.64-17.34,18.01,1.88,27.82,25.86,11.54,37.38v-.02h0Z"/>
  <path class="st36" d="M1294.27,178.99c.62,2.22-2.24,3.88-3.9,4.68-5.32,2.56-15.27,3.21-20.23-.43-3.37-2.48-3.96-6.43-1.97-10.14.52-.97,4.03-5.06,4.85-5.08.89-.03,2.77,1.5,2.51,2.56s-7.28,4.55-6.14,8.53c.82,2.85,10.63,3.35,12.98,3.13,4.22-.4,7.81-2.8,11.89-3.25h.01Z"/>
  <path class="st35" d="M1344.12,150.52l-.88-.86c-1.17-18.51-30.57-15.45-26.93,2.44,1.71,8.39,6.98,9.76,14.24,10.9l.33.54c.75-.31,1.19-.45.78.41-2.1.82-4.89.49-7.01,0-9.67-2.24-13.34-15.33-7.21-23.19,8.75-11.23,27.45-5.26,26.69,9.77h0Z"/>
  <path class="st31" d="M1255.32,150.92c.01,1.05-.25,2.13-.78,3.25-2.31,4.96-5.65,7.81-10.91,8.95l-1.17-.81.7-.8c2.62-.07,4.99-1.44,6.83-3.32l1.04.06c6.76-7.43,2.8-20.08-6.62-22.58-14.82-3.93-24.34,11.77-14.42,23.61l5.07,3.45c-14.25-4.68-12.99-24.67,1.16-28.29,9.75-2.49,20.09,5.69,19.1,16.49h0Z"/>
  <path class="st0" d="M1372.95,147.26c.47,3.43-5.44,4.25-6.42,6.51-1.39,3.18,2.27,12.25-3.7,12.2.08-1.1.96-1.46,1.14-2.66.37-2.39-.79-4.24-.79-6.49,0-4.54,5.29-10.23,9.77-9.56h0Z"/>
  <path class="st15" d="M1188.51,146.05c.74-.03,4.45,2.01,5.23,2.67,4.53,3.85,2.42,7.02,2.75,11.78.06.88,1.4,5.08.21,5.06-1.02-.02-2.8-4.37-2.89-5.54-.14-1.92,1.04-5.06.69-6.36-.33-1.21-5.19-5.04-6.17-6.6-.35-.55-.34-.98.19-1.01h0Z"/>
  <path class="st46" d="M1339.45,160.69c-2.81,1.99-4,3.39-7.79,3.25-.04,0-.08-.36-.78-.41-.54-.46-.15-.73,1.17-.81.77-.77,1.93-1.27,3.48-1.5,1.29-.95,2.47-1.4,3.53-1.35l.39.81h0Z"/>
  <path class="st9" d="M1242.85,163.54c-1.09.14-2.75.06-3.9,0-.51-.02-1.05.06-1.56,0,1.31-.68,4.07-.69,5.45,0h.01Z"/>
  <path class="st23" d="M1255.71,151.74c-.34,1.29-.75,1.54-1.17,2.44-.16-1.01.71-2.54.78-3.25l.39.81Z"/>
  <path class="st40" d="M1308.29,208.28c-14.2,3.4-29.02,3.06-43.37.75-2.36-.38-5.35-.75-7.58-1.45-.39-.12-1.16.04-.85-.72.11-.28,1.98-2.14,2.36-2.42,8.02-5.96,18.6,1.6,27.39.94,6.65-.5,13.35-4.22,19.69-.12,1.07.69,2.56,1.5,2.37,3.02h-.01Z"/>
  <path class="st29" d="M1305.95,226.99c-9.75-4.83-20.28-5.83-30.96-4.87-3.52.32-7.42,1.37-10.92,1.62-.45.03-2.91.39-2.52-.6.83-2.09,8.24-5.74,10.42-6.62,8.33-3.36,16.55-5.19,24.53.21,3.82,2.59,6.73,6.52,9.45,10.26Z"/>
  <path class="st27" d="M1344.12,150.52c.09.92-.17,1.73-.3,2.61l.3.24c-.8,1.03-.99.69-2.01,2.58-.1.19-.89,1.53-1.11.68l-.67-.63c.06-1.75.03-3.44-.11-5.07-.26-1.47-.84-2.5-1.75-3.1-.85,0-1.56-.19-2.15-.56-10.6-1.93-16.37,11.58-4.64,14.62l.35.84-1.17.81c-6.04-.39-12.01-1.65-14.48-8.27-7.68-20.62,25.54-27.82,27.72-4.75h.02Z"/>
  <path class="st9" d="M1245.97,146.86c.2.25.36.57.25.9-.94,2.85,1.69,3.89,3.61,2.12l.82.24c.64,2.87,1.29,5.07.39,8.14-2.28,2.51-5.19,4.25-8.57,4.07-7.67-.41-9.94-11.2-3.71-14.66,1.36-.76,6.14-2.44,7.22-.8h-.01Z"/>
  <path class="st24" d="M1250.64,150.11c-2.67,3.7-7.63-.47-4.67-3.25,1.32-1.24,4.03-.76,4.59,1.11.22.74-.05,1.58.08,2.14h0Z"/>
  <path class="st11" d="M1332.05,162.72c-2.96-.12-6.93-2.76-7.36-5.94-1.01-7.32,4.02-10.3,10.3-10.34.74,0,1.57-.38,1.35.82-1.07,2.18.53,5.75,2.9,3.81l.99-.14c1.24-.23.67.65.77,1.42.16,1.32.33,2.97,0,4.27-.26,1.06-1.19,2.5-1.95,3.25-1.74,1.73-4.59,2.94-7.01,2.85h0Z"/>
  <path class="st8" d="M1340.23,150.92c-2.1,4.4-7.45-1.6-3.9-3.66,2.34-1.36,5.14,1.05,3.9,3.66Z"/>
  <path class="st4" d="M531.07-.04l5.5,457.21,77.69-23.87,816.47,1.08,61.67,10.27-.14-440.38c-.28-7.14,540.32.41,543.02-2.02-.97,0,1.84,1147.29-.96,1144.01,1.57,5.6-2032.12-.04-2033.01,1.9C-3.05,1147.56,1.87,3.86.07,2.27,1.26,2.49,531.07-.04,531.07-.04Z"/>
  <path class="st21" d="M2034.16,644.01c.84,163.3.84,336.77,0,500.93l-.93,4.62H1.14l-1.22-4.62v-500.93h2034.24Z"/>
  <path class="st16" d="M2034.16,1148.6c.27-.84.59-.83.96,0v.96H-.08v-.96h2034.24Z"/>
  <polygon class="st3" points="2035.12 1148.6 2034.16 1148.6 2034.16 1124.61 2034.16 1100.62 2034.16 1045.92 2034.16 837.69 2035.12 837.69 2035.12 1148.6"/>
  <g>
    <path class="st43" d="M1468.01-.04l.76.88.19,66.64c7.44-1.93,14.89-4.18,22.37-6.76l.19-59.61.76-1.14h17.82v484.13c.15,1.96-2.66,4.12-3.16,4.07-3.67-.31-11.44-7.91-15.43-10.32-.2-1.9.02-2.59.72-2.95-1.15-4.13-1.85-5.14-3.91-5.18-6.53-5.84-13.21-10.99-20.04-13.88-2.53,1.47-3.55.54-5.53-2.95-3.08,2.45-4.72.13-4.93-6.98-1.81-2.44-3.83-4.18-6.05-5.23l-.34-2.27c.46-4.35.45-8.16.28-12.38l1.3-1.28c1.92.43,6.79,2.63,8.6,3.97.45.34.79,1.23,1.1,2.11l-.76-.66v-83.11l.76-1.16c-2.33,1.01-12.84-1.61-13.23-3-.17-.62-.11-1.51-.04-2.28-.07-1.57.47-2.32,1.6-2.24-.32-3.94-.22-7.03.3-9.28,2.75-1.78,6.93-.52,9.9.8.57.25,1.04,1.18,1.48,2.08l-.76-.66v-115.24l.76-1.17c-2.2,2.37-15.47,3.28-16.18,1.31-.21-.58-.19-1.48-.13-2.27l.33-1.92,4.15-.11c-.46-4.43-.32-7.59.45-9.49l1.2-1.87c2.02-.55,6.93-.91,8.92-.56.47.08.88.77,1.26,1.47l-.76-.66v-115.24l.76-1.17c-3.29,3.36-7.94,4.91-11.38,2.88l-.51-1.44c.17-3.38.27-7.25-.62-10.07l.92-2.28c3.57-1.94,7.18-3.09,10.84-3.68V1.11l.76-1.15h5.31-.03,0Z"/>
    <path class="st32" d="M606.54-.04v422.22h821.65V-.04h2.28l.52,6.75c.07,133.92.08,268.46.02,403.64l-.29,24.04c1.04.06,2.28,4.46,1.9,6.62,3.69,1.54,7.37,4.07,10.98,6.67.37.26.71.79,1.05,1.34s.68,1.24.99,1.95l-2.83,1.01-850.14.02-2.06-1.98c-.39-2.45-.04-2.64.76-.96l.52-1.63c4.54-2.54,8.92-5.6,13.16-9.19l.36-437.08.76-1.2h.38-.01Z"/>
    <path class="st39" d="M1441.09-.04l.76.64.37,75.46c1.03-1.2,1.79-.98,2.28.67.83-3.33,4.57-3.6,5.69-.96.29.1.99-.29,1.11.05.22.62.7,10.05.03,11.46-1.74,3.48-5.18,4.1-7.21,1.92l.76.66v109.97l-.76,1.16c2.16-.47,4.4-.63,6.73-.47l.48,1.91.38,11.52h-5.31c-.26,1.1-.77,1.97-1.53,2.62v108.85l6.07,1.66.39,2.02c.48,1.61.55,11.12.38,11.52-.13.31-1.81-.22-2.28,0-1.02,1.57-2.3,2.12-3.82,1.63l-.75,78.79c2.12,1.36,4.28,2.32,6.5,2.88l.35,2.11c2.07,3.66.05,11.48.56,13.46.18.71,5.19,1.21,6.19,5.44.31,1.3.65,6.54.87,6.93.33.6,2.54-1.2,3.54-.85,1.29.46,1.77,3.29,2.38,3.65.69.4,2.2-1.25,3.63-.59,6.4,2.97,13.14,7.83,19.3,13.53.92.85,2.03.32,2.88,1.34.8.95.88,3.49,1.97,4.61s5.57,2.06,6.08,3.34c.36.91.09,2.01-.56,1.91-2.53-.39-4.78-4.66-7.02-.96-15.26-9.24-30.66-17.35-45.89-26.87-4.46-2.79-8.9-6.13-13.41-8.58-.38-4.07-.75-5.31-2.15-7.45.88-106.66.05-213.63-.01-320.26-.02-38.29.54-76.43.4-114.72h10.62Z"/>
    <path class="st10" d="M542.45-.04l.76.88.05,59.73c2.22,1.09,4.6,1.87,7.14,2.35l1.15,2.29c2.66.66,2.88,13.72,0,12.47l-1.54,1.59c-2.31-.69-4.57-.68-6.8.03v120.98l-.76,1.18c3.08.63,6.17.77,9.28.44,2.23-1.25,2.15,10.15,1.07,12.18-2.7.04-5.39.31-8.07.82-.31,1.25-.81,2.11-1.52,2.57v120.56c2,.01,4-.28,6.01-.87l1.58,1.52c.76-.45,2.4-1.29,2.94-.08.19.42.48,11.91-.66,11.6-2.83,4-7.54,6.24-10.62,3.84l.76.67v90.28l-.76,1.17c2.67-3.75,6.5-5.34,9.48-3.84,1.16-.35,1.67,1.49,1.55,5.53-.43,5.58-.03,7.6,1.21,6.07,2.96-3.27,4.82-2.13,5.59,3.42,9.74-4.87,19.42-10.16,29.04-15.88,2-1.02,4.05,4.56,2.05,7.58-.34.21-.61.87-.76.96-1.75,1.08-3.56,1.79-5.31,2.88l-1.14.96c-17.15,10.6-34.37,20.68-51.58,30.71-1.41,1.14-2.17.65-2.28-1.48V1.15l.77-1.2h11.38-.01Z"/>
    <path class="st7" d="M572.03-.04l.76.88v68.58l.76,2.51c1.75.74,1.63,11.93,0,12.47l-.76,2.59-.02,112.71c.4.71.78,1.62,1.16,2.73,1.18,1.04.81,10.71-.38,11.52l-.76,2.58-.02,113.16-.36,2.3c2.53-1.08,3.25,8.92,1.9,12.47.02,1.77-.47,2.43-1.49,1.98-.06,29.46-.08,57.9-.03,85.35,1.69-.85,2.34,2.68,1.94,10.57,2.1.22,4.26-.8,6.36-1.84,6.04-3.64,11.99-7.01,17.86-10.1V1.16l.76-1.2h6.45l-.38,438.07c0,1.3-.24,1.65-.63,2.24-.58.87-4.5,3.55-5.52,4.26-2.71,1.89-5.54,2.83-8.26,4.53.74-9.91-4.04-4.17-5.99-3.16-8.03,4.2-16.24,9.69-24.09,12.15-.37.12-.77,1.63-1.17,1.5-.85-.3-.94-5.09-1.61-5.62-.73-.57-4.48,3.52-5.83,1.85-.34-.85.67-11.69-.76-13.44l1.15-2.57c2.18-1.71,11.9-7.78,13.3-6.23.26.29.49.69.73,1.13l-.76-.67v-85.49l.76-1.17-1.04,1.8c-4.22,1.08-8.4,2.06-12.55,2.93l-.45-1.85v-11.52h-2.28c-.13-.68-.25-1.52-.09-2.09.51-1.83,14.09-4.35,16.4-2.7l-.76-.66v-117.16l.76-1.17-1.31,1.35c-6.08,1-12.3.71-18.43.4-.44-.02-.88-.28-1.32-.57s-.89-.72-1.32-1.18c1.39-2.72,6.55.46,7.53-1.09.57-.91.57-9.14.09-10.82-.57-2.03-8.52,1.09-9.9-1.52.4-.47.79-.91,1.2-1.22s.8-.58,1.2-.61c7.45-.58,15.13-.55,22.25,1.35l-.76-.66v-116.68l.76-1.17c-4.92,1.84-10.44.43-15.12-2.64l-.43-2.16c1.86-.52,1.43-11,0-12.47.43-.37.87-.7,1.32-.9s.88-.38,1.29-.27c3.94,1.07,7.89,2.18,11.8,3.81V1.12l.76-1.16h5.33Z"/>
    <path class="st32" d="M599.71-.04v430.38c-.07,1.97-.73,2.74-1.43,3.11-7.04,1.3-15.44,9.73-22.27,10.84-.7.11-1.41-.1-2.1-.03-.08-2.55.27-10.91-.44-12.35-.21-.43-.55,0-.7-.13l.18-2.06c6.23-3.27,12.37-6.58,18.4-9.94-.3-.08-.75-.36-.76-.89-.24-24.62-.24-51.05,0-75.69l.76-1.15c-1.07-.44-2.2-.47-3.39-.07l-13.12,4.23-.56-1.76c-.08-2.82-.18-7.94-.63-10.35-.28-1.53-.9-1.14-1.26-2.13l.27-2,17.52-4.57c.65-1.04.85-28.16.88-32.68.19-25.65.02-52.65-.45-77.29-5.01.55-10.31.9-15.36.23-.63-.08-1.2-.93-1.73-1.72l.38-11.52,1.33-1.74c5.01-.17,9.99-.8,14.94-1.91l.41-107.26-15.6-4.99-1.46-2.13c.45-3.93.71-8.64,0-12.47.98-.57,1.98-1.15,2.99-.93l13.7,3.58V1.12l.76-1.16h8.74,0Z"/>
    <path class="st2" d="M528.41-.04l.52,26.76c.21,151.53.33,303.07.38,454.61.85,1.44,1.06,3.15.62,5.15-1.86.84-2.98,1.23-4.91-.05-.21-10.98.38-22.18-.41-33.02l.02-453.45h3.79-.01Z"/>
    <polygon class="st37" points="1492.28 -.04 1492.12 62.39 1468.21 70.03 1468.01 -.04 1492.28 -.04"/>
    <path class="st37" d="M566.72-.04v70.05c-5.03-2.03-10.12-3.27-15.17-4.79-2.7-.81-5.42-1.89-8.16-1.91l-.89-1.58-.05-61.76h24.27,0Z"/>
    <path class="st37" d="M590.99-.04v76.77c-5.81-1.43-11.67-2.73-17.45-4.8-.48-.17-1.03.13-1.52,0V-.04h18.97Z"/>
    <path class="st37" d="M1462.7-.04v71.97c-2.05,0-4.17.43-6.21,1.08s-4.23,2.09-6.3,2.76c-1.75.56-3.92.38-5.69.96l-.76-.89V1.12l.76-1.16s18.2,0,18.2,0Z"/>
    <path class="st12" d="M531.07-.04v484.04l1.52.56c-.66,1.24-1.83,1.54-2.65,1.92l-1.34-4.77c-.43-160.49-.06-321.19-.18-481.75h2.65Z"/>
    <path class="st5" d="M1444.5-.04v76.77c-.87.28-2.14,1.35-3.03,1.92l-.38-78.69s3.41,0,3.41,0Z"/>
    <path class="st32" d="M585.3,452.89c-.19.12-.64.65-1.14.96l1.14-.96Z"/>
    <polygon class="st37" points="1492.28 76.73 1492.28 201.48 1468.01 201.48 1468.01 82.49 1492.28 76.73"/>
    <polygon class="st37" points="1492.28 214.91 1492.28 340.62 1468.01 333.9 1468.01 214.91 1492.28 214.91"/>
    <polygon class="st37" points="1492.28 354.05 1492.28 446.17 1468.01 434.66 1468.01 347.33 1492.28 354.05"/>
    <path class="st37" d="M1451.33,87.28c3.78-1.1,7.57-2.51,11.38-2.88v117.07c-3.63,1.58-7.65,1.1-11.38.96-1.07-.04-7.21.86-7.21-1.44v-111.79c2.38-.96,4.81-1.22,7.21-1.92Z"/>
    <path class="st37" d="M1446.39,213.95c.13.03.58.97,1.28,1.03,4.99.4,10.03-.44,15.02-.07v117.07c-3.82-.25-7.6-1.79-11.38-2.88-1.01-.29-7.14-1.21-7.23-2.48l.02-110.28c.08-2.91,1.33-2.61,2.28-2.4h0Z"/>
    <path class="st37" d="M1449.43,340.62c.07.02.43.87.92,1,3.8,1.04,7.6,2.05,11.41,2.83.31-.03.95.91.95,1.44v84.92c-3.69-.42-7.37-2.99-11-4.8-1.95-.97-5.27-1.48-6.94-3.06-.46-.44-.63-.95-.64-2.21l.76-81.1c1.5.53,3.05.58,4.55.97h-.01Z"/>
    <rect class="st45" x="1466.87" y="82.49" width=".76" height="118.99"/>
    <rect class="st45" x="1466.87" y="214.91" width=".76" height="118.99"/>
    <path class="st37" d="M551.55,77.69c.78.2,2.18,1.62,3.23,1.91,4.09,1.12,8.22,1.89,12.32,2.89v118.51c0,3.25-5.7.51-6.62.44-6-.43-12.03.4-18.03.04v-124.75c2.97.1,6.15.23,9.1.96h0Z"/>
    <path class="st37" d="M544.72,214.91c7.43-.66,14.94.49,22.38,0v118.99c-5.11,1.69-10.27,2.39-15.39,3.8-.5.14-.84.98-.92,1-2.75.79-5.59,1.05-8.34,1.92v-125.72c.75-.05,1.52.07,2.28,0h-.01Z"/>
    <path class="st37" d="M553.07,350.21c.77-.24,1.65.22,2.46,0,3.86-1.07,7.66-3.6,11.57-2.87v87.32c-5.17.97-10.15,5.12-15.17,7.68-3.1,1.58-6.33,2.94-9.48,3.84v-92.12c3.55-.79,7.1-2.74,10.62-3.84h0Z"/>
    <path class="st37" d="M573.54,213.95c5.67-.87,11.7.56,17.41.11.17,2.02.38,4.01.43,6.1.77,28.28.73,71.54,0,99.87-.06,2.42-.38,4.7-.41,7.12l-18.57,4.84c-.27-.73-.48-1.01-.4-2.3l.02-115.74c.5-.06,1.02.08,1.52,0h0Z"/>
    <path class="st37" d="M573.54,84.4c5.78.57,12.03,4.13,17.83,5.34l-.43,111.62c-5.66-.81-11.37,2.14-17.03,1.06-1.09-.21-1.95.59-1.92-3.31l.02-114.72c.5.02,1.02-.04,1.52,0h0Z"/>
    <path class="st37" d="M574.3,344.46c2.2-.64,15.88-5.76,16.62-4.64.04.06.44,2.12.44,2.24v77.73c0,.61-.5,2.59-.91,2.56l-17.67,9.43c-.23-.22-.81.56-.77-.57v-83.44c-.06-4.39,1.15-2.98,2.28-3.31h0Z"/>
    <rect class="st14" x="593.64" y="90.16" width=".76" height="111.31"/>
  </g>
  <g>
    <path class="st42" d="M1399,490.57c-5.02-5.65-10.25-13.17-15.5-18.31-5.98-5.86-17.37-11.24-24.4-16.61-12.93-9.87-22.75-23.44-33.7-35.26-18.11-19.54-34.41-36.18-50.65-57.45-3.63-4.75-10.43-11.52-13.11-16.3l-28.84-38.41c10.9,6.18,28.38,37.06,26.21,39.17-2.47,2.4-11.35,13.68-14.38,15.28-1.47.78-4.95,4.64-6.43,5.48-.09,1.92-1.11.84-3.33,1.73-4.91,1.96-13.98,3.86-19,1.88l-1.38,2.35c2.22.75,10.87,10.55,13.43,12.9,22.37,20.48,48.83,44.57,73.46,62.01,5.48,3.88,28.41,17.82,30.39,22.66,1.62,3.96,2.13,8.83,4.24,13.32,1.45,3.07,6.02,8.54,6.71,10.6.84,2.52.72,5.79,2.02,8.56,1.93,4.1,6.96,8.08,11.66,8.26,2.48.1,5.38-1.63,7.41-1.7,3.95-.15,5.85,2.18,10.19-.99.9-.66,2.3-2.66,2.46-2.74.58-.3,2.37-.11,3.53-.48,5.24-1.68,6.13-4.2,8.13-8.84,2.43,2.66,5.01,5.23,7.68,7.65,3.81,3.46,10.72,10.27,14.76,12.76,2.75,1.69,7.03,3.19,9.07-.05l.07-1.62c-4.31-10.12-13.48-17.65-20.74-25.82Z"/>
    <path class="st19" d="M1418.01,518.3c-.22.22-5.12-1.96-5.81-2.33-4.24-2.3-21.22-17.51-23.72-21.35-.46-.7-.76-1.75-.88-2.58-.79-.2-.61.58-.77,1.13-1.36,4.46-.74,11.89-7.53,10.93-.45-.47,1.24-5.35-.83-5.99-.39,5.15-4.2,11.8-10.21,11.47-4.11-.23-1.64-2.19-1.74-4.98-2.28,1.79-3.07,4.73-6.32,5.41-7.75,1.62-13.4-5.2-14.45-12.03.6-.88,1.22.23,1.65.61.8.7,4.16,4.76,4.49,4.79.66.07,1.04-1.22.66-2.12-.29-.68-7.62-7.23-9.03-9.06-3.11-4.01-5.67-9.48-7.25-14.26-.7-2.12-.85-5.94-2.04-7.5-1.97-2.58-11.12-9.31-14.24-11.67-10.9-8.23-22.83-14.84-33.44-23.58-8.51-7-16.47-15.19-24.83-22.44-14.55-12.62-30.23-24.25-42.87-38.74,18.47-.41,33.43-11.02,42.51-26.19l28.26,36.98c31.16,29.3,54.15,66.75,92.52,88.03l35.56,41.37c.83,1.22.34,2.73.33,4.1Z"/>
  </g>
</svg>