<?xml version="1.0" encoding="UTF-8"?>
<svg id="Layer_1" xmlns="http://www.w3.org/2000/svg" version="1.1" viewBox="0 0 1024 1536">
  <!-- Generator: Adobe Illustrator 29.7.1, SVG Export Plug-In . SVG Version: 2.1.1 Build 8)  -->
  <path d="M601.11,315.88c20.44,8.74,18.22,33.08,13.38,51.11-6.58,24.55-26.74,51.9-55.45,43.03-11.16,43.77-38.55,74.75-79.37,93.15-3.55,1.6-14.19,4.38-16.02,5.74-2.91,2.17-1.6,14.66,1.06,17.14,33.81,12.49,68.19,23.17,88.69,55.03,22.35,34.73,30.28,82.46,42.52,121.55.5,2.51-.19,4.26-1.48,6.32-4.56,7.24-9.12,1.49-8.49,13.6,1.38,26.2,6.61,54.46,9.03,80.96,4.34,47.45,8.93,95.5,11.99,143.01,1.51,23.4,2.35,50.96-18.49,66.49-2.38,1.77-18.34,11.42-20.25,11.79-5.72,1.11-7.68-1.84-12.24-3.79-5.4,17.31-15.09,33-26.82,46.69-2.46,40.97-4.74,82.07-7.19,122.81-1.68,27.91-1.47,59.6-5.02,86.98-.42,3.21-1.05,10.56-4.02,12.01-1.3.63-3.85.08-4.03,1.07-.42,2.36-.26,12.3.98,14.01s4.72,2.21,6.61,3.39c20.13,12.61,58.69,53.48,61.37,77.63,5.44,49.12-51.84,53.02-85.27,36.27-15.02-7.52-49.24-34.91-58.25-48.75-6.56-10.09-2.73-15.88-2.33-26.58.44-11.93-.51-21.59,2.45-33.55,1.7-6.89,6.34-13.81,4.55-21.33-.43-1.79-10.38-1.46-11.97-9.23-4.86-53.5-7.76-107.17-11.21-160.79-.33-1.3-1.22-1.43-2.36-1.64-6.12-1.13-15.76.57-22.5-1l-10,115.5c-3.14,14.29-1.73,31.98-5.09,45.91-2.11,8.76-7.76,6.79-9.42,9.58-.27.46-1.53,9.47-1.52,10.55.05,3.17,4.12,12.05,4.91,17.09,1.74,11.15,4.15,41.6.31,51.06-8.11,19.99-54.01,54.64-75.18,59.82-57.18,14-95.88-32.24-51.54-78.54,4.83-5.05,11.28-9.34,16.04-14.96,8.81-10.38,12.44-20.07,24.58-28.42,6.06-4.17,7.34-.78,8.78-9.21.2-1.18,1.19-8.35,1.15-8.79-.04-.51-4.66-2.57-5.51-4.61-2.97-7.07-2.02-34.96-2.48-44.52-2.27-47.57-4.26-95.31-6.08-142.92-.55-14.28.86-32.07-1.05-45.95-.62-4.47-23.15-38.94-25.51-39.51-.79-.19-7.83,3.31-10.14,3.68-5.81.91-24.19-.84-30.71-1.8-1.87-.28-2.94-1.26-4.54-1.95-8.58,27.76-15.61,56.4-18,85.51-2.54,30.97,1.34,55.08,2.97,85,.24,4.47.92,11.05-4.71,12.29-8.73,1.92-10.61-5.82-12-12.58-9.76-47.5-4.01-115.72,10.46-161.99.99-3.17,6.2-14.26,6.2-15.74,0-2.42-3.54-5.79-4.65-8.28-14.21-31.81,3.22-69.84,9.42-102.01,6.91-35.81,10.26-74.25,15.44-110.56,3.21-22.49,6.76-45,10.66-67.39-.12-3.09-8.57-4.24-8.32-10.37,11.62-37.32,19.86-80.54,39.34-114.56,15.69-27.41,33.47-39.8,62.2-51.8,6.59-2.75,28.11-8.84,31.96-12.06,2.87-2.41,1.69-13.97,2.06-17.81-45.95-15.25-83.37-51.63-94.05-99.66-23.86,9.49-42.35-9.12-50.48-30.02-6.74-17.34-11.85-45.83,6.55-57.54-4.7-10.55-7.85-22.78-9.77-34.23-16.26-96.73,27.96-193.94,130.5-211.92,61.48-10.78,139.94-3.87,188.22,39.19,2.4,2.14,11.14,12.52,12,13,1.94,1.1,13.99,2.8,18.51,4.49,52.64,19.69,63.46,86.06,58.35,135.4-1.71,16.51-6.49,32.33-9.76,48.5Z" fill="#010101"/>
  <path d="M798,1386c9.12,30.54-27.01,39.26-48.94,27.44-19.67-10.6-18.96-33.93-20.06-53.44-12.48,4.63-25.48,8.86-39,8-1,7.27,7.9,9.96,12,15.5,6.81,9.19,9.33,23.8.54,32.54-12.38,12.3-48.2,8.16-55.43-8.65-5.74-13.34.25-29.02,2.88-42.39-6.29,2.14-4.59,10.32-7.98,15.51-7.04,10.79-36.43,8.6-46.35,2.33-5.81-3.67-11.42-12.46-11.69-19.39-.16-4.13,3.32-13.05,2.89-14.74-.36-1.41-3.18-3.22-4.27-4.79-22.52-32.53-24.37-82.09-10.61-118.44,1.04-2.75,5.63-10.05,5.82-11.15.21-1.21-3.34-8.1-3.71-10.91-5.24-39.9,30.04-83.8,46.09-118.74,8.33-18.14,14.93-36.97,21.04-55.96,3.05-9.48,2.33-10.28,2.8-20.2.14-2.86,2-7.45,1.7-9.91-.23-1.91-4.03-6.27-5.23-8.59-6.91-13.28-11.69-25.58-10.49-41.01-4.82,1.75-10.95,7.68-14.79,1.29-1.06-11.29,1.8-22.49.78-33.78-1.9-21.02-14.37-35.39-4.17-58.2,7.7-17.21,41.19-43.98,57.88-53.12,17.06-9.35,32.37-5.87,40.97,11.84,22.37-1,46.73-1.52,66.84,9.79,15.8-19.14,32.98-26.68,53.14-7.48,7.13,6.78,28.64,33.54,33.55,41.96,25.23,43.29-18.65,66.05-30.95,97.44-3.91,9.96-3.61,24.17-19.24,19.25.04,6.23-3.98,13.61-4.07,19.57-.03,1.89,1.84,1.3,2.39,2.64,1.39,3.43,1.23,29.99-.44,33.17-1.46,2.79-4.09,2.36-3.93,7.06.85,24.84,10.78,52.64,14.76,77.35,3.11,19.28,5.32,47.34,4.33,66.75-.23,4.44-4.93,28.27-3.96,29.38.17.19,3.24.54,4.88,1.62,6.34,4.2,8.96,14.27,9.04,21.46,2.31.57,1.64-.44,2.29-1.26,19.31-24.87,15.68-42.29,17.67-71.27.32-4.72.45-8.4,6.02-5.94,6.28,2.78,9.64,25.3,10.06,31.93,1.94,30.3-7.95,64.95-28.07,88.01-4.67,5.36-12.32,8.57-15.41,12.59s-5.03,11.36-7.76,16.24c-5.53,9.88-12.07,19.14-18.78,28.22-.34,2.19.35,1.16,1.44,1.5,8.04,2.47,16.69,4.92,22.54,11.49,8.21,9.21,7.56,23.89-2.24,31.75-1.91,1.53-10.23,5.75-12.25,5.75h-14.5Z" fill="#030202"/>
  <path d="M344.99,532c-3.01,38.19,43.26,46.05,72.55,44.04,23.85-1.64,54.45-15.23,53.95-43.03,26.51,9.71,52.85,19.23,71.48,41.52,20.27,24.26,34.74,74.42,42.75,105.25,1.24,4.78,6.62,23.4,6.29,26.7-.41,4.13-19.08,13.8-23.33,15.69-8.89,3.96-22.06,8.28-31.66,9.43-1.04.12-1.73.67-2.55-.56l-9.47-105.04c-4.28-.14-3.1,6.38-2.98,9.49.74,18.61,4.38,37.45,5.98,56.01,4.89,56.78,7.85,115.06,8.97,172.03.11,5.41,3.68,18.76-1.58,22.34s-21.96,8.17-28.96,10.04c-56.8,15.17-128.13,15.62-185.63,3.78-7.55-1.55-47.29-11.73-50.31-16.69-1.03-1.69-.57-9.87-.48-12.5,1.43-40.59,5.56-84.33,9-125,3.32-39.32,8.17-78.55,11.89-117.83l-2.89-1.67c-4.72,34.82-7.76,69.97-11.01,104.99-13.72-2.64-27.52-6.12-40.04-12.45-3.48-1.76-17.43-9.93-18-13.06-.23-1.26.1-2.5.27-3.74,1.92-13.55,12.33-41.7,17.05-55.96,11.93-35.98,25.06-71.4,58.8-92.2,15.46-9.53,33.01-15.17,49.91-21.58Z" fill="#50bf48"/>
  <path d="M557.86,256.14l5.15,95.86,5.82-13.66c6.06-14.52,23.17-29.33,37.71-15.37,20.68,19.85-2.16,81.04-32.13,84.96-1.76.23-12.94.56-13.42.09-.85-.84,1.8-9.99-1.98-11-10.44,57.75-50.35,98.07-107.19,111.32-83.86,19.54-178.27-19.86-194.83-110.31-5.34,2.21-.35,8.39-6.71,9.77-42.1,9.17-65.57-85.65-24.82-88.81,17.26-1.34,20.71,12.78,27.31,24.76.63,1.15-.06,1.69,2.23,1.28l5.02-80.49c1.65-15.99,1.64-11.15,14.47-12.53,29.86-3.2,72.67-19.79,97.83-36.17,2.91-1.89,9.02-7.86,11.2-8.81,4.5-1.96-3.84,7.79-4.49,8.52-3.18,3.58-8.4,8.97-12.01,11.99-2.23,1.86-13.76,8.9-14,10.01-.48,2.21,4.39,3.59,5.95,4.02,27.68,7.67,66.71-4,89.37-20.71,2.98-2.19,11.71-11.16,13.18-11.82.53-.24,1.7-.19,1.48.49-2.14,3.04-3.3,6.63-5.19,9.81s-11.83,13.76-3.35,13.74c9.08-.01,26.07-9.15,33.46-14.63,8.99-6.68,14.21-14.79,22.08-22.41,2.04,27.17,23.02,50.86,47.87,60.14Z" fill="#b98361"/>
  <path d="M530,894c-.36,6.33,1.04,12.19,1.05,18.55.06,41.89-3.34,83.81-4.26,125.74-22.13,37.62-63.91,62.33-107.79,62.72l-9-140c3.06-.52,20.97-2.52,22-4.02.61-.88-.09-3.46-1.65-3.9-1.73-.49-16,2.74-19.81,2.96-4.02.22-8.99.16-13.03-.05-2.44-.13-15.89-2.57-16.5-1.99-.56.53-.12,3.3,1.66,3.83,2.71.81,17.65,1.55,18.34,2.17l-12.01,139c-26.59-4.45-51.53-16.98-70.89-35.6-8.28-7.97-35.17-39.79-36.15-49.85s.36-21.18.09-31.09c-.44-16.45-1.83-33.47-2.08-49.92-.2-13.17.23-26.38.05-39.54,16.41,4.76,32.94,9.61,49.81,12.68,51.43,9.37,113.26,9.08,164.37-2,12.13-2.63,23.79-6.75,35.81-9.69Z" fill="#006faa"/>
  <path d="M370.74,1283.75c-2.81,2.93-19.8,6.7-24.37,7.12-17.04,1.56-39.31.94-54.37-7.62l-7.5-227.23c23.38,28.13,53.45,47.97,88.5,58.48,2.63.79,13.5,2.52,13.89,4.07l-16.15,165.18Z" fill="#006faa"/>
  <path d="M523.99,1074l-12.18,209.31c-.84,2.89-7.08,4.37-9.82,5.18-11.16,3.32-24.93,4.22-36.54,3.55-6.15-.35-33.22-3.79-34.47-10.53l-10.55-160.54,30.19-4.84c28.37-6.57,52.28-22.77,73.36-42.13Z" fill="#006faa"/>
  <path d="M222,969c-1.92-.29-2.68.78-2.99,2.51-1.38,7.55,1.1,23.56,4.22,30.77,1.4,3.24,4,5.42,4.77,8.72-16.46-3.75-19.92-27.8-20-41.99-4.45-.13-3.25,9.38-2.98,12.48.87,9.83,5.52,20.64,11.98,28.02-18.29-.97-20.87-28.98-21-43.5-3.03-.49-1.59.76-2.02,2.43-1.74,6.82-.1,19.12,2.25,25.84,1.18,3.38,3.39,6.43,4.77,9.72-6.81-2.37-10.79-12.45-12.51-18.98-7.17-27.3,5.01-56.48,11.02-83,10.43-61.44,17.89-123.43,27.5-185.01,14.8,8.64,31.64,16.29,49,16.99-1.46,21.12-4.36,42.37-8.32,63.19-5.9,31.02-19.87,68.89-21.67,99.32-1.06,17.98,6.85,21.17,12.47,35.51s6.07,35.09,3.5,49.46c-.37,2.07-2.44,4.17-4.53,4.53-12.78,2.18-8.27-23.43-13.57-30.38s-8.44,9.65-8.76,13c-1.32,13.86,2.95,27.59,7.45,40.42-8.48,5.74-14.36-2.56-17.05-10.06-.69-1.94-3.52-12.15-3.52-13.48v-16.5Z" fill="#b98360"/>
  <path d="M585.01,1010c4.64-13.5,9.69-27.45,8.99-42.01h-2.99c-.57,14.51-4.12,33.49-13.49,45.02-1.27,1.57-6.2,6.59-7.77,7.23-2.21.91-7.75,1.83-8.64-.89-1.39-4.2,7.96-19.3,9.61-25.14,2.77-9.83,2.72-18.53,1.15-28.57-.24-1.55-.96-8.6-2.36-8.62l-5.78,29.2c-.46,7.21-12.53,27.36-19.14,14.7-4.22-8.09.85-15.79,2.17-23.67,2.37-14.24-.42-28.21,3.79-42.21s9.28-16.3,8.5-33.58c-1.37-30.2-11.14-62.15-15.88-92.12-3.94-24.9-6.11-50.26-8.15-75.34,4.96,2.12,11.61-.35,16.75-1.74,10.11-2.73,19.61-7.23,28.72-12.26,1.53.32,2.07,6.75,2.38,8.65,12.41,75.65,12.17,155.54,21.18,231.82.14,17.67-3.01,39.38-19.03,49.54Z" fill="#b88360"/>
  <path d="M458.99,511c.16,4.51-.61,10.02,1.27,14.23,3.35,7.5,10.65,4.92,5.94,18.48-13.15,37.83-89.64,37.5-111.62,8.2-3.79-5.05-7.31-12.81-5.38-19.21.48-1.61,2.74-2.7,3.65-4.34,3.21-5.8,1.94-12.01,2.15-18.36,9.65,1.5,18.95,4.45,28.64,5.86,25.86,3.76,50.13,1.49,75.35-4.85Z" fill="#b98360"/>
  <path d="M277.99,1009c-3.19-3.75-12.97-15.44-13.84-19.74-.36-1.8,2.57-11.33,2.84-14.77,1.24-15.56,0-34.99-6.81-49.16-2.21-4.6-6.54-8.99-8.37-13.63-5.3-13.4,2.29-45.04,5.69-59.71,2.83-12.21,5.88-26.2,12.02-36.98,1.78,12.15-.91,24.4-1.49,36.51-.38,7.78-1.82,20.93-1.01,27.99,1.04,8.98,8.1,8.37,8.97,13.03-.16,38.9,1.03,77.7,2.02,116.47Z" fill="#f9f8f7"/>
  <path d="M531.01,1030c.09-1.92.96-3.39,1.06-5.43,1.9-42.2,2.98-85.92,2.98-128.11,0-1.62-1.08-4-.88-4.87.48-2.1,7.68-1.95,7.88-10.13.44-18.36-2.74-37.5-2.04-55.97.05-1.21-.75-3.72.99-3.48,3.76,19.13,9.33,39.35,11.88,58.62,1.08,8.17,3.1,25.28,2.15,32.9-.63,5.1-5.99,12.53-7.74,18.26-4.12,13.46-2.38,23.43-3.29,36.71-.59,8.53-5.05,18.79-5.06,26.01,0,3.98,2.89,9.51,2.83,11.82-.14,4.88-7.18,19.51-10.74,23.68Z" fill="#f9f8f6"/>
  <path d="M393.06,1099.95l12.44-135.93,9.53,135.49c0,.83-.27,1.56-.98,2.04-2.75,1.85-16.85-1.62-20.99-1.6Z" fill="#f8f7f5"/>
  <path d="M361.99,1291c-.7,18.73-8.9,39.05-30.98,36.99-.7-19.06-19.57-23.62-35.06-26.61l1.07-11.39c19.87,6.36,45.11,7.38,64.98,1Z" fill="#b8825f"/>
  <path d="M503.99,1292l1,11.99c-16.97.75-30.17,9.8-37.58,24.85-12.79-2.36-20.95-10.2-23.96-22.79-4.81-20.13,1.58-12.33,15.06-11.06,14.71,1.38,31.08.64,45.47-2.98Z" fill="#b9825f"/>
  <path d="M271,1332c.03-2.51-.77-4.47,1.7-5.8,6.71-3.62,27.66,1.48,34.63,4.98,4.08,2.05,12.61,7.13,8.74,12.41-2.49,3.4-6.29-1.68-9.03-3.12-10.97-5.75-23.7-8.41-36.04-8.47Z" fill="#484d4e"/>
  <path d="M267.72,1339.22c9.57-2.22,30.82,4.59,37.33,12.22,2.02,2.37,3.68,5.94-.58,6.61-2.88.45-10.09-5.48-13.93-7.09-3.38-1.41-7.92-2.67-11.52-3.48-2.77-.62-13.47-1.54-14.06-1.94-2.83-1.94-.4-5.59,2.77-6.33Z" fill="#474d4e"/>
  <path d="M524.79,1341.3c3.08-.29,11.89-.45,14.23,1.17,1.57,1.09,1.43,3.96-.02,5.04-2.22,1.65-16.21,1.86-21.02,2.98s-15.53,7.15-17.67,7.35-3.87-2.56-2.85-4.81c2.47-5.41,21.45-11.17,27.32-11.72Z" fill="#474d4d"/>
  <path d="M517.83,1327.25c4.82-.12,17.65,1.52,8.91,6.99-10.44,1.17-20.33,1.74-30.12,5.88-1.91.81-4.85,3.59-6.29,3.73-2.41.24-3.77-3-3.19-5.14,1.65-5.97,24.84-11.33,30.69-11.47Z" fill="#484d4e"/>
  <path d="M804.99,1042c1.59,30.45,12.41,59.37,15.99,89.51,7.32,61.44-4.65,105.44-26.24,161.74-5.97,15.57-13.23,28.86-17.74,45.3-.44,1.6,1.08,2.96-2,2.45.24-8.82-.33-17.71-.05-26.54,1.24-39.24,5.89-78.74,7.08-117.92.11-3.58.51-10.27-.78-13.3-.61-1.43-.26-1.51-2.26-1.24l-7.05,146.45c1.3,9.57.23,19.5,1.06,29.03,1.4,16.28,12.21,14.65,19.82,26.18,6.2,9.4,4.89,21.21-5.82,26.33,1.15-4.58,1.5-9.53.75-14.26-.23-1.44-5.15-15.63-7.76-12.74.88,5.67,4.5,9.42,4.98,15.51.7,8.8-1.15,14.75-10.78,15.26-4.83.25-1.83-2.79-2.25-6.12-.35-2.74-1.65-6.76-2.76-9.34-.69-1.61-5.81-11.49-8.19-9.3-.84.77,5.7,10.76,6.31,13.18,2.81,11.17-.49,12.62-10.53,9.54-18.25-5.59-22.86-25.39-23.82-42.18-3.36-58.67,7.49-123.53,10.81-182.36.32-5.75-3.15-6.02-3.77.31-2.46,25.1-4.29,50.84-5.98,76.02-2.04,30.29-3.07,60.47-4.17,90.83-.81,2.39-16.39,6.66-19.64,7.36-2.7.58-19.11,3.24-20.15,2.24-1.49-9.65-1.29-19.67-1.1-29.48.88-44.53,6.16-89.31,8.08-133.92.14-3.23.09-6.81-.04-10.05-.06-1.54.94-3.96-1.49-3.48-4.06,8.04-2.01,17.81-2.53,26.48-2.76,46.57-9.25,101.05-7.01,147.06.15,3.08.76,11.97,1.68,14.22.56,1.39,6.54,4.86,8.37,6.7,8.95,9,15.14,28.68-.03,34.53,1.59-7.14-.03-17-4.42-23.11-.38-.54-1.11-3.63-2.58-1.88-.42.5,3.58,9.8,3.89,12.6.92,8.31,1.52,14.02-7.65,15.13-10.32,1.25-5.65-2.35-6.21-10.28-.12-1.69-4.12-17.72-7.02-14.45-.66.74,4.83,13.12,3.76,19.27-1.17,6.7-5.31,4.85-10.74,3.2-29.13-8.85-11.29-41.57-9.99-62.93,2-32.71-4.2-68.09-4.08-101l1.91-69.91c-.15-.5-1.12-1.62-1.36-1.62-1.33,0-2.34,12-2.49,14.49-1.96,33.57-.29,70.29.95,104.03.7,18.99,4.08,38.9,2.04,57.98-.52,4.91-2.02,5.55-7,5.49.38-4.95-2.8-11-5.56-14.95-1.3-1.86-5.95-5.25-6.24-6.69-.19-.94,4.63-15.19,5.31-18.36,6.16-29.05,5.19-65.07-6.33-92.69-4.95-11.87-13.54-26.63-27.24-28.89,3.05-18.59,7.29-37.35,12.56-55.43,6.49-22.29,16.24-43.6,21.82-66.18,4.05-16.4,5.62-33.08,7.69-49.82,34.15,37.52,89.63,42.21,135.35,24.86l22.64-12.85Z" fill="#ca7437"/>
  <path d="M783,840c2.23,4.03,5.76,7.01,7.5,11,13.88,31.75-16.06,73.5,5.66,108.34,3.54,5.68,9.46,11.16,13.88,16.19.25,1.44-3.37,23.74-4.11,25.91-3.65,10.65-29.51,21.26-39.94,24.06-48.73,13.09-111.16.87-128.45-52.54-11.88-36.69,7.77-43.97,17.4-74.52,8.06-25.58,7.83-58.13,36.07-70.93,18.51-8.38,48.63-7.99,68.19-3.22,2.57.63,16.84,5.54,17.71,6.81.22.31-2.66,7.69,2.08,1.89,3.02-3.25,7.05,4.86,4,7Z" fill="#ca7437"/>
  <path d="M783,840c-1.12-2.02-1.09-5.84-4-7,12.27-15,20.59-29.2,42.32-15.82,8.07,4.97,34.56,38.96,39.85,48.15,12.61,21.92,2.97,42.47-10.34,61-5.37,7.48-12.45,13.88-17,22-3.9,6.98-5.63,19.23-8.95,24.04-5.98,8.67-20.95-9.33-24.32-14.44-19.13-29.02-.44-63.99-3.57-95.43-.71-7.07-5.38-22.36-13.99-22.51Z" fill="#884515"/>
  <path d="M630.99,1340c-11.05-4.31-20.33-5.98-31.67-1.18-7.6,3.22-7.85,9.46-13.73,2.09-22.11-27.69-23.58-88.7-7.76-119.59,9.32-18.2,27.67-23.58,41.59-6.24,25.33,31.54,23.26,88.27,11.58,124.92Z" fill="#ca7437"/>
  <path d="M706,817.99c-44.49,6.76-43.79,45.26-54.71,78.8-5.49,16.86-16.57,31.06-23.87,47.13-1.89,2.6-5.09,5.09-8.48,3.66-2.57-1.87.84-13.68,1.05-17.09,2.28-37.35-23.17-55.68,8.47-88.53,8.19-8.51,39.18-33.03,49.57-36.43,12.53-4.09,22.46.88,27.97,12.46Z" fill="#884515"/>
  <path d="M809,1006v25.5c0,7.48-30.3,21.64-37.24,23.76-35.68,10.93-77.28,7.9-107.68-14.85-13.28-9.94-18.04-16.43-15.99-33.82.11-.97.56-4.37,2.38-3.58,1.21.52,9.08,8.54,11.6,10.4,35.97,26.6,91.38,26.02,129.83,5.01l17.08-12.42Z" fill="#ce4529"/>
  <path d="M793.01,1331.01c-.93.95,1.37,2.85,1.97,3.52,8.95,9.82,30.42,5.35,34.57,25.42,1.22,5.92-.2,13.99-6.55,16.06,1.08-9.4-3.71-20.4-12-24.99-.61.66,4.66,7.36,5.47,9.02,4.98,10.19,6.53,22.77-8.48,21.98,1.41-9.84-2.86-21.86-13-24.99,4.29,4.31,14.45,18.19,8.53,24.01-5.5,5.4-12.38-4.98-16.05-8-8.27-6.8-13.9-5.81-11.42-20.47,3.36-19.82,15.68-41.15,22.96-60.04,9.44-24.49,17.65-50.92,22.99-76.52,7.39.66,11.39,12.98,11.98,19.52,2.44,26.98-7.3,57.58-21.96,80.01-1.63,2.49-13.19,18.44-14.53,18.45-.48,0-3.26-4.23-4.49-2.97Z" fill="#ca7437"/>
  <path d="M613,1384c1.14-4.69,1.56-10.59.92-15.41-.22-1.67-3.64-13.02-5.91-10.58,1.36,8.81,5.37,16.06.96,24.99-36.23-8.02-22.2-52.89,14-42.47,15.02,4.32,26.86,24.87,16.04,37.99-1.02,1.24-5.56,5.61-6.02,2.01-.31-2.47.25-5.24-.12-7.9-.15-1.11-3.1-16.64-5.87-13.62-.87.95,6.96,24.99,1.5,24.99h-15.5Z" fill="#c97437"/>
  <path d="M862.98,1164c1.02.94,5.11,15.47,5.57,17.95,4.05,21.96.44,45.21-8.69,65.41-6.2,13.71-15.41,29.23-28.85,36.64,2.05-8.21,4.15-16.43,5.72-24.77.86-4.62.47-11.34,1.51-15.49s9.3-13.27,11.93-18.07c11.91-21.71,7.34-36.07,9.93-58.09.09-.79.99-5.32,2.88-3.58Z" fill="#ca7437"/>
  <path d="M622.01,1115.01c1.86-.23.79,2.04.55,3.04-2.75,11.45-8.09,23.98-11.27,35.73-4.18,15.46-7.18,31.41-11.25,46.75-8.5-.54-12.64,10.76-17.43.35s2.2-23.2,7.22-32.57c9.82-18.31,23.98-34.15,32.18-53.32Z" fill="#f9f8f6"/>
  <path d="M309,375c-26.27-10.08-31.78-48.41-5.65-62.95,13.97-7.77,24.84-4.67,6.95,4.96-28.24,25.96,6.95,67.96,33.74,44.89,13.81-11.89,12.01-35.19-.89-47.12-.6-1-1.41-2.46-.85-3.29,3.3-4.94,23.2,13.38,22.71,19.52,6.25,35.24-23.52,58.16-56,44Z" fill="#f9f6f2"/>
  <path d="M533.99,291c-15.52-2.58-27.99-11.97-44.48-12.07-7.66-.05-32.14,5.25-34.34-5.66-2.98-14.79,30.13-17.1,39.31-16.25,16.01,1.49,39.25,16.17,39.51,33.98Z" fill="#010101"/>
  <path d="M507,376c-31.04,11.46-57.33-8.3-56-41,1.67-7.21,5.74-13.46,11.96-17.53,8.08-5.28,13.86-5.38,6.28,4.13-16.32,22.39,5.2,57.29,32.09,45.17,21.7-9.78,22.78-39.7,2.78-52.13-3.34-8.51,10.77-1.32,14.76,1.5,21.54,15.19,13.43,54.08-11.88,59.86Z" fill="#f9f6f1"/>
  <path d="M285,290c-1.08-29.11,49.05-40.74,68.69-28.19,5.77,3.69,7.97,10.92,2.26,15.64s-28.46,1.82-37.33,2.67c-12.01,1.15-22.35,7.16-33.62,9.88Z" fill="#020102"/>
  <path d="M507,376c31.51-11.64,31.43-57.35-3-63.99,6.16,4.84,11.31,8.57,14.18,16.31,11.98,32.2-26.93,58.2-49.21,32.21-11.32-13.21-8.87-33.46,3.02-45.51-9.31,3.37-17.09,11-21,19.99.88-21.52,29.03-34,48.37-31.87,36.28,3.98,44.17,51.77,15.96,70.71-1.53,1.02-6.74,4.36-8.33,2.17Z" fill="#040404"/>
  <path d="M365,331c-5.29-7.83-12.87-15.69-22-18.99,16.99,13.74,17.52,43.91-2.66,54.83-30.39,16.46-58.83-27.4-31.35-51.35,3.3-2.88,7.03-3.68,10.01-6.48-12.91,1.34-29.44,11.63-31,25.49-1.94,17.19,4.73,33.4,21,40.5-1.11,1.86-6.28-1.42-7.33-2.17-21.03-14.76-21.59-49.11-1.14-64.81,20.31-15.58,56.7-2.11,65,21.11.49,1.37-.54,1.77-.52,1.87Z" fill="#040404"/>
  <path d="M468.51,424c3.57-.88,2.36,4.74.94,6.95-8.8,13.7-38.26,23.92-53.91,25.09-22.22,1.66-56.69-5.36-70.53-24.55-1.88-2.61-2.74-6.94,1-5.01,1.85.95,7.35,7.04,10.05,8.95,28,19.83,79.15,21,105.41-2.45,2-1.79,6.48-8.84,7.03-8.98Z" fill="#030202"/>
  <path d="M387,414.99c-.59-.88.13-3.53,1.62-3.91,1.59-.4,13.28,2.27,17.91,1.95,24.68-1.71,29.65-27.44,8-36.07-4.71-1.88-12.84-.56-13.53-5.96,14.26-2.06,29.94,6.78,31.74,21.76,1.72,14.32-10.17,23.01-23.27,24.22-3.07.28-21.35-.3-22.48-2Z" fill="#040303"/>
  <path d="M246.99,374c-4.56-3.1-1.84-18.04-10.9-12.43-5.5,3.4-6.08,11.97-3.6,17.44.73,1.62,3.72,4.34,3.51,5.48-.6,3.22-3.92-.83-4.43-1.55-6.63-9.26-3.69-25.84,9.43-26.43-2.78-5.35-10.03-17.35-17.33-12.58-.75.49-2.97,7.05-4.66,5.07-2.3-2.69,4.9-11.87,12.05-9.55,8.86,2.87,18.23,25.46,15.93,34.55Z" fill="#050303"/>
  <path d="M598.99,349c-3.24.15-3.6-4.39-6.02-5.51-6.1-2.82-12.81,7.34-14.97,12.03,13.3,2.31,15.3,27.5,2,30.48.94-3.8,4.89-5.49,5.76-9.72.98-4.71.19-13.55-4.79-15.74-1.12-.49-4.19-1.04-4.89-.44-1.51,1.3-1.7,13.88-3.58,13.89-3.17.01-.46-9.13,0-10.97,1.59-6.29,5.46-16.27,10.46-20.54,7.75-6.61,14.84-3.21,16.03,6.53Z" fill="#060403"/>
  <path d="M682,965.01c1.78,15.52,6.21,27.85,23.6,29.89,12.81,1.5,24.29-1.48,33.87-9.91,3.85-3.38,11.82-10.4,5.52-14.49,1.71-7.54,15.08,4.34,14.97,7.02-2.53,3.62-4.75-1.58-7.49-2.48-10.45,21.72-45.03,33.87-64.39,17.37-1.78-1.52-2.32-4.84-5.09-4.39-4.88,11.51-20.19,5.59-26.43-2.1-1.09-1.34-7.86-11.14-4.07-11.91l9.48,11.5c3.2,2.69,9.69,6.97,13.99,4.99,1.81-.84,5.87-5.89,6-8.06.06-.91-3.58-17.07-4.07-17.85-1.26-2.01-7.29-4.03-9.93-6.07-7.91-6.12-11.33-14.88-7.47-24.52,5.03-12.56,26.42-11.25,37.29-8.3,29.13,7.9,5.3,41.68-15.79,39.3Z" fill="#010100"/>
  <path d="M748.7,883.21c16.88-5.06,18.87,24.44,5.25,33.24-6.87,4.43-13.25-5.55-13.95-11.94s1.69-19.19,8.7-21.3Z" fill="#020101"/>
  <path d="M677.71,877.21c19.26-4.34,14.08,31.37,3.73,32.82-15.29,2.15-16.53-29.94-3.73-32.82Z" fill="#030101"/>
  <path d="M483.74,311.24c30.31-5.15,47.42,31.99,25.19,51.19-19.21,16.59-47.32.7-45.92-23.9.63-11.01,9.21-25.33,20.73-27.29Z" fill="#5e6f74"/>
  <path d="M324.76,310.26c25.17-3.34,37.48,28.63,23.22,47.21-12.87,16.77-36.17,13.93-45.38-4.57s2.55-40.04,22.16-42.64Z" fill="#5e7074"/>
  <path d="M754.65,888.09c2.38.17,3.23,2.28,3.44,4.4,1.18,12.5-14.32,3.37-3.44-4.4Z" fill="#f2f0ee"/>
  <path d="M682.5,881.02c5.96,3.52,2.71,15.44-2.95,8.93-3.54-4.08.04-6.12,2.95-8.93Z" fill="#eceae8"/>
  <path d="M493,326l2.68,6.61c2.09.03,4.2-.5,6.32-1.61.23.48,1.71,1.03,2.34,3.13,2.59,8.66-1.63,18.82-11.08,20.66-16.58,3.23-25.06-27.97-3.65-29.87,1.89-.17,3.22,1.08,3.4,1.08Z" fill="#010102"/>
  <path d="M502,331c-4.02,8.06-12.76,2.33-9-5,1.68-.02,4.15-2.24,7.02-.52,1.98,1.19,1.41,4.34,1.98,5.52Z" fill="#f7f6f2"/>
  <path d="M317,331c2.12-.06,4.2-.2,6.26-.44.97-1.81,1.88-3.66,2.74-5.56,1.41.31,3.2-.16,5.04.43,21.77,6.99,6.84,37.68-11.37,26.4-5.85-3.62-6.45-8.86-5.69-15.35.47-4.02,2.95-5.16,3.02-5.48Z" fill="#010102"/>
  <path d="M326,325c2.5,6.42-3.83,10.81-9,6,.12-.55-2.57-3.95-.02-6.52,3.45-3.48,6.43-.04,9.02.52Z" fill="#f5f3ef"/>
</svg>