<?xml version="1.0" encoding="UTF-8"?>
<svg id="Layer_1" xmlns="http://www.w3.org/2000/svg" version="1.1" viewBox="0 0 133.44 133.44">
  <!-- Generator: Adobe Illustrator 29.7.1, SVG Export Plug-In . SVG Version: 2.1.1 Build 8)  -->
  <defs>
    <style>
      .st0 {
        fill: #f8f8f7;
      }

      .st1 {
        fill: #010101;
      }

      .st2 {
        fill: #100f0f;
      }

      .st3 {
        fill: #020202;
      }

      .st4 {
        fill: #5b9f59;
      }

      .st5 {
        fill: #1f1d1c;
      }

      .st6 {
        fill: #060505;
      }

      .st7 {
        fill: #020201;
      }

      .st8 {
        fill: #58a157;
      }

      .st9 {
        fill: #050505;
      }

      .st10 {
        fill: #fafbfa;
      }

      .st11 {
        fill: #d65841;
      }

      .st12 {
        fill: #fbfbfb;
      }

      .st13 {
        fill: #f9f9f9;
      }

      .st14 {
        fill: #58a057;
      }

      .st15 {
        fill: #fbfbfa;
      }

      .st16 {
        fill: #faf9f9;
      }

      .st17 {
        fill: #57a157;
      }

      .st18 {
        fill: #121110;
      }

      .st19 {
        fill: #fafaf9;
      }

      .st20 {
        fill: #57a258;
      }

      .st21 {
        fill: #57a057;
      }

      .st22 {
        fill: #020101;
      }

      .st23 {
        fill: #fcfbfa;
      }

      .st24 {
        fill: #040404;
      }

      .st25 {
        fill: #71715f;
      }

      .st26 {
        fill: #f7f8f7;
      }
    </style>
  </defs>
  <path class="st11" d="M61.37,36.64l.19.54c-2.05,2.96.94,6.97,4.36,5.62l.49.3c.58-.12.62.1.73.58l-.15,4.1c.08,1.8,1.2,2.56,2.91,2.04,5.83,2.42,8.46-5.79,2.46-7.21-.39-.53.89-4.37,1.97-3.82.09-.09.34-.14.48-.24l.48.43c.18,6.06,8.7,5.05,7.55-.86l.37-.53c1.34-.69,4.33.38,5.64,1.18l.36.73c.53.91,1.12,1.79,1.75,2.62.91.53,1.84,1.02,2.81,1.45,1.03,0,1.51,1.77,1.67,2.68s.25,2.92-.71,3.31l-.45.38c-3.85-.86-6.21,3.95-3.29,6.49l-.11.55c1.18-.02.6,3.06-.48,2.87l-.56-.17c-.25-1.95-2.53-3.01-4.31-2.58l-.41-.36c-.5.47-2.09-.84-1.92-1.44l-.36-.46c.54-9.98-13.4-3.01-4.9,2.45.77.03,1.32.25,1.66.64l.33.06c.2,1.24.64,2.27,1.9,2.75l.17.54.55.28c1.17,4.49,7.46,3.81,7.61-.84l.48-.4.34-.03c.75,2.15,2.48,2.59,5.21,1.33l.46.37.57.2c1.43,3.74,6.96,2.88,7.33-1.05l.5-.34c1.35-.83,3.82.56,5.08,1.43s2.24,1.92,3.05,3.15c.9,1.36,2.31,4.06,1.47,5.48-.02.88-.71.9-1.2.24-.35.85-1.6.29-1.68-.48-.64.05-.7-.32-.24-.72l-.19-.52c1.2-1.66-.12-4.27-1.9-4.9-6-2.1-7.45,7.16-1.44,7.33l.41.48.4.4c-.4,1.62.34,3.14,2.1,3.34l.14.33c.61.15,1.44,1.54,1.44,2.16.21.07.21.15,0,.24-.4.14-.8.5-1.44.72l-.62-.03c-1.48-1.28-4.03-1.32-5.23.35l-.62.16c-.08,0-.16.01-.24,0-.56.69-2.67.1-2.88-.72l.28-.54c4.8-1.13,3.02-8.18-1.72-7.22l-.47-.38c-.31.29-2.22-.37-2.16-.96-.27-.47-.28-1.09-.02-1.86-1.28-9.16-13.19-.89-4.73,3.49.75-.03,1.29.15,1.63.53.78-.24,1.07.79.24.96l.22.47c-1.27,1.52.06,1.99,1.46,1.93.59-.19.84.18.48.72.56.17.99.67,1.28,1.49.59.34.96.72,1.12,1.15.44.55-1.16,1.66-1.68,1.2-.54-.03-1.06-.35-1.57-.96-8.27-3.66-7.9,10.27.22,6.05.41-.61.86-.95,1.36-1.01.68-.57,2.55,1.13,1.78,1.88-4.45,2.18-1.75,8.27,2.89,7.11.16,0,.31.02.38.1.59.67.07,5.67-.64,6.3l-.56-.07c-.42.68-1.63.93-2.16.24-.47.69-1.87.05-1.92-.72-.21-.48-.15-1.08.18-1.8-.38-9.08-12.93-2.14-5.16,3.01.76.06,1.3.29,1.62.71.59-.32.74-.13.48.48l.24.22c-.13,1.45.74,2.68,2.13,3.07l.26.53c.65-.05.73.11.24.48-.81.28-1.52.83-2.64,1.2-.88-.05-4.48.45-2.24.2l.08.28c-1.51.19-2.1.15-3.6-.48,1.52-1.52,2.03-3.72.58-5.53-1.57-1.96-3.63-1.51-5.62-.7-.09-.24-.33-.5-.48-.72-.74-.04-.82-1.32-.24-1.68.49-4.2-1.93-6.15-6-5.27-.04.61-1.08,1.67-1.68,1.92-.26.78-.48,1.57-.48,2.39.88.22,1.11,3.26.24,3.59-.49.01-1.03-.21-1.64-.66-.71-.13-1.36-.31-1.96-.54-.68-.06-1.57-.16-2.16-.48-.37.83-1.22.21-.72-.48-.26-.46-.26-1.06,0-1.8-1.03-8.83-12.83-1.74-5.2,3.28.75.06,1.29.29,1.6.68.18.05.34.14.36.32.28,2.1.38,2.64,2.65,3.17l-.14.58.56.13c.82,2.76,4.23,3.2,6.28,1.44l.6.11.48.37c.22.26-.8,6.34-1.04,6.65-.16.2-1.16.66-1.36.4-.48.25-1.09.35-1.82.3-.77.12-2.89.69-2.5,1.62v.24c-1.38-.12-2.98.16-4.32,0-4.9-.59-7.81-3.19-8.16-8.14l.46-.45c5.39.19,5.9-7.34.44-7.68l-.42-.49c-.71.12-.94-.62-.67-2.21-.11-.8-.73-1.31-1.84-1.54l-.12-.56-.62-.28c-5.18-6.66-11.63,4.3-3.33,5.57l.36.47c.28.73-.28,1.37-1.68,1.92-.45.35-1.15.76-1.68.96l-.49-.3c-.23-2.5-2.59-4.09-5-3.3l-.5-.46c-.52.72-1.86-.19-1.68-.96l-.31-.53c1.7-4.73-4.32-7.57-7.01-3.38l-.6.08c-.31-.69-.52-1.17-.72-1.92l.08-.64c1.64-1.42,1.92-4.47-.03-5.74l-.05-.57c.27-.86.48-1.18.96-1.92l.59.08c1.23,2.17,4.45,2.38,6.11.6,1.54-1.65.99-3.41.26-5.23.56-.59.8-1.24,1.2-1.92,1.2.85,2.1,1.47,3.76,1.11,6.43-1.38,1.05-11.78-4.05-5.89-.26.76-.64,1.23-1.15,1.43-1.87-1.6-4.63-1.93-6.96-2.16-1.64-.8-3.77-1.46-5.28-.24-.82-.08-1.6-.31-2.4-.48l-.09-.61c3.87-4.3-1.98-9.5-5.78-5.13h-.61c-.29-1.41-.31-1.74,0-3.12.48-.45.72-1.09.72-1.92,1.11-1.69,3.58-2.59,5.52-2.87.78-.3,1.34-.3,1.68,0l.13.56c-2.03,2.59-.08,6.35,3.25,6.11l.46.27c.6-.33.75-.13.48.48.16.9.47,1.74.92,2.53.89.37,1.23.81,1,1.3.18-.07.46-.12.53,0,1,1.84,1.88,3.05,4.31,2.53,4.88-1.04,3.57-8.26-1.38-7.47l-.57-.34c-.45.53-2.19-.27-2.16-.96l-.34-.51c.38-1.16.43-2.38-.14-3.48l.24-.56c-.11-.44.06-.6.49-.54l3.33.95c-.17-.29-.14-.57.02-.89l.32-.51c7.86-2.66-.19-12.37-4.29-4.93l-.59.17c-.09-1.23.01-2.2.24-3.35.44-.82.87-1.69.96-2.63,1.1-1.65,2.06-1.5,3.6-2.16,1.45-.55,2.33-.39,2.64.48l.38.44c-.63,2.67,1.51,5.29,4.3,4.73l.6.34c.69-.31,2.24,1.23,1.92,1.92l.34.6c-.77,3.66,3.97,5.87,6.52,3.29,1.74-1.77.94-3.88.09-5.81-.68-.42-.75-2.03,0-2.39.02-.32-.02-.64,0-.96l.57.25c.57,1.82,2.13,2.95,4.04,2.89l.42.46c.34-.3.48-.16.24.24l.46.32c-.2,1.33.51,2.49,1.73,3.01l-.02.5c.47.04.77.38.92,1.02,5.89,5.87,11.03-6.01,2.44-5.95l-.48-.33c-.43.82-2.18-.19-2.16-.96l-.29-.55c2.09-5.08-5.88-7.75-7.33-2.57l-.54.25c.11-4.06,1.41-7.09,5.04-9.1.5-.21,2.54-.86,2.89-.54l.23.54Z"/>
  <path d="M40.25,77.83c-.17-1.47-.19-2.28-1.44-3.35.64-2.41,2.49-3.88,5.05-3.49,4.82.74,4.66,7.71.05,8.46-1.29.21-3.49-.12-3.66-1.62Z"/>
  <path d="M36.17,57.95l-.5.19c-1.05-.48-4.19-2.13-3.58-3.3-.35-.66-.42-1.43-.48-2.16.91-2.48,2.94-3.9,5.65-3.12,4.5,1.29,3.68,8.13-1.09,8.39Z"/>
  <path d="M61.37,48.61c.14.77-.48.82-.96.24-.55-.02-1.07.06-1.56.23-.28.52-.48,1.09-.6,1.69-2.55.21-4.4-1.16-5.04-3.59.03-.45-.07-1.03,0-1.44,1.09-6.24,11.07-3.52,8.16,2.87Z"/>
  <path d="M24.17,71.6c-3.52-.75-5.7-1.95-6.48-5.75,4.26-5.47,11.42.73,6.48,5.75Z"/>
  <path d="M78.65,37.36c1.35-.1,3.2.06,4.56.24,1.83,7.16-8.64,8.33-8.4.96,1.09-.75,2.52-1.1,3.84-1.2Z"/>
  <path d="M39.77,98.9c-.24.75-1.3.6-1.68,0l-.26.24c-1.24-.61-1.58.1-1.78,1.34l-.6.1c-1.34-1.37-2.82-3.75-3.6-5.51,2.94-5.25,10.31-1.83,7.92,3.83Z"/>
  <path d="M56.57,108.24c-.19-2.63.16-5.28.24-7.9-.62-.35-.46-.76.24-.72,6.69-.04,6.14,9.28-.48,8.62Z"/>
  <path d="M39.05,79.74c.98.14,1.26,2.25,1.21,2.99-.32,4.31-6.32,5.41-8.17,1.56,2.2-3.33,4.94-2.42,6.96-4.55Z"/>
  <path d="M88.73,107.04c-2.95-1.24-3.95-3.47-5.04-6.23,0-.86,2.17-1.22,2.75-1.2,2.48.06,4.37,2.18,4.19,4.64-.06.9-.69,2.94-1.9,2.79Z"/>
  <path d="M47.45,103.93c-2.48.92-3.95.21-6.24.24l-.28-.45c.72-1.05.69-2.21.22-3.36l.3-.5c.65.07,1.26-.27,2-.22,2.28.15,3.97,2.03,4,4.3Z"/>
  <path class="st22" d="M31.13,93.15c-.64-2.42-.77-4.54,0-6.94,2.67,1.21,2.36,5.53,0,6.94Z"/>
  <path class="st20" d="M39.77,98.9c.34.08,1,.89,1.68.96.81,1.72.36,2.68-.24,4.31-1.46.02-2.09,1.27-3.88.16-1.18-.73-1.25-1.98-1.16-3.27.3-.61.97-.3,1.2.24.18.09.33.24.34.45.14,4.59,5.85-.31,1.15-1.08l-.53-.33c-.32-.36-.71-1.04-.24-1.44.49.09,1.23-.11,1.68,0Z"/>
  <path class="st24" d="M111.05,79.5c-2.51.84-3.85.77-6.48.48,1.02-2.41,4.98-2.52,6.48-.48Z"/>
  <path class="st6" d="M73.37,114.23c-.1.09-.15.41-.24.48-1.1.81-2.71,1.47-4.08,1.44-.26,0-.93.15-.72-.36.54-1.29,3.76-2.26,5.04-1.56Z"/>
  <path class="st0" d="M38.09,98.9c.25.48.65.93.24,1.44.26.58-.39,1.11-.96.96-.48.1-.8-.11-1.2-.24-.46-.15-.41-.16-.72-.48.47-.61.11-1.4.87-1.89,1.1-.71,1.42.15,1.77.21Z"/>
  <path class="st24" d="M31.85,72.32c-1.71-.17-3.64-.07-5.28-.24l-.36-.48c1.82-.97,4.29-1.03,5.64.72Z"/>
  <path class="st18" d="M94.49,107.04c-.92.3-1.19.36-2.16.48l-.96-.24c.96-.22,2.16-.91,3.12-.24Z"/>
  <path class="st2" d="M18.41,60.82c.63.73-.31,1.78-.48,2.51l-.24-.6c.17-.74.29-1.27.72-1.92Z"/>
  <path class="st5" d="M31.85,49.33c.19-.95.41-1.81.96-2.63.5.62-.34,2.2-.96,2.63Z"/>
  <path d="M63.95,78.12c6.03-.97,6.98,8.13,1.11,8.55-5.54.39-6.28-7.71-1.11-8.55Z"/>
  <path d="M78.6,63.75c5.84-.64,6.53,7.89,1.11,8.55-5.75.7-6.72-7.93-1.11-8.55Z"/>
  <path d="M63.95,106.86c6.03-.97,6.98,8.13,1.11,8.55-5.54.39-6.28-7.71-1.11-8.55Z"/>
  <path d="M64.2,63.75c5.98-.65,6.59,8.31.64,8.57-5.34.23-6.09-7.98-.64-8.57Z"/>
  <path d="M42.6,85.31c6-.75,6.54,8.43.65,8.57-5.37.13-6.03-7.9-.65-8.57Z"/>
  <path d="M42.6,56.57c6-.75,6.54,8.43.65,8.57-5.37.13-6.03-7.9-.65-8.57Z"/>
  <path d="M71.4,56.57c6-.75,6.54,8.43.65,8.57-5.37.13-6.03-7.9-.65-8.57Z"/>
  <path d="M71.4,85.31c6-.75,6.54,8.43.65,8.57-5.37.13-6.03-7.9-.65-8.57Z"/>
  <path d="M85.8,42.2c5.83-.64,6.49,7.89,1.11,8.55-5.74.7-6.68-7.94-1.11-8.55Z"/>
  <path d="M85.8,70.94c5.83-.64,6.49,7.89,1.11,8.55-5.74.7-6.68-7.94-1.11-8.55Z"/>
  <path d="M57,56.57c6.06-.66,6.45,8.44.64,8.57-5.43.13-5.97-7.99-.64-8.57Z"/>
  <path d="M85.8,85.31c6.06-.66,6.45,8.44.64,8.57-5.43.13-5.97-7.99-.64-8.57Z"/>
  <path d="M97.37,70.16c-.27.44-.76.77-1.48.97-.54.53-1.09.93-1.64,1.18-5.17.76-7.08-6.73-2.21-8.31,4-1.3,7,2.45,5.33,6.16Z"/>
  <path d="M76.01,76.87c-.25.32-.69.59-1.31.81-.67.69-1.36,1.3-2.05,1.82-5.04.79-7.02-6.54-2.39-8.26,3.79-1.4,6.9,1.89,5.75,5.62Z"/>
  <path d="M68.57,98.9c-.16.34-.53.51-1.12.5-.93.43-1.75.98-2.48,1.65-4.28.36-6.3-5.62-2.72-7.86,3.96-2.48,8.29,1.58,6.32,5.71Z"/>
  <path d="M54.17,70.16c-.06.19-.18.37-.38.41-1.63.28-2.05.45-3.22,1.75-4.28.36-6.3-5.62-2.72-7.86,3.96-2.48,8.29,1.58,6.32,5.71Z"/>
  <path d="M83.21,55.32l-.12.3c-1.43.28-2.7.58-3.15,2.2l-.33.13c-4.34.45-6.6-5.28-3.1-7.77s8.1,1,6.7,5.13Z"/>
  <path d="M97.37,80.22c-.69.66-1.18,1.81-1.09,2.77.06.67.69.94,1.09,1.31-1.62,3.47-7.05,3.02-7.99-.76-1.26-5.02,5.25-7.53,7.99-3.31Z"/>
  <path d="M97.13,99.14c-.14.6-.57.81-.96.24-1.57-.24-2.24.2-2,1.34l-.4.34c-5.39.24-6.28-7.7-.97-8.52,3.85-.59,6.34,3.33,4.33,6.6Z"/>
  <path d="M111.53,69.92c-.82-.08-1.62.08-2.4.48.07,1.21-.17,1.85-.72,1.92-7.34.24-5.53-10.74,1.19-8.26,2.18.81,3.64,4,1.93,5.86Z"/>
  <path d="M54.17,84.29c-.22.74-1.21.84-1.68.24l-.12.31c-1.09-.2-1.64.19-1.62,1.17l-.42.43c-.64.46-2.07-.23-2.62-.62-2.38-1.66-2.19-5.62.29-7.1,3.82-2.27,8.08,1.61,6.17,5.56Z"/>
  <path d="M32.33,58.43c.91,1.51.8,2.95.24,4.55.27.67-.35.86-.72.24l-.49.21c-.96-.52-1.6-.03-1.91,1.47-.58.53-1.93.07-2.57-.19-2.59-1.08-3.29-4.82-1.27-6.75,2.74-.11,4-.02,6.72.48Z"/>
  <path d="M54.41,95.31c-2.45-.47-2.16,2.24-2.71,3.89-.18.55-.59,1.37-.89,1.86-3.71.27-6.12-3.6-4.04-6.79,1.85-2.83,6.63-2.19,7.64,1.04Z"/>
  <path d="M53.45,90.76l.05-.54c2.29-.29,3.67-2.13,2.49-4.28l.35-.45c8-1.68,6.55,10.95-.65,7.95-1.75-.73-1.49-1.48-2.23-2.68Z"/>
  <path d="M53.45,76.39l.07-.55c1.29-.37,2.43-1.09,2.3-2.56l.51-.25-.22-.26c.44-.65.57-1.08.7-1.9,1.72.3,3.17.07,4.28,1.84,2.76,4.38-2.64,8.99-6.45,5.71-.87-.75-.77-1.27-1.19-2.04Z"/>
  <path d="M75.05,83.1c-.19-.56-.09-.67.48-.48l.36-.44c2.15.2,3.17-2.06,2.3-3.84l.22-.27c.35.08.89-.08,1.29.02,6.91,1.78,3.23,10.79-2.59,8.1-1.16-.54-2.13-1.76-2.07-3.09Z"/>
  <path d="M90.41,59.87c.07.16.17.32.24.48.21,5.75-7.62,6.55-8.64.96.48-.71,1.17-.59,1.68,0l.14-.3c1.85.26,1.84-.53,1.54-2.1-.39-.48-.66-1.67-.24-2.16,1.56-.66,3.86.19,4.76,1.6.4.62.33,1.09.52,1.52Z"/>
  <path d="M31.85,69.21l.16-.62c2.66.52,3.92-2.14,2.54-4.16l.18-.49c2.24-.76,4.78.61,5.35,2.92,1.24,4.94-5.22,7.5-7.81,3.48-.24-.38-.29-.89-.43-1.12Z"/>
  <path d="M60.65,54.84l.35-.4c2.56.12,3.55-2.3,2.28-4.34l.25-.52c.13,0,.49-.26.83-.25,2.14.07,3.97.95,4.52,3.16,1.23,4.9-5.09,7.4-7.71,3.63-.28-.4-.39-1.09-.52-1.28Z"/>
  <path d="M101.45,79.26c-.63-.13-1.83-.39-2.4-.24-1.58-.25-1.85-1.49-2.4-2.63-.06-.23,0-.43.18-.58,2.61-.02,3.88-2.22,2.55-4.4l.15-.3c5.85-1.58,7.88,7.23,1.92,8.14Z"/>
  <path d="M75.05,101.06c-.05,1.99.21,3.81.24,5.75-2.08,2-5.4,1.97-7.01-.55-.25-.39-.28-.85-.43-1.12l.2-.55c1.43-.26,1.96-1.11,2.28-2.46.28.02.47-.14.64-.34l-.22-.27c.28-.52.52-1.07.7-1.65,1.04-.56,3,.23,3.6,1.2Z"/>
  <path d="M46.25,52.44c3.21,2.57,6.58,3.11,6.96-1.92,2.12,1.58,1.8,5.29-.4,6.67-3.45,2.16-7.78-.79-6.56-4.75Z"/>
  <path d="M100.73,60.82c1.26-.26,2.58-.25,3.84,0,.16.01.32-.02.48,0-.07,4.95-7.07,5.93-8.4,1.2,1.28-.34,2.82-1.06,4.08-1.2Z"/>
  <path d="M94.73,49.57c-.5,2.33-1.89,4.79-3.16,6.8-.19.29-.15.7-.68.63-.14-.19-.63-.42-.92-.88-2.21-3.5.79-7.71,4.76-6.55Z"/>
  <path d="M44.33,50.53c-3.45,1.11-6.31-2.18-5.28-5.51,2.97,1.13,3.49,3.41,5.28,5.51Z"/>
  <path class="st21" d="M97.37,70.16c.12.01,2.07.88,2.16.96,1.04.96.93,3.34-.11,4.32-.86.81-1.81.52-2.77.95-.09-.19-.45-.41-.48-.72-.45-.45-.37-.77.24-.96l.46-.33c4.6.63.89-5.74-.73-1.29l-.46.43c-.38.46-1.03.34-1.2-.24.19-.32-.24-.91-.24-.96.03-.94,2.12-2.25,3.12-2.16Z"/>
  <path class="st4" d="M97.13,99.14c.5.08,1.31.67,1.92.72,1.31.11,1.15,1.84.96,2.87-.18.34-.24.64-.52,1.04-.52.74-1.74,1.76-2.6,1.6-1.54-.29-3.56-2.13-2.64-3.83.09-.67.74-.65.96,0l.41.34c.21,4.85,5.95-.06,1.15-.87l-.36-.43c-.69.22-.88-.95-.24-1.2.05.01.61-.3.96-.24Z"/>
  <path class="st14" d="M110.09,72.08l.04.53c-1.2,1.13-.18,3.02,1.43,2.57,1.89-.52.94-1.83.22-2.78-.13-.17-.19-.36-.24-.56-.51-.38-.31-.92.24-1.2.87.2.82.52,1.68.48,1.43.08,1.14,3.06.68,4.01-.49,1.01-2.32,2.42-3.08,1.26-2.26-.11-3.14-2.05-2.64-4.07.11-.45.51-1.45.72-1.92.38.43.7.99.96,1.68Z"/>
  <path class="st14" d="M68.57,98.9s.32.6.72.48c.5.45.21,1.12-.48.96l-.52.28c-4.59-.24-.77,5.68.77,1.42l.46-.27c.34-.44,1.03-.3,1.44,0-.77,1.98-.52,2.73-3.12,3.35-.39-.7-1.49-.45-2.23-1.49-.38-.54-.8-1.99-.65-2.58.32-1.29,2.29-2.53,3.6-2.16Z"/>
  <path class="st17" d="M54.17,70.16s.14.49.72.48c.66.28.19,1.33-.48,1.2-.14.15-.32.25-.52.2-4.69-1.18-1.3,5.73.77,1.25l.47-.26c.4-.37.8-.37,1.2,0-.08.21.05.77-.11,1.2-.58,1.52-1.4,1.58-2.77,2.15-.38-.7-.9-.41-1.53-.75-1.09-.58-1.51-2.17-1.35-3.32.2-1.49,2.24-2.56,3.6-2.16Z"/>
  <path class="st17" d="M76.01,76.87c.78.1,1.95,1.09,2.4,1.2,1.26,2.32-.08,5.02-2.88,4.55-.49-.33-.42-.84,0-1.2l.36-.44c1.65.33,2.42-1.79,1.17-2.68-1.58-1.12-2.48.94-2.73,2.16.25.67-.84,1.05-1.2.48.02-.35.08-1,0-1.28-.07-.25-.47-.14-.48-.16-.33-.41,1.79-2.83,3.36-2.63Z"/>
  <path class="st8" d="M34.73,63.94c1.41,1.23.81,4.25-1.02,4.85-.67.22-1.35.04-1.86.42-.4-.65-.91-.56-1.33-.95-.54-.51-1.21-2.21-.59-2.88.32-.59.97-.47.96.24l.42.35c.66,4.58,5.68-.46,1.09-1.12l-.31-.43c-.69.22-.88-.95-.24-1.2.21.05.66-.25.72-.24.39.1,1.89.72,2.16.96Z"/>
  <path class="st17" d="M63.53,49.57c1.61,2.56.28,5.42-2.88,5.27-.15-.2-.9-.53-1.2-.83-1-1-1.08-1.55-.96-3,.38-.51.92-.31,1.2.24.24,1.11.85,3.06,2.43,2.2s.82-3.05-.95-2.83l-.52-.33c-.31-.34-.49-1.02-.24-1.44.28.1.85-.25.96-.24.43.05,1.49.96,2.16.96Z"/>
  <path class="st21" d="M54.17,84.29c.12.02,2.08,1.11,2.16,1.2.07.08.48,1.58.49,1.8,0,1.04-.76,2.16-1.6,2.72l-1.77.75c-.54-.87-1.68-.96-2.13-1.83-.4-.77-.13-1.22-.27-1.77,0-.7.8-.67.96,0l.46.43c1.8,4.4,5.53-1.78.92-1.29l-.42-.34c-.54-.3-.77-.87-.48-1.44.55-.03,1.3-.29,1.68-.24Z"/>
  <path class="st17" d="M83.21,55.32c.13.03,1.82,1.29,1.92,1.44.32.48.59,1.63.24,2.16-.24.52-.89.4-1.2,0l-.39-.38c-.34-4.6-5.93.7-.98.97l.42.37c.54.3.77.87.48,1.44-.53-.03-1.2.08-1.68,0-.64-.11-1.6-.76-1.89-1.35-.12-.24-.51-1.86-.51-2.01.03-1.43,2.25-2.93,3.6-2.63Z"/>
  <path class="st1" d="M112.49,78.55c-.79-.44-1.26-1.29-1.44-2.16,2.86.14,3.8-3.14,2.4-5.27.42-.02.83.02,1.2-.24.02.19.23.47.24.83.07,2.43-.25,5.33-2.4,6.84Z"/>
  <path class="st1" d="M82.97,98.42c-.32-1.46-1.98-4.64-3.53-4.98-.81-.18-1.7.17-2.47-.29,3.76-2.1,7.78,1.35,6,5.27Z"/>
  <path class="st7" d="M93.77,43.58c-2.44.08-4.37-1.63-4.56-4.07,1.94,1.06,3.36,2.24,4.56,4.07Z"/>
  <path class="st26" d="M60.41,48.85c.42.42.65.93.24,1.44.26.58-.39,1.11-.96.96-.43.03-.82-.01-1.2-.24-.04-.03-.21-.2-.24-.24-.91-1.52.86-3.24,2.16-1.92Z"/>
  <path class="st16" d="M69.29,99.38c.58-.43,1.8-.27,2.16.48.67,1.4-.28,1.39-.48,1.92-.46.31-.99.31-1.44,0-.64.07-1.08-.95-.72-1.44.16-.21.34-.85.48-.96Z"/>
  <path class="st13" d="M31.85,63.22l.24,1.2c.28.56-.64,1.41-1.2,1.2-.26-.11-.75-.11-.96-.24-.03-.02-.46-.45-.48-.48-.6-1.12.27-2.27,1.55-2.16.51.05.77.46.85.48Z"/>
  <path class="st23" d="M74.33,80.46c.56-.18,1.09.41,1.2.96.26.33.17.84,0,1.2-.13.27-.22.34-.48.48-.97.51-2.1.02-2.18-1.08-.04-.49.25-.84.26-1.07l1.2-.48Z"/>
  <path class="st19" d="M52.49,84.53c.36.42.57.87.48,1.44.29.52-.41,1.25-.96,1.2h-.96c-.03-.12-.67-.52-.72-.72-.21-.91.12-1.94,1.13-2.11.41-.07.78.21,1.03.19Z"/>
  <path class="st10" d="M111.53,69.92c.14.17.22.5.24.72.03.42-.01.83-.24,1.2-.18.57-1.09.74-1.44.24-.95-.08-1.05-.87-.96-1.68.47-1.06,1.65-1.42,2.4-.48Z"/>
  <path class="st15" d="M56.81,70.88c.93,1.26-.37,1.87-.48,2.16-.39.28-.81.28-1.2,0-.6.2-1.08-.7-.72-1.2l.48-1.2c1.27-.03.91.06,1.92.24Z"/>
  <path class="st23" d="M95.69,73.52c.55-.49,1.29.76.72,1.2.05.25-.07.76-.24.96-.91,1.04-2.86.16-2.35-1.51.03-.11.62-.87.67-.89.24-.09,1.01.04,1.2.24Z"/>
  <path class="st12" d="M96.17,99.38l.24,1.2c.24.55-.67,1.18-1.2.96-.27-.05-.75.08-.96,0-.03-.01-.47-.45-.48-.48-.44-1.38.29-2.43,1.8-2.15.49.09.56.47.6.48Z"/>
  <path class="st3" d="M101.21,99.62c-.38,1.16-.6,2-1.2,3.11-.38-.98-.25-1.97-.96-2.87.73.06,1.42-.35,2.16-.24Z"/>
  <path class="st9" d="M74.81,97.46c-.16-1.1.11-1.5.48-2.39l-.48,2.39Z"/>
  <path class="st25" d="M104.57,60.82c-1.05-.08-2.82-.11-3.84,0,.97-.4,2.82-.4,3.84,0Z"/>
  <path d="M66.41,43.1c-4.04,1.99-7.84-3-5.04-6.47,3.38.79,4.68,3.29,5.04,6.47Z"/>
  <path d="M37.37,101.3c.17-.37.59-.79.96-.96,1.93-.86,3.74,1.44,2.29,3.13s-4.22-.14-3.25-2.17Z"/>
  <path class="st13" d="M85.37,58.91c1.08.67.85,2.46-.63,2.63-.53.06-.83-.23-1.05-.24-.36-.42-.57-.87-.48-1.44-.14-.54.48-.94.96-.96.3-.25.89-.2,1.2,0Z"/>
  <path d="M96.41,74.71c-.01-.07-.67-1.15-.72-1.2-.13-.91.23-1.98,1.19-2.29,3.72-1.18,3.55,5.2-.47,3.48Z"/>
  <path class="st1" d="M95.21,101.53c.07-.28.87-.89,1.2-.96,3.28-.65,3.58,3.74.85,3.86-1.67.07-2.45-1.39-2.05-2.9Z"/>
  <path d="M111.53,71.84c1.9.29,2.26,3.47.1,3.82-2.83.45-3.14-2.81-1.54-3.58.47-.23.93-.32,1.44-.24Z"/>
  <path d="M68.81,100.34c.26.17.68,1.07.72,1.44.32,2.81-4.21,3.21-3.86-.13.15-1.39,2.08-1.99,3.14-1.31Z"/>
  <path class="st1" d="M54.41,71.84c.24.21.7.93.72,1.2.22,2.89-4.47,2.95-4.07-.1.2-1.56,2.24-2.12,3.35-1.1Z"/>
  <path d="M74.33,80.46c-.62-1.4.52-2.99,2.04-2.9,2.38.15,2.62,4.43-.84,3.85-.55-.09-.97-.45-1.2-.96Z"/>
  <path d="M30.89,65.61c.07-.27.93-1.13,1.2-1.2,1.59-.38,2.96.81,2.59,2.46-.53,2.4-4.5,1.65-3.79-1.26Z"/>
  <path d="M59.69,51.24c.18-.37.59-.79.96-.96,1.99-.88,3.9,1.67,2.17,3.24s-4.04-.38-3.13-2.28Z"/>
  <path d="M52.97,85.97c2.31-1.14,4.09,1.41,2.51,3.1-1.29,1.37-3.76.06-3.47-1.9.06-.42.55-1,.96-1.2Z"/>
  <path d="M84.17,58.91c-.2.65-.34.74-.96.96-3.29,1.16-3.86-3.5-1.09-3.62,1.73-.07,2.54,1.04,2.05,2.66Z"/>
</svg>