<?xml version="1.0" encoding="UTF-8"?>
<svg id="Layer_1" xmlns="http://www.w3.org/2000/svg" version="1.1" viewBox="0 0 737.28 1105.92">
  <!-- Generator: Adobe Illustrator 29.7.1, SVG Export Plug-In . SVG Version: 2.1.1 Build 8)  -->
  <defs>
    <style>
      .st0 {
        fill: #0e0806;
      }

      .st1 {
        stroke: #120f0d;
        stroke-miterlimit: 10;
        stroke-width: .5px;
      }

      .st1, .st2 {
        fill: #120f0d;
      }

      .st3 {
        fill: #090605;
      }

      .st4 {
        fill: #252322;
      }

      .st5 {
        fill: #161411;
      }

      .st6 {
        fill: #242322;
      }

      .st7 {
        fill: #fafaf6;
      }

      .st8 {
        fill: #130c07;
      }

      .st9 {
        fill: #080808;
      }

      .st10 {
        fill: #0d0805;
      }

      .st11 {
        fill: #070604;
      }

      .st12 {
        fill: #060504;
      }

      .st13 {
        fill: #050505;
      }

      .st14 {
        fill: #eeeeec;
      }

      .st15 {
        fill: #ae7044;
      }

      .st16 {
        fill: #f9f9f9;
      }

      .st17 {
        fill: #7d532f;
      }

      .st18 {
        fill: #050504;
      }

      .st19 {
        fill: #493e36;
      }

      .st20 {
        fill: #0e0805;
      }

      .st21 {
        fill: #385b77;
      }

      .st22 {
        fill: #b46f3c;
      }

      .st23 {
        fill: #cb050b;
      }

      .st24 {
        fill: #151411;
      }

      .st25 {
        fill: #b56e3a;
      }
    </style>
  </defs>
  <path class="st13" d="M417.24,390.96c2.48,3.08,19.79,6.3,24.98,8.13,30.91,10.97,47.38,24.17,61,57.69,8.72,21.43,15.41,44.04,23.93,65.6.58,4.24-9.25,9.01-12.38,10.76,2.4,13.46,5.09,27.04,7.17,40.69,5.56,36.32,7.85,73.73,13.7,109.81,4.82,29.61,15.31,63.54.32,92.02-4.48,8.5-6.46,8.18-12.94,12.66-1.82,1.26-3.16,4.08-5.88,5.47-4.03,2.09-5.14.56-8.17.97-1.05.13-3.69,2.84-5.48,3.27-4.22.99-7.11-.27-6.9-5.5.42-9.84,8.48-25.78,9.41-36.5v-16.33l-4.11,15.48c-2.32,4.53-8.17,14.56-12.99,14.97-9.62.78-2.98-14.43-1.84-19.63,3.08-14.38,1.45-28.35,5.53-42.35,1.61-5.53,5.82-12.45,5.8-18.08,0-4.29-2-11.77-2.87-16.33-3.61-18.64-8.43-37.79-12.62-56.35-.18-.86.03-2.47-.97-2.28l4.72,46.78c.84,4.43-11.25,6.84-11.46,7.64-.18,12.36.37,24.81.08,37.17-.18,7.72-1.05,15.8-1.37,23.52-3.19,78.61-9.51,157.12-14.76,235.54-.05,3.81-11.25,6.2-11.41,6.95.45,2.12-.55,8.74.16,10.06.21.38,5.22,2.25,6.38,3,1.42.94,5.48,4.24,6.56,5.5,2.11,2.44,3.66,8.21,5.06,9.44,1.9,1.66,8.09,4.35,11.01,6.49,9.41,6.81,20.26,17.59,22.42,30.42.29,2.52.26,5.07,0,7.59-3.56,25.53-30.57,28-49.12,24.97-18.55-3.03-51.99-20.04-59.47-41.95-3.06-8.99-.58-24.86,2.66-33.71,1.34-3.59,6.14-10.89,6.67-12.93.34-1.34.37-6.01.13-7.43-.61-3.84-10.46-3.19-11.36-8.4-3.72-75.64-8.56-151.06-14.76-226.42-.47-5.66-.16-12.12-1.29-17.51-.61-.48-5.22-.56-5.4-.32-.18.24-.58,5.44-.66,6.46-5.64,79.47-11.88,158.92-16.1,238.55,0,3.86-11.23,6.22-11.38,6.97-1.63,6.89,3.29,11.37,5.51,17.25,3.66,9.66,4.22,18.21,3.9,28.64-.55,7.89-4.56,6.14-4.01-.75l-.95-1.82c1.48-8.1-.63-16.36-3.24-23.9-2.16,8.58-16.05,17.78-23.11,12.79-8.75-12.79-26.82-26.66-37.21-8.23,8.51.7,16.84,4.1,22.9,11.48,10.59,16.23-6.53,5.18-11.8-.24-6.82-4.48-15.05-4.88-21.82-.11l-1.79-.62c-1.71-.67-1.5-2.2.66-4.56,1.53-1.1,3.69-1.66,5.03-3.03,4.14-4.18,4.64-10.35,11.01-14.11,1.26-.75,6.46-2.39,6.64-2.74.69-1.23-.34-8.72.13-10.86-2.19-.99-9.17-2.76-10.57-4.43-.76-.91-1.32-7.43-1.5-9.31-3.87-36.37-4.43-74.29-6.72-110.93-3.11-49.62-7.33-99.26-8.72-148.91-.92-8.21,1.34-20.46.03-28.16-.4-2.39-3.4-2.33-5.14-3.27-2.19-1.18-6.14-2.87-6.3-5.82l5.4-44.47-13.6,59.41c-5.98,15.82,3.79,26.02,6.06,40.71,1.69,10.94.47,19.98,3.06,31.49,1,4.48,6.32,17,2.11,20.28-6.56,5.1-15.86-11.16-17.81-16.9l-3.21-12.69v14.05c0,10.49,8.7,27.55,9.38,38.01.4,5.77-2.21,7.27-7.01,6.41-2.42-.43-4.19-3-5.64-3.35-1.03-.24-2.5.54-3.77.43-3.74-.32-5.59-2.57-8.51-4.64-6.64-4.72-11.28-7.89-15.36-16.2-14.94-30.31-1.87-69.79,2.69-101.3,4.85-33.66,7.22-67.83,12.38-101.46,2.03-13.2,4.77-26.28,7.09-39.29-2.29-.56-11.41-6.25-11.91-8.21-.16-.64-.13-1.29.03-1.93,9.38-23.25,16.79-48.71,26.77-71.53,14.26-32.53,37.47-42.32,66.35-53.13,5.4-2.01,12.83-2.33,16.57-7.4"/>
  <path class="st18" d="M267.6,1007.95l-.24,1.9c-35.49,26.42-26.82,45.97,12.38,46.24,22.42.16,52.15-13.41,63.19-36.61l1.69-.89,2.35,5.31,1.66-4.56c-.26,8.29-.69,12.55-5.38,19.36-10.65,15.48-33.04,29.15-50.07,32.1-21.4,3.7-59.08-1.02-52.2-35.67,3-15.15,16.6-24.09,27.27-31.76l-.66,4.56h0Z"/>
  <path class="st24" d="M499.3,1045.2v-7.59c.69,4.16.55,3.59,0,7.59Z"/>
  <path class="st7" d="M429.68,400.13c9.33,1.9,18.37,5.58,26.98,9.95,22.03,11.18,32.23,20.95,42.53,45.97,8.93,21.7,15.76,45.25,24.58,67.08.24.99-.5,1.39-1.08,1.9-11.96,10.27-34.04,15.74-48.85,16.39-2.06-21.19-2.66-43.05-5.45-64.1-.16-1.29-.95-8.56-1.24-8.85-.4-.43-2.4.11-2.61,1.21l19.02,192.6c-19.31,9.74-42.53,14.32-63.64,16.68-43.85,4.85-101.5,4.24-144.19-8.1-3.19-.91-17.92-5.63-19.55-7.43-.82-.91-.71-1.85-.69-3.03.29-9.58,3.43-23.44,4.61-33.58,5.61-48.36,12.62-100.31,14.81-148.83.16-3.41-.08-6.84,0-10.25-1.95,1.42-2.21,5.61-2.58,8.07-3.14,21.35-3.24,43.37-6.19,64.77-16.97-.4-35.65-5.61-49.38-17.11,8.46-21.7,15.6-44.76,24.56-66.14,2.92-6.97,6.24-14.7,10.57-20.68,14.2-19.77,38.89-28.81,59.55-36.42,3.5,10.3,6.51,18.4,14.84,24.78,30.38,23.31,90.75,21.24,103.37-24.92h0l.03.03Z"/>
  <path class="st21" d="M473.16,670.59c-.87,14.3-.74,28.64-1.32,42.97-2.69,66.7-7.25,135.45-12.09,202.1-1.21,16.6-2.77,33.23-4.32,49.81-19.63,9.49-43.27,9.09-63.16.59-2.32-24.54-2.74-49.3-4.14-73.95-3.21-56.06-8.51-111.98-12.02-167.95-.05-1.02-.37-1.74-.69-2.63,2.48.08,17.36-.64,17.39-3.43.03-2.55-9.54-.38-11.01-.35-6.43.19-13.78.35-20.13,0-2.06-.11-10.57-2.63-11.01-.4-.82,4,14.1,3.25,14.07,4.56l-17.34,243.24c-.9,2.23-6.38,3.97-8.64,4.64-17.13,5.02-38.73,3.25-55.31-3.51-1.79-12.85-2.82-26.15-3.77-39.21-1.74-24.27-2.48-48.65-4.03-72.93-3.9-61.15-9.01-122.2-9.35-183.51,19.55,6.62,40.21,10.54,60.61,12.15,29.64,2.36,62.19,2.44,91.73-.75,18.45-2.01,36.73-5.98,54.57-11.4h-.03v-.03Z"/>
  <path class="st22" d="M266.26,543.67c-2.37,15.1-2.95,30.58-5.67,45.62-5.3,29.26-14.76,58.9-20,88.27-3.19,17.92-.58,15.61,4.06,30.82,4.27,14,2.16,25.8,4.9,39.27.9,4.4,3.27,9.63,3.79,13.92,1.63,12.82-8.93-1.34-11.09-5.66-3.43-6.89-3.48-13.79-5.67-20.92-1.92-6.22-4.4-6.03-5.09.64-2.13,20.36,4.03,37.93,9.28,56.99.18,4.21-3.64,2.31-5.69,1.07-10.88-6.41-17.36-37.87-18.39-50.93-.24-.21-1.5,1.1-1.69,1.56-.58,1.45.82,11.4,1.21,13.81,1.98,11.88,6.3,23.09,11.86,33.26-5.01.54-9.09-4.85-11.65-9.17-6.98-11.77-8.06-27.2-9.12-40.96-2.45-3.14-2.06,10-2,11,.58,9.6,3.53,20.68,7.35,29.26-1.48.4-1.5-.97-2.13-1.74-21.5-25.56-6.56-72.36-2.06-102.19,4.51-29.83,6.67-62.31,11.01-93.12,2.37-16.76,5.16-33.39,8.59-49.89,12.25,5.02,25.03,8.82,38.16,9.12h.03v-.03Z"/>
  <path class="st22" d="M527.41,781.52c2.69-7.8,5.35-15.8,6.48-24.17.4-2.92,1.79-14.4.18-16.12-1.13-1.23-1.13.29-1.34,1.1-1.29,4.69-1.21,12.47-2.21,18.02-1.71,9.55-5.69,22.77-12.86,28.73-1.71,1.42-4.22,3.11-6.35,1.9,8.62-13.36,13.46-30.9,13.39-47.5-1-.21-1.53.24-1.87,1.29-1.21,3.57-1.77,12.45-2.87,17.27-2.06,8.93-8.09,27.25-15.55,31.76-1.16.7-4.66,2.36-5.09.16,3.58-16.55,10.75-33.47,10.01-50.88-.11-2.76-1.24-17.76-4.85-10.78-5.22,10.03-1.9,22.32-12.57,32.1-2.13,1.96-5.16,4.16-5.3-.75-.11-3.94,4.45-15.69,5.19-21.38,1.71-12.95.18-22.21,4.24-35.46,4.98-16.25,6.27-13.33,2.87-31.73-7.43-40.26-20.21-77.41-23.77-118.92-.34-3.89-.58-7.89-.69-11.77,12.67-.48,25.53-4.16,37.18-9.87,3.72,16.92,6.48,34.14,8.93,51.42,4.9,34.6,7.14,70.24,13.04,104.5,1.16,6.76,3.16,13.52,4.3,20.22,3.79,22.66,5.77,53.86-10.51,70.83h0v.03Z"/>
  <path class="st5" d="M267.6,1007.95c6.38-4.05,10.17-5.34,17.58-3.59s11.12,7.3,17.15,10.92c4.64,2.79,3.16-.7,1.11-3.54-6.06-8.37-16.18-13.63-25.8-12.15,6.67-16.98,21.34-14.89,32.46-4.53,7.56,7.03,6.4,14.08,18.42,8.72,4.43-1.98,8.12-5.55,10.43-10.19l.95-6.12c3.5,9.07,7.38,21.3,4.69,31.14-5.56,20.46-39.79,37.42-57.23,38.78-13.46,1.05-52.88-.08-41.79-26.15,3.53-8.29,14.97-18.8,22.03-23.25h0v-.03Z"/>
  <path class="st24" d="M461.78,999.61c-8.77-.8-16.63,1.72-23.45,7.97-1.08.99-7.14,7.38-6.01,8.74,5.16-2.74,9.35-7.05,14.73-9.49,14.97-6.73,23.64-1.88,35.41,9.17,7.83,7.35,21.32,23.31,8.99,32.86-21.37,16.58-64.43,5.69-83.27-12.39-4.06-3.92-13.7-14.99-14.57-20.71-1.32-8.74,2.08-21.38,6.88-28.3-1.19,8.93,12.91,21.11,19.74,17.84,1.53-.75,3.82-5.23,5.35-6.84,4.77-5.02,13.89-11.51,20.47-11.77,5.59-.21,14.73,6.25,15.7,12.93h.03Z"/>
  <path class="st22" d="M411.58,379.56c.21,11.69,3.87,18.43,14.73,18.99-10.09,38.81-58.02,42.86-86.17,29.77-11.8-5.5-21.95-13.73-24.9-28.73-.32-1.58.18-.62.9-1.05,8.04-4.8,11.04-8.42,12.41-19.74"/>
  <path class="st25" d="M336.59,973.78v17.86c0,.75-2.92,4.8-3.79,5.58-1.87,1.66-9.85,5.55-11.99,5.15-.45-.08-5.09-6.46-6.32-7.7-6.01-6.09-12.23-9.63-20.13-11.48l.05-9.41c13.91,2.92,28.27,3.27,42.19,0Z"/>
  <path class="st25" d="M403.54,973.78c13.65,3.57,27.14,2.39,40.84,0v9.44c-6.98,1.29-13.15,5.07-18.42,10.3-1.4,1.39-6.32,8.26-6.82,8.4-3.93,1.1-9.91-2.98-12.52-6.17-.5-.62-3.08-4.56-3.08-4.85v-17.09h0v-.03Z"/>
  <path class="st4" d="M392.82,1020.13c.29.32,2.56,5.98,4.01,7.99,20.84,28.81,70.72,43.37,98.79,20.89.08,3.7-3.35,8.21-6.03,10.62-11.99,10.78-33.44,9.31-47.48,5.28-19.13-5.47-45.8-20.71-50.59-44.42-.11-.64,1.26-.43,1.32-.38Z"/>
  <path class="st6" d="M244.84,1050.51c6.43,5.66,16.42,9.04,24.53,9.79,29.12,2.68,59.02-9.36,76.57-36.37-.76,9.44-7.59,17.09-13.73,22.77-18.47,17.06-43.66,26.55-67.43,20.3-8.22-2.15-17.18-6.68-19.95-16.49Z"/>
  <path class="st23" d="M444.54,376.61"/>
  <path class="st23" d="M445.97,373.44"/>
  <path class="st13" d="M322.59,393.8c-16.07,3.86-28.99,4.59-45.16,1.1-13.41-2.9-26.4-7.59-31.86-22.07-.37,7.89,3.48,16.04,7.59,22.48h-8.14c-1.48,0-7.25-1.74-9.01-2.33-23.79-8.15-40.03-38.33-43-63.27l-1.69,8.58c.11,9.01-.69,18.13,1.69,26.87-1.11.3-1.08-.46-1.58-.99-20.05-21.38-19.24-66.78-13.89-94.2,10.3-52.7,39.29-119.62,68.98-163.37,23.11-34.04,70.62-73.73,112.88-60.4,2.66.83,10.62,5.07,12.09,5.07,2.06,0,11.46-4.18,14.99-4.96,68.19-14.94,122.24,75.37,145.61,130.46,17.65,41.68,39.63,115.01,27.3,159.56-2.74,9.87-7.93,20.71-14.44,28.24,1.03-8.53,1.26-17.11,1.13-25.75l-1.71-8.56c-4.11,30.33-25.61,61.13-56.23,64.42,3.77-5.12,6.9-12.07,7.33-18.59.05-.64.4-2.79-.58-2.68-5.22,14.08-18.42,18.59-31.38,21.08-12.04,2.33-22.27,2.6-34.39,1.96-3.77,0-4.9-2.39-8.62-2.79l-3.27-2.74c-1.53,1.02,2.27,6.12-3.69,1.69l-2.4-6.28c-.55-2.01-1.03-6.3-.55-7.64l1.95-2.28c37.6-19.47,56.13-59.06,64.08-100.66,1.4-3.33,3.66-1.53,3.21,1.37-.84,6.79-2.08,13.52-3.72,20.2-2.5,9.28,10.67,2.12,13.97-.19,14.52-10.19,19.05-34.65,17.23-51.85-1.98-18.59-22.16-13.49-25.69,1.34-1.29.56-2.08.86-2.42-.75.16-28.24-18.39-50.96-43.35-59.81-16.52-6.6-33.12-13.01-49.8-19.2-22.95-8.58-43.5-22.88-61.05-40.29-7.25,14.64-15.18,29.64-25.72,42.06-20.08,19.15-39.53,43.37-38.31,73.6-.13,1.85-.97,1.64-2.5,1.23-4.19-6.09-11.12-14.32-19.16-10.22-14.33,7.27-4.9,40.9.26,52.89.79,0,1.58,0,2.21.62,3,5.93,6.72,9.76,12.78,12.18,1.5.59,9.17,2.82,8.14-.56-1.84-5.2-5.03-27.17-3.61-28.22,1.21-.89,2.56-.32,2.77,1.37l6.46,27.44c8.04,37.23,36.6,65.09,68.38,80.95,22.95,11.45,43.19,10.17,66.72.8l2.11.4c1.21-.35,6.24-3.75,6.03-2.31-.4,2.63-23.27,9.09-26.19,9.95-20.87,6.01-37.55.05-56.13-9.95-.95,3.62-.92,5.93-2.4,9.41l-4.24,5.58h-.03Z"/>
  <path class="st9" d="M429.13,396.48c-3.61-.35-7.83.75-11.25-.59,3.87,0,7.62.4,11.25.59Z"/>
  <path class="st15" d="M405.52,381.11c-13.86,5.79-33.2,10.25-47.88,7.51-26.17-4.88-61.92-31.81-76.36-55.09-12.23-19.71-15.49-40.53-20.79-62.98-.95-.16-.61,1.42-.55,2.07.45,5.69.92,11.35,1.84,16.98,1.4,8.56,6.32,14.08-6.38,10.84-4.82-1.23-8.64-4.35-11.78-8.31-.97-1.23-1.9-3.75-2.56-4.45-.79-.83-1.74.19-2.24-.51-2.06-2.92-5.56-16.01-6.3-20.01-1.66-8.72-3.85-22.34,1.05-29.88,3.24-4.99,7.4-7.11,13.04-5.66,7.43,1.9,8.43,6.76,13.28,11.75-1.48-23.71,9.99-43.96,24.45-60.91,5.19-6.09,11.86-11.56,16.81-17.78,9.17-11.51,16.05-26.31,23.69-38.97,11.23,9.23,22.13,19.45,34.55,26.9,26.72,16.07,58.79,23.04,86.4,36.85,21.08,10.54,34.94,32.64,34.49,57.45l1.95-4.75c4.77-9.92,17.29-14.64,24.16-4.08,3.93,6.03,1.95,24.03.61,31.33-2.64,14.46-9.78,27.3-23.53,32.61-2.61.99-9.06,2.6-8.77-2.09.42-6.41,3.4-14.35,3.9-21.38.05-.8.47-3.65-.55-3.84-4.32,17.51-8.62,36.45-16.79,52.44-11.28,22.05-28.93,41.09-50.7,51.63-1.48.72-3.61,1.77-5.06,2.36h0v-.03Z"/>
  <path class="st3" d="M418.33,189.13c10.28-1.23,28.62,3.22,36.94,9.87,1.79,1.42,10.12,10.78,9.83,12.69-.16,1.02-.95.64-1.55.48-10.14-2.79-17.44-9.82-28.59-11.32-3.95-.54-8.83-.24-12.86-.67-1.55-.16-8.51-.99-9.28-1.48-1.4-.86-2.16-5.18-1.4-6.81.84-1.82,5.14-2.55,6.9-2.76h0Z"/>
  <path class="st11" d="M276.22,208.46c-.4-2.23.79-3.7,1.79-5.5,7.09-12.55,19.26-17.3,32.81-16.98,2.95.08,8.41.27,11.17.67,1.34.19,9.12,3.43,9.33,4.4.74,3.38-10.01,3.57-12.02,3.92-9.83,1.72-23.53,3.89-32.65,7.64-1.34.56-10.04,6.33-10.43,5.87h0v-.03Z"/>
  <path class="st0" d="M326.81,323.74s.26-4.24,1.69-2.95c.21.19,2.03,4,2.85,5.02,7.85,9.95,31.23,14.19,43,13.33,7.77-.56,27.67-6.65,32.89-12.71,1.34-1.56.97-3.16,1.11-3.3.29-.32,6.43,2.66,5.06-4.13,4.8,6.44.13,6.01-3.35,8.02-2.19,1.26-5.24,4.69-7.96,6.41-20.08,12.74-50.2,13.04-69.04-2.39-1.13-.94-3.21-3.73-4.01-4.1-1.66-.78-2.58.89-4.22-.24-1.5-1.02-3.72-3.89-2.79-5.95,1.69-3.84,2.53,4.91,4.77,2.95v.05h0Z"/>
  <path class="st10" d="M363.33,286.46c-.11.16-2.45.91-3.29,1.56-2.71,2.09-7.59,8.61-3.61,11.4,3.4,2.39,11.49,3.38,15.52,2.9,2.66-.32,15.57-5.2,16.15-4.59,1.48,1.56-2.45,4.29-3.43,4.96-7.46,5.15-19,6.17-26.96,1.82-5.45-2.98-7.46-6.97-5.32-13.3.55-1.64,4.95-8.37,6.3-8.77,2.58-.78,5.69,2.39,4.61,4h0l.03.03Z"/>
  <path class="st8" d="M494.35,252.21c2.24,2.36-7.91,7.46-8.7,9.47-1.9,4.75,3.08,16.87-4.8,17.14.21-1.66,1.58-2.63,1.63-4.48.16-3.65-2.37-7.7-.66-12.5,1.48-4.05,7.91-10.89,12.49-9.63h.03Z"/>
  <path class="st20" d="M257.67,278.23c-.84.99-4.19-4.51-4.35-5.18-.95-3.84,1.45-9.55.13-12.55-.32-.75-8.91-8.82-8.14-9.47,2.45.19,5.4,1.64,7.27,3.3,6.17,5.5,3.4,10.65,3.98,17.68.18,2.12,1.24,4.05,1.11,6.22h0Z"/>
  <path class="st8" d="M384.73,351.53c.47.59-.05,2.31-.92,2.84-4.03,2.6-14.12,2.9-18.76,2.2-1.63-.24-10.62-3.14-10.65-4.75,0-2.41,7.19,1.18,8.19,1.42,5.4,1.31,12.33.24,17.87-.59.84-.13,4.14-1.29,4.27-1.1h0v-.03Z"/>
  <g>
    <path class="st16" d="M290.08,270.61c-9.99-7.56-10.8-20.92-4.72-31.86,10.99-15.64,41.05-13.71,51.62,6.54,2.66,13.14-3.61,25.88-15.47,31.06-8.62,3.75-16.79,2.47-25.16-.89-2.66-1.31-4.77-2.92-6.3-4.83h0l.03-.03Z"/>
    <path class="st19" d="M289.5,271.23h0l.58-.62c1.58,1.56,4.85,2.92,6.3,4.83"/>
    <path class="st17" d="M320.2,233.35c10.12,6.17,12.07,21.11,5.11,30.63-5.77,7.94-14.04,8.56-22.66,6.62-2.21-.94-5.01-2.66-6.85-4.24-16.79-17.59,3.35-45.94,24.4-33.04v.03Z"/>
    <path class="st2" d="M295.8,266.37c-17.52-14.78,1.66-46.75,23.27-34.49,21.87,12.39,7.88,49.03-16.39,38.73h10.01c23.14-2.49,22.13-42.73-6.8-39.13-11.25,1.39-19.37,16.15-14.36,27.09l4.3,7.83h0l-.03-.03Z"/>
    <path class="st2" d="M304.97,241.64c2.03-.21,3.19-.94,5.88-.46,9.46,1.74,12.12,14.43,2.92,18.48-8.09,3.54-14.07-2.36-13.94-11.1,0-1.15-.55-2.41,1.13-2.09,4.37.8,4.85-.48,4.01-4.83h0Z"/>
    <path class="st14" d="M300.93,246.47c-1.48-2.15-.26-4.88,2.13-5.31.9-.16,1.69.51,1.87.51,4.3,3.43-1.11,9.07-4.01,4.83h0v-.03Z"/>
    <path class="st1" d="M290.08,270.61c-16.57-13.71-9.25-43.61,20.61-44.71,6.3.64,12.78,1.77,24.19,14.48,2.11,2.82,2.71,6.09,2.71,8.34-2.71-16.55-37.87-29.83-53.04-7.7-2.87,4.16-6.93,19.77,4.35,29.64.53,1.07,3.61,2.49,2.82,1.69l-1.63-1.72h0v-.03Z"/>
  </g>
  <g>
    <path class="st16" d="M450.34,271.87h0c-1.5,1.9-3.61,3.51-6.3,4.83-8.35,3.35-16.55,4.64-25.16.89-11.86-5.18-18.1-17.92-15.47-31.06,10.57-20.25,40.61-22.18,51.62-6.54,6.06,10.94,5.27,24.3-4.72,31.86h0l.03.03Z"/>
    <path class="st1" d="M450.34,271.87l-1.63,1.72c-.79.8,2.29-.64,2.82-1.69,11.3-9.87,7.22-25.48,4.35-29.64-15.18-22.1-50.33-8.85-53.04,7.7,0-2.25.63-5.53,2.71-8.34,11.38-12.71,17.89-13.84,24.19-14.48,29.85,1.1,37.18,31.03,20.61,44.71h0v.03Z"/>
    <path class="st19" d="M444.04,276.7c1.45-1.9,4.69-3.27,6.3-4.83l.58.62h0"/>
    <path class="st17" d="M444.62,267.63c-1.87,1.56-4.64,3.27-6.85,4.24-8.62,1.93-16.89,1.31-22.66-6.62-6.93-9.55-4.98-24.46,5.11-30.63,21.08-12.9,41.19,15.45,24.4,33.04v-.03Z"/>
    <path class="st2" d="M444.62,267.63h0l4.3-7.83c5.01-10.94-3.11-25.69-14.36-27.09-28.93-3.59-29.93,36.64-6.8,39.13h10.01c-24.27,10.3-38.26-26.34-16.39-38.73,21.61-12.23,40.79,19.71,23.27,34.49h0l-.03.03Z"/>
    <path class="st12" d="M435.48,242.9h0c-.84,4.37-.37,5.63,4.01,4.83,1.71-.35,1.13.94,1.13,2.09.13,8.74-5.85,14.67-13.94,11.1-9.2-4.05-6.53-16.74,2.92-18.48,2.66-.48,3.85.24,5.88.46h0Z"/>
    <path class="st14" d="M439.48,247.73h0c-2.9,4.24-8.3-1.39-4.01-4.83.18,0,.95-.67,1.87-.51,2.4.46,3.61,3.19,2.13,5.31h0v.03Z"/>
  </g>
</svg>